<svg width="546" height="341" viewBox="0 0 546 341" fill="none" xmlns="http://www.w3.org/2000/svg">
<path d="M99.4986 340.001C33.4986 337.201 58.6652 318.501 79.4986 309.501C38.9978 292.5 45.4994 284.501 105.499 268.001C165.499 251.501 197.999 268.001 232.999 268.001C235.999 248.001 265.999 248.501 317.999 247.501C369.999 246.501 432.499 266.501 432.499 301.501C432.499 336.501 308.999 333.501 280.999 333.501C252.999 333.501 181.999 343.501 99.4986 340.001Z" fill="#376A18"/>
<g clip-path="url(#clip0_4459_2140)">
<path d="M425.27 156.444C416.604 168.074 404.342 175.449 391.088 180.794C362.119 192.004 322.177 176.486 323.626 223.05C324.27 240.454 336.657 253.541 342.434 268.925C344.813 279.304 357.692 274.521 360.903 281.217C351.655 284.122 338.07 275.773 327.65 274.736C305.399 272.34 283.898 276.702 262.389 279.286C283.576 271.947 275.491 262.158 276.788 244.11C278.917 230.281 280.848 216.444 284.005 203.231C284.435 182.931 334.376 44.8117 350.188 111.033C334.939 140.952 324.994 162.791 324.994 162.791C338.365 172.23 356.959 168.288 371.823 163.211C388.199 156.31 401.65 146.629 411.157 131.593L417.266 123.539L433.364 142.311L425.27 156.426V156.444Z" fill="#5F4E0E"/>
<path d="M301.892 44.8837C304.575 25.2175 333.543 11.0937 333.543 11.0937C351.126 0.885156 370.292 -1.76977 390.04 1.04606C408.714 3.70993 424.428 12.4435 436.359 27.4166C438.362 29.9285 440.321 32.789 440.822 35.6317C441.645 40.3694 444.23 38.5727 446.403 37.8933C452.645 35.9535 458.942 34.4964 465.533 34.5679C486.712 34.7735 503.74 43.5428 517.236 59.5976C524.91 68.7334 531.779 78.5307 536.376 89.4812C540.338 98.9209 543.951 108.674 544.479 119.213C544.658 122.699 545.972 126.042 546.008 129.681C546.133 143.304 544.523 156.596 540.982 169.817C537.923 181.215 533.594 191.79 526.296 201.069C520.698 208.184 514.187 213.771 504.841 215.693C502.032 216.274 499.242 217.141 496.335 217.445C480.594 219.09 468.878 212.868 461.205 199.183C457.421 192.425 454.112 185.407 454.309 177.353C454.372 175.002 453.567 173.715 450.955 173.894C440.053 174.627 433.596 168.36 428.444 159.797C427.728 158.617 427.299 156.623 425.287 156.444C425.188 154.093 425.725 151.465 424.858 149.427C422.944 144.949 422.845 140.783 424.822 136.394C425.94 133.918 425.206 132.47 422.183 132.461C418.499 132.461 414.751 132.961 411.174 131.602C405.155 128.223 401.246 123.101 400.003 116.406C399.395 113.143 398.045 113.313 395.871 114.261C392.303 115.825 388.743 116.004 385.103 114.538C383.279 113.805 382.447 114.269 381.508 116.308C374.845 130.798 360.759 131.889 349.803 121.492C348.452 120.214 347.647 118.337 345.689 117.72C344.454 113.644 342.218 109.97 341.762 105.5C341.583 103.766 341.53 99.9489 338.453 99.6182C335.162 99.2606 331.665 98.7153 328.463 100.441C323.392 97.1331 317.069 96.3554 312.329 92.3238C299.226 78.8704 299.226 64.5677 301.909 44.9016L301.892 44.8837ZM425.09 50.6405C429.034 46.3229 433.372 43.8557 437.71 41.46C438.935 40.7806 439.874 40.5124 438.962 38.966C436.896 35.4618 435.232 31.6359 432.737 28.4714C422.335 15.2325 408.07 7.0353 392.07 4.44294C380.604 2.5836 368.253 2.13664 356.394 5.5067C343.059 9.2969 330.985 15.599 320.548 24.413C312.758 30.9922 305.299 38.4475 304.762 49.9254C304.548 54.5737 304.673 59.0076 307.285 63.0481C310.987 68.787 315.799 72.7471 322.319 75.5361C331.155 79.3084 339.267 78.486 347.746 75.1785C350.76 73.9985 352.36 72.014 353.783 69.2518C354.775 67.3299 354.292 65.4885 354.757 63.6738C355.222 61.8502 356.349 60.2591 358.38 60.3842C360.589 60.5183 360.204 62.6369 359.945 63.8884C359.274 67.0796 361.411 69.5021 361.921 72.3627C362.825 77.4312 370.507 83.2684 375.596 83.3847C381.248 83.5277 385.693 81.6952 388.18 76.2959C388.707 75.1427 389.485 74.2399 390.934 74.6243C392.267 74.9729 392.052 76.1529 392.222 77.163C392.777 80.3722 393.492 83.5456 395.791 86.0396C402.633 93.4859 417.882 92.3596 423.319 81.8114C424.079 80.3364 426.405 78.7274 424.679 76.6624C422.881 74.517 423.605 72.1303 423.552 69.8329C423.498 67.4193 424.965 65.6315 427.281 65.7656C429.249 65.8818 430.617 67.5623 430.626 69.824C430.644 72.6487 430.644 75.4824 430.644 78.3072C430.626 87.2642 436.422 92.6724 445.33 92.3774C447.771 92.297 449.354 90.679 451.447 90.0264C452.681 89.6421 453.415 89.1236 454.479 90.2499C455.409 91.2243 456.044 92.3149 455.257 93.4055C451.706 98.3935 451.188 104.508 449.014 109.997C447.396 114.1 448.388 118.498 451.34 121.519C454.246 124.496 458.369 124.29 462.197 122.583C463.852 121.841 465.238 120.768 466.535 119.499C467.501 118.551 468.359 116.755 470.175 118.095C471.847 119.32 472.357 121.027 471.087 122.762C469.692 124.657 469.692 126.766 470.184 128.742C472.706 138.87 479.038 146.281 488.617 149.686C493.321 151.358 499.421 152.341 504.259 148.31C507.22 145.852 508.311 148.283 508.266 150.25C508.176 153.888 509.294 157.133 510.198 160.512C511.253 164.481 518.417 171.659 521.914 171.802C526.341 171.972 530.822 172.24 534.721 169.585C537.878 167.431 538.531 164.239 539.247 160.539C540.57 153.682 542.279 146.942 542.449 139.889C542.69 129.734 541.644 119.83 539.095 109.925C537.646 104.293 535.911 98.8405 533.854 93.4501C529.042 80.837 520.912 70.2441 512.505 59.9909C504.045 49.6751 492.606 43.1137 479.637 40.6912C465.068 37.9648 450.678 38.9928 437.2 46.8592C434.07 48.6828 430.662 52.2496 425.117 50.6405H425.09Z" fill="#468121"/>
<path d="M154.842 219.054C160.432 233.616 158.661 249.385 157.838 264.573C156.783 272.046 152.239 278.571 149.368 285.446C148.778 286.697 148.071 287.85 146.506 287.94C143.591 288.109 141.408 290.273 138.6 290.747C135.398 291.202 136.534 295.279 139.477 293.589C145.63 292.293 151.685 290.21 158.079 290.648C175.564 290.031 192.736 285.803 210.283 285.24C211.938 285.034 214.988 286 214.979 283.399C213.995 278.491 199.193 285.32 198.952 278.983C193.881 254.561 187.71 221.325 182.934 196.85L154.833 219.054H154.842Z" fill="#5F4E0E"/>
<path d="M244.725 130.682C248.311 133.801 248.785 138.521 249.626 142.535C254.017 160.351 253.248 176.388 237.972 188.348C227.463 196.93 214.263 204.483 200.293 202.633C196.536 202.079 192.547 202.695 189.211 199.2C187.405 197.305 184.82 200.273 184.901 202.445C185.384 214.781 176.422 219.358 167.577 223.926C163.15 226.214 154.617 223.837 151.246 219.912C149.761 216.533 147.275 217.365 146.309 220.627C143.375 233.428 122.197 239.06 117.805 225.142C117.072 221.602 115.453 223.041 114.416 224.498C107.52 234.608 103.263 232.955 93.6218 226.795C92.2266 227.126 92.7543 228.467 92.647 229.424C91.6811 246.229 78.7128 264.805 59.7791 254.686C56.9708 253.05 56.2822 252.889 55.8439 256.447C46.0417 277.364 20.1499 264.322 11.6713 248.911C-3.9085 221.298 -2.37914 187.07 7.30682 157.723C7.30682 157.723 10.6965 148.712 11.8502 145.074C13.0039 141.435 244.707 130.691 244.707 130.691L244.725 130.682Z" fill="#62A51F"/>
<path d="M13.005 141.382C23.1649 104.982 56.0865 76.037 89.804 60.7599C100.322 56.6479 113.147 54.3595 124.532 54.8601C148.179 55.9239 171.933 57.667 192.146 71.5584C212.01 82.9112 229.021 98.8676 240.522 118.721C245.531 126.919 248.571 143.537 240.549 150.473C234.396 155.077 225.416 150.59 220.256 146.165C216.455 142.83 208.119 145.369 212.886 150.795C216.034 154.585 216.437 162.613 212.886 165.357C209.667 167.851 205.114 167.038 201.394 165.822C189.284 160.646 197.611 180.25 183.301 177.058C179.178 176.361 174.5 170.595 171.111 175.61C168.946 178.381 167.166 181.448 165.056 184.254C157.928 190.503 155.602 181.51 154.404 175.995C154.35 170.452 148.34 170.586 147.625 175.637C145.335 182.788 139.888 187.052 133.896 190.7C123.074 195.357 109.221 185.39 110.58 173.375C111.152 168.816 104.954 166.019 102.504 170.122C96.9231 179.177 79.4651 182.842 76.4779 169.871C75.7356 167.485 74.0721 166.179 71.4427 166.492C66.4432 167.628 69.7166 173.876 67.2213 177.228C57.911 203.545 17.0028 195.232 13.1302 169.576C11.9496 162.032 10.6886 154.496 11.3146 146.799L11.3325 146.781C12.1195 144.1 12.5757 143.215 13.0139 141.364L13.005 141.382Z" fill="#7BC337"/>
<path d="M425.091 50.6403C430.645 52.2493 434.053 48.6826 437.174 46.859C450.652 38.9926 465.043 37.9646 479.612 40.691C492.58 43.1135 504.019 49.6749 512.48 59.9906C520.887 70.2439 529.016 80.8457 533.828 93.4499C535.885 98.8402 537.62 104.293 539.069 109.925C541.627 119.829 542.664 129.725 542.423 139.889C542.253 146.942 540.536 153.673 539.221 160.538C538.506 164.239 537.853 167.43 534.696 169.585C530.796 172.24 526.315 171.971 521.888 171.802C518.391 171.668 511.228 164.48 510.172 160.511C509.269 157.132 508.151 153.888 508.24 150.249C508.285 148.283 507.194 145.842 504.234 148.31C499.395 152.332 493.296 151.358 488.591 149.686C479.013 146.28 472.672 138.87 470.158 128.742C469.666 126.766 469.666 124.657 471.062 122.761C472.332 121.027 471.822 119.32 470.149 118.095C468.325 116.754 467.475 118.551 466.509 119.499C465.213 120.768 463.826 121.85 462.172 122.583C458.335 124.299 454.221 124.505 451.314 121.519C448.363 118.497 447.37 114.099 448.989 109.996C451.162 104.499 451.681 98.3933 455.231 93.4052C456.01 92.3057 455.375 91.2241 454.453 90.2497C453.389 89.1234 452.665 89.6418 451.421 90.0262C449.329 90.6788 447.746 92.2968 445.304 92.3772C436.396 92.6722 430.601 87.264 430.619 78.307C430.619 75.4822 430.619 72.6485 430.601 69.8237C430.592 67.5621 429.223 65.8726 427.256 65.7653C424.948 65.6313 423.473 67.4191 423.526 69.8327C423.58 72.13 422.864 74.5168 424.653 76.6622C426.388 78.7271 424.054 80.3362 423.294 81.8111C417.856 92.3593 402.607 93.4857 395.765 86.0394C393.476 83.5453 392.76 80.3719 392.197 77.1628C392.018 76.1526 392.241 74.9727 390.909 74.624C389.451 74.2397 388.682 75.1425 388.154 76.2957C385.659 81.6949 381.214 83.5185 375.57 83.3844C370.49 83.2593 362.799 77.4309 361.896 72.3624C361.386 69.5019 359.257 67.0794 359.919 63.8881C360.178 62.6366 360.572 60.5181 358.354 60.384C356.324 60.2588 355.206 61.85 354.732 63.6736C354.267 65.4882 354.75 67.3297 353.757 69.2516C352.335 72.0138 350.734 73.9983 347.72 75.1783C339.241 78.4858 331.138 79.3082 322.293 75.5358C315.773 72.7558 310.962 68.7868 307.259 63.0478C304.647 59.0073 304.522 54.5735 304.737 49.9252C305.274 38.4473 312.741 30.992 320.522 24.4128C330.96 15.5988 343.034 9.30561 356.368 5.50647C368.228 2.12747 380.57 2.57443 392.045 4.44271C408.045 7.04401 422.31 15.2323 432.711 28.4712C435.207 31.6446 436.87 35.4616 438.936 38.9657C439.848 40.5122 438.909 40.7804 437.684 41.4598C433.346 43.8644 429.009 46.3316 425.065 50.6403H425.091Z" fill="#62A51F"/>
<path d="M498.67 169.702C503.848 181.43 484.145 191.496 481.033 178.391C478.69 173.564 488.778 159.94 488.599 167.11C487.454 171.114 481.793 177.408 487.508 179.946C493.187 181.502 496.497 174.627 498.67 169.693V169.702Z" fill="#376A18"/>
<path d="M457.493 155.255C457.064 152.564 457.807 144.93 462.001 145.404C463.119 146.039 462.922 147.228 462.278 148.112C459.837 151.483 461.411 155.282 461.098 158.866C460.91 160.985 462.591 160.985 464.139 161.11C473.646 161.691 467.215 151.483 472.152 152.457C474.54 152.931 473.556 155.371 473.234 156.98C471.812 164.14 468.36 166.286 461.08 164.587C456.536 163.622 457.538 159.081 457.493 155.255Z" fill="#376A18"/>
<path d="M65.1089 105.07C64.304 102.8 67.8457 91.2773 70.6898 92.4305C74.1241 93.4853 68.0424 97.1057 69.3303 107.305C68.9994 110.756 72.8273 112.508 74.7055 109.62C78.2203 106.215 79.7765 101.405 81.8514 97.0788C82.9068 94.8083 86.2785 96.1224 84.454 98.3035C83.0141 104.615 81.4758 112.168 74.7859 114.912C69.2141 117.398 63.8837 110.863 65.1089 105.062V105.07Z" fill="#468121"/>
<path d="M162.704 141.48C179.222 163.453 165.118 175.029 153.259 153.012C152.946 152.234 151.193 151.43 152.901 150.581C153.894 150.089 155.361 150.035 155.906 151.546C157.176 155.095 160.316 157.008 162.73 159.564C164.439 162.443 167.426 159.94 166.29 157.187C164.984 153.638 164.233 149.883 161.997 146.692C160.942 145.19 160.262 143.483 162.695 141.48H162.704Z" fill="#468121"/>
<path d="M160.02 87.8457C176.539 109.818 162.435 121.394 150.575 99.3772C150.262 98.5995 148.509 97.795 150.218 96.9458C151.21 96.4541 152.677 96.4005 153.223 97.9112C154.493 101.46 157.632 103.373 160.047 105.93C161.755 108.808 164.742 106.305 163.606 103.552C162.301 100.003 161.549 96.2485 159.313 93.0572C158.258 91.5555 157.578 89.8481 160.011 87.8457H160.02Z" fill="#468121"/>
<path d="M186.581 85.6456C186.626 90.3118 183.057 92.3231 178.049 90.1956C174.176 88.5508 171.323 85.5115 168.667 82.3381C168.148 81.7213 167.469 80.7648 168.551 80.0765C169.231 79.6385 169.937 80.0318 170.483 80.6575C172.763 83.3125 176.09 84.2153 178.988 85.8601C180.231 86.5663 181.474 87.5496 182.44 86.2088C183.388 84.8858 183.335 83.0979 182.065 81.7213C180.464 79.996 178.8 78.3244 177.164 76.6349C176.672 76.1254 175.804 75.5622 176.555 74.8739C176.958 74.4985 178.031 74.4627 178.604 74.7219C183.531 76.9299 186.456 80.2553 186.581 85.6456Z" fill="#468121"/>
<path d="M93.2727 117.452C96.2063 120.223 97.4494 129.538 95.4371 132.202C93.5053 134.767 91.162 135.188 88.631 132.881C86.0373 130.521 84.2486 121.77 85.7064 118.632C86.0731 117.846 86.6097 117.497 87.4236 117.533C88.5326 117.586 88.9619 118.31 88.9887 119.303C89.0424 121.082 89.1229 122.869 89.0335 124.648C88.9172 126.803 89.7042 128.358 91.9312 129.484C93.5858 125.748 91.806 121.636 93.2817 117.443L93.2727 117.452Z" fill="#468121"/>
<path d="M27.1353 207.961C27.6987 213.521 27.2963 218.026 28.924 222.425C29.7021 224.507 30.507 226.769 31.312 228.914C32.0006 230.738 33.6373 231.882 35.9269 231.677C38.771 231.417 37.6083 229.156 38.2075 227.681C39.8174 223.721 40.8459 219.957 38.2791 215.917C37.5994 214.853 38.1449 213.235 39.7101 212.636C42.0801 211.724 41.4093 213.879 41.9281 214.853C45.4071 221.388 43.1444 232.097 38.9767 235.386C36.4367 237.389 34.6032 237.478 31.9649 235.485C26.5719 231.283 26.2857 224.749 24.1481 218.911C22.8871 215.398 24.175 212.019 27.1353 207.97V207.961Z" fill="#468121"/>
<path d="M73.0698 213.619C71.9698 229.862 57.5079 227.064 54.3597 213.244C54.0288 212.108 53.6085 210.329 55.2094 209.695C60.2894 209.301 58.599 221.012 64.8506 220.02C70.9144 218.679 64.7522 209.275 69.5281 207.022C72.721 206.825 73.0251 211.223 73.0788 213.619H73.0698Z" fill="#468121"/>
<path d="M522.711 101.916C527.594 106.529 526.36 112.142 526.083 117.434C525.984 119.347 524.643 121.439 521.942 121.958C519.062 122.512 516.647 122.11 514.697 119.955C509.796 114.538 509.796 107.914 510.297 101.21C510.369 100.191 510.977 99.5919 512.041 99.6098C513.123 99.6187 513.696 100.262 513.723 101.272C513.794 103.507 513.848 105.742 513.794 107.968C513.714 111.275 515.359 113.841 517.264 116.272C518.221 117.497 519.42 118.337 521.119 117.604C522.657 116.952 522.729 115.647 522.72 114.261C522.702 110.149 522.72 106.028 522.72 101.916H522.711Z" fill="#468121"/>
<path d="M504.295 89.3641C504.26 94.7723 505.87 100.064 503.544 105.607C501.845 109.647 499.376 110.461 495.629 110.219C491.765 109.969 490.683 106.912 490.03 104.176C488.939 99.6263 489.69 95.0494 491.765 90.7676C492.391 89.4804 493.25 88.1842 494.788 89.0423C496.371 89.9273 494.332 90.6693 494.314 91.5542C494.261 95.407 494.118 99.2687 494.216 103.122C494.261 104.704 495.549 105.83 496.944 106.313C498.455 106.831 498.885 105.186 499.52 104.319C501.72 101.271 502.766 97.7848 503.034 94.0483C503.151 92.475 502.551 90.7944 504.295 89.382V89.3641Z" fill="#468121"/>
<path d="M389.87 19.1208C387.474 19.7466 385.613 21.4718 383.055 21.9277C380.971 22.2942 378.476 24.1893 379.478 26.4956C380.328 28.4622 382.939 29.9551 385.479 27.9438C387.679 26.2006 390.89 28.1315 392.938 25.7626C393.332 25.2978 394.065 25.9056 394.387 26.3973C394.924 27.2465 394.718 27.9706 394.029 28.7662C390.264 33.1106 380.354 33.9688 376.249 30.2322C373.745 27.9527 373.441 25.6017 375.784 22.9289C380.238 17.8515 382.528 17.1185 389.87 19.1208Z" fill="#468121"/>
<path d="M327.669 47.6369C323.376 47.5922 321.659 45.572 322.491 40.9862C323.099 37.6608 328.062 32.8426 331.398 32.5029C332.498 32.3867 333.992 31.9398 334.582 33.3164C335.262 34.9254 333.634 35.2919 332.677 35.7657C330.647 36.758 328.769 37.8843 327.32 39.6453C326.658 40.4409 325.773 41.2275 326.426 42.3718C327.061 43.4802 328.268 43.212 329.252 43.1316C333.116 42.8098 335.575 40.1101 338.07 37.6161C339.099 36.5881 340.065 35.4528 341.38 36.4987C342.757 37.5982 341.97 38.9302 340.852 39.8688C337.015 43.0958 334.287 48.1375 327.669 47.6369Z" fill="#468121"/>
<path d="M456.931 63.9961C458.156 67.2053 456.68 70.3518 458.174 73.0962C458.916 74.4638 459.283 76.5914 461.465 76.0014C463.2 75.5276 464.435 74.2136 464.622 72.1665C464.783 70.3965 463.987 67.3572 466.724 67.7058C469.506 68.0634 468.388 71.2636 468.003 72.9442C467.216 76.4483 465.749 79.8095 461.161 79.8273C457.458 79.8452 454.713 77.0383 453.926 72.3542C453.273 68.4746 453.944 66.4633 456.922 64.005L456.931 63.9961Z" fill="#468121"/>
</g>
<defs>
<clipPath id="clip0_4459_2140">
<rect width="546" height="294" fill="white"/>
</clipPath>
</defs>
</svg>
