<svg width="546" height="344" viewBox="0 0 546 344" fill="none" xmlns="http://www.w3.org/2000/svg">
<g clip-path="url(#clip0_4434_2579)">
<path d="M98.6763 343.536C32.6763 340.736 57.843 322.036 78.6763 313.036C38.1755 296.035 44.6771 288.036 104.677 271.536C164.677 255.036 197.177 271.536 232.177 271.536C235.177 251.536 265.177 252.036 317.177 251.036C369.177 250.036 431.677 270.036 431.677 305.036C431.677 340.036 308.177 337.036 280.177 337.036C252.177 337.036 181.176 347.036 98.6763 343.536Z" fill="#3D761A"/>
<path d="M324.994 162.624L323.174 161.794C322.776 162.669 323.056 163.704 323.841 164.258C331.014 169.317 339.501 170.724 347.956 170.269C356.401 169.815 364.967 167.497 372.469 164.936C372.513 164.921 372.556 164.905 372.599 164.887C389.218 157.89 403.024 148.011 412.801 132.6L417.361 126.594L430.926 142.395L423.552 155.241C415.2 166.359 403.366 173.504 390.354 178.748C383.378 181.443 375.681 182.553 367.906 183.399C366.512 183.551 365.113 183.694 363.714 183.837C357.4 184.484 351.104 185.128 345.468 186.53C338.527 188.256 332.267 191.197 327.889 196.967C323.518 202.727 321.257 210.996 321.627 222.884L321.627 222.895C321.966 232.049 325.398 239.99 329.338 247.429C330.495 249.614 331.684 251.738 332.859 253.837C335.728 258.961 338.509 263.928 340.518 269.236C341.282 272.387 343.237 274.496 345.534 275.927C347.806 277.343 350.477 278.138 352.789 278.716C353.554 278.907 354.259 279.072 354.907 279.223C356.36 279.561 357.522 279.832 358.416 280.188C358.48 280.213 358.54 280.238 358.595 280.262C358.156 280.324 357.507 280.325 356.609 280.217C354.421 279.953 351.462 279.137 348.069 278.073C346.667 277.634 345.167 277.144 343.641 276.646C341.602 275.98 339.516 275.299 337.556 274.703C334.092 273.649 330.671 272.746 327.856 272.465C321.986 271.836 314.44 272.746 306.707 274.156C300.908 275.214 294.863 276.582 289.192 277.866C287.269 278.301 285.39 278.727 283.577 279.127C276.303 280.734 270.25 281.9 266.478 281.86C265.557 281.85 264.862 281.767 264.366 281.638C263.937 281.527 263.76 281.408 263.706 281.365C263.705 281.348 263.703 281.323 263.704 281.289C263.711 281.08 263.798 280.641 264.172 279.906C266.088 276.133 267.976 273.112 269.729 270.305C274.206 263.139 277.808 257.374 278.777 244.085C279.051 242.303 279.322 240.524 279.593 238.748C281.421 226.735 283.226 214.877 285.951 203.489C285.984 203.35 286.002 203.208 286.005 203.066C286.053 200.787 286.823 196.614 288.261 191.028C289.683 185.503 291.716 178.757 294.199 171.414C299.167 156.724 305.909 139.734 313.114 125.46C316.717 118.321 320.415 111.902 324.042 106.802C327.702 101.656 331.159 98.0404 334.229 96.2865C335.738 95.4241 337.046 95.0741 338.174 95.1145C339.267 95.1536 340.37 95.5641 341.506 96.557C343.822 98.5825 346.145 102.929 348.07 110.672C340.587 125.354 334.402 138.051 330.068 147.117C327.869 151.719 326.147 155.386 324.974 157.903C324.387 159.162 323.938 160.134 323.635 160.791C323.483 161.12 323.369 161.37 323.291 161.538L323.204 161.729L323.182 161.778L323.176 161.79L323.175 161.793L323.175 161.794C323.174 161.794 323.174 161.794 324.994 162.624ZM359.09 280.133C359.099 280.124 359.106 280.12 359.107 280.12C359.108 280.121 359.103 280.125 359.09 280.133Z" fill="#756118" stroke="#604E0E" stroke-width="4" stroke-linejoin="round"/>
<path d="M301.892 44.8378C304.576 25.1918 333.544 11.0823 333.544 11.0823C351.127 0.884244 370.293 -1.76797 390.041 1.04498C408.715 3.70613 424.429 12.4308 436.36 27.3886C438.363 29.8979 440.322 32.7555 440.823 35.5952C441.646 40.3282 444.23 38.5332 446.404 37.8545C452.646 35.9167 458.943 34.4611 465.534 34.5326C486.713 34.738 503.741 43.4983 517.237 59.5366C524.911 68.6631 531.78 78.4504 536.377 89.3897C540.339 98.8198 543.952 108.562 544.48 119.091C544.659 122.574 545.973 125.914 546.009 129.548C546.134 143.157 544.524 156.436 540.983 169.644C537.924 181.03 533.595 191.594 526.297 200.863C520.699 207.971 514.188 213.553 504.841 215.473C502.033 216.053 499.243 216.919 496.336 217.223C480.595 218.866 468.879 212.651 461.205 198.979C457.422 192.228 454.113 185.218 454.31 177.172C454.373 174.823 453.568 173.537 450.956 173.716C440.054 174.448 433.596 168.188 428.445 159.633C427.729 158.455 427.3 156.463 425.288 156.285C425.189 153.936 425.726 151.311 424.859 149.274C422.945 144.801 422.846 140.639 424.823 136.254C425.941 133.781 425.207 132.334 422.184 132.325C418.5 132.325 414.752 132.825 411.175 131.468C405.156 128.092 401.247 122.976 400.004 116.287C399.396 113.027 398.046 113.197 395.872 114.144C392.304 115.706 388.744 115.885 385.104 114.421C383.28 113.688 382.448 114.153 381.509 116.189C374.846 130.664 360.76 131.754 349.804 121.368C348.453 120.091 347.648 118.216 345.689 117.6C344.455 113.528 342.219 109.857 341.763 105.392C341.584 103.66 341.531 99.8468 338.454 99.5164C335.163 99.1592 331.666 98.6144 328.464 100.338C323.393 97.0338 317.07 96.2569 312.33 92.2295C299.227 78.7898 299.227 64.5017 301.91 44.8557L301.892 44.8378ZM425.091 50.5888C429.035 46.2756 433.373 43.8109 437.711 41.4176C438.936 40.7389 439.875 40.471 438.963 38.9261C436.897 35.4256 435.233 31.6035 432.738 28.4423C422.336 15.2169 408.071 7.0281 392.071 4.43839C380.605 2.58095 368.254 2.13445 356.395 5.50107C343.06 9.2874 330.986 15.5831 320.549 24.3881C312.759 30.9606 305.3 38.4082 304.763 49.8744C304.549 54.518 304.674 58.9473 307.286 62.9836C310.988 68.7167 315.8 72.6727 322.32 75.4589C331.156 79.2273 339.268 78.4058 347.747 75.1017C350.761 73.9229 352.361 71.9404 353.783 69.1811C354.776 67.2611 354.293 65.4215 354.758 63.6087C355.223 61.787 356.35 60.1975 358.381 60.3225C360.59 60.4564 360.205 62.5729 359.946 63.8231C359.275 67.0111 361.412 69.4311 361.922 72.2887C362.826 77.352 370.508 83.1833 375.597 83.2994C381.249 83.4423 385.694 81.6117 388.181 76.2179C388.708 75.066 389.486 74.164 390.935 74.548C392.268 74.8963 392.053 76.075 392.223 77.0841C392.778 80.29 393.493 83.4602 395.792 85.9517C402.634 93.3904 417.883 92.2652 423.32 81.7277C424.08 80.2543 426.406 78.6469 424.68 76.5841C422.882 74.4409 423.606 72.0565 423.553 69.7615C423.499 67.3504 424.966 65.5644 427.282 65.6984C429.25 65.8144 430.618 67.4933 430.627 69.7526C430.645 72.5745 430.645 75.4053 430.645 78.2272C430.627 87.1751 436.423 92.5777 445.331 92.283C447.772 92.2027 449.355 90.5863 451.448 89.9344C452.682 89.5505 453.416 89.0325 454.48 90.1577C455.41 91.1311 456.045 92.2205 455.258 93.31C451.707 98.2929 451.189 104.401 449.015 109.884C447.397 113.983 448.389 118.377 451.341 121.395C454.247 124.369 458.37 124.163 462.198 122.458C463.853 121.716 465.239 120.645 466.536 119.377C467.502 118.43 468.36 116.635 470.176 117.975C471.848 119.198 472.358 120.904 471.088 122.636C469.693 124.529 469.693 126.637 470.185 128.61C472.707 138.728 479.039 146.131 488.618 149.533C493.322 151.203 499.422 152.186 504.26 148.158C507.221 145.702 508.312 148.131 508.267 150.096C508.177 153.731 509.295 156.972 510.199 160.348C511.254 164.313 518.418 171.483 521.915 171.626C526.342 171.796 530.823 172.064 534.722 169.412C537.879 167.26 538.532 164.071 539.248 160.374C540.571 153.525 542.28 146.792 542.45 139.746C542.691 129.602 541.645 119.707 539.096 109.813C537.647 104.187 535.912 98.7394 533.855 93.3546C529.043 80.7544 520.913 70.1723 512.506 59.9296C504.045 49.6243 492.607 43.0697 479.638 40.6496C465.069 37.926 450.679 38.9529 437.201 46.8114C434.07 48.6331 430.663 52.1962 425.118 50.5888H425.091Z" fill="#468121"/>
<path d="M157.217 219.496L181.597 200.251C182.969 207.31 184.443 215.003 185.964 222.941C189.616 242.005 193.539 262.48 196.962 278.958C197.042 280.105 197.462 281.127 198.256 281.919C199.048 282.71 200.049 283.108 200.974 283.318C201.247 283.381 201.53 283.43 201.82 283.468C195.784 284 189.803 284.827 183.882 285.649L183.71 285.673C175.112 286.866 166.64 288.041 158.109 288.349C154.751 288.132 151.527 288.559 148.441 289.18C149.975 288.427 150.733 286.946 151.176 286.008C151.189 285.981 151.201 285.953 151.213 285.925C152.103 283.795 153.124 281.77 154.183 279.67C154.811 278.423 155.453 277.149 156.089 275.811C157.743 272.332 159.247 268.618 159.817 264.582C159.825 264.525 159.831 264.468 159.834 264.411C159.925 262.737 160.028 261.046 160.133 259.342C160.934 246.283 161.782 232.462 157.217 219.496ZM138.134 291.696C138.134 291.696 138.138 291.696 138.145 291.696C138.138 291.697 138.134 291.697 138.134 291.696ZM138.56 292.527C138.56 292.526 138.563 292.524 138.569 292.52C138.564 292.525 138.56 292.527 138.56 292.527Z" fill="#756118" stroke="#604E0E" stroke-width="4" stroke-linejoin="round"/>
<path d="M244.725 130.549C248.311 133.665 248.785 138.38 249.626 142.39C254.017 160.188 253.248 176.208 237.972 188.156C227.463 196.729 214.263 204.275 200.293 202.427C196.536 201.873 192.547 202.489 189.211 198.997C187.405 197.104 184.82 200.069 184.901 202.239C185.384 214.563 176.422 219.135 167.577 223.698C163.15 225.984 154.617 223.609 151.246 219.688C149.761 216.313 147.275 217.143 146.309 220.403C143.375 233.191 122.197 238.816 117.805 224.912C117.072 221.376 115.453 222.814 114.416 224.269C107.52 234.369 103.263 232.717 93.6218 226.564C92.2266 226.895 92.7543 228.234 92.647 229.19C91.6811 245.978 78.7128 264.535 59.7791 254.426C56.9708 252.792 56.2822 252.631 55.8439 256.185C46.0417 277.082 20.1499 264.053 11.6713 248.657C-3.9085 221.073 -2.37914 186.879 7.30682 157.562C7.30682 157.562 10.6965 148.561 11.8502 144.926C13.0039 141.292 244.707 130.558 244.707 130.558L244.725 130.549Z" fill="#62A51F"/>
<path d="M13.004 141.238C23.1639 104.875 56.0855 75.9596 89.803 60.6982C100.321 56.5904 113.146 54.3043 124.531 54.8044C148.178 55.867 171.932 57.6084 192.145 71.4856C212.009 82.8268 229.02 98.7669 240.521 118.6C245.53 126.789 248.57 143.39 240.548 150.32C234.395 154.919 225.415 150.436 220.255 146.016C216.454 142.685 208.118 145.221 212.885 150.641C216.033 154.428 216.436 162.447 212.885 165.188C209.666 167.68 205.113 166.867 201.393 165.653C189.283 160.482 197.61 180.066 183.3 176.878C179.177 176.181 174.499 170.421 171.11 175.431C168.945 178.199 167.165 181.262 165.055 184.066C157.927 190.309 155.601 181.325 154.403 175.815C154.349 170.279 148.339 170.412 147.624 175.458C145.334 182.602 139.887 186.862 133.895 190.505C123.073 195.158 109.22 185.201 110.579 173.199C111.151 168.644 104.953 165.849 102.503 169.948C96.9221 178.994 79.4641 182.656 76.477 169.698C75.7346 167.314 74.0711 166.01 71.4417 166.323C66.4422 167.457 69.7156 173.699 67.2203 177.047C57.91 203.337 17.0018 195.033 13.1292 169.403C11.9486 161.866 10.6876 154.338 11.3136 146.65L11.3315 146.632C12.1186 143.953 12.5747 143.069 13.0129 141.22L13.004 141.238Z" fill="#7BC337"/>
<path d="M425.091 50.5877C430.645 52.1951 434.053 48.632 437.174 46.8103C450.652 38.9519 465.043 37.9249 479.612 40.6486C492.58 43.0686 504.019 49.6233 512.48 59.9285C520.887 70.1712 529.016 80.7622 533.828 93.3536C535.885 98.7384 537.62 104.186 539.069 109.812C541.627 119.706 542.664 129.592 542.423 139.745C542.253 146.791 540.536 153.515 539.221 160.373C538.506 164.07 537.853 167.258 534.696 169.411C530.796 172.063 526.315 171.795 521.888 171.625C518.391 171.491 511.228 164.312 510.172 160.347C509.269 156.971 508.151 153.729 508.24 150.095C508.285 148.13 507.194 145.692 504.234 148.157C499.395 152.176 493.296 151.202 488.591 149.532C479.013 146.13 472.672 138.727 470.158 128.609C469.666 126.636 469.666 124.528 471.062 122.635C472.332 120.903 471.822 119.197 470.149 117.974C468.325 116.634 467.475 118.429 466.509 119.376C465.213 120.644 463.826 121.724 462.172 122.457C458.335 124.171 454.221 124.376 451.314 121.394C448.363 118.376 447.37 113.982 448.989 109.883C451.162 104.391 451.681 98.2919 455.231 93.3089C456.01 92.2105 455.375 91.13 454.453 90.1566C453.389 89.0315 452.665 89.5494 451.421 89.9334C449.329 90.5853 447.746 92.2016 445.304 92.282C436.396 92.5767 430.601 87.174 430.619 78.2261C430.619 75.4042 430.619 72.5734 430.601 69.7515C430.592 67.4922 429.223 65.8045 427.256 65.6973C424.948 65.5633 423.473 67.3494 423.526 69.7605C423.58 72.0555 422.864 74.4398 424.653 76.583C426.388 78.6458 424.054 80.2532 423.294 81.7267C417.856 92.2641 402.607 93.3893 395.765 85.9506C393.476 83.4591 392.76 80.289 392.197 77.0831C392.018 76.074 392.241 74.8952 390.909 74.547C389.451 74.163 388.682 75.0649 388.154 76.2169C385.659 81.6106 381.214 83.4323 375.57 83.2984C370.49 83.1734 362.799 77.351 361.896 72.2877C361.386 69.43 359.257 67.01 359.919 63.822C360.178 62.5718 360.572 60.4554 358.354 60.3214C356.324 60.1964 355.206 61.7859 354.732 63.6077C354.267 65.4205 354.75 67.2601 353.757 69.18C352.335 71.9394 350.734 73.9218 347.72 75.1006C339.241 78.4047 331.138 79.2263 322.293 75.4578C315.773 72.6806 310.962 68.7156 307.259 62.9826C304.647 58.9462 304.522 54.5169 304.737 49.8733C305.274 38.4071 312.741 30.9595 320.522 24.387C330.96 15.582 343.034 9.29526 356.368 5.5C368.228 2.12445 380.57 2.57096 392.045 4.43733C408.045 7.03597 422.31 15.2159 432.711 28.4412C435.207 31.6114 436.87 35.4245 438.936 38.9251C439.848 40.47 438.909 40.7379 437.684 41.4166C433.346 43.8187 429.009 46.2834 425.065 50.5877H425.091Z" fill="#62A51F"/>
<path d="M498.67 169.527C503.848 181.243 484.145 191.299 481.033 178.207C478.69 173.385 488.778 159.776 488.599 166.938C487.454 170.938 481.793 177.225 487.508 179.761C493.187 181.315 496.497 174.448 498.67 169.518V169.527Z" fill="#376A18"/>
<path d="M457.493 155.096C457.064 152.408 457.807 144.782 462.001 145.255C463.119 145.889 462.922 147.077 462.278 147.961C459.837 151.328 461.411 155.123 461.098 158.704C460.91 160.82 462.591 160.82 464.139 160.946C473.646 161.526 467.215 151.328 472.152 152.301C474.54 152.775 473.556 155.212 473.234 156.82C471.812 163.973 468.36 166.116 461.08 164.419C456.536 163.455 457.538 158.918 457.493 155.096Z" fill="#376A18"/>
<path d="M65.1099 104.964C64.305 102.695 67.8467 91.1847 70.6907 92.3367C74.1251 93.3904 68.0434 97.0071 69.3313 107.196C69.0004 110.643 72.8283 112.393 74.7064 109.509C78.2213 106.107 79.7775 101.302 81.8524 96.9803C82.9077 94.712 86.2795 96.0248 84.455 98.2037C83.0151 104.508 81.4768 112.054 74.7869 114.796C69.215 117.278 63.8846 110.75 65.1099 104.955V104.964Z" fill="#468121"/>
<path d="M162.703 141.336C179.221 163.286 165.117 174.85 153.258 152.856C152.945 152.079 151.192 151.275 152.9 150.427C153.893 149.936 155.36 149.882 155.905 151.391C157.175 154.936 160.315 156.847 162.729 159.401C164.438 162.277 167.425 159.776 166.289 157.026C164.983 153.481 164.232 149.73 161.996 146.542C160.941 145.042 160.261 143.336 162.694 141.336H162.703Z" fill="#468121"/>
<path d="M160.02 87.7559C176.539 109.706 162.435 121.27 150.575 99.2756C150.262 98.4987 148.509 97.695 150.218 96.8466C151.21 96.3555 152.677 96.3019 153.223 97.8111C154.493 101.356 157.632 103.267 160.047 105.821C161.755 108.697 164.742 106.196 163.606 103.446C162.301 99.9007 161.549 96.1501 159.313 92.9621C158.258 91.4618 157.578 89.7562 160.011 87.7559H160.02Z" fill="#468121"/>
<path d="M186.582 85.5581C186.627 90.2196 183.058 92.2288 178.05 90.1035C174.177 88.4603 171.324 85.4241 168.668 82.254C168.149 81.6378 167.47 80.6823 168.552 79.9947C169.232 79.5571 169.938 79.95 170.484 80.5751C172.764 83.2273 176.091 84.1293 178.989 85.7724C180.232 86.4779 181.475 87.4602 182.441 86.1207C183.389 84.799 183.336 83.013 182.066 81.6378C180.465 79.9143 178.801 78.2444 177.165 76.5566C176.673 76.0476 175.805 75.485 176.556 74.7974C176.959 74.4223 178.032 74.3866 178.604 74.6456C183.532 76.8513 186.457 80.1733 186.582 85.5581Z" fill="#468121"/>
<path d="M93.2727 117.331C96.2063 120.099 97.4494 129.405 95.4371 132.066C93.5053 134.629 91.162 135.048 88.631 132.744C86.0373 130.387 84.2486 121.644 85.7064 118.51C86.0731 117.724 86.6097 117.376 87.4236 117.412C88.5326 117.465 88.9619 118.188 88.9887 119.18C89.0424 120.957 89.1229 122.743 89.0335 124.52C88.9172 126.672 89.7042 128.226 91.9312 129.351C93.5858 125.618 91.806 121.51 93.2817 117.322L93.2727 117.331Z" fill="#468121"/>
<path d="M27.1353 207.748C27.6987 213.303 27.2963 217.803 28.924 222.197C29.7021 224.278 30.507 226.537 31.312 228.68C32.0006 230.502 33.6373 231.645 35.9269 231.439C38.771 231.18 37.6083 228.921 38.2075 227.448C39.8174 223.492 40.8459 219.732 38.2791 215.696C37.5994 214.633 38.1449 213.017 39.7101 212.418C42.0801 211.508 41.4093 213.66 41.9281 214.633C45.4071 221.161 43.1444 231.859 38.9767 235.145C36.4367 237.146 34.6032 237.235 31.9649 235.244C26.5719 231.046 26.2857 224.519 24.1481 218.687C22.8871 215.178 24.175 211.802 27.1353 207.757V207.748Z" fill="#468121"/>
<path d="M73.0698 213.401C71.9698 229.627 57.5079 226.832 54.3597 213.026C54.0288 211.892 53.6085 210.115 55.2094 209.481C60.2894 209.088 58.599 220.787 64.8506 219.795C70.9144 218.456 64.7522 209.061 69.5281 206.811C72.721 206.615 73.0251 211.008 73.0788 213.401H73.0698Z" fill="#468121"/>
<path d="M522.711 101.812C527.594 106.42 526.36 112.028 526.083 117.315C525.984 119.226 524.643 121.315 521.942 121.833C519.062 122.387 516.647 121.985 514.697 119.833C509.796 114.421 509.796 107.804 510.297 101.107C510.369 100.089 510.977 99.4903 512.041 99.5082C513.123 99.5171 513.696 100.16 513.723 101.169C513.794 103.402 513.848 105.634 513.794 107.858C513.714 111.162 515.359 113.725 517.264 116.154C518.221 117.377 519.42 118.217 521.119 117.484C522.657 116.832 522.729 115.529 522.72 114.145C522.702 110.037 522.72 105.92 522.72 101.812H522.711Z" fill="#468121"/>
<path d="M504.295 89.2737C504.26 94.6764 505.87 99.9629 503.544 105.5C501.845 109.536 499.376 110.349 495.629 110.107C491.765 109.857 490.683 106.803 490.03 104.071C488.939 99.5254 489.69 94.9532 491.765 90.6757C492.391 89.3898 493.25 88.0949 494.788 88.9522C496.371 89.8363 494.332 90.5775 494.314 91.4615C494.261 95.3104 494.118 99.1682 494.216 103.017C494.261 104.598 495.549 105.723 496.944 106.205C498.455 106.723 498.885 105.08 499.52 104.214C501.72 101.168 502.766 97.6858 503.034 93.953C503.151 92.3813 502.551 90.7025 504.295 89.2915V89.2737Z" fill="#468121"/>
<path d="M389.871 19.1022C387.474 19.7273 385.614 21.4508 383.056 21.9062C380.972 22.2724 378.477 24.1655 379.479 26.4695C380.328 28.4341 382.94 29.9254 385.48 27.9161C387.68 26.1748 390.891 28.1037 392.939 25.7372C393.333 25.2728 394.066 25.8801 394.388 26.3712C394.925 27.2196 394.719 27.9429 394.03 28.7377C390.265 33.0777 380.355 33.935 376.25 30.2022C373.746 27.9251 373.442 25.5765 375.785 22.9064C380.239 17.8341 382.529 17.1019 389.871 19.1022Z" fill="#468121"/>
<path d="M327.668 47.5891C323.375 47.5444 321.658 45.5262 322.49 40.9451C323.098 37.6231 328.061 32.8099 331.397 32.4705C332.498 32.3544 333.991 31.9079 334.581 33.2832C335.261 34.8906 333.633 35.2567 332.676 35.73C330.646 36.7212 328.768 37.8464 327.319 39.6056C326.657 40.4004 325.772 41.1862 326.425 42.3293C327.06 43.4366 328.267 43.1687 329.251 43.0883C333.115 42.7668 335.574 40.07 338.069 37.5785C339.098 36.5515 340.064 35.4174 341.379 36.4622C342.756 37.5606 341.969 38.8912 340.851 39.8289C337.014 43.0526 334.286 48.0891 327.668 47.5891Z" fill="#468121"/>
<path d="M456.931 63.9297C458.156 67.1356 456.68 70.2789 458.174 73.0205C458.916 74.3867 459.283 76.5121 461.465 75.9227C463.2 75.4494 464.435 74.1367 464.622 72.0917C464.783 70.3236 463.987 67.2874 466.724 67.6356C469.506 67.9929 468.388 71.1898 468.003 72.8686C467.216 76.3692 465.749 79.7269 461.161 79.7448C457.458 79.7626 454.713 76.9586 453.926 72.2793C453.273 68.4036 453.944 66.3944 456.922 63.9386L456.931 63.9297Z" fill="#468121"/>
<path fill-rule="evenodd" clip-rule="evenodd" d="M245.071 143.374L245.054 143.293C245.054 143.293 245.054 143.293 245.054 143.293C245.053 143.289 245.043 143.243 245.018 143.14C244.993 143.037 244.96 142.903 244.917 142.738C244.833 142.409 244.72 141.982 244.584 141.482C244.312 140.483 243.957 139.222 243.568 137.914C242.74 135.126 241.913 132.657 241.462 131.747L241.379 131.58L241.31 131.407C240.246 128.748 237.897 123.243 236.522 120.96L236.502 120.926L236.482 120.893C225.442 101.856 209.067 86.4768 189.837 75.4971L189.668 75.4008L189.508 75.2908C170.537 62.2662 148.091 60.4953 124.339 59.4278C113.685 58.9603 101.563 61.1041 91.6376 64.9607C58.6974 79.9018 27.1774 107.924 17.5333 142.441L17.4933 142.584L11.7603 159.011C2.32589 187.592 1.074 220.278 15.7677 246.294L15.7801 246.316L15.7922 246.338C19.4511 252.982 27.0582 259.263 34.5963 261.475C38.291 262.559 41.6297 262.57 44.3693 261.543C46.8804 260.601 49.3584 258.616 51.3196 254.745C51.4344 254.009 51.6001 253.222 51.8694 252.495C52.235 251.508 53.1631 249.648 55.4071 248.872C57.39 248.187 59.1365 248.833 59.8199 249.111C60.6081 249.431 61.4193 249.891 62.074 250.271C66.0287 252.367 69.3556 252.822 72.0911 252.414C74.8649 252.001 77.4351 250.639 79.729 248.447C84.4291 243.957 87.5539 236.331 87.9836 228.862L87.9896 228.758C87.9884 228.722 87.9863 228.666 87.9826 228.586C87.982 228.574 87.9812 228.559 87.9803 228.542C87.9685 228.308 87.9377 227.699 88.0099 227.059C88.0931 226.321 88.3482 225.132 89.2408 224.007C90.1796 222.825 91.4204 222.215 92.5574 221.945L94.4871 221.488L96.1587 222.555C98.5666 224.092 100.406 225.194 101.953 225.91C103.494 226.624 104.392 226.782 104.944 226.768C105.64 226.75 107.247 226.421 110.561 221.568L110.587 221.529L110.615 221.491C110.974 220.987 111.484 220.338 112.123 219.75C112.669 219.248 113.829 218.298 115.506 218.032C117.689 217.685 119.604 218.646 120.791 220.134C121.669 221.234 122.102 222.533 122.35 223.626C123.069 225.754 124.295 226.916 125.686 227.561C127.234 228.279 129.328 228.497 131.683 228.016C136.597 227.014 140.804 223.446 141.756 219.296L141.789 219.153L141.831 219.012C142.468 216.863 144.12 213.644 147.643 212.91C151.45 212.118 153.915 214.699 155.138 216.909C156.112 217.824 157.932 218.841 160.197 219.423C162.82 220.096 164.709 219.854 165.442 219.475L165.444 219.474L165.551 219.419L167.699 223.584L167.592 223.639C163.165 225.925 154.633 223.55 151.261 219.63C149.777 216.254 147.29 217.085 146.324 220.344C143.391 233.132 122.212 238.758 117.821 224.854C117.088 221.318 115.469 222.755 114.431 224.211C114.052 224.767 113.68 225.288 113.315 225.774C113.31 225.78 113.306 225.785 113.302 225.791C113.283 225.816 113.264 225.842 113.245 225.867C107.937 232.887 104.026 232.612 97.3648 228.79C97.3088 228.758 97.2527 228.725 97.1963 228.693C96.0917 228.053 94.9116 227.319 93.6375 226.506C92.7288 226.721 92.6357 227.364 92.6517 228.051C92.6542 228.157 92.6593 228.265 92.6644 228.372C92.6768 228.635 92.6892 228.895 92.6626 229.131C92.6209 229.856 92.5568 230.584 92.4709 231.313C90.566 247.468 77.9111 264.04 59.7947 254.368C56.9864 252.733 56.2978 252.573 55.8595 256.127C46.0573 277.023 20.1655 263.994 11.6869 248.599C-3.89288 221.014 -2.36351 186.821 7.32244 157.504L13.0195 141.179C23.1794 104.816 56.1009 75.901 89.8185 60.6396C100.336 56.5318 113.161 54.2457 124.547 54.7458C148.194 55.8084 171.948 57.5498 192.16 71.4271C212.024 82.7682 229.035 98.7083 240.537 118.542C242.14 121.204 244.621 127.066 245.661 129.665C246.99 132.346 249.404 141.201 249.641 142.331C254.033 160.129 253.263 176.149 237.988 188.098C227.479 196.671 214.278 204.216 200.308 202.368C199.474 202.245 198.628 202.18 197.78 202.114C194.812 201.885 191.822 201.655 189.227 198.939C187.42 197.046 184.836 200.01 184.916 202.18C185.397 214.454 176.51 219.039 167.699 223.584L165.551 219.419C170.107 217.069 173.831 215.101 176.485 212.459C178.874 210.081 180.419 207.117 180.233 202.364L180.233 202.354C180.132 199.633 181.534 197.077 183.229 195.552C184.134 194.737 185.533 193.842 187.35 193.675C189.384 193.487 191.26 194.28 192.618 195.703C193.433 196.556 194.273 196.925 195.47 197.148C196.142 197.273 196.874 197.343 197.827 197.417C197.927 197.425 198.03 197.433 198.136 197.441C198.956 197.504 199.959 197.581 200.954 197.726C212.895 199.292 224.749 192.849 235.025 184.466L235.062 184.436L235.1 184.406C241.876 179.106 245.267 173.087 246.595 166.484C247.954 159.723 247.209 152.038 245.091 143.454L245.071 143.374ZM113.14 225.449C113.14 225.449 113.142 225.455 113.147 225.468C113.142 225.456 113.139 225.45 113.14 225.449Z" fill="#468121"/>
</g>
<defs>
<clipPath id="clip0_4434_2579">
<rect width="546" height="344" fill="white"/>
</clipPath>
</defs>
</svg>
