<svg width="574" height="737" viewBox="0 0 574 737" fill="none" xmlns="http://www.w3.org/2000/svg">
<path d="M136.843 727.72C41.6428 717.32 87.8428 678.387 122.843 660.22C89.3428 654.886 18.6429 636.619 3.84293 606.219C-14.6571 568.219 36.3429 524.22 98.8429 508.72C161.343 493.22 298.343 501.72 337.843 508.72C377.343 515.72 480.843 494.22 541.343 524.22C601.843 554.22 564.343 623.22 532.843 685.72C501.343 748.22 255.843 740.72 136.843 727.72Z" fill="#376A18"/>
<g clip-path="url(#clip0_4459_2142)">
<path d="M195.036 37.8648C209.171 41.2309 222.319 46.7215 233.224 56.6702C236.47 59.6324 238.19 58.3458 239.94 54.9348C253.911 27.7216 276.094 10.1879 305.576 3.41077C336.136 -3.62068 365.857 -0.28448 392.378 18.087C407.92 28.8436 414.322 44.3278 412.571 63.1182C412.212 66.9331 412.407 69.5662 417.493 68.6985C435.278 65.6465 452.525 68.4591 469.472 73.8748C494.482 81.8637 514.9 96.914 532.835 115.63C554.883 138.639 569.273 165.164 572.578 197.583C575.764 228.761 574.149 259.236 561.614 288.109C553.462 306.885 542.707 324.434 522.229 332.707C506.284 339.14 493.899 335.22 484.49 320.379C482.157 316.699 480.751 317.163 478.357 319.392C454.843 341.189 434.171 334.352 413.678 319.601C396.596 307.304 390.374 290.204 389.91 270.142C389.775 264.412 389.88 258.682 389.88 252.952C390.374 251.98 390.867 250.992 391.361 250.02C392.707 245.786 394.906 241.612 395.205 237.303C395.654 230.811 387.143 234.985 385.183 229.958C384.091 227.145 380.995 227.115 378.317 229.329C369.627 236.496 359.74 236.226 349.553 233.608C342.702 231.648 336.779 233.474 331.543 238.051C317.677 250.992 301.911 259.101 282.301 257.47C281.195 255.855 279.474 256.094 277.859 256.034C273.805 255.002 269.752 253.984 265.698 252.952C264.397 250.618 262.796 248.673 259.864 248.434C255.257 242.973 250.082 237.857 247.988 230.766C247.374 228.686 247.838 225.544 244.457 226.667C241.825 227.534 237.053 226.472 237.487 231.514C238.07 238.291 235.886 244.784 235.871 251.471C233.822 253.102 234.615 255.436 234.391 257.515C231.429 262.063 228.437 266.671 223.232 268.96C218.984 270.83 217.039 273.792 216.052 278.415C214.092 287.631 208.573 291.909 199.239 291.805C194.527 291.76 192.358 293.301 190.653 297.849C187.572 306.062 183.144 313.423 172.958 314.724C170.101 315.083 167.214 316.669 167.034 320.424C166.062 320.394 165.075 320.379 164.103 320.349C154.14 324.643 144.208 322.593 134.261 320.26C133.049 318.479 131.958 316.25 129.475 318.898C118.54 323.865 107.86 325.66 97.1351 317.896C94.3379 315.876 91.0322 317.716 88.5491 320.334C76.119 333.455 47.8332 331.001 35.8368 320.125C7.02749 293.974 -3.17393 261.764 2.51015 223.839C2.68964 222.612 2.61485 221.356 2.65973 220.114C4.12562 213.576 5.60647 207.038 7.07237 200.501C15.3891 157.235 35.9864 120.641 67.4881 90.107C90.6582 67.6662 117.194 50.6561 148.232 41.1113C156.818 38.4633 165.703 37.416 174.558 36.1743C185.268 35.7554 195.051 37.8798 195.051 37.8798L195.036 37.8648Z" fill="#4B8314"/>
<path d="M265.788 377.154C270.769 377.842 274 373.967 278.024 372.262C298.143 363.749 318.949 357.54 340.369 353.666C354.804 351.063 369.403 351.496 383.867 354.429C416.491 361.071 446.048 374.162 471.716 395.66C479.644 402.302 485.822 410.411 491.371 418.894C504.041 438.312 509.157 460.08 509.545 483.089C509.904 504.483 510.488 526.011 502.066 546.223C497.714 556.665 492.508 566.913 482.696 573.81C472.3 581.125 456.743 577.236 451.029 565.656C446.677 556.844 446.931 557.174 439.168 563.322C421.756 577.101 393.082 577.041 378.153 555.453C377.032 553.822 376 552.117 374.923 550.456C374.803 548.721 373.905 547.749 372.14 547.614C369.837 537.156 366.965 526.819 366.022 516.107C366.022 514.641 366.022 513.19 366.022 511.724C366.112 507.041 365.888 502.403 367.234 497.736C368.431 493.606 367.429 490.614 361.894 490.659C357.332 490.689 353.323 488.565 350.331 484.869C347.848 481.803 346.263 481.862 343.81 485.543C338.275 493.831 330.736 499.935 322.031 505.066C316.332 508.417 310.154 506.308 304.694 508.836C299.384 510.407 302.735 514.805 301.762 517.798C299.743 524.425 297.335 530.813 293.984 536.962C286.46 550.726 275.496 560.51 261.391 566.988C260.343 567.018 259.296 567.048 258.249 567.077C240.928 568.289 228.827 560.674 221.408 545.22C220.66 543.649 220.375 541.899 218.132 541.734C207.497 540.926 204.086 532.16 200.78 524.485C195.575 512.412 193.675 499.441 194.917 486.201C195.111 484.136 194.154 483.583 192.523 483.299C194.154 478.347 197.579 473.948 197.056 468.353C197.983 465.795 199.105 463.296 199.823 460.678C204.176 445.015 211.61 431.056 221.049 417.757C231.594 402.901 245.46 392.099 259.865 381.657C263.156 381.896 263.829 378.65 265.818 377.154H265.788Z" fill="#4B8314"/>
<path d="M375.102 547.615C357.765 554.841 337.646 561.169 320.4 565.612C314.641 567.093 310.393 568.679 304.679 570.385C301.418 571.357 300.057 574.17 299.623 577.222C297.095 595.114 294.178 611.466 296.721 629.703C298.052 639.263 298.576 649.002 298.546 658.652C298.516 673.358 300.221 687.885 302.315 702.351C302.929 706.645 300.58 709.248 296.631 709.203C276.243 708.994 254.42 711.417 234.002 710.804C228.108 710.625 226.867 708.62 229.35 702.351C242.438 669.408 253.133 635.807 257.082 600.291C258.309 589.19 260.373 578.209 259.849 566.974C273.955 560.481 284.934 549.216 292.443 535.452C295.794 529.318 299.698 524.411 301.717 517.784C304.619 522.646 302.749 527.957 303.108 533.058C303.587 539.835 305.501 541.436 312.128 539.357C319.966 536.888 327.295 533.178 334.745 529.707C345.051 524.92 358.558 517.604 368.984 513.086C369.941 523.798 372.813 537.142 375.102 547.6V547.615Z" fill="#746117"/>
<path d="M195.036 37.8648C209.171 41.2309 222.319 46.7215 233.224 56.6702C236.47 59.6324 238.19 58.3458 239.94 54.9348C253.911 27.7216 276.094 10.1879 305.576 3.41077C336.136 -3.62068 365.857 -0.28448 392.378 18.087C407.92 28.8436 414.322 44.3278 412.571 63.1182C412.212 66.9331 412.407 69.5662 417.493 68.6985C435.278 65.6465 452.525 68.4591 469.472 73.8748C494.482 81.8637 514.9 96.914 532.835 115.63C554.883 138.639 569.273 165.164 572.578 197.583C575.764 228.761 574.149 259.236 561.614 288.109C553.462 306.885 542.707 324.434 522.229 332.707C506.284 339.14 493.899 335.22 484.49 320.379C482.157 316.699 480.751 317.163 478.357 319.392C454.843 341.189 434.171 334.352 413.678 319.601C396.596 307.304 390.374 290.204 389.91 270.142C389.775 264.412 389.88 258.682 389.88 252.952C390.374 251.98 390.867 250.992 391.361 250.02C392.707 245.786 394.906 241.612 395.205 237.303C395.654 230.811 387.143 234.985 385.183 229.958C384.091 227.145 380.995 227.115 378.317 229.329C369.627 236.496 359.74 236.226 349.553 233.608C342.702 231.648 336.779 233.474 331.543 238.051C317.677 250.992 301.911 259.101 282.301 257.47C281.195 255.855 279.474 256.094 277.859 256.034C273.805 255.002 269.752 253.984 265.698 252.952C264.397 250.618 262.796 248.673 259.864 248.434C255.257 242.973 250.082 237.857 247.988 230.766C247.374 228.686 247.838 225.544 244.457 226.667C241.825 227.534 237.053 226.472 237.487 231.514C238.07 238.291 235.886 244.784 235.871 251.471C233.822 253.102 234.615 255.436 234.391 257.515C231.429 262.063 228.437 266.671 223.232 268.96C218.984 270.83 217.039 273.792 216.052 278.415C214.092 287.631 208.573 291.909 199.239 291.805C194.527 291.76 192.358 293.301 190.653 297.849C187.572 306.062 183.144 313.423 172.958 314.724C170.101 315.083 167.214 316.669 167.034 320.424C166.062 320.394 165.075 320.379 164.103 320.349C154.14 324.643 144.208 322.593 134.261 320.26C133.049 318.479 131.958 316.25 129.475 318.898C118.54 323.865 107.86 325.66 97.1351 317.896C94.3379 315.876 91.0322 317.716 88.5491 320.334C76.119 333.455 47.8332 331.001 35.8368 320.125C7.02749 293.974 -3.17393 261.764 2.51015 223.839C2.68964 222.612 2.61485 221.356 2.65973 220.114C4.12562 213.576 5.60647 207.038 7.07237 200.501C15.3891 157.235 35.9864 120.641 67.4881 90.107C90.6582 67.6662 117.194 50.6561 148.232 41.1113C156.818 38.4633 165.703 37.416 174.558 36.1743C185.268 35.7554 195.051 37.8798 195.051 37.8798L195.036 37.8648ZM564.905 200.695C565.473 197.329 566.027 194.187 565.398 190.522C561.883 169.727 553.821 151.041 540.762 134.555C521.676 110.468 499.882 89.9574 469.861 79.9039C451.358 73.7102 432.376 72.9173 413.2 73.5606C407.65 73.7551 406.394 72.6031 407.157 66.3347C408.952 51.3742 405.122 37.1766 393.081 27.4074C363.629 3.50053 330.093 0.702912 295.435 12.7012C271.053 21.139 253.447 38.7026 241.6 61.5324C238.594 67.3221 237.068 65.7213 233.149 62.7142C217.712 50.8506 200.451 42.4427 180.691 42.3679C155.502 42.2782 132.406 50.7309 110.882 63.3127C77.9438 82.5669 52.3805 109.301 33.6679 142.379C26.5329 154.976 18.0067 167.318 17.5281 182.713C15.3592 182.952 15.1198 184.568 14.4766 186.303C11.4551 194.531 10.6174 203.208 9.28617 211.721C4.0957 245.053 5.81589 276.799 28.3877 304.79C44.0039 324.164 72.6636 328.099 88.3547 310.984C93.3357 305.553 95.7889 306.316 99.9622 311.149C105.751 317.851 114.202 320.245 119.782 314.993C127.081 308.127 132.361 310.745 139.467 314.47C150.476 320.23 155.816 318.419 162.577 308.501C164.357 305.882 166.062 303.982 168.844 307.349C172.165 311.403 175.097 309.862 178.283 306.975C183.563 302.202 185.657 296.128 186.824 289.321C188.185 281.317 189.845 280.569 196.786 284.324C201.169 286.703 204.579 285.536 207.107 281.856C208.902 279.253 210.772 276.335 210.443 272.909C209.934 267.808 211.669 264.995 217.144 264.397C221.242 263.948 224.159 261.45 226.358 257.65C231.04 249.526 232.311 240.969 230.591 231.948C228.946 223.256 229.918 221.745 238.639 221.535C241.212 221.475 242.588 219.8 244.353 218.453C246.327 216.942 247.045 213.771 250.231 213.501C250.874 233.743 266.386 245.397 277.35 246.729C296.197 249.033 313.519 245.382 326.742 230.182C330.317 226.068 333.877 221.924 337.572 217.915C339.337 216 340.982 214.818 343.764 217.391C357.87 230.481 364.092 230.496 379.394 217.87C382.222 215.536 383.897 214.608 385.946 219.037C388.429 224.408 392.752 228.148 399.408 227.564C404.165 227.145 404.808 228.716 403.013 233.144C398.885 243.243 394.592 253.805 394.726 264.606C395.011 287.855 402.864 307.603 424.703 319.766C441.321 329.011 459.465 327.665 473.571 315.233C477.4 311.852 481.528 308.8 486.584 304.745C486.016 309.323 485.821 312.48 487.796 315.637C496.711 329.909 513.404 333.006 527.046 323.042C537.157 315.667 543.231 305.583 549.692 295.081C564.127 271.593 566.341 245.681 567.567 219.471C567.852 213.397 567.478 206.694 564.935 200.665L564.905 200.695Z" fill="#437414"/>
<path d="M265.788 377.154C270.769 377.842 274 373.967 278.024 372.262C298.143 363.749 318.949 357.54 340.369 353.666C354.804 351.063 369.403 351.496 383.867 354.429C416.491 361.071 446.048 374.162 471.716 395.66C479.644 402.302 485.822 410.411 491.371 418.894C504.041 438.312 509.157 460.08 509.545 483.089C509.904 504.483 510.488 526.011 502.066 546.223C497.714 556.665 492.508 566.913 482.696 573.81C472.3 581.125 456.743 577.236 451.029 565.656C446.677 556.844 446.931 557.174 439.168 563.322C421.756 577.101 393.082 577.041 378.153 555.453C377.032 553.822 376 552.117 374.923 550.456C374.803 548.721 373.905 547.749 372.14 547.614C369.837 537.156 366.965 526.819 366.022 516.107C366.022 514.641 366.022 513.19 366.022 511.724C366.112 507.041 365.888 502.403 367.234 497.736C368.431 493.606 367.429 490.614 361.894 490.659C357.332 490.689 353.323 488.565 350.331 484.869C347.848 481.803 346.263 481.862 343.81 485.543C338.275 493.831 330.736 499.935 322.031 505.066C316.332 508.417 310.154 506.308 304.694 508.836C299.384 510.407 302.735 514.805 301.762 517.798C299.743 524.425 297.335 530.813 293.984 536.962C286.46 550.726 275.496 560.51 261.391 566.988C260.343 567.018 259.296 567.048 258.249 567.077C240.928 568.289 228.827 560.674 221.408 545.22C220.66 543.649 220.375 541.899 218.132 541.734C207.497 540.926 204.086 532.16 200.78 524.485C195.575 512.412 193.675 499.441 194.917 486.201C195.111 484.136 194.154 483.583 192.523 483.299C194.154 478.347 197.579 473.948 197.056 468.353C197.983 465.795 199.105 463.296 199.823 460.678C204.176 445.015 211.61 431.056 221.049 417.757C231.594 402.901 245.46 392.099 259.865 381.657C263.156 381.896 263.829 378.65 265.818 377.154H265.788ZM500.6 463.88C501.154 441.349 491.147 422.978 476.862 406.82C466.436 395.032 453.348 386.325 439.257 379.173C414.457 366.592 388.819 357.78 360.488 357.406C343.032 357.181 326.413 360.278 310.019 365.32C272.22 376.959 239.268 395.735 218.221 430.742C210.727 443.204 203.293 456.011 203.129 471.33C196.996 489.836 198.552 508.148 206.584 525.457C209.456 531.651 214.826 538.623 224.429 534.434C225.581 533.94 227.884 534.149 228.602 534.957C230.367 536.947 227.929 537.815 226.792 538.922C225.057 540.612 225.207 542.527 226.269 544.367C233.344 556.605 250.337 566.778 265.579 558.759C286.206 547.913 297.499 530.334 298.606 506.817C298.861 501.221 299.444 498.08 305.322 502.687C307.85 504.662 310.259 503.929 313.041 503.241C320.086 501.506 325.262 497.062 330.662 492.634C337.617 486.934 341.072 478.571 347.22 470.702C348.761 478.631 353.248 482.192 359.231 484.316C365.245 486.455 370.241 482.221 376.867 480.92C373.98 485.513 371.736 488.939 371.886 493.517C372.2 503.226 371.587 512.965 372.095 522.66C372.619 532.938 375.087 543.41 381.384 551.309C397.823 571.91 421.936 574.498 442.04 553.299C444.403 550.815 446.258 547.36 450.446 546.686C449.429 557.488 456.205 568.155 465.853 571.67C471.163 573.6 476.443 572.643 480.572 569.561C487.811 564.16 493.81 557.099 496.876 548.601C506.404 522.241 508.917 495.132 503.622 467.44C503.248 465.511 502.769 464.104 500.63 463.85L500.6 463.88Z" fill="#437412"/>
<path d="M372.11 547.615C373.875 547.75 374.772 548.722 374.892 550.458C370.973 550.293 367.697 552.462 364.451 553.988C347.19 562.097 328.687 566.256 310.527 571.522C307.641 572.36 304.739 572.958 303.273 576.01C298.636 596.985 298.022 618.034 299.653 639.488C300.894 655.765 302.091 672.087 303.153 688.394C303.273 690.129 303.153 691.879 303.198 693.615C303.452 708.097 304.066 708.71 318.186 709.189C319.831 709.249 321.671 708.695 324.274 711.642C280.267 717.223 237.023 714.709 192.074 718.001C200.092 713.168 205.716 711.538 218.131 710.76C222.379 710.49 224.384 709.518 225.865 704.91C232.805 683.307 241.645 662.303 247.105 640.221C250.904 624.871 254.689 609.507 255.482 593.559C255.856 586.183 257.247 578.853 258.189 571.507C258.189 570.026 258.219 568.545 258.219 567.079C259.266 567.049 260.313 567.019 261.36 566.989C261.884 578.224 259.834 589.205 258.593 600.306C254.659 635.807 243.949 669.424 230.861 702.367C228.378 708.62 229.619 709.144 235.513 709.323C255.93 709.922 276.258 707.513 296.646 707.723C300.595 707.768 301.448 706.66 300.835 702.367C298.74 687.9 297.035 673.373 297.065 658.667C297.095 649.018 296.572 639.278 295.24 629.719C292.697 611.467 295.614 593.634 298.142 575.741C298.576 572.689 299.937 569.891 303.198 568.904C308.897 567.199 314.641 565.628 320.415 564.132C337.961 559.599 355.357 554.617 372.125 547.63L372.11 547.615Z" fill="#4B420A"/>
<path d="M265.787 377.154C263.798 378.65 263.125 381.896 259.834 381.657C263.259 374.805 265.952 367.445 270.275 361.206C281.119 345.513 285.532 327.605 290.169 309.577C295.15 290.218 304.678 274.166 324.513 266.192C334.714 262.093 345.484 260.372 356.089 258.323C367.996 256.004 379.095 250.453 391.39 250.02C390.897 250.992 390.403 251.979 389.91 252.952C370.255 257.814 350.316 261.793 331.02 267.808C313.549 273.253 301.418 285.192 296.93 303.803C290.902 328.757 282.017 352.529 267.148 373.758C266.475 374.73 266.251 376.017 265.802 377.154H265.787Z" fill="#4D450B"/>
<path d="M192.477 483.299C181.797 510.737 175.53 538.847 179.239 568.514C181.498 578.927 187.75 587.349 193.046 596.251C194.422 598.555 196.77 599.004 198.924 598.061C202.529 596.505 205.685 597.343 210.412 599.722C169.786 613.471 128.142 616.014 88.0398 625.783C87.8603 625.185 87.6658 624.601 87.4863 624.003C93.7986 621.37 100.141 618.811 106.393 616.059C108.293 615.221 111.509 615.371 111.539 612.498C111.659 598.884 117.447 586.437 119.347 573.212C119.422 572.718 119.407 572.224 119.437 571.716C120.364 570.668 121.292 569.621 122.234 568.574C123.221 568.574 124.194 568.589 125.181 568.604C122.563 579.54 118.345 590.102 117.747 601.487C113.454 613.216 114.456 615.221 126.033 613.246C144.522 610.089 162.8 605.721 181.199 602.071C186.659 600.993 187.646 599.108 184.714 594.067C177.489 581.635 174.228 568.155 174.483 553.613C174.782 536.678 176.741 519.982 181.199 503.765C184.639 491.288 187.451 478.227 197.025 468.354C197.548 473.949 194.123 478.347 192.492 483.299H192.477Z" fill="#4B420A"/>
<path d="M125.182 568.59C124.21 568.59 123.222 568.575 122.25 568.56C125.631 551.236 131.464 534.6 137.238 517.994C144.956 495.747 153.109 473.576 157.686 450.477C162.233 427.572 159.032 405.206 149.578 383.678C142.428 367.401 135.892 350.87 131.3 333.62C129.998 328.698 129.968 323.821 129.52 318.899C132.003 316.251 134.575 318.48 135.802 320.261C134.486 330.449 138.42 339.545 141.77 348.746C142.892 360.071 148.142 370.214 152.765 380.088C165.359 406.957 168.71 434.14 161.291 462.505C159.615 468.908 153.079 474.908 153.587 481.864C150.237 483.39 152.211 486.427 152.166 489.255C151.538 490.556 149.234 491.813 148.801 493.174C140.903 518.308 133.05 543.442 125.197 568.59H125.182Z" fill="#4F4B0D"/>
<path d="M17.5137 182.713C34.6108 101.507 153.453 -1.12178 233.15 62.6998C243.456 75.8202 247.644 27.6473 295.435 12.7017C336.69 -4.30837 411.854 10.5175 407.157 66.3501C406.394 72.6036 407.651 73.7556 413.2 73.5761C464.028 68.3997 511.61 93.7877 540.763 134.57C554.704 153.39 567.134 176.714 564.905 200.711C558.907 224.034 531.668 243.094 516.935 214.609C515.633 211.273 514.512 208.221 509.964 208.071C505.596 207.922 503.697 210.315 502.246 213.741C496.816 231.963 472.913 235.269 464.656 217.421C458.568 210.27 466.316 197.03 456.743 193.455C442.743 191.166 448.875 220.399 426.094 209.103C407.232 197.599 403.896 172.749 418.645 156.263C419.887 154.767 422.041 153.361 420.724 151.191C419.288 148.827 417.194 150.683 415.384 151.116C407.741 152.927 403.044 157.923 400.052 164.97C396.268 173.916 386.246 176.594 379.784 175.023C369.717 172.734 372.32 156.173 373.352 146.972C370.704 133.792 357.736 140.734 359.949 151.73C359.217 163.04 353.173 170.804 343.166 175.308C324.603 183.865 312.981 158.402 313.684 143.053C314.746 133.807 303.617 132.206 302.944 141.901C298.861 170.236 262.004 193.889 253.732 154.348C250.262 144.653 256.873 101.851 247.24 102.36C233.868 104.844 250.157 136.949 238.774 147.661C236.874 150.428 235.663 154.572 231.355 154.064C222.23 152.538 230.682 132.775 218.984 134.989C202.859 140.3 232.821 164.177 209.336 191.704C201.573 202.745 192.538 201.234 186.406 188.967C185 186.154 183.055 185.585 180.407 185.78C174.439 186.154 176.354 192.737 177.027 196.671C182.157 213.038 165.554 247.327 150.626 222.119C149.444 218.903 147.978 214.833 143.73 215.806C131.255 222.568 156.519 241.747 130.148 264.951C114.532 282.096 91.8255 264.457 86.0966 246.385C80.592 237.648 88.086 209.627 78.7821 208.864C71.7368 209.732 74.7134 226.143 69.508 232.681C60.0695 254.912 37.3332 240.655 28.2087 226.009C18.6355 213.173 17.7829 197.943 17.5286 182.668L17.5137 182.713Z" fill="#62A51F"/>
<path d="M197.011 468.353C187.438 478.227 184.626 491.288 181.185 503.765C176.713 519.982 174.768 536.693 174.469 553.613C174.215 568.155 177.476 581.619 184.7 594.066C187.632 599.108 186.63 600.978 181.185 602.07C162.787 605.721 144.508 610.104 126.02 613.246C114.442 615.22 113.455 613.216 117.748 601.487C126.304 598.225 134.666 594.171 143.491 591.987C150.028 590.356 151.045 587.065 150.731 581.44C149.698 562.933 153.513 544.876 157.088 526.924C159.87 512.95 164.238 499.291 168.606 485.677C177.371 458.33 189.996 433.046 211.191 413.433C236.74 389.78 253.298 361.236 263.47 328.338C268.226 312.928 271.263 297.025 277.246 281.96C279.864 275.348 274.763 275.318 270.276 275.407C272.49 268.226 277.8 263.11 282.317 257.47C301.927 259.1 317.693 250.992 331.559 238.051C338.036 238.515 344.034 236.974 349.569 233.608C359.77 236.226 369.642 236.495 378.333 229.329C381.026 227.115 384.122 227.145 385.199 229.957C387.143 234.984 395.655 230.81 395.221 237.303C394.922 241.612 392.723 245.786 391.377 250.019C379.081 250.468 367.982 256.019 356.075 258.322C345.485 260.387 334.715 262.092 324.499 266.192C304.664 274.166 295.136 290.218 290.155 309.577C285.518 327.605 281.105 345.512 270.261 361.206C265.953 367.444 263.26 374.805 259.82 381.657C245.4 392.099 231.549 402.901 221.004 417.757C211.565 431.057 204.131 445.015 199.778 460.678C199.06 463.296 197.938 465.795 197.011 468.353Z" fill="#5F4E0E"/>
<path d="M167.064 320.424C175.111 341.698 187.556 360.488 200.286 379.099C206.329 387.941 208.303 388.18 215.378 380.341C231.533 362.478 243.664 341.997 250.171 318.868C253.357 307.558 250.365 295.799 245.175 284.952C240.927 276.081 235.138 267.778 234.405 257.515C234.614 255.435 233.837 253.101 235.886 251.471C236.903 253.49 237.905 255.495 238.922 257.515C238.683 267.224 244.367 274.854 248.047 283.142C254.21 297.025 255.72 311.043 251.891 325.884C247.867 341.533 239.595 355.087 231.279 368.492C226.552 376.122 220.868 383.482 213.179 388.958C208.228 392.489 204.698 391.755 200.884 387.746C196.561 383.198 193.525 377.782 190.219 372.546C184.55 363.57 177.34 354.638 171.641 345.692C169.726 336.85 163.997 329.37 162.621 320.349C163.593 320.379 166.076 320.394 167.049 320.424H167.064Z" fill="#4D450B"/>
<path d="M164.117 320.35C165.493 329.371 172.404 338.916 174.318 347.757C163.429 349.478 151.343 354.729 139.915 350.749C136.564 341.534 132.974 330.448 134.291 320.26C144.238 322.594 154.17 324.643 164.132 320.35H164.117Z" fill="#5F4E0E"/>
<path d="M238.907 257.515C237.89 255.496 235.392 253.491 234.375 251.471C234.375 244.784 236.574 238.291 235.99 231.514C235.557 226.472 241.824 226.038 244.457 225.171C247.822 224.064 248.869 228.686 249.483 230.766C251.592 237.857 255.256 242.974 259.864 248.434C259.579 256.304 262.421 263.574 264.231 271.04C263.124 270.591 261.404 270.441 260.985 269.633C256.274 260.657 247.718 258.892 238.907 257.515Z" fill="#5F4E0E"/>
<path d="M264.231 271.039C262.466 263.783 259.579 256.393 259.863 248.434C262.78 248.673 264.381 250.633 265.697 252.952C265.727 257.096 265.099 262.87 268.943 264.172C273.236 265.608 274.941 259.699 277.529 256.692C277.678 256.512 277.753 256.258 277.858 256.034C279.473 256.093 281.179 255.854 282.3 257.47C277.768 263.11 272.473 268.211 270.259 275.407C267.253 275.333 265.652 273.328 264.246 271.054L264.231 271.039Z" fill="#4B420A"/>
<path d="M203.113 471.346C203.293 456.012 210.727 443.22 218.206 430.758C239.252 395.751 272.205 376.975 310.004 365.336C353.786 350.525 399.139 357.751 439.257 379.189C471.791 395.257 501.094 425.372 500.6 463.896C497.399 474.024 495.26 484.452 491.266 494.355C483.832 512.802 476.742 517.469 457.222 516.228C444.776 515.435 432.81 500.31 435.502 488.252C436.385 484.302 436.37 480.322 432.391 479.739C428.308 479.141 425.914 482.985 425.869 487.144C425.75 501.387 416.999 510.797 407.815 519.983C404.763 523.035 401.024 522.975 397.479 521.195C391.361 518.143 388.669 512.936 388.369 506.129C387.876 494.34 390.419 482.985 392.588 471.541C393.051 469.087 393.575 466.409 391.062 464.734C388.22 462.834 386.515 465.212 384.72 466.873C376.837 475.595 366.994 475.445 363.943 462.968C362.327 456.79 363.524 450.581 363.03 444.417C362.866 442.368 364.033 439.39 360.846 438.882C357.96 438.418 357.421 441.036 356.763 443.25C354.759 450.012 351.857 456.475 346.666 461.248C342.822 464.793 338.514 470 332.576 467.621C326.981 465.392 327.31 459.213 327.131 453.977C327.041 451.224 327.28 447.858 323.481 447.813C319.712 447.768 319.727 451.045 319.682 453.857C320.908 470.852 315.808 483.868 302.884 494.804C293.206 503.197 281.942 499.502 279.31 487.174C278.891 485.215 279.056 482.821 276.543 482.537C273.865 482.237 273.82 484.631 273.192 486.561C270.2 495.822 264.232 503.047 256.918 509.211C252.31 513.086 247.973 511.695 244.637 507.461C242.199 504.364 240.254 500.788 240.404 496.54C240.673 488.461 238.983 480.173 243.56 472.588C245.026 470.149 245.789 466.978 242.094 465.811C238.519 464.689 237.233 467.935 236.545 470.478C235.572 474.099 234.645 477.689 232.626 480.876C227.375 489.164 220.988 490.825 213.24 486.232C207.466 482.806 205.237 477.136 203.113 471.331V471.346Z" fill="#62A51F"/>
<path d="M304.648 508.822C304.888 516.228 307.849 523.199 307.834 530.724C307.834 535.691 311.514 534.195 314.296 533.178C330.032 527.418 345.918 521.973 360.457 513.43C362.252 512.383 363.957 511.71 365.976 511.71C365.976 513.176 365.976 514.627 365.976 516.093C355.551 520.611 345.035 524.935 334.729 529.722C327.28 533.178 319.95 536.903 312.112 539.372C305.486 541.451 303.571 539.85 303.093 533.073C302.734 527.972 304.603 522.661 301.702 517.799C302.674 514.806 299.323 510.408 304.633 508.837L304.648 508.822Z" fill="#4D450B"/>
<path d="M158.284 462.52C165.719 434.139 163.864 406.956 151.254 380.102C146.617 370.213 141.367 360.085 140.26 348.76C151.688 352.739 162.248 347.428 173.153 345.693C178.852 354.639 184.566 363.586 190.235 372.547C193.541 377.783 196.577 383.214 200.9 387.747C204.714 391.756 208.26 392.489 213.196 388.959C220.884 383.483 226.568 376.108 231.295 368.493C239.597 355.103 247.869 341.534 251.907 325.885C255.737 311.044 254.226 297.011 248.063 283.143C244.383 274.855 238.699 267.225 238.939 257.516C247.749 258.892 256.305 260.657 261.017 269.634C261.451 270.441 263.156 270.591 264.263 271.04C265.669 273.329 267.269 275.319 270.276 275.393C274.763 275.304 279.879 275.334 277.246 281.946C271.278 297.011 268.241 312.914 263.47 328.324C253.298 361.222 236.74 389.767 211.191 413.419C190.011 433.032 177.371 458.316 168.606 485.663C164.238 499.278 159.87 512.937 157.088 526.91C153.513 544.847 149.699 562.905 150.731 581.426C151.045 587.051 150.043 590.342 143.491 591.973C134.666 594.157 126.304 598.226 117.748 601.473C118.346 590.088 122.565 579.511 125.182 568.59C133.035 543.456 140.888 518.307 148.786 493.174C149.22 491.812 150.028 490.556 150.656 489.254" fill="#746117"/>
<path d="M153.572 481.879C155.547 481.056 155.517 477.585 158.524 478.094C158.927 486.816 156.489 490.257 150.641 489.269C150.686 486.442 150.222 483.405 153.558 481.879H153.572Z" fill="#5F4E0E"/>
<path d="M46.9657 157.4C45.5746 163.818 45.9336 170.237 46.0383 176.625C46.0683 178.45 45.0511 181.232 47.4893 181.816C50.0471 182.444 51.3933 179.856 52.0964 177.821C53.7268 173.169 55.0132 168.381 56.3894 163.639C56.883 161.918 56.0304 158.941 59.0519 159.375C61.6995 159.749 60.9366 162.517 60.9217 164.357C60.8768 170.955 62.1183 177.762 56.9727 183.447C53.5772 187.202 49.8527 190.194 44.7819 188.339C39.9504 186.573 40.0102 181.173 40.3692 177.492C41.0573 170.521 42.3587 163.385 46.9657 157.4Z" fill="#467A13"/>
<path d="M486.196 140.225C491.237 149.066 491.312 157.803 486.959 166.376C485.179 169.876 481.978 172.734 477.999 171.687C474.454 170.759 471.268 167.737 470.909 163.772C470.4 158.087 470.744 152.328 470.804 146.613C470.819 145.042 471.492 143.217 473.093 143.232C475.68 143.247 474.977 145.655 475.067 147.241C475.187 149.47 475.067 151.729 475.142 153.958C475.262 157.489 475.516 162.187 479.405 162.396C483.548 162.606 483.653 157.833 484.132 154.407C484.79 149.68 485.523 144.952 486.211 140.225H486.196Z" fill="#467A13"/>
<path d="M314.76 50.627C320.115 59.8127 318.56 68.6544 313.609 77.122C311.305 81.0716 307.237 82.1338 303.183 80.6976C298.172 78.9173 297.409 73.9803 297.424 69.567C297.424 65.2434 298.695 60.9198 299.638 55.2797C302.899 59.7678 300.76 63.9418 301.986 67.3378C302.914 69.926 302.375 74.3095 306.204 74.3244C309.929 74.3394 311.47 70.4048 311.799 67.3678C312.397 61.7426 314.401 56.3868 314.746 50.627H314.76Z" fill="#467A13"/>
<path d="M337.572 49.7285C342.179 58.4655 346.517 66.3347 340.339 75.5653C338.335 78.5574 335.792 79.8889 332.217 79.6196C328.432 79.3354 326.622 77.1212 325.441 73.785C323.152 67.2473 324.184 60.6497 324.394 53.3639C328.402 55.997 326.503 59.5576 327.161 62.4001C328.133 66.6189 328.806 73.0968 333.473 72.4835C337.751 71.915 337.811 65.452 337.377 60.9788C337.033 57.508 334.834 54.082 337.587 49.7584L337.572 49.7285Z" fill="#467A13"/>
<path d="M65.8286 156.711C68.8053 160.571 67.8779 164.82 69.0296 168.53C69.6429 170.52 70.2712 173.258 73.1282 173.138C75.6411 173.033 75.6112 170.475 76.3591 168.71C78.199 164.386 77.1369 159.868 77.466 155.455C77.5707 153.988 77.3912 152.118 79.2909 151.879C81.8936 151.535 81.6842 153.779 81.8637 155.44C82.6266 162.426 85.7079 169.547 80.3081 176.13C75.0578 182.533 70.2562 182.578 66.6663 175.277C63.9888 169.817 62.2237 163.683 65.8286 156.726V156.711Z" fill="#467A13"/>
<path d="M175.845 85.1111C179.809 88.2977 183.115 90.8559 186.316 93.5488C188.081 95.0299 189.771 96.7504 192.194 95.1047C194.438 93.5787 194.124 91.2898 193.466 89.0307C192 84.019 189.756 79.3513 186.301 74.6836C195.47 76.6285 202.904 89.8386 199.718 97.2141C197.101 103.288 186.555 102.705 181.604 95.9126C179.33 92.8008 177.909 89.0756 175.83 85.1111H175.845Z" fill="#467A13"/>
<path d="M503.756 255.541C505.311 261.855 504.848 268.333 506.628 274.467C507.376 277.04 507.705 280.555 510.966 280.66C514.451 280.78 513.449 277.174 514.167 274.96C516.261 268.617 515.139 262.124 515.543 255.706C515.707 253.163 514.496 250.32 517.353 247.373C519.701 257.441 522.483 266.762 521.436 276.666C520.688 283.697 516.036 289.053 510.532 288.829C503.606 288.544 503.023 283.174 501.811 277.863C500.061 270.158 499.837 262.782 503.756 255.541Z" fill="#437412"/>
<path d="M447.049 251.037C448.5 255.63 445.808 259.176 444.851 263.14C443.639 268.182 440.677 275.453 446.84 277.547C452.001 279.298 454.932 272.491 457.071 267.703C459.45 262.392 458.029 256.019 461.499 250.693C466.734 261.644 463.219 277.039 454.229 283.442C451.283 285.536 447.947 287.003 444.477 285.252C440.962 283.472 439.436 280.45 439.122 276.201C438.404 266.641 441.515 258.518 447.064 251.037H447.049Z" fill="#437412"/>
<path d="M162.188 246.939C166.407 251.831 164.761 257.276 167.484 261.271C174.409 272.611 177.865 252.998 175.546 247.657C175.292 246.101 173.572 243.991 176.249 243.408C178.418 242.944 178.627 245.353 179.271 246.924C192.105 279.612 154.829 281.363 162.188 246.924V246.939Z" fill="#437412"/>
<path d="M275.66 312.629C274.807 322.488 272.519 329.445 267.822 337.404C265.369 333.17 268.076 324.163 275.66 312.629Z" fill="#4B420A"/>
<path d="M413.902 396.244C413.902 404.398 413.812 410.367 413.962 416.321C414.007 418.266 414.515 420.66 416.699 421.153C419.287 421.737 419.781 419.089 420.618 417.428C422.997 412.716 424.238 407.689 424.373 402.393C424.418 400.702 424.223 398.488 426.721 398.593C428.621 398.668 428.636 400.553 428.696 402.064C429.025 410.382 428.935 418.595 422.189 424.923C417.432 429.397 411.075 428.529 410.058 422.38C408.742 414.331 407.321 405.699 413.887 396.244H413.902Z" fill="#467A13"/>
<path d="M281.105 413.134C282.705 419.118 281.613 425.432 284.515 431.072C285.487 432.957 285.128 436.068 287.956 436.263C291.157 436.487 291.426 433.181 292.593 431.146C295.36 426.284 293.909 420.913 294.178 415.767C294.328 412.925 294.208 410.052 295.016 407.18C298.127 416.53 300.715 425.955 296.826 435.664C295.285 439.509 291.964 442.307 287.761 442.591C284.126 442.846 281.898 439.674 280.791 436.712C277.844 428.872 278.951 420.973 281.12 413.134H281.105Z" fill="#467A13"/>
<path d="M271.322 425.252C272.37 434.991 272.489 443.264 265.623 449.907C263.425 452.031 261.196 454.44 257.905 452.929C254.629 451.433 252.43 448.874 252.296 444.85C252.027 437.34 252.161 429.964 256.693 423.531C257.591 425.341 257.187 426.778 257.052 432.298C256.933 436.981 254.36 444.296 259.446 445.613C263.649 446.705 265.115 439.3 266.82 434.991C267.972 432.089 268.017 428.708 271.322 425.237V425.252Z" fill="#467A13"/>
<path d="M452.15 418.251C455.68 427.587 456.638 435.142 455.291 442.667C454.454 447.35 451.686 451.359 445.987 451.987C439.87 452.66 438.075 448.053 436.983 443.909C435.442 438.074 435.592 431.955 437.476 424.295C440.423 429.831 438.359 434.498 439.989 438.508C441.096 441.246 441.47 445.031 444.955 445.24C448.725 445.464 449.009 441.32 450.101 438.792C452.629 432.913 450.131 426.465 452.135 418.236L452.15 418.251Z" fill="#467A13"/>
<path d="M430.207 516.736C437.118 525.638 437.417 539.746 432.331 546.134C428.966 550.368 423.865 550.398 420.44 546.209C414.352 538.773 417.254 530.156 417.343 521.928C417.343 521.269 418.585 520.147 419.318 520.088C420.888 519.938 421.217 521.344 421.232 522.631C421.307 527.089 421.113 531.562 421.457 536.005C421.666 538.668 422.459 542.199 425.495 542.349C429.22 542.528 429.908 538.668 430.088 535.841C430.447 530.216 430.192 524.561 430.192 516.736H430.207Z" fill="#437412"/>
<path d="M264.471 640.265C263.215 659.31 257.007 677.038 249.767 694.512C249.079 694.332 248.391 694.168 247.703 693.988C252.475 675.886 257.246 657.784 262.033 639.682C262.856 639.876 263.663 640.071 264.486 640.265H264.471Z" fill="#4D450B"/>
<path d="M267.148 622.91C264.486 608.384 268.479 594.365 270.2 580.168C272.354 594.605 272.832 608.952 267.148 622.91Z" fill="#4F4B0D"/>
<path d="M274.044 643.182C272.922 636.405 272.758 629.733 276.288 623.404C277.44 630.181 274.702 636.57 274.044 643.182Z" fill="#5F4E0E"/>
<path d="M266.161 299.225C267.822 308.889 263.843 317.177 259.804 325.45C258.323 315.876 263.08 307.797 266.161 299.225Z" fill="#5F4E0E"/>
<path d="M135.547 547.884C138.284 537.622 141.022 527.359 143.759 517.096C144.522 517.26 145.285 517.44 146.047 517.604C143.639 527.912 142.652 538.519 137.91 548.318C137.117 548.169 136.34 548.019 135.547 547.869V547.884Z" fill="#4F4B0D"/>
<path d="M170.414 443.803C170.714 451.837 165.912 457.896 162.188 464.373C162.532 456.579 164.865 449.563 170.414 443.803Z" fill="#4F4B0D"/>
<path d="M248.989 352.274C248.211 345.677 251.607 340.755 255.346 335.982C255.645 342.386 252.145 347.263 248.989 352.274Z" fill="#4F4B0D"/>
</g>
<defs>
<clipPath id="clip0_4459_2142">
<rect width="573" height="718" fill="white" transform="translate(1)"/>
</clipPath>
</defs>
</svg>
