<svg width="739" height="1149" viewBox="0 0 739 1149" fill="none" xmlns="http://www.w3.org/2000/svg">
<path d="M529.5 594.5C594.3 536.1 665.833 530.833 693.5 535.5C758 569 734 631 730 656.5C726 682 721 683.5 724.5 728.5C728 773.5 750.5 808.5 730 892C709.5 975.5 641 999.5 609 1008C577 1016.5 529.5 1031.5 501 1056C472.5 1080.5 437.5 1136.5 407.5 1146.5C377.5 1156.5 285 1132 247.5 1112C217.5 1096 210 1054.67 210 1036L247.5 932L313 798.5L357.5 728.5L418 648.5C427.333 652.167 464.7 652.9 529.5 594.5Z" fill="#3D761A"/>
<g clip-path="url(#clip0_4459_2144)">
<path d="M453.865 686.195C430.916 665.97 409.215 642.041 397.033 613.576C390.756 598.886 388.428 583.155 386.39 567.425C384.27 550.987 382.649 534.507 380.154 518.152C377.618 501.256 369.387 493.017 351.468 489.354C336.46 486.275 321.202 484.444 306.277 481.198C272.144 473.79 239.218 463.095 211.072 441.33C187.25 422.936 173.115 398.591 167.959 368.837C164.301 347.571 165.839 326.597 169.789 305.623C170.204 303.376 169.955 301.004 170.038 298.673C177.106 299.256 180.39 294.22 184.256 288.686C186.377 294.387 189.62 298.798 194.692 301.669C198.309 303.75 202.508 304.083 206.291 305.665C206.623 311.324 205.875 316.942 205.376 322.519C202.882 350.359 219.304 387.855 256.804 399.424C278.63 406.165 300.997 411.034 322.657 418.276C330.639 420.939 338.829 422.728 347.144 424.06C352.965 424.976 355.833 423.727 356.457 419.607C357.205 414.53 357.621 409.411 357.205 404.21C355.667 384.526 353.588 364.8 354.711 345.033C355.127 337.542 354.461 329.136 357.829 321.978C372.671 328.844 387.471 329.926 401.523 319.564C402.937 318.524 403.768 319.148 403.727 320.729C403.561 326.639 406.221 331.632 408.425 336.751C407.593 338.041 407.344 340.205 407.385 341.745C407.76 358.141 406.845 374.579 408.383 390.976C409.88 406.915 413.04 422.312 421.438 436.17C427.05 445.45 433.452 454.606 444.179 458.143C458.231 462.804 471.16 459.225 482.593 449.986C496.853 438.501 506.498 422.895 514.855 406.998C522.796 412.033 531.152 414.156 540.506 412.075C534.395 430.427 524.542 447.281 512.568 462.388C503.256 474.123 491.407 482.821 479.309 491.269C476.066 493.558 472.782 495.805 469.83 498.468C462.97 504.669 460.684 512.326 462.97 521.398C464.093 525.851 464.342 530.595 465.756 534.923C475.401 563.804 495.273 582.156 524.5 589.855C545.911 595.473 566.324 590.896 586.03 581.865C622.74 565.053 660.905 552.901 700.941 547.158C703.353 546.825 703.768 545.327 704.558 543.787C711.21 530.97 718.818 518.776 726.676 506.708C727.673 505.21 728.796 503.837 730.75 502.921C731.54 504.919 730.459 506.333 729.794 507.582C711.418 542.289 698.114 579.285 681.36 614.741C675.789 626.477 670.093 639.877 663.524 651.155" fill="#604E0E"/>
<path d="M408.384 338.165C406.139 333.046 403.146 328.219 403.312 322.309C403.354 320.77 402.522 320.104 401.109 321.144C387.057 331.506 372.506 330.133 357.622 323.225C345.566 314.111 336.461 303 334.382 286.936C324.446 297.881 317.004 298.88 306.486 291.473C298.254 305.788 287.071 316.691 269.776 316.442C251.275 316.192 240.009 305.289 235.81 287.353C234.188 287.769 233.482 288.809 233.024 289.808C227.911 301.543 218.182 305.622 206.292 306.329C202.509 304.748 198.31 304.415 194.693 302.334C189.662 299.463 186.378 295.051 184.258 289.35C180.391 294.885 177.107 299.92 170.039 299.338C167.129 299.338 164.676 295.301 162.639 296.674C160.81 297.881 160.851 301.793 159.812 304.373C153.285 319.979 135.616 329.842 119.028 327.47C113.581 326.679 109.507 323.808 105.849 320.062C103.936 318.106 102.523 318.19 101.733 320.978C95.954 341.452 67.2677 353.438 45.7323 346.987C22.8249 340.079 10.602 323.683 4.69849 301.627C-2.49386 274.785 -0.58144 247.818 5.69627 221.184C19 164.796 43.2378 113.734 82.0682 70.2873C111.586 37.2864 147.173 13.857 190.951 4.41035C225.333 -3.03879 259.341 -1.37418 292.143 11.7763C331.638 27.5901 366.976 49.6462 393.833 83.6042C397.326 88.0571 400.859 92.5099 402.813 97.8366C404.102 101.332 405.682 101.249 408.551 99.3764C422.27 90.3459 436.073 81.3154 451.455 75.406C492.946 59.4257 533.98 60.8823 573.933 80.1918C624.654 104.703 657.788 144.529 674.543 198.296C680.571 217.605 688.013 236.54 690.965 256.682C695.455 287.061 698.198 317.44 691.754 347.903C689.759 357.308 687.846 366.796 684.354 375.785C681.569 382.985 677.91 389.726 671.965 394.803C664.939 400.837 657.414 405.124 647.977 399.131C646.48 412.115 639.745 420.313 627.481 423.518C615.59 426.639 606.236 422.852 599.501 411.657C594.263 422.061 585.241 423.643 575.471 423.351C565.202 423.018 557.345 418.524 552.522 409.244C551.566 407.413 550.859 406.872 548.905 408.328C546.245 410.243 543.21 411.616 540.299 413.239C530.945 415.278 522.464 413.114 514.523 408.12C506.209 401.753 500.721 393.721 500.596 382.277C494.9 386.855 489.08 389.601 482.553 390.267C464.717 392.181 450.083 376.326 452.536 357.599C452.91 354.686 452.744 353.979 449.709 354.936C438.941 358.223 429.546 354.52 420.566 348.943C415.868 346.03 412.5 341.702 408.384 338.206V338.165Z" fill="#5F962B"/>
<path d="M408.384 338.165C406.139 333.046 403.146 328.219 403.312 322.309C403.354 320.77 402.522 320.104 401.109 321.144C387.057 331.506 372.506 330.133 357.622 323.225C345.566 314.111 336.461 303 334.382 286.936C324.446 297.881 317.004 298.88 306.486 291.473C298.254 305.788 287.071 316.691 269.776 316.442C251.275 316.192 240.009 305.289 235.81 287.353C234.188 287.769 233.482 288.809 233.024 289.808C227.911 301.543 218.182 305.622 206.292 306.329C202.509 304.748 198.31 304.415 194.693 302.334C189.662 299.463 186.378 295.051 184.258 289.35C180.391 294.885 177.107 299.92 170.039 299.338C167.129 299.338 164.676 295.301 162.639 296.674C160.81 297.881 160.851 301.793 159.812 304.373C153.285 319.979 135.616 329.842 119.028 327.47C113.581 326.679 109.507 323.808 105.849 320.062C103.936 318.106 102.523 318.19 101.733 320.978C95.954 341.452 67.2677 353.438 45.7323 346.987C22.8249 340.079 10.602 323.683 4.69849 301.627C-2.49386 274.785 -0.58144 247.818 5.69627 221.184C19 164.796 43.2378 113.734 82.0682 70.2873C111.586 37.2864 147.173 13.857 190.951 4.41035C225.333 -3.03879 259.341 -1.37418 292.143 11.7763C331.638 27.5901 366.976 49.6462 393.833 83.6042C397.326 88.0571 400.859 92.5099 402.813 97.8366C404.102 101.332 405.682 101.249 408.551 99.3764C422.27 90.3459 436.073 81.3154 451.455 75.406C492.946 59.4257 533.98 60.8823 573.933 80.1918C624.654 104.703 657.788 144.529 674.543 198.296C680.571 217.605 688.013 236.54 690.965 256.682C695.455 287.061 698.198 317.44 691.754 347.903C689.759 357.308 687.846 366.796 684.354 375.785C681.569 382.985 677.91 389.726 671.965 394.803C664.939 400.837 657.414 405.124 647.977 399.131C646.48 412.115 639.745 420.313 627.481 423.518C615.59 426.639 606.236 422.852 599.501 411.657C594.263 422.061 585.241 423.643 575.471 423.351C565.202 423.018 557.345 418.524 552.522 409.244C551.566 407.413 550.859 406.872 548.905 408.328C546.245 410.243 543.21 411.616 540.299 413.239C530.945 415.278 522.464 413.114 514.523 408.12C506.209 401.753 500.721 393.721 500.596 382.277C494.9 386.855 489.08 389.601 482.553 390.267C464.717 392.181 450.083 376.326 452.536 357.599C452.91 354.686 452.744 353.979 449.709 354.936C438.941 358.223 429.546 354.52 420.566 348.943C415.868 346.03 412.5 341.702 408.384 338.206V338.165ZM676.497 234.418C676.289 232.961 676.206 231.463 675.873 230.007C672.714 217.106 668.223 204.621 663.567 192.178C656.874 174.242 649.39 156.597 637.708 141.283C622.367 121.224 604.241 103.996 581.874 91.7608C569.942 85.2272 557.844 78.4855 544.374 76.0719C528.326 73.1588 512.154 70.9116 495.566 72.4097C477.98 73.9911 461.308 78.3607 445.427 85.685C418.736 97.9615 395.787 115.44 376.497 137.662C372.007 135.457 376.539 133.543 377.204 132.669C383.357 124.845 389.925 117.271 396.369 109.655C398.947 108.407 401.151 106.742 402.73 104.412C400.984 102.581 399.113 100.916 397.617 99.0019C381.777 78.3607 364.149 59.7587 341.99 45.4846C320.33 31.5435 297.631 20.0161 272.852 13.316C253.146 7.98926 232.858 6.53273 212.279 8.61349C191.242 10.7359 171.245 16.0626 152.329 25.2596C123.975 39.0759 100.444 59.1344 80.4468 83.3129C54.7123 114.441 35.8792 149.523 22.7001 187.642C16.0483 206.91 10.8099 226.594 8.81434 246.944C7.65026 258.638 7.19294 270.457 8.81434 282.151C9.43795 286.52 9.3548 291.14 11.5998 295.176C11.8908 300.253 13.8032 304.873 15.7988 309.367C23.4069 326.554 37.6669 339.08 57.7057 339.164C74.3354 339.247 86.1424 330.716 96.0787 318.522C99.4046 314.444 102.356 310.116 103.146 304.581C103.437 302.459 103.52 299.546 106.264 298.422C107.054 299.13 106.763 299.712 106.68 300.378C105.807 307.37 112.667 318.231 118.778 318.939C126.677 319.854 134.41 318.897 141.228 314.361C151.414 307.619 156.444 297.673 158.066 285.813C158.232 284.689 157.983 283.108 159.355 282.9C160.935 282.65 160.727 284.273 161.142 285.313C162.639 289.267 165.466 292.346 169.582 292.887C173.698 293.428 175.984 290.141 177.772 286.77C179.643 283.233 180.932 279.446 181.929 275.617C182.387 273.869 182.636 272.08 184.299 270.831C185.879 271.997 186.128 273.411 185.546 275.159C180.765 289.475 200.014 300.836 211.031 298.672C218.016 297.299 223.13 293.678 226.83 287.727C231.07 280.944 235.352 274.244 239.801 267.211C241.422 269.583 240.84 271.622 240.757 273.536C240.508 282.026 243.085 289.683 247.991 296.341C253.354 303.624 260.463 308.66 269.984 309.117C286.239 309.95 302.37 293.512 304.657 277.823C305.239 273.952 306.07 269.957 309.022 265.629C309.646 270.332 310.02 273.869 310.602 277.365C311.184 281.11 311.558 285.397 315.674 286.936C323.157 289.766 333.01 281.402 331.43 273.62C330.641 269.666 330.641 265.754 330.474 261.759C330.142 252.937 331.139 244.239 332.595 235.583C334.341 225.387 335.671 215.067 339.496 205.329C341.284 206.994 340.452 208.991 340.161 210.864C338.29 223.556 337.168 236.291 336.627 249.108C336.627 254.435 336.586 259.762 336.503 265.047C336.336 277.032 338.498 288.601 344.901 298.838C358.371 320.354 374.21 325.93 397.741 317.274C399.903 316.483 402.148 315.568 403.104 313.154C403.52 312.03 402.98 310.033 405.058 310.407C406.763 310.699 407.012 312.488 407.22 313.986C409.715 332.047 420.898 342.326 437.362 347.986C441.893 349.526 446.466 349.443 451.081 348.527C454.989 347.736 454.864 343.949 456.112 341.203C456.444 340.454 456.86 339.538 457.816 339.788C458.772 339.996 458.939 340.87 458.731 341.785C457.484 347.029 458.232 352.356 458.19 357.641C458.19 363.009 459.562 368.211 462.389 372.747C467.794 381.528 476.566 386.355 491.865 381.611C497.436 379.905 502.259 377.991 502.01 370.916C502.01 369.876 502.342 368.627 503.506 368.71C504.961 368.835 505.045 370.292 504.961 371.457C504.67 375.161 505.419 378.698 506.042 382.277C508.079 394.096 514.731 402.211 526.081 405.998C532.484 408.12 538.761 407.205 544.789 403.959C549.529 401.42 550.153 397.217 550.111 392.598C550.111 392.306 550.277 391.932 550.444 391.682C551.15 390.517 550.277 388.062 552.398 388.27C554.435 388.436 553.811 390.6 553.77 391.973C553.645 396.509 554.061 400.796 556.389 404.916C563.332 417.234 577.342 418.066 587.777 414.113C593.057 412.115 597.797 408.744 596.757 401.545C596.508 399.839 595.51 396.718 597.963 396.385C600.624 395.968 599.917 399.381 600.416 401.004C602.786 408.869 611.932 416.443 619.498 415.819C633.384 414.737 640.66 403.418 642.364 390.975C642.531 389.685 640.577 388.062 642.863 387.188C645.025 386.355 645.649 388.395 646.688 389.56C652.508 395.968 658.121 396.842 663.941 391.89C668.223 388.228 672.048 384.108 674.543 378.865C683.065 361.012 685.186 341.744 686.308 322.434C687.597 300.545 685.019 278.78 682.234 257.14C681.236 249.399 680.114 241.451 676.497 234.252V234.418Z" fill="#497522"/>
<path d="M452.036 685.57C457.607 679.244 464.01 673.793 470.038 667.967C474.57 663.597 480.265 660.642 484.132 655.607C484.88 655.316 485.753 655.149 486.377 654.691C501.343 643.081 517.516 633.634 535.102 626.435C559.381 616.53 584.284 614.283 609.852 618.944C623.198 621.357 635.296 627.1 646.562 634.633C652.549 639.96 658.577 645.328 664.564 650.655C673.627 662.349 681.152 674.75 685.06 689.357C694.539 724.855 672.796 765.346 649.14 780.702C644.775 783.532 640.077 785.696 634.755 785.405C631.803 785.238 630.681 786.487 629.974 789.15C624.611 809.5 609.686 820.195 591.185 826.937C585.407 829.059 579.42 826.313 573.475 826.271C572.061 826.271 571.063 826.77 570.398 828.185C565.035 839.338 555.182 842.709 543.791 843.375C538.137 843.666 532.857 842.543 528.284 839.172C526.122 837.59 524.999 838.506 524.043 840.42C523.378 841.752 522.796 843.125 522.214 844.499C514.647 863.392 491.199 872.755 472.823 864.099C468.042 861.852 464.093 858.648 461.598 853.904C460.975 852.697 460.725 850.574 458.647 852.364C450.29 859.605 440.77 861.894 430.418 857.857C417.945 852.988 409.007 844.166 404.226 831.515C398.988 817.74 399.403 803.508 401.856 789.317C408.633 750.323 426.219 716.532 451.662 686.527C451.87 686.277 451.912 685.944 452.036 685.653V685.57Z" fill="#5F962B"/>
<path d="M452.036 685.57C457.607 679.244 464.01 673.793 470.038 667.967C474.57 663.597 480.265 660.642 484.132 655.607C484.88 655.316 485.753 655.149 486.377 654.691C501.343 643.081 517.516 633.634 535.102 626.435C559.381 616.53 584.284 614.283 609.852 618.944C623.198 621.357 635.296 627.1 646.562 634.633C652.549 639.96 658.577 645.328 664.564 650.655C673.627 662.349 681.152 674.75 685.06 689.357C694.539 724.855 672.796 765.346 649.14 780.702C644.775 783.532 640.077 785.696 634.755 785.405C631.803 785.238 630.681 786.487 629.974 789.15C624.611 809.5 609.686 820.195 591.185 826.937C585.407 829.059 579.42 826.313 573.475 826.271C572.061 826.271 571.063 826.77 570.398 828.185C565.035 839.338 555.182 842.709 543.791 843.375C538.137 843.666 532.857 842.543 528.284 839.172C526.122 837.59 524.999 838.506 524.043 840.42C523.378 841.752 522.796 843.125 522.214 844.499C514.647 863.392 491.199 872.755 472.823 864.099C468.042 861.852 464.093 858.648 461.598 853.904C460.975 852.697 460.725 850.574 458.647 852.364C450.29 859.605 440.77 861.894 430.418 857.857C417.945 852.988 409.007 844.166 404.226 831.515C398.988 817.74 399.403 803.508 401.856 789.317C408.633 750.323 426.219 716.532 451.662 686.527C451.87 686.277 451.912 685.944 452.036 685.653V685.57ZM501.967 650.488C500.055 650.447 498.433 651.237 496.895 652.278C488.372 658.27 480.182 664.721 472.449 671.712C452.909 689.274 437.361 709.998 425.429 733.344C421.562 740.96 417.156 748.492 416.158 757.273C413.871 757.523 413.996 759.645 413.539 761.06C408.009 777.29 404.434 793.853 405.265 811.206C406.138 829.184 413.58 842.917 430.127 851.157C435.989 854.07 442.017 853.987 447.962 852.572C453.866 851.199 459.811 849.326 462.056 841.586C464.093 845.497 464.467 849.035 467.003 851.656C475.567 860.562 488.539 862.684 500.928 857.15C512.943 851.781 518.389 841.502 521.798 829.642C522.255 828.102 522.131 826.354 524.001 825.605C526.371 832.971 531.526 836.675 539.883 837.133C555.016 837.923 562.956 832.097 567.779 816.616C568.029 815.784 568.278 814.869 569.234 814.91C569.691 814.91 570.315 815.618 570.565 816.159C572.768 820.903 577.133 821.61 581.582 822.234C597.92 824.398 618.5 805.006 623.655 792.688C625.817 787.527 625.027 782.076 625.9 776.333C630.764 782.076 632.344 782.45 639.079 779.454C641.948 778.164 644.816 776.749 647.352 774.918C659.409 766.345 667.557 754.693 673.835 741.459C687.762 712.037 682.482 679.744 661.654 655.524C636.875 626.726 603.949 619.526 567.987 622.939C547.99 624.853 529.572 632.76 512.153 642.581C508.453 644.662 503.672 645.786 501.842 650.447L501.967 650.488Z" fill="#497522"/>
<path d="M543.084 842.543C554.434 841.877 564.328 838.507 569.691 827.354C570.357 825.939 571.354 825.439 572.768 825.439C578.256 830.766 584.076 835.552 590.645 839.547C593.015 840.962 593.929 840.629 594.802 838.09C595.551 835.885 595.925 833.305 599.209 831.515C597.089 843.542 593.888 854.237 587.319 863.684C582.829 870.134 577.591 875.877 571.853 881.204C563.539 888.903 556.18 897.392 549.902 906.839C549.112 908.046 547.948 909.045 546.784 910.293C545.454 908.087 546.867 906.672 547.74 905.341C550.9 900.305 554.184 895.395 557.386 890.359C558.175 889.111 559.672 888.237 558.425 886.073C551.357 873.505 547.699 859.689 544.123 845.831C543.832 844.707 543.458 843.625 543.084 842.543Z" fill="#604E0E"/>
<path d="M646.563 634.591C635.296 627.058 623.24 621.357 609.853 618.902C584.284 614.241 559.381 616.488 535.102 626.392C517.516 633.592 501.344 643.039 486.377 654.649C485.753 655.149 484.88 655.273 484.132 655.565C468.916 648.157 454.406 639.793 441.934 627.974C427.757 614.532 418.112 598.385 411.336 580.283C404.476 561.972 398.281 543.412 389.426 525.892C386.973 521.023 384.437 516.278 382.857 510.952C378.658 496.886 367.807 490.352 354.462 486.732C341.823 483.319 328.811 482.362 315.964 480.156C293.182 476.245 271.23 469.711 250.027 460.68C232.525 453.231 216.311 443.618 202.716 430.093C186.128 413.572 176.275 393.597 171.993 370.583C170.496 362.593 170.08 354.52 169.29 346.488C168.708 340.62 169.706 334.586 170.205 328.677C170.454 325.93 171.909 324.432 174.986 325.556C178.395 326.804 181.929 327.72 185.546 328.219C189.87 328.843 189.745 332.713 189.87 335.543C190.493 352.689 195.607 368.419 204.504 382.943C213.068 396.926 224.958 407.122 240.549 412.698C264.412 421.188 288.692 427.888 313.553 433.048C335.005 437.501 355.002 446.573 374.75 455.936C375.332 456.186 375.956 456.352 376.413 456.519C377.369 455.853 377.12 455.146 376.663 454.688C368.389 446.906 365.77 435.836 360.324 426.431C358.37 423.019 360.366 419.523 360.823 416.277C361.945 408.12 360.366 400.13 359.95 392.098C359.326 380.363 358.162 368.627 358.536 356.85C358.578 355.477 358.661 353.979 360.657 354.312C372.38 356.143 384.104 354.312 395.828 354.104C405.681 353.937 404.393 352.772 404.309 362.427C404.185 381.487 404.226 400.546 409.382 419.107C413.664 434.463 420.898 448.154 433.411 458.35C442.475 465.757 453.035 465.882 464.052 463.427C479.351 460.056 490.077 450.235 499.93 439.04C500.928 437.917 501.801 436.71 502.84 435.67C504.005 434.546 504.961 435.378 505.834 436.211C507.33 437.667 507.164 439.082 505.751 440.539C494.567 452.274 483.508 464.343 468.583 471.459C458.896 476.078 451.372 482.653 449.584 493.515C447.879 503.752 448.461 514.489 453.409 523.644C460.767 537.211 465.923 552.068 476.233 564.011C490.701 580.74 507.954 592.143 530.238 595.68C552.064 599.134 571.812 593.308 591.186 584.361C621.078 570.545 652.466 561.431 684.645 554.731C687.264 554.19 690.964 551.901 692.461 554.398C693.749 556.479 690.34 559.184 688.802 561.389C675.124 581.24 663.733 602.38 652.425 623.563C650.471 627.183 648.475 630.804 646.479 634.383L646.563 634.591Z" fill="#756118"/>
<path d="M11.6824 295.26C9.4374 291.181 9.56213 286.604 8.89694 282.234C7.23397 270.54 7.69128 258.721 8.89694 247.027C10.8925 226.678 16.1309 206.994 22.7827 187.726C35.9618 149.606 54.7949 114.483 80.5294 83.3962C100.527 59.2177 124.058 39.1592 152.411 25.3429C171.327 16.1459 191.325 10.8608 212.361 8.69679C232.941 6.61603 253.229 8.07257 272.935 13.3993C297.672 20.0994 320.413 31.6268 342.073 45.5679C364.232 59.842 381.859 78.444 397.699 99.0852C399.196 100.999 401.025 102.664 402.813 104.495C401.233 106.826 399.03 108.49 396.452 109.739C396.078 103.247 393.542 100.791 387.223 100.708C380.197 100.625 373.919 103.372 367.807 106.201C350.887 114.025 337.167 126.01 324.238 139.327C310.726 153.185 302.328 169.498 297.214 187.851C294.47 197.755 291.685 207.659 286.738 216.773C285.158 219.686 283.287 222.266 280.335 223.931C279.171 221.85 279.254 219.437 277.633 217.855C275.762 215.982 273.475 215.067 270.815 215.691C266.657 216.69 265.659 220.269 265.119 223.681C263.996 230.631 260.338 235.458 253.686 237.248C246.66 239.121 242.295 235.292 238.803 229.383C235.269 223.39 229.49 223.806 225.914 229.799C225.499 230.506 225.249 231.339 224.709 231.963C222.63 234.585 220.468 237.747 216.81 237.206C213.318 236.707 211.53 233.835 210.781 230.215C210.158 227.343 208.329 225.263 204.795 225.388C201.386 225.554 200.346 227.801 199.64 230.506C199.349 231.63 199.141 232.795 199.182 233.919C199.349 238.538 197.228 242.283 194.36 245.613C189.994 250.648 186.128 250.606 181.222 245.987C178.894 243.781 176.94 241.368 175.693 238.413C174.57 235.708 172.741 234.002 169.581 234.418C166.297 234.834 164.8 236.832 164.135 239.911C162.347 248.65 158.024 255.808 151.413 261.843C143.514 269.042 132.996 267.627 128.007 258.305C126.885 256.266 126.635 253.936 126.178 251.647C125.43 247.943 123.185 245.571 119.11 246.445C115.369 247.277 113.913 250.357 114.579 253.686C116.491 262.966 112.957 270.665 108.01 277.823C101.691 287.02 91.1724 288.976 82.9822 282.983C78.1596 279.446 77.0787 274.618 77.4529 268.959C77.7023 265.255 76.5798 261.926 72.1314 261.302C67.4335 260.636 65.0222 263.216 64.0244 267.461C63.6918 268.875 63.2345 270.582 63.6502 271.872C65.2716 276.491 63.1513 279.987 60.4906 283.191C57.7467 286.52 54.9612 289.933 51.5937 292.555C43.6946 298.797 35.0887 302.792 24.4873 300.337C19.8725 299.296 15.9646 296.883 11.724 295.176L11.6824 295.26Z" fill="#7BC437"/>
<path d="M376.537 137.705C395.828 115.483 418.777 98.0041 445.467 85.7276C461.349 78.4033 477.978 74.0337 495.606 72.4524C512.194 70.9542 528.366 73.2014 544.414 76.1145C557.842 78.5282 569.941 85.2699 581.914 91.8035C604.281 104.038 622.407 121.225 637.748 141.326C649.43 156.598 656.872 174.285 663.607 192.221C668.264 204.622 672.754 217.149 675.913 230.049C676.246 231.464 676.329 232.962 676.537 234.461C674.708 239.122 675.414 244.199 674.167 248.943C669.927 264.881 663.857 280.113 654.586 293.887C647.31 304.707 644.899 305.165 634.006 298.215C627.105 293.804 621.077 295.177 616.795 302.294C615.589 304.291 614.716 306.455 613.635 308.494C610.891 313.654 607.607 318.399 603.242 322.352C598.377 326.722 594.428 326.306 591.019 320.646C588.067 315.777 586.196 310.45 585.822 304.707C585.531 300.504 584.117 296.8 579.586 296.467C574.597 296.093 573.391 300.421 573.017 304.249C572.643 307.953 571.146 310.783 569.067 313.696C563.58 321.395 555.93 325.765 547.075 328.012C533.896 331.341 525.706 326.763 523.169 315.069C522.712 312.989 522.421 310.825 522.005 308.744C521.34 305.415 520.426 302.21 516.892 300.795C513.067 299.214 510.157 301.253 507.454 303.542C505.833 304.957 504.42 306.663 502.798 308.036C496.604 313.322 491.282 312.281 487.499 305.165C486.792 303.833 486.168 302.502 485.503 301.128C481.096 292.181 474.943 291.64 468.998 299.547C466.795 302.46 464.3 305.207 461.224 307.204C457.69 309.451 455.487 308.577 454.115 304.582C450.913 295.219 451.87 285.523 452.66 275.993C452.992 271.706 453.2 268.169 448.793 266.546C444.511 264.965 440.603 267.67 439.356 272.913C438.483 276.659 436.487 279.488 433.993 282.235C424.514 292.597 412.831 298.507 398.987 300.213C391.171 301.17 379.697 297.466 375.83 288.311C369.262 272.705 367.931 256.642 370.841 240.162C371.881 234.169 369.636 228.926 364.772 227.761C360.323 226.679 356.124 230.008 354.628 235.792C351.884 246.529 347.643 249.733 336.709 249.317C337.249 236.5 338.372 223.766 340.243 211.073C340.534 209.2 341.324 207.203 339.578 205.538C339.328 203.166 339.952 200.96 340.617 198.755C345.523 182.317 355.542 168.75 364.855 154.726C368.638 148.983 374.126 144.405 376.537 137.747V137.705Z" fill="#7BC437"/>
<path d="M502.008 650.488C509.783 651.862 517.64 652.86 525.29 654.691C537.596 657.646 548.655 662.848 556.512 673.502C566.864 687.609 565.326 705.296 557.011 718.821C552.563 726.062 547.117 733.636 538.885 734.842C528.491 736.382 525.082 742.416 522.089 750.781C519.885 756.899 515.603 761.976 510.573 766.179C508.12 768.218 505.293 769.425 501.925 769.383C495.44 769.3 494.775 768.634 495.939 762.267C496.729 757.897 494.608 753.653 491.033 752.487C486.834 751.156 481.305 754.069 480.099 759.437C477.979 769.05 472.532 776.291 465.423 782.492C455.362 791.273 443.721 794.893 430.459 792.105C422.726 790.44 416.657 781.035 416.324 770.756C416.199 766.262 416.241 761.768 416.199 757.315C417.197 748.534 421.562 741.002 425.47 733.386C437.402 709.998 452.951 689.315 472.491 671.754C480.224 664.804 488.414 658.354 496.936 652.319C498.433 651.237 500.054 650.447 502.008 650.53V650.488Z" fill="#7BC437"/>
<path d="M336.544 473.25C314.261 471.169 292.642 466.383 271.896 458.06C272.063 457.436 272.188 456.812 272.354 456.188C293.848 461.306 315.342 466.425 336.794 471.544C336.711 472.126 336.586 472.667 336.503 473.25H336.544Z" fill="#604E0E"/>
<path d="M449.585 561.723C454.864 567.757 458.232 573.417 462.265 578.535C468.917 586.942 477.107 593.017 486.461 597.845C487.5 598.386 488.54 598.885 489.537 599.426C490.535 599.967 492.073 600.342 491.575 601.757C490.992 603.38 489.662 602.256 488.623 602.006C482.054 600.467 476.192 597.221 471.12 592.976C461.891 585.235 454.573 575.872 449.709 564.761C449.543 564.386 449.626 563.845 449.543 561.764L449.585 561.723Z" fill="#604E0E"/>
<path d="M653.838 578.162C638.913 579.951 624.237 583.072 609.52 586.193C623.447 579.119 637.541 572.96 653.838 578.162Z" fill="#604E0E"/>
<path d="M462.348 594.516C474.155 605.752 487.916 613.908 502.592 620.733C489.537 619.61 467.253 606.875 462.348 594.516Z" fill="#604E0E"/>
<path d="M388.096 410.701C392.419 423.893 397.408 436.794 401.15 450.111C393.001 438.209 388.595 425.058 388.096 410.701Z" fill="#604E0E"/>
<path d="M220.468 431.177C206.915 422.063 196.314 410.244 188.373 396.012C198.891 407.872 209.825 419.399 220.468 431.177Z" fill="#604E0E"/>
<path d="M653.963 587.649C648.558 590.812 642.572 591.603 636.419 591.644C635.712 591.644 635.005 591.27 635.047 590.562C635.13 589.189 636.335 588.731 637.375 588.315C642.738 586.318 648.226 586.359 653.921 587.649H653.963Z" fill="#604E0E"/>
<path d="M392.793 448.446C387.845 442.329 385.143 435.254 384.104 427.514C388.427 433.881 390.88 441.039 392.793 448.446Z" fill="#604E0E"/>
<path d="M290.147 448.155C282.289 447.156 274.764 445.034 267.613 441.705C275.762 441.621 282.913 445.117 290.147 448.155Z" fill="#604E0E"/>
<path d="M235.477 441.537C242.045 443.118 247.783 446.531 253.353 450.151C246.577 448.986 240.798 445.782 235.477 441.537Z" fill="#604E0E"/>
<path d="M268.652 51.9766C272.934 59.8418 275.304 67.0413 276.801 74.6153C278.048 80.9408 277.757 87.0166 275.262 93.0508C273.807 96.5881 271.645 99.0851 267.862 99.5844C263.746 100.125 260.42 98.2528 258.009 95.0068C254.35 90.0962 252.895 84.3116 251.898 78.4023C251.315 74.9898 251.191 71.4941 250.941 68.0401C250.817 66.5419 250.733 64.5028 252.438 64.2531C254.517 63.9618 254.35 66.4171 254.517 67.5823C255.639 75.073 258.217 81.9812 262.499 88.2235C263.58 89.8465 264.453 92.1353 266.864 91.5111C269.026 90.9285 269.359 88.6812 269.774 86.7253C271.853 77.4451 270.897 68.3314 268.444 59.3009C267.904 57.3449 267.488 55.4722 268.61 52.0182L268.652 51.9766Z" fill="#497522"/>
<path d="M109.423 138.37C110.67 140.326 110.628 142.407 110.088 144.196C109.048 147.65 109.381 151.104 109.339 154.6C109.298 157.68 109.63 161.467 112.707 162.132C115.7 162.757 116.989 159.095 118.278 156.598C121.562 150.314 122.56 143.447 123.267 136.497C123.433 134.833 123.475 132.378 125.096 132.336C127.341 132.253 127.092 134.833 127.299 136.581C128.131 142.823 128.838 149.065 127.341 155.349C126.26 159.969 124.639 164.255 120.98 167.459C117.737 170.331 114.204 172.37 109.755 170.539C105.224 168.624 103.477 164.837 103.394 160.177C103.228 152.353 106.803 145.528 109.464 138.412L109.423 138.37Z" fill="#497522"/>
<path d="M74.7096 146.318C75.9153 150.896 73.5871 154.933 73.0051 159.178C72.5062 162.881 72.2567 166.377 73.3376 169.956C74.6265 174.325 76.4973 174.908 79.9064 171.62C85.7683 166.002 88.0134 158.47 90.2999 151.021C90.9236 148.982 91.0899 146.776 91.6719 144.737C91.8798 144.071 92.6281 143.156 93.2517 143.031C94.2495 142.864 94.4158 143.946 94.4574 144.779C95.1226 156.805 94.4574 168.458 84.9784 177.53C81.4031 180.984 77.2456 183.023 72.3814 180.859C67.9746 178.862 67.6004 174.617 67.3925 170.289C66.9768 161.342 70.3027 153.684 74.7512 146.277L74.7096 146.318Z" fill="#497522"/>
<path d="M201.219 167.003C201.552 172.288 199.473 177.282 199.93 182.608C200.221 185.938 200.803 189.142 201.926 192.263C203.215 195.759 204.753 195.967 206.832 192.846C210.823 186.936 212.236 180.111 213.941 173.37C214.523 171.039 214.356 166.961 216.726 167.252C219.345 167.585 217.849 171.497 217.89 173.786C218.098 181.776 217.682 189.683 213.774 196.966C211.613 201.002 208.37 203.499 203.921 203.291C199.099 203.083 196.854 199.587 195.773 195.218C193.237 184.98 196.272 175.825 201.177 166.961L201.219 167.003Z" fill="#497522"/>
<path d="M414.328 206.12C414.869 196.923 419.068 188.476 423.558 180.153C424.888 177.656 426.509 175.367 428.006 172.953C428.588 171.996 429.17 170.373 430.417 171.039C432.08 171.913 430.708 173.328 430.293 174.493C428.339 179.612 426.177 184.647 424.389 189.766C422.726 194.468 421.978 199.42 422.31 204.414C422.394 205.788 421.604 207.743 423.641 208.201C425.304 208.576 426.218 206.953 427.091 205.788C431.29 200.003 434.991 193.927 437.236 187.061C437.527 186.104 437.901 185.188 438.358 184.314C438.732 183.565 439.273 182.816 440.229 182.982C441.268 183.19 441.268 184.231 441.185 184.98C440.187 195.3 438.607 205.413 431.581 213.653C428.463 217.315 424.306 218.73 419.941 216.94C415.658 215.193 414.37 211.114 414.328 206.079V206.12Z" fill="#497522"/>
<path d="M452.911 191.014C453.41 193.843 453.368 196.673 452.744 199.586C451.705 204.206 452.079 208.783 453.368 213.319C453.701 214.443 454.283 215.65 455.488 215.9C456.819 216.191 457.525 214.901 458.107 213.985C461.35 208.991 462.265 203.248 463.18 197.547C463.637 194.801 463.886 191.971 464.302 189.224C464.427 188.184 464.842 187.06 465.923 187.019C467.295 186.977 467.087 188.309 467.254 189.224C468.709 198.13 469.125 206.994 466.339 215.733C465.3 218.979 463.512 221.726 460.56 223.557C456.361 226.179 451.206 224.722 448.712 220.394C445.968 215.608 446.633 210.49 447.381 205.454C447.714 202.999 448.504 200.627 449.211 198.255C449.959 195.758 450.874 193.302 451.705 190.847L452.952 191.014H452.911Z" fill="#497522"/>
<path d="M605.28 167.627C607.775 178.738 611.641 188.393 608.689 198.797C607.525 202.917 605.239 206.288 600.166 206.579C594.803 206.829 592.392 203.416 590.854 199.171C587.736 190.765 587.569 182.067 588.775 173.287C588.9 172.288 589.149 170.998 590.313 171.206C591.644 171.414 591.685 172.87 591.727 174.077C591.976 180.403 593.016 186.604 595.344 192.513C596.217 194.718 596.841 198.173 599.626 197.964C602.079 197.756 601.913 194.302 602.578 192.18C604.365 186.52 603.409 180.653 603.659 174.868C603.742 172.954 603.077 170.956 605.239 167.669L605.28 167.627Z" fill="#497522"/>
<path d="M628.645 320.812C631.638 325.89 632.054 330.883 633.176 335.586C635.13 343.867 635.837 352.19 631.222 360.139C627.522 366.506 621.245 366.922 617.046 360.846C614.801 357.6 614.011 353.73 613.844 350.026C613.553 344.117 612.888 338.083 614.634 332.257C614.925 331.258 614.343 329.51 616.089 329.718C617.378 329.843 617.628 331.258 617.669 332.506C617.96 338.957 618.792 345.324 620.954 351.441C621.494 353.023 621.743 355.644 623.864 355.478C625.527 355.353 625.527 352.898 626.067 351.358C628.728 343.951 627.273 336.252 627.689 328.678C627.813 326.431 627.148 324.1 628.686 320.812H628.645Z" fill="#497522"/>
<path d="M574.349 343.743C574.847 347.863 575.596 352.024 575.762 356.144C575.928 361.305 578.257 365.341 581.333 369.128C583.703 372.083 585.906 371.376 587.569 368.421C590.313 363.427 591.935 358.017 592.724 352.399C593.265 348.487 593.473 344.492 593.764 340.539C593.847 339.332 593.972 337.917 595.26 337.709C597.09 337.417 596.632 339.124 596.757 340.164C598.046 350.027 599.044 359.931 595.967 369.669C595.635 370.751 595.136 371.833 594.554 372.79C588.65 382.487 580.709 382.612 575.097 372.79C569.775 363.469 571.438 353.564 573.101 343.785C573.517 343.785 573.933 343.701 574.349 343.66V343.743Z" fill="#497522"/>
<path d="M481.722 784.989C482.262 789.733 480.599 794.185 481.098 798.805C481.181 799.637 481.015 800.469 481.098 801.302C481.555 804.381 481.555 808.21 485.255 809.001C489.454 809.916 490.203 805.671 491.45 803.091C493.861 798.097 494.36 792.604 494.069 787.069C493.986 785.488 493.57 783.157 495.691 782.908C497.811 782.658 497.312 785.197 497.478 786.362C498.85 795.85 500.679 805.505 492.572 813.245C486.96 818.614 479.975 816.616 477.564 809.167C474.696 800.303 478.146 792.646 481.763 785.03L481.722 784.989Z" fill="#497522"/>
<path d="M566.2 760.852C571.23 765.346 572.56 771.339 573.766 777.331C574.14 779.245 574.015 781.326 573.766 783.282C573.267 787.069 571.022 790.024 567.364 790.731C564.038 791.397 561.502 789.108 559.797 786.195C558.093 783.282 557.178 780.078 556.929 776.79C556.638 772.545 556.845 768.259 556.845 763.39C559.922 764.888 559.714 767.011 559.839 769.05C560.088 773.003 560.504 776.957 562.416 780.536C563.206 781.992 563.913 783.906 565.742 783.865C568.195 783.782 567.946 781.201 568.403 779.662C569.567 775.542 567.738 771.547 567.28 767.468C567.031 765.263 566.532 763.099 566.158 760.893L566.2 760.852Z" fill="#497522"/>
<path d="M593.68 716.739C597.006 717.03 597.13 719.402 597.962 721.025C599.833 724.729 601.579 728.475 604.946 731.138C606.194 732.137 607.067 733.718 609.145 732.678C611.058 731.721 611.598 730.347 611.723 728.308C612.055 722.232 611.349 716.489 607.732 711.329C606.485 709.498 605.695 707.334 604.406 704.754C610.185 707.084 616.296 717.405 616.67 724.396C616.753 725.728 616.67 727.06 616.67 728.391C616.546 733.011 614.633 736.59 609.977 737.63C605.903 738.545 602.41 736.631 600.29 733.219C597.172 728.267 595.01 722.857 593.68 716.781V716.739Z" fill="#497522"/>
<path d="M624.736 682.365C634.464 684.612 638.829 695.724 638.538 701.383C638.331 705.337 636.293 708.083 632.427 709.623C628.768 711.038 625.858 709.415 623.281 707.459C618.209 703.547 616.255 697.555 613.968 691.895C613.76 691.396 613.968 690.314 614.301 690.147C615.465 689.481 616.047 690.522 616.546 691.354C618.25 694.184 619.788 697.139 621.659 699.885C622.948 701.8 624.944 703.09 626.898 704.38C628.27 705.254 629.517 705.92 630.889 704.629C632.178 703.423 633.882 702.341 633.3 700.093C632.094 695.516 631.845 690.563 627.812 687.109C626.648 686.111 626.025 684.488 624.694 682.407L624.736 682.365Z" fill="#497522"/>
<path d="M453.16 728.559C453.576 719.82 458.232 713.287 462.681 706.711C463.138 706.045 463.845 705.338 464.718 706.129C465.466 706.836 465.009 707.668 464.635 708.418C462.681 711.872 460.851 715.367 459.313 719.071C457.983 722.317 458.066 725.605 458.44 728.851C458.897 732.762 461.267 733.47 464.219 730.807C469.083 726.395 470.996 720.319 473.365 714.493C474.405 711.872 474.862 706.503 476.982 707.294C480.267 708.542 477.398 712.87 476.816 715.575C475.361 722.442 474.238 729.6 468.501 734.843C465.258 737.798 461.808 739.546 457.733 737.964C453.451 736.3 453.659 731.972 453.202 728.559H453.16Z" fill="#497522"/>
</g>
<defs>
<clipPath id="clip0_4459_2144">
<rect width="731" height="911" fill="white"/>
</clipPath>
</defs>
</svg>
