<svg width="877" height="1251" viewBox="0 0 877 1251" fill="none" xmlns="http://www.w3.org/2000/svg">
<g clip-path="url(#clip0_4430_2139)">
<path d="M653.315 657.564C722.663 595.041 799.216 589.403 828.825 594.399C890.895 604.873 872.167 696.64 867.886 723.94C863.605 751.24 858.254 752.846 862 801.022C865.746 849.198 889.825 886.669 867.886 976.063C845.947 1065.46 772.64 1091.15 738.395 1100.25C704.149 1109.35 653.315 1125.41 622.815 1151.64C592.315 1177.87 554.859 1237.82 522.754 1248.53C490.648 1259.23 391.657 1233 351.525 1211.59C319.42 1194.46 308.718 1167.7 311.394 1130.23C314.069 1092.76 351.525 1018.89 351.525 1018.89L421.622 875.963L469.245 801.022L533.991 715.375C543.979 719.301 583.968 720.086 653.315 657.564Z" fill="#3D761A"/>
<path d="M519.68 784.867C493.403 761.734 468.554 734.364 454.607 701.806C447.419 685.004 444.753 667.011 442.42 649.019C439.993 630.217 438.136 611.367 435.28 592.661C432.376 573.335 422.951 563.911 402.434 559.722C385.25 556.2 367.779 554.105 350.69 550.392C311.608 541.92 273.907 529.687 241.679 504.792C214.403 483.753 198.218 455.907 192.315 421.874C188.126 397.55 189.888 373.56 194.41 349.57C194.886 347 194.6 344.287 194.695 341.621C202.788 342.288 206.549 336.528 210.976 330.197C213.403 336.718 217.116 341.764 222.924 345.048C227.065 347.428 231.873 347.809 236.205 349.618C236.586 356.091 235.729 362.517 235.158 368.896C232.302 400.74 251.105 443.627 294.043 456.859C319.034 464.571 344.644 470.14 369.445 478.422C378.585 481.468 387.963 483.515 397.483 485.038C404.148 486.086 407.432 484.658 408.146 479.945C409.003 474.138 409.479 468.283 409.003 462.333C407.242 439.819 404.862 417.257 406.147 394.647C406.623 386.079 405.862 376.464 409.717 368.277C426.712 376.131 443.658 377.368 459.748 365.516C461.366 364.326 462.318 365.04 462.271 366.849C462.08 373.608 465.127 379.32 467.65 385.175C466.698 386.65 466.412 389.125 466.46 390.887C466.888 409.641 465.841 428.443 467.602 447.197C469.316 465.427 472.934 483.039 482.55 498.89C488.976 509.504 496.307 519.976 508.588 524.022C524.678 529.353 539.483 525.26 552.573 514.693C568.901 501.555 579.945 483.706 589.513 465.523C598.605 471.282 608.173 473.71 618.884 471.33C611.886 492.321 600.605 511.599 586.895 528.877C576.232 542.3 562.665 552.249 548.813 561.911C545.1 564.529 541.339 567.1 537.959 570.146C530.105 577.238 527.487 585.997 530.105 596.373C531.39 601.467 531.676 606.893 533.294 611.843C544.338 644.877 567.092 665.869 600.557 674.675C625.072 681.101 648.445 675.865 671.009 665.536C713.042 646.305 756.742 632.406 802.583 625.838C817 623.772 815.891 637 809.555 647.5C801.99 660.035 792.093 677.917 780.162 703.139C773.784 716.562 767.262 731.889 759.741 744.789" fill="#604E0E"/>
<path d="M467.602 386.793C465.032 380.938 461.604 375.417 461.795 368.658C461.842 366.897 460.89 366.135 459.272 367.325C443.182 379.177 426.521 377.606 409.479 369.705C395.675 359.281 385.25 346.572 382.869 328.198C371.492 340.717 362.971 341.859 350.928 333.387C341.503 349.761 328.697 362.232 308.895 361.946C287.711 361.661 274.811 349.19 270.003 328.674C268.147 329.15 267.337 330.34 266.814 331.483C260.959 344.906 249.82 349.57 236.205 350.38C231.873 348.571 227.065 348.19 222.924 345.81C217.164 342.526 213.403 337.48 210.976 330.959C206.549 337.29 202.788 343.049 194.696 342.383C191.363 342.383 188.555 337.766 186.222 339.336C184.128 340.717 184.175 345.191 182.985 348.142C175.512 365.992 155.28 377.273 136.287 374.56C130.051 373.656 125.386 370.371 121.197 366.087C119.007 363.85 117.389 363.945 116.484 367.135C109.867 390.553 77.0215 404.262 52.3632 396.884C26.1341 388.983 12.1389 370.229 5.37926 345.001C-2.85602 314.299 -0.66629 283.455 6.52173 252.991C21.7546 188.494 49.5071 130.089 93.9681 80.3953C127.766 42.649 168.514 15.8505 218.64 5.04539C258.007 -3.47492 296.946 -1.57094 334.505 13.4705C379.728 31.5583 420.19 56.786 450.941 95.6272C454.94 100.72 458.986 105.813 461.224 111.906C462.699 115.905 464.508 115.809 467.793 113.667C483.502 103.338 499.306 93.0092 516.919 86.2501C564.426 67.9719 611.41 69.6379 657.157 91.724C715.232 119.76 753.172 165.313 772.355 226.811C779.258 248.897 787.779 270.555 791.159 293.593C796.3 328.341 799.441 363.089 792.063 397.931C789.778 408.689 787.588 419.542 783.59 429.823C780.4 438.058 776.211 445.769 769.404 451.576C761.359 458.478 752.743 463.381 741.937 456.526C740.224 471.377 732.512 480.754 718.469 484.42C704.855 487.99 694.144 483.658 686.432 470.854C680.434 482.754 670.105 484.562 658.918 484.229C647.16 483.848 638.163 478.708 632.641 468.093C631.546 465.999 630.737 465.38 628.5 467.046C625.453 469.235 621.978 470.806 618.646 472.663C607.935 474.995 598.224 472.52 589.132 466.808C579.612 459.525 573.328 450.338 573.185 437.249C566.664 442.484 559.999 445.626 552.526 446.388C532.104 448.577 515.348 430.442 518.157 409.022C518.585 405.69 518.395 404.881 514.92 405.976C502.59 409.736 491.832 405.5 481.55 399.121C476.171 395.789 472.315 390.839 467.602 386.841V386.793Z" fill="#5F962B"/>
<path d="M467.602 386.793C465.032 380.938 461.604 375.417 461.795 368.658C461.842 366.897 460.89 366.135 459.272 367.325C443.182 379.177 426.521 377.606 409.479 369.705C395.675 359.281 385.25 346.572 382.869 328.198C371.492 340.717 362.971 341.859 350.928 333.387C341.503 349.761 328.697 362.232 308.895 361.946C287.711 361.661 274.811 349.19 270.003 328.674C268.147 329.15 267.337 330.34 266.814 331.483C260.959 344.906 249.82 349.57 236.205 350.38C231.873 348.571 227.065 348.19 222.924 345.81C217.164 342.526 213.403 337.48 210.976 330.959C206.549 337.29 202.788 343.049 194.696 342.383C191.363 342.383 188.555 337.766 186.222 339.336C184.128 340.717 184.175 345.191 182.985 348.142C175.512 365.992 155.28 377.273 136.287 374.56C130.051 373.656 125.386 370.371 121.197 366.087C119.007 363.85 117.389 363.945 116.484 367.135C109.867 390.553 77.0215 404.262 52.3632 396.884C26.1341 388.983 12.1389 370.229 5.37926 345.001C-2.85602 314.299 -0.66629 283.455 6.52173 252.991C21.7546 188.494 49.5071 130.089 93.9681 80.3953C127.766 42.649 168.514 15.8505 218.64 5.04539C258.007 -3.47492 296.946 -1.57094 334.505 13.4705C379.728 31.5583 420.19 56.786 450.941 95.6272C454.94 100.72 458.986 105.813 461.224 111.906C462.699 115.905 464.508 115.809 467.793 113.667C483.502 103.338 499.306 93.0092 516.919 86.2501C564.426 67.9719 611.41 69.6379 657.157 91.724C715.232 119.76 753.172 165.313 772.355 226.811C779.258 248.897 787.779 270.555 791.159 293.593C796.3 328.341 799.441 363.089 792.063 397.931C789.778 408.689 787.588 419.542 783.59 429.823C780.4 438.058 776.211 445.769 769.404 451.576C761.359 458.478 752.743 463.381 741.937 456.526C740.224 471.377 732.512 480.754 718.469 484.42C704.855 487.99 694.144 483.658 686.432 470.854C680.434 482.754 670.105 484.562 658.918 484.229C647.16 483.848 638.163 478.708 632.641 468.093C631.546 465.999 630.737 465.38 628.5 467.046C625.453 469.235 621.978 470.806 618.646 472.663C607.935 474.995 598.224 472.52 589.132 466.808C579.612 459.525 573.328 450.338 573.185 437.249C566.664 442.484 559.999 445.626 552.526 446.388C532.104 448.577 515.348 430.442 518.157 409.022C518.585 405.69 518.395 404.881 514.92 405.976C502.59 409.736 491.832 405.5 481.55 399.121C476.171 395.789 472.315 390.839 467.602 386.841V386.793ZM774.593 268.128C774.355 266.462 774.26 264.748 773.879 263.082C770.261 248.326 765.12 234.046 759.788 219.814C752.124 199.299 743.556 179.117 730.179 161.6C712.614 138.657 691.859 118.951 666.249 104.957C652.587 97.4836 638.734 89.7724 623.311 87.0117C604.936 83.6797 586.419 81.1093 567.425 82.8229C547.289 84.6317 528.201 89.6296 510.016 98.0071C479.455 112.049 453.179 132.041 431.091 157.459C425.95 154.936 431.139 152.747 431.9 151.747C438.945 142.798 446.467 134.135 453.845 125.424C456.797 123.996 459.319 122.092 461.128 119.427C459.129 117.333 456.987 115.429 455.273 113.239C437.137 89.6296 416.953 68.3527 391.581 52.0261C366.78 36.0802 340.789 22.8952 312.417 15.2317C289.854 9.13894 266.623 7.47296 243.06 9.85294C218.973 12.2805 196.076 18.3732 174.417 28.8927C141.952 44.6957 115.008 67.6387 92.1116 95.294C62.6454 130.898 41.0814 171.025 25.9913 214.626C18.3748 236.664 12.3769 259.179 10.0919 282.455C8.75906 295.831 8.23543 309.349 10.0919 322.724C10.806 327.722 10.7108 333.006 13.2813 337.623C13.6145 343.43 15.8043 348.714 18.0892 353.854C26.8005 373.513 43.1283 387.84 66.0728 387.936C85.1139 388.031 98.6331 378.273 110.01 364.326C113.818 359.661 117.198 354.711 118.103 348.38C118.436 345.953 118.531 342.621 121.673 341.336C122.577 342.145 122.244 342.811 122.149 343.573C121.149 351.57 129.004 363.993 136.001 364.802C145.046 365.849 153.9 364.755 161.707 359.566C173.37 351.855 179.129 340.479 180.986 326.913C181.176 325.628 180.891 323.819 182.462 323.581C184.271 323.295 184.033 325.152 184.509 326.342C186.222 330.864 189.459 334.386 194.172 335.005C198.885 335.624 201.503 331.863 203.55 328.008C205.692 323.962 207.167 319.63 208.31 315.251C208.834 313.252 209.119 311.205 211.023 309.777C212.832 311.11 213.118 312.728 212.451 314.728C206.977 331.102 229.017 344.096 241.632 341.621C249.629 340.05 255.484 335.909 259.721 329.103C264.576 321.344 269.48 313.68 274.573 305.636C276.43 308.349 275.763 310.682 275.668 312.871C275.382 322.581 278.334 331.34 283.951 338.956C290.092 347.286 298.232 353.045 309.133 353.569C327.745 354.521 346.215 335.719 348.833 317.774C349.5 313.347 350.452 308.778 353.832 303.827C354.546 309.206 354.974 313.252 355.641 317.25C356.307 321.534 356.735 326.437 361.448 328.198C370.017 331.435 381.299 321.867 379.49 312.966C378.585 308.444 378.585 303.97 378.395 299.401C378.014 289.309 379.156 279.361 380.822 269.46C382.822 257.799 384.345 245.994 388.725 234.856C390.771 236.76 389.819 239.044 389.486 241.186C387.344 255.704 386.059 270.27 385.44 284.93C385.44 291.023 385.392 297.116 385.297 303.161C385.107 316.87 387.582 330.102 394.913 341.812C410.336 366.421 428.473 372.799 455.416 362.898C457.891 361.994 460.462 360.947 461.557 358.186C462.033 356.901 461.414 354.616 463.794 355.044C465.746 355.377 466.031 357.424 466.269 359.138C469.126 379.796 481.931 391.553 500.781 398.027C505.97 399.788 511.207 399.693 516.49 398.645C520.965 397.741 520.822 393.409 522.25 390.268C522.631 389.411 523.107 388.364 524.202 388.65C525.297 388.888 525.487 389.887 525.249 390.934C523.821 396.932 524.678 403.025 524.63 409.07C524.63 415.21 526.201 421.16 529.438 426.348C535.627 436.392 545.671 441.913 563.189 436.487C569.568 434.535 575.089 432.346 574.804 424.254C574.804 423.064 575.185 421.636 576.518 421.731C578.184 421.874 578.279 423.54 578.184 424.873C577.85 429.109 578.707 433.155 579.421 437.249C581.754 450.767 589.37 460.049 602.366 464.38C609.697 466.808 616.885 465.761 623.787 462.048C629.214 459.144 629.928 454.337 629.88 449.053C629.88 448.72 630.071 448.292 630.261 448.006C631.07 446.673 630.071 443.865 632.498 444.103C634.831 444.293 634.117 446.768 634.069 448.339C633.927 453.528 634.403 458.43 637.068 463.143C645.018 477.232 661.06 478.184 673.008 473.662C679.054 471.377 684.481 467.522 683.291 459.287C683.005 457.336 681.863 453.766 684.671 453.385C687.718 452.909 686.908 456.812 687.48 458.668C690.193 467.665 700.666 476.328 709.329 475.614C725.229 474.376 733.559 461.429 735.511 447.197C735.701 445.721 733.464 443.865 736.082 442.865C738.557 441.913 739.272 444.246 740.462 445.578C747.126 452.909 753.552 453.908 760.217 448.244C765.12 444.055 769.499 439.343 772.355 433.345C782.114 412.925 784.542 390.887 785.827 368.801C787.303 343.763 784.351 318.869 781.162 294.117C780.02 285.263 778.734 276.172 774.593 267.937V268.128Z" fill="#497522"/>
<path d="M517.585 784.154C523.964 776.919 531.295 770.683 538.197 764.019C543.386 759.021 549.907 755.642 554.334 749.882C555.191 749.549 556.191 749.358 556.905 748.835C574.042 735.555 592.56 724.75 612.696 716.515C640.496 705.186 669.01 702.616 698.285 707.947C713.566 710.708 727.418 717.276 740.319 725.892C747.173 731.985 754.076 738.125 760.931 744.218C771.308 757.593 779.924 771.778 784.399 788.485C795.252 829.088 770.356 875.402 743.27 892.966C738.272 896.203 732.893 898.678 726.799 898.345C723.42 898.154 722.134 899.582 721.325 902.629C715.184 925.905 698.095 938.138 676.912 945.849C670.295 948.277 663.44 945.135 656.633 945.087C655.014 945.087 653.872 945.659 653.11 947.277C646.97 960.034 635.688 963.889 622.645 964.651C616.171 964.984 610.125 963.699 604.889 959.843C602.413 958.034 601.128 959.082 600.033 961.271C599.272 962.794 598.605 964.365 597.939 965.936C589.275 987.546 562.427 998.256 541.387 988.355C535.912 985.785 531.39 982.12 528.534 976.694C527.82 975.313 527.534 972.886 525.154 974.932C515.586 983.215 504.685 985.833 492.832 981.215C478.551 975.646 468.316 965.555 462.842 951.085C456.844 935.33 457.32 919.051 460.129 902.819C467.888 858.218 488.024 819.568 517.157 785.248C517.395 784.963 517.442 784.582 517.585 784.249V784.154Z" fill="#5F962B"/>
<path d="M517.585 784.154C523.964 776.919 531.295 770.683 538.197 764.019C543.386 759.021 549.907 755.642 554.334 749.882C555.191 749.549 556.191 749.358 556.905 748.835C574.042 735.555 592.56 724.75 612.696 716.515C640.496 705.186 669.01 702.616 698.285 707.947C713.566 710.708 727.418 717.276 740.319 725.892C747.173 731.985 754.076 738.125 760.931 744.218C771.308 757.593 779.924 771.778 784.399 788.485C795.252 829.088 770.356 875.402 743.27 892.966C738.272 896.203 732.893 898.678 726.799 898.345C723.42 898.154 722.134 899.582 721.325 902.629C715.184 925.905 698.095 938.138 676.912 945.849C670.295 948.277 663.44 945.135 656.633 945.087C655.014 945.087 653.872 945.659 653.11 947.277C646.97 960.034 635.688 963.889 622.645 964.651C616.171 964.984 610.125 963.699 604.889 959.843C602.413 958.034 601.128 959.082 600.033 961.271C599.272 962.794 598.605 964.365 597.939 965.936C589.275 987.546 562.427 998.256 541.387 988.355C535.912 985.785 531.39 982.12 528.534 976.694C527.82 975.313 527.534 972.886 525.154 974.932C515.586 983.215 504.685 985.833 492.832 981.215C478.551 975.646 468.316 965.555 462.842 951.085C456.844 935.33 457.32 919.051 460.129 902.819C467.888 858.218 488.024 819.568 517.157 785.248C517.395 784.963 517.442 784.582 517.585 784.249V784.154ZM574.756 744.027C572.566 743.98 570.71 744.884 568.949 746.074C559.19 752.928 549.812 760.306 540.958 768.303C518.585 788.39 500.781 812.095 487.119 838.798C482.692 847.509 477.646 856.124 476.504 866.168C473.886 866.453 474.029 868.881 473.505 870.499C467.174 889.063 463.08 908.007 464.032 927.856C465.032 948.419 473.553 964.127 492.498 973.552C499.21 976.884 506.113 976.789 512.92 975.17C519.68 973.6 526.487 971.458 529.057 962.604C531.39 967.078 531.818 971.124 534.722 974.123C544.528 984.309 559.38 986.737 573.566 980.406C587.323 974.266 593.559 962.509 597.463 948.943C597.986 947.182 597.843 945.183 599.986 944.326C602.699 952.751 608.602 956.987 618.17 957.511C635.497 958.415 644.589 951.751 650.111 934.044C650.397 933.092 650.683 932.045 651.777 932.093C652.301 932.093 653.015 932.902 653.301 933.521C655.824 938.947 660.822 939.756 665.915 940.47C684.623 942.945 708.187 920.764 714.089 906.675C716.565 900.772 715.66 894.537 716.66 887.968C722.23 894.537 724.039 894.965 731.75 891.538C735.035 890.062 738.319 888.444 741.223 886.35C755.028 876.544 764.358 863.216 771.546 848.08C787.493 814.427 781.447 777.49 757.598 749.787C729.227 716.848 691.526 708.613 650.349 712.516C627.452 714.706 606.364 723.75 586.419 734.983C582.182 737.363 576.708 738.649 574.613 743.98L574.756 744.027Z" fill="#497522"/>
<path d="M621.835 963.698C634.831 962.937 646.16 959.081 652.301 946.324C653.063 944.706 654.205 944.135 655.824 944.135C662.107 950.227 668.772 955.701 676.293 960.271C679.006 961.889 680.054 961.509 681.053 958.605C681.91 956.082 682.339 953.131 686.099 951.084C683.671 964.84 680.006 977.074 672.485 987.879C667.344 995.257 661.346 1001.83 654.777 1007.92C645.256 1016.72 636.83 1026.43 629.642 1037.24C628.738 1038.62 627.405 1039.76 626.072 1041.19C624.549 1038.67 626.167 1037.05 627.167 1035.53C630.785 1029.77 634.545 1024.15 638.211 1018.39C639.115 1016.96 640.829 1015.96 639.401 1013.49C631.308 999.112 627.119 983.309 623.026 967.458C622.692 966.173 622.264 964.936 621.835 963.698Z" fill="#604E0E"/>
<path d="M740.319 725.845C727.418 717.23 713.613 710.708 698.285 707.9C669.01 702.569 640.496 705.139 612.695 716.468C592.559 724.703 574.042 735.508 556.905 748.788C556.191 749.359 555.191 749.502 554.334 749.835C536.912 741.362 520.298 731.795 506.018 718.277C489.785 702.902 478.741 684.434 470.982 663.728C463.127 642.784 456.035 621.555 445.895 601.515C443.087 595.946 440.183 590.52 438.374 584.427C433.566 568.338 421.142 560.865 405.861 556.724C391.39 552.821 376.49 551.726 361.781 549.203C335.695 544.729 310.56 537.256 286.283 526.927C266.242 518.407 247.677 507.411 232.111 491.941C213.118 473.044 201.836 450.197 196.933 423.874C195.219 414.735 194.743 405.501 193.838 396.314C193.172 389.602 194.314 382.701 194.886 375.941C195.171 372.8 196.837 371.086 200.36 372.371C204.263 373.799 208.31 374.847 212.451 375.418C217.402 376.132 217.259 380.559 217.402 383.795C218.116 403.406 223.971 421.399 234.158 438.011C243.964 454.004 257.579 465.666 275.43 472.045C302.754 481.755 330.554 489.418 359.02 495.321C383.583 500.414 406.48 510.791 429.091 521.501C429.758 521.786 430.472 521.977 430.996 522.167C432.09 521.405 431.805 520.596 431.281 520.073C421.808 511.171 418.809 498.51 412.573 487.753C410.336 483.849 412.621 479.851 413.145 476.138C414.43 466.809 412.621 457.67 412.145 448.483C411.431 435.06 410.098 421.637 410.526 408.166C410.574 406.595 410.669 404.882 412.954 405.263C426.378 407.357 439.802 405.263 453.226 405.025C464.508 404.834 463.032 403.501 462.937 414.545C462.794 436.345 462.842 458.146 468.745 479.375C473.648 496.939 481.931 512.599 496.259 524.261C506.636 532.734 518.728 532.877 531.342 530.068C548.86 526.213 561.142 514.979 572.423 502.175C573.566 500.89 574.566 499.51 575.756 498.32C577.089 497.034 578.183 497.986 579.183 498.938C580.897 500.604 580.706 502.223 579.088 503.889C566.283 517.312 553.62 531.116 536.531 539.255C525.44 544.539 516.823 552.059 514.776 564.483C512.825 576.192 513.491 588.473 519.156 598.945C527.582 614.462 533.484 631.455 545.29 645.116C561.856 664.251 581.611 677.294 607.126 681.34C632.117 685.29 654.729 678.626 676.912 668.392C711.138 652.589 747.078 642.165 783.923 634.502C786.922 633.883 791.158 631.265 792.872 634.121C794.348 636.501 790.444 639.595 788.683 642.118C773.022 664.823 759.978 689.003 747.031 713.231C744.793 717.372 742.508 721.514 740.223 725.607L740.319 725.845Z" fill="#756118"/>
<path d="M13.3766 337.719C10.806 333.054 10.9489 327.818 10.1872 322.82C8.28309 309.445 8.80672 295.926 10.1872 282.551C12.4721 259.275 18.4701 236.76 26.0865 214.722C41.1766 171.121 62.7407 130.947 92.2068 95.3898C115.104 67.7345 142.047 44.7915 174.512 28.9885C196.171 18.469 219.068 12.4239 243.155 9.9487C266.719 7.56872 289.949 9.23471 312.513 15.3274C340.836 22.991 366.875 36.176 391.676 52.1218C417.048 68.4485 437.232 89.7254 455.369 113.335C457.082 115.524 459.177 117.428 461.224 119.523C459.415 122.188 456.892 124.092 453.94 125.52C453.512 118.095 450.608 115.286 443.373 115.191C435.328 115.096 428.14 118.238 421.142 121.474C401.768 130.423 386.059 144.132 371.254 159.363C355.784 175.214 346.168 193.873 340.313 214.864C337.171 226.193 333.981 237.522 328.317 247.946C326.508 251.278 324.366 254.229 320.986 256.133C319.653 253.753 319.748 250.992 317.892 249.184C315.75 247.042 313.131 245.994 310.085 246.708C305.325 247.851 304.182 251.944 303.563 255.848C302.278 263.797 298.089 269.318 290.472 271.365C282.428 273.507 277.429 269.128 273.431 262.369C269.384 255.514 262.768 255.99 258.674 262.845C258.198 263.654 257.912 264.606 257.293 265.32C254.913 268.319 252.438 271.936 248.249 271.317C244.25 270.746 242.203 267.462 241.346 263.321C240.632 260.036 238.538 257.656 234.492 257.799C230.588 257.99 229.398 260.56 228.589 263.654C228.256 264.939 228.018 266.272 228.065 267.557C228.256 272.841 225.828 277.125 222.543 280.932C217.545 286.692 213.118 286.644 207.501 281.361C204.835 278.838 202.598 276.077 201.17 272.698C199.884 269.604 197.79 267.652 194.172 268.128C190.411 268.604 188.698 270.889 187.936 274.411C185.889 284.407 180.938 292.594 173.37 299.496C164.325 307.731 152.282 306.113 146.569 295.45C145.284 293.118 144.998 290.452 144.475 287.834C143.618 283.598 141.047 280.885 136.382 281.884C132.098 282.836 130.432 286.359 131.194 290.167C133.383 300.781 129.337 309.587 123.672 317.775C116.437 328.294 104.393 330.531 95.0154 323.677C89.4935 319.631 88.2558 314.109 88.6842 307.636C88.9698 303.399 87.6846 299.591 82.5911 298.878C77.2119 298.116 74.451 301.067 73.3085 305.922C72.9277 307.541 72.4041 309.492 72.8801 310.968C74.7366 316.251 72.3089 320.25 69.2623 323.915C66.1205 327.723 62.9311 331.626 59.0753 334.625C50.0307 341.765 40.177 346.334 28.0383 343.526C22.7543 342.336 18.2797 339.575 13.4242 337.623L13.3766 337.719Z" fill="#7BC437"/>
<path d="M431.139 157.507C453.226 132.089 479.503 112.097 510.064 98.0549C528.248 89.6774 547.289 84.6794 567.473 82.8707C586.467 81.1571 604.984 83.7275 623.359 87.0594C638.734 89.8202 652.587 97.5313 666.297 105.004C691.907 118.999 712.662 138.657 730.227 161.648C743.603 179.117 752.124 199.347 759.836 219.862C765.167 234.047 770.309 248.374 773.926 263.13C774.307 264.748 774.402 266.462 774.64 268.175C772.546 273.507 773.355 279.314 771.927 284.74C767.072 302.971 760.122 320.392 749.506 336.147C741.176 348.523 738.415 349.047 725.943 341.098C718.041 336.052 711.138 337.623 706.235 345.763C704.855 348.047 703.855 350.522 702.617 352.855C699.476 358.757 695.715 364.184 690.717 368.705C685.147 373.703 680.625 373.227 676.722 366.754C673.342 361.185 671.2 355.092 670.771 348.523C670.438 343.716 668.819 339.479 663.631 339.099C657.918 338.67 656.538 343.621 656.109 348C655.681 352.236 653.967 355.473 651.587 358.805C645.304 367.611 636.545 372.609 626.405 375.179C611.315 378.987 601.937 373.751 599.034 360.376C598.51 357.996 598.177 355.52 597.701 353.14C596.939 349.332 595.892 345.667 591.846 344.049C587.466 342.24 584.134 344.573 581.04 347.191C579.183 348.809 577.565 350.76 575.708 352.331C568.616 358.376 562.522 357.186 558.191 349.047C557.381 347.524 556.667 346.001 555.906 344.43C550.86 334.196 543.814 333.577 537.007 342.621C534.484 345.953 531.628 349.094 528.106 351.379C524.059 353.95 521.536 352.95 519.965 348.38C516.3 337.671 517.395 326.58 518.299 315.68C518.68 310.777 518.918 306.731 513.872 304.875C508.969 303.066 504.495 306.16 503.066 312.157C502.067 316.441 499.782 319.678 496.926 322.82C486.072 334.672 472.696 341.431 456.844 343.383C447.895 344.477 434.756 340.241 430.329 329.769C422.808 311.919 421.285 293.546 424.617 274.697C425.807 267.842 423.237 261.845 417.667 260.512C412.574 259.274 407.766 263.082 406.052 269.699C402.91 281.979 398.055 285.644 385.535 285.168C386.154 270.508 387.439 255.942 389.581 241.424C389.915 239.283 390.819 236.998 388.82 235.094C388.534 232.381 389.248 229.858 390.01 227.335C395.627 208.533 407.099 193.016 417.762 176.975C422.094 170.406 428.378 165.17 431.139 157.554V157.507Z" fill="#7BC437"/>
<path d="M574.804 744.027C583.706 745.598 592.703 746.741 601.461 748.835C615.552 752.214 628.214 758.164 637.211 770.35C649.064 786.486 647.303 806.716 637.782 822.186C632.689 830.468 626.453 839.131 617.028 840.511C605.127 842.273 601.223 849.175 597.796 858.742C595.273 865.739 590.37 871.546 584.61 876.354C581.802 878.686 578.565 880.067 574.709 880.019C567.283 879.924 566.521 879.162 567.854 871.88C568.758 866.882 566.331 862.026 562.237 860.694C557.429 859.171 551.098 862.502 549.717 868.643C547.29 879.638 541.054 887.921 532.913 895.013C521.394 905.056 508.065 909.197 492.88 906.008C484.025 904.104 477.075 893.347 476.695 881.59C476.552 876.449 476.599 871.308 476.552 866.215C477.694 856.172 482.692 847.556 487.167 838.845C500.829 812.095 518.633 788.438 541.006 768.351C549.86 760.402 559.238 753.024 568.996 746.122C570.71 744.884 572.567 743.98 574.804 744.075V744.027Z" fill="#7BC437"/>
<path d="M385.345 541.301C359.829 538.921 335.076 533.447 311.322 523.927C311.513 523.213 311.655 522.499 311.846 521.785C336.457 527.64 361.067 533.495 385.63 539.349C385.535 540.016 385.392 540.635 385.297 541.301H385.345Z" fill="#604E0E"/>
<path d="M514.777 642.498C520.822 649.4 524.678 655.874 529.295 661.728C536.912 671.343 546.29 678.293 557 683.814C558.19 684.433 559.38 685.004 560.523 685.623C561.665 686.242 563.427 686.67 562.855 688.289C562.189 690.145 560.666 688.86 559.476 688.574C551.954 686.813 545.242 683.1 539.435 678.245C528.867 669.392 520.489 658.682 514.919 645.973C514.729 645.544 514.824 644.926 514.729 642.546L514.777 642.498Z" fill="#604E0E"/>
<path d="M748.649 661.3C731.56 663.346 714.756 666.916 697.905 670.486C713.852 662.394 729.989 655.35 748.649 661.3Z" fill="#604E0E"/>
<path d="M529.391 680.006C542.91 692.858 558.666 702.187 575.47 709.994C560.523 708.708 535.008 694.143 529.391 680.006Z" fill="#604E0E"/>
<path d="M444.372 469.76C449.323 484.849 455.035 499.605 459.319 514.836C449.989 501.223 444.943 486.182 444.372 469.76Z" fill="#604E0E"/>
<path d="M252.438 493.179C236.919 482.754 224.781 469.236 215.688 452.957C227.732 466.523 240.252 479.708 252.438 493.179Z" fill="#604E0E"/>
<path d="M748.792 672.152C742.604 675.769 735.749 676.673 728.704 676.721C727.895 676.721 727.085 676.293 727.133 675.483C727.228 673.913 728.609 673.389 729.799 672.913C735.939 670.628 742.223 670.676 748.744 672.152H748.792Z" fill="#604E0E"/>
<path d="M449.751 512.933C444.087 505.936 440.992 497.844 439.802 488.99C444.753 496.273 447.562 504.46 449.751 512.933Z" fill="#604E0E"/>
<path d="M332.22 512.598C323.223 511.456 314.607 509.028 306.419 505.22C315.75 505.125 323.937 509.124 332.22 512.598Z" fill="#604E0E"/>
<path d="M269.622 505.031C277.143 506.84 283.712 510.743 290.091 514.884C282.332 513.552 275.715 509.886 269.622 505.031Z" fill="#604E0E"/>
<path d="M307.609 59.4512C312.513 68.4475 315.226 76.6822 316.94 85.3453C318.368 92.5804 318.034 99.5299 315.178 106.432C313.512 110.478 311.037 113.334 306.705 113.905C301.992 114.524 298.184 112.382 295.423 108.669C291.234 103.052 289.568 96.436 288.426 89.6768C287.759 85.7737 287.616 81.7753 287.331 77.8246C287.188 76.111 287.093 73.7786 289.044 73.493C291.425 73.1598 291.234 75.9682 291.425 77.301C292.71 85.8689 295.661 93.7704 300.564 100.91C301.802 102.767 302.802 105.385 305.563 104.671C308.038 104.004 308.419 101.434 308.895 99.1967C311.275 88.5821 310.18 78.1578 307.371 67.8287C306.753 65.5915 306.277 63.4495 307.562 59.4988L307.609 59.4512Z" fill="#497522"/>
<path d="M125.291 158.267C126.719 160.505 126.671 162.885 126.052 164.931C124.862 168.882 125.243 172.833 125.195 176.831C125.148 180.354 125.529 184.685 129.051 185.447C132.479 186.161 133.954 181.972 135.43 179.116C139.191 171.929 140.333 164.075 141.142 156.125C141.333 154.221 141.38 151.413 143.237 151.366C145.807 151.27 145.522 154.221 145.76 156.221C146.712 163.361 147.521 170.501 145.807 177.688C144.57 182.972 142.713 187.874 138.524 191.539C134.811 194.824 130.765 197.156 125.671 195.062C120.483 192.872 118.483 188.541 118.388 183.21C118.198 174.261 122.292 166.455 125.338 158.315L125.291 158.267Z" fill="#497522"/>
<path d="M85.5423 167.36C86.9228 172.596 84.257 177.213 83.5906 182.068C83.0194 186.305 82.7338 190.303 83.9714 194.397C85.4471 199.394 87.5892 200.061 91.4927 196.301C98.2047 189.875 100.775 181.259 103.393 172.739C104.107 170.406 104.298 167.884 104.964 165.551C105.202 164.79 106.059 163.742 106.773 163.6C107.916 163.409 108.106 164.647 108.154 165.599C108.915 179.355 108.154 192.683 97.3002 203.06C93.2064 207.01 88.4461 209.343 82.8766 206.868C77.8307 204.583 77.4022 199.728 77.1642 194.777C76.6882 184.543 80.4964 175.785 85.5899 167.312L85.5423 167.36Z" fill="#497522"/>
<path d="M230.397 191.016C230.778 197.061 228.398 202.773 228.922 208.866C229.255 212.674 229.921 216.339 231.207 219.909C232.682 223.908 234.444 224.146 236.824 220.576C241.394 213.817 243.012 206.01 244.964 198.299C245.63 195.634 245.44 190.969 248.153 191.302C251.152 191.683 249.438 196.157 249.486 198.775C249.724 207.914 249.248 216.958 244.773 225.288C242.298 229.905 238.585 232.761 233.491 232.523C227.97 232.285 225.399 228.287 224.161 223.289C221.258 211.579 224.733 201.107 230.35 190.969L230.397 191.016Z" fill="#497522"/>
<path d="M474.41 235.76C475.029 225.24 479.836 215.578 484.977 206.058C486.501 203.202 488.357 200.584 490.071 197.823C490.737 196.728 491.404 194.872 492.832 195.633C494.736 196.633 493.165 198.251 492.689 199.584C490.452 205.439 487.976 211.198 485.93 217.053C484.025 222.432 483.169 228.096 483.549 233.808C483.645 235.379 482.74 237.616 485.073 238.14C486.977 238.568 488.024 236.712 489.024 235.379C493.832 228.763 498.068 221.813 500.639 213.959C500.972 212.864 501.4 211.817 501.924 210.818C502.353 209.961 502.971 209.104 504.066 209.295C505.256 209.533 505.256 210.723 505.161 211.579C504.019 223.384 502.21 234.951 494.165 244.375C490.595 248.564 485.834 250.182 480.836 248.136C475.933 246.137 474.457 241.472 474.41 235.712V235.76Z" fill="#497522"/>
<path d="M518.585 218.481C519.156 221.718 519.109 224.954 518.395 228.286C517.205 233.57 517.633 238.806 519.109 243.994C519.489 245.279 520.156 246.66 521.536 246.945C523.06 247.278 523.869 245.803 524.535 244.756C528.248 239.044 529.296 232.475 530.343 225.954C530.867 222.812 531.152 219.576 531.628 216.434C531.771 215.244 532.247 213.959 533.485 213.911C535.056 213.864 534.818 215.387 535.008 216.434C536.674 226.62 537.15 236.759 533.961 246.755C532.771 250.468 530.724 253.609 527.344 255.704C522.536 258.702 516.633 257.036 513.777 252.086C510.635 246.612 511.397 240.757 512.254 234.998C512.635 232.189 513.539 229.476 514.348 226.763C515.205 223.907 516.252 221.099 517.205 218.29L518.633 218.481H518.585Z" fill="#497522"/>
<path d="M693.049 191.73C695.905 204.44 700.332 215.483 696.953 227.382C695.62 232.095 693.002 235.95 687.194 236.284C681.053 236.569 678.292 232.666 676.531 227.811C672.961 218.196 672.77 208.247 674.151 198.204C674.294 197.062 674.579 195.586 675.912 195.824C677.435 196.062 677.483 197.728 677.531 199.108C677.816 206.344 679.006 213.436 681.672 220.195C682.672 222.718 683.386 226.668 686.575 226.43C689.384 226.192 689.193 222.242 689.955 219.814C692.002 213.341 690.907 206.629 691.193 200.013C691.288 197.823 690.526 195.538 693.002 191.778L693.049 191.73Z" fill="#497522"/>
<path d="M719.802 366.943C723.229 372.75 723.705 378.462 724.991 383.841C727.228 393.313 728.037 402.833 722.753 411.925C718.517 419.208 711.329 419.684 706.521 412.734C703.95 409.021 703.046 404.595 702.855 400.358C702.522 393.599 701.761 386.697 703.76 380.033C704.093 378.891 703.427 376.892 705.426 377.13C706.902 377.272 707.187 378.891 707.235 380.319C707.568 387.697 708.52 394.979 710.996 401.977C711.614 403.785 711.9 406.784 714.328 406.594C716.232 406.451 716.232 403.643 716.851 401.881C719.897 393.409 718.231 384.603 718.707 375.94C718.85 373.369 718.088 370.704 719.85 366.943H719.802Z" fill="#497522"/>
<path d="M657.632 393.172C658.204 397.884 659.061 402.644 659.251 407.357C659.441 413.259 662.107 417.876 665.63 422.208C668.343 425.587 670.866 424.778 672.77 421.399C675.912 415.687 677.768 409.499 678.673 403.073C679.292 398.598 679.53 394.029 679.863 389.507C679.958 388.127 680.101 386.508 681.577 386.27C683.671 385.937 683.148 387.889 683.29 389.078C684.766 400.36 685.909 411.688 682.386 422.827C682.005 424.064 681.434 425.302 680.767 426.396C674.008 437.487 664.916 437.63 658.489 426.396C652.396 415.734 654.3 404.406 656.204 393.22C656.68 393.22 657.156 393.124 657.632 393.077V393.172Z" fill="#497522"/>
<path d="M551.573 897.868C552.192 903.295 550.288 908.388 550.859 913.671C550.955 914.623 550.764 915.575 550.859 916.527C551.383 920.05 551.383 924.429 555.62 925.333C560.428 926.38 561.284 921.525 562.712 918.574C565.473 912.862 566.045 906.579 565.711 900.248C565.616 898.44 565.14 895.774 567.568 895.488C569.996 895.203 569.424 898.106 569.615 899.439C571.186 910.292 573.28 921.335 563.998 930.188C557.571 936.329 549.574 934.044 546.813 925.524C543.529 915.385 547.48 906.627 551.621 897.916L551.573 897.868Z" fill="#497522"/>
<path d="M648.303 870.262C654.063 875.402 655.586 882.257 656.966 889.111C657.395 891.301 657.252 893.681 656.966 895.918C656.395 900.249 653.825 903.629 649.636 904.438C645.827 905.2 642.924 902.582 640.972 899.25C639.02 895.918 637.973 892.253 637.687 888.492C637.354 883.637 637.592 878.734 637.592 873.165C641.115 874.879 640.877 877.306 641.02 879.639C641.305 884.161 641.781 888.683 643.971 892.776C644.875 894.442 645.685 896.632 647.779 896.584C650.588 896.489 650.302 893.538 650.826 891.777C652.159 887.064 650.064 882.495 649.54 877.83C649.255 875.307 648.684 872.832 648.255 870.309L648.303 870.262Z" fill="#497522"/>
<path d="M679.768 819.806C683.576 820.139 683.719 822.853 684.671 824.709C686.813 828.945 688.813 833.229 692.668 836.276C694.096 837.418 695.096 839.227 697.476 838.037C699.666 836.942 700.285 835.371 700.428 833.039C700.808 826.089 699.999 819.521 695.858 813.618C694.43 811.524 693.525 809.049 692.05 806.098C698.666 808.763 705.664 820.568 706.092 828.565C706.188 830.088 706.092 831.611 706.092 833.134C705.95 838.418 703.76 842.511 698.428 843.701C693.763 844.748 689.765 842.559 687.337 838.656C683.767 832.991 681.291 826.803 679.768 819.854V819.806Z" fill="#497522"/>
<path d="M715.327 780.488C726.466 783.059 731.465 795.768 731.131 802.241C730.893 806.763 728.561 809.905 724.134 811.666C719.945 813.284 716.613 811.428 713.661 809.191C707.854 804.716 705.616 797.862 702.998 791.389C702.76 790.817 702.998 789.58 703.379 789.389C704.712 788.628 705.378 789.818 705.95 790.77C707.901 794.007 709.663 797.386 711.805 800.528C713.28 802.717 715.565 804.193 717.803 805.668C719.373 806.668 720.802 807.43 722.372 805.954C723.848 804.574 725.8 803.336 725.133 800.766C723.753 795.53 723.467 789.865 718.85 785.915C717.517 784.772 716.803 782.916 715.28 780.536L715.327 780.488Z" fill="#497522"/>
<path d="M518.871 833.323C519.347 823.327 524.678 815.854 529.772 808.334C530.295 807.572 531.105 806.763 532.104 807.667C532.961 808.476 532.437 809.428 532.009 810.285C529.772 814.236 527.677 818.234 525.916 822.471C524.393 826.183 524.488 829.944 524.916 833.657C525.44 838.131 528.153 838.94 531.533 835.894C537.102 830.848 539.292 823.899 542.006 817.235C543.196 814.236 543.719 808.096 546.147 809C549.908 810.428 546.623 815.378 545.957 818.472C544.291 826.326 543.005 834.513 536.436 840.511C532.723 843.89 528.772 845.89 524.107 844.081C519.204 842.177 519.442 837.227 518.918 833.323H518.871Z" fill="#497522"/>
</g>
<defs>
<clipPath id="clip0_4430_2139">
<rect width="877" height="1251" fill="white"/>
</clipPath>
</defs>
</svg>
