<svg width="686" height="1327" viewBox="0 0 686 1327" fill="none" xmlns="http://www.w3.org/2000/svg">
<path d="M147.528 640.008C191.128 627.208 251.695 658.341 276.528 675.508C276.528 675.508 374.5 782.5 443.5 905C512.5 1027.5 550 1110 550 1110C545.833 1116.67 536.529 1122.01 536.529 1152.51C536.529 1184.79 553.029 1220.51 529.029 1294.01C505.029 1367.51 412.529 1296.51 395.029 1266.01C377.529 1235.51 316.029 1201.51 287.029 1175.01C258.029 1148.51 202.529 1106.01 171.529 1072.51C140.529 1039.01 137.528 1025.01 137.528 971.508C137.528 918.008 98.0293 886.008 77.0293 872.508C56.0293 859.008 12.5284 826.008 2.02845 767.008C-8.47155 708.008 23.5285 686.508 58.0285 684.008C92.5285 681.508 93.0284 656.008 147.528 640.008Z" fill="#76A841"/>
<g clip-path="url(#clip0_4459_2146)">
<path d="M459.487 271.874C458.028 272.969 458.757 274.55 458.676 275.928C457.461 303.168 450.653 328.989 438.254 353.27C432.135 365.269 423.018 375.119 412.32 383.023C394.086 396.522 384.117 414.722 378.769 436.247C375.284 450.353 370.908 464.217 366.977 478.242C366.41 480.269 366.086 482.336 365.761 484.403C364.708 491.011 366.855 494.781 373.298 496.969C382.821 500.253 392.789 501.591 402.717 502.118C421.275 503.09 439.753 502.32 457.947 497.699C473.628 493.686 485.38 485.417 490.688 469.446C491.377 467.338 492.511 465.352 493.403 463.284C496.969 462.352 501.385 462.879 503.857 460.122C508.071 455.42 510.422 456.839 513.258 461.339C516.338 466.243 522.497 467.014 526.711 470.5C523.024 494.983 509.246 510.995 486.352 520.075C470.427 526.398 453.692 529.114 437.119 532.56C415.238 537.1 393.032 539.978 371.232 545.004C356.441 548.409 341.975 552.422 328.279 558.908C316.933 564.299 306.803 571.799 297.524 579.987C277.101 597.985 261.501 619.955 248.048 643.628C226.815 680.961 214.456 721.497 204.366 762.844C200.8 777.396 199.139 792.435 198.126 807.433C197.761 812.824 197.072 818.337 195.492 823.445C193.709 829.12 198.166 830.417 200.881 832.849C207.121 838.484 213.564 843.875 219.48 850.604C216.32 852.144 214.253 851.131 212.146 850.198C202.948 846.023 194.843 839.7 185.605 835.727C167.816 828.066 152.864 815.621 135.561 807.311C118.542 799.123 100.308 793.894 83.1674 786.111C68.8634 779.585 54.1543 773.667 41.7549 763.533C40.7013 762.682 38.3106 762.236 39.2425 760.614C40.2556 758.912 42.1195 760.452 43.5378 761.02C51.7636 764.344 59.9893 767.627 68.0935 771.113C70.5248 772.167 71.3758 771.356 71.6594 769.167C74.3743 748.859 83.3295 730.658 91.3526 712.174C102.415 686.758 111.492 660.491 123.445 635.44C143.665 593.039 172.962 558.665 213.767 534.87C243.428 517.562 269.483 496.199 291.122 469.446C302.792 454.974 308.019 437.706 312.8 420.276C316.65 406.331 318.716 392.063 317.622 377.632C316.083 357.081 315.313 336.529 314.867 315.937C314.624 305.438 315.637 294.98 317.055 284.562C325.564 281.076 330.832 274.347 335.168 266.564C339.261 259.268 342.583 251.606 345.825 242.607C346.879 247.755 348.783 251.363 348.945 255.457C347.851 267.983 346.838 280.549 345.622 293.074C344.083 308.721 343.515 324.409 344.326 340.096C344.609 345.528 345.663 350.919 347.892 356.067C349.674 360.161 352.633 362.512 356.847 363.323C370.502 365.958 383.226 363.728 394.41 355.297C409.524 343.866 418.52 328.26 423.585 310.302C427.961 294.696 431.811 278.968 435.903 263.281C439.186 261.254 442.427 259.146 445.223 255.66C447.654 263.767 452.071 269.239 459.527 271.915L459.487 271.874Z" fill="#756228"/>
<path d="M426.624 794.055C425.206 799.284 424.072 804.554 424.76 810.066C418.155 815.458 411.388 820.687 406.972 829.078C409.241 829.078 410.538 829.078 411.794 829.078C419.412 829.078 426.665 826.524 434.202 826.038C432.662 831.267 433.472 836.536 434.202 841.765C423.342 845.373 411.875 846.143 400.853 849.102C389.71 852.143 380.349 857.939 372.083 865.641C350.972 885.382 336.911 910.028 324.673 935.808C316.691 952.631 312.517 970.953 306.236 988.424C304.656 992.802 302.995 997.058 300.766 1001.07C299.267 1003.79 299.348 1005.77 301.171 1008.41C306.804 1016.56 311.301 1025.35 315.84 1034.15C316.407 1035.24 317.704 1036.7 316.448 1037.59C314.746 1038.77 314.057 1036.62 313.287 1035.65C307.898 1028.84 302.995 1021.62 297.241 1015.18C287.353 1004.11 275.805 994.585 266.809 982.668C260.934 974.926 256.071 966.656 251.735 957.941C245.414 945.213 240.106 931.958 231.434 920.486C230.138 918.743 226.126 916.635 228.355 914.608C230.34 912.865 232.569 916.635 234.473 918.256C238.282 921.54 241.686 925.229 244.442 929.404C245.86 931.512 246.589 931.187 247.886 929.566C254.288 921.459 261.866 914.446 267.903 905.974C273.455 898.151 280.262 891.179 286.259 883.639C294.971 872.654 303.724 861.628 313.165 851.251C323.053 840.428 333.345 830.051 344.367 820.322C353.727 812.053 363.452 804.27 373.177 796.528C391.209 782.218 399.84 762.437 407.215 741.642C409.241 735.886 410.74 730.089 411.915 724.131C420.749 725.671 429.542 725.428 438.254 723.117C437.444 728.833 436.714 734.548 435.823 740.223C434.485 748.776 431.973 757.086 431.203 765.761C430.798 770.382 432.622 773.017 437.038 774.233C444.413 776.26 451.95 776.868 459.487 776.706C471.441 776.462 483.354 775.692 493.444 768.152C503.412 760.694 509.693 750.438 514.92 739.413C516.338 736.413 516.946 732.967 519.58 730.576C520.188 731.062 520.957 731.468 521.444 732.035C526.955 738.723 533.438 742.169 542.191 738.561C541.259 744.48 540.772 750.56 538.179 756.113C533.438 761.261 530.237 767.504 525.374 772.611C516.095 782.34 505.235 789.758 493.484 796.041C488.541 793.285 485.339 788.542 480.923 785.137" fill="#756228"/>
<path d="M459.487 271.874C452.031 269.199 447.574 263.726 445.183 255.619C442.346 259.105 439.145 261.254 435.863 263.24C425.53 264.253 416.535 262.227 411.064 252.255C410.497 251.241 409.93 250.795 408.917 251.89C405.31 255.781 401.177 255.133 396.882 252.782C396.517 255.538 396.193 258.051 395.22 260.443C390.034 273.293 368.477 281.684 355.267 264.983C352.916 262.024 351.052 258.659 348.945 255.457C348.783 251.363 346.919 247.755 345.825 242.607C342.584 251.647 339.261 259.267 335.168 266.564C330.832 274.347 325.565 281.035 317.055 284.562C310.248 285.494 304.21 283.994 298.942 278.076C298.456 283.305 298.294 287.724 297.524 292.061C295.377 304.222 290.798 315.247 282.207 324.368C275.44 331.583 267.984 332.84 258.867 328.3C258.3 328.016 257.651 328.016 256.638 327.773C256.395 334.259 257.084 340.704 253.761 346.784C248.251 356.837 238.525 360.891 227.342 358.58C214.415 355.945 207.122 346.176 199.666 337.258C188.766 324.165 183.336 308.235 179.081 291.818C174.786 275.117 175.677 258.173 176.123 241.27C177.298 198.545 191.562 160.117 215.185 124.891C228.395 105.191 244.036 87.5173 261.379 71.4246C284.841 49.6568 310.086 30.2807 338.977 16.1337C357.212 7.17533 376.581 2.39211 396.963 0.689603C430.717 -2.10737 462.85 4.13515 493.97 16.4986C513.988 24.4436 531.736 36.4422 548.674 49.6163C560.79 59.0206 572.014 69.3572 582.104 80.991C603.944 106.204 620.112 134.417 626.474 167.373C632.147 196.802 627.811 224.771 609.982 249.579C602.567 259.875 592.923 267.375 579.105 266.969C575.134 266.848 571.811 265.186 568.529 263.28C566.544 262.145 565.449 261.983 564.477 264.78C560.506 276.009 551.713 280.954 540.489 282.616C528.94 284.319 519.985 279.86 512.975 271.104C511.192 268.874 510.3 268.712 508.193 270.577C500.454 277.346 490.08 276.13 484.245 267.577C482.503 265.023 482.098 264.78 480.193 267.375C476.1 272.969 467.226 275.238 459.568 271.955L459.487 271.874ZM535.383 274.914C538.746 274.955 542.109 275.32 545.473 274.347C554.509 271.712 559.169 264.78 562.167 256.714C563.95 252.052 565.125 252.376 567.962 255.66C570.839 258.943 574.648 260.321 579.146 260.565C589.6 261.173 597.461 255.903 603.499 248.606C615.615 233.973 621.125 216.381 622.625 197.694C624.083 179.574 620.923 161.9 614.804 144.875C603.256 112.852 583.725 86.2201 558.196 63.966C533.64 42.5631 506.815 25.0921 475.29 15.323C456.812 9.60748 437.93 6.93211 418.763 5.75658C409.727 5.18907 400.731 6.40515 391.776 7.54015C373.217 9.85069 355.267 14.5934 338.491 22.66C318.636 32.2264 300.523 44.6304 283.869 59.1827C264.743 75.8835 246.184 93.1517 230.867 113.541C222.033 125.297 213.281 137.052 207.122 150.55C201.287 158.982 197.964 168.629 194.236 178.074C186.861 196.802 182.931 216.462 181.918 236.446C180.742 260.362 180.986 284.197 190.184 307.1C197.194 324.571 207 339.407 223.452 349.176C235.041 356.067 247.156 349.135 249.75 336.285C251.29 328.705 250.925 321.044 250.52 313.018C253.964 317.72 258.948 319.868 263.73 322.341C266.404 323.719 268.795 323.719 271.55 322.463C280.222 318.49 284.071 310.667 287.637 302.641C292.783 291.047 292.986 278.562 294.445 266.28C294.566 265.105 293.756 263.24 295.377 262.916C297.2 262.551 297.362 264.618 298.051 265.834C298.375 266.402 298.335 267.091 298.618 267.699C303.076 277.387 312.841 282.616 321.918 272.36C326.942 266.726 330.549 260.24 333.223 253.268C336.749 244.066 339.828 234.703 343.191 225.461C343.718 224.042 344.002 221.853 345.987 221.974C348.013 222.096 348.5 223.961 348.986 225.825C350.242 230.811 351.62 235.797 353.2 240.702C355.064 246.539 356.199 252.62 359.359 258.011C365.924 269.401 381.443 270.82 388.98 260.524C392.506 255.7 392.87 250.025 392.668 244.31C392.668 243.256 392.181 241.756 393.721 241.432C394.775 241.229 395.18 242.445 395.747 243.215C397.49 245.647 399.556 247.958 402.798 247.634C406.283 247.269 406.242 243.823 407.215 241.351C407.377 240.905 407.458 240.378 407.701 239.972C408.268 239.121 407.863 237.338 409.443 237.459C410.781 237.581 410.943 238.959 411.226 240.053C412.604 245.039 415.481 249.052 419.249 252.498C425.044 257.849 433.148 257.889 438.862 252.417C441.536 249.863 444.21 247.269 446.277 244.148C446.804 243.337 447.533 241.959 448.911 242.688C450.005 243.256 449.559 244.31 449.235 245.242C446.48 253.43 456.083 264.861 463.985 266.118C473.467 267.618 481.895 261.132 483.921 250.674C485.177 250.593 485.866 251.201 485.988 252.457C486.069 262.591 494.011 269.482 501.872 266.159C505.64 264.578 507.626 261.173 509.774 257.97C510.543 256.754 509.53 254.119 511.84 254.363C513.583 254.565 513.299 256.997 513.866 258.416C517.635 268.064 526.59 274.995 535.423 274.914H535.383Z" fill="#2B7B3A"/>
<path d="M538.139 756.235C540.732 750.641 541.219 744.601 542.151 738.643C542.232 738.521 542.313 738.399 542.394 738.237C542.313 738.359 542.272 738.521 542.191 738.643C533.439 742.25 526.955 738.805 521.444 732.116C520.958 731.508 520.229 731.143 519.58 730.657C518 725.509 514.921 720.726 515.934 714.97C516.055 714.362 516.015 713.551 515.123 713.51C509.612 713.146 506.978 709.376 505.236 704.349C492.999 725.712 474.237 727.738 459.002 705.403C454.828 714.686 447.129 719.672 438.255 723.198C429.543 725.509 420.79 725.752 411.916 724.212C395.991 720.199 387.603 709.416 384.888 693.729C384.564 691.824 384.362 690.648 382.133 691.013C374.799 692.229 370.909 687.04 367.545 682.217C360.697 672.285 359.036 661.422 362.237 649.383C365.762 636.168 372.651 625.304 381.485 615.13C392.668 602.199 406.162 592.268 420.993 584.404C436.755 576.053 454.098 571.797 471.644 568.554C483.962 566.284 496.443 565.717 508.802 566.771C546.203 569.892 578.498 583.431 603.662 612.738C628.136 641.195 641.549 674.231 649.248 710.43C653.867 732.157 657.595 753.925 656.704 776.138C655.691 802 650.869 827.213 640.05 850.886C635.876 860.007 629.676 867.546 618.29 868.073C615.413 868.195 616.102 870.708 615.94 872.532C615.17 881.855 613.751 890.976 608.2 898.881C602.73 906.663 595.476 912.298 586.278 914.325C577.607 916.189 569.908 912.703 563.262 907.028C551.957 897.381 546.811 884.085 542.678 870.505C539.152 858.953 537.856 846.792 536.599 834.834C535.546 824.741 536.275 814.485 536.235 804.27C536.235 794.42 536.032 784.529 536.478 774.679C536.721 768.517 538.747 762.518 538.22 756.276L538.139 756.235ZM502.481 570.662C494.376 570.054 486.434 571.068 478.452 572.365C451.546 576.662 426.098 584.566 404.176 601.591C390.967 611.847 378.729 622.994 371.638 638.6C366.532 649.788 364.182 661.26 369.288 673.177C372.57 680.879 378.648 687.405 385.456 685.703C389.062 684.811 389.67 686.027 389.67 689.148C389.67 694.904 391.331 700.255 394.492 705.119C400.327 714.24 409.161 718.131 419.412 719.956C432.339 722.307 446.845 716.51 454.098 705.525C456.125 702.444 457.745 699.039 459.609 695.877C459.974 695.229 460.703 694.459 461.311 694.377C462.284 694.256 462.405 695.31 462.446 696.12C462.81 703.701 467.916 708.403 473.224 712.619C476.831 715.497 481.167 717.077 486.353 715.497C492.999 713.429 497.213 708.687 501.224 703.701C504.385 699.769 507.019 695.431 509.855 691.297C509.734 696.364 509.491 701.066 511.881 705.444C514.353 709.943 516.136 710.186 519.459 706.376C520.431 705.282 521.242 704.066 522.174 702.971C522.579 702.485 523.065 701.877 523.795 702.201C524.767 702.647 524.565 703.498 524.281 704.268C523.876 705.322 523.227 706.295 522.903 707.349C520.269 716.024 521.201 723.969 527.847 730.657C534.33 737.183 543.65 734.832 546 726.158C546.405 724.698 546.405 722.996 548.675 722.55C548.796 723.725 549.08 724.698 548.918 725.59C546.892 735.359 545.96 745.29 544.785 755.181C543.123 769.125 541.583 783.029 542.313 797.095C541.786 817.16 542.11 837.145 546.081 856.885C547.783 865.398 548.837 874.113 553.74 881.653C557.225 892.273 563.667 900.38 574 904.88C577.323 906.339 580.929 907.596 584.779 906.42C595.355 903.218 602.446 896.448 606.498 886.152C610.388 876.221 610.429 865.682 612.05 855.426C612.293 853.926 611.442 851.332 613.387 851.332C615.818 851.332 614.886 854.088 614.927 855.669C614.927 857.818 615.696 859.804 615.778 861.871C615.98 865.722 617.763 865.236 620.154 863.979C624.611 861.628 628.623 858.669 631.419 854.372C633.809 852.791 634.944 850.238 636.241 847.846C640.333 840.266 642.967 832.159 645.317 823.889C652.328 799.406 654.556 774.436 651.639 749.222C649.41 729.887 645.074 710.876 640.333 691.945C632.634 661.341 616.872 635.479 595.922 612.495C582.753 598.064 566.706 587.363 548.35 580.796C533.52 575.486 518.527 570.216 502.359 570.743L502.481 570.662Z" fill="#2B7B3A"/>
<path d="M526.711 470.458C522.497 466.972 516.337 466.161 513.258 461.297C510.421 456.797 508.071 455.379 503.857 460.081C501.385 462.837 496.968 462.31 493.403 463.243C479.22 462.27 467.469 457.041 460.135 444.15C459.567 443.177 459.203 441.597 457.339 443.137C448.465 450.514 439.469 448.001 431 442.65C421.761 436.813 418.398 427.45 417.831 416.991C417.182 405.601 420.505 395.102 425.408 384.968C433.472 368.227 443.643 352.864 456.731 339.771C474.479 321.975 495.834 309.896 520.471 304.423C536.031 300.978 551.874 299.924 567.84 302.153C599.446 306.531 626.879 319.381 647.99 343.662C666.671 365.105 678.422 390.197 683.122 418.451C685.229 431.057 686.567 443.664 685.837 456.392C685.108 468.958 683.852 481.443 679.313 493.442C672.992 510.021 660.228 518.777 642.925 516.831C637.05 516.182 631.579 513.385 627.163 509.21C620.436 502.806 614.317 495.955 612.818 486.226C612.697 485.537 612.048 484.97 611.603 484.24C609.698 485.497 609.131 487.686 608.442 489.469C602.242 505.197 580.725 505.319 570.19 494.901C565.49 490.239 560.668 485.74 559.776 478.687C559.573 477.106 558.682 476.619 557.466 477.309C549.322 481.97 544.864 476.295 540.326 471.188C539.272 470.012 538.3 468.796 536.76 469.566C533.478 471.228 530.034 469.809 526.711 470.539V470.458ZM537.408 306.207C535.788 306.207 534.126 305.964 532.586 306.207C513.866 309.288 496.806 316.503 480.841 326.799C464.268 337.46 451.058 351.323 440.077 367.497C432.54 378.604 425.773 390.116 422.936 403.574C420.789 413.789 421.559 423.518 427.475 432.314C435.741 444.596 450.45 445.204 459.892 433.814C460.418 433.165 460.986 432.598 461.918 432.922C461.067 443.826 468.563 449.096 476.505 453.392C490.363 460.851 503.087 460.77 512.164 444.758C512.447 448.001 510.948 450.879 512.366 452.947C516.662 459.351 522.578 463.486 530.358 464.986C535.342 465.959 538.178 462.999 541.217 460.081C541.582 459.757 541.866 459.351 542.271 459.067C542.96 458.5 543.649 457.405 544.662 458.419C545.31 459.067 544.783 459.919 544.54 460.689C544.013 462.513 541.582 463.648 542.474 465.877C543.932 469.526 546.607 471.917 550.335 473.255C553.698 474.512 556.17 473.255 558.601 470.985C559.898 469.769 560.708 467.62 563.788 467.985C562.126 471.512 562.288 474.957 563.747 478.322C567.516 486.916 573.513 493.28 582.63 495.833C589.64 497.82 596.326 497.212 601.634 491.091C607.469 484.402 609.293 476.336 610.144 467.904C610.387 465.432 609.658 462.554 613.061 461.581C612.372 465.351 615.209 468.35 615.168 472.201C615.006 485.456 619.666 496.806 630.121 505.4C639.765 513.304 654.19 515.088 664.199 507.508C669.548 503.454 673.073 498.063 675.221 491.901C681.866 473.012 682.798 453.595 681.177 433.733C679.273 410.627 672.587 389.265 661.16 369.2C646.815 344.027 627.284 324.772 600.095 313.585C579.793 305.234 559.128 301.505 537.368 306.207H537.408Z" fill="#2B7B3A"/>
<path d="M424.76 810.068C424.071 804.596 425.206 799.326 426.624 794.056C434.444 780.517 444.372 778.896 456.245 783.274C459.648 784.53 462.525 786.962 465.686 782.99C466.213 782.341 467.793 782.544 468.887 782.382C473.304 781.652 476.91 784.247 480.922 785.26C485.339 788.624 488.54 793.408 493.484 796.164C493.402 798.799 494.416 800.947 497.009 801.717C509.651 805.447 515.446 815.094 518.809 826.809C520.552 832.971 520.227 839.051 517.918 845.131C516.175 849.631 513.177 852.347 508.476 852.955C506.369 853.198 504.992 853.806 503.897 855.792C503.168 857.13 501.79 858.751 500.453 858.995C493.362 860.292 487.689 865.278 480.922 866.818C466.172 870.101 453.246 865.805 442.062 855.671C437.808 851.82 435.66 847.077 434.201 841.807C433.472 836.578 432.661 831.309 434.201 826.079C434.444 825.228 434.363 824.499 433.593 823.931C428.731 820.526 426.502 815.459 424.76 810.108V810.068ZM479.99 790.165C476.1 786.435 469.9 784.774 465.929 787.165C463.174 788.827 461.067 788.868 458.514 787.246C457.298 786.476 455.839 786.071 454.462 785.706C440.928 781.977 432.175 786.719 429.014 800.137C427.029 808.528 430.392 815.581 436.146 821.661C437.24 822.796 439.428 823.485 438.537 825.877C435.944 832.727 436.795 839.497 439.874 845.82C444.818 855.954 453.975 860.657 464.349 862.927C473.264 864.913 482.3 865.602 489.553 858.022C490.566 856.968 491.984 857.089 493.24 857.292C497.495 857.86 500.332 855.954 502.277 852.347C503.128 850.806 503.816 849.347 506.167 849.428C510.705 849.59 513.096 846.834 514.514 842.78C519.214 829.241 511.394 811.446 497.738 804.92C495.226 803.744 493.443 802.244 491.741 799.893C488.743 795.799 484.974 792.11 479.99 790.165Z" fill="#2B7B3A"/>
<path d="M410.863 506.333C430.475 506.657 448.223 505.117 465.445 499.645C466.377 499.361 467.43 499.158 468.159 498.591C474.805 493.362 481.086 494.294 487.731 498.874C491.257 501.307 495.511 502.806 499.523 504.468C503.129 505.968 502.197 507.387 499.725 509.008C494.296 512.576 488.501 515.494 482.504 517.845C464.837 524.736 446.116 527.493 427.517 530.249C422.006 531.06 415.968 529.925 410.174 529.52C393.439 528.303 376.663 527.25 359.887 527.817C336.871 528.587 314.301 531.992 293.635 543.18C279.372 550.922 266.567 560.529 254.654 571.636C235.325 589.715 218.631 609.902 204.448 632.156C185.687 661.585 173.247 693.689 165.143 727.577C163.076 736.171 161.131 744.927 156.471 752.628C152.906 758.506 150.677 759.357 143.95 757.614C129.727 753.926 116.072 748.413 101.727 745.21C97.7968 744.319 93.8663 743.711 89.8142 743.346C86.8967 743.103 85.2758 742.251 86.9777 738.441C102.7 703.013 114.694 666.003 131.429 631.021C138.764 615.699 148.246 601.633 159.267 588.621C162.793 584.446 166.318 580.23 169.924 576.095C179.893 564.664 192.535 556.435 204.651 547.598C219.522 536.735 236.379 528.952 250.602 517.156C264.703 505.482 277.224 492.186 289.786 478.89C309.844 457.568 316.003 430.572 320.784 403.048C323.337 388.333 322 373.578 320.987 358.783C320.42 350.27 319.163 341.758 319.731 333.164C319.852 331.34 319.731 329.029 322 329.07C324.836 329.07 323.499 331.786 323.54 333.205C323.621 342.69 325.161 351.567 332.616 358.377C335.534 361.053 338.857 362.958 342.828 363.485C346.718 364.012 350.081 366.363 353.768 367.093C374.232 371.308 391.777 366.282 406.446 348.73C412.402 341.596 417.792 334.259 421.682 325.827C422.614 323.841 424.113 323.233 426.018 323.881C427.436 324.368 428.814 324.692 430.272 324.408C432.096 324.044 434.405 322.503 435.621 324.408C436.553 325.949 434.851 327.976 434.203 329.8C428.854 345.446 419.615 358.661 407.783 369.849C399.274 377.916 389.67 384.847 380.553 392.265C368.802 401.832 361.022 413.993 356.645 428.423C352.674 441.557 350.527 455.096 348.096 468.554C345.624 482.214 350.446 491.335 362.075 496.767C366.857 498.996 371.233 502.279 376.501 503.333C388.373 505.684 400.368 507.144 410.903 506.374L410.863 506.333Z" fill="#927D39"/>
<path d="M480.923 785.259C476.912 784.246 473.306 781.692 468.889 782.381C467.795 782.543 466.214 782.381 465.688 782.989C462.527 786.962 459.65 784.53 456.246 783.273C444.373 778.936 434.446 780.517 426.625 794.056C414.428 795.839 404.906 802.609 396.032 810.513C385.861 819.634 378.648 831.267 369.896 841.604C361.062 852.062 352.593 862.885 343.233 872.857C329.415 887.491 317.988 903.826 306.966 920.568C303.076 926.486 298.862 932.242 293.716 937.147C288.854 941.808 285.693 941.849 280.79 937.309C275.076 931.999 271.065 925.31 266.405 919.108C264.176 916.19 267.256 914.65 268.512 913.028C276.292 902.935 284.315 893.084 292.176 883.032C305.021 866.655 318.434 850.725 332.981 835.848C344.935 823.606 358.509 813.148 372.165 802.852C385.942 792.434 395.627 779.057 402.596 763.492C404.298 759.641 406.122 755.871 407.783 752.02C408.593 750.155 409.768 749.264 411.876 749.304C416.738 749.385 421.601 749.385 426.423 749.304C429.219 749.264 429.624 750.561 429.097 752.993C428.125 757.533 426.949 762.113 426.625 766.734C426.098 774.274 429.34 778.449 436.715 779.301C451.951 781.044 467.268 781.571 482.423 778.206C493.607 775.733 501.508 768.477 508.316 759.803C510.099 757.533 511.72 755.141 513.543 752.628C514.434 753.358 515.123 754.128 515.934 754.533C519.459 756.317 518.973 757.817 516.096 760.046C511.638 763.492 507.667 767.586 503.251 771.072C497.78 775.369 491.986 779.179 485.624 782.097C483.922 782.868 481.896 783.354 480.923 785.3V785.259Z" fill="#927D39"/>
<path d="M207.122 150.51C213.281 137.052 222.074 125.256 230.867 113.501C246.184 93.1115 264.743 75.8838 283.869 59.1425C300.523 44.5902 318.636 32.1862 338.491 22.6198C355.267 14.5126 373.218 9.81045 391.777 7.49991C400.732 6.3649 409.727 5.14883 418.764 5.71633C437.93 6.89187 456.813 9.56723 475.29 15.2828C506.816 25.0114 533.641 42.5228 558.197 63.9257C583.725 86.1799 603.256 112.812 614.805 144.835C620.923 161.82 624.043 179.534 622.625 197.653C621.126 216.34 615.574 233.933 603.499 248.566C597.462 255.863 589.641 261.092 579.146 260.524C574.648 260.281 570.839 258.903 567.962 255.619C565.126 252.377 563.951 252.012 562.168 256.673C559.129 264.699 554.469 271.672 545.473 274.306C542.11 275.279 538.747 274.955 535.383 274.874C524.726 263.524 517.635 250.269 514.839 234.014C513.016 236.649 511.841 238.554 510.422 240.256C504.142 248.039 498.185 256.592 485.948 252.417C485.826 251.201 485.178 250.553 483.881 250.634C479.748 247.958 476.83 244.351 476.466 239.324C476.263 236.649 476.992 233.933 477.033 231.217C477.114 227.771 478.005 223.961 473.548 222.096C469.212 220.272 466.903 223.272 464.471 225.785C461.919 228.379 459.163 230.406 455.476 231.136C439.308 234.46 427.678 222.867 425.531 210.098C424.234 202.437 423.302 194.775 423.667 187.033C423.829 184.033 422.532 181.763 419.898 180.953C417.507 180.223 415.725 181.966 414.509 184.114C413.374 186.06 412.199 188.046 410.74 189.749C405.756 195.586 400.529 201.18 391.939 201.018C387.887 200.937 384.888 198.14 384.807 194.086C384.726 191.046 384.523 188.006 385.374 184.925C386.104 182.29 384.564 180.02 382.214 179.047C379.701 177.993 377.027 178.318 375.447 181.034C374.555 182.574 373.745 184.195 373.218 185.857C371.151 192.14 366.978 196.721 361.426 200.045C353.727 204.666 343.435 201.788 339.423 193.721C333.588 181.966 332.292 169.724 336.425 157.117C337.154 154.807 338.208 152.618 338.248 150.105C338.248 148.037 337.965 146.213 336.02 145.119C333.994 143.984 332.17 144.916 330.63 146.092C327.267 148.646 325.93 152.496 324.593 156.347C322.81 161.455 323.782 167.089 321.918 171.954C318.555 180.831 312.72 188.29 305.386 194.329C298.781 199.761 291.933 197.613 288.934 189.627C288.002 187.155 287.597 184.641 287.718 182.047C287.84 180.02 286.827 178.48 284.963 177.993C282.815 177.426 281.762 179.128 280.951 180.75C280.465 181.723 280.263 182.858 279.979 183.952C277.953 192.019 273.293 198.261 266.242 202.477C261.137 205.517 257.773 204.342 255.221 199.072C252.911 194.329 252.06 189.343 253.397 184.033C254.208 180.831 252.951 177.872 249.791 177.061C246.873 176.331 245.212 178.683 244.523 181.52C244.158 183.101 243.834 184.682 243.226 186.182C240.592 192.789 236.176 197.451 228.76 198.059C220.251 198.748 212.592 197.167 208.176 188.654C203.88 180.426 205.177 171.751 205.623 163.036C205.825 158.779 208.581 154.888 207.244 150.47L207.122 150.51Z" fill="#4AC666"/>
<path d="M207.122 150.51C208.418 154.928 205.703 158.819 205.501 163.076C205.055 171.791 203.799 180.465 208.054 188.694C212.47 197.207 220.129 198.788 228.638 198.099C236.054 197.491 240.471 192.829 243.104 186.222C243.712 184.722 244.036 183.141 244.401 181.56C245.049 178.722 246.751 176.371 249.669 177.101C252.829 177.871 254.086 180.83 253.275 184.073C251.897 189.383 252.748 194.329 255.099 199.112C257.651 204.382 261.055 205.598 266.12 202.517C273.171 198.301 277.831 192.059 279.857 183.992C280.141 182.898 280.343 181.763 280.829 180.79C281.64 179.168 282.693 177.466 284.841 178.033C286.746 178.52 287.718 180.101 287.597 182.087C287.434 184.722 287.88 187.235 288.812 189.667C291.811 197.693 298.659 199.801 305.264 194.369C312.598 188.329 318.433 180.871 321.796 171.994C323.62 167.129 322.688 161.495 324.471 156.387C325.808 152.536 327.145 148.726 330.508 146.132C332.048 144.956 333.872 144.024 335.898 145.159C337.883 146.253 338.167 148.077 338.126 150.145C338.126 152.658 337.073 154.847 336.303 157.157C332.17 169.805 333.466 182.006 339.301 193.761C343.313 201.828 353.605 204.706 361.304 200.085C366.856 196.72 371.029 192.18 373.096 185.897C373.663 184.235 374.433 182.614 375.325 181.074C376.905 178.358 379.579 178.033 382.092 179.087C384.442 180.06 385.982 182.33 385.252 184.965C384.401 188.046 384.604 191.086 384.685 194.126C384.766 198.139 387.765 200.977 391.817 201.058C400.407 201.22 405.634 195.626 410.618 189.789C412.077 188.086 413.252 186.1 414.387 184.154C415.643 182.046 417.386 180.263 419.776 180.992C422.41 181.803 423.666 184.073 423.545 187.073C423.18 194.856 424.112 202.517 425.409 210.138C427.556 222.866 439.226 234.5 455.354 231.176C459.001 230.406 461.797 228.419 464.349 225.825C466.781 223.312 469.09 220.312 473.426 222.136C477.883 224.001 476.992 227.811 476.911 231.257C476.87 233.973 476.141 236.689 476.344 239.364C476.708 244.39 479.626 247.998 483.759 250.673C481.733 261.132 473.305 267.617 463.823 266.118C455.921 264.861 446.318 253.43 449.073 245.242C449.397 244.269 449.843 243.255 448.749 242.688C447.331 241.958 446.642 243.377 446.115 244.147C444.048 247.268 441.374 249.863 438.7 252.417C432.986 257.889 424.841 257.848 419.087 252.498C415.319 249.012 412.442 245.039 411.064 240.053C410.781 238.959 410.578 237.58 409.281 237.459C407.66 237.337 408.106 239.08 407.539 239.972C407.296 240.377 407.215 240.904 407.053 241.35C406.08 243.823 406.121 247.228 402.636 247.633C399.394 247.998 397.328 245.647 395.585 243.215C395.018 242.445 394.613 241.188 393.559 241.431C392.06 241.756 392.506 243.255 392.506 244.309C392.708 250.065 392.343 255.74 388.818 260.524C381.281 270.82 365.802 269.401 359.197 258.01C356.077 252.619 354.902 246.539 353.038 240.702C351.498 235.797 350.08 230.811 348.824 225.825C348.338 223.96 347.892 222.096 345.825 221.974C343.84 221.853 343.556 224.041 343.029 225.46C339.666 234.743 336.627 244.107 333.061 253.268C330.387 260.24 326.78 266.726 321.756 272.36C312.679 282.575 302.954 277.387 298.456 267.699C298.173 267.131 298.213 266.401 297.889 265.834C297.241 264.658 297.038 262.55 295.214 262.915C293.594 263.24 294.404 265.104 294.282 266.28C292.824 278.562 292.621 291.088 287.475 302.64C283.909 310.666 280.06 318.49 271.388 322.462C268.633 323.719 266.201 323.719 263.568 322.341C258.786 319.868 253.842 317.679 250.358 313.018C250.763 321.044 251.128 328.705 249.588 336.285C247.035 349.094 234.879 356.067 223.29 349.175C206.879 339.366 197.032 324.57 190.022 307.099C180.823 284.156 180.58 260.362 181.755 236.445C182.728 216.461 186.659 196.801 194.074 178.074C197.802 168.67 201.125 159.022 206.96 150.55L207.122 150.51Z" fill="#379E4E"/>
<path d="M485.988 252.456C498.226 256.631 504.142 248.078 510.463 240.295C511.841 238.552 513.016 236.647 514.88 234.053C517.676 250.308 524.767 263.563 535.424 274.913C526.59 274.994 517.595 268.062 513.867 258.415C513.3 256.996 513.583 254.564 511.841 254.361C509.572 254.118 510.585 256.793 509.774 257.969C507.667 261.171 505.682 264.576 501.873 266.157C494.011 269.44 486.069 262.59 485.988 252.456Z" fill="#379E4E"/>
<path d="M553.739 881.654C548.836 874.115 547.782 865.399 546.08 856.887C542.109 837.146 541.745 817.121 542.312 797.097C544.824 796.408 543.933 794.3 544.095 792.638C544.824 785.26 545.31 777.883 546.323 770.546C548.187 757.169 550.497 743.873 553.941 730.78C556.17 722.268 557.224 713.309 563.14 706.094C565.044 703.743 565.733 700.54 563.18 698.108C560.506 695.554 557.426 696.527 554.792 698.473C552.847 699.892 551.348 701.919 549.403 703.297C546.445 705.364 544.541 704.432 544.216 700.784C543.892 696.892 545.473 693.568 547.701 690.447C549.727 687.609 549.119 684.894 546.85 682.543C544.581 680.232 542.109 681.083 539.759 682.461C535.14 685.258 532.911 684.042 532.465 678.489C532.182 674.597 532.911 671.314 535.869 668.355C539.232 664.991 539.273 661.018 536.477 658.505C533.073 655.465 530.034 656.6 527.238 659.599C523.348 663.734 517.878 664.707 512.975 664.342C505.964 663.774 503.493 663.126 501.912 655.748C500.535 649.222 500.21 642.493 506.451 637.588C507.666 636.615 508.598 635.197 509.409 633.818C510.584 631.913 510.138 630.17 508.598 628.549C506.937 626.806 505.235 626.279 502.966 627.373C500.373 628.589 498.671 630.778 496.807 632.765C494.416 635.359 491.579 636.332 488.216 636.453C480.355 636.656 474.844 631.67 472.17 623.036C468.158 610.227 478.41 587.446 488.703 579.865C493.2 576.541 498.711 574.798 502.48 570.502C518.648 569.975 533.681 575.204 548.471 580.554C566.827 587.121 582.833 597.823 596.043 612.253C616.992 635.237 632.755 661.099 640.454 691.704C645.195 710.634 649.531 729.605 651.759 748.981C654.677 774.234 652.448 799.164 645.438 823.648C643.088 831.917 640.454 840.024 636.361 847.604C635.065 849.996 633.93 852.55 631.539 854.171C619.464 855.387 617.722 851.577 615.169 841.24C613.183 833.133 612.819 824.701 612.211 816.392C612.049 814.081 611.481 811.973 609.01 811.69C606.7 811.406 605.849 813.392 605.201 815.338C604.633 817.04 604.39 818.783 604.39 820.567C604.39 824.783 604.512 828.998 604.39 833.173C604.066 843.024 600.095 851.577 594.625 859.522C593.368 861.346 591.585 862.481 589.195 861.873C586.763 861.265 586.399 859.36 585.75 857.171C584.211 851.982 585.832 846.51 584.008 841.362C583.36 839.538 582.59 837.835 580.564 837.876C578.335 837.916 577.241 839.659 577.16 841.848C577.079 843.956 576.917 846.064 577.16 848.172C578.254 857.414 574.648 865.156 569.826 872.655C566.017 878.614 560.83 881.695 553.739 881.533V881.654Z" fill="#4AC666"/>
<path d="M502.479 570.663C498.711 574.96 493.2 576.703 488.702 580.027C478.41 587.607 468.117 610.388 472.169 623.198C474.884 631.832 480.355 636.818 488.216 636.615C491.579 636.534 494.456 635.521 496.806 632.926C498.63 630.94 500.372 628.751 502.965 627.535C505.235 626.441 506.936 627.008 508.598 628.711C510.178 630.332 510.583 632.075 509.408 633.98C508.557 635.318 507.666 636.777 506.45 637.75C500.21 642.655 500.534 649.384 501.912 655.91C503.492 663.247 505.923 663.936 512.974 664.504C517.877 664.909 523.347 663.936 527.237 659.761C530.033 656.761 533.072 655.626 536.476 658.667C539.313 661.18 539.232 665.152 535.868 668.517C532.91 671.476 532.141 674.759 532.465 678.651C532.91 684.204 535.139 685.42 539.758 682.623C542.109 681.204 544.58 680.394 546.85 682.704C549.119 685.055 549.727 687.771 547.701 690.609C545.472 693.73 543.892 697.054 544.216 700.945C544.499 704.553 546.444 705.526 549.402 703.459C551.347 702.08 552.847 700.054 554.792 698.635C557.426 696.73 560.505 695.716 563.18 698.27C565.692 700.702 565.044 703.904 563.139 706.256C557.264 713.471 556.21 722.47 553.941 730.942C550.497 743.994 548.187 757.331 546.323 770.707C545.31 778.044 544.824 785.422 544.094 792.799C543.932 794.421 544.824 796.529 542.311 797.258C541.582 783.192 543.162 769.289 544.783 755.344C545.958 745.454 546.89 735.522 548.916 725.753C549.119 724.861 548.795 723.889 548.673 722.713C546.404 723.159 546.404 724.861 545.999 726.321C543.689 734.995 534.329 737.346 527.845 730.82C521.24 724.132 520.308 716.187 522.902 707.512C523.226 706.458 523.874 705.485 524.279 704.431C524.563 703.661 524.766 702.81 523.793 702.364C523.064 702.04 522.578 702.607 522.172 703.134C521.24 704.269 520.43 705.445 519.457 706.539C516.135 710.35 514.352 710.106 511.88 705.607C509.489 701.189 509.692 696.486 509.854 691.46C506.977 695.635 504.343 699.973 501.223 703.864C497.211 708.89 492.957 713.633 486.352 715.66C481.165 717.241 476.87 715.66 473.223 712.782C467.955 708.566 462.849 703.864 462.444 696.284C462.404 695.473 462.282 694.419 461.31 694.541C460.702 694.622 459.972 695.392 459.608 696.041C457.744 699.243 456.123 702.607 454.097 705.688C446.844 716.673 432.337 722.47 419.411 720.119C409.159 718.254 400.325 714.363 394.49 705.283C391.37 700.418 389.668 695.068 389.668 689.312C389.668 686.15 389.02 684.934 385.454 685.866C378.647 687.569 372.569 681.042 369.286 673.34C364.181 661.423 366.571 649.951 371.637 638.763C378.728 623.157 390.925 612.01 404.175 601.754C426.097 584.729 451.544 576.825 478.45 572.528C486.392 571.271 494.375 570.217 502.479 570.826V570.663Z" fill="#379E4E"/>
<path d="M553.738 881.654C560.829 881.856 566.016 878.735 569.825 872.776C574.607 865.277 578.254 857.535 577.159 848.293C576.916 846.225 577.078 844.077 577.159 841.969C577.241 839.78 578.335 838.037 580.563 837.996C582.549 837.956 583.359 839.658 584.008 841.483C585.831 846.631 584.21 852.103 585.75 857.292C586.398 859.44 586.763 861.386 589.194 861.994C591.544 862.561 593.368 861.426 594.624 859.643C600.094 851.698 604.065 843.145 604.39 833.294C604.511 829.079 604.471 824.863 604.39 820.688C604.39 818.904 604.592 817.161 605.2 815.459C605.848 813.513 606.699 811.527 609.009 811.81C611.481 812.135 612.048 814.202 612.21 816.513C612.818 824.822 613.183 833.254 615.168 841.361C617.721 851.698 619.504 855.549 631.539 854.292C628.702 858.589 624.731 861.548 620.274 863.899C617.843 865.196 616.1 865.642 615.898 861.791C615.776 859.764 615.047 857.737 615.047 855.589C615.047 854.008 615.979 851.292 613.507 851.252C611.562 851.252 612.413 853.846 612.17 855.346C610.549 865.642 610.508 876.181 606.618 886.072C602.566 896.368 595.475 903.138 584.899 906.34C581.049 907.515 577.443 906.259 574.12 904.8C563.788 900.3 557.345 892.193 553.86 881.572L553.738 881.654Z" fill="#379E4E"/>
<path d="M542.191 738.685C542.191 738.685 542.312 738.401 542.394 738.279C542.312 738.401 542.231 738.522 542.15 738.685H542.191Z" fill="#756228"/>
<path d="M537.45 306.206C559.21 301.545 579.835 305.234 600.177 313.584C627.366 324.772 646.897 344.026 661.242 369.199C672.669 389.264 679.355 410.627 681.259 433.732C682.88 453.595 681.948 473.011 675.303 491.901C673.155 498.022 669.63 503.413 664.281 507.507C654.272 515.087 639.806 513.344 630.203 505.399C619.748 496.806 615.088 485.456 615.25 472.201C615.291 468.35 612.454 465.35 613.143 461.58C610.955 456.635 607.106 455.013 603.297 457.527C602.122 458.337 601.109 459.472 600.136 460.567C598.11 462.877 596.732 462.634 595.8 459.716C595.193 457.729 594.666 455.743 594.625 453.554C594.625 447.393 594.666 441.312 596.408 435.313C597.34 431.989 596.813 428.665 593.247 427.003C589.601 425.341 587.575 428.098 585.589 430.449C584.86 431.3 584.535 432.475 583.928 433.408C581.496 437.015 577.525 437.097 575.337 433.327C573.23 429.719 571.447 425.909 572.906 421.369C573.797 418.612 573.027 416.018 570.069 415.086C567.152 414.153 564.64 415.207 563.383 418.288C562.938 419.342 562.654 420.436 562.208 421.45C560.344 425.868 557.022 427.246 552.402 425.828C547.864 424.449 544.622 421.571 543.528 417.031C541.543 408.803 541.421 400.817 547.864 394.007C549.485 392.305 550.336 389.872 551.389 387.683C552.686 384.927 551.916 382.576 549.525 380.873C547.175 379.211 544.622 379.211 542.434 381.198C540.286 383.143 537.936 385.008 536.842 387.805C535.789 390.48 533.641 391.332 531.372 390.237C523.713 386.589 516.501 382.414 513.421 373.658C511.152 367.172 512.165 360.484 512.205 353.917C512.367 335.757 520.188 321.286 534.208 310.057C535.627 308.922 537.207 308.112 537.531 306.125L537.45 306.206Z" fill="#4AC666"/>
<path d="M537.449 306.207C537.125 308.193 535.545 309.004 534.127 310.139C520.106 321.367 512.286 335.838 512.124 353.998C512.083 360.565 511.07 367.254 513.339 373.739C516.378 382.495 523.632 386.67 531.29 390.318C533.559 391.413 535.707 390.562 536.76 387.886C537.854 385.049 540.205 383.225 542.352 381.279C544.54 379.293 547.093 379.293 549.444 380.955C551.834 382.657 552.645 385.008 551.308 387.765C550.254 389.954 549.403 392.386 547.782 394.088C541.339 400.898 541.42 408.884 543.446 417.113C544.54 421.653 547.823 424.49 552.321 425.909C556.94 427.328 560.263 425.909 562.127 421.531C562.572 420.477 562.856 419.383 563.302 418.369C564.558 415.289 567.07 414.235 569.988 415.167C572.946 416.099 573.716 418.694 572.824 421.45C571.365 425.949 573.148 429.76 575.255 433.408C577.444 437.178 581.415 437.056 583.846 433.489C584.494 432.557 584.778 431.381 585.507 430.53C587.493 428.179 589.519 425.382 593.166 427.084C596.732 428.746 597.258 432.07 596.326 435.394C594.625 441.394 594.503 447.474 594.544 453.635C594.544 455.784 595.07 457.77 595.719 459.797C596.61 462.715 598.028 462.999 600.054 460.648C600.986 459.554 601.999 458.419 603.215 457.608C607.024 455.095 610.873 456.716 613.062 461.661C609.658 462.634 610.387 465.512 610.144 467.985C609.293 476.416 607.47 484.483 601.635 491.172C596.326 497.292 589.64 497.86 582.63 495.914C573.513 493.36 567.475 486.996 563.747 478.403C562.289 475.038 562.127 471.593 563.788 468.066C560.668 467.701 559.898 469.85 558.601 471.066C556.17 473.336 553.739 474.552 550.335 473.336C546.607 471.958 543.933 469.606 542.474 465.958C541.582 463.729 544.014 462.594 544.54 460.77C544.784 459.999 545.31 459.148 544.662 458.5C543.649 457.486 542.96 458.581 542.271 459.148C541.907 459.432 541.582 459.837 541.218 460.162C538.219 463.121 535.383 466.039 530.358 465.066C522.578 463.567 516.662 459.432 512.367 453.027C510.989 450.96 512.448 448.123 512.164 444.839C503.087 460.81 490.364 460.932 476.506 453.473C468.563 449.217 461.067 443.907 461.918 433.003C460.986 432.678 460.459 433.246 459.892 433.894C450.451 445.285 435.741 444.677 427.475 432.395C421.559 423.598 420.789 413.87 422.937 403.655C425.733 390.237 432.54 378.685 440.077 367.578C451.018 351.404 464.268 337.541 480.841 326.88C496.807 316.584 513.826 309.369 532.587 306.288C534.167 306.045 535.788 306.288 537.409 306.288L537.449 306.207Z" fill="#379E4E"/>
<path d="M502.277 852.346C500.332 855.954 497.495 857.859 493.241 857.292C491.984 857.13 490.566 857.008 489.553 858.021C482.3 865.602 473.264 864.913 464.349 862.926C453.976 860.616 444.818 855.954 439.874 845.82C436.754 839.456 435.903 832.727 438.537 825.877C439.429 823.526 437.241 822.836 436.146 821.661C430.392 815.58 427.029 808.527 429.015 800.136C432.175 786.719 440.928 781.976 454.462 785.706C455.84 786.07 457.298 786.476 458.514 787.246C461.067 788.867 463.174 788.786 465.929 787.165C469.901 784.773 476.1 786.435 479.99 790.165C470.914 800.988 470.346 805.892 481.692 814.932C483.961 816.756 482.462 818.296 481.044 819.756C478.653 822.147 476.06 824.336 474.844 827.701C473.75 830.741 473.426 832.93 477.964 833.011C482.786 833.092 484.407 836.578 481.611 840.469C480.517 842.01 479.342 843.388 480.436 845.253C482.259 848.293 484.326 851.09 488.013 852.387C492.835 854.049 497.536 853.279 502.277 852.306V852.346Z" fill="#379E4E"/>
<path d="M502.278 852.346C497.537 853.319 492.836 854.089 488.014 852.427C484.327 851.13 482.301 848.333 480.437 845.293C479.343 843.469 480.518 842.05 481.612 840.51C484.408 836.619 482.787 833.132 477.965 833.051C473.427 832.97 473.791 830.781 474.845 827.741C476.02 824.377 478.654 822.188 481.045 819.796C482.503 818.337 483.962 816.797 481.693 814.972C470.347 805.933 470.914 801.028 479.991 790.205C484.975 792.151 488.703 795.799 491.742 799.934C493.444 802.285 495.268 803.744 497.739 804.96C511.395 811.486 519.216 829.282 514.515 842.821C513.097 846.874 510.666 849.631 506.168 849.468C503.818 849.387 503.129 850.806 502.278 852.387V852.346Z" fill="#4AC666"/>
<path d="M344.975 109.446C345.948 102.312 348.865 94.5288 352.836 87.0702C353.201 86.3811 353.768 85.5704 354.66 85.8136C355.957 86.1379 355.713 87.3945 355.551 88.2052C355.146 90.0698 354.538 91.9345 353.93 93.7586C352.31 98.704 351.297 103.73 351.661 108.96C351.783 110.662 351.256 112.81 353.566 113.418C355.673 113.945 356.807 112.121 357.78 110.703C361.832 104.825 364.628 98.2986 367.262 91.6913C368.518 88.57 369.693 85.3677 371.03 82.287C371.395 81.4357 372.165 80.5034 373.3 81.0304C374.15 81.4357 373.907 82.368 373.705 83.1788C371.598 92.5831 370.301 102.231 366.208 111.108C363.818 116.296 360.779 121.201 354.052 121.485C347.69 121.769 344.773 118.323 344.894 109.486L344.975 109.446Z" fill="#2B7B3A"/>
<path d="M518.689 127.282C525.375 139.605 529.184 151.198 525.051 164.089C523.997 167.332 521.485 169.764 517.879 169.723C513.462 169.723 510.018 167.007 508.478 163.156C506.33 157.887 506.006 152.212 506.33 146.496C506.411 145.361 506.695 144.064 508.113 143.983C509.531 143.902 509.815 145.199 510.099 146.294C511.071 149.861 512.044 153.428 513.138 156.954C513.665 158.738 514.88 160.562 516.623 160.603C518.608 160.643 518.487 158.211 518.811 156.833C520.675 149.334 520.35 141.794 518.527 134.335C518.041 132.43 517.555 130.606 518.73 127.201L518.689 127.282Z" fill="#2B7B3A"/>
<path d="M544.096 107.865C550.296 119.175 557.549 128.903 554.631 141.794C553.01 149.009 547.054 150.509 541.543 145.482C536.154 140.537 535.1 133.727 533.479 127.201C532.912 124.89 532.709 122.458 532.466 120.067C532.385 119.175 532.264 117.878 533.641 117.878C534.168 117.878 534.979 118.81 535.222 119.458C536.64 123.39 537.937 127.403 539.233 131.376C540.327 134.659 542.11 137.416 544.623 139.889C547.216 142.442 548.067 140.983 548.634 138.47C549.566 134.213 548.107 130.16 547.459 126.066C546.77 121.769 545.636 117.553 543.772 113.581C543.123 112.203 542.961 110.824 544.136 107.865H544.096Z" fill="#2B7B3A"/>
<path d="M272.604 107.095C273.698 112.162 271.145 114.919 270.375 118.121C269.767 120.796 268.835 123.391 268.349 126.066C267.984 128.174 268.43 130.565 270.253 131.7C272.32 132.957 274.143 131.376 275.805 129.917C280.141 126.066 283.058 121.323 285.489 116.135C286.34 114.351 286.826 112.243 288.731 110.784C290.676 113.703 289.217 116.378 288.488 118.77C286.421 125.539 284.517 132.471 277.871 136.605C274.224 138.875 270.618 139.362 266.971 137.132C263.729 135.146 263 131.741 263.365 128.214C264.135 120.634 267.944 114.392 272.604 107.055V107.095Z" fill="#2B7B3A"/>
<path d="M223.168 230.973C225.113 233.932 224.83 237.053 224.222 239.932C223.006 245.809 224.546 251.403 225.518 256.997C225.924 259.348 227.18 262.469 229.408 262.469C231.353 262.469 231.718 259.064 232.529 257.038C235.162 250.43 235.365 243.539 235.162 236.608C235.081 233.892 235.081 231.176 236.905 228.703C239.782 230.081 238.971 232.919 239.417 235.027C241.078 243.255 241.929 251.565 239.944 259.875C239.255 262.672 238.201 265.266 236.338 267.658C232.002 273.252 224.262 272.157 221.588 264.861C219.845 260.078 219.116 255.132 219.683 250.147C220.413 243.701 220.615 237.135 223.168 231.014V230.973Z" fill="#2B7B3A"/>
<path d="M587.817 754.411C587.331 764.099 587.169 773.828 581.172 782.219C579.389 784.691 577.241 786.596 574.324 787.245C568.57 788.461 564.842 784.934 564.639 777.679C564.477 771.477 566.22 765.558 568.489 759.843C569.745 756.681 571.001 753.56 572.338 750.438C572.703 749.587 573.23 748.412 574.405 748.898C575.58 749.425 574.891 750.479 574.648 751.411C572.865 758.262 570.11 764.869 570.353 772.166C570.434 775.044 570.191 779.34 572.541 779.949C575.864 780.84 577.039 776.625 578.457 774.03C582.59 766.531 583.684 758.181 584.9 749.871C585.021 749.06 584.9 748.25 585.103 747.479C585.265 746.669 585.791 745.898 586.683 745.898C587.736 745.898 587.817 746.871 587.817 747.682C587.817 749.952 587.817 752.222 587.817 754.492V754.411Z" fill="#2B7B3A"/>
<path d="M543.123 639.209C542.515 630.089 546.203 623.481 548.837 616.59C549.201 615.577 549.728 614.117 551.146 614.766C552.321 615.293 551.957 616.793 551.714 617.847C550.701 621.9 549.485 625.913 548.431 629.967C547.418 634.021 547.864 637.993 549.566 641.803C550.741 644.438 551.957 645.087 553.942 642.29C558.562 635.804 560.628 628.386 562.533 620.846C563.019 618.86 562.614 615.334 565.288 615.779C567.476 616.144 566.099 619.306 565.896 621.292C565.329 626.886 564.924 632.521 563.424 637.993C562.411 641.763 561.115 645.371 558.278 648.289C555.806 650.802 553.253 653.072 549.404 651.735C545.392 650.356 543.853 646.992 543.204 643.182C542.88 641.439 543.164 639.614 543.164 639.209H543.123Z" fill="#2B7B3A"/>
<path d="M615.007 746.101C615.453 748.736 614.764 751.451 613.832 754.005C612.697 757.126 610.55 759.64 606.903 760.005C603.053 760.41 600.906 757.897 599.407 754.938C596.003 748.29 597.826 741.358 598.799 734.507C598.88 734.021 599.569 733.332 600.095 733.251C601.149 733.089 601.23 734.021 601.433 734.791C602.567 739.007 601.878 743.506 603.58 747.641C604.107 748.938 604.391 750.884 606.052 750.884C607.794 750.884 607.794 748.898 608.24 747.56C610.509 740.142 608.24 732.805 607.875 725.468C607.794 724.009 606.903 722.225 608.726 721.82C610.145 721.496 610.59 723.522 610.833 724.698C612.333 731.751 615.453 738.521 615.088 746.141L615.007 746.101Z" fill="#2B7B3A"/>
<path d="M433.31 650.519C433.107 640.993 438.294 634.831 443.076 628.589C444.21 627.089 445.304 623.481 447.128 624.697C449.437 626.197 446.115 628.143 445.385 629.886C443.562 634.183 441.09 638.196 439.915 642.817C439.591 644.073 438.861 645.371 439.469 646.546C440.158 647.965 439.469 650.154 441.171 650.843C443.035 651.573 444.453 650.032 445.831 648.938C450.288 645.33 453.084 640.344 456.569 635.885C457.055 635.237 457.461 634.547 457.987 633.939C458.514 633.331 459.243 632.683 460.013 633.372C460.378 633.696 460.459 634.629 460.257 635.115C457.217 642.979 453.814 650.64 447.614 656.599C444.818 659.274 441.09 660.004 437.727 658.464C434.283 656.883 432.378 653.761 433.31 650.519Z" fill="#2B7B3A"/>
<path d="M567.719 333.812C567.881 339.893 565.044 344.109 564.315 348.811C564.031 350.756 563.626 352.459 564.193 354.445C564.963 356.999 564.274 360.485 567.597 361.296C571.325 362.228 572.338 358.499 573.797 356.229C576.39 352.297 577.808 347.797 578.983 343.298C579.348 341.879 579.753 340.582 581.05 339.163C583.4 343.338 581.253 347.23 580.888 350.959C580.361 356.391 579.105 361.823 575.094 365.998C569.583 371.713 561.6 370.011 558.804 362.633C555.927 355.175 559.088 348.689 562.208 342.366C563.504 339.731 564.558 336.772 567.719 333.853V333.812Z" fill="#2B7B3A"/>
<path d="M616.101 369.726C617.965 375.199 619.383 379.82 621.125 384.279C621.976 386.508 623.435 388.535 624.691 390.562C626.595 393.643 628.135 392.832 629.391 390.035C631.296 385.86 630.729 381.522 630.08 377.185C629.716 374.793 629.027 372.483 628.622 370.132C628.5 369.281 628.216 367.983 629.513 367.74C630.648 367.537 631.174 368.591 631.499 369.483C634.295 377.104 636.969 384.684 633.484 392.872C631.296 398.02 627.082 399.601 623.313 396.521C618.856 392.913 614.075 376.617 616.06 369.726H616.101Z" fill="#2B7B3A"/>
<path d="M462.486 396.155C462.284 392.142 463.58 388.454 465.566 385.13C468.483 380.306 471.684 375.644 474.845 370.983C475.331 370.253 476.182 369.158 477.195 369.685C478.613 370.415 477.722 371.631 477.276 372.604C475.291 376.658 473.184 380.671 471.279 384.805C469.658 388.332 467.349 393.156 470.307 395.466C472.252 396.966 475.129 391.899 477.033 389.224C479.87 385.292 482.504 381.238 485.299 377.306C485.907 376.414 486.637 375.077 487.893 375.563C489.433 376.171 488.46 377.468 488.055 378.441C484.732 386.629 482.544 395.385 476.02 401.952C473.265 404.708 470.266 406.127 466.417 404.668C462.446 403.127 462.365 399.641 462.486 396.155Z" fill="#2B7B3A"/>
<path d="M495.633 407.263C499.806 400.777 501.549 393.886 503.98 387.279C504.426 386.022 504.385 383.874 506.371 384.441C507.829 384.847 507.303 386.752 507.141 387.887C506.046 394.535 505.803 401.304 503.939 407.79C503.21 410.303 502.116 412.695 500.171 414.397C497.942 416.343 494.944 416.627 492.391 415.492C489.352 414.154 488.217 411.033 487.853 407.952C487.042 400.777 488.298 393.846 491.013 387.157C491.459 386.063 491.905 384.36 493.647 385.13C495.065 385.738 494.052 387.036 493.971 388.089C493.525 394.291 490.527 400.737 495.633 407.222V407.263Z" fill="#2B7B3A"/>
<path d="M456.934 824.985C462.039 821.093 464.714 815.986 468.239 811.648C468.847 810.919 469.252 809.622 470.346 810.068C471.926 810.676 470.954 811.973 470.589 812.946C468.036 819.431 465.281 825.755 460.297 830.862C458.23 833.011 455.758 833.781 453.327 832.443C450.815 831.065 450.774 828.39 451.058 825.593C451.747 819.229 455.758 814.77 459.527 810.23C460.337 809.257 461.31 807.23 462.89 808.365C464.227 809.338 463.174 810.959 462.363 812.257C460.58 815.135 458.96 818.134 457.298 821.053C456.69 822.107 456.609 823.161 456.934 824.985Z" fill="#2B7B3A"/>
<path d="M495.551 830.011C495.672 825.065 492.876 821.174 490.931 816.958C490.526 816.067 489.229 814.85 490.486 813.959C491.904 812.986 492.755 814.364 493.525 815.377C496.726 819.593 500.575 823.363 502.318 828.552C503.533 832.119 503.371 835.645 499.765 837.307C496.118 839.01 492.714 837.429 490.769 833.862C489.473 831.47 488.622 828.835 487.649 826.282C487.244 825.187 486.069 823.687 487.811 822.958C489.27 822.309 489.918 824.052 490.769 824.903C492.431 826.525 492.714 829.403 495.47 830.051C495.632 830.173 495.753 830.295 495.915 830.457C495.794 830.295 495.672 830.173 495.551 830.011Z" fill="#2B7B3A"/>
<path d="M495.552 830.012C495.552 830.012 495.795 830.295 495.916 830.458C495.754 830.336 495.633 830.214 495.471 830.052L495.552 830.012Z" fill="#4AC666"/>
</g>
<defs>
<clipPath id="clip0_4459_2146">
<rect width="647" height="1038" fill="white" transform="translate(39)"/>
</clipPath>
</defs>
</svg>
