<svg width="851" height="1373" viewBox="0 0 851 1373" fill="none" xmlns="http://www.w3.org/2000/svg">
<path d="M821.709 871C842.509 845.8 833.376 819.167 824.709 810C817.529 767.001 813.209 780.5 757.209 747.5C701.209 714.5 621.209 751 548.709 780.5C476.21 810 438.709 915 399.209 941.5C359.709 968 307.209 994 259.709 1074.5C212.209 1155 200.709 1260 238.709 1339C276.709 1418 299.209 1339 318.709 1304.5C338.209 1270 366.709 1239 407.709 1211C448.709 1183 496.209 1197.5 548.709 1184.5C601.209 1171.5 644.709 1124.5 679.209 1101.5C713.709 1078.5 698.209 1050 709.709 1033.5C721.209 1017 742.709 961 775.709 941.5C808.709 922 795.709 902.5 821.709 871Z" fill="#8BB435"/>
<g clip-path="url(#clip0_4459_2147)">
<path d="M592.587 334.235C592.239 332.669 593.413 330.364 591.5 329.581C589.891 328.929 589.064 331.06 587.934 332.017C579.497 339.193 569.625 342.455 558.665 342.542C546.836 341.846 536.921 337.236 529.049 328.364C526.875 325.928 525.744 325.667 523.134 328.233C509.174 342.281 486.516 345.456 468.816 336.627C463.206 333.844 458.944 329.494 454.204 324.884C454.117 326.537 454.073 327.407 453.986 328.233C452.203 342.238 443.114 353.676 431.502 354.937C426.197 355.503 424.631 357.764 423.457 362.331C419.63 377.684 408.497 385.251 393.971 388.252C379.967 391.123 368.225 387.339 360.18 374.726C360.049 374.552 359.571 374.552 359.049 374.422C357.614 384.599 350.917 391.383 343.784 397.864C334.869 402.082 326.041 406.084 315.777 406.388C307.558 406.649 300.078 404.996 293.032 400.908C292.162 399.603 291.336 398.299 289.336 397.255C286.857 408.606 280.464 416.739 269.939 421.306C259.285 425.96 249.021 425.22 238.888 418.044C237.322 429.743 230.973 438.137 222.406 445.096C209.533 455.577 195.051 459.057 178.96 454.925C175.176 453.925 174.219 454.882 173.915 458.448C172.915 470.191 173.219 482.021 170.479 493.589C163.956 521.598 151.474 546.128 128.99 564.699C109.246 581.008 86.7622 582.356 66.4527 568.7C56.3631 561.915 48.1002 553.347 41.3158 543.301C24.7899 518.945 14.8308 491.893 8.56832 463.363C-0.999338 419.914 -2.08657 376.031 2.9582 331.843C8.08994 286.655 17.6576 242.641 35.5317 200.672C67.9748 124.474 122.597 70.2393 198.921 38.6642C237.453 22.7027 278.246 17.7881 319.822 21.4414C340.349 23.2246 359.919 29.096 378.576 37.8813C395.45 45.7969 408.323 58.0181 418.108 74.3275C420.587 70.8917 422.631 67.7168 425.022 64.8028C449.768 35.1413 479.906 12.656 517.785 4.08813C566.102 -6.82834 610.809 4.2621 650.906 33.3147C672.868 49.2327 687.481 70.2828 693.787 96.8129C694.396 99.4659 695.526 100.727 698.919 100.64C720.315 100.249 739.755 107.512 758.108 117.645C802.206 142.001 828.169 180.317 841.738 227.941C848.044 250.078 851.871 272.781 850.783 295.614C848.957 334.105 839.998 370.681 813.817 400.821C803.337 412.955 790.725 422.002 774.373 424.002C755.455 426.307 740.32 419.653 729.666 403.692C723.273 394.036 718.489 383.729 718.228 371.812C718.141 367.289 716.967 364.984 711.661 367.245C707.442 369.072 702.746 368.246 698.353 367.115C683.349 363.244 671.129 355.372 663.04 341.716C650.254 361.418 612.07 363.462 595.501 336.801C594.848 335.714 594.979 333.322 592.5 334.235H592.587Z" fill="#248937"/>
<path d="M495.648 679.169C495.561 664.251 495.517 649.29 495.387 634.372C495.3 623.978 494.082 613.627 492.125 603.406C489.69 590.794 482.036 582.4 470.293 577.05C452.898 569.135 434.328 565.394 415.975 560.654C387.142 553.217 359.961 542.213 336.39 523.425C318.646 509.29 308.165 490.588 301.772 469.234C295.51 448.401 293.205 427.003 292.248 405.388C292.161 403.822 292.248 401.212 293.335 399.864C300.38 403.909 307.817 405.562 316.08 405.344C326.3 405.04 335.172 401.038 344.087 396.82C344.305 397.82 344.392 399.864 344.392 400.908C344.522 415.869 347.349 430.482 349.61 445.183C352.35 462.753 361.918 473.278 379.009 478.019C393.97 482.194 409.104 484.325 424.499 485.152C451.984 486.587 479.209 484.108 506.39 480.237C523.437 477.845 534.44 469.06 539.659 452.62C541.572 446.574 543.443 440.529 545.008 434.353C548.966 419.088 552.923 403.735 554.837 388.078C556.663 372.986 557.446 356.59 558.707 341.411C569.71 341.324 579.539 338.367 587.976 331.19C589.106 330.234 589.933 328.102 591.542 328.755C593.455 329.538 592.673 331.843 592.629 333.408C593.281 349.24 590.15 365.592 588.193 381.163C586.193 397.081 583.366 412.912 581.235 428.83C578.712 447.575 576.755 466.32 576.712 485.282C576.625 507.159 577.321 529.035 578.843 550.868C580.061 568.178 580.8 585.488 582.235 602.797C585.453 641.201 583.627 680.126 591.846 717.92C601.501 762.282 619.157 802.99 654.558 833.739C670.736 847.787 689.001 858.008 709.398 864.532C718.574 867.489 728.49 869.055 734.752 877.71C736.187 879.667 737.101 877.536 737.97 876.753C743.407 871.882 748.712 866.88 754.235 862.096C755.323 861.139 756.671 858.747 758.454 860.574C760.02 862.139 758.106 863.705 757.28 865.01C744.363 885.756 727.794 903.152 708.659 918.2C696.916 927.421 685.218 936.772 672.954 945.252C633.118 972.826 598.239 1005.71 567.014 1042.72C548.748 1064.33 528.787 1084.47 508.999 1104.78C507.129 1106.69 504.52 1110.13 502.563 1108.56C500.519 1106.91 503.476 1103.69 504.78 1101.39C510.912 1090.47 518.045 1080.21 525.699 1070.29C527.786 1067.6 527.612 1065.9 525.873 1063.16C518.828 1051.98 515.131 1039.28 509.825 1027.28C498.735 1002.27 486.776 977.567 480.383 950.732C479.644 947.558 478.382 944.426 478.035 941.208C476.947 930.161 470.598 923.246 461.465 917.679C449.201 910.241 436.285 903.761 425.238 894.41C405.19 877.362 394.883 854.659 388.185 829.912C387.229 826.433 386.75 822.823 386.054 819.3C391.186 812.08 395.448 804.556 395.622 795.336C395.622 793.074 397.536 792.813 398.971 793.292C402.841 794.553 406.364 793.292 409.93 792.204C410.017 793.422 410.148 794.64 410.148 795.858C410.496 827.781 434.284 849.353 455.29 857.051C459.291 858.53 460.726 857.399 461.117 853.615C463.031 835.088 464.988 816.603 469.641 798.511" fill="#5B4A0E"/>
<path d="M592.587 334.235C592.239 332.669 593.413 330.364 591.5 329.581C589.891 328.929 589.064 331.06 587.934 332.017C579.497 339.193 569.625 342.455 558.665 342.542C546.836 341.846 536.921 337.236 529.049 328.364C526.875 325.928 525.744 325.667 523.134 328.233C509.174 342.281 486.516 345.456 468.816 336.627C463.206 333.844 458.944 329.494 454.204 324.884C454.117 326.537 454.073 327.407 453.986 328.233C452.203 342.238 443.114 353.676 431.502 354.937C426.197 355.503 424.631 357.764 423.457 362.331C419.63 377.684 408.497 385.251 393.971 388.252C379.967 391.123 368.225 387.339 360.18 374.726C360.049 374.552 359.571 374.552 359.049 374.422C357.614 384.599 350.917 391.383 343.784 397.864C334.869 402.082 326.041 406.084 315.777 406.388C307.558 406.649 300.078 404.996 293.032 400.908C292.162 399.603 291.336 398.299 289.336 397.255C286.857 408.606 280.464 416.739 269.939 421.306C259.285 425.96 249.021 425.22 238.888 418.044C237.322 429.743 230.973 438.137 222.406 445.096C209.533 455.577 195.051 459.057 178.96 454.925C175.176 453.925 174.219 454.882 173.915 458.448C172.915 470.191 173.219 482.021 170.479 493.589C163.956 521.598 151.474 546.128 128.99 564.699C109.246 581.008 86.7622 582.356 66.4527 568.7C56.3631 561.915 48.1002 553.347 41.3158 543.301C24.7899 518.945 14.8308 491.893 8.56832 463.363C-0.999338 419.914 -2.08657 376.031 2.9582 331.843C8.08994 286.655 17.6576 242.641 35.5317 200.672C67.9748 124.474 122.597 70.2393 198.921 38.6642C237.453 22.7027 278.246 17.7881 319.822 21.4414C340.349 23.2246 359.919 29.096 378.576 37.8813C395.45 45.7969 408.323 58.0181 418.108 74.3275C420.587 70.8917 422.631 67.7168 425.022 64.8028C449.768 35.1413 479.906 12.656 517.785 4.08813C566.102 -6.82834 610.809 4.2621 650.906 33.3147C672.868 49.2327 687.481 70.2828 693.787 96.8129C694.396 99.4659 695.526 100.727 698.919 100.64C720.315 100.249 739.755 107.512 758.108 117.645C802.206 142.001 828.169 180.317 841.738 227.941C848.044 250.078 851.871 272.781 850.783 295.614C848.957 334.105 839.998 370.681 813.817 400.821C803.337 412.955 790.725 422.002 774.373 424.002C755.455 426.307 740.32 419.653 729.666 403.692C723.273 394.036 718.489 383.729 718.228 371.812C718.141 367.289 716.967 364.984 711.661 367.245C707.442 369.072 702.746 368.246 698.353 367.115C683.349 363.244 671.129 355.372 663.04 341.716C650.254 361.418 612.07 363.462 595.501 336.801C594.848 335.714 594.979 333.322 592.5 334.235H592.587ZM694.744 104.728C693.787 103.119 692.439 101.597 691.917 99.8138C683.523 72.066 667.171 50.1026 643.383 33.7496C623.421 20.0062 601.546 11.0903 577.409 7.52399C554.664 4.17511 532.137 4.04464 510.262 11.4383C478.993 22.0068 452.943 40.4908 431.894 65.8466C417.368 83.2869 410.497 104.38 403.887 125.604C401.843 130.345 399.799 135.086 397.668 139.957C396.233 138.783 396.32 137.608 396.58 136.695C401.538 118.559 404.974 99.9008 413.628 82.9389C416.89 76.5021 416.194 74.7625 409.062 71.3266C407.148 69.326 405.409 67.1079 403.365 65.2812C376.358 41.7521 344.393 30.1833 309.123 27.7042C291.51 26.443 273.723 27.1823 256.24 29.8353C223.232 34.8369 192.18 45.2315 163.347 62.6282C134.34 80.112 109.42 102.119 87.545 127.692C71.5844 146.394 58.9725 167.27 48.5785 189.538C40.707 206.369 33.9226 223.679 28.7909 241.467C23.7896 258.69 19.7886 276.13 16.3529 293.788C12.4824 313.881 9.95998 334.105 8.95973 354.415C7.829 376.553 8.00296 398.777 10.5253 420.914C13.5261 447.358 19.1362 473.105 28.6604 497.939C31.4437 505.158 33.7052 512.726 38.8369 518.815C38.9674 519.685 38.8369 520.641 39.2718 521.337C46.5345 534.167 54.4496 546.563 66.1482 555.957C72.2802 560.871 78.9341 565.221 86.7187 566.612C101.418 569.309 114.074 564.264 124.685 554.348C151.257 529.557 164.782 498.982 165.174 462.493C165.261 454.055 163.043 445.748 164.434 436.267C167.609 439.616 169.435 443.226 173.437 444.618C186.005 449.01 198.312 449.315 209.881 442.008C219.927 435.702 228.233 427.96 230.103 415.174C231.147 408.041 230.321 400.952 230.799 393.906C230.886 392.514 229.886 390.253 232.06 389.992C233.8 389.774 234.322 391.992 234.713 393.428C235.931 397.733 237.279 402.082 237.975 406.519C238.627 410.65 240.628 413.303 244.542 414.347C259.763 418.392 274.897 413.651 280.855 397.124C283.813 388.904 285.117 380.38 285.03 371.682C285.03 370.725 284.726 369.333 286.117 369.159C287.335 368.985 287.857 370.072 288.031 371.16C288.422 373.378 288.901 375.552 289.162 377.771C290.858 391.818 292.989 393.036 303.557 396.342C307.21 397.472 311.559 397.168 315.473 396.689C329.911 394.906 342.132 389.383 348.873 375.378C352.83 367.158 354.265 358.286 355.874 349.414C356.179 347.718 356.135 345.282 358.092 345.413C359.962 345.5 360.049 347.935 360.049 349.675C360.093 353.154 360.049 356.633 360.049 360.113C360.049 362.026 360.441 363.723 361.398 365.506C372.879 386.556 401.799 382.555 412.237 367.506C418.63 358.286 419.543 347.544 420.5 336.845C420.761 333.887 420.195 330.756 422.848 328.146C425.892 333.365 424.544 338.671 424.631 343.76C424.718 348.153 426.588 348.587 429.806 346.761C435.286 343.629 440.157 339.976 442.723 333.8C446.419 324.841 448.202 315.621 447.68 305.965C447.593 304.313 447.159 301.834 449.246 301.529C451.464 301.181 451.725 303.617 451.768 305.27C451.899 316.577 459.64 323.145 467.555 328.929C479.863 337.888 493.823 337.54 507.13 331.887C515.35 328.407 527.136 326.972 525.179 312.837C526.005 313.359 526.57 313.533 526.831 313.924C527.614 315.055 528.31 316.273 528.962 317.491C536.181 330.756 546.619 338.715 562.449 337.367C568.885 336.845 574.887 334.974 580.541 331.582C586.151 328.233 591.282 324.841 590.804 316.621C594.631 319.926 595.675 323.928 597.458 327.363C607.808 346.978 628.509 355.851 650.863 345.804C659.387 341.977 661.866 337.062 660.561 327.668C660.343 326.233 659.561 324.058 661.344 323.493C663.518 322.84 663.475 325.276 663.866 326.624C667.519 339.193 674.869 349.066 686.35 355.329C695.092 360.069 703.963 365.419 714.662 359.982C718.097 358.243 718.967 354.328 722.142 352.328C723.925 355.198 721.403 357.547 721.881 360.069C724.099 371.769 725.708 383.598 731.536 394.341C739.364 408.78 750.801 418.435 767.632 418.522C782.853 418.609 795.682 411.216 806.163 400.517C814.165 392.34 820.95 383.077 826.473 373.03C837.432 353.067 844.869 331.93 845.913 309.01C846.695 291.178 846.174 273.39 842.999 255.689C838.911 233.073 832.692 211.11 822.559 190.538C811.991 169.14 797.422 150.656 778.548 135.912C754.02 116.732 726.23 105.859 694.874 104.772L694.744 104.728Z" fill="#216F2D"/>
<path d="M518.481 706.613C521.829 687.172 519.698 667.514 520.742 647.986C521.351 636.373 521.395 624.848 520.525 613.279C518.916 592.403 515.219 572.049 503.172 554.217C493.953 540.604 480.688 532.515 465.467 527.078C447.158 520.511 427.936 517.771 409.061 513.596C387.882 508.942 368.051 501.07 350.699 487.631C340.827 479.977 334.521 469.712 329.345 458.622C328.345 456.447 328.911 455.491 331.389 455.23C335.303 454.795 339.218 454.055 343.132 453.403C344.958 453.055 346.002 453.533 346.611 455.447C352.264 473.322 366.877 480.02 383.142 484.282C396.884 487.936 410.932 489.675 425.153 489.675C441.635 489.675 458.118 490.371 474.556 488.675C490.039 487.109 505.39 484.848 520.394 480.759C530.919 477.889 537.79 470.278 541.356 460.057C543.748 453.229 545.749 446.183 547.532 439.181C548.141 436.789 549.097 435.789 551.489 435.267C558.752 433.745 566.015 432.048 573.147 430.091C576.539 429.135 577.191 430.265 576.67 433.266C572.756 456.186 571.233 479.324 571.755 502.505C572.234 524.121 573.408 545.736 574.886 567.308C575.93 582.661 576.887 598.014 578.018 613.323C579.496 633.677 580.54 654.075 581.105 674.472C582.236 716.094 594.152 754.845 613.157 791.596C627.596 819.518 649.645 840.046 676.347 856.051C690.307 864.445 705.963 868.62 720.967 874.448C724.272 875.709 727.186 877.449 730.057 879.406C730.97 880.015 732.709 880.407 732.448 881.755C732.144 883.407 730.404 884.19 728.926 884.538C724.881 885.495 720.793 886.147 716.749 886.974C695.526 891.323 674.825 897.368 654.124 903.718C633.119 910.155 612.07 916.592 591.021 922.898C583.193 925.247 576.278 923.116 570.364 917.679C556.621 905.023 546.314 890.018 539.486 872.621C534.572 860.183 531.441 847.222 528.222 834.305C527.7 832.174 529.397 716.877 518.524 706.743L518.481 706.613Z" fill="#756118"/>
<path d="M38.7489 518.901C33.6172 512.769 31.3557 505.201 28.5724 498.025C19.0482 473.191 13.4381 447.444 10.4373 421.001C7.91494 398.82 7.74098 376.596 8.8717 354.502C9.87196 334.191 12.3943 313.967 16.2649 293.874C19.6571 276.216 23.7016 258.733 28.7029 241.553C33.8781 223.765 40.6624 206.455 48.4905 189.624C58.8845 167.356 71.4964 146.48 87.457 127.778C109.332 102.162 134.252 80.1983 163.259 62.7145C192.092 45.3178 223.187 34.9667 256.152 29.9216C273.635 27.2686 291.422 26.5293 309.035 27.7905C344.305 30.313 376.27 41.8384 403.277 65.3675C405.364 67.1942 407.104 69.3688 408.974 71.4129C404.886 77.2408 401.494 83.4601 398.102 89.723C383.402 116.905 370.225 144.653 362.832 174.967C355.004 207.064 346.915 239.118 336.086 270.388C331.345 284.045 325.735 297.266 315.124 307.617C309.949 312.706 303.295 312.619 298.12 307.4C293.51 302.746 291.509 296.962 291.074 290.569C290.639 284.436 288.16 281.305 283.638 281.087C277.723 280.783 274.635 283.958 274.418 290.873C274.157 299.484 275.157 308.183 272.374 316.664C268.764 327.711 265.589 338.975 257.283 347.673C253.108 352.023 250.368 351.457 247.976 345.977C247.585 345.02 247.454 343.977 247.193 342.976C245.715 337.366 242.41 334.626 237.843 335.322C233.973 335.931 230.885 340.976 231.755 346.021C233.538 356.067 231.059 365.288 226.319 373.899C220.665 384.163 211.576 385.511 202.617 377.726C194.963 371.116 189.135 372.638 185.873 382.206C183.221 389.991 179.828 397.341 173.696 403.082C166.042 410.258 157.475 410.171 150.386 402.604C147.429 399.472 144.124 398.907 140.601 400.908C136.861 403.039 135.556 407.866 138.209 411.781C140.775 415.608 140.775 419.479 140.905 423.654C141.166 431.83 140.34 439.92 138.731 447.879C136.252 460.187 133.164 472.234 122.988 480.933C119.639 483.803 116.203 486.891 111.42 484.716C106.549 482.498 104.461 478.193 104.331 472.93C104.287 469.799 104.548 466.667 104.244 463.536C103.722 457.969 100.808 455.098 96.2419 455.185C91.719 455.316 88.5877 458.491 88.8922 465.797C89.4575 478.149 84.4997 488.544 78.8026 498.634C69.3654 515.378 57.7538 525.338 38.5749 518.814L38.7489 518.901Z" fill="#2EA947"/>
<path d="M495.647 679.169C500.344 686.345 505.259 693.39 509.477 700.915C511.304 704.176 515.522 704.611 518.479 706.612C529.352 716.789 535.397 729.576 538.397 743.928C541.137 756.976 541.398 770.197 540.528 783.549C539.528 799.206 538.05 814.602 527.786 827.476C521.437 831.39 515 833.26 508.042 828.694C500.344 823.649 495.778 816.647 494.604 807.6C494.082 803.686 495.386 799.38 489.689 797.945C488.124 797.554 487.123 794.901 485.645 793.03C481.6 798.293 475.642 798.597 469.597 798.467C460.421 796.684 452.158 793.291 447.07 784.723C438.154 795.988 427.587 796.162 415.844 785.332C414.583 788.29 412.191 790.203 409.886 792.204C406.32 793.291 402.798 794.553 398.927 793.291C397.492 792.813 395.622 793.074 395.578 795.335C395.404 804.556 391.142 812.08 386.011 819.3C380.792 823.257 375.921 827.693 369.05 828.737C364.788 829.39 360.743 829.346 357.047 826.824C355.351 825.693 354.22 824.866 353.655 827.911C350.132 847.439 315.732 863.487 293.378 849.005C277.592 838.784 269.894 824.432 269.155 805.947C268.241 783.419 274.808 762.673 285.289 743.232C310.122 697.348 346.218 664.555 397.144 649.898C433.545 639.417 464.553 649.899 491.429 675.254C492.821 676.559 494.212 677.82 495.604 679.125L495.647 679.169Z" fill="#248937"/>
<path d="M694.742 104.771C694.264 118.167 693.394 131.649 685.348 142.957C678.477 152.656 671.04 162.137 658.602 165.66C651.427 167.704 644.207 167.313 636.945 167.356C631.422 167.356 629.551 169.226 628.986 174.576C627.899 184.971 624.246 194.365 617.983 202.715C613.808 208.282 609.068 208.761 603.893 204.237C601.153 201.845 598.152 201.019 594.76 202.28C591.542 203.455 590.15 206.021 589.367 209.326C586.497 221.417 580.756 231.333 567.623 234.508C560.403 236.248 554.402 233.16 549.096 228.636C541.92 222.548 537.31 214.632 534.266 205.803C532.875 201.845 531.178 198.018 526.134 198.714C521.393 199.366 520.524 203.15 519.393 207.282C512.913 231.463 495.909 253.688 467.293 257.124C446.94 259.559 428.152 256.123 413.018 241.467C403.146 231.942 399.275 219.199 397.666 205.89C395.231 186.014 396.318 166.313 400.319 146.611C401.711 139.695 404.537 132.911 403.929 125.604C410.539 104.38 417.41 83.2865 431.936 65.8462C453.028 40.5339 479.035 22.0064 510.304 11.4378C532.222 4.04422 554.75 4.1747 577.451 7.52357C601.588 11.0899 623.463 20.0058 643.425 33.7492C667.213 50.1456 683.565 72.0656 691.959 99.8134C692.481 101.553 693.829 103.075 694.785 104.728L694.742 104.771Z" fill="#2EA947"/>
<path d="M472.6 668.035C472.991 690.086 463.554 707.221 446.637 720.878C440.809 725.575 435.025 730.098 428.589 733.925C424.936 736.1 422.457 735.883 419.673 732.577C417.673 730.185 415.759 727.445 411.758 727.402C403.626 727.315 400.147 729.359 397.581 737.405C395.885 742.667 394.841 748.191 391.231 752.627C390.144 753.975 389.144 755.497 387.752 756.454C380.968 761.325 379.402 763.196 374.705 755.454C372.792 752.279 369.443 750.8 365.66 751.627C361.572 752.497 359.049 755.237 357.962 759.238C356.875 763.196 356.483 767.371 353.961 770.894C350.09 776.33 347.307 776.895 342.132 772.764C338.131 769.545 332.39 770.85 330.042 775.895C326.954 782.549 322.214 787.247 315.386 789.813C304.557 793.857 294.337 788.116 287.422 777.548C285.074 773.938 285.161 769.197 281.855 766.066C286.161 749.713 295.12 735.622 304.6 722.009C320.865 698.61 341.436 679.996 366.747 666.6C378.88 660.163 391.318 654.553 404.843 651.9C429.806 647.029 452.464 652.291 472.6 668.035Z" fill="#2EA947"/>
<path d="M576.19 740.275C586.715 775.721 600.979 809.341 624.898 838.132C609.329 832.652 571.841 757.15 576.19 740.275Z" fill="#5B4A0E"/>
<path d="M592.629 815.387C602.675 830.478 613.243 845.179 623.289 860.27C614.982 856.052 593.716 825.216 592.629 815.387Z" fill="#5B4A0E"/>
<path d="M561.012 523.381C560.577 505.854 558.881 488.326 562.882 470.93C563.665 488.457 562.882 505.897 561.012 523.381Z" fill="#5B4A0E"/>
<path d="M560.621 563.699C560.751 557.349 558.881 550.825 562.36 544.736C562.665 551.13 562.665 557.479 560.621 563.699Z" fill="#5B4A0E"/>
<path d="M647.686 863.444C643.12 860.835 640.554 857.442 637.771 854.311C637.466 853.963 637.51 852.963 637.771 852.441C638.162 851.658 639.076 851.876 639.511 852.397C642.381 855.529 646.643 857.703 647.686 863.444Z" fill="#5B4A0E"/>
<path d="M74.7588 367.071C77.0203 373.247 76.6289 378.466 77.2812 383.468C78.151 389.991 79.9341 395.95 84.8049 400.647C88.3275 404.039 90.415 403.648 91.6762 398.994C93.4593 392.514 94.677 385.816 94.9814 379.118C95.3293 371.855 96.6775 364.679 96.1556 357.372C96.1121 356.764 96.1556 355.937 97.1993 355.633C99.4608 356.59 99.1564 358.895 99.5043 360.808C101.809 374.465 102.636 388.165 100.331 401.952C99.8087 405.214 97.8952 407.736 95.8512 409.998C91.9806 414.216 86.7619 414.173 81.9781 410.346C76.6289 406.04 74.063 399.995 73.4107 393.645C72.6279 385.903 73.2367 378.031 73.2802 370.246C73.2802 369.637 73.8021 369.072 74.7588 367.115V367.071Z" fill="#216F2D"/>
<path d="M221.231 240.25C221.014 235.944 221.796 231.595 220.361 227.376C219.97 226.202 220.231 224.636 221.666 224.419C222.84 224.201 223.145 225.549 223.405 226.593C226.102 238.162 229.19 249.731 226.363 261.778C225.754 264.301 224.58 266.649 222.797 268.606C219.013 272.825 215.751 272.956 211.75 269.041C207.575 264.866 205.357 259.647 204.053 253.993C201.313 241.989 202.531 229.986 204.444 218.025C204.705 216.503 204.662 214.502 206.836 214.763C208.837 215.024 208.663 216.981 208.706 218.504C209.01 227.985 208.01 237.553 209.706 246.991C210.489 251.297 211.707 255.385 213.968 259.125C214.664 260.299 215.36 261.865 216.882 261.778C218.535 261.691 218.709 259.908 219.143 258.647C221.187 252.645 221.579 246.469 221.231 240.206V240.25Z" fill="#216F2D"/>
<path d="M92.5879 152.569C93.2838 157.353 91.2398 160.702 89.8916 164.094C87.3257 170.575 85.6296 177.229 84.7598 184.144C84.6294 185.188 84.4989 186.319 84.8468 187.232C85.5426 189.276 84.7598 192.32 87.2387 193.06C89.4567 193.712 90.7614 191.146 92.066 189.667C99.2418 181.534 101.46 171.357 103.46 161.093C103.808 159.223 104.2 157.353 104.548 155.526C104.765 154.483 105.026 153.308 106.331 153.526C107.244 153.656 107.548 154.7 107.592 155.57C108.027 169.574 107.679 183.405 98.7199 195.278C97.3718 197.061 95.7626 198.67 93.7621 199.801C85.5861 204.585 78.6713 200.801 78.3669 191.407C78.019 179.316 84.4989 161.05 92.5879 152.525V152.569Z" fill="#216F2D"/>
<path d="M133.686 166.356C133.686 161.485 133.686 158.006 133.686 154.526C133.686 153.526 133.555 152.221 134.99 152.178C135.86 152.178 136.469 153.048 136.643 153.961C138.6 165.53 140.818 177.142 139.687 188.972C139.426 191.451 138.165 193.973 136.904 196.192C134.903 199.758 132.12 202.976 127.597 202.672C122.813 202.367 119.856 198.975 118.029 194.887C114.333 186.667 115.985 178.229 117.377 169.879C117.986 166.313 119.03 162.833 119.899 159.31C120.16 158.354 120.291 157.049 121.77 157.484C122.683 157.745 123.118 158.615 123.118 159.528C123.118 161.094 122.944 162.616 122.726 164.138C121.639 172.097 121.639 180.056 123.683 187.841C124.205 189.842 124.77 192.973 127.336 192.973C130.119 192.973 130.859 189.972 131.424 187.624C133.164 180.187 134.034 172.619 133.599 166.356H133.686Z" fill="#216F2D"/>
<path d="M257.719 84.5488C264.155 94.117 269.243 103.424 271.244 114.123C271.896 117.69 270.287 120.734 267.33 122.648C264.677 124.344 261.85 123.822 259.023 122.343C247.281 116.167 243.237 104.947 239.627 93.4212C239.366 92.5513 239.149 91.638 240.366 91.4205C241.715 91.1596 242.149 92.2904 242.584 93.1602C245.107 98.1183 248.02 102.772 251.63 107.078C254.457 110.427 258.153 114.993 261.937 113.384C265.329 111.905 262.328 106.425 261.676 102.902C260.98 98.8577 259.154 94.9869 257.719 91.1161C257.023 89.2894 256.283 87.5933 257.762 84.6358L257.719 84.5488Z" fill="#216F2D"/>
<path d="M260.501 76.938C264.067 76.1116 266.763 78.5037 269.633 79.591C275.156 81.6786 280.723 83.5922 286.464 84.8535C288.203 85.2449 290.465 85.6798 291.639 83.5922C292.77 81.5481 291.421 79.7649 290.16 78.4602C285.985 74.0675 281.593 69.8488 277.287 65.5431C276.331 64.5863 274.852 63.4555 275.809 62.0202C276.94 60.411 278.375 61.9333 279.418 62.5421C285.376 66.065 291.204 69.9358 295.944 74.9808C302.033 81.4176 300.076 90.2465 292.683 91.9862C289.943 92.6385 287.507 91.5512 285.116 90.8119C277.287 88.4198 270.329 84.0271 263.11 80.2868C261.979 79.6779 260.761 78.7646 260.457 76.9815L260.501 76.938Z" fill="#216F2D"/>
<path d="M378.792 295.701C379.271 301.051 378.749 307.836 374.791 314.055C372.704 317.317 370.182 319.709 366.05 319.622C361.919 319.535 359.44 317.1 357.526 313.751C353.09 305.966 354.786 297.485 355.091 289.265C355.265 285.003 356.526 280.784 357.57 276.609C358.092 274.608 358.222 271.085 360.788 271.65C363.18 272.172 362.353 275.739 361.919 277.696C360.657 283.219 361.136 288.743 361.049 294.266C361.005 298.442 362.136 302.486 363.397 306.444C363.745 307.575 364.18 308.923 365.659 309.01C367.181 309.097 367.572 307.662 368.051 306.618C371.53 298.746 372.617 290.396 373.53 281.958C373.661 280.74 373.53 279.523 373.53 278.305C373.53 276.391 373.443 273.651 375.487 273.521C377.749 273.39 377.314 276.217 377.749 278C379.01 283.306 378.662 288.656 378.749 295.745L378.792 295.701Z" fill="#216F2D"/>
<path d="M612.722 250.644C612.982 257.124 612.026 263.561 612.243 270.085C612.374 273.868 613.591 277.217 614.896 280.61C615.461 282.132 616.723 283.828 618.68 283.785C620.376 283.741 621.202 282.132 621.854 280.697C626.334 271.041 628.682 260.777 630.03 250.252C630.378 247.686 630.77 245.12 631.248 242.598C631.422 241.728 631.987 240.902 632.944 240.945C634.075 240.988 634.162 241.989 634.162 242.902C633.988 256.559 635.51 270.346 630.117 283.48C627.638 289.482 621.767 294.266 617.505 293.483C611.939 292.439 607.503 286.264 607.024 279.522C606.329 269.476 608.46 259.994 612.678 250.774L612.722 250.644Z" fill="#216F2D"/>
<path d="M730.231 211.414C733.797 215.633 734.753 220.765 735.797 225.679C737.972 235.639 735.884 245.033 730.709 253.601C726.751 260.125 718.619 260.864 712.661 255.732C707.66 251.427 705.181 245.512 704.485 239.379C703.659 232.421 704.311 225.288 704.311 216.938C708.442 221.026 707.399 225.418 708.225 229.115C709.747 236.117 711.313 242.989 716.662 248.252C720.532 252.036 723.359 251.775 725.925 246.642C730.752 237.118 732.362 227.028 729.665 216.503C729.23 214.85 728.535 213.241 730.231 211.414Z" fill="#216F2D"/>
<path d="M761.282 195.975C767.458 204.629 774.199 212.98 775.938 223.896C776.982 230.551 773.546 238.553 769.458 240.336C764.718 242.38 757.76 240.119 754.281 235.509C750.193 230.072 748.453 223.766 747.931 217.112C747.583 212.632 748.105 208.109 746.931 203.673C746.496 202.107 746.365 199.541 748.453 199.28C750.671 199.019 750.584 201.759 750.801 203.194C752.063 211.066 753.541 218.851 757.325 225.984C759.195 229.507 761.587 234.291 765.501 233.508C769.763 232.682 769.328 227.071 769.632 223.288C770.024 218.199 768.197 213.415 765.979 208.848C763.979 204.716 761.761 200.715 761.282 195.975Z" fill="#216F2D"/>
<path d="M483.601 93.9864C483.992 94.6388 484.732 95.2912 484.775 95.987C485.167 110.296 486.863 124.822 478.948 138C477.469 140.436 475.555 142.436 473.25 144.002C466.466 148.569 458.855 144.872 456.985 136.348C455.376 128.91 455.768 121.647 457.725 114.341C460.204 105.077 464.553 96.7699 469.206 87.8105C471.119 90.3331 470.293 92.2032 469.641 94.1169C467.205 101.51 464.509 108.817 463.639 116.602C462.943 122.691 464.074 128.606 465.596 134.477C466.249 136.913 467.51 137.348 469.684 135.478C474.468 131.346 476.034 125.692 477.686 120.038C479.948 112.427 480.6 104.468 481.948 96.6394C482.122 95.5956 482.079 94.5083 483.601 94.0299V93.9864Z" fill="#216F2D"/>
<path d="M519.611 117.298C518.655 109.426 515.871 101.38 511.522 93.769C510.261 91.5074 507.217 87.8976 509.087 86.7233C512.044 84.8531 513.131 89.3763 514.74 91.2899C520.786 98.5096 525.395 106.599 528.135 115.689C529.962 121.734 528.353 127.084 525.004 131.911C521.96 136.304 514.74 136.217 510.087 132.477C503.738 127.388 500.693 120.56 499.824 112.731C499.389 108.817 498.041 104.946 498.649 100.902C498.823 99.8144 498.171 98.0747 499.911 97.9877C501.302 97.9442 501.476 99.4664 501.824 100.684C504.129 108.078 505.564 115.95 511.696 121.473C513.392 122.996 514.697 126.214 517.393 125.127C520.264 123.996 519.35 120.69 519.568 117.298H519.611Z" fill="#216F2D"/>
<path d="M470.556 760.934C475.774 753.932 475.253 745.494 478.775 738.405C480.906 745.19 479.558 751.844 478.471 758.498C478.253 759.673 478.079 760.934 477.644 762.021C476.296 765.327 474.6 768.328 470.295 768.154C466.207 767.98 464.554 765.196 463.815 761.804C461.901 752.931 465.207 744.755 467.729 736.535C467.99 735.709 468.642 734.882 469.686 735.317C470.904 735.839 470.643 737.057 470.338 738.014C468.86 743.015 468.294 748.147 468.468 753.366C468.555 755.802 468.86 758.107 470.643 760.847L470.556 760.934Z" fill="#216F2D"/>
<path d="M489.516 746.017C490.386 749.41 491.212 752.758 492.082 756.151C492.386 757.325 492.43 758.586 492.908 759.674C494.213 762.457 495.431 766.806 498.475 766.328C501.084 765.936 499.258 761.544 499.693 758.978C500.693 753.237 497.649 747.539 499.606 741.668C503.302 749.931 506.607 758.238 505.825 767.502C505.564 770.677 503.52 772.852 500.519 773.982C497.431 775.157 495.17 773.504 493.126 771.503C490.603 768.981 489.56 765.719 488.82 762.283C487.646 756.89 488.429 751.541 488.211 746.191C488.646 746.148 489.038 746.061 489.473 746.017H489.516Z" fill="#216F2D"/>
<path d="M318.516 733.231C318.168 738.102 316.515 742.712 317.167 747.583C317.428 749.453 316.863 751.715 319.342 752.324C321.603 752.889 322.865 750.932 323.821 749.41C326.866 744.713 328.127 739.233 329.649 733.927C330.171 732.187 330.432 730.404 332.215 729.143C332.737 738.232 332.65 747.148 326.866 754.933C324.474 758.152 321.255 759.804 317.341 758.587C313.427 757.369 312.384 753.411 312.297 750.149C312.166 743.93 314.297 738.145 318.516 733.231Z" fill="#216F2D"/>
<path d="M373.27 687.695C373.27 689.913 373.748 692.305 373.183 694.349C371.921 698.742 372.53 702.917 373.617 707.136C373.965 708.44 374.096 710.18 375.792 710.311C377.314 710.398 378.053 708.875 378.706 707.658C381.446 702.439 380.837 696.524 381.837 690.957C382.098 689.521 382.054 688.043 382.185 685.955C386.534 693.653 385.751 708.179 381.054 714.094C377.271 718.878 371.965 718.183 369.747 712.442C366.398 703.743 369.008 695.61 373.313 687.695H373.27Z" fill="#216F2D"/>
<path d="M413.02 676.299C417.803 677.865 418.63 682.04 421.456 684.171C422.544 684.997 423.544 686.389 425.023 685.215C426.197 684.258 425.197 682.997 424.849 681.866C423.848 678.517 422.196 675.516 420.369 672.559C419.412 671.037 417.803 669.601 419.239 666.861C425.24 671.602 430.589 676.647 432.764 683.997C433.677 687.129 433.634 691.13 429.98 692.608C426.458 694.087 422.631 693.13 420.152 689.868C417.238 686.041 414.977 681.779 413.02 676.212V676.299Z" fill="#216F2D"/>
<path d="M495.647 679.169C500.344 686.345 505.259 693.39 509.477 700.915C511.304 704.176 515.522 704.611 518.479 706.612C529.352 716.789 535.397 729.576 538.397 743.928C541.137 756.976 541.398 770.197 540.528 783.549C539.528 799.206 538.05 814.602 527.786 827.476C521.437 831.39 515 833.26 508.042 828.694C500.344 823.649 495.778 816.647 494.604 807.6C494.082 803.686 495.386 799.38 489.689 797.945C488.124 797.554 487.123 794.901 485.645 793.03C481.6 798.293 475.642 798.597 469.597 798.467C460.421 796.684 452.158 793.291 447.07 784.723C438.154 795.988 427.587 796.162 415.844 785.332C414.583 788.29 412.191 790.203 409.886 792.204C406.32 793.291 402.798 794.553 398.927 793.291C397.492 792.813 395.622 793.074 395.578 795.335C395.404 804.556 391.142 812.08 386.011 819.3C380.792 823.257 375.921 827.693 369.05 828.737C364.788 829.39 360.743 829.346 357.047 826.824C355.351 825.693 354.22 824.866 353.655 827.911C350.132 847.439 315.732 863.487 293.378 849.005C277.592 838.784 269.894 824.432 269.155 805.947C268.241 783.419 274.808 762.673 285.289 743.232C310.122 697.348 346.218 664.555 397.144 649.898C433.545 639.417 464.553 649.899 491.429 675.254C492.821 676.559 494.212 677.82 495.604 679.125L495.647 679.169ZM281.854 766.065C274.46 782.027 273.765 798.771 276.983 815.733C280.288 832.999 298.597 853.136 319.559 847.656C332.345 844.307 347.784 835.435 351.48 819.126C351.741 817.951 352.002 816.777 352.437 815.646C352.785 814.733 353.133 813.515 354.481 813.776C355.438 813.993 355.699 814.994 355.699 815.864C355.873 821.257 359.526 822.257 363.875 822.387C373.225 822.648 378.748 816.429 383.749 809.992C389.403 802.642 391.055 793.683 392.23 784.723C392.404 783.419 392.012 781.505 393.882 781.505C395.361 781.505 395.317 783.201 395.361 784.376C395.404 786.115 395.97 787.333 397.796 787.898C403.015 789.464 408.06 787.463 410.582 782.592C411.843 780.113 413.018 777.591 414.105 775.068C414.54 774.068 414.844 772.85 415.975 772.894C417.41 772.894 417.106 774.285 417.28 775.286C418.323 781.462 422.977 786.507 428.021 786.985C434.849 787.637 439.938 784.506 442.677 777.982C443.33 776.373 443.939 774.764 444.634 773.198C444.982 772.415 445.591 771.545 446.591 772.024C447.026 772.241 447.505 773.155 447.418 773.676C446.2 780.07 451.071 783.114 454.854 786.42C461.508 792.204 477.208 796.075 484.688 786.942C486.645 784.506 487.558 784.941 488.472 788.116C490.124 793.944 493.603 795.422 499.214 793.552C500.257 793.204 501.518 791.769 502.432 793.204C503.345 794.64 501.997 795.77 500.91 796.64C499.474 797.814 497.387 798.423 497.691 800.902C498.735 810.471 502.345 818.647 510.521 824.171C516.696 828.346 522.35 826.215 526.09 821.431C529.395 817.168 531.961 812.384 533.005 806.991C535.701 793.204 536.527 779.461 535.44 765.283C534.222 750.06 530.352 736.056 522.872 722.921C515.522 710.004 503.258 702.915 486.906 710.961C485.514 711.657 484.21 713.136 481.731 711.918C487.602 705.264 494.169 701.132 502.997 701.436C504.128 701.436 505.65 702.002 506.346 700.697C507.085 699.262 505.52 698.609 504.824 697.74C499.344 690.737 492.995 684.562 486.558 678.516C482.34 674.558 478.078 670.427 472.598 668.078C452.462 652.334 429.804 647.072 404.842 651.943C391.316 654.596 378.922 660.206 366.745 666.643C341.434 680.038 320.864 698.653 304.599 722.052C295.118 735.708 286.203 749.756 281.854 766.109V766.065Z" fill="#216F2D"/>
</g>
<defs>
<clipPath id="clip0_4459_2147">
<rect width="851" height="1109" fill="white"/>
</clipPath>
</defs>
</svg>
