<svg width="964" height="1520" viewBox="0 0 964 1520" fill="none" xmlns="http://www.w3.org/2000/svg">
<g clip-path="url(#clip0_4504_1912)">
<path d="M469.751 1266.5C481.503 1284 447 1281.5 449.251 1303.5C451.503 1325.5 507.5 1323.5 507.5 1347C510 1361.5 476.5 1356 484 1393C491.5 1430 615.681 1454.73 649.251 1485.5C716.788 1547.41 820.235 1512.74 892 1485.5C946 1465 964.751 1421 964 1335C963.248 1249 726.779 972.502 469.751 972.502C321.789 955.523 212.03 997.827 98.9994 1078C55.9994 1108.5 -10.7484 1185.5 1.4996 1226.5C13.7477 1267.5 65.9994 1272.5 98.9994 1266.5C132 1260.5 243.868 1204 273.751 1253.5C310.023 1313.58 458 1249 469.751 1266.5Z" fill="#4F8C2A"/>
<path d="M707.367 661.096C697.705 662.5 688.168 661.798 678.63 659.609C667.895 657.131 658.481 651.886 649.356 645.939C643.493 639.702 638.621 633.012 637.423 624.132C637.01 620.911 635.029 622.439 633.749 623.884C630.858 627.188 627.596 630.038 623.302 631.36C616.118 633.507 607.241 629.749 602.328 622.15C600.882 619.878 600.057 618.722 597.744 621.158C588.909 630.41 578.132 630.905 566.695 627.56C550.221 622.728 541.22 610.71 537.751 594.726C533.003 572.796 538.288 551.732 545.927 531.413C553.4 511.465 564.053 493.003 577.884 476.772C594.152 457.65 612.98 441.708 635.524 429.772C658.109 417.795 681.561 408.172 706.046 401.729C742.958 391.982 778.673 397.434 812.283 415.524C846.553 433.985 870.5 462.152 888.213 496.39C904.027 526.911 914.638 558.919 918.561 592.992C922.029 623.224 923.309 653.497 914.886 683.316C913.193 689.346 911.046 695.21 908.032 700.703C895.811 723.129 870.872 727.631 852.003 710.326C840.731 700.001 834.125 686.909 832.514 671.504C832.39 670.306 833.092 668.695 831.399 668.076C830.037 667.58 829.294 668.737 828.551 669.563C816.04 682.944 801.63 679.97 788.748 671.008C779.334 664.441 774.421 655.231 773.884 643.048C770.705 646.971 766.947 649.862 762.24 649.738C757.533 649.615 752.992 647.963 749.11 645.071C746.674 643.254 745.188 640.652 743.825 638.05C743 636.481 742.091 635.82 741.1 637.513C733.42 650.564 721.364 657.255 707.326 661.179L707.367 661.096Z" fill="#0E5415"/>
<path d="M23.8253 380.541C22.4628 365.012 22.9583 349.483 23.9079 333.913C23.9079 333.913 24.6924 315.369 24.8989 313.593C26.1375 300.749 27.2523 287.905 28.9452 275.101C32.3309 249.412 38.5655 224.384 47.4427 200.017C48.6401 196.713 50.2091 193.492 51.6129 190.27C52.5213 189.609 52.5626 188.742 52.2735 187.792C52.6039 187.008 52.8929 186.223 53.2232 185.397C55.2464 183.621 56.5676 181.515 56.0721 178.665C56.4024 177.921 56.7328 177.178 57.0631 176.476C60.3249 173.007 62.1829 168.794 63.2564 164.21C63.6693 162.475 64.619 160.988 65.7338 159.625C69.6563 158.717 69.9866 155.578 70.193 152.398C71.2252 149.878 72.7942 147.772 74.5697 145.748C75.8909 145.583 76.3038 144.798 76.1799 143.559C77.2122 141.371 78.6573 139.471 80.3914 137.819C81.754 137.736 82.2494 136.951 82.1256 135.671C82.8688 134.721 83.612 133.813 84.3139 132.863C86.2545 132.656 87.1628 131.624 87.039 129.641C87.7822 128.113 88.8557 126.915 90.2182 125.924C92.0763 125.759 93.0672 124.726 93.0259 122.827C120.359 93.2142 149.84 66.8645 190.22 56.2503C219.536 48.5271 245.672 54.5157 268.959 73.6378C270.734 75.0833 272.468 76.6527 274.739 78.5938C277.795 69.8381 282.502 62.3215 288.076 55.3417C313.303 23.7881 346.376 5.65724 386.179 1.11419C427.22 -3.59406 465.247 7.47446 501.293 26.5966C527.8 40.68 547.413 61.6606 562.359 87.3908C563.309 89.0428 563.598 90.6949 566.406 89.1254C598.611 71.0772 632.427 69.136 667.605 78.759C698.448 87.1843 723.8 104.696 747.541 125.181C779.87 153.141 797.171 189.114 804.107 230.786C807.08 248.586 808.897 266.47 807.823 284.435C806.295 310.413 799.4 334.698 782.059 354.853C770.952 367.78 757.285 376.783 739.448 376.411C726.607 376.164 716.203 371.125 711.372 358.115C710.463 355.679 709.679 355.431 707.862 357.496C704.435 361.378 701.215 365.302 697.003 368.523C678.753 382.483 654.723 371.703 650.883 351.094C650.759 350.433 650.677 349.814 650.553 349.153L650.429 348.905C644.814 352.168 639.198 355.431 633.583 358.693C628.298 359.024 623.137 358.693 618.182 356.711C610.915 353.861 606.456 348.534 605.011 340.934C604.268 337.176 602.947 336.722 600.717 339.778C598.9 342.256 595.803 342.958 593.863 345.188C590.147 345.188 586.637 347.047 582.839 346.469C571.567 344.775 561.657 338.456 560.955 321.895C555.423 325.281 549.725 327.553 543.449 325.034C537.338 322.556 534.365 317.145 531.558 310.702C520.864 329.824 506.908 342.917 483.869 338.456C463.802 334.574 455.131 320.201 453.026 300.336C450.177 303.64 447.576 306.118 445.635 309.05C443.529 312.272 440.68 314.667 437.997 317.269C430.647 324.332 419.334 325.034 411.86 318.88C408.516 316.113 408.516 319.086 408.144 320.904C406.658 327.718 403.644 333.665 399.68 339.406C392.537 349.731 383.082 356.794 371.48 361.171C363.098 364.352 354.923 365.136 347.656 358.404C345.385 355.472 342.453 356.257 342.412 359.148C342.33 362.245 340.059 364.641 340.761 367.697C339.811 371.455 337.994 374.801 336.26 378.187C333.04 384.465 328.704 389.875 324.451 395.41C314.666 406.189 302.651 409.576 288.612 406.272C283.616 403.009 278.827 399.581 275.235 393.551C273.914 396.979 274.368 399.416 274.409 401.77C274.574 419.24 271.354 436.173 267.225 453.106C263.137 469.833 258.059 486.271 251.411 502.089C245.052 517.246 236.588 531.329 222.55 540.746C216.522 544.793 209.544 548.717 202.029 546.858C190.964 544.091 180.518 540.622 172.838 530.214C166.19 521.211 162.144 511.712 158.717 500.313C155.455 507.334 151.533 512.992 146.082 517.37C132.374 528.232 117.221 534.881 99.3431 531.164C83.7771 527.901 71.3904 519.559 61.1507 507.127C55.1638 499.858 50.2917 492.053 46.2453 483.793C36.5424 463.927 31.1335 442.699 27.7478 420.933C26.7156 414.49 25.6833 408.006 24.9814 401.522" fill="#0E5415"/>
<path d="M260.576 595.429C259.503 595.098 258.471 594.768 257.397 594.438C258.058 587.788 261.155 581.924 263.591 575.852C276.638 543.432 284.772 509.772 289.314 475.162C291.956 455.131 291.874 435.183 289.107 415.194C288.694 412.261 288.818 409.288 288.653 406.314C302.691 409.577 314.706 406.231 324.492 395.452C326.185 411.311 327.713 427.171 330.892 442.824C332.42 450.216 334.36 451.538 342.04 451.951C358.432 452.86 374.576 450.712 390.555 447.491C426.6 440.263 462.604 432.746 498.567 425.023C515.991 421.265 532.919 415.813 547.206 404.538C567.52 388.514 582.136 367.905 593.986 345.189C595.927 342.959 599.023 342.257 600.84 339.779C603.07 336.764 604.391 337.177 605.134 340.935C606.621 348.576 611.038 353.863 618.305 356.712C623.26 358.653 628.462 359.025 633.706 358.695C624.623 389.587 609.098 416.639 585.522 438.735C572.309 451.125 556.702 459.881 539.65 465.374C507.196 475.864 483.703 496.39 467.063 525.796C453.851 549.131 440.102 572.177 433.371 598.485C428.375 617.938 427.591 637.101 436.344 655.975C440.267 664.401 446.254 670.141 454.594 673.735C476.477 683.11 499.475 684.803 522.845 683.234C535.479 682.366 548.073 680.838 560.707 679.806C588.329 677.534 613.268 667.622 636.762 653.415C640.973 650.854 645.226 648.417 649.437 645.898C658.521 651.845 667.976 657.09 678.711 659.568C688.208 661.757 697.746 662.459 707.449 661.055C692.502 676.708 674.541 688.231 655.713 698.515C625.201 715.118 592.252 724.41 558.477 731.555C528.006 737.998 497.081 741.261 466.403 746.258C452.488 748.53 438.945 752.412 429.16 763.563C420.943 772.938 417.269 784.668 414.131 796.438C407.566 821.095 407.153 846.247 408.763 871.564C410.25 894.651 413.553 917.366 419.333 939.751C426.146 966.142 440.267 988.114 459.755 1006.91C472.101 1018.8 484.776 1030.41 494.479 1044.7C496.792 1048.08 498.939 1051.59 500.838 1055.19C502.407 1058.12 503.976 1058.9 507.32 1057.58C515 1054.61 522.969 1052.54 531.185 1051.55C532.176 1051.43 533.167 1051.34 534.117 1051.26C535.149 1051.22 536.264 1051.39 536.677 1052.38C537.255 1053.95 535.727 1054.19 534.819 1054.73C525.942 1059.77 516.899 1064.44 507.733 1068.94C472.885 1086.08 435.931 1095.33 397.491 1099.91C359.299 1104.46 323.46 1116.64 290.016 1135.89C268.545 1148.19 248.272 1162.53 226.472 1174.17C204.299 1185.98 183.448 1199.82 162.019 1212.79C159.79 1214.15 157.354 1215.14 154.918 1216.22C153.885 1216.67 152.605 1217.17 151.738 1216.09C150.995 1215.1 151.408 1213.82 151.862 1212.79C153.596 1209.15 156.487 1206.39 159.129 1203.5C167.428 1194.49 176.14 1185.98 185.554 1178.18C186.875 1177.1 188.486 1176.49 187.536 1173.88C181.425 1156.83 180.888 1139.07 181.384 1121.14C182.664 1073.77 183.159 1026.4 182.581 979.028C182.168 943.674 183.325 908.404 184.77 873.092C185.472 856.448 185.926 839.804 187.041 823.16C187.536 815.602 188.733 808.126 189.848 800.651" fill="#332522"/>
<path d="M23.8253 380.542C22.4628 365.013 22.9583 349.484 23.9079 333.913C25.1879 332.674 25.2292 331.394 24.0731 330.031C24.1556 326.81 23.6189 323.464 25.7659 320.615C25.7659 319.913 25.8072 319.252 25.8485 318.55C23.8666 317.228 24.7337 315.204 24.8989 313.552C26.1375 300.708 27.2523 287.863 28.9452 275.06C32.3309 249.371 38.5655 224.343 47.4427 199.976C48.6401 196.672 50.2091 193.451 51.6129 190.229C52.5213 189.568 52.5626 188.701 52.2735 187.751C52.6039 186.966 52.8929 186.182 53.2232 185.356C55.2464 183.58 56.5676 181.474 56.0721 178.624C56.4024 177.88 56.7328 177.137 57.0631 176.435C60.3249 172.966 62.1829 168.753 63.2564 164.169C63.6693 162.434 64.619 160.947 65.7338 159.584C69.6563 158.676 69.9866 155.537 70.193 152.357C71.2252 149.837 72.7942 147.731 74.5697 145.707C75.8909 145.542 76.3038 144.757 76.1799 143.518C77.2122 141.329 78.6573 139.43 80.3914 137.778C81.754 137.695 82.2494 136.91 82.1256 135.63C82.8688 134.68 83.612 133.772 84.3139 132.822C86.2545 132.615 87.1628 131.583 87.039 129.6C87.7822 128.072 88.8557 126.874 90.2182 125.883C92.0763 125.718 93.0672 124.685 93.0259 122.786C120.359 93.1732 149.84 66.8235 190.22 56.2093C219.536 48.4861 245.672 54.4747 268.959 73.5968C270.734 75.0423 272.468 76.6117 274.739 78.5528C277.795 69.7971 282.502 62.2804 288.076 55.3007C313.303 23.7471 346.376 5.61622 386.179 1.07317C427.22 -3.63508 465.247 7.43344 501.293 26.5556C527.8 40.639 547.413 61.6196 562.359 87.3498C563.309 89.0018 563.598 90.6538 566.406 89.0844C598.611 71.0361 632.427 69.095 667.605 78.718C698.448 87.1433 723.8 104.655 747.541 125.14C779.87 153.1 797.171 189.073 804.107 230.745C807.08 248.545 808.897 266.429 807.823 284.394C806.295 310.372 799.4 334.657 782.059 354.812C770.952 367.739 757.285 376.742 739.448 376.37C726.607 376.123 716.203 371.084 711.372 358.074C710.463 355.638 709.679 355.39 707.862 357.455C704.435 361.337 701.215 365.261 697.003 368.482C678.753 382.442 654.723 371.662 650.883 351.053C650.759 350.392 650.677 349.773 650.553 349.112L650.429 348.864C644.814 352.127 639.198 355.39 633.583 358.652C628.298 358.983 623.137 358.652 618.182 356.67C610.915 353.82 606.456 348.493 605.011 340.893C604.268 337.135 602.947 336.681 600.717 339.737C598.9 342.215 595.803 342.917 593.863 345.147C590.147 345.147 586.637 347.006 582.839 346.428C571.567 344.734 561.657 338.415 560.955 321.854C555.423 325.24 549.725 327.512 543.449 324.993C537.338 322.515 534.365 317.104 531.558 310.661C520.864 329.783 506.908 342.876 483.869 338.415C463.802 334.533 455.131 320.16 453.026 300.295C450.177 303.599 447.576 306.077 445.635 309.009C443.529 312.231 440.68 314.626 437.997 317.228C430.647 324.29 419.334 324.993 411.86 318.839C408.516 316.072 408.516 319.045 408.144 320.863C406.658 327.677 403.644 333.624 399.68 339.365C392.537 349.69 383.082 356.753 371.48 361.131C363.098 364.311 354.923 365.095 347.656 358.363C345.385 355.431 342.453 356.216 342.412 359.107C342.33 362.204 340.059 364.6 340.761 367.656C339.811 371.414 337.994 374.76 336.26 378.146C333.04 384.424 328.704 389.834 324.451 395.369C314.666 406.148 302.651 409.535 288.612 406.231C283.616 402.968 278.827 399.54 275.235 393.51C273.914 396.938 274.368 399.375 274.409 401.729C274.574 419.199 271.354 436.132 267.225 453.065C263.137 469.792 258.059 486.23 251.411 502.048C245.052 517.205 236.588 531.288 222.55 540.705C216.522 544.752 209.544 548.676 202.029 546.817C190.964 544.05 180.518 540.581 172.838 530.173C166.19 521.17 162.144 511.671 158.717 500.272C155.455 507.293 151.533 512.951 146.082 517.329C132.374 528.191 117.221 534.84 99.3431 531.123C83.7771 527.86 71.3904 519.518 61.1507 507.086C55.1638 499.817 50.2917 492.012 46.2453 483.752C36.5424 463.886 31.1335 442.658 27.7478 420.892C26.7156 414.449 25.6833 407.965 24.9814 401.481M135.719 92.2233C133.902 92.0168 132.663 92.9254 131.342 94.0818C117.304 106.1 104.257 119.192 92.9846 133.813C79.6069 151.2 67.8808 169.703 59.334 190.188C55.9896 198.242 52.3974 206.089 49.7136 214.431C46.0389 225.83 42.0338 237.105 39.5978 248.876C34.1063 275.721 31.2574 302.938 30.0187 330.196C28.78 358.322 28.2846 386.654 33.776 414.532C37.203 431.919 40.9603 449.307 48.062 465.662C55.4528 482.678 63.2564 499.446 78.5747 511.175C88.897 519.105 100.334 523.276 113.381 521.211C127.378 518.981 139.063 512.414 147.775 501.015C153.391 493.664 157.809 485.569 162.061 477.433C162.639 476.276 163.135 474.665 164.828 475.202C166.562 475.781 166.521 477.474 166.149 479.002C165.241 482.513 164.25 485.982 163.341 489.451C162.805 491.599 161.277 493.54 162.103 496.059C166.562 509.895 172.796 522.615 184.977 531.33C190.881 535.542 197.653 538.929 205.167 538.062C218.38 536.492 227.216 528.026 234.152 517.411C245.218 500.437 252.526 481.81 257.769 462.317C260.742 451.248 263.385 440.097 265.697 428.822C268.133 417.01 269.165 404.909 273.129 393.386C273.707 391.734 273.459 389.917 272.468 388.141C267.968 380.211 267.596 371.249 266.482 362.493C266.358 361.585 265.738 360.181 267.72 359.52C268.34 361.254 269 362.865 269.454 364.6C272.303 374.636 276.102 384.217 283.493 391.858C286.631 395.079 289.686 398.673 294.599 399.499C309.835 402.018 320.281 394.212 327.176 382.276C334.939 368.895 340.348 354.316 339.687 338.291C339.646 336.928 338.944 334.863 340.843 334.45C342.825 333.996 343.238 336.309 344.146 337.548C344.559 338.126 344.435 339.117 344.601 339.943C346.004 346.923 355.625 354.44 362.644 354.977C377.508 356.133 391.959 342.793 397.285 331.435C402.488 320.326 408.31 309.257 407.112 296.206C406.906 293.852 408.062 291.415 408.599 288.979C411.159 295.463 411.778 302.071 414.627 308.266C418.714 317.104 427.757 317.022 433.124 312.809C442.786 305.251 452.406 297.404 457.072 285.385C457.361 284.683 457.733 283.816 459.426 284.477C459.426 286.831 459.591 289.433 459.426 292.035C458.971 298.23 460.416 303.971 462.275 309.877C464.876 318.095 470.078 324.58 476.891 328.503C490.269 336.226 503.522 333.872 515.331 323.051C523.176 315.865 527.924 306.242 533.663 297.445C534.407 296.289 534.572 294.1 536.554 294.802C538.37 295.421 537.71 297.404 537.586 298.767C536.843 305.292 539.237 310.744 543.408 315.494C547.495 320.16 551.789 320.45 557.033 317.187C561.162 314.626 564.052 310.744 567.603 307.564C568.47 306.779 569.461 305.829 570.576 306.82C571.567 307.688 570.658 308.762 570.122 309.464C568.098 312.024 567.479 314.915 567.066 318.137C566.158 325.199 569.75 333.666 576.356 337.424C582.632 340.976 589.156 341.306 595.473 337.094C600.841 333.501 605.135 328.834 609.057 322.969C610.544 327.058 609.759 330.692 609.842 334.161C610.007 340.769 614.838 348.575 620.288 350.929C628.009 354.233 635.193 353.366 641.304 347.584C646.135 343 651.337 338.746 654.971 332.757C655.549 339.737 655.342 346.469 657.861 353.118C664.632 371.001 683.625 375.462 697.003 362.246C702.742 356.587 708.729 351.094 711.826 343.247C713.725 344.817 713.519 346.675 713.849 348.451C718.061 369.762 738.127 375.544 755.51 367.491C755.964 367.284 756.088 366.376 756.377 365.797C762.983 365.715 767.03 360.965 771.324 357.083C786.394 343.454 794.487 325.612 799.813 306.614C803.777 292.489 803.364 277.786 802.125 263.083C800.804 247.183 798.657 231.488 794.982 215.959C788.624 189.279 777.682 164.912 758.689 144.675C737.838 122.455 713.478 105.068 686.103 91.769C663.807 80.9069 640.561 76.3226 615.829 79.4201C593.12 82.2699 572.805 90.943 553.895 103.457C551.542 105.026 550.22 108 546.546 109.156C548.775 101.888 553.028 97.1793 558.767 93.6688C560.873 92.3885 562.194 91.2734 560.254 88.6714C547.454 71.4078 533.085 55.6311 516.074 42.4149C504.555 33.4527 491.466 27.2164 478.171 21.4343C455.173 11.4396 431.184 5.98793 406.121 5.12062C396.212 4.79021 386.468 5.94663 376.806 8.09425C348.564 14.2893 323.378 26.5143 302.568 46.8341C292.989 56.168 285.764 67.4017 279.24 79.0897C277.258 82.6829 277.96 85.037 280.189 87.8454C283.369 91.8516 286.383 95.9403 289.314 100.07C290.058 101.103 291.461 102.218 290.305 103.911C288.323 103.622 287.374 102.135 286.383 100.896C280.437 93.5862 273.583 87.2259 266.564 80.9895C246.25 63.0239 222.591 56.9114 196.455 62.5282C173.953 67.3604 152.689 75.7444 135.678 92.2646L135.719 92.2233Z" fill="#0C4911"/>
<path d="M767.36 1203.91C705.014 1263.92 732.388 1293.53 698.696 1364.07C688.085 1385.38 683.502 1410.53 668.597 1429.33C663.683 1435.19 693.783 1443.9 694.98 1452.04C673.345 1445.72 648.489 1438.82 629.372 1425.32C612.774 1409.01 588.124 1404.09 572.93 1387.16C586.06 1387.53 597.786 1404.55 602.699 1384.47C655.838 1317.77 676.318 1233.07 682.016 1149.47C697.292 1149.35 710.299 1143.48 721.571 1133.49C733.255 1188.59 708.606 1202.63 747.5 1171.2C768.764 1170.66 752.248 1182.39 767.319 1203.95L767.36 1203.91Z" fill="#332522"/>
<path d="M707.367 661.096C697.705 662.5 688.168 661.798 678.63 659.609C667.895 657.131 658.481 651.886 649.356 645.939C643.493 639.702 638.621 633.012 637.423 624.132C637.01 620.911 635.029 622.439 633.749 623.884C630.858 627.188 627.596 630.038 623.302 631.36C616.118 633.507 607.241 629.749 602.328 622.15C600.882 619.878 600.057 618.722 597.744 621.159C588.909 630.41 578.132 630.905 566.695 627.56C550.221 622.728 541.22 610.71 537.751 594.726C533.003 572.796 538.288 551.732 545.927 531.413C553.4 511.465 564.053 493.003 577.884 476.772C594.152 457.65 612.98 441.708 635.524 429.772C658.109 417.795 681.561 408.172 706.046 401.729C742.958 391.982 778.673 397.434 812.283 415.524C846.553 433.985 870.5 462.152 888.213 496.39C904.027 526.911 914.638 558.919 918.561 592.992C922.029 623.224 923.309 653.497 914.886 683.316C913.193 689.346 911.046 695.21 908.032 700.703C895.811 723.129 870.872 727.631 852.003 710.326C840.731 700.001 834.125 686.909 832.514 671.504C832.39 670.306 833.092 668.695 831.4 668.076C830.037 667.58 829.294 668.737 828.551 669.563C816.04 682.944 801.63 679.97 788.748 671.008C779.334 664.441 774.421 655.231 773.884 643.048C770.705 646.971 766.947 649.862 762.24 649.738C757.533 649.615 752.992 647.963 749.11 645.072C746.674 643.254 745.188 640.652 743.825 638.05C743 636.481 742.091 635.82 741.1 637.514C733.42 650.564 721.364 657.255 707.326 661.179L707.367 661.096Z" fill="#0E5415"/>
<path d="M340.553 704.38C337.126 712.351 334.484 720.693 329.116 727.756C318.588 741.509 305.788 751.751 288.281 754.766C283.574 755.592 278.537 755.757 274.202 753.61C270.775 751.916 270.279 753.114 269.247 755.922C264.871 767.693 253.557 775.169 241.377 774.921C237.991 774.838 235.39 773.227 232.665 771.782C230.312 770.543 229.279 770.997 228.412 773.558C222.301 792.06 207.85 798.916 189.931 800.733C184.15 800.568 178.576 799.618 173.952 795.901C171.805 794.208 169.988 795.158 168.873 796.562C155.743 813 138.485 813.991 119.987 809.613C103.637 805.772 89.268 798.462 80.3908 783.387C73.4542 771.617 70.564 758.814 72.0091 744.978C80.1018 668.283 147.486 602.904 223.953 593.57C235.142 592.208 246.249 592.662 257.356 594.438C258.429 594.768 259.462 595.099 260.535 595.429C261.361 595.553 262.187 595.635 262.93 595.842C278.661 600.633 291.254 609.967 301.742 622.357C306.077 627.519 310.908 632.186 316.028 636.523C328.786 647.261 336.92 660.684 340.595 676.956C342.659 686.125 341.173 695.252 340.471 704.38H340.553Z" fill="#0E5415"/>
<path d="M766.328 1204.82C761.497 1195.94 757.162 1186.89 758.359 1176.32C758.565 1174.5 758.111 1173.14 755.799 1173.02C733.916 1173.39 722.314 1150.38 723.635 1130.72C721.57 1131.67 720.745 1132.79 720.579 1134.36C695.93 1158.85 650.347 1154.35 635.772 1120.98C634.409 1118.04 633.253 1118.09 631.106 1119.61C599.685 1141.21 561.74 1109.17 560.254 1075.96C555.051 1017.27 591.964 965.646 630.28 925.048C719.052 841.29 860.591 903.241 908.94 1001.87C957.166 1082.73 965.507 1201.43 907.124 1278.99C864.224 1325.46 820.458 1258.67 833.051 1214.69C810.755 1229.97 782.142 1227.86 766.41 1204.82H766.328ZM699.026 896.674C633.501 908.486 589.528 973.741 570.287 1033.3C555.464 1087.61 585.027 1139.27 643.121 1108.38C644.029 1114.04 634.285 1110.98 642.378 1120.11C663.394 1154.27 706.995 1145.1 729.622 1117.63C731.975 1121.8 725.823 1126.92 727.433 1130.97C732.884 1156.83 744.321 1168.89 770.952 1164.18C771.53 1165.5 770.581 1166.32 769.507 1166.94C758.111 1169.67 762.901 1181.4 766.493 1188.83C774.833 1220.02 823.1 1228.23 840.524 1201.72C842.589 1201.06 843.332 1198.17 846.47 1198.13C815.173 1324.84 945.481 1323.84 940.65 1137.66C942.013 1013.55 834.909 865.988 698.985 896.633L699.026 896.674Z" fill="#0C4911"/>
<path d="M707.367 661.096C697.705 662.5 688.168 661.798 678.63 659.609C667.895 657.131 658.481 651.886 649.356 645.939C643.493 639.702 638.621 633.012 637.423 624.132C637.01 620.911 635.029 622.439 633.749 623.884C630.858 627.188 627.596 630.038 623.302 631.36C616.118 633.507 607.241 629.749 602.328 622.15C600.882 619.878 600.057 618.722 597.744 621.159C588.909 630.41 578.132 630.905 566.695 627.56C550.221 622.728 541.22 610.71 537.751 594.726C533.003 572.796 538.288 551.732 545.927 531.413C553.4 511.465 564.053 493.003 577.884 476.772C594.152 457.65 612.98 441.708 635.524 429.772C658.109 417.795 681.561 408.172 706.046 401.729C742.958 391.982 778.673 397.434 812.283 415.524C846.553 433.985 870.5 462.152 888.213 496.39C904.027 526.911 914.638 558.919 918.561 592.992C922.029 623.224 923.309 653.497 914.886 683.316C913.193 689.346 911.046 695.21 908.032 700.703C895.811 723.129 870.872 727.631 852.003 710.326C840.731 700.001 834.125 686.909 832.514 671.504C832.39 670.306 833.092 668.695 831.4 668.076C830.037 667.58 829.294 668.737 828.551 669.563C816.04 682.944 801.63 679.97 788.748 671.008C779.334 664.441 774.421 655.231 773.884 643.048C770.705 646.971 766.947 649.862 762.24 649.738C757.533 649.615 752.992 647.963 749.11 645.072C746.674 643.254 745.188 640.652 743.825 638.05C743 636.481 742.091 635.82 741.1 637.514C733.42 650.564 721.364 657.255 707.326 661.179L707.367 661.096ZM670.372 420.191C668.638 420.727 666.821 421.017 665.211 421.801C637.217 434.935 611.246 451.001 589.61 473.551C583.376 480.035 576.811 486.436 572.641 494.325C567.067 504.856 559.511 514.149 555.01 525.465C550.757 536.121 547.702 547.024 544.482 557.969C542.871 563.503 544.316 569.161 543.367 574.654C540.435 591.629 546.422 605.175 558.85 616.368C562.69 619.837 566.984 621.737 572.31 621.324C575.283 621.117 578.256 621.2 581.229 621.324C588.909 621.53 595.35 618.804 600.552 613.146C602.658 610.875 603.69 610.379 605.176 614.055C608.645 622.728 616.49 627.478 625.738 622.356C629.537 620.25 632.923 617.772 635.937 614.674C637.217 613.353 638.29 610.792 640.603 611.866C642.584 612.775 641.635 615.17 641.552 616.822C641.057 627.767 646.548 635.82 654.6 642.057C669.009 653.208 685.649 656.842 703.61 654.942C713.726 653.869 722.479 649.945 729.787 642.635C735.072 637.39 739.82 631.773 744.238 625.825C744.899 624.958 745.188 623.306 746.633 623.843C748.202 624.463 747.087 625.784 746.839 626.817C745.931 630.369 747.087 633.177 749.565 635.779C757.409 643.915 763.727 644.122 771.737 636.233C772.108 635.903 772.439 635.531 772.81 635.201C773.76 634.333 774.586 632.97 776.113 633.507C777.765 634.086 777.104 635.738 777.269 636.935C778.384 647.095 782.266 655.975 789.78 663.037C804.107 676.501 825.371 671.669 833.712 657.916C836.189 662.996 836.024 668.695 837.634 674.023C841.763 687.941 848.122 700.455 860.426 708.757C868.973 714.539 878.469 717.058 888.42 712.185C896.636 708.179 901.55 701.034 905.059 692.774C912.904 674.312 914.886 654.736 915.794 634.994C916.373 622.191 915.01 609.388 914.019 596.585C912.533 577.297 908.941 558.464 902.458 540.375C892.714 513.158 879.625 487.552 861.954 464.423C846.966 444.806 828.344 429.607 806.296 418.952C781.316 406.933 755.015 401.151 727.021 404.166C707.202 406.314 688.457 411.889 670.413 420.149L670.372 420.191Z" fill="#0C4911"/>
<path d="M340.553 704.38C337.126 712.351 334.484 720.693 329.116 727.756C318.588 741.509 305.788 751.751 288.281 754.766C283.574 755.592 278.537 755.757 274.202 753.61C270.775 751.916 270.279 753.114 269.247 755.922C264.871 767.693 253.557 775.169 241.377 774.921C237.991 774.838 235.39 773.227 232.665 771.782C230.312 770.543 229.279 770.997 228.412 773.558C222.301 792.06 207.85 798.916 189.931 800.733C184.15 800.568 178.576 799.618 173.952 795.901C171.805 794.208 169.988 795.158 168.873 796.562C155.743 813 138.485 813.991 119.987 809.613C103.637 805.772 89.268 798.462 80.3908 783.387C73.4542 771.617 70.564 758.814 72.0091 744.978C80.1018 668.283 147.486 602.904 223.953 593.57C235.142 592.208 246.249 592.662 257.356 594.438C258.429 594.768 259.462 595.099 260.535 595.429C261.361 595.553 262.187 595.635 262.93 595.842C278.661 600.633 291.254 609.967 301.742 622.357C306.077 627.519 310.908 632.186 316.028 636.523C328.786 647.261 336.92 660.684 340.595 676.956C342.659 686.125 341.173 695.252 340.471 704.38H340.553ZM134.727 641.066C133.695 641.066 132.828 641.52 132.085 642.222C117.716 655.728 105.371 670.761 95.8329 688.107C86.7493 704.751 80.4734 722.345 78.5328 741.178C77.0877 755.344 78.7392 769.263 87.0796 781.364C93.7685 791.028 103.306 797.099 114.578 800.32C125.355 803.418 136.131 806.061 147.486 803.418C156.858 801.229 163.052 794.621 169.41 788.137C172.837 784.585 172.837 784.668 175.025 788.715C175.562 789.706 176.471 790.574 177.379 791.193C181.178 793.712 185.513 794.869 189.972 794.538C204.96 793.423 216.562 787.104 222.921 772.69C224.861 768.23 225.935 763.687 226.719 759.02C226.926 757.864 227.091 756.501 228.536 756.542C229.899 756.542 229.568 757.946 229.692 758.855C230.518 765.876 233.739 768.808 240.882 768.891C250.584 769.015 260.576 761.994 264.334 752.866C266.274 748.158 267.1 742.913 270.445 737.957C271.725 740.889 271.312 743.202 271.229 745.391C271.105 748.282 272.344 749.975 275.11 749.975C280.024 749.975 284.896 750.512 289.85 749.356C316.688 743.243 340.264 714.002 335.434 680.012C335.103 677.575 335.021 674.643 332.709 672.826C332.089 664.938 328.414 658.082 323.46 652.506C311.692 639.29 300.916 625.124 287.125 613.766C275.606 604.267 262.558 598.609 247.736 597.618C234.895 596.751 222.219 598.155 209.75 601.459C181.673 608.934 155.331 619.548 134.686 641.107L134.727 641.066Z" fill="#0C4911"/>
<path d="M63.2969 164.209C62.2234 168.793 60.3654 173.006 57.1035 176.475C58.5486 172.056 60.5718 167.926 63.2969 164.209Z" fill="#1A7125"/>
<path d="M70.2756 152.398C70.0279 155.579 69.7389 158.717 65.8164 159.626C66.8486 156.941 68.2112 154.463 70.2756 152.398Z" fill="#1A7125"/>
<path d="M56.1126 178.666C56.6081 181.516 55.2868 183.581 53.2637 185.398C53.594 182.92 54.6675 180.69 56.1126 178.666Z" fill="#1A7125"/>
<path d="M24.0738 330.031C25.2712 331.353 25.2299 332.674 23.9086 333.913C23.4957 332.592 23.537 331.312 24.0738 330.031Z" fill="#1A7125"/>
<path d="M93.1084 122.826C93.1084 124.726 92.1588 125.759 90.3008 125.924C90.8375 124.519 91.7459 123.487 93.1084 122.826Z" fill="#1A7125"/>
<path d="M87.1216 129.641C87.2454 131.582 86.3371 132.656 84.3965 132.862C84.892 131.458 85.759 130.343 87.1216 129.641Z" fill="#1A7125"/>
<path d="M25.8485 318.592C25.8485 319.294 25.8072 319.955 25.7659 320.657C24.4033 319.913 25.1465 319.253 25.8485 318.592Z" fill="#1A7125"/>
<path d="M52.3144 187.793C52.6034 188.743 52.5208 189.651 51.6537 190.271C50.9518 189.197 51.5299 188.454 52.3144 187.793Z" fill="#1A7125"/>
<path d="M82.2088 135.631C82.3326 136.911 81.8372 137.696 80.4746 137.778C80.6811 136.746 81.2178 136.003 82.2088 135.631Z" fill="#1A7125"/>
<path d="M76.2626 143.561C76.4278 144.8 75.9736 145.584 74.6523 145.749C74.8175 144.758 75.2717 143.974 76.2626 143.561Z" fill="#1A7125"/>
<path d="M340.553 704.379C351.206 659.61 299.471 608.81 260.535 595.429C280.437 559.869 288.158 518.61 294.103 478.672C294.599 472.353 294.516 472.395 300.09 475.988C306.985 480.448 314.665 482.555 322.758 483.546C344.93 486.313 365.657 479.746 386.467 473.923C419.416 463.226 455.874 458.394 483.372 435.637C504.471 427.749 529.203 426.592 547.866 411.559C561.491 402.969 571.071 388.348 582.012 378.064C602.037 379.675 586.554 390.785 580.195 399.954C539.071 444.352 466.733 449.597 440.019 509.73C412.562 559.167 393.238 630.08 430.811 671.835C465.288 710.203 550.261 690.007 598.61 681.54C607.075 680.053 618.388 666.135 620.783 674.602C618.099 714.994 446.336 700.291 423.627 745.06C403.726 764.967 407.524 792.886 402.611 818.327C397.615 888.414 405.873 969.446 461.861 1018.47C463.595 1022.64 476.973 1028.88 470.532 1031.36C458.682 1031.15 446.832 1032.35 435.023 1030.45C423.999 1020.45 420.283 1002.4 405.047 995.506C455.957 1064.64 409.671 1003.89 324.657 1042.38C272.839 1067.29 277.67 1050.39 278.042 1003.06C277.505 943.179 268.958 882.88 278.95 823.325C297.613 776.407 337.87 805.978 340.595 704.421L340.553 704.379ZM371.19 517.123C370.777 517.04 370.364 516.999 369.951 516.917C341.71 625.991 361.239 639.207 371.19 517.123ZM437.046 1011.41C422.058 987.453 401.331 968.207 392.206 941.609C387.045 959.121 422.719 1000.34 437.046 1011.41ZM385.187 908.693C383.494 883.995 382.999 855.704 381.843 832.782C375.443 855.869 377.053 885.317 385.187 908.693ZM403.974 534.221C409.424 517.949 412.768 501.264 413.346 484.083C408.557 490.113 402.363 522.699 403.974 534.221ZM350.587 648.376C351.825 643.007 357.234 628.056 353.147 624.876C351.041 624.711 351.743 627.684 351.454 629.378C350.587 635.531 348.564 642.057 350.587 648.376ZM396.17 570.814C396.583 570.896 397.037 570.938 397.45 571.02C403.685 544.588 397.161 544.753 396.17 570.814Z" fill="#4E3832"/>
<path d="M135.719 92.2237C152.73 75.6622 173.994 67.3196 196.497 62.4874C222.633 56.8705 246.25 62.983 266.606 80.9487C273.666 87.1851 280.52 93.504 286.424 100.856C287.415 102.053 288.365 103.54 290.347 103.87C291.544 102.177 290.099 101.062 289.356 100.03C286.424 95.8995 283.369 91.7694 280.231 87.8046C278.001 84.9961 277.299 82.642 279.281 79.0489C285.764 67.3196 292.989 56.1271 302.61 46.7932C323.419 26.5147 348.606 14.2485 376.847 8.05341C386.509 5.94709 396.253 4.74938 406.163 5.07978C431.225 5.94709 455.255 11.3987 478.212 21.3935C491.507 27.1755 504.637 33.4119 516.116 42.3741C533.085 55.5902 547.454 71.367 560.295 88.6306C562.236 91.2325 560.914 92.3476 558.809 93.6279C553.069 97.1385 548.858 101.847 546.587 109.116C550.262 107.959 551.583 104.986 553.936 103.416C572.847 90.9021 593.161 82.1877 615.87 79.3793C640.602 76.2818 663.848 80.8661 686.144 91.7281C713.519 105.027 737.879 122.456 758.73 144.634C777.723 164.871 788.665 189.197 795.024 215.919C798.74 231.448 800.845 247.1 802.167 263.042C803.405 277.787 803.818 292.448 799.854 306.573C794.528 325.571 786.435 343.454 771.365 357.042C767.071 360.924 763.025 365.674 756.418 365.757C751.422 364.518 746.798 362.453 742.215 360.14C731.315 354.605 726.773 344.941 729.209 332.799C729.993 328.793 730.241 324.663 730.613 320.615C730.736 319.252 730.324 317.972 728.796 317.435C727.475 316.981 726.608 317.765 725.74 318.592C724.667 319.624 723.635 320.698 722.603 321.73C716.492 327.636 704.6 329.784 696.755 326.439C689.034 323.176 686.516 316.031 684.286 308.968C681.85 301.204 681.933 293.068 682.098 285.014C682.098 283.527 682.387 281.71 680.777 281.049C678.795 280.223 677.721 282.123 676.937 283.404C675.285 286.047 674.005 288.938 672.519 291.705C665.747 304.136 655.054 309.423 642.791 306.119C631.23 303.021 625.738 294.761 623.756 282.247C622.889 276.754 622.559 271.179 621.857 265.644C621.651 264.075 622.353 261.597 619.38 261.721C616.944 261.803 616.737 263.951 616.283 265.603C615.003 270.394 613.682 275.102 611.287 279.48C606.828 287.657 598.074 291.705 589.28 289.557C573.342 285.675 567.479 277.993 567.149 261.556C567.025 254.287 568.47 247.142 568.222 239.873C568.181 238.138 568.099 236.486 566.034 235.991C564.094 235.536 563.02 236.569 562.07 238.138C558.561 243.92 554.432 249.248 549.973 254.287C540.435 265.025 529.865 269.857 517.354 256.847C510.005 249.248 508.106 239.873 507.982 230.126C507.775 213.895 511.409 198.159 516.116 182.754C521.937 163.797 530.154 145.832 539.32 128.279C540.146 126.668 540.93 125.016 541.715 123.406C542.499 121.712 543.284 119.73 541.715 118.408C540.27 117.21 538.577 118.408 537.132 119.193C536.554 119.523 536.1 120.019 535.563 120.391C523.795 128.816 514.547 139.678 505.298 150.623C488.163 170.942 476.272 194.071 469.294 219.636C465.578 233.347 460.912 246.646 454.471 259.284C450.961 266.14 447.287 267.833 441.011 266.223C434.322 264.529 430.606 259.945 430.647 253.089C430.647 249.289 430.399 245.531 429.656 241.814C429.243 239.832 428.376 238.221 426.353 238.056C424 237.808 423.256 239.997 423.009 241.649C422.472 245.201 422.348 248.876 423.133 252.469C425.981 265.933 417.848 282.577 405.254 288.153C391.257 294.348 382.339 287.41 378.21 273.037C377.632 270.931 378.375 267.585 375.155 267.998C372.058 268.411 373.503 271.715 373.214 273.863C373.173 274.194 373.214 274.524 373.255 274.854C376.063 287.534 372.099 298.974 366.319 309.877C361.859 318.302 349.927 323.3 342.371 320.491C333.948 317.394 323.048 301.824 322.635 292.655C322.511 290.177 324.286 285.84 320.199 285.882C316.194 285.882 317.845 290.259 317.845 292.737C317.928 309.753 313.262 325.076 302.651 338.581C294.311 349.195 280.355 350.021 271.643 339.779C267.679 335.112 264.665 329.825 263.302 323.754C260.866 313.14 260.866 302.278 260.33 291.457C260.206 289.227 261.651 285.262 258.554 285.179C255.21 285.097 255.499 289.062 255.416 291.829C255.416 291.994 255.416 292.159 255.416 292.324C254.879 308.266 251.122 323.341 241.295 336.186C236.052 343.083 230.23 350.269 220.155 349.815C197.322 348.823 174.448 331.642 180.559 301.369C181.922 294.637 182.004 287.657 184.729 281.215C185.638 279.067 183.903 277.911 182.623 277.291C180.476 276.259 180.476 278.447 179.981 279.728C178.329 284.023 176.554 288.277 175.068 292.614C169.122 309.96 159.006 322.763 140.137 327.471C126.677 330.816 110.615 325.489 103.266 314.214C90.2597 294.224 83.7773 272.335 83.1993 248.629C82.8689 234.297 83.9012 220.09 86.0069 205.883C89.5578 182.341 96.2053 159.75 105.826 137.985C113.299 121.134 124.323 106.596 135.636 92.2237H135.719Z" fill="#1A7125"/>
<path d="M766.328 1204.82C761.497 1195.94 757.162 1186.89 758.359 1176.32C758.565 1174.5 758.111 1173.14 755.799 1173.02C733.916 1173.39 722.314 1150.38 723.635 1130.72C721.57 1131.67 720.745 1132.79 720.579 1134.36C695.93 1158.85 650.347 1154.35 635.772 1120.98C634.409 1118.04 633.253 1118.09 631.106 1119.61C599.685 1141.21 561.74 1109.17 560.254 1075.96C555.051 1017.27 591.964 965.646 630.28 925.048C719.052 841.29 860.591 903.241 908.94 1001.87C957.166 1082.73 965.507 1201.43 907.124 1278.99C864.224 1325.46 820.458 1258.67 833.051 1214.69C810.755 1229.97 782.142 1227.86 766.41 1204.82H766.328Z" fill="#0E5415"/>
<path d="M347.615 358.446C345.055 357.744 345.302 360.057 344.642 361.254C343.444 363.485 342.949 366.128 340.719 367.697C339.976 364.682 342.288 362.246 342.371 359.148C342.453 356.298 345.344 355.514 347.615 358.405V358.446Z" fill="#1A7125"/>
<path d="M644.773 1342.8C642.296 1344.74 640.974 1347.55 639.364 1350.11C635.689 1355.77 632.056 1361.47 628.299 1367.04C627.556 1368.16 626.565 1369.93 624.789 1368.49C623.22 1367.25 624.707 1366.26 625.408 1365.19C639.323 1345.24 650.306 1323.72 659.513 1301.25C670.249 1274.94 677.02 1247.52 681.933 1219.64C683.833 1208.86 685.732 1197.92 685.113 1186.85C684.824 1182.14 686.393 1180.12 690.934 1179.13C699.233 1177.35 699.068 1177.1 697.417 1185.45C696.178 1191.72 695.394 1198.04 694.361 1204.36C694.155 1205.6 694.155 1206.92 695.6 1207.09C696.674 1207.21 696.921 1205.89 697.128 1204.9C698.738 1196.51 700.596 1188.21 701.793 1179.79C702.248 1176.77 703.61 1175.99 706.046 1175.53C715.997 1173.76 719.713 1176.4 718.846 1185.24C718.433 1189.25 719.341 1192.84 722.851 1195.27C723.966 1196.06 724.42 1196.51 723.388 1197.88C706.377 1220.01 699.481 1246.24 693.04 1272.67C687.672 1294.69 682.511 1316.82 675.203 1338.3C671.652 1348.75 667.936 1359.16 661.867 1368.49C656.664 1376.46 649.315 1378.61 640.479 1375.06C632.469 1371.83 632.51 1371.83 636.35 1364.03C639.24 1358.12 642.007 1352.13 644.814 1346.15C645.31 1345.11 646.053 1344.12 644.814 1342.72L644.773 1342.8ZM670.703 1291.3C679.126 1284.03 691.554 1239.01 687.962 1231.17C681.727 1250.82 675.616 1270.19 670.703 1291.3Z" fill="#4E3832"/>
<path d="M700.058 895.723C836.023 865.119 943.045 1012.6 941.723 1136.75C947.421 1319.3 814.429 1331.53 846.263 1198.29C845.52 1201.35 842.588 1201.31 840.524 1201.97C841.226 1183.17 851.135 1163.93 824.834 1179.46C811.043 1181.56 806.543 1177.89 805.882 1165.46C804.602 1158.68 811.043 1150.79 807.121 1145.14C804.974 1143.61 803.198 1144.93 801.795 1146.21C788.293 1160.17 752.619 1156.99 759.886 1132.33C759.762 1120.15 776.567 1106.56 770.497 1096.11C733.461 1116.97 702.164 1076.25 718.845 1041.22C720.579 1037.51 718.184 1037.09 715.583 1037.67C627.926 1073.89 663.765 927.318 700.058 895.723Z" fill="#1A7125"/>
<path d="M670.372 420.191C688.415 411.972 707.16 406.355 726.979 404.207C754.973 401.151 781.274 406.975 806.254 418.993C828.344 429.649 846.924 444.847 861.912 464.465C879.584 487.593 892.672 513.199 902.417 540.416C908.899 558.506 912.532 577.339 913.978 596.626C914.968 609.429 916.331 622.191 915.753 635.036C914.845 654.736 912.904 674.354 905.018 692.815C901.508 701.075 896.595 708.179 888.378 712.226C878.428 717.1 868.931 714.539 860.384 708.798C848.08 700.497 841.722 687.983 837.593 674.065C836.024 668.737 836.148 663.037 833.67 657.957C832.514 656.182 832.721 654.199 832.638 652.217C832.101 638.051 834.455 624.009 834.95 609.884C835.157 603.73 834.868 597.411 836.148 591.257C836.767 588.201 838.377 583.451 834.868 582.378C830.904 581.18 830.037 586.219 828.716 589.151C824.669 598.196 820.458 607.075 812.365 613.394C804.809 619.342 795.643 620.044 787.137 618.392C779.334 616.905 774.09 610.255 772.232 602.078C770.292 593.446 770.787 584.773 772.851 576.183C773.306 574.407 774.214 571.97 771.819 570.979C769.094 569.864 767.566 571.722 766.575 574.076C764.759 578.537 761.827 582.336 759.02 586.177C750.266 598.03 739.572 601.128 727.764 593.859C708.771 582.254 702.908 566.931 705.302 546.653C706.004 540.871 706.211 534.8 709.266 529.513C710.629 527.159 714.758 524.805 711.744 522.12C708.11 518.94 706.252 523.896 703.94 525.713C697.623 530.628 691.305 535.213 682.552 533.313C667.275 530.05 659.637 519.105 655.59 505.394C649.686 485.528 652.205 465.786 657.696 446.169C660.339 436.67 665.582 428.533 670.331 420.108L670.372 420.191Z" fill="#1A7125"/>
<path d="M134.77 641.107C172.797 605.754 243.112 576.596 288.654 611.99C318.217 639.827 356.534 674.602 308.184 707.27C301.495 710.203 295.715 707.353 289.893 704.421C279.612 700.291 277.63 732.959 263.633 710.822C256.036 699.754 254.219 719.537 249.182 723.212C242.452 732.587 229.859 723.419 228.042 714.704C227.629 710.161 220.734 710.574 220.032 714.704C217.844 723.584 211.691 729.325 204.053 733.083C190.304 739.898 174.036 732.216 174.284 715.696C171.558 703.842 188.817 694.385 182.5 684.72C179.94 682.573 176.967 683.275 174.614 685.877C134.109 717.802 103.101 682.903 134.729 641.107H134.77Z" fill="#1A7125"/>
<path d="M371.191 517.122C372.058 524.185 369.952 531.041 369.126 537.897C367.268 553.137 364.832 568.335 362.437 583.492C361.405 590.1 359.836 596.667 358.556 603.234C358.309 604.39 358.102 605.918 356.822 605.836C354.882 605.712 355.501 603.812 355.542 602.697C356.162 593.528 356.574 584.36 357.607 575.274C359.547 558.175 362.933 541.325 367.433 524.722C368.135 522.079 369.126 519.518 369.952 516.916C370.365 516.999 370.778 517.04 371.191 517.122Z" fill="#332522"/>
<path d="M437.047 1011.45C433.661 1011.08 432.422 1009.18 431.266 1007.61C422.802 996.084 412.562 986.048 404.139 974.526C397.368 965.274 393.239 954.701 390.431 943.633C390.266 942.931 390.555 942.352 392.166 941.65C401.291 968.248 422.018 987.494 437.006 1011.45H437.047Z" fill="#332522"/>
<path d="M385.188 908.734C382.009 902.91 381.1 896.633 380.398 890.479C379.036 878.915 377.673 867.309 378.334 855.621C378.706 848.765 379.655 841.951 380.316 835.095C380.44 834.062 380.811 832.906 381.844 832.823C383.619 832.741 383.289 834.352 383.206 835.384C383 838.151 382.339 840.918 382.339 843.685C382.215 862.105 383.247 880.443 385.147 898.739C385.477 902.043 385.188 905.43 385.188 908.775V908.734Z" fill="#332522"/>
<path d="M403.973 534.262C402.363 522.739 408.556 490.153 413.346 484.123C412.727 501.304 409.423 517.989 403.973 534.262Z" fill="#332522"/>
<path d="M350.587 648.417C348.398 642.8 350.835 637.307 350.876 631.773C350.876 630.988 351.33 630.203 351.495 629.418C351.784 627.725 351.082 624.752 353.188 624.917C355.748 625.123 354.716 628.221 354.427 629.79C353.312 635.985 353.147 642.387 350.628 648.417H350.587Z" fill="#332522"/>
<path d="M396.171 570.854C396.006 564.453 397.74 558.216 398.318 551.897C398.36 551.402 399.061 550.741 399.557 550.617C400.218 550.452 400.878 551.195 400.754 551.815C399.722 558.216 398.566 564.618 397.451 571.061C397.038 570.978 396.584 570.937 396.171 570.854Z" fill="#332522"/>
<path d="M235.144 154.133C236.795 168.052 238.075 180.855 234.112 193.534C232.254 199.522 228.868 202.455 224.244 202.166C219.949 201.877 216.027 197.912 214.995 192.543C211.939 177.179 216.11 162.682 220.404 146.988C222.633 150.953 221.766 153.844 221.353 156.776C219.949 167.019 218.628 177.344 220.982 187.628C221.518 189.982 221.353 193.74 224.533 193.906C227.382 194.071 227.836 190.478 228.62 188.33C231.593 180.276 232.088 171.686 232.667 163.219C232.832 160.411 232.625 157.644 235.103 154.133H235.144Z" fill="#0C4911"/>
<path d="M400.218 50.1387C399.186 62.4462 396.626 74.1756 389.194 84.3355C386.923 87.433 384.074 89.5393 380.399 90.1589C373.132 91.3979 369.045 87.4743 368.467 78.8012C368.095 73.4735 369.375 68.3109 371.315 63.3962C375.238 53.5667 381.473 45.1827 388.946 35.9727C388.863 41.1765 386.427 43.9436 384.941 46.9999C383.042 51.006 380.771 54.847 378.665 58.7705C375.238 65.1308 374.949 71.9867 375.362 78.9664C375.444 80.6598 375.775 82.3944 377.55 83.0552C379.408 83.7573 380.977 83.0139 382.464 81.651C389.235 75.4146 392.91 67.4436 395.924 58.977C396.997 55.8795 397.163 52.2863 400.259 50.1387H400.218Z" fill="#0C4911"/>
<path d="M364.296 177.673C366.236 181.143 365.617 184.447 365.122 187.585C363.718 196.052 365.039 204.188 367.31 212.283C367.723 213.811 368.425 215.381 369.952 215.546C371.81 215.794 372.058 213.687 372.554 212.448C375.485 205.592 376.435 198.282 377.302 190.931C377.839 186.305 378.458 181.679 378.995 177.178C380.564 177.178 381.059 177.715 381.059 178.334C380.977 190.642 382.628 202.991 379.284 215.133C379.201 215.463 379.201 215.794 379.077 216.083C377.508 221.121 373.586 225.086 370.076 224.797C364.915 224.343 362.562 220.75 361.034 216.289C357.979 207.368 359.671 198.406 360.951 189.485C361.488 185.603 361.323 181.39 364.255 177.632L364.296 177.673Z" fill="#0C4911"/>
<path d="M596.052 126.254C595.35 130.508 593.286 132.491 591.675 134.68C586.308 142.031 581.353 149.548 579.702 158.717C579.454 160.162 579.371 161.649 579.247 163.094C578.958 166.77 580.693 166.399 583.046 164.994C589.281 161.401 592.666 155.206 596.919 149.796C599.355 146.698 601.502 143.353 603.773 140.131C604.393 139.223 604.847 137.571 606.209 138.273C607.654 139.016 606.994 140.627 606.374 141.742C603.649 146.822 601.048 151.943 598.075 156.899C595.309 161.566 592.377 166.068 588.331 169.868C584.656 173.378 580.693 174.328 576.151 172.676C571.774 171.065 572.228 167.059 572.311 163.425C572.435 155.33 576.192 148.474 580.651 142.155C584.698 136.456 589.322 131.128 596.052 126.172V126.254Z" fill="#0C4911"/>
<path d="M624.417 186.677C625.408 190.352 623.674 192.995 622.807 195.721C619.999 204.684 616.943 213.522 612.071 221.617C609.718 225.54 606.745 228.968 601.378 227.605C595.969 226.242 595.267 221.988 595.06 217.28C594.358 201.256 603.318 188.907 610.585 175.938C610.75 175.649 611.452 175.732 612.36 175.525C611.659 180.358 609.14 184.24 607.488 188.411C604.309 196.341 601.088 204.271 601.088 213.026C601.088 213.852 600.965 214.72 601.171 215.504C601.584 217.032 601.46 219.18 603.112 219.758C605.259 220.502 606.043 218.313 607.158 216.908C613.269 209.392 616.82 200.471 620.825 191.839C621.65 190.063 622.146 188.163 624.417 186.759V186.677Z" fill="#0C4911"/>
<path d="M200.172 104.49C197.819 110.479 194.226 115.187 191.254 120.226C187.703 126.256 185.514 132.74 184.358 139.554C184.111 141.041 183.367 143.23 185.06 144.056C186.629 144.841 187.455 142.776 188.529 141.867C196.415 135.011 200.709 125.677 205.994 116.963C206.902 115.435 207.356 113.618 209.751 112.337C210.247 116.261 208.306 119.111 207.067 122.084C202.98 131.583 199.388 141.33 191.625 148.723C188.57 151.614 184.936 152.936 181.344 150.829C177.876 148.764 177.257 145.254 177.917 140.959C180.023 127.288 188.074 116.963 196.126 106.597C196.869 105.647 197.695 104.408 200.131 104.49H200.172Z" fill="#0C4911"/>
<path d="M739.49 197.085C742.256 205.51 743.454 214.266 746.509 222.567C747.665 225.706 749.317 228.515 750.844 231.406C751.381 232.397 752.124 233.553 753.404 233.471C754.808 233.388 755.056 231.943 755.345 230.91C757.327 224.137 756.749 217.198 756.006 210.342C755.386 204.808 754.272 199.357 753.198 193.905C752.909 192.501 752.537 191.138 754.23 190.725C755.634 190.394 756.171 191.675 756.46 192.831C758.442 199.935 760.424 206.997 761.58 214.307C762.612 220.833 762.447 227.028 760.465 233.223C759.474 236.279 758.153 239.129 754.56 239.79C750.597 240.533 748.491 237.807 746.633 235.04C742.05 228.143 740.976 220.089 739.655 212.201C738.829 207.245 737.88 202.248 739.449 197.126L739.49 197.085Z" fill="#0C4911"/>
<path d="M413.842 69.0531C416.608 72.6462 416.112 77.0241 416.856 81.0715C417.929 86.9362 418.961 92.7183 423.379 97.22C426.022 99.9458 428.086 99.5741 429.201 96.1049C431.018 90.3228 432.339 84.4582 431.307 78.2218C430.316 72.2745 430.275 66.1621 428.83 60.2148C428.664 59.4714 428.664 58.4389 429.531 58.0672C430.481 57.6542 431.183 58.3976 431.389 59.1823C434.445 72.0267 439.358 84.706 435.147 98.2938C433.908 102.259 431.431 105.232 427.467 105.811C423.173 106.43 420.076 103.663 417.847 100.07C411.818 90.3641 412.603 79.7499 413.8 69.0118L413.842 69.0531Z" fill="#0C4911"/>
<path d="M719.754 234.007C720.166 244.043 718.721 253.666 713.065 262.215C708.936 268.452 703.733 268.08 700.389 261.389C698.696 257.961 698.118 254.203 698.077 250.444C697.953 243.217 697.994 235.948 698.077 228.72C698.077 227.234 697.375 224.797 699.687 224.838C701.462 224.88 701.008 227.192 700.967 228.597C700.678 237.187 701.669 245.612 703.899 253.872C704.353 255.607 704.683 257.837 706.665 258.209C708.936 258.622 709.307 256.02 710.216 254.657C713.684 249.329 715.005 243.176 715.79 236.981C716.326 232.933 716.492 228.844 716.822 224.756C716.905 223.806 716.657 222.525 718.061 222.525C719.175 222.525 719.671 223.599 719.671 224.632C719.712 227.771 719.671 230.868 719.671 234.007H719.754Z" fill="#0C4911"/>
<path d="M670.66 1291.26C675.615 1270.15 681.684 1250.78 687.919 1231.12C691.47 1238.97 679.083 1283.99 670.66 1291.26Z" fill="#332522"/>
<path d="M808.897 1020.74C809.062 1028.79 809.227 1036.02 805.387 1042.63C803.24 1046.35 800.35 1048.95 795.85 1048.16C791.721 1047.46 790.854 1043.83 790.152 1040.4C787.261 1026.19 791.019 1012.73 795.065 999.346C795.395 998.272 795.726 996.785 797.253 997.322C798.575 997.818 798.162 999.387 797.914 1000.38C796.262 1006.74 795.437 1013.22 794.487 1019.71C793.537 1026.32 794.322 1032.8 795.891 1039.2C796.139 1040.15 796.18 1041.39 797.295 1041.64C798.657 1041.93 799.276 1040.65 799.855 1039.7C802.538 1035.19 803.24 1030.16 804.025 1025.12C805.098 1018.26 804.974 1011.36 805.016 1004.47C805.016 1003.31 804.355 1001.33 806.254 1001.29C807.865 1001.25 807.865 1003.02 807.947 1004.34C808.278 1010.08 809.599 1015.74 808.897 1020.74Z" fill="#0C4911"/>
<path d="M829.541 1035.73C832.308 1021.9 826.61 1010.29 824.009 998.148C826.569 998.272 827.229 999.842 827.972 1001.29C832.473 1010.13 836.024 1019.29 837.551 1029.17C838.088 1032.68 837.221 1036.1 835.693 1039.2C833.175 1044.36 827.766 1044.57 824.132 1039.99C819.921 1034.7 818.682 1028.38 818.022 1022.02C817.609 1018.14 817.402 1014.17 816.907 1010.29C816.783 1009.18 816.824 1007.61 818.187 1007.44C819.714 1007.23 819.673 1008.8 819.88 1009.92C820.829 1014.59 821.82 1019.21 822.852 1023.84C823.802 1028.09 825.784 1031.73 829.541 1035.73Z" fill="#0C4911"/>
<path d="M835.322 1132.29C843.208 1122.09 843.29 1109.78 846.057 1098.34C846.552 1098.34 847.048 1098.34 847.502 1098.34C847.502 1103.22 847.915 1108.17 847.419 1113.01C846.759 1119.16 845.974 1125.4 843.497 1131.22C842.919 1132.58 842.341 1133.99 841.391 1135.06C839.327 1137.41 837.18 1139.97 833.546 1139.23C829.871 1138.49 828.674 1135.35 828.179 1132.25C826.61 1121.97 828.344 1112.01 831.523 1102.23C831.853 1101.19 832.473 1099.75 833.918 1100.41C835.115 1100.99 834.743 1102.47 834.496 1103.55C833.009 1110.16 832.431 1116.81 832.638 1123.58C832.72 1126.59 833.381 1129.32 835.28 1132.29H835.322Z" fill="#0C4911"/>
<path d="M895.026 1143.98C895.026 1147.78 895.026 1151.62 895.026 1155.42C895.067 1161.16 894.406 1166.99 896.347 1172.56C896.884 1174.09 897.462 1176.07 899.196 1176.36C901.178 1176.69 901.591 1174.5 902.417 1173.18C907.867 1164.14 908.734 1153.98 909.848 1143.86C909.972 1142.62 909.518 1141.17 911.541 1139.89C913.895 1144.6 912.945 1149.56 912.697 1154.18C912.326 1160.87 911.129 1167.56 908.486 1173.84C907.867 1175.37 907.123 1176.86 906.174 1178.22C904.274 1180.9 901.88 1182.8 898.288 1182.14C894.819 1181.52 893.044 1179.13 891.888 1176.03C889.08 1168.64 890.112 1161.12 891.557 1153.69C892.177 1150.47 891.764 1146.87 895.067 1144.02L895.026 1143.98Z" fill="#0C4911"/>
<path d="M773.636 946.399C761.786 948.381 749.812 949.827 738.003 946.606C733.585 945.408 733.544 940.658 737.425 937.065C741.43 933.389 746.55 931.655 751.67 930.622C757.616 929.425 763.726 928.929 769.837 929.383C770.869 929.466 772.562 928.888 772.686 930.457C772.81 932.192 771.117 932.15 769.796 932.316C763.148 933.224 756.336 933.1 749.977 935.578C746.509 936.941 741.637 938.098 741.719 941.98C741.761 944.045 747.376 943.632 750.555 944.293C758.194 945.821 765.915 944.664 773.636 946.317V946.399Z" fill="#0C4911"/>
<path d="M733.089 445.465C728.795 456.699 723.345 467.066 712.981 473.88C710.504 475.491 707.779 476.895 704.682 476.358C698.902 475.367 696.631 470.989 698.365 464.257C700.884 454.469 706.582 446.746 714.22 440.386C717.854 437.329 721.693 434.521 725.492 431.671C726.277 431.093 727.226 429.441 728.3 430.886C729.332 432.249 728.011 433.364 727.02 434.19C722.271 438.238 717.688 442.409 713.807 447.365C709.678 452.693 706.829 458.434 705.384 464.959C705.137 466.074 704.558 467.437 705.756 468.057C706.375 468.387 707.614 467.809 708.481 467.437C716.697 463.679 722.354 457.071 727.639 450.091C729.126 448.109 730.571 446.25 733.131 445.465H733.089Z" fill="#0C4911"/>
<path d="M743.495 456.452C741.843 460.912 740.44 465.373 738.582 469.668C736.063 475.574 735.155 481.687 735.733 488.005C735.939 490.36 735.939 493.375 738.788 494.201C741.678 495.027 743.867 493.003 745.518 490.938C750.845 484.206 753.404 476.194 755.428 468.016C756.253 464.671 756.873 461.284 757.492 457.897C757.699 456.7 757.905 455.296 759.268 455.337C760.96 455.419 760.589 457.071 760.424 458.063C758.648 469.999 758.524 482.347 752.207 493.251C750.308 496.513 747.83 498.991 744.403 500.478C737.178 503.617 730.324 499.652 729.828 491.805C729.498 486.56 729.622 481.356 731.604 476.235C734.04 469.916 736.848 463.803 740.481 458.104C741.059 457.154 741.431 455.915 743.536 456.452H743.495Z" fill="#0C4911"/>
<path d="M844.942 513.859C847.584 516.997 846.593 521.004 847.378 524.514C848.947 531.411 850.392 538.267 854.108 544.421C855.14 546.114 856.007 548.221 858.443 547.725C860.59 547.271 861.457 545.247 862.076 543.347C864.389 536.367 864.636 529.264 862.82 522.119C862.035 518.939 861.333 515.758 860.631 512.537C860.425 511.587 860.095 510.389 861.168 509.894C862.324 509.357 863.067 510.389 863.356 511.298C867.031 522.903 870.871 534.55 865.916 546.734C863.026 553.92 856.502 554.911 851.176 549.129C848.162 545.825 847.006 541.654 845.974 537.565C844.446 531.37 843.951 524.968 843.62 518.608C843.538 517.08 843.001 515.263 844.942 513.9V513.859Z" fill="#0C4911"/>
<path d="M212.805 669.232C213.383 660.641 216.438 652.877 219.824 645.236C220.237 644.328 220.774 643.13 221.889 643.543C223.581 644.121 222.467 645.401 222.219 646.434C220.98 651.514 219.865 656.635 218.462 661.674C217.76 664.317 217.966 666.919 218.007 669.521C218.049 671.297 218.255 673.486 219.865 674.353C221.93 675.427 222.962 673.073 224.201 671.958C229.032 667.497 229.651 661.343 230.724 655.396C231.179 652.836 231.426 650.234 231.757 647.632C231.881 646.682 231.757 645.401 233.161 645.608C234.234 645.773 234.812 646.888 234.606 647.879C232.995 656.47 234.399 665.68 229.444 673.651C228.371 675.344 227.297 676.955 225.811 678.277C220.856 682.696 215.076 681.044 213.383 674.601C212.929 672.866 212.97 671.049 212.764 669.314L212.805 669.232Z" fill="#0C4911"/>
<path d="M250.297 639.743C252.485 642.138 254.674 644.575 256.903 646.929C258.514 648.581 260.083 650.357 261.941 651.637C264.129 653.124 266.895 656.18 269.249 654.033C272.056 651.513 269.414 648.085 267.927 645.566C265.244 640.899 260.991 637.43 257.357 633.341C258.059 632.846 258.431 632.474 258.555 632.556C265.904 637.182 272.717 642.386 274.162 651.637C275.194 658.121 271.231 660.765 265.079 658.287C261.115 656.717 258.431 653.702 255.954 650.274C253.683 647.135 250.751 644.451 249.1 640.899C249.513 640.527 249.884 640.156 250.297 639.743Z" fill="#0C4911"/>
</g>
<defs>
<clipPath id="clip0_4504_1912">
<rect width="964" height="1520" fill="white"/>
</clipPath>
</defs>
</svg>
