<svg width="953" height="1514" viewBox="0 0 953 1514" fill="none" xmlns="http://www.w3.org/2000/svg">
<path d="M371.252 1253.5C401.252 1253.5 448.085 1262.17 467.752 1266.5C467.752 1286.5 441.252 1274 447.252 1303.5C453.252 1333 501.252 1333 503.752 1347.5C506.252 1362 491.252 1342 479.752 1376C468.252 1410 499.252 1423.5 541.252 1444C583.252 1464.5 611.252 1452.5 647.252 1485.5C683.252 1518.5 714.252 1514 743.752 1513C773.252 1512 859.752 1491.5 913.752 1471C967.752 1450.5 953.752 1416.5 938.752 1389.5C923.752 1362.5 907.252 1342 900.252 1303.5C893.252 1265 853.752 1231 833.252 1212.5C812.752 1194 750.752 1122 690.752 1076.5C630.752 1031 528.752 979.501 467.752 972.501C406.751 965.501 244.252 1013.5 189.752 1018C135.252 1022.5 107.252 1069 64.252 1099.5C21.252 1130 19.7517 1149 2.75172 1212.5C-14.2483 1276 51.7517 1266.5 84.7517 1260.5C117.752 1254.5 234.252 1243.5 271.752 1253.5C309.252 1263.5 333.752 1253.5 371.252 1253.5Z" fill="#4F8C2A"/>
<g clip-path="url(#clip0_4459_2149)">
<path d="M705.367 661.096C695.705 662.5 686.168 661.798 676.63 659.609C665.895 657.131 656.481 651.886 647.356 645.939C641.493 639.702 636.621 633.012 635.423 624.132C635.01 620.911 633.029 622.439 631.749 623.884C628.858 627.188 625.596 630.038 621.302 631.36C614.118 633.507 605.241 629.749 600.328 622.15C598.882 619.878 598.057 618.722 595.744 621.158C586.909 630.41 576.132 630.905 564.695 627.56C548.221 622.728 539.22 610.71 535.751 594.726C531.003 572.796 536.288 551.732 543.927 531.413C551.4 511.465 562.053 493.003 575.884 476.772C592.152 457.65 610.98 441.708 633.524 429.772C656.109 417.795 679.561 408.172 704.046 401.729C740.958 391.982 776.673 397.434 810.283 415.524C844.553 433.985 868.5 462.152 886.213 496.39C902.027 526.911 912.638 558.919 916.561 592.992C920.029 623.224 921.309 653.497 912.886 683.316C911.193 689.346 909.046 695.21 906.032 700.703C893.811 723.129 868.872 727.631 850.003 710.326C838.731 700.001 832.125 686.909 830.514 671.504C830.39 670.306 831.092 668.695 829.399 668.076C828.037 667.58 827.294 668.737 826.551 669.563C814.04 682.944 799.63 679.97 786.748 671.008C777.334 664.441 772.421 655.231 771.884 643.048C768.705 646.971 764.947 649.862 760.24 649.738C755.533 649.615 750.992 647.963 747.11 645.071C744.674 643.254 743.188 640.652 741.825 638.05C741 636.481 740.091 635.82 739.1 637.513C731.42 650.564 719.364 657.255 705.326 661.179L705.367 661.096Z" fill="#0E5415"/>
<path d="M21.8253 380.541C20.4628 365.012 20.9583 349.483 21.9079 333.913C21.9079 333.913 22.6924 315.369 22.8989 313.593C24.1375 300.749 25.2523 287.905 26.9452 275.101C30.3309 249.412 36.5655 224.384 45.4427 200.017C46.6401 196.713 48.2091 193.492 49.6129 190.27C50.5213 189.609 50.5626 188.742 50.2735 187.792C50.6039 187.008 50.8929 186.223 51.2232 185.397C53.2464 183.621 54.5676 181.515 54.0721 178.665C54.4024 177.921 54.7328 177.178 55.0631 176.476C58.3249 173.007 60.1829 168.794 61.2564 164.21C61.6693 162.475 62.619 160.988 63.7338 159.625C67.6563 158.717 67.9866 155.578 68.193 152.398C69.2252 149.878 70.7942 147.772 72.5697 145.748C73.8909 145.583 74.3038 144.798 74.1799 143.559C75.2122 141.371 76.6573 139.471 78.3914 137.819C79.754 137.736 80.2494 136.951 80.1256 135.671C80.8688 134.721 81.612 133.813 82.3139 132.863C84.2545 132.656 85.1628 131.624 85.039 129.641C85.7822 128.113 86.8557 126.915 88.2182 125.924C90.0763 125.759 91.0672 124.726 91.0259 122.827C118.359 93.2142 147.84 66.8645 188.22 56.2503C217.536 48.5271 243.672 54.5157 266.959 73.6378C268.734 75.0833 270.468 76.6527 272.739 78.5938C275.795 69.8381 280.502 62.3215 286.076 55.3417C311.303 23.7881 344.376 5.65724 384.179 1.11419C425.22 -3.59406 463.247 7.47446 499.293 26.5966C525.8 40.68 545.413 61.6606 560.359 87.3908C561.309 89.0428 561.598 90.6949 564.406 89.1254C596.611 71.0772 630.427 69.136 665.605 78.759C696.448 87.1843 721.8 104.696 745.541 125.181C777.87 153.141 795.171 189.114 802.107 230.786C805.08 248.586 806.897 266.47 805.823 284.435C804.295 310.413 797.4 334.698 780.059 354.853C768.952 367.78 755.285 376.783 737.448 376.411C724.607 376.164 714.203 371.125 709.372 358.115C708.463 355.679 707.679 355.431 705.862 357.496C702.435 361.378 699.215 365.302 695.003 368.523C676.753 382.483 652.723 371.703 648.883 351.094C648.759 350.433 648.677 349.814 648.553 349.153L648.429 348.905C642.814 352.168 637.198 355.431 631.583 358.693C626.298 359.024 621.137 358.693 616.182 356.711C608.915 353.861 604.456 348.534 603.011 340.934C602.268 337.176 600.947 336.722 598.717 339.778C596.9 342.256 593.803 342.958 591.863 345.188C588.147 345.188 584.637 347.047 580.839 346.469C569.567 344.775 559.657 338.456 558.955 321.895C553.423 325.281 547.725 327.553 541.449 325.034C535.338 322.556 532.365 317.145 529.558 310.702C518.864 329.824 504.908 342.917 481.869 338.456C461.802 334.574 453.131 320.201 451.026 300.336C448.177 303.64 445.576 306.118 443.635 309.05C441.529 312.272 438.68 314.667 435.997 317.269C428.647 324.332 417.334 325.034 409.86 318.88C406.516 316.113 406.516 319.086 406.144 320.904C404.658 327.718 401.644 333.665 397.68 339.406C390.537 349.731 381.082 356.794 369.48 361.171C361.098 364.352 352.923 365.136 345.656 358.404C343.385 355.472 340.453 356.257 340.412 359.148C340.33 362.245 338.059 364.641 338.761 367.697C337.811 371.455 335.994 374.801 334.26 378.187C331.04 384.465 326.704 389.875 322.451 395.41C312.666 406.189 300.651 409.576 286.612 406.272C281.616 403.009 276.827 399.581 273.235 393.551C271.914 396.979 272.368 399.416 272.409 401.77C272.574 419.24 269.354 436.173 265.225 453.106C261.137 469.833 256.059 486.271 249.411 502.089C243.052 517.246 234.588 531.329 220.55 540.746C214.522 544.793 207.544 548.717 200.029 546.858C188.964 544.091 178.518 540.622 170.838 530.214C164.19 521.211 160.144 511.712 156.717 500.313C153.455 507.334 149.533 512.992 144.082 517.37C130.374 528.232 115.221 534.881 97.3431 531.164C81.7771 527.901 69.3904 519.559 59.1507 507.127C53.1638 499.858 48.2917 492.053 44.2453 483.793C34.5424 463.927 29.1335 442.699 25.7478 420.933C24.7156 414.49 23.6833 408.006 22.9814 401.522" fill="#0E5415"/>
<path d="M258.576 595.429C257.503 595.098 256.471 594.768 255.397 594.438C256.058 587.788 259.155 581.924 261.591 575.852C274.638 543.432 282.772 509.772 287.314 475.162C289.956 455.131 289.874 435.183 287.107 415.194C286.694 412.261 286.818 409.288 286.653 406.314C300.691 409.577 312.706 406.231 322.492 395.452C324.185 411.311 325.713 427.171 328.892 442.824C330.42 450.216 332.36 451.538 340.04 451.951C356.432 452.86 372.576 450.712 388.555 447.491C424.6 440.263 460.604 432.746 496.567 425.023C513.991 421.265 530.919 415.813 545.206 404.538C565.52 388.514 580.136 367.905 591.986 345.189C593.927 342.959 597.023 342.257 598.84 339.779C601.07 336.764 602.391 337.177 603.134 340.935C604.621 348.576 609.038 353.863 616.305 356.712C621.26 358.653 626.462 359.025 631.706 358.695C622.623 389.587 607.098 416.639 583.522 438.735C570.309 451.125 554.702 459.881 537.65 465.374C505.196 475.864 481.703 496.39 465.063 525.796C451.851 549.131 438.102 572.177 431.371 598.485C426.375 617.938 425.591 637.101 434.344 655.975C438.267 664.401 444.254 670.141 452.594 673.735C474.477 683.11 497.475 684.803 520.845 683.234C533.479 682.366 546.073 680.838 558.707 679.806C586.329 677.534 611.268 667.622 634.762 653.415C638.973 650.854 643.226 648.417 647.437 645.898C656.521 651.845 665.976 657.09 676.711 659.568C686.208 661.757 695.746 662.459 705.449 661.055C690.502 676.708 672.541 688.231 653.713 698.515C623.201 715.118 590.252 724.41 556.477 731.555C526.006 737.998 495.081 741.261 464.403 746.258C450.488 748.53 436.945 752.412 427.16 763.563C418.943 772.938 415.269 784.668 412.131 796.438C405.566 821.095 405.153 846.247 406.763 871.564C408.25 894.651 411.553 917.366 417.333 939.751C424.146 966.142 438.267 988.114 457.755 1006.91C470.101 1018.8 482.776 1030.41 492.479 1044.7C494.792 1048.08 496.939 1051.59 498.838 1055.19C500.407 1058.12 501.976 1058.9 505.32 1057.58C513 1054.61 520.969 1052.54 529.185 1051.55C530.176 1051.43 531.167 1051.34 532.117 1051.26C533.149 1051.22 534.264 1051.39 534.677 1052.38C535.255 1053.95 533.727 1054.19 532.819 1054.73C523.942 1059.77 514.899 1064.44 505.733 1068.94C470.885 1086.08 433.931 1095.33 395.491 1099.91C357.299 1104.46 321.46 1116.64 288.016 1135.89C266.545 1148.19 246.272 1162.53 224.472 1174.17C202.299 1185.98 181.448 1199.82 160.019 1212.79C157.79 1214.15 155.354 1215.14 152.918 1216.22C151.885 1216.67 150.605 1217.17 149.738 1216.09C148.995 1215.1 149.408 1213.82 149.862 1212.79C151.596 1209.15 154.487 1206.39 157.129 1203.5C165.428 1194.49 174.14 1185.98 183.554 1178.18C184.875 1177.1 186.486 1176.49 185.536 1173.88C179.425 1156.83 178.888 1139.07 179.384 1121.14C180.664 1073.77 181.159 1026.4 180.581 979.028C180.168 943.674 181.325 908.404 182.77 873.092C183.472 856.448 183.926 839.804 185.041 823.16C185.536 815.602 186.733 808.126 187.848 800.651" fill="#332522"/>
<path d="M21.8253 380.542C20.4628 365.013 20.9583 349.484 21.9079 333.913C23.1879 332.674 23.2292 331.394 22.0731 330.031C22.1556 326.81 21.6189 323.464 23.7659 320.615C23.7659 319.913 23.8072 319.252 23.8485 318.55C21.8666 317.228 22.7337 315.204 22.8989 313.552C24.1375 300.708 25.2523 287.863 26.9452 275.06C30.3309 249.371 36.5655 224.343 45.4427 199.976C46.6401 196.672 48.2091 193.451 49.6129 190.229C50.5213 189.568 50.5626 188.701 50.2735 187.751C50.6039 186.966 50.8929 186.182 51.2232 185.356C53.2464 183.58 54.5676 181.474 54.0721 178.624C54.4024 177.88 54.7328 177.137 55.0631 176.435C58.3249 172.966 60.1829 168.753 61.2564 164.169C61.6693 162.434 62.619 160.947 63.7338 159.584C67.6563 158.676 67.9866 155.537 68.193 152.357C69.2252 149.837 70.7942 147.731 72.5697 145.707C73.8909 145.542 74.3038 144.757 74.1799 143.518C75.2122 141.329 76.6573 139.43 78.3914 137.778C79.754 137.695 80.2494 136.91 80.1256 135.63C80.8688 134.68 81.612 133.772 82.3139 132.822C84.2545 132.615 85.1628 131.583 85.039 129.6C85.7822 128.072 86.8557 126.874 88.2182 125.883C90.0763 125.718 91.0672 124.685 91.0259 122.786C118.359 93.1732 147.84 66.8235 188.22 56.2093C217.536 48.4861 243.672 54.4747 266.959 73.5968C268.734 75.0423 270.468 76.6117 272.739 78.5528C275.795 69.7971 280.502 62.2804 286.076 55.3007C311.303 23.7471 344.376 5.61622 384.179 1.07317C425.22 -3.63508 463.247 7.43344 499.293 26.5556C525.8 40.639 545.413 61.6196 560.359 87.3498C561.309 89.0018 561.598 90.6538 564.406 89.0844C596.611 71.0361 630.427 69.095 665.605 78.718C696.448 87.1433 721.8 104.655 745.541 125.14C777.87 153.1 795.171 189.073 802.107 230.745C805.08 248.545 806.897 266.429 805.823 284.394C804.295 310.372 797.4 334.657 780.059 354.812C768.952 367.739 755.285 376.742 737.448 376.37C724.607 376.123 714.203 371.084 709.372 358.074C708.463 355.638 707.679 355.39 705.862 357.455C702.435 361.337 699.215 365.261 695.003 368.482C676.753 382.442 652.723 371.662 648.883 351.053C648.759 350.392 648.677 349.773 648.553 349.112L648.429 348.864C642.814 352.127 637.198 355.39 631.583 358.652C626.298 358.983 621.137 358.652 616.182 356.67C608.915 353.82 604.456 348.493 603.011 340.893C602.268 337.135 600.947 336.681 598.717 339.737C596.9 342.215 593.803 342.917 591.863 345.147C588.147 345.147 584.637 347.006 580.839 346.428C569.567 344.734 559.657 338.415 558.955 321.854C553.423 325.24 547.725 327.512 541.449 324.993C535.338 322.515 532.365 317.104 529.558 310.661C518.864 329.783 504.908 342.876 481.869 338.415C461.802 334.533 453.131 320.16 451.026 300.295C448.177 303.599 445.576 306.077 443.635 309.009C441.529 312.231 438.68 314.626 435.997 317.228C428.647 324.29 417.334 324.993 409.86 318.839C406.516 316.072 406.516 319.045 406.144 320.863C404.658 327.677 401.644 333.624 397.68 339.365C390.537 349.69 381.082 356.753 369.48 361.131C361.098 364.311 352.923 365.095 345.656 358.363C343.385 355.431 340.453 356.216 340.412 359.107C340.33 362.204 338.059 364.6 338.761 367.656C337.811 371.414 335.994 374.76 334.26 378.146C331.04 384.424 326.704 389.834 322.451 395.369C312.666 406.148 300.651 409.535 286.612 406.231C281.616 402.968 276.827 399.54 273.235 393.51C271.914 396.938 272.368 399.375 272.409 401.729C272.574 419.199 269.354 436.132 265.225 453.065C261.137 469.792 256.059 486.23 249.411 502.048C243.052 517.205 234.588 531.288 220.55 540.705C214.522 544.752 207.544 548.676 200.029 546.817C188.964 544.05 178.518 540.581 170.838 530.173C164.19 521.17 160.144 511.671 156.717 500.272C153.455 507.293 149.533 512.951 144.082 517.329C130.374 528.191 115.221 534.84 97.3431 531.123C81.7771 527.86 69.3904 519.518 59.1507 507.086C53.1638 499.817 48.2917 492.012 44.2453 483.752C34.5424 463.886 29.1335 442.658 25.7478 420.892C24.7156 414.449 23.6833 407.965 22.9814 401.481M133.719 92.2233C131.902 92.0168 130.663 92.9254 129.342 94.0818C115.304 106.1 102.257 119.192 90.9846 133.813C77.6069 151.2 65.8808 169.703 57.334 190.188C53.9896 198.242 50.3974 206.089 47.7136 214.431C44.0389 225.83 40.0338 237.105 37.5978 248.876C32.1063 275.721 29.2574 302.938 28.0187 330.196C26.78 358.322 26.2846 386.654 31.776 414.532C35.203 431.919 38.9603 449.307 46.062 465.662C53.4528 482.678 61.2564 499.446 76.5747 511.175C86.897 519.105 98.3341 523.276 111.381 521.211C125.378 518.981 137.063 512.414 145.775 501.015C151.391 493.664 155.809 485.569 160.061 477.433C160.639 476.276 161.135 474.665 162.828 475.202C164.562 475.781 164.521 477.474 164.149 479.002C163.241 482.513 162.25 485.982 161.341 489.451C160.805 491.599 159.277 493.54 160.103 496.059C164.562 509.895 170.796 522.615 182.977 531.33C188.881 535.542 195.653 538.929 203.167 538.062C216.38 536.492 225.216 528.026 232.152 517.411C243.218 500.437 250.526 481.81 255.769 462.317C258.742 451.248 261.385 440.097 263.697 428.822C266.133 417.01 267.165 404.909 271.129 393.386C271.707 391.734 271.459 389.917 270.468 388.141C265.968 380.211 265.596 371.249 264.482 362.493C264.358 361.585 263.738 360.181 265.72 359.52C266.34 361.254 267 362.865 267.454 364.6C270.303 374.636 274.102 384.217 281.493 391.858C284.631 395.079 287.686 398.673 292.599 399.499C307.835 402.018 318.281 394.212 325.176 382.276C332.939 368.895 338.348 354.316 337.687 338.291C337.646 336.928 336.944 334.863 338.843 334.45C340.825 333.996 341.238 336.309 342.146 337.548C342.559 338.126 342.435 339.117 342.601 339.943C344.004 346.923 353.625 354.44 360.644 354.977C375.508 356.133 389.959 342.793 395.285 331.435C400.488 320.326 406.31 309.257 405.112 296.206C404.906 293.852 406.062 291.415 406.599 288.979C409.159 295.463 409.778 302.071 412.627 308.266C416.714 317.104 425.757 317.022 431.124 312.809C440.786 305.251 450.406 297.404 455.072 285.385C455.361 284.683 455.733 283.816 457.426 284.477C457.426 286.831 457.591 289.433 457.426 292.035C456.971 298.23 458.416 303.971 460.275 309.877C462.876 318.095 468.078 324.58 474.891 328.503C488.269 336.226 501.522 333.872 513.331 323.051C521.176 315.865 525.924 306.242 531.663 297.445C532.407 296.289 532.572 294.1 534.554 294.802C536.37 295.421 535.71 297.404 535.586 298.767C534.843 305.292 537.237 310.744 541.408 315.494C545.495 320.16 549.789 320.45 555.033 317.187C559.162 314.626 562.052 310.744 565.603 307.564C566.47 306.779 567.461 305.829 568.576 306.82C569.567 307.688 568.658 308.762 568.122 309.464C566.098 312.024 565.479 314.915 565.066 318.137C564.158 325.199 567.75 333.666 574.356 337.424C580.632 340.976 587.156 341.306 593.473 337.094C598.841 333.501 603.135 328.834 607.057 322.969C608.544 327.058 607.759 330.692 607.842 334.161C608.007 340.769 612.838 348.575 618.288 350.929C626.009 354.233 633.193 353.366 639.304 347.584C644.135 343 649.337 338.746 652.971 332.757C653.549 339.737 653.342 346.469 655.861 353.118C662.632 371.001 681.625 375.462 695.003 362.246C700.742 356.587 706.729 351.094 709.826 343.247C711.725 344.817 711.519 346.675 711.849 348.451C716.061 369.762 736.127 375.544 753.51 367.491C753.964 367.284 754.088 366.376 754.377 365.797C760.983 365.715 765.03 360.965 769.324 357.083C784.394 343.454 792.487 325.612 797.813 306.614C801.777 292.489 801.364 277.786 800.125 263.083C798.804 247.183 796.657 231.488 792.982 215.959C786.624 189.279 775.682 164.912 756.689 144.675C735.838 122.455 711.478 105.068 684.103 91.769C661.807 80.9069 638.561 76.3226 613.829 79.4201C591.12 82.2699 570.805 90.943 551.895 103.457C549.542 105.026 548.22 108 544.546 109.156C546.775 101.888 551.028 97.1793 556.767 93.6688C558.873 92.3885 560.194 91.2734 558.254 88.6714C545.454 71.4078 531.085 55.6311 514.074 42.4149C502.555 33.4527 489.466 27.2164 476.171 21.4343C453.173 11.4396 429.184 5.98793 404.121 5.12062C394.212 4.79021 384.468 5.94663 374.806 8.09425C346.564 14.2893 321.378 26.5143 300.568 46.8341C290.989 56.168 283.764 67.4017 277.24 79.0897C275.258 82.6829 275.96 85.037 278.189 87.8454C281.369 91.8516 284.383 95.9403 287.314 100.07C288.058 101.103 289.461 102.218 288.305 103.911C286.323 103.622 285.374 102.135 284.383 100.896C278.437 93.5862 271.583 87.2259 264.564 80.9895C244.25 63.0239 220.591 56.9114 194.455 62.5282C171.953 67.3604 150.689 75.7444 133.678 92.2646L133.719 92.2233Z" fill="#0C4911"/>
<path d="M765.36 1203.91C703.014 1263.92 730.388 1293.53 696.696 1364.07C686.085 1385.38 681.502 1410.53 666.597 1429.33C661.683 1435.19 691.783 1443.9 692.98 1452.04C671.345 1445.72 646.489 1438.82 627.372 1425.32C610.774 1409.01 586.124 1404.09 570.93 1387.16C584.06 1387.53 595.786 1404.55 600.699 1384.47C653.838 1317.77 674.318 1233.07 680.016 1149.47C695.292 1149.35 708.299 1143.48 719.571 1133.49C731.255 1188.59 706.606 1202.63 745.5 1171.2C766.764 1170.66 750.248 1182.39 765.319 1203.95L765.36 1203.91Z" fill="#332522"/>
<path d="M705.367 661.096C695.705 662.5 686.168 661.798 676.63 659.609C665.895 657.131 656.481 651.886 647.356 645.939C641.493 639.702 636.621 633.012 635.423 624.132C635.01 620.911 633.029 622.439 631.749 623.884C628.858 627.188 625.596 630.038 621.302 631.36C614.118 633.507 605.241 629.749 600.328 622.15C598.882 619.878 598.057 618.722 595.744 621.159C586.909 630.41 576.132 630.905 564.695 627.56C548.221 622.728 539.22 610.71 535.751 594.726C531.003 572.796 536.288 551.732 543.927 531.413C551.4 511.465 562.053 493.003 575.884 476.772C592.152 457.65 610.98 441.708 633.524 429.772C656.109 417.795 679.561 408.172 704.046 401.729C740.958 391.982 776.673 397.434 810.283 415.524C844.553 433.985 868.5 462.152 886.213 496.39C902.027 526.911 912.638 558.919 916.561 592.992C920.029 623.224 921.309 653.497 912.886 683.316C911.193 689.346 909.046 695.21 906.032 700.703C893.811 723.129 868.872 727.631 850.003 710.326C838.731 700.001 832.125 686.909 830.514 671.504C830.39 670.306 831.092 668.695 829.4 668.076C828.037 667.58 827.294 668.737 826.551 669.563C814.04 682.944 799.63 679.97 786.748 671.008C777.334 664.441 772.421 655.231 771.884 643.048C768.705 646.971 764.947 649.862 760.24 649.738C755.533 649.615 750.992 647.963 747.11 645.072C744.674 643.254 743.188 640.652 741.825 638.05C741 636.481 740.091 635.82 739.1 637.514C731.42 650.564 719.364 657.255 705.326 661.179L705.367 661.096Z" fill="#0E5415"/>
<path d="M338.553 704.38C335.126 712.351 332.484 720.693 327.116 727.756C316.588 741.509 303.788 751.751 286.281 754.766C281.574 755.592 276.537 755.757 272.202 753.61C268.775 751.916 268.279 753.114 267.247 755.922C262.871 767.693 251.557 775.169 239.377 774.921C235.991 774.838 233.39 773.227 230.665 771.782C228.312 770.543 227.279 770.997 226.412 773.558C220.301 792.06 205.85 798.916 187.931 800.733C182.15 800.568 176.576 799.618 171.952 795.901C169.805 794.208 167.988 795.158 166.873 796.562C153.743 813 136.485 813.991 117.987 809.613C101.637 805.772 87.268 798.462 78.3908 783.387C71.4542 771.617 68.564 758.814 70.0091 744.978C78.1018 668.283 145.486 602.904 221.953 593.57C233.142 592.208 244.249 592.662 255.356 594.438C256.429 594.768 257.462 595.099 258.535 595.429C259.361 595.553 260.187 595.635 260.93 595.842C276.661 600.633 289.254 609.967 299.742 622.357C304.077 627.519 308.908 632.186 314.028 636.523C326.786 647.261 334.92 660.684 338.595 676.956C340.659 686.125 339.173 695.252 338.471 704.38H338.553Z" fill="#0E5415"/>
<path d="M764.328 1204.82C759.497 1195.94 755.162 1186.89 756.359 1176.32C756.565 1174.5 756.111 1173.14 753.799 1173.02C731.916 1173.39 720.314 1150.38 721.635 1130.72C719.57 1131.67 718.745 1132.79 718.579 1134.36C693.93 1158.85 648.347 1154.35 633.772 1120.98C632.409 1118.04 631.253 1118.09 629.106 1119.61C597.685 1141.21 559.74 1109.17 558.254 1075.96C553.051 1017.27 589.964 965.646 628.28 925.048C717.052 841.29 858.591 903.241 906.94 1001.87C955.166 1082.73 963.507 1201.43 905.124 1278.99C862.224 1325.46 818.458 1258.67 831.051 1214.69C808.755 1229.97 780.142 1227.86 764.41 1204.82H764.328ZM697.026 896.674C631.501 908.486 587.528 973.741 568.287 1033.3C553.464 1087.61 583.027 1139.27 641.121 1108.38C642.029 1114.04 632.285 1110.98 640.378 1120.11C661.394 1154.27 704.995 1145.1 727.622 1117.63C729.975 1121.8 723.823 1126.92 725.433 1130.97C730.884 1156.83 742.321 1168.89 768.952 1164.18C769.53 1165.5 768.581 1166.32 767.507 1166.94C756.111 1169.67 760.901 1181.4 764.493 1188.83C772.833 1220.02 821.1 1228.23 838.524 1201.72C840.589 1201.06 841.332 1198.17 844.47 1198.13C813.173 1324.84 943.481 1323.84 938.65 1137.66C940.013 1013.55 832.909 865.988 696.985 896.633L697.026 896.674Z" fill="#0C4911"/>
<path d="M705.367 661.096C695.705 662.5 686.168 661.798 676.63 659.609C665.895 657.131 656.481 651.886 647.356 645.939C641.493 639.702 636.621 633.012 635.423 624.132C635.01 620.911 633.029 622.439 631.749 623.884C628.858 627.188 625.596 630.038 621.302 631.36C614.118 633.507 605.241 629.749 600.328 622.15C598.882 619.878 598.057 618.722 595.744 621.159C586.909 630.41 576.132 630.905 564.695 627.56C548.221 622.728 539.22 610.71 535.751 594.726C531.003 572.796 536.288 551.732 543.927 531.413C551.4 511.465 562.053 493.003 575.884 476.772C592.152 457.65 610.98 441.708 633.524 429.772C656.109 417.795 679.561 408.172 704.046 401.729C740.958 391.982 776.673 397.434 810.283 415.524C844.553 433.985 868.5 462.152 886.213 496.39C902.027 526.911 912.638 558.919 916.561 592.992C920.029 623.224 921.309 653.497 912.886 683.316C911.193 689.346 909.046 695.21 906.032 700.703C893.811 723.129 868.872 727.631 850.003 710.326C838.731 700.001 832.125 686.909 830.514 671.504C830.39 670.306 831.092 668.695 829.4 668.076C828.037 667.58 827.294 668.737 826.551 669.563C814.04 682.944 799.63 679.97 786.748 671.008C777.334 664.441 772.421 655.231 771.884 643.048C768.705 646.971 764.947 649.862 760.24 649.738C755.533 649.615 750.992 647.963 747.11 645.072C744.674 643.254 743.188 640.652 741.825 638.05C741 636.481 740.091 635.82 739.1 637.514C731.42 650.564 719.364 657.255 705.326 661.179L705.367 661.096ZM668.372 420.191C666.638 420.727 664.821 421.017 663.211 421.801C635.217 434.935 609.246 451.001 587.61 473.551C581.376 480.035 574.811 486.436 570.641 494.325C565.067 504.856 557.511 514.149 553.01 525.465C548.757 536.121 545.702 547.024 542.482 557.969C540.871 563.503 542.316 569.161 541.367 574.654C538.435 591.629 544.422 605.175 556.85 616.368C560.69 619.837 564.984 621.737 570.31 621.324C573.283 621.117 576.256 621.2 579.229 621.324C586.909 621.53 593.35 618.804 598.552 613.146C600.658 610.875 601.69 610.379 603.176 614.055C606.645 622.728 614.49 627.478 623.738 622.356C627.537 620.25 630.923 617.772 633.937 614.674C635.217 613.353 636.29 610.792 638.603 611.866C640.584 612.775 639.635 615.17 639.552 616.822C639.057 627.767 644.548 635.82 652.6 642.057C667.009 653.208 683.649 656.842 701.61 654.942C711.726 653.869 720.479 649.945 727.787 642.635C733.072 637.39 737.82 631.773 742.238 625.825C742.899 624.958 743.188 623.306 744.633 623.843C746.202 624.463 745.087 625.784 744.839 626.817C743.931 630.369 745.087 633.177 747.565 635.779C755.409 643.915 761.727 644.122 769.737 636.233C770.108 635.903 770.439 635.531 770.81 635.201C771.76 634.333 772.586 632.97 774.113 633.507C775.765 634.086 775.104 635.738 775.269 636.935C776.384 647.095 780.266 655.975 787.78 663.037C802.107 676.501 823.371 671.669 831.712 657.916C834.189 662.996 834.024 668.695 835.634 674.023C839.763 687.941 846.122 700.455 858.426 708.757C866.973 714.539 876.469 717.058 886.42 712.185C894.636 708.179 899.55 701.034 903.059 692.774C910.904 674.312 912.886 654.736 913.794 634.994C914.373 622.191 913.01 609.388 912.019 596.585C910.533 577.297 906.941 558.464 900.458 540.375C890.714 513.158 877.625 487.552 859.954 464.423C844.966 444.806 826.344 429.607 804.296 418.952C779.316 406.933 753.015 401.151 725.021 404.166C705.202 406.314 686.457 411.889 668.413 420.149L668.372 420.191Z" fill="#0C4911"/>
<path d="M338.553 704.38C335.126 712.351 332.484 720.693 327.116 727.756C316.588 741.509 303.788 751.751 286.281 754.766C281.574 755.592 276.537 755.757 272.202 753.61C268.775 751.916 268.279 753.114 267.247 755.922C262.871 767.693 251.557 775.169 239.377 774.921C235.991 774.838 233.39 773.227 230.665 771.782C228.312 770.543 227.279 770.997 226.412 773.558C220.301 792.06 205.85 798.916 187.931 800.733C182.15 800.568 176.576 799.618 171.952 795.901C169.805 794.208 167.988 795.158 166.873 796.562C153.743 813 136.485 813.991 117.987 809.613C101.637 805.772 87.268 798.462 78.3908 783.387C71.4542 771.617 68.564 758.814 70.0091 744.978C78.1018 668.283 145.486 602.904 221.953 593.57C233.142 592.208 244.249 592.662 255.356 594.438C256.429 594.768 257.462 595.099 258.535 595.429C259.361 595.553 260.187 595.635 260.93 595.842C276.661 600.633 289.254 609.967 299.742 622.357C304.077 627.519 308.908 632.186 314.028 636.523C326.786 647.261 334.92 660.684 338.595 676.956C340.659 686.125 339.173 695.252 338.471 704.38H338.553ZM132.727 641.066C131.695 641.066 130.828 641.52 130.085 642.222C115.716 655.728 103.371 670.761 93.8329 688.107C84.7493 704.751 78.4734 722.345 76.5328 741.178C75.0877 755.344 76.7392 769.263 85.0796 781.364C91.7685 791.028 101.306 797.099 112.578 800.32C123.355 803.418 134.131 806.061 145.486 803.418C154.858 801.229 161.052 794.621 167.41 788.137C170.837 784.585 170.837 784.668 173.025 788.715C173.562 789.706 174.471 790.574 175.379 791.193C179.178 793.712 183.513 794.869 187.972 794.538C202.96 793.423 214.562 787.104 220.921 772.69C222.861 768.23 223.935 763.687 224.719 759.02C224.926 757.864 225.091 756.501 226.536 756.542C227.899 756.542 227.568 757.946 227.692 758.855C228.518 765.876 231.739 768.808 238.882 768.891C248.584 769.015 258.576 761.994 262.334 752.866C264.274 748.158 265.1 742.913 268.445 737.957C269.725 740.889 269.312 743.202 269.229 745.391C269.105 748.282 270.344 749.975 273.11 749.975C278.024 749.975 282.896 750.512 287.85 749.356C314.688 743.243 338.264 714.002 333.434 680.012C333.103 677.575 333.021 674.643 330.709 672.826C330.089 664.938 326.414 658.082 321.46 652.506C309.692 639.29 298.916 625.124 285.125 613.766C273.606 604.267 260.558 598.609 245.736 597.618C232.895 596.751 220.219 598.155 207.75 601.459C179.673 608.934 153.331 619.548 132.686 641.107L132.727 641.066Z" fill="#0C4911"/>
<path d="M61.2969 164.209C60.2234 168.793 58.3654 173.006 55.1035 176.475C56.5486 172.056 58.5718 167.926 61.2969 164.209Z" fill="#1A7125"/>
<path d="M68.2756 152.398C68.0279 155.579 67.7389 158.717 63.8164 159.626C64.8486 156.941 66.2112 154.463 68.2756 152.398Z" fill="#1A7125"/>
<path d="M54.1126 178.666C54.6081 181.516 53.2868 183.581 51.2637 185.398C51.594 182.92 52.6675 180.69 54.1126 178.666Z" fill="#1A7125"/>
<path d="M22.0738 330.031C23.2712 331.353 23.2299 332.674 21.9086 333.913C21.4957 332.592 21.537 331.312 22.0738 330.031Z" fill="#1A7125"/>
<path d="M91.1084 122.826C91.1084 124.726 90.1588 125.759 88.3008 125.924C88.8375 124.519 89.7459 123.487 91.1084 122.826Z" fill="#1A7125"/>
<path d="M85.1216 129.641C85.2454 131.582 84.3371 132.656 82.3965 132.862C82.892 131.458 83.759 130.343 85.1216 129.641Z" fill="#1A7125"/>
<path d="M23.8485 318.592C23.8485 319.294 23.8072 319.955 23.7659 320.657C22.4033 319.913 23.1465 319.253 23.8485 318.592Z" fill="#1A7125"/>
<path d="M50.3144 187.793C50.6034 188.743 50.5208 189.651 49.6537 190.271C48.9518 189.197 49.5299 188.454 50.3144 187.793Z" fill="#1A7125"/>
<path d="M80.2088 135.631C80.3326 136.911 79.8372 137.696 78.4746 137.778C78.6811 136.746 79.2178 136.003 80.2088 135.631Z" fill="#1A7125"/>
<path d="M74.2626 143.561C74.4278 144.8 73.9736 145.584 72.6523 145.749C72.8175 144.758 73.2717 143.974 74.2626 143.561Z" fill="#1A7125"/>
<path d="M338.553 704.379C349.206 659.61 297.471 608.81 258.535 595.429C278.437 559.869 286.158 518.61 292.103 478.672C292.599 472.353 292.516 472.395 298.09 475.988C304.985 480.448 312.665 482.555 320.758 483.546C342.93 486.313 363.657 479.746 384.467 473.923C417.416 463.226 453.874 458.394 481.372 435.637C502.471 427.749 527.203 426.592 545.866 411.559C559.491 402.969 569.071 388.348 580.012 378.064C600.037 379.675 584.554 390.785 578.195 399.954C537.071 444.352 464.733 449.597 438.019 509.73C410.562 559.167 391.238 630.08 428.811 671.835C463.288 710.203 548.261 690.007 596.61 681.54C605.075 680.053 616.388 666.135 618.783 674.602C616.099 714.994 444.336 700.291 421.627 745.06C401.726 764.967 405.524 792.886 400.611 818.327C395.615 888.414 403.873 969.446 459.861 1018.47C461.595 1022.64 474.973 1028.88 468.532 1031.36C456.682 1031.15 444.832 1032.35 433.023 1030.45C421.999 1020.45 418.283 1002.4 403.047 995.506C453.957 1064.64 407.671 1003.89 322.657 1042.38C270.839 1067.29 275.67 1050.39 276.042 1003.06C275.505 943.179 266.958 882.88 276.95 823.325C295.613 776.407 335.87 805.978 338.595 704.421L338.553 704.379ZM369.19 517.123C368.777 517.04 368.364 516.999 367.951 516.917C339.71 625.991 359.239 639.207 369.19 517.123ZM435.046 1011.41C420.058 987.453 399.331 968.207 390.206 941.609C385.045 959.121 420.719 1000.34 435.046 1011.41ZM383.187 908.693C381.494 883.995 380.999 855.704 379.843 832.782C373.443 855.869 375.053 885.317 383.187 908.693ZM401.974 534.221C407.424 517.949 410.768 501.264 411.346 484.083C406.557 490.113 400.363 522.699 401.974 534.221ZM348.587 648.376C349.825 643.007 355.234 628.056 351.147 624.876C349.041 624.711 349.743 627.684 349.454 629.378C348.587 635.531 346.564 642.057 348.587 648.376ZM394.17 570.814C394.583 570.896 395.037 570.938 395.45 571.02C401.685 544.588 395.161 544.753 394.17 570.814Z" fill="#4E3832"/>
<path d="M133.719 92.2237C150.73 75.6622 171.994 67.3196 194.497 62.4874C220.633 56.8705 244.25 62.983 264.606 80.9487C271.666 87.1851 278.52 93.504 284.424 100.856C285.415 102.053 286.365 103.54 288.347 103.87C289.544 102.177 288.099 101.062 287.356 100.03C284.424 95.8995 281.369 91.7694 278.231 87.8046C276.001 84.9961 275.299 82.642 277.281 79.0489C283.764 67.3196 290.989 56.1271 300.61 46.7932C321.419 26.5147 346.606 14.2485 374.847 8.05341C384.509 5.94709 394.253 4.74938 404.163 5.07978C429.225 5.94709 453.255 11.3987 476.212 21.3935C489.507 27.1755 502.637 33.4119 514.116 42.3741C531.085 55.5902 545.454 71.367 558.295 88.6306C560.236 91.2325 558.914 92.3476 556.809 93.6279C551.069 97.1385 546.858 101.847 544.587 109.116C548.262 107.959 549.583 104.986 551.936 103.416C570.847 90.9021 591.161 82.1877 613.87 79.3793C638.602 76.2818 661.848 80.8661 684.144 91.7281C711.519 105.027 735.879 122.456 756.73 144.634C775.723 164.871 786.665 189.197 793.024 215.919C796.74 231.448 798.845 247.1 800.167 263.042C801.405 277.787 801.818 292.448 797.854 306.573C792.528 325.571 784.435 343.454 769.365 357.042C765.071 360.924 761.025 365.674 754.418 365.757C749.422 364.518 744.798 362.453 740.215 360.14C729.315 354.605 724.773 344.941 727.209 332.799C727.993 328.793 728.241 324.663 728.613 320.615C728.736 319.252 728.324 317.972 726.796 317.435C725.475 316.981 724.608 317.765 723.74 318.592C722.667 319.624 721.635 320.698 720.603 321.73C714.492 327.636 702.6 329.784 694.755 326.439C687.034 323.176 684.516 316.031 682.286 308.968C679.85 301.204 679.933 293.068 680.098 285.014C680.098 283.527 680.387 281.71 678.777 281.049C676.795 280.223 675.721 282.123 674.937 283.404C673.285 286.047 672.005 288.938 670.519 291.705C663.747 304.136 653.054 309.423 640.791 306.119C629.23 303.021 623.738 294.761 621.756 282.247C620.889 276.754 620.559 271.179 619.857 265.644C619.651 264.075 620.353 261.597 617.38 261.721C614.944 261.803 614.737 263.951 614.283 265.603C613.003 270.394 611.682 275.102 609.287 279.48C604.828 287.657 596.074 291.705 587.28 289.557C571.342 285.675 565.479 277.993 565.149 261.556C565.025 254.287 566.47 247.142 566.222 239.873C566.181 238.138 566.099 236.486 564.034 235.991C562.094 235.536 561.02 236.569 560.07 238.138C556.561 243.92 552.432 249.248 547.973 254.287C538.435 265.025 527.865 269.857 515.354 256.847C508.005 249.248 506.106 239.873 505.982 230.126C505.775 213.895 509.409 198.159 514.116 182.754C519.937 163.797 528.154 145.832 537.32 128.279C538.146 126.668 538.93 125.016 539.715 123.406C540.499 121.712 541.284 119.73 539.715 118.408C538.27 117.21 536.577 118.408 535.132 119.193C534.554 119.523 534.1 120.019 533.563 120.391C521.795 128.816 512.547 139.678 503.298 150.623C486.163 170.942 474.272 194.071 467.294 219.636C463.578 233.347 458.912 246.646 452.471 259.284C448.961 266.14 445.287 267.833 439.011 266.223C432.322 264.529 428.606 259.945 428.647 253.089C428.647 249.289 428.399 245.531 427.656 241.814C427.243 239.832 426.376 238.221 424.353 238.056C422 237.808 421.256 239.997 421.009 241.649C420.472 245.201 420.348 248.876 421.133 252.469C423.981 265.933 415.848 282.577 403.254 288.153C389.257 294.348 380.339 287.41 376.21 273.037C375.632 270.931 376.375 267.585 373.155 267.998C370.058 268.411 371.503 271.715 371.214 273.863C371.173 274.194 371.214 274.524 371.255 274.854C374.063 287.534 370.099 298.974 364.319 309.877C359.859 318.302 347.927 323.3 340.371 320.491C331.948 317.394 321.048 301.824 320.635 292.655C320.511 290.177 322.286 285.84 318.199 285.882C314.194 285.882 315.845 290.259 315.845 292.737C315.928 309.753 311.262 325.076 300.651 338.581C292.311 349.195 278.355 350.021 269.643 339.779C265.679 335.112 262.665 329.825 261.302 323.754C258.866 313.14 258.866 302.278 258.33 291.457C258.206 289.227 259.651 285.262 256.554 285.179C253.21 285.097 253.499 289.062 253.416 291.829C253.416 291.994 253.416 292.159 253.416 292.324C252.879 308.266 249.122 323.341 239.295 336.186C234.052 343.083 228.23 350.269 218.155 349.815C195.322 348.823 172.448 331.642 178.559 301.369C179.922 294.637 180.004 287.657 182.729 281.215C183.638 279.067 181.903 277.911 180.623 277.291C178.476 276.259 178.476 278.447 177.981 279.728C176.329 284.023 174.554 288.277 173.068 292.614C167.122 309.96 157.006 322.763 138.137 327.471C124.677 330.816 108.615 325.489 101.266 314.214C88.2597 294.224 81.7773 272.335 81.1993 248.629C80.8689 234.297 81.9012 220.09 84.0069 205.883C87.5578 182.341 94.2053 159.75 103.826 137.985C111.299 121.134 122.323 106.596 133.636 92.2237H133.719Z" fill="#1A7125"/>
<path d="M764.328 1204.82C759.497 1195.94 755.162 1186.89 756.359 1176.32C756.565 1174.5 756.111 1173.14 753.799 1173.02C731.916 1173.39 720.314 1150.38 721.635 1130.72C719.57 1131.67 718.745 1132.79 718.579 1134.36C693.93 1158.85 648.347 1154.35 633.772 1120.98C632.409 1118.04 631.253 1118.09 629.106 1119.61C597.685 1141.21 559.74 1109.17 558.254 1075.96C553.051 1017.27 589.964 965.646 628.28 925.048C717.052 841.29 858.591 903.241 906.94 1001.87C955.166 1082.73 963.507 1201.43 905.124 1278.99C862.224 1325.46 818.458 1258.67 831.051 1214.69C808.755 1229.97 780.142 1227.86 764.41 1204.82H764.328Z" fill="#0E5415"/>
<path d="M345.615 358.446C343.055 357.744 343.302 360.057 342.642 361.254C341.444 363.485 340.949 366.128 338.719 367.697C337.976 364.682 340.288 362.246 340.371 359.148C340.453 356.298 343.344 355.514 345.615 358.405V358.446Z" fill="#1A7125"/>
<path d="M642.773 1342.8C640.296 1344.74 638.974 1347.55 637.364 1350.11C633.689 1355.77 630.056 1361.47 626.299 1367.04C625.556 1368.16 624.565 1369.93 622.789 1368.49C621.22 1367.25 622.707 1366.26 623.408 1365.19C637.323 1345.24 648.306 1323.72 657.513 1301.25C668.249 1274.94 675.02 1247.52 679.933 1219.64C681.833 1208.86 683.732 1197.92 683.113 1186.85C682.824 1182.14 684.393 1180.12 688.934 1179.13C697.233 1177.35 697.068 1177.1 695.417 1185.45C694.178 1191.72 693.394 1198.04 692.361 1204.36C692.155 1205.6 692.155 1206.92 693.6 1207.09C694.674 1207.21 694.921 1205.89 695.128 1204.9C696.738 1196.51 698.596 1188.21 699.793 1179.79C700.248 1176.77 701.61 1175.99 704.046 1175.53C713.997 1173.76 717.713 1176.4 716.846 1185.24C716.433 1189.25 717.341 1192.84 720.851 1195.27C721.966 1196.06 722.42 1196.51 721.388 1197.88C704.377 1220.01 697.481 1246.24 691.04 1272.67C685.672 1294.69 680.511 1316.82 673.203 1338.3C669.652 1348.75 665.936 1359.16 659.867 1368.49C654.664 1376.46 647.315 1378.61 638.479 1375.06C630.469 1371.83 630.51 1371.83 634.35 1364.03C637.24 1358.12 640.007 1352.13 642.814 1346.15C643.31 1345.11 644.053 1344.12 642.814 1342.72L642.773 1342.8ZM668.703 1291.3C677.126 1284.03 689.554 1239.01 685.962 1231.17C679.727 1250.82 673.616 1270.19 668.703 1291.3Z" fill="#4E3832"/>
<path d="M698.058 895.723C834.023 865.119 941.045 1012.6 939.723 1136.75C945.421 1319.3 812.429 1331.53 844.263 1198.29C843.52 1201.35 840.588 1201.31 838.524 1201.97C839.226 1183.17 849.135 1163.93 822.834 1179.46C809.043 1181.56 804.543 1177.89 803.882 1165.46C802.602 1158.68 809.043 1150.79 805.121 1145.14C802.974 1143.61 801.198 1144.93 799.795 1146.21C786.293 1160.17 750.619 1156.99 757.886 1132.33C757.762 1120.15 774.567 1106.56 768.497 1096.11C731.461 1116.97 700.164 1076.25 716.845 1041.22C718.579 1037.51 716.184 1037.09 713.583 1037.67C625.926 1073.89 661.765 927.318 698.058 895.723Z" fill="#1A7125"/>
<path d="M668.372 420.191C686.415 411.972 705.16 406.355 724.979 404.207C752.973 401.151 779.274 406.975 804.254 418.993C826.344 429.649 844.924 444.847 859.912 464.465C877.584 487.593 890.672 513.199 900.417 540.416C906.899 558.506 910.532 577.339 911.978 596.626C912.968 609.429 914.331 622.191 913.753 635.036C912.845 654.736 910.904 674.354 903.018 692.815C899.508 701.075 894.595 708.179 886.378 712.226C876.428 717.1 866.931 714.539 858.384 708.798C846.08 700.497 839.722 687.983 835.593 674.065C834.024 668.737 834.148 663.037 831.67 657.957C830.514 656.182 830.721 654.199 830.638 652.217C830.101 638.051 832.455 624.009 832.95 609.884C833.157 603.73 832.868 597.411 834.148 591.257C834.767 588.201 836.377 583.451 832.868 582.378C828.904 581.18 828.037 586.219 826.716 589.151C822.669 598.196 818.458 607.075 810.365 613.394C802.809 619.342 793.643 620.044 785.137 618.392C777.334 616.905 772.09 610.255 770.232 602.078C768.292 593.446 768.787 584.773 770.851 576.183C771.306 574.407 772.214 571.97 769.819 570.979C767.094 569.864 765.566 571.722 764.575 574.076C762.759 578.537 759.827 582.336 757.02 586.177C748.266 598.03 737.572 601.128 725.764 593.859C706.771 582.254 700.908 566.931 703.302 546.653C704.004 540.871 704.211 534.8 707.266 529.513C708.629 527.159 712.758 524.805 709.744 522.12C706.11 518.94 704.252 523.896 701.94 525.713C695.623 530.628 689.305 535.213 680.552 533.313C665.275 530.05 657.637 519.105 653.59 505.394C647.686 485.528 650.205 465.786 655.696 446.169C658.339 436.67 663.582 428.533 668.331 420.108L668.372 420.191Z" fill="#1A7125"/>
<path d="M132.77 641.107C170.797 605.754 241.112 576.596 286.654 611.99C316.217 639.827 354.534 674.602 306.184 707.27C299.495 710.203 293.715 707.353 287.893 704.421C277.612 700.291 275.63 732.959 261.633 710.822C254.036 699.754 252.219 719.537 247.182 723.212C240.452 732.587 227.859 723.419 226.042 714.704C225.629 710.161 218.734 710.574 218.032 714.704C215.844 723.584 209.691 729.325 202.053 733.083C188.304 739.898 172.036 732.216 172.284 715.696C169.558 703.842 186.817 694.385 180.5 684.72C177.94 682.573 174.967 683.275 172.614 685.877C132.109 717.802 101.101 682.903 132.729 641.107H132.77Z" fill="#1A7125"/>
<path d="M369.191 517.122C370.058 524.185 367.952 531.041 367.126 537.897C365.268 553.137 362.832 568.335 360.437 583.492C359.405 590.1 357.836 596.667 356.556 603.234C356.309 604.39 356.102 605.918 354.822 605.836C352.882 605.712 353.501 603.812 353.542 602.697C354.162 593.528 354.574 584.36 355.607 575.274C357.547 558.175 360.933 541.325 365.433 524.722C366.135 522.079 367.126 519.518 367.952 516.916C368.365 516.999 368.778 517.04 369.191 517.122Z" fill="#332522"/>
<path d="M435.047 1011.45C431.661 1011.08 430.422 1009.18 429.266 1007.61C420.802 996.084 410.562 986.048 402.139 974.526C395.368 965.274 391.239 954.701 388.431 943.633C388.266 942.931 388.555 942.352 390.166 941.65C399.291 968.248 420.018 987.494 435.006 1011.45H435.047Z" fill="#332522"/>
<path d="M383.188 908.734C380.009 902.91 379.1 896.633 378.398 890.479C377.036 878.915 375.673 867.309 376.334 855.621C376.706 848.765 377.655 841.951 378.316 835.095C378.44 834.062 378.811 832.906 379.844 832.823C381.619 832.741 381.289 834.352 381.206 835.384C381 838.151 380.339 840.918 380.339 843.685C380.215 862.105 381.247 880.443 383.147 898.739C383.477 902.043 383.188 905.43 383.188 908.775V908.734Z" fill="#332522"/>
<path d="M401.973 534.262C400.363 522.739 406.556 490.153 411.346 484.123C410.727 501.304 407.423 517.989 401.973 534.262Z" fill="#332522"/>
<path d="M348.587 648.417C346.398 642.8 348.835 637.307 348.876 631.773C348.876 630.988 349.33 630.203 349.495 629.418C349.784 627.725 349.082 624.752 351.188 624.917C353.748 625.123 352.716 628.221 352.427 629.79C351.312 635.985 351.147 642.387 348.628 648.417H348.587Z" fill="#332522"/>
<path d="M394.171 570.854C394.006 564.453 395.74 558.216 396.318 551.897C396.36 551.402 397.061 550.741 397.557 550.617C398.218 550.452 398.878 551.195 398.754 551.815C397.722 558.216 396.566 564.618 395.451 571.061C395.038 570.978 394.584 570.937 394.171 570.854Z" fill="#332522"/>
<path d="M233.144 154.133C234.795 168.052 236.075 180.855 232.112 193.534C230.254 199.522 226.868 202.455 222.244 202.166C217.949 201.877 214.027 197.912 212.995 192.543C209.939 177.179 214.11 162.682 218.404 146.988C220.633 150.953 219.766 153.844 219.353 156.776C217.949 167.019 216.628 177.344 218.982 187.628C219.518 189.982 219.353 193.74 222.533 193.906C225.382 194.071 225.836 190.478 226.62 188.33C229.593 180.276 230.088 171.686 230.667 163.219C230.832 160.411 230.625 157.644 233.103 154.133H233.144Z" fill="#0C4911"/>
<path d="M398.218 50.1387C397.186 62.4462 394.626 74.1756 387.194 84.3355C384.923 87.433 382.074 89.5393 378.399 90.1589C371.132 91.3979 367.045 87.4743 366.467 78.8012C366.095 73.4735 367.375 68.3109 369.315 63.3962C373.238 53.5667 379.473 45.1827 386.946 35.9727C386.863 41.1765 384.427 43.9436 382.941 46.9999C381.042 51.006 378.771 54.847 376.665 58.7705C373.238 65.1308 372.949 71.9867 373.362 78.9664C373.444 80.6598 373.775 82.3944 375.55 83.0552C377.408 83.7573 378.977 83.0139 380.464 81.651C387.235 75.4146 390.91 67.4436 393.924 58.977C394.997 55.8795 395.163 52.2863 398.259 50.1387H398.218Z" fill="#0C4911"/>
<path d="M362.296 177.673C364.236 181.143 363.617 184.447 363.122 187.585C361.718 196.052 363.039 204.188 365.31 212.283C365.723 213.811 366.425 215.381 367.952 215.546C369.81 215.794 370.058 213.687 370.554 212.448C373.485 205.592 374.435 198.282 375.302 190.931C375.839 186.305 376.458 181.679 376.995 177.178C378.564 177.178 379.059 177.715 379.059 178.334C378.977 190.642 380.628 202.991 377.284 215.133C377.201 215.463 377.201 215.794 377.077 216.083C375.508 221.121 371.586 225.086 368.076 224.797C362.915 224.343 360.562 220.75 359.034 216.289C355.979 207.368 357.671 198.406 358.951 189.485C359.488 185.603 359.323 181.39 362.255 177.632L362.296 177.673Z" fill="#0C4911"/>
<path d="M594.052 126.254C593.35 130.508 591.286 132.491 589.675 134.68C584.308 142.031 579.353 149.548 577.702 158.717C577.454 160.162 577.371 161.649 577.247 163.094C576.958 166.77 578.693 166.399 581.046 164.994C587.281 161.401 590.666 155.206 594.919 149.796C597.355 146.698 599.502 143.353 601.773 140.131C602.393 139.223 602.847 137.571 604.209 138.273C605.654 139.016 604.994 140.627 604.374 141.742C601.649 146.822 599.048 151.943 596.075 156.899C593.309 161.566 590.377 166.068 586.331 169.868C582.656 173.378 578.693 174.328 574.151 172.676C569.774 171.065 570.228 167.059 570.311 163.425C570.435 155.33 574.192 148.474 578.651 142.155C582.698 136.456 587.322 131.128 594.052 126.172V126.254Z" fill="#0C4911"/>
<path d="M622.417 186.677C623.408 190.352 621.674 192.995 620.807 195.721C617.999 204.684 614.943 213.522 610.071 221.617C607.718 225.54 604.745 228.968 599.378 227.605C593.969 226.242 593.267 221.988 593.06 217.28C592.358 201.256 601.318 188.907 608.585 175.938C608.75 175.649 609.452 175.732 610.36 175.525C609.659 180.358 607.14 184.24 605.488 188.411C602.309 196.341 599.088 204.271 599.088 213.026C599.088 213.852 598.965 214.72 599.171 215.504C599.584 217.032 599.46 219.18 601.112 219.758C603.259 220.502 604.043 218.313 605.158 216.908C611.269 209.392 614.82 200.471 618.825 191.839C619.65 190.063 620.146 188.163 622.417 186.759V186.677Z" fill="#0C4911"/>
<path d="M198.172 104.49C195.819 110.479 192.226 115.187 189.254 120.226C185.703 126.256 183.514 132.74 182.358 139.554C182.111 141.041 181.367 143.23 183.06 144.056C184.629 144.841 185.455 142.776 186.529 141.867C194.415 135.011 198.709 125.677 203.994 116.963C204.902 115.435 205.356 113.618 207.751 112.337C208.247 116.261 206.306 119.111 205.067 122.084C200.98 131.583 197.388 141.33 189.625 148.723C186.57 151.614 182.936 152.936 179.344 150.829C175.876 148.764 175.257 145.254 175.917 140.959C178.023 127.288 186.074 116.963 194.126 106.597C194.869 105.647 195.695 104.408 198.131 104.49H198.172Z" fill="#0C4911"/>
<path d="M737.49 197.085C740.256 205.51 741.454 214.266 744.509 222.567C745.665 225.706 747.317 228.515 748.844 231.406C749.381 232.397 750.124 233.553 751.404 233.471C752.808 233.388 753.056 231.943 753.345 230.91C755.327 224.137 754.749 217.198 754.006 210.342C753.386 204.808 752.272 199.357 751.198 193.905C750.909 192.501 750.537 191.138 752.23 190.725C753.634 190.394 754.171 191.675 754.46 192.831C756.442 199.935 758.424 206.997 759.58 214.307C760.612 220.833 760.447 227.028 758.465 233.223C757.474 236.279 756.153 239.129 752.56 239.79C748.597 240.533 746.491 237.807 744.633 235.04C740.05 228.143 738.976 220.089 737.655 212.201C736.829 207.245 735.88 202.248 737.449 197.126L737.49 197.085Z" fill="#0C4911"/>
<path d="M411.842 69.0531C414.608 72.6462 414.112 77.0241 414.856 81.0715C415.929 86.9362 416.961 92.7183 421.379 97.22C424.022 99.9458 426.086 99.5741 427.201 96.1049C429.018 90.3228 430.339 84.4582 429.307 78.2218C428.316 72.2745 428.275 66.1621 426.83 60.2148C426.664 59.4714 426.664 58.4389 427.531 58.0672C428.481 57.6542 429.183 58.3976 429.389 59.1823C432.445 72.0267 437.358 84.706 433.147 98.2938C431.908 102.259 429.431 105.232 425.467 105.811C421.173 106.43 418.076 103.663 415.847 100.07C409.818 90.3641 410.603 79.7499 411.8 69.0118L411.842 69.0531Z" fill="#0C4911"/>
<path d="M717.754 234.007C718.166 244.043 716.721 253.666 711.065 262.215C706.936 268.452 701.733 268.08 698.389 261.389C696.696 257.961 696.118 254.203 696.077 250.444C695.953 243.217 695.994 235.948 696.077 228.72C696.077 227.234 695.375 224.797 697.687 224.838C699.462 224.88 699.008 227.192 698.967 228.597C698.678 237.187 699.669 245.612 701.899 253.872C702.353 255.607 702.683 257.837 704.665 258.209C706.936 258.622 707.307 256.02 708.216 254.657C711.684 249.329 713.005 243.176 713.79 236.981C714.326 232.933 714.492 228.844 714.822 224.756C714.905 223.806 714.657 222.525 716.061 222.525C717.175 222.525 717.671 223.599 717.671 224.632C717.712 227.771 717.671 230.868 717.671 234.007H717.754Z" fill="#0C4911"/>
<path d="M668.66 1291.26C673.615 1270.15 679.684 1250.78 685.919 1231.12C689.47 1238.97 677.083 1283.99 668.66 1291.26Z" fill="#332522"/>
<path d="M806.897 1020.74C807.062 1028.79 807.227 1036.02 803.387 1042.63C801.24 1046.35 798.35 1048.95 793.85 1048.16C789.721 1047.46 788.854 1043.83 788.152 1040.4C785.261 1026.19 789.019 1012.73 793.065 999.346C793.395 998.272 793.726 996.785 795.253 997.322C796.575 997.818 796.162 999.387 795.914 1000.38C794.262 1006.74 793.437 1013.22 792.487 1019.71C791.537 1026.32 792.322 1032.8 793.891 1039.2C794.139 1040.15 794.18 1041.39 795.295 1041.64C796.657 1041.93 797.276 1040.65 797.855 1039.7C800.538 1035.19 801.24 1030.16 802.025 1025.12C803.098 1018.26 802.974 1011.36 803.016 1004.47C803.016 1003.31 802.355 1001.33 804.254 1001.29C805.865 1001.25 805.865 1003.02 805.947 1004.34C806.278 1010.08 807.599 1015.74 806.897 1020.74Z" fill="#0C4911"/>
<path d="M827.541 1035.73C830.308 1021.9 824.61 1010.29 822.009 998.148C824.569 998.272 825.229 999.842 825.972 1001.29C830.473 1010.13 834.024 1019.29 835.551 1029.17C836.088 1032.68 835.221 1036.1 833.693 1039.2C831.175 1044.36 825.766 1044.57 822.132 1039.99C817.921 1034.7 816.682 1028.38 816.022 1022.02C815.609 1018.14 815.402 1014.17 814.907 1010.29C814.783 1009.18 814.824 1007.61 816.187 1007.44C817.714 1007.23 817.673 1008.8 817.88 1009.92C818.829 1014.59 819.82 1019.21 820.852 1023.84C821.802 1028.09 823.784 1031.73 827.541 1035.73Z" fill="#0C4911"/>
<path d="M833.322 1132.29C841.208 1122.09 841.29 1109.78 844.057 1098.34C844.552 1098.34 845.048 1098.34 845.502 1098.34C845.502 1103.22 845.915 1108.17 845.419 1113.01C844.759 1119.16 843.974 1125.4 841.497 1131.22C840.919 1132.58 840.341 1133.99 839.391 1135.06C837.327 1137.41 835.18 1139.97 831.546 1139.23C827.871 1138.49 826.674 1135.35 826.179 1132.25C824.61 1121.97 826.344 1112.01 829.523 1102.23C829.853 1101.19 830.473 1099.75 831.918 1100.41C833.115 1100.99 832.743 1102.47 832.496 1103.55C831.009 1110.16 830.431 1116.81 830.638 1123.58C830.72 1126.59 831.381 1129.32 833.28 1132.29H833.322Z" fill="#0C4911"/>
<path d="M893.026 1143.98C893.026 1147.78 893.026 1151.62 893.026 1155.42C893.067 1161.16 892.406 1166.99 894.347 1172.56C894.884 1174.09 895.462 1176.07 897.196 1176.36C899.178 1176.69 899.591 1174.5 900.417 1173.18C905.867 1164.14 906.734 1153.98 907.848 1143.86C907.972 1142.62 907.518 1141.17 909.541 1139.89C911.895 1144.6 910.945 1149.56 910.697 1154.18C910.326 1160.87 909.129 1167.56 906.486 1173.84C905.867 1175.37 905.123 1176.86 904.174 1178.22C902.274 1180.9 899.88 1182.8 896.288 1182.14C892.819 1181.52 891.044 1179.13 889.888 1176.03C887.08 1168.64 888.112 1161.12 889.557 1153.69C890.177 1150.47 889.764 1146.87 893.067 1144.02L893.026 1143.98Z" fill="#0C4911"/>
<path d="M771.636 946.399C759.786 948.381 747.812 949.827 736.003 946.606C731.585 945.408 731.544 940.658 735.425 937.065C739.43 933.389 744.55 931.655 749.67 930.622C755.616 929.425 761.726 928.929 767.837 929.383C768.869 929.466 770.562 928.888 770.686 930.457C770.81 932.192 769.117 932.15 767.796 932.316C761.148 933.224 754.336 933.1 747.977 935.578C744.509 936.941 739.637 938.098 739.719 941.98C739.761 944.045 745.376 943.632 748.555 944.293C756.194 945.821 763.915 944.664 771.636 946.317V946.399Z" fill="#0C4911"/>
<path d="M731.089 445.465C726.795 456.699 721.345 467.066 710.981 473.88C708.504 475.491 705.779 476.895 702.682 476.358C696.902 475.367 694.631 470.989 696.365 464.257C698.884 454.469 704.582 446.746 712.22 440.386C715.854 437.329 719.693 434.521 723.492 431.671C724.277 431.093 725.226 429.441 726.3 430.886C727.332 432.249 726.011 433.364 725.02 434.19C720.271 438.238 715.688 442.409 711.807 447.365C707.678 452.693 704.829 458.434 703.384 464.959C703.137 466.074 702.558 467.437 703.756 468.057C704.375 468.387 705.614 467.809 706.481 467.437C714.697 463.679 720.354 457.071 725.639 450.091C727.126 448.109 728.571 446.25 731.131 445.465H731.089Z" fill="#0C4911"/>
<path d="M741.495 456.452C739.843 460.912 738.44 465.373 736.582 469.668C734.063 475.574 733.155 481.687 733.733 488.005C733.939 490.36 733.939 493.375 736.788 494.201C739.678 495.027 741.867 493.003 743.518 490.938C748.845 484.206 751.404 476.194 753.428 468.016C754.253 464.671 754.873 461.284 755.492 457.897C755.699 456.7 755.905 455.296 757.268 455.337C758.96 455.419 758.589 457.071 758.424 458.063C756.648 469.999 756.524 482.347 750.207 493.251C748.308 496.513 745.83 498.991 742.403 500.478C735.178 503.617 728.324 499.652 727.828 491.805C727.498 486.56 727.622 481.356 729.604 476.235C732.04 469.916 734.848 463.803 738.481 458.104C739.059 457.154 739.431 455.915 741.536 456.452H741.495Z" fill="#0C4911"/>
<path d="M842.942 513.859C845.584 516.997 844.593 521.004 845.378 524.514C846.947 531.411 848.392 538.267 852.108 544.421C853.14 546.114 854.007 548.221 856.443 547.725C858.59 547.271 859.457 545.247 860.076 543.347C862.389 536.367 862.636 529.264 860.82 522.119C860.035 518.939 859.333 515.758 858.631 512.537C858.425 511.587 858.095 510.389 859.168 509.894C860.324 509.357 861.067 510.389 861.356 511.298C865.031 522.903 868.871 534.55 863.916 546.734C861.026 553.92 854.502 554.911 849.176 549.129C846.162 545.825 845.006 541.654 843.974 537.565C842.446 531.37 841.951 524.968 841.62 518.608C841.538 517.08 841.001 515.263 842.942 513.9V513.859Z" fill="#0C4911"/>
<path d="M210.805 669.232C211.383 660.641 214.438 652.877 217.824 645.236C218.237 644.328 218.774 643.13 219.889 643.543C221.581 644.121 220.467 645.401 220.219 646.434C218.98 651.514 217.865 656.635 216.462 661.674C215.76 664.317 215.966 666.919 216.007 669.521C216.049 671.297 216.255 673.486 217.865 674.353C219.93 675.427 220.962 673.073 222.201 671.958C227.032 667.497 227.651 661.343 228.724 655.396C229.179 652.836 229.426 650.234 229.757 647.632C229.881 646.682 229.757 645.401 231.161 645.608C232.234 645.773 232.812 646.888 232.606 647.879C230.995 656.47 232.399 665.68 227.444 673.651C226.371 675.344 225.297 676.955 223.811 678.277C218.856 682.696 213.076 681.044 211.383 674.601C210.929 672.866 210.97 671.049 210.764 669.314L210.805 669.232Z" fill="#0C4911"/>
<path d="M248.297 639.743C250.485 642.138 252.674 644.575 254.903 646.929C256.514 648.581 258.083 650.357 259.941 651.637C262.129 653.124 264.895 656.18 267.249 654.033C270.056 651.513 267.414 648.085 265.927 645.566C263.244 640.899 258.991 637.43 255.357 633.341C256.059 632.846 256.431 632.474 256.555 632.556C263.904 637.182 270.717 642.386 272.162 651.637C273.194 658.121 269.231 660.765 263.079 658.287C259.115 656.717 256.431 653.702 253.954 650.274C251.683 647.135 248.751 644.451 247.1 640.899C247.513 640.527 247.884 640.156 248.297 639.743Z" fill="#0C4911"/>
</g>
<defs>
<clipPath id="clip0_4459_2149">
<rect width="925" height="1452" fill="white" transform="translate(21)"/>
</clipPath>
</defs>
</svg>
