<svg width="919" height="583" viewBox="0 0 919 583" fill="none" xmlns="http://www.w3.org/2000/svg">
<path d="M421.233 352.218C558.402 333.51 820.898 338.679 935 343.602V476.533C930.271 476.943 913.289 482.687 883.191 502.38C845.568 526.997 788.209 545.46 733.317 545.46C678.424 545.46 539.652 583 458.855 583C394.218 583 395.328 557.973 403.963 545.46C370.863 547.306 289.861 549.891 230.652 545.46C156.64 539.921 12.9335 550.998 1.21489 510.996C-10.5037 470.994 64.7419 451.916 132.586 441.454C200.431 430.992 249.772 375.604 421.233 352.218Z" fill="#3A7119"/>
<g clip-path="url(#clip0_4459_2200)">
<path d="M657.356 321.099C656.36 321.071 655.364 319.652 654.354 319.624C652.951 324.289 651.548 330.36 650.145 335.026C648.897 341.898 647.873 348.826 646.343 355.628C641.335 378 637.842 400.569 639.091 423.546C639.666 434.241 640.606 444.907 640.353 455.629C641.069 461.644 641.798 467.659 643.678 473.463C644.885 477.201 643.72 479.505 639.582 479.477C631.908 479.421 624.193 480.377 616.589 478.831C602.421 475.95 602.449 475.88 605.76 462.29C606.209 460.478 606.475 458.637 606.91 456.824C609.211 447.099 610.487 437.121 613.756 427.622C613.433 419.822 616.407 412.543 617.333 404.926C619.283 388.863 624.137 372.955 619.83 356.583C617.95 349.416 615.874 342.291 613.896 335.152C611.511 329.643 613.11 322.828 608.341 318.092C607.05 330.276 611.062 341.659 613.517 353.281C618.385 376.328 613.714 398.883 609.505 421.396C606.629 436.784 602.926 452.018 600.19 467.42C599.222 472.872 596.739 474.32 591.773 474.109C587.537 473.94 583.258 474.404 579.05 475.219C606.503 481.824 633.872 488.12 662.574 483.342C660.217 481.529 657.089 481.009 654.143 480.531C649.752 479.815 648.307 477.482 647.48 473.125C638.474 425.71 644.029 379.096 654.69 332.721C655.574 328.856 656.472 324.992 657.356 321.127V321.099Z" fill="#292319"/>
<path d="M650.734 319.539C644.253 327.704 642.471 337.71 639.848 347.379C645.221 344.919 644.716 337.359 650.411 335.152C651.94 330.065 653.469 324.992 654.984 319.905C653.568 319.778 652.151 319.652 650.734 319.525V319.539Z" fill="#332522"/>
<path d="M608.018 317.783C612.914 322.645 611.272 329.63 613.713 335.293C617.122 335.687 617.894 338.722 619.507 340.999C623.042 345.988 626.142 351.735 633.76 350.836C629.018 337.247 627.265 323.039 625.174 308.901C622.944 306.105 620.77 306.836 618.609 308.986C615.509 312.063 611.693 313.89 607.583 315.169C607.723 316.04 607.878 316.912 608.018 317.783Z" fill="#332522"/>
<path d="M625.062 309.407C627.096 323.179 628.808 337.021 633.423 350.259C636.579 350.329 638.852 348.868 640.451 346.226C642.864 337.344 644.491 328.168 650.439 320.677C649.163 318.963 647.451 318.091 645.305 318.035C642.598 325.23 639.876 332.412 637.169 339.607C636.565 339.551 635.962 339.494 635.345 339.438L627.686 310.32C626.802 310.011 625.932 309.702 625.048 309.393L625.062 309.407Z" fill="#272019"/>
<path d="M650.859 332.651C645.444 334.745 645.921 341.954 640.801 344.301C639.131 347.041 636.761 348.559 633.492 348.489C625.776 349.402 622.648 343.598 619.071 338.539C617.444 336.234 616.658 333.171 613.207 332.763C615.269 340.183 617.416 347.575 619.365 355.023C623.841 372.028 618.79 388.554 616.77 405.235C615.802 413.147 612.716 420.707 613.053 428.816C617.836 433.51 618.44 440.016 620.165 445.933C623.869 458.707 627.712 461.124 640.688 457.934C640.955 446.79 639.987 435.716 639.384 424.6C638.079 400.724 641.713 377.283 646.917 354.04C648.502 346.971 649.568 339.776 650.873 332.637L650.859 332.651Z" fill="#4C3630"/>
<path d="M641.026 455.714C628.021 458.918 624.164 456.487 620.46 443.684C618.735 437.74 618.131 431.233 613.334 426.525C609.939 436.419 608.606 446.804 606.207 456.936C605.758 458.819 605.478 460.745 605.015 462.642C601.564 476.793 601.536 476.864 616.294 479.871C624.206 481.487 632.244 480.489 640.24 480.545C644.547 480.574 645.767 478.184 644.505 474.292C642.555 468.249 641.783 461.995 641.04 455.728L641.026 455.714Z" fill="#332522"/>
<path d="M352.885 310.966C354.596 319.145 353.74 327.661 358.524 334.926C365.51 342.248 374.18 352.451 385.248 354.362C382.569 348.713 379.889 341.672 377.21 336.023C372.356 325.792 367.516 314.17 362.662 303.939C359.871 305.809 355.676 309.083 352.885 310.952V310.966Z" fill="#332522"/>
<path d="M405.982 335.167C405.323 325.681 400.918 316.406 401.984 306.766C398.267 307.314 393.146 307.876 389.429 308.424C388.685 322.87 392.262 337.429 389.401 351.806C394.759 350.035 397.86 346.156 398.996 340.816C399.683 337.556 401.942 334.886 405.996 335.167H405.982Z" fill="#332522"/>
<path d="M396.4 419.162C401.479 418.628 407.623 418.389 412.701 417.855C409.461 390.466 409.026 362.444 404.579 335.167C400.511 334.886 399.669 337.57 398.981 340.83C397.845 346.185 394.745 350.049 389.386 351.82C387.534 352.199 385.683 352.579 383.831 352.958C372.777 351.047 366.899 342.25 359.927 334.914C362.354 347.407 368.288 358.369 377.378 366.801C385.907 374.698 386.44 383.425 384.097 393.403C381.769 403.353 377.869 413.274 375.456 423.196C380.099 422.324 386.132 421.453 390.775 420.582" fill="#4C3731"/>
<path d="M413.066 414.762C407.988 415.296 401.492 417.235 396.414 417.769C394.24 419.891 396.007 423.573 393.426 426.243C392.388 423.461 391.588 421.325 390.789 419.189C386.145 420.06 380.099 420.931 375.47 421.803C373.352 429.054 374.46 438.02 373.436 445.37C372.973 448.658 376.522 451.244 378.837 452.523C387.59 457.357 396.877 456.331 405.996 454.56C418.27 452.171 419.617 450.471 416.867 438.076C415.352 431.289 412.897 421.859 413.066 414.748V414.762Z" fill="#332522"/>
<path d="M849.346 162.173C851.506 175.312 853.891 188.438 854.256 201.76C854.719 218.722 853.695 235.516 843.202 249.948C831.334 266.306 814.205 267.726 800.009 253.841C798.479 252.351 797.483 249.26 794.495 250.735C792.125 251.902 792.153 254.53 791.858 256.877C790.259 269.243 781.435 278.898 769.876 281.034C760.294 282.819 749.437 276.565 743.432 266.208C741.651 263.13 741.468 257.242 737.681 257.593C733.627 257.959 735.001 263.833 733.627 267.135C731.102 273.192 727.679 278.448 720.721 279.825C713.286 281.301 707.576 277.872 702.778 272.574C697.967 267.262 695.343 260.755 692.79 254.192C692.145 252.52 691.878 250.244 689.452 250.244C687.151 250.244 686.674 252.394 685.832 254.024C677.766 269.693 664.93 270.396 655.475 255.471C653.006 251.564 651.519 247.025 649.653 242.753C647.675 238.228 644.884 236.921 641.208 240.828C633.395 249.161 626.942 245.971 621.428 236.457C612.843 221.617 607.975 205.147 601.172 189.534C587.536 158.252 569.131 130.427 542.589 108.546C539.209 105.764 535.491 100.747 530.553 104.935C526.078 108.729 529.725 113.409 531.774 117.006C540.667 132.633 551.315 147.22 559.381 163.367C569.65 183.927 578.993 204.894 579.947 228.321C580.396 239.156 578.109 250.201 567.546 255.556C556.59 261.107 546.307 255.893 536.613 250.047C532.77 247.728 530.076 241.474 525.208 243.372C520.341 245.255 523.286 251.354 522.361 255.513C519.302 269.342 505.723 276.157 493.364 269.637C480.991 263.102 472.855 252.942 468.618 239.577C468.057 237.792 468.464 234.645 465.504 234.954C463.231 235.179 463.708 237.919 463.301 239.633C461.899 245.564 460.398 251.438 456.961 256.624C451.265 265.238 443.325 267.402 434.656 261.936C422.521 254.291 414.525 243.386 410.737 229.459C410.106 227.126 410.737 223.486 407.272 223.458C403.962 223.43 404.144 227.028 403.471 229.361C401.058 237.68 398.743 245.971 393.427 253.11C386.945 261.823 379.637 262.947 371.5 255.738C362.368 247.63 357.682 237.104 355.704 225.215C355.34 223.023 355.69 219.664 352.618 219.833C349.518 220.015 350.149 223.374 350.191 225.538C350.444 236.247 348.382 246.477 344.243 256.3C338.856 269.075 327.339 272.194 316.523 263.678C309.257 257.959 303.673 250.806 299.914 242.289C298.974 240.153 298.259 237.497 295.383 237.624C292.128 237.764 291.665 240.716 291.02 243.189C289.196 250.229 287.12 257.158 282.827 263.186C276.669 271.843 270.426 272.658 262.29 265.744C254.21 258.872 251.236 249.218 248.093 239.619C246.775 235.6 247.308 229.15 241.823 229.164C236.576 229.178 237.67 235.685 236.436 239.352C227.247 266.672 211.227 270.424 191.377 249.695C182.511 240.434 178.499 228.728 174.641 216.91C170.04 221.589 169.591 227.913 169.451 233.352C168.876 255.752 167.613 278.406 174.852 300.104C183.325 325.498 198.391 348.657 224.287 359.38C238.582 365.296 250.871 360.026 259.246 346.999C263.342 340.619 266.106 332.328 268.392 325.217C269.992 320.242 271.857 321.057 276.262 324.247C285.661 331.049 295.776 336.262 308.078 334.169C321.181 331.934 329.079 323.572 333.961 311.937C335.784 307.608 336.051 304.221 342.784 307.187C348.312 309.618 354.652 306.273 358.959 301.369C361.919 297.982 363.757 295.017 368.961 298.193C386.3 308.746 405.294 305.486 416.756 288.58C420.445 283.142 422.213 283.268 425.79 288.707C429.984 295.073 434.529 301.467 441.151 305.767C452.556 313.187 459.36 313.089 470.596 305.5C471.732 304.741 472.967 304.137 474.272 303.392C475.815 316.616 497.909 325.146 511.334 317.698C519.12 313.37 523.988 313.187 529.234 320.902C532.377 325.512 537.876 327.718 543.165 329.91C556.351 335.377 567.798 326.341 572.75 314.888C575.682 308.114 577.688 300.919 580.368 293.19C582.556 296.099 584.253 298.769 586.372 301.074C596.57 312.19 608.803 311.951 617.921 299.963C621.008 295.916 622.06 296.619 624.837 299.963C631.697 308.184 638.781 307.524 643.733 297.181C646.174 305.767 648.531 313.37 658.042 314.761C665.66 315.871 673.01 312.091 677.345 303.224C682.157 319.427 693.548 325.428 708.783 324.612C723.498 323.84 734.567 317.206 739.645 301.72C743.923 306.329 744.358 311.585 746.084 316.209C749.549 325.54 753.813 334.098 762.329 340.127C777.605 350.92 795.127 346.662 803.109 329.7C804.329 327.114 805.522 327.128 807.219 328.828C808.187 329.812 808.903 331.063 809.702 332.215C820.251 347.364 839.61 349.149 851.394 334.59C862.463 320.931 868.158 303.167 870.08 286.402C874.653 246.533 865.577 207.691 853.891 169.593C853.036 166.782 852.727 163.466 849.346 162.117V162.173Z" fill="#0E5515"/>
<path d="M166.266 237.834C166.182 239.366 166.083 240.898 165.999 242.415C166.757 259.195 165.607 276.086 169.534 292.683C175.777 318.962 187.617 341.785 210.006 357.889C234.317 375.372 261.995 365.183 269.598 336.163C270.005 334.589 270.37 332.973 270.608 331.357C271.422 325.848 273.316 325.778 277.622 329.024C295.845 342.74 317.126 341.349 331.351 325.792C333.048 323.923 335.04 321.745 335.503 319.426C337.116 311.43 341.69 309.898 348.648 312.386C350.065 311.908 351.481 311.43 352.884 310.952C355.676 309.083 358.468 307.214 361.259 305.345C362.213 303.532 363.223 301.747 365.426 301.157L366.969 302.661L366.927 302.591C373.618 305.528 380.324 308.423 387.829 308.395C388.825 308.395 389.835 308.409 390.831 308.423C394.548 307.861 398.266 307.312 401.983 306.75C402.488 306.694 402.993 306.638 403.498 306.582C408.969 301.972 415.998 299.176 419.617 292.346C420.921 289.887 422.535 290.786 423.853 292.725C425.677 295.438 427.459 298.206 429.521 300.736C439.228 312.61 451.166 318.26 466.64 313.693C467.509 313.201 468.365 312.695 469.235 312.203C470.82 310.193 472.349 309.87 474.215 312.034C475.688 313.749 477.455 315.196 479.097 316.77C480.556 318.119 482.001 319.468 483.46 320.817C489.59 321.773 495.426 324.584 501.837 323.811C503.169 323.811 504.502 323.811 505.835 323.797C507.56 323.164 509.356 322.701 510.983 321.885C514.392 320.171 518.46 316.152 520.901 317.009C524.057 318.119 525.895 323.038 528.294 326.312L530.426 328.28C531.689 328.884 532.951 329.446 534.186 330.078C554.597 340.674 566.213 337.541 578.698 318.077C580.512 311.294 584.201 309.669 589.766 313.201C591.127 314.058 592.628 314.69 594.073 315.421C598.688 316.236 603.317 316.714 607.947 315.533C611.945 314.283 615.662 312.498 618.692 309.505C620.811 307.411 622.929 306.708 625.089 309.42C625.973 309.73 626.843 310.039 627.727 310.348C629.789 310.531 632.005 311.304 633.871 310.784C640.562 308.957 643.635 312.301 645.346 318.049C647.478 318.105 649.19 318.976 650.48 320.691C651.785 320.803 653.076 320.916 654.38 321.028C655.376 321.056 656.372 321.07 657.382 321.099C659.711 320.972 662.559 321.661 664.27 320.579C672.252 315.533 677.022 319.173 683.349 324.71C697.616 337.231 724.059 334.196 736.67 319.918C737.259 319.258 737.947 318.681 739.223 317.459C741.777 324.935 743.909 331.933 748.608 337.864C762.468 355.332 784.521 358.606 802.379 345.214C805.128 343.162 806.854 343.879 809.183 345.354C828.752 357.735 848.293 353.041 860.526 332.763C863.879 327.198 866.334 321.07 869.196 315.196C879.577 279.192 876.715 243.09 869.883 206.973C869.364 204.219 868.578 201.521 868.915 198.668C867.975 195.928 867.035 193.201 866.109 190.461C857.524 157.169 841.883 127.236 822.692 98.9895C797.567 64.5735 766.803 36.4112 727.426 19.7864C651.322 -12.339 578.599 -5.83241 510.731 42.7631C507.686 44.9414 503.843 46.7542 502.791 51.0404C507.055 50.2113 510.366 47.499 513.887 45.2927C529.514 35.4977 544.875 24.9719 562.453 19.1821C608.466 3.99069 655.082 0.617953 701.978 15.444C737.624 26.7145 768.501 46.2483 794.285 73.0335C818.904 98.6242 838.951 127.531 849.346 162.172C852.726 163.521 853.021 166.838 853.891 169.648C865.576 207.746 871.833 246.589 867.274 286.458C865.352 303.223 861.059 319.581 849.991 333.24C838.207 347.799 820.265 347.42 809.702 332.271C808.902 331.118 808.187 329.868 807.219 328.884C805.535 327.183 804.329 327.169 803.108 329.755C795.14 346.717 777.605 350.975 762.328 340.183C753.799 334.154 749.548 325.596 746.083 316.264C744.372 311.641 743.923 306.385 739.644 301.776C734.566 317.248 723.498 323.881 708.782 324.668C693.533 325.469 682.156 319.482 677.345 303.279C673.01 312.147 665.659 315.927 658.042 314.817C648.531 313.426 646.174 305.823 643.733 297.236C638.781 307.579 631.697 308.226 624.837 300.019C622.059 296.688 620.993 295.986 617.921 300.019C608.802 312.006 596.57 312.231 586.371 301.129C584.267 298.838 582.569 296.154 580.367 293.245C577.688 300.974 575.682 308.156 572.75 314.943C567.798 326.397 556.351 334.013 543.164 328.561C537.875 326.368 532.376 324.162 529.234 319.553C523.987 311.838 519.12 312.02 511.334 316.349C497.909 323.797 475.814 315.281 474.271 302.043C472.966 302.787 471.732 303.392 470.596 304.15C459.359 311.739 452.555 311.838 441.15 304.417C434.529 300.117 429.998 293.723 425.789 287.357C422.198 281.919 420.43 281.792 416.755 287.231C405.308 304.136 386.3 308.802 368.961 298.248C363.756 295.072 361.918 296.632 358.958 300.019C354.652 304.937 348.325 308.282 342.784 305.837C336.05 302.872 335.77 306.258 333.96 310.587C329.078 322.223 321.18 330.57 308.078 332.819C295.761 334.927 285.661 329.699 276.262 322.897C271.857 319.707 269.991 320.297 268.392 325.272C266.105 332.383 263.356 339.269 259.245 345.649C250.87 358.676 238.582 363.946 224.287 358.03C198.391 347.308 184.727 325.553 176.254 300.159C169.015 278.461 170.278 255.808 170.853 233.407C170.993 227.969 170.039 221.645 174.641 216.965C174.416 213.494 173.869 210.135 174.374 206.552C179.256 172.164 192.33 140.896 210.062 111.384C228.467 80.7486 251.432 54.3288 281.873 35.0621C308.934 17.9173 338.561 11.0172 370.518 11.7199C422.114 12.8582 466.948 30.9586 506.368 63.6601C508.234 65.2059 509.735 67.609 513.214 66.9204C511.474 60.3014 503.015 58.2778 502.734 51.0545C498.793 51.8133 496.31 49.1292 493.504 47.1758C455.15 20.4047 412.995 4.79172 365.874 5.08683C330.074 5.31168 298.02 16.1466 268.911 38.0132C208.477 83.4187 177.026 144.592 167.22 218.272C166.364 224.737 166.56 231.341 166.266 237.876V237.834Z" fill="#0F4D11"/>
<path d="M468.815 312.471C471.06 337.879 478.411 362.682 485.242 386.924C488.848 399.754 490.138 412.515 487.052 425.696C485.13 433.875 484.05 442.307 484.85 450.767C485.383 456.29 482.843 458.44 477.751 458.763C473.192 459.044 468.633 459.55 464.046 461.012C493.926 462.53 522.6 474.938 554.037 470.919C550.432 466.211 543.39 469.008 542.548 463.78C541.875 459.578 543.81 455.039 543.951 450.627C544.75 425.556 542.674 400.668 538.634 375.934C536.025 360.026 530.554 341.547 528.997 325.456L498.275 350.414L468.815 312.471Z" fill="#272019"/>
<path d="M352.885 310.967C351.468 311.445 350.051 311.923 348.648 312.4C354.147 335.335 362.368 357.047 376.691 376.131C381.278 382.244 380.268 389.608 378.949 396.48C377.013 406.57 374.446 416.548 372.005 426.54C370.771 431.571 369.704 436.616 370.308 441.801C370.813 446.158 369.592 447.971 364.949 446.804C360.684 445.736 356.335 445.905 351.945 447.324C370.013 450.865 385.795 463.668 406.01 458.623C416.475 456.009 427.627 456.178 439.762 454.969C435.595 451.02 431.218 451.666 427.403 451.048C423.91 450.486 422.605 449.025 421.609 445.455C412.799 413.807 413.964 381.036 410.148 348.84C408.479 334.703 405.757 320.706 403.513 306.639C403.008 306.695 402.503 306.751 401.998 306.807C400.931 316.448 403.947 325.723 404.607 335.209C409.054 362.5 408.437 390.212 411.677 417.602C411.509 424.713 413.964 431.318 415.479 438.119C418.228 450.514 418.284 450.809 406.01 453.198C396.891 454.983 387.605 456.009 378.851 451.161C376.536 449.882 374.39 448.687 374.853 445.413C375.877 438.063 374.755 430.503 376.887 423.251C379.3 413.316 381.797 403.408 384.126 393.459C386.468 383.467 385.935 374.754 377.406 366.856C368.316 358.424 362.382 347.463 359.955 334.97C355.171 327.704 354.638 319.174 352.913 311.009L352.885 310.967Z" fill="#292319"/>
<path d="M849.347 162.173C838.952 127.532 818.906 98.6247 794.286 73.034C768.502 46.2488 737.626 26.715 701.98 15.4445C655.083 0.618469 608.467 3.99121 562.426 19.1826C544.849 24.9865 529.474 35.5123 513.86 45.2932C510.339 47.4996 507.015 50.2118 502.764 51.0409V51.0128C503.03 58.2361 511.504 60.2598 513.243 66.8788C509.764 67.5674 508.277 65.1643 506.397 63.6184C466.978 30.9169 422.143 12.8165 370.547 11.6782C338.591 10.9756 308.977 17.8757 281.903 35.0204C251.461 54.3012 228.497 80.7211 210.092 111.343C192.36 140.854 179.286 172.122 174.404 206.51C173.899 210.108 174.446 213.466 174.67 216.924C178.514 228.742 182.54 240.448 191.406 249.709C211.256 270.438 227.276 266.686 236.465 239.366C237.699 235.713 236.605 229.206 241.852 229.178C247.323 229.164 246.804 235.614 248.122 239.633C251.265 249.232 254.225 258.886 262.319 265.758C270.455 272.672 276.712 271.857 282.856 263.2C287.149 257.172 289.225 250.243 291.049 243.203C291.694 240.715 292.157 237.778 295.412 237.638C298.288 237.511 298.989 240.167 299.943 242.303C303.702 250.82 309.286 257.973 316.552 263.692C327.382 272.208 338.885 269.089 344.272 256.314C348.411 246.491 350.473 236.261 350.22 225.552C350.164 223.388 349.547 220.029 352.647 219.847C355.719 219.678 355.369 223.023 355.733 225.229C357.711 237.118 362.397 247.644 371.529 255.752C379.652 262.961 386.974 261.837 393.455 253.124C398.772 245.985 401.087 237.694 403.5 229.375C404.173 227.056 403.991 223.458 407.301 223.472C410.78 223.5 410.135 227.154 410.766 229.473C414.554 243.4 422.55 254.305 434.685 261.95C443.368 267.416 451.294 265.252 456.99 256.638C460.427 251.452 461.928 245.578 463.33 239.647C463.737 237.933 463.274 235.193 465.533 234.968C468.493 234.673 468.086 237.82 468.647 239.591C472.884 252.956 481.034 263.116 493.393 269.651C505.738 276.171 519.317 269.356 522.39 255.527C523.315 251.368 520.369 245.269 525.237 243.385C530.119 241.488 532.799 247.742 536.642 250.061C546.336 255.921 556.619 261.12 567.575 255.57C578.152 250.215 580.425 239.17 579.976 228.335C579.022 204.908 569.679 183.955 559.41 163.381C551.344 147.248 540.696 132.661 531.803 117.02C529.754 113.423 526.121 108.743 530.582 104.949C535.52 100.761 539.238 105.778 542.618 108.56C569.16 130.441 587.565 158.266 601.2 189.548C608.004 205.161 612.872 221.631 621.457 236.471C626.97 245.985 633.423 249.175 641.237 240.842C644.899 236.921 647.704 238.228 649.682 242.767C651.548 247.039 653.035 251.578 655.504 255.485C664.959 270.41 677.795 269.707 685.861 254.038C686.703 252.408 687.18 250.257 689.481 250.257C691.907 250.257 692.174 252.534 692.819 254.206C695.372 260.755 697.982 267.276 702.807 272.588C707.619 277.886 713.315 281.301 720.75 279.839C727.694 278.462 731.131 273.206 733.656 267.149C735.03 263.833 733.656 257.973 737.71 257.607C741.497 257.256 741.68 263.144 743.461 266.222C749.466 276.579 760.323 282.833 769.905 281.048C781.478 278.898 790.288 269.257 791.887 256.891C792.196 254.544 792.154 251.93 794.524 250.749C797.512 249.274 798.508 252.365 800.038 253.855C814.234 267.739 831.363 266.306 843.231 249.962C853.71 235.53 854.748 218.736 854.285 201.774C853.92 188.438 851.535 175.312 849.375 162.187L849.347 162.173Z" fill="#1A7125"/>
<path d="M528.687 346.38C528.729 339.62 528.771 331.413 528.799 324.654C526.358 321.309 524.478 317.74 521.266 316.616C518.783 315.744 514.644 319.848 511.165 321.576C509.51 322.405 506.283 322.883 504.53 323.53C503.8 332.973 504.628 342.445 503.66 351.861C503.394 354.475 503.281 358.171 499.522 358.466C496.295 358.719 494.331 355.992 493.209 353.421C487.92 341.265 483.992 329.109 480.121 316.391C478.451 314.789 475.239 313.313 473.752 311.571C471.858 309.364 470.301 309.687 468.688 311.739C471.199 324.921 474.299 337.948 478.802 350.596C481.509 353.561 484.091 356.653 486.938 359.477C496.127 368.528 505.764 366.926 509.945 354.699C512.414 347.462 516.3 345.495 523.005 346.296C524.871 346.521 526.793 346.352 528.687 346.366V346.38Z" fill="#332522"/>
<path d="M387.83 308.41C386.932 319.385 386.048 330.375 385.151 341.35C384.561 341.462 383.972 341.575 383.383 341.673C376.593 329.236 369.242 317.052 366.928 302.592L366.97 302.662C366.451 302.156 365.946 301.664 365.427 301.158C363.224 301.748 362.228 303.519 361.26 305.346C366.114 315.577 370.954 325.793 375.808 336.024C378.487 341.673 381.167 347.309 383.846 352.958C385.698 352.578 387.549 352.199 389.401 351.82C392.277 337.429 390.088 322.884 390.832 308.438C389.836 308.438 388.826 308.424 387.83 308.41Z" fill="#272019"/>
<path d="M479.084 316.77C482.886 329.263 488.119 341.194 493.323 353.139C494.417 355.669 496.353 358.339 499.524 358.086C503.213 357.791 503.325 354.165 503.592 351.593C504.546 342.347 505.107 331.638 505.822 322.363C504.49 322.363 503.157 323.782 501.824 323.782C500.772 332.158 499.72 340.534 498.668 348.909C491.233 340.196 487.6 330.373 483.447 320.803C481.988 319.454 480.543 318.105 479.084 316.756V316.77Z" fill="#272019"/>
<path d="M526.807 427.592C530.511 427.086 534.228 426.58 537.932 426.074C537.932 399.05 533.288 372.617 528.154 346.225C526.288 346.225 524.408 346.379 522.571 346.155C515.977 345.368 512.162 347.293 509.735 354.404C505.639 366.405 496.169 367.979 487.135 359.097C484.33 356.329 481.79 353.294 479.139 350.385C481.636 361.318 486.336 371.492 489.955 382.046C495.328 397.743 499.115 413.399 492.185 429.644C491.751 430.656 491.961 431.949 491.877 433.101C502.721 434.043 513.326 432.174 523.945 430.431" fill="#4C3731"/>
<path d="M523.946 430.418C513.327 432.161 502.721 434.03 491.877 433.088C485.27 452.791 488.216 458.215 508.01 462.164C514.379 463.429 520.79 464.23 527.355 464.244C533.387 464.244 536.361 461.644 537.259 455.882C538.802 445.975 538.844 436.053 537.918 426.09C534.215 426.596 530.497 427.102 526.794 427.608C526.359 429.069 525.405 430.011 523.932 430.418H523.946Z" fill="#332522"/>
<path d="M506.018 173.177C506.369 183.225 513.495 191.853 510.479 203.756C500.365 193.694 495.918 180.948 488.034 170.549C488.37 179.768 492.649 187.651 496.016 195.788C498.064 200.749 500.533 205.583 503.956 209.785C506.467 212.863 509.735 214.788 513.804 213.65C518.012 212.469 519.317 208.843 519.653 204.937C520.79 191.938 512.415 183 506.004 173.177H506.018Z" fill="#0B4C11"/>
<path d="M428.442 95.1821C428.47 104.345 431.893 113.268 428.933 123.949C420.769 113.718 419.113 101.773 413.39 91.7109C414.582 104.64 414.835 117.653 421.821 129.022C424.121 132.76 427.783 135.275 432.51 133.603C437.252 131.931 438.444 127.448 438.051 123.288C437.098 113.296 433.338 104.092 428.442 95.1821Z" fill="#0B4C11"/>
<path d="M449.779 71.8961C452.051 76.6461 454.422 81.3538 456.568 86.16C457.999 89.35 459.416 92.5823 460.314 95.9409C461.001 98.5127 462.18 101.97 459.136 103.544C456.372 104.963 454.689 101.815 452.893 100.157C448.769 96.3625 445.121 92.1466 441.727 87.6637C440.478 86.0054 439.875 83.1948 435.891 83.4899C440.015 94.5497 445.192 104.401 454.31 111.652C457.48 114.182 461.394 115.461 465.322 112.706C469.054 110.078 469.699 106.143 469.026 102.082C468.016 96.0112 465.238 90.6008 461.857 85.5276C458.546 80.5669 455.124 75.6764 451.757 70.7578C451.097 71.1372 450.438 71.5167 449.779 71.9102V71.8961Z" fill="#0B4C11"/>
<path d="M771.194 156.172C767.014 167.442 764.405 178.334 768.711 189.731C770.367 194.101 773.256 197.418 778.573 197.179C783.806 196.94 786.681 193.623 787.986 189.098C790.259 181.257 789.136 173.527 785.447 165.883C784.83 170.281 784.325 174.694 783.553 179.064C783.048 181.931 783.048 186.203 779.317 186.007C775.978 185.824 775.725 181.622 775.15 178.713C773.972 172.74 773.312 166.712 773.523 160.613C773.565 159.306 773.832 157.76 771.194 156.186V156.172Z" fill="#0B4C11"/>
<path d="M641.798 115.896C633.872 126.45 628.261 137.763 629.327 151.282C629.72 156.271 630.758 161.695 636.509 162.904C642.163 164.084 645.53 159.826 647.9 155.343C651.898 147.797 656.051 140.236 656.205 130.132C652.011 133.73 652.137 138.339 650.047 141.74C647.844 145.324 646.133 149.202 642.878 152.027C641.686 153.067 640.62 154.697 638.726 153.952C636.972 153.264 636.664 151.493 636.495 149.877C635.738 142.78 636.594 135.936 639.189 129.233C640.816 125.017 643.187 120.871 641.826 115.911L641.798 115.896Z" fill="#0B4C11"/>
<path d="M797.904 159.685C797.988 171.434 798.942 183.07 806.84 192.78C809.281 195.788 812.999 198.317 817.361 196.547C821.949 194.678 823.87 190.658 823.955 185.894C824.123 176.001 819.409 167.569 814.668 158.969C815.692 164.632 816.758 170.296 817.74 175.959C818.441 180.091 819.76 185.909 815.51 187.187C811.329 188.438 808.972 182.803 807.429 179.037C804.736 172.474 802.604 165.686 800.247 158.983C799.461 159.222 798.69 159.447 797.904 159.685Z" fill="#0B4C11"/>
<path d="M677.204 197.038C675.297 210.009 672.056 220.998 676.335 232.283C677.766 236.035 680.445 238.845 684.597 238.775C689.283 238.691 692.509 235.501 693.898 231.369C696.199 224.483 696.844 217.246 696.381 209.966C696.311 208.828 696.255 207.352 694.824 207.198C692.986 207.015 692.734 208.659 692.425 210.008C691.303 214.772 690.349 219.579 689.058 224.286C688.539 226.212 687.824 228.741 685.158 228.516C682.563 228.306 682.198 225.706 681.82 223.752C680.74 218.272 679.645 212.791 679.617 207.142C679.617 204.458 680.375 201.577 677.204 197.023V197.038Z" fill="#0B4C11"/>
<path d="M312.231 135.963C310.071 142.779 311.39 149.749 310.787 156.607C310.478 160.233 310.857 166.163 307.532 166.374C302.608 166.669 303.478 160.514 302.776 156.987C301.36 149.791 303.492 142.132 299.929 135.092C298.049 146.995 296.38 158.898 300.504 170.688C301.752 174.272 304.432 176.478 308.542 176.169C312.989 175.832 315.5 172.838 315.935 168.932C317.212 157.759 316.987 146.643 312.217 135.963H312.231Z" fill="#0B4C11"/>
<path d="M631.516 42.3831C625.834 45.9245 620.195 49.5643 614.429 52.9651C612.451 54.1315 610.165 54.8342 607.934 55.4385C606.012 55.9584 603.712 57.2513 602.084 55.1996C600.415 53.0916 601.537 50.7588 602.435 48.5946C604.736 43.0718 609.674 39.5304 612.914 34.7102C613.896 33.2627 615.72 32.293 615.425 30.0586C607.682 31.9417 595.351 45.1376 594.369 52.3889C593.317 60.2165 598.732 65.0367 606.307 62.7742C617.389 59.4717 625.091 51.616 632.666 43.662C632.273 43.2404 631.894 42.8047 631.502 42.3831H631.516Z" fill="#0B4C11"/>
<path d="M277.16 90.5156C270.286 93.8321 268.294 101.772 262.459 106.072C259.288 108.405 256.861 114.35 252.386 111.342C248.178 108.518 251.825 103.669 252.976 99.7907C254.729 93.8321 258.727 88.6606 259.457 82.407C257.394 81.0719 256.511 82.5054 255.795 83.5593C251.18 90.3329 246.817 97.3454 245.274 105.51C244.306 110.654 244.264 116.345 250.17 118.776C255.585 121.011 259.695 117.512 262.697 113.506C268.126 106.255 274.06 99.2707 277.23 90.5578L277.188 90.5156H277.16Z" fill="#0B4C11"/>
<path d="M277.202 90.5579C277.679 89.6304 278.142 88.6888 278.619 87.7613L278.563 87.7051C278.1 88.6466 277.623 89.5882 277.16 90.5157L277.202 90.5579Z" fill="#0B4C11"/>
<path d="M278.62 87.7608L278.83 87.5078L278.564 87.7046L278.62 87.7608Z" fill="#0B4C11"/>
<path d="M821.598 279.923C818.526 289.043 823.099 306.975 827.252 310.432C831.6 314.058 839.302 312.526 841.28 306.933C844.254 298.543 842.809 290.153 840.284 280.457C836.749 285.811 839.063 290.701 837.548 294.861C836.636 297.377 837.226 301.115 833.803 301.747C829.791 302.492 829.426 298.388 827.841 296.013C824.642 291.235 825.722 284.715 821.598 279.895V279.923Z" fill="#0B4C11"/>
<path d="M533.374 267.838C533.963 278.603 534.973 289.255 541.664 298.347C543.474 300.806 546.168 301.593 549.17 300.371C552.158 299.162 554.304 297.223 554.711 293.794C555.581 286.332 553.799 279.558 549.59 272.771C547.023 275.553 548.089 278.279 548.398 280.893C548.679 283.296 550.488 286.599 547.121 287.554C544.049 288.412 543.404 284.744 542.099 282.664C539.083 277.844 538.171 271.829 533.374 267.838Z" fill="#0B4C11"/>
<path d="M523.947 430.418C525.42 429.996 526.374 429.069 526.808 427.607C527.44 412.922 526.528 398.433 521.155 384.479C521.127 399.853 524.943 415.002 523.947 430.432V430.418Z" fill="#2E201D"/>
<path d="M524.718 362.246C526.401 371.732 528.098 381.218 529.782 390.704C530.581 390.563 531.367 390.423 532.167 390.282C532.658 380.361 529.726 371.029 526.443 361.74L524.718 362.246Z" fill="#2E201D"/>
<path d="M532.462 401.455C530.61 405.081 531.003 408.664 533.009 412.22C533.949 408.608 534.159 405.025 532.462 401.455Z" fill="#332522"/>
<path d="M515.123 426.315C515.572 421.523 516.105 417.995 513.594 414.707C512.92 418.234 511.924 421.804 515.123 426.315Z" fill="#332522"/>
<path d="M632.764 424.713C631.993 432.526 631.432 440.34 633.466 448.069C634.812 440.242 635.626 432.428 632.764 424.713Z" fill="#2E201D"/>
<path d="M639.174 365.17C636.424 370.496 635.302 376.173 635.19 382.694C639.104 378.127 640.507 372.309 639.174 365.17Z" fill="#2E201D"/>
<path d="M634.867 409.338C636.564 405.389 636.578 401.369 635.498 396.029C632.145 400.864 633.478 405.079 633.703 409.127C633.703 409.211 634.404 409.253 634.881 409.338H634.867Z" fill="#272019"/>
<path d="M390.789 420.595C391.588 422.731 392.388 424.853 393.426 427.65C396.007 424.98 394.226 421.298 396.414 419.176C395.46 412.641 394.492 406.092 393.538 399.558C393.061 399.516 392.584 399.487 392.093 399.445C389.512 406.373 391.448 413.569 390.803 420.609L390.789 420.595Z" fill="#272019"/>
<path d="M403.275 384.717C402.223 393.416 400.764 402.129 404.257 410.49C407.708 401.707 404.58 393.219 403.275 384.717Z" fill="#2E201D"/>
<path d="M401.9 350.947C400.413 356.92 399.725 362.906 402.839 370.579C403.555 362.78 403.906 356.864 401.9 350.947Z" fill="#2E201D"/>
<path d="M392.08 399.432C392.557 399.474 393.034 399.502 393.525 399.544C393.048 399.502 392.571 399.474 392.08 399.432Z" fill="#332522"/>
</g>
<defs>
<clipPath id="clip0_4459_2200">
<rect width="710" height="485" fill="white" transform="matrix(-1 0 0 1 876 0)"/>
</clipPath>
</defs>
</svg>
