<svg width="2979" height="5316" viewBox="0 0 2979 5316" fill="none" xmlns="http://www.w3.org/2000/svg">
<g clip-path="url(#clip0_4437_2702)">
<path d="M728 198.501C380.4 178.101 94.1667 492.667 -5.5 652.501V2244H2985.5V1093C2270.5 1093 1746 633 1631 552C1516 471 1162.5 224.001 728 198.501Z" fill="#468221" stroke="#437724" stroke-width="6"/>
<path d="M2318.5 960.5C2392 990 2499.83 1028 2545.5 1033V2361.5H-5.5V1238.5C742 1200 1008 1696.5 1101.5 1859L1109.5 1945.5L1512 2245.5L1615 2191C1637 2167 1687.6 2110.7 1714 2077.5C1747 2036 1819 1799.5 1965.5 1444.5C2082.7 1160.5 2249.67 1000.17 2318.5 960.5Z" fill="#376A18"/>
<path d="M-5.5 652.501C94.1667 492.667 380.4 178.101 728 198.501C1162.5 224.001 1516 471 1631 552C1746 633 2270.5 1093 2985.5 1093" stroke="#295610" stroke-width="6"/>
<path d="M2310 1417.5C2471.6 942.7 2834 767 2995 738.5V3296.5H3.5V1466L170.5 1443.5C428.246 1420.95 716.5 1524 979 1744.5C1164.5 1900.32 1402.5 2192 1654.5 2192C1782 2192 2108 2011 2310 1417.5Z" fill="#4E9125" stroke="#295610" stroke-width="6"/>
<path d="M2871 2471C2931 2471 2979 2480 2995.5 2484.5V3558.5H245.5C245.5 2901 237.5 1548.9 237.5 1442.5C331.5 1431 450.5 1467.5 497.5 1479C546 1505 930 1764 1107 2443.5C1284 3123 1524 3213 1600 3250.5C1676 3288 1733 3264 1797.5 3244C1849.1 3228 2046 2986 2138 2867C2425.5 2506.5 2796 2471 2871 2471Z" fill="#3D761A"/>
<path d="M2995 738.5C2834 767 2471.6 942.7 2310 1417.5C2108 2011 1782 2192 1654.5 2192C1402.5 2192 1164.5 1900.32 979 1744.5C716.5 1524 428.246 1420.95 170.5 1443.5" stroke="#295610" stroke-width="6"/>
<path d="M1604.5 3269.5C1873.7 3269.5 2102.33 3153.17 2188 3095V3892.5H-5V1366C438.5 1397 789 2036.5 900 2510C1008.1 2971.14 1335.3 3269.5 1604.5 3269.5Z" fill="#89C049"/>
<path d="M1290 3471C1510 3434.6 1512.67 3313.17 1486.5 3257C1486.5 3257 1599.5 3279 1704 3264C1808.5 3249 1923.5 3219.5 1923.5 3219.5L1436 3761L1123 3836H-7V3015.66C49.9635 2990.85 122.62 2975 214.5 2975C694.5 2975 947 3527.75 1290 3471Z" fill="#76A841"/>
<path d="M1604.5 3269.5C1873.7 3269.5 2102.33 3153.17 2188 3095V3892.5H-5V1366C438.5 1397 789 2036.5 900 2510C1008.1 2971.14 1335.3 3269.5 1604.5 3269.5Z" stroke="#53792C" stroke-width="8"/>
<path d="M148.146 1978.8C150.82 1962.74 156.126 1929.21 155.97 1923.66C155.778 1916.71 151.432 1918.2 150.54 1919.32C149.658 1920.45 140.39 1944.4 136.771 1969.99C133.163 1995.58 130.619 2025.16 133.741 2029.74C136.235 2033.41 144.385 1997.31 148.146 1978.8Z" fill="#346618"/>
<path d="M191.382 1939.86C188.867 1952.95 182.994 1979.81 179.642 1982.58C175.452 1986.03 172.058 1973.07 177.675 1942.56C183.309 1911.96 188.592 1892.74 195.172 1894.06C201.752 1895.39 193.511 1929.42 191.382 1939.86Z" fill="#346618"/>
<path d="M220.262 2013.36C213.135 2017.39 225.191 1985.31 228.949 1976.7C232.707 1968.08 241.946 1951.31 247.037 1946.26C252.127 1941.22 258.549 1934.7 257.963 1941.89C257.377 1949.07 255.961 1952.31 253.597 1956.97C244.5 1975.08 225.866 2010.19 220.262 2013.36Z" fill="#346618"/>
<path d="M96.1138 2022.03C92.0036 2029.08 86.1486 1995.34 85.0225 1986.02C83.8964 1976.69 83.3699 1957.57 85.2077 1950.67C87.0453 1943.76 89.2849 1934.91 92.4232 1941.41C95.5616 1947.91 95.9801 1951.41 96.3035 1956.62C97.63 1976.82 99.348 2016.49 96.1138 2022.03Z" fill="#346618"/>
<path d="M2092 3042.5C2407.2 2727.3 2825 2681.5 2994.5 2698V4951.5H488.5V3488C550.667 3477.67 717.5 3490.7 887.5 3625.5C1057.5 3760.3 1197 3793 1245.5 3792.5C1489 3792.5 1698 3436.5 2092 3042.5Z" fill="#A3D441"/>
<path d="M891.5 3630C967 3682.33 1137.1 3789 1213.5 3789C1253.5 3789 1280.83 3790 1292 3790C1495.25 4295.15 2096.72 4923.97 2637.55 4941.68L2651.5 4942C2646.86 4941.94 2642.21 4941.83 2637.55 4941.68L891.5 4901.5V3630Z" fill="#76A841"/>
<path d="M2092 3042.5C2407.2 2727.3 2825 2681.5 2994.5 2698V4951.5H488.5V3528C550.667 3517.67 717.5 3490.7 887.5 3625.5C1057.5 3760.3 1197 3793 1245.5 3792.5C1489 3792.5 1698 3436.5 2092 3042.5Z" stroke="#678821" stroke-width="10"/>
<path d="M-5 3545.5C45.3333 3499.33 192.1 3407 376.5 3407C526.33 3407 681.653 3426.44 891.356 3637.1C1005.47 3750.69 1134.49 3919.64 1285 4170.5C1740.77 4923.13 2397 5111.5 2989.5 4782.5V5322.5H-5V3545.5Z" fill="#5DA235"/>
<path d="M2446 4937.5C2649.5 4937.5 2873.5 4851.5 2994.5 4778.5V5325.5H-6V5043C55.3333 5029.5 210.6 5010.6 341 5043C504 5083.5 843.5 5104 1008.5 5113C1173.5 5122 1465.5 5055 1558.5 5023.5C1651.5 4992 1916 4911.5 2045.5 4911.5C2175 4911.5 2283.41 4937.5 2446 4937.5Z" fill="#4F8C2A"/>
<path d="M376.5 3407C192.1 3407 45.3333 3499.33 -5 3545.5V5322.5H2989.5V4782.5C2397 5111.5 1740.77 4923.13 1285 4170.5M376.5 3407C607 3407 850.5 3453 1285 4170.5M376.5 3407C607 3407 860.5 3463 1285 4170.5" stroke="#295610" stroke-width="8"/>
<path d="M390.932 2708.71C392.55 2714.03 396.311 2747.75 397.988 2763.94C399.263 2782.78 400.969 2819.72 397.596 2816.84C393.378 2813.24 388.005 2784.05 384.709 2758.42C381.413 2732.8 384.002 2707.27 384.56 2705.96C385.118 2704.64 388.908 2702.07 390.932 2708.71ZM429.313 2759.33C431.81 2755.79 430.354 2728.34 429.313 2715.06C428.602 2704.43 427.53 2669.46 420.844 2669.9C414.157 2670.35 414.157 2690.26 416.832 2721.26C419.498 2752.15 426.193 2763.76 429.313 2759.33ZM475.228 2740.73C473.891 2750.03 470.77 2784.12 476.565 2778.36C481.118 2773.84 489.766 2735.09 493.736 2715.25C494.777 2710.14 495.288 2706.65 493.95 2699.56C492.613 2692.48 488.155 2700.45 484.589 2706.65C481.023 2712.84 476.565 2731.44 475.228 2740.73ZM722.496 2502.88C720.713 2498.28 720.562 2480.3 720.712 2471.89C720.712 2461.14 722.496 2447.1 726.508 2442.23C731.69 2435.94 730.965 2450.2 730.965 2458.61C730.965 2467.02 730.52 2492.7 728.736 2501.55C726.953 2510.41 724.724 2508.64 722.496 2502.88ZM693.075 2494.91C691.292 2489.16 685.051 2465.69 683.713 2457.72C682.376 2449.76 677.918 2426.74 681.039 2425.41C684.159 2424.08 685.496 2425.85 688.171 2433.38C690.311 2439.4 696.49 2471.89 699.315 2487.39C701.99 2504.65 696.78 2506.86 693.075 2494.91Z" fill="#346618"/>
<path d="M1464.07 3509.71C1462.45 3515.03 1458.69 3548.75 1457.01 3564.94C1455.74 3583.77 1454.03 3620.72 1457.4 3617.84C1461.62 3614.24 1467 3585.05 1470.29 3559.42C1473.59 3533.8 1471 3508.27 1470.44 3506.95C1469.88 3505.64 1466.09 3503.06 1464.07 3509.71ZM1425.69 3560.32C1423.19 3556.79 1424.65 3529.33 1425.69 3516.06C1426.4 3505.43 1427.47 3470.46 1434.16 3470.9C1440.84 3471.34 1440.84 3491.26 1438.17 3522.25C1435.5 3553.14 1428.81 3564.75 1425.69 3560.32ZM1379.77 3541.73C1381.11 3551.03 1384.23 3585.11 1378.43 3579.36C1373.88 3574.84 1365.23 3536.09 1361.26 3516.25C1360.22 3511.13 1359.71 3507.64 1361.05 3500.56C1362.39 3493.48 1366.84 3501.44 1370.41 3507.64C1373.98 3513.84 1378.43 3532.43 1379.77 3541.73ZM1132.5 3303.88C1134.29 3299.27 1134.44 3281.3 1134.29 3272.89C1134.29 3262.14 1132.5 3248.1 1128.49 3243.23C1123.31 3236.94 1124.03 3251.2 1124.03 3259.61C1124.03 3268.02 1124.48 3293.69 1126.26 3302.55C1128.05 3311.4 1130.28 3309.63 1132.5 3303.88ZM1161.93 3295.91C1163.71 3290.15 1169.95 3266.69 1171.29 3258.72C1172.62 3250.75 1177.08 3227.73 1173.96 3226.4C1170.84 3225.08 1169.5 3226.85 1166.83 3234.37C1164.69 3240.39 1158.51 3272.89 1155.68 3288.38C1153.01 3305.65 1158.22 3307.86 1161.93 3295.91Z" fill="#346618"/>
<path d="M197.287 2388.89C197.436 2397.3 197.287 2415.27 195.504 2419.88C193.275 2425.63 191.046 2427.4 189.263 2418.55C187.48 2409.69 187.035 2384.02 187.035 2375.61C187.035 2367.2 186.311 2352.94 191.492 2359.23C195.504 2364.1 197.287 2378.14 197.287 2388.89Z" fill="#346618"/>
<path d="M234.285 2374.72C232.948 2382.69 226.707 2406.15 224.924 2411.91C221.222 2423.86 216.009 2421.65 218.683 2404.38C221.507 2388.89 227.688 2356.39 229.828 2350.37C232.502 2342.85 233.84 2341.08 236.96 2342.4C240.08 2343.73 235.623 2366.75 234.285 2374.72Z" fill="#346618"/>
<path d="M566.078 4324.28C565.628 4329.19 561.663 4351.45 562.023 4360.03C562.474 4370.75 566.529 4368.51 569.683 4357.35C572.837 4346.17 577.793 4316.68 576.892 4302.38C575.991 4288.08 568.331 4281.82 567.881 4288.97C567.43 4296.12 566.529 4319.36 566.078 4324.28Z" fill="#346618"/>
<path d="M1049.35 3506.28C1048.87 3511.19 1044.64 3533.45 1045.02 3542.03C1045.51 3552.75 1049.83 3550.51 1053.2 3539.35C1056.56 3528.17 1061.85 3498.68 1060.89 3484.38C1059.92 3470.08 1051.75 3463.82 1051.27 3470.97C1050.79 3478.12 1049.83 3501.36 1049.35 3506.28Z" fill="#346618"/>
<path d="M315.076 5173.06C315.223 5181.5 315.076 5199.54 313.329 5204.17C311.146 5209.94 308.963 5211.72 307.216 5202.83C305.47 5193.94 305.033 5168.17 305.033 5159.73C305.033 5151.29 304.329 5136.98 309.399 5143.29C313.329 5148.18 315.076 5162.27 315.076 5173.06Z" fill="#346618"/>
<path d="M351.316 5158.84C350.006 5166.84 343.893 5190.39 342.147 5196.17C338.517 5208.17 333.414 5205.94 336.034 5188.61C338.801 5173.06 344.854 5140.44 346.95 5134.4C349.569 5126.85 350.879 5125.07 353.936 5126.41C356.992 5127.74 352.626 5150.84 351.316 5158.84Z" fill="#346618"/>
<path d="M1017.92 5213.63C1017.78 5222.17 1017.92 5240.43 1019.67 5245.11C1021.85 5250.95 1024.04 5252.76 1025.78 5243.76C1027.53 5234.76 1027.97 5208.68 1027.97 5200.14C1027.97 5191.59 1028.67 5177.11 1023.6 5183.5C1019.67 5188.45 1017.92 5202.71 1017.92 5213.63Z" fill="#346618"/>
<path d="M981.684 5199.24C982.994 5207.33 989.107 5231.16 990.853 5237.02C994.483 5249.16 999.586 5246.9 996.966 5229.37C994.199 5213.63 988.146 5180.62 986.05 5174.5C983.431 5166.86 982.121 5165.06 979.064 5166.41C976.008 5167.76 980.374 5191.14 981.684 5199.24Z" fill="#346618"/>
<path d="M1310.72 4669.06C1310.57 4677.5 1310.72 4695.54 1312.5 4700.17C1314.73 4705.94 1316.96 4707.72 1318.74 4698.83C1320.52 4689.94 1320.97 4664.17 1320.97 4655.73C1320.97 4647.29 1321.68 4632.98 1316.51 4639.29C1312.5 4644.18 1310.72 4658.27 1310.72 4669.06Z" fill="#346618"/>
<path d="M1273.76 4654.84C1275.09 4662.84 1281.33 4686.39 1283.11 4692.17C1286.81 4704.17 1292.02 4701.94 1289.35 4684.61C1286.52 4669.06 1280.35 4636.44 1278.21 4630.4C1275.54 4622.85 1274.2 4621.07 1271.09 4622.41C1267.97 4623.74 1272.42 4646.84 1273.76 4654.84Z" fill="#346618"/>
<path d="M2518.72 5060.06C2518.57 5068.5 2518.72 5086.54 2520.5 5091.17C2522.73 5096.94 2524.96 5098.72 2526.74 5089.83C2528.52 5080.94 2528.97 5055.17 2528.97 5046.73C2528.97 5038.29 2529.68 5023.98 2524.51 5030.29C2520.5 5035.18 2518.72 5049.27 2518.72 5060.06Z" fill="#346618"/>
<path d="M2481.76 5045.84C2483.09 5053.84 2489.33 5077.39 2491.11 5083.17C2494.81 5095.17 2500.02 5092.94 2497.35 5075.61C2494.52 5060.06 2488.35 5027.44 2486.21 5021.4C2483.54 5013.85 2482.2 5012.07 2479.09 5013.41C2475.97 5014.74 2480.42 5037.84 2481.76 5045.84Z" fill="#346618"/>
<path d="M2881.52 3167.5C2881.37 3175.83 2881.52 3193.66 2883.34 3198.22C2885.61 3203.93 2887.88 3205.69 2889.69 3196.91C2891.51 3188.13 2891.97 3162.66 2891.97 3154.32C2891.97 3145.98 2892.7 3131.85 2887.42 3138.08C2883.34 3142.91 2881.52 3156.84 2881.52 3167.5Z" fill="#346618"/>
<path d="M2843.83 3153.44C2845.19 3161.35 2851.55 3184.61 2853.37 3190.32C2857.14 3202.18 2862.45 3199.98 2859.72 3182.86C2856.85 3167.5 2850.55 3135.27 2848.37 3129.3C2845.65 3121.84 2844.29 3120.08 2841.11 3121.4C2837.93 3122.72 2842.47 3145.54 2843.83 3153.44Z" fill="#346618"/>
<path d="M2127.72 4002.63C2127.57 4011.17 2127.72 4029.43 2129.5 4034.11C2131.73 4039.95 2133.96 4041.76 2135.74 4032.76C2137.52 4023.76 2137.97 3997.68 2137.97 3989.14C2137.97 3980.59 2138.68 3966.11 2133.51 3972.5C2129.5 3977.45 2127.72 3991.71 2127.72 4002.63Z" fill="#346618"/>
<path d="M2090.76 3988.24C2092.09 3996.33 2098.33 4020.16 2100.11 4026.02C2103.81 4038.16 2109.02 4035.9 2106.35 4018.37C2103.52 4002.63 2097.35 3969.62 2095.21 3963.5C2092.54 3955.86 2091.2 3954.06 2088.09 3955.41C2084.97 3956.76 2089.42 3980.14 2090.76 3988.24Z" fill="#346618"/>
<path d="M2906.72 4159.2C2906.57 4167.84 2906.72 4186.31 2908.5 4191.05C2910.73 4196.96 2912.96 4198.79 2914.74 4189.68C2916.52 4180.58 2916.97 4154.19 2916.97 4145.54C2916.97 4136.9 2917.68 4122.24 2912.51 4128.7C2908.5 4133.71 2906.72 4148.15 2906.72 4159.2Z" fill="#346618"/>
<path d="M2869.76 4144.63C2871.09 4152.83 2877.33 4176.94 2879.11 4182.86C2882.81 4195.15 2888.02 4192.87 2885.35 4175.12C2882.52 4159.2 2876.35 4125.79 2874.21 4119.6C2871.54 4111.87 2870.2 4110.05 2867.09 4111.42C2863.97 4112.78 2868.42 4136.44 2869.76 4144.63Z" fill="#346618"/>
<path d="M1877.28 4539.2C1877.43 4547.84 1877.28 4566.31 1875.5 4571.05C1873.27 4576.96 1871.04 4578.79 1869.26 4569.68C1867.48 4560.58 1867.03 4534.19 1867.03 4525.54C1867.03 4516.9 1866.32 4502.24 1871.49 4508.7C1875.5 4513.71 1877.28 4528.15 1877.28 4539.2Z" fill="#346618"/>
<path d="M1914.24 4524.63C1912.91 4532.83 1906.67 4556.94 1904.89 4562.86C1901.19 4575.15 1895.98 4572.87 1898.65 4555.12C1901.48 4539.2 1907.65 4505.79 1909.79 4499.6C1912.46 4491.87 1913.8 4490.05 1916.91 4491.42C1920.03 4492.78 1915.58 4516.44 1914.24 4524.63Z" fill="#346618"/>
<path d="M2562.28 4815.2C2562.43 4823.84 2562.28 4842.31 2560.5 4847.05C2558.27 4852.96 2556.04 4854.79 2554.26 4845.68C2552.48 4836.58 2552.03 4810.19 2552.03 4801.54C2552.03 4792.9 2551.32 4778.24 2556.49 4784.7C2560.5 4789.71 2562.28 4804.15 2562.28 4815.2Z" fill="#346618"/>
<path d="M2599.24 4800.63C2597.91 4808.83 2591.67 4832.94 2589.89 4838.86C2586.19 4851.15 2580.98 4848.87 2583.65 4831.12C2586.48 4815.2 2592.65 4781.79 2594.79 4775.6C2597.46 4767.87 2598.8 4766.05 2601.91 4767.42C2605.03 4768.78 2600.58 4792.44 2599.24 4800.63Z" fill="#346618"/>
<path d="M1331.28 4122.2C1331.43 4130.84 1331.28 4149.31 1329.5 4154.05C1327.27 4159.96 1325.04 4161.79 1323.26 4152.68C1321.48 4143.58 1321.03 4117.19 1321.03 4108.54C1321.03 4099.9 1320.32 4085.24 1325.49 4091.7C1329.5 4096.71 1331.28 4111.15 1331.28 4122.2Z" fill="#346618"/>
<path d="M1368.24 4107.63C1366.91 4115.83 1360.67 4139.94 1358.89 4145.86C1355.19 4158.15 1349.98 4155.87 1352.65 4138.12C1355.48 4122.2 1361.65 4088.79 1363.79 4082.6C1366.46 4074.87 1367.8 4073.05 1370.91 4074.42C1374.03 4075.78 1369.58 4099.44 1368.24 4107.63Z" fill="#346618"/>
<path d="M2787.28 2193.2C2787.43 2201.84 2787.28 2220.31 2785.5 2225.05C2783.27 2230.96 2781.04 2232.79 2779.26 2223.68C2777.48 2214.58 2777.03 2188.19 2777.03 2179.54C2777.03 2170.9 2776.32 2156.24 2781.49 2162.7C2785.5 2167.71 2787.28 2182.15 2787.28 2193.2Z" fill="#235108"/>
<path d="M2824.24 2178.63C2822.91 2186.83 2816.67 2210.94 2814.89 2216.86C2811.19 2229.15 2805.98 2226.87 2808.65 2209.12C2811.48 2193.2 2817.65 2159.79 2819.79 2153.6C2822.46 2145.87 2823.8 2144.05 2826.91 2145.42C2830.03 2146.78 2825.58 2170.44 2824.24 2178.63Z" fill="#235108"/>
<path d="M1883.28 1414.2C1883.43 1422.84 1883.28 1441.31 1881.5 1446.05C1879.27 1451.96 1877.04 1453.79 1875.26 1444.68C1873.48 1435.58 1873.03 1409.19 1873.03 1400.54C1873.03 1391.9 1872.32 1377.24 1877.49 1383.7C1881.5 1388.71 1883.28 1403.15 1883.28 1414.2Z" fill="#346618"/>
<path d="M1920.24 1399.63C1918.91 1407.83 1912.67 1431.94 1910.89 1437.86C1907.19 1450.15 1901.98 1447.87 1904.65 1430.12C1907.48 1414.2 1913.65 1380.79 1915.79 1374.6C1918.46 1366.87 1919.8 1365.05 1922.91 1366.42C1926.03 1367.78 1921.58 1391.44 1920.24 1399.63Z" fill="#346618"/>
<path d="M2184.28 1314.2C2184.43 1322.84 2184.28 1341.31 2182.5 1346.05C2180.27 1351.96 2178.04 1353.79 2176.26 1344.68C2174.48 1335.58 2174.03 1309.19 2174.03 1300.54C2174.03 1291.9 2173.32 1277.24 2178.49 1283.7C2182.5 1288.71 2184.28 1303.15 2184.28 1314.2Z" fill="#295711"/>
<path d="M2221.24 1299.63C2219.91 1307.83 2213.67 1331.94 2211.89 1337.86C2208.19 1350.15 2202.98 1347.87 2205.65 1330.12C2208.48 1314.2 2214.65 1280.79 2216.79 1274.6C2219.46 1266.87 2220.8 1265.05 2223.91 1266.42C2227.03 1267.78 2222.58 1291.44 2221.24 1299.63Z" fill="#295711"/>
<path d="M1106.72 1470.2C1106.57 1478.84 1106.72 1497.31 1108.5 1502.05C1110.73 1507.96 1112.96 1509.79 1114.74 1500.68C1116.52 1491.58 1116.97 1465.19 1116.97 1456.54C1116.97 1447.9 1117.68 1433.24 1112.51 1439.7C1108.5 1444.71 1106.72 1459.15 1106.72 1470.2Z" fill="#346618"/>
<path d="M1069.76 1455.63C1071.09 1463.83 1077.33 1487.94 1079.11 1493.86C1082.81 1506.15 1088.02 1503.87 1085.35 1486.12C1082.52 1470.2 1076.35 1436.79 1074.21 1430.6C1071.54 1422.87 1070.2 1421.05 1067.09 1422.42C1063.97 1423.78 1068.42 1447.44 1069.76 1455.63Z" fill="#346618"/>
<path d="M951.076 4107.06C951.223 4115.5 951.076 4133.54 949.329 4138.17C947.146 4143.94 944.963 4145.72 943.216 4136.83C941.47 4127.94 941.033 4102.17 941.033 4093.73C941.033 4085.29 940.329 4070.98 945.399 4077.29C949.329 4082.18 951.076 4096.27 951.076 4107.06Z" fill="#346618"/>
<path d="M987.316 4092.84C986.006 4100.84 979.893 4124.39 978.147 4130.17C974.517 4142.17 969.414 4139.94 972.034 4122.61C974.801 4107.06 980.854 4074.44 982.95 4068.4C985.569 4060.85 986.879 4059.07 989.936 4060.41C992.992 4061.74 988.626 4084.84 987.316 4092.84Z" fill="#346618"/>
<path d="M1646.08 3031.06C1646.22 3039.5 1646.08 3057.54 1644.33 3062.17C1642.15 3067.94 1639.96 3069.72 1638.22 3060.83C1636.47 3051.94 1636.03 3026.17 1636.03 3017.73C1636.03 3009.29 1635.33 2994.98 1640.4 3001.29C1644.33 3006.18 1646.08 3020.27 1646.08 3031.06Z" fill="#235108"/>
<path d="M1682.32 3016.84C1681.01 3024.84 1674.89 3048.39 1673.15 3054.17C1669.52 3066.17 1664.41 3063.94 1667.03 3046.61C1669.8 3031.06 1675.85 2998.44 1677.95 2992.4C1680.57 2984.85 1681.88 2983.07 1684.94 2984.41C1687.99 2985.74 1683.63 3008.84 1682.32 3016.84Z" fill="#235108"/>
<path d="M150.479 3705.06C150.632 3713.5 150.479 3731.54 148.662 3736.17C146.392 3741.94 144.121 3743.72 142.305 3734.83C140.489 3725.94 140.035 3700.17 140.035 3691.73C140.035 3683.29 139.302 3668.98 144.575 3675.29C148.662 3680.18 150.479 3694.27 150.479 3705.06Z" fill="#346618"/>
<path d="M188.169 3690.84C186.806 3698.84 180.449 3722.39 178.633 3728.17C174.858 3740.17 169.551 3737.94 172.275 3720.61C175.153 3705.06 181.448 3672.44 183.628 3666.4C186.352 3658.85 187.714 3657.07 190.893 3658.41C194.072 3659.74 189.531 3682.84 188.169 3690.84Z" fill="#346618"/>
<path d="M1356.48 703.062C1356.63 711.503 1356.48 729.542 1354.66 734.166C1352.39 739.942 1350.12 741.722 1348.31 732.831C1346.49 723.945 1346.03 698.171 1346.03 689.73C1346.03 681.289 1345.3 666.978 1350.58 673.288C1354.66 678.179 1356.48 692.273 1356.48 703.062Z" fill="#346618"/>
<path d="M1394.17 688.84C1392.81 696.841 1386.45 720.389 1384.63 726.17C1380.86 738.167 1375.55 735.941 1378.28 718.614C1381.15 703.062 1387.45 670.445 1389.63 664.402C1392.35 656.851 1393.71 655.071 1396.89 656.406C1400.07 657.736 1395.53 680.844 1394.17 688.84Z" fill="#346618"/>
<path d="M2014.72 3605.06C2014.57 3613.5 2014.72 3631.54 2016.5 3636.17C2018.73 3641.94 2020.96 3643.72 2022.74 3634.83C2024.52 3625.94 2024.97 3600.17 2024.97 3591.73C2024.97 3583.29 2025.68 3568.98 2020.51 3575.29C2016.5 3580.18 2014.72 3594.27 2014.72 3605.06Z" fill="#346618"/>
<path d="M1977.76 3590.84C1979.09 3598.84 1985.33 3622.39 1987.11 3628.17C1990.81 3640.17 1996.02 3637.94 1993.35 3620.61C1990.52 3605.06 1984.35 3572.44 1982.21 3566.4C1979.54 3558.85 1978.2 3557.07 1975.09 3558.41C1971.97 3559.74 1976.42 3582.84 1977.76 3590.84Z" fill="#346618"/>
<path d="M190.723 1042.06C190.572 1050.5 190.723 1068.54 192.504 1073.17C194.731 1078.94 196.958 1080.72 198.739 1071.83C200.521 1062.94 200.966 1037.17 200.966 1028.73C200.966 1020.29 201.684 1005.98 196.513 1012.29C192.504 1017.18 190.723 1031.27 190.723 1042.06Z" fill="#346618"/>
<path d="M153.758 1027.84C155.094 1035.84 161.329 1059.39 163.11 1065.17C166.812 1077.17 172.018 1074.94 169.346 1057.61C166.523 1042.06 160.349 1009.44 158.211 1003.4C155.539 995.851 154.203 994.071 151.086 995.406C147.968 996.736 152.422 1019.84 153.758 1027.84Z" fill="#346618"/>
<path d="M1015.08 2409.06C1015.22 2417.5 1015.08 2435.54 1013.33 2440.17C1011.15 2445.94 1008.96 2447.72 1007.22 2438.83C1005.47 2429.94 1005.03 2404.17 1005.03 2395.73C1005.03 2387.29 1004.33 2372.98 1009.4 2379.29C1013.33 2384.18 1015.08 2398.27 1015.08 2409.06Z" fill="#235108"/>
<path d="M1051.32 2394.84C1050.01 2402.84 1043.89 2426.39 1042.15 2432.17C1038.52 2444.17 1033.41 2441.94 1036.03 2424.61C1038.8 2409.06 1044.85 2376.44 1046.95 2370.4C1049.57 2362.85 1050.88 2361.07 1053.94 2362.41C1056.99 2363.74 1052.63 2386.84 1051.32 2394.84Z" fill="#235108"/>
<path d="M2159.08 2158.06C2159.22 2166.5 2159.08 2184.54 2157.33 2189.17C2155.15 2194.94 2152.96 2196.72 2151.22 2187.83C2149.47 2178.94 2149.03 2153.17 2149.03 2144.73C2149.03 2136.29 2148.33 2121.98 2153.4 2128.29C2157.33 2133.18 2159.08 2147.27 2159.08 2158.06Z" fill="#235108"/>
<path d="M2195.32 2143.84C2194.01 2151.84 2187.89 2175.39 2186.15 2181.17C2182.52 2193.17 2177.41 2190.94 2180.03 2173.61C2182.8 2158.06 2188.85 2125.44 2190.95 2119.4C2193.57 2111.85 2194.88 2110.07 2197.94 2111.41C2200.99 2112.74 2196.63 2135.84 2195.32 2143.84Z" fill="#235108"/>
<path d="M955.521 3167.06C955.368 3175.5 955.521 3193.54 957.338 3198.17C959.608 3203.94 961.879 3205.72 963.695 3196.83C965.511 3187.94 965.965 3162.17 965.965 3153.73C965.965 3145.29 966.698 3130.98 961.425 3137.29C957.338 3142.18 955.521 3156.27 955.521 3167.06Z" fill="#346618"/>
<path d="M917.831 3152.84C919.194 3160.84 925.551 3184.39 927.367 3190.17C931.142 3202.17 936.449 3199.94 933.725 3182.61C930.847 3167.06 924.552 3134.44 922.372 3128.4C919.648 3120.85 918.286 3119.07 915.107 3120.41C911.928 3121.74 916.469 3144.84 917.831 3152.84Z" fill="#346618"/>
<path d="M982.521 2116.06C982.368 2124.5 982.521 2142.54 984.338 2147.17C986.608 2152.94 988.879 2154.72 990.695 2145.83C992.511 2136.94 992.965 2111.17 992.965 2102.73C992.965 2094.29 993.698 2079.98 988.425 2086.29C984.338 2091.18 982.521 2105.27 982.521 2116.06Z" fill="#235108"/>
<path d="M944.831 2101.84C946.194 2109.84 952.551 2133.39 954.367 2139.17C958.142 2151.17 963.449 2148.94 960.725 2131.61C957.847 2116.06 951.552 2083.44 949.372 2077.4C946.648 2069.85 945.286 2068.07 942.107 2069.41C938.928 2070.74 943.469 2093.84 944.831 2101.84Z" fill="#235108"/>
<path d="M462.964 4740.62C461.282 4724.33 457.51 4690.4 455.884 4685.05C453.856 4678.36 450.056 4680.96 449.492 4682.28C448.938 4683.6 446.346 4709.28 449.642 4735.07C452.95 4760.85 458.343 4790.22 462.573 4793.84C465.953 4796.74 464.243 4759.57 462.964 4740.62Z" fill="#346618"/>
<path d="M494.373 4691.44C495.418 4704.8 496.876 4732.41 494.373 4735.98C491.244 4740.43 484.527 4728.75 481.856 4697.67C479.174 4666.49 479.174 4646.45 485.879 4646C492.585 4645.56 493.658 4680.75 494.373 4691.44Z" fill="#346618"/>
<path d="M541.758 4755.13C535.946 4760.92 539.075 4726.62 540.416 4717.27C541.758 4707.91 546.228 4689.21 549.804 4682.97C553.38 4676.74 557.85 4668.72 559.191 4675.85C560.533 4682.97 560.024 4686.49 558.979 4691.63C555.001 4711.6 546.328 4750.58 541.758 4755.13Z" fill="#346618"/>
<path d="M1287.96 1131.62C1286.28 1115.33 1282.51 1081.4 1280.88 1076.05C1278.86 1069.36 1275.06 1071.96 1274.49 1073.28C1273.94 1074.6 1271.35 1100.28 1274.64 1126.07C1277.95 1151.85 1283.34 1181.22 1287.57 1184.84C1290.95 1187.74 1289.24 1150.57 1287.96 1131.62Z" fill="#346618"/>
<path d="M1319.37 1082.44C1320.42 1095.8 1321.88 1123.41 1319.37 1126.98C1316.24 1131.43 1309.53 1119.75 1306.86 1088.67C1304.17 1057.49 1304.17 1037.45 1310.88 1037C1317.58 1036.56 1318.66 1071.75 1319.37 1082.44Z" fill="#346618"/>
<path d="M1366.76 1146.13C1360.95 1151.92 1364.08 1117.62 1365.42 1108.27C1366.76 1098.91 1371.23 1080.21 1374.8 1073.97C1378.38 1067.74 1382.85 1059.72 1384.19 1066.85C1385.53 1073.97 1385.02 1077.49 1383.98 1082.63C1380 1102.6 1371.33 1141.58 1366.76 1146.13Z" fill="#346618"/>
<path d="M1940.96 1796.62C1939.28 1780.33 1935.51 1746.4 1933.88 1741.05C1931.86 1734.36 1928.06 1736.96 1927.49 1738.28C1926.94 1739.6 1924.35 1765.28 1927.64 1791.07C1930.95 1816.85 1936.34 1846.22 1940.57 1849.84C1943.95 1852.74 1942.24 1815.57 1940.96 1796.62Z" fill="#295711"/>
<path d="M1972.37 1747.44C1973.42 1760.8 1974.88 1788.41 1972.37 1791.98C1969.24 1796.43 1962.53 1784.75 1959.86 1753.67C1957.17 1722.49 1957.17 1702.45 1963.88 1702C1970.58 1701.56 1971.66 1736.75 1972.37 1747.44Z" fill="#295711"/>
<path d="M2019.76 1811.13C2013.95 1816.92 2017.08 1782.62 2018.42 1773.27C2019.76 1763.91 2024.23 1745.21 2027.8 1738.97C2031.38 1732.74 2035.85 1724.72 2037.19 1731.85C2038.53 1738.97 2038.02 1742.49 2036.98 1747.63C2033 1767.6 2024.33 1806.58 2019.76 1811.13Z" fill="#295711"/>
<path d="M1050.85 4949.43C1048.18 4933.24 1042.87 4899.47 1043.03 4893.88C1043.22 4886.88 1047.57 4888.38 1048.46 4889.51C1049.34 4890.64 1058.61 4914.77 1062.23 4940.55C1065.84 4966.33 1068.38 4996.12 1065.26 5000.74C1062.77 5004.43 1054.62 4968.07 1050.85 4949.43Z" fill="#346618"/>
<path d="M1007.62 4910.2C1010.13 4923.38 1016.01 4950.45 1019.36 4953.23C1023.55 4956.7 1026.94 4943.65 1021.32 4912.92C1015.69 4882.09 1010.41 4862.73 1003.83 4864.07C997.248 4865.4 1005.49 4899.68 1007.62 4910.2Z" fill="#346618"/>
<path d="M978.738 4984.23C985.865 4988.29 973.809 4955.99 970.051 4947.3C966.293 4938.62 957.054 4921.73 951.963 4916.65C946.873 4911.57 940.451 4905 941.037 4912.24C941.623 4919.48 943.039 4922.74 945.403 4927.44C954.5 4945.67 973.134 4981.05 978.738 4984.23Z" fill="#346618"/>
<path d="M1102.89 4992.97C1107 5000.08 1112.85 4966.09 1113.98 4956.69C1115.1 4947.3 1115.63 4928.04 1113.79 4921.08C1111.95 4914.12 1109.72 4905.21 1106.58 4911.76C1103.44 4918.3 1103.02 4921.83 1102.7 4927.08C1101.37 4947.43 1099.65 4987.39 1102.89 4992.97Z" fill="#346618"/>
<path d="M1449.15 1662.43C1451.82 1646.24 1457.13 1612.47 1456.97 1606.88C1456.78 1599.88 1452.43 1601.38 1451.54 1602.51C1450.66 1603.64 1441.39 1627.77 1437.77 1653.55C1434.16 1679.33 1431.62 1709.12 1434.74 1713.74C1437.23 1717.43 1445.38 1681.07 1449.15 1662.43Z" fill="#346618"/>
<path d="M1492.38 1623.2C1489.87 1636.38 1483.99 1663.45 1480.64 1666.23C1476.45 1669.7 1473.06 1656.65 1478.68 1625.92C1484.31 1595.09 1489.59 1575.73 1496.17 1577.07C1502.75 1578.4 1494.51 1612.68 1492.38 1623.2Z" fill="#346618"/>
<path d="M1521.26 1697.23C1514.13 1701.29 1526.19 1668.99 1529.95 1660.3C1533.71 1651.62 1542.95 1634.73 1548.04 1629.65C1553.13 1624.57 1559.55 1618 1558.96 1625.24C1558.38 1632.48 1556.96 1635.74 1554.6 1640.44C1545.5 1658.67 1526.87 1694.05 1521.26 1697.23Z" fill="#346618"/>
<path d="M1397.11 1705.97C1393 1713.08 1387.15 1679.09 1386.02 1669.69C1384.9 1660.3 1384.37 1641.04 1386.21 1634.08C1388.05 1627.12 1390.28 1618.21 1393.42 1624.76C1396.56 1631.3 1396.98 1634.83 1397.3 1640.08C1398.63 1660.43 1400.35 1700.39 1397.11 1705.97Z" fill="#346618"/>
<path d="M1623.15 2713.8C1625.82 2697.74 1631.13 2664.21 1630.97 2658.66C1630.78 2651.71 1626.43 2653.2 1625.54 2654.32C1624.66 2655.45 1615.39 2679.4 1611.77 2704.99C1608.16 2730.58 1605.62 2760.16 1608.74 2764.74C1611.23 2768.41 1619.38 2732.31 1623.15 2713.8Z" fill="#235108"/>
<path d="M1666.38 2674.86C1663.87 2687.95 1657.99 2714.81 1654.64 2717.58C1650.45 2721.03 1647.06 2708.07 1652.68 2677.56C1658.31 2646.96 1663.59 2627.74 1670.17 2629.06C1676.75 2630.39 1668.51 2664.42 1666.38 2674.86Z" fill="#235108"/>
<path d="M1695.26 2748.36C1688.13 2752.39 1700.19 2720.31 1703.95 2711.7C1707.71 2703.08 1716.95 2686.31 1722.04 2681.26C1727.13 2676.22 1733.55 2669.7 1732.96 2676.89C1732.38 2684.07 1730.96 2687.31 1728.6 2691.97C1719.5 2710.08 1700.87 2745.19 1695.26 2748.36Z" fill="#235108"/>
<path d="M1571.11 2757.03C1567 2764.08 1561.15 2730.34 1560.02 2721.02C1558.9 2711.69 1558.37 2692.57 1560.21 2685.67C1562.05 2678.76 1564.28 2669.91 1567.42 2676.41C1570.56 2682.91 1570.98 2686.41 1571.3 2691.62C1572.63 2711.82 1574.35 2751.49 1571.11 2757.03Z" fill="#235108"/>
<path d="M2640.15 1860.8C2642.82 1844.74 2648.13 1811.21 2647.97 1805.66C2647.78 1798.71 2643.43 1800.2 2642.54 1801.32C2641.66 1802.45 2632.39 1826.4 2628.77 1851.99C2625.16 1877.58 2622.62 1907.16 2625.74 1911.74C2628.23 1915.41 2636.38 1879.31 2640.15 1860.8Z" fill="#235108"/>
<path d="M2683.38 1821.86C2680.87 1834.95 2674.99 1861.81 2671.64 1864.58C2667.45 1868.03 2664.06 1855.07 2669.68 1824.56C2675.31 1793.96 2680.59 1774.74 2687.17 1776.06C2693.75 1777.39 2685.51 1811.42 2683.38 1821.86Z" fill="#235108"/>
<path d="M2712.26 1895.36C2705.13 1899.39 2717.19 1867.31 2720.95 1858.7C2724.71 1850.08 2733.95 1833.31 2739.04 1828.26C2744.13 1823.22 2750.55 1816.7 2749.96 1823.89C2749.38 1831.07 2747.96 1834.31 2745.6 1838.97C2736.5 1857.08 2717.87 1892.19 2712.26 1895.36Z" fill="#235108"/>
<path d="M2588.11 1904.03C2584 1911.08 2578.15 1877.34 2577.02 1868.02C2575.9 1858.69 2575.37 1839.57 2577.21 1832.67C2579.05 1825.76 2581.28 1816.91 2584.42 1823.41C2587.56 1829.91 2587.98 1833.41 2588.3 1838.62C2589.63 1858.82 2591.35 1898.49 2588.11 1904.03Z" fill="#235108"/>
<path d="M1932.83 5196.98C1931.16 5180.8 1927.43 5147.1 1925.81 5141.79C1923.8 5135.15 1920.04 5137.72 1919.48 5139.04C1918.93 5140.35 1916.36 5165.85 1919.63 5191.46C1922.91 5217.07 1928.25 5246.24 1932.44 5249.84C1935.79 5252.72 1934.1 5215.8 1932.83 5196.98Z" fill="#346618"/>
<path d="M1963.96 5148.13C1964.99 5161.4 1966.44 5188.83 1963.96 5192.37C1960.86 5196.79 1954.2 5185.19 1951.55 5154.32C1948.9 5123.35 1948.9 5103.45 1955.54 5103C1962.19 5102.56 1963.25 5137.51 1963.96 5148.13Z" fill="#346618"/>
<path d="M2010.92 5211.39C2005.16 5217.14 2008.26 5183.08 2009.59 5173.79C2010.92 5164.5 2015.35 5145.92 2018.9 5139.72C2022.44 5133.53 2026.87 5125.57 2028.2 5132.64C2029.53 5139.72 2029.02 5143.21 2027.99 5148.32C2024.05 5168.15 2015.45 5206.87 2010.92 5211.39Z" fill="#346618"/>
<path d="M674.83 591.981C673.163 575.797 669.425 542.104 667.814 536.789C665.803 530.146 662.038 532.723 661.478 534.035C660.93 535.348 658.36 560.855 661.628 586.465C664.906 612.074 670.25 641.243 674.443 644.841C677.793 647.719 676.098 610.8 674.83 591.981Z" fill="#346618"/>
<path d="M705.959 543.128C706.995 556.4 708.44 583.829 705.959 587.368C702.858 591.792 696.201 580.189 693.554 549.322C690.896 518.353 690.896 498.447 697.541 498.004C704.187 497.562 705.25 532.511 705.959 543.128Z" fill="#346618"/>
<path d="M752.92 606.39C747.161 612.141 750.262 578.076 751.591 568.786C752.92 559.496 757.351 540.916 760.895 534.722C764.439 528.528 768.87 520.565 770.199 527.644C771.528 534.722 771.024 538.212 769.988 543.324C766.045 563.153 757.451 601.872 752.92 606.39Z" fill="#346618"/>
<path d="M2761.83 4558.98C2760.16 4542.8 2756.43 4509.1 2754.81 4503.79C2752.8 4497.15 2749.04 4499.72 2748.48 4501.04C2747.93 4502.35 2745.36 4527.85 2748.63 4553.46C2751.91 4579.07 2757.25 4608.24 2761.44 4611.84C2764.79 4614.72 2763.1 4577.8 2761.83 4558.98Z" fill="#346618"/>
<path d="M2792.96 4510.13C2793.99 4523.4 2795.44 4550.83 2792.96 4554.37C2789.86 4558.79 2783.2 4547.19 2780.55 4516.32C2777.9 4485.35 2777.9 4465.45 2784.54 4465C2791.19 4464.56 2792.25 4499.51 2792.96 4510.13Z" fill="#346618"/>
<path d="M2839.92 4573.39C2834.16 4579.14 2837.26 4545.08 2838.59 4535.79C2839.92 4526.5 2844.35 4507.92 2847.9 4501.72C2851.44 4495.53 2855.87 4487.57 2857.2 4494.64C2858.53 4501.72 2858.02 4505.21 2856.99 4510.32C2853.05 4530.15 2844.45 4568.87 2839.92 4573.39Z" fill="#346618"/>
<path d="M2298.17 4510.98C2299.84 4494.8 2303.57 4461.1 2305.19 4455.79C2307.2 4449.15 2310.96 4451.72 2311.52 4453.04C2312.07 4454.35 2314.64 4479.85 2311.37 4505.46C2308.09 4531.07 2302.75 4560.24 2298.56 4563.84C2295.21 4566.72 2296.9 4529.8 2298.17 4510.98Z" fill="#346618"/>
<path d="M2267.04 4462.13C2266.01 4475.4 2264.56 4502.83 2267.04 4506.37C2270.14 4510.79 2276.8 4499.19 2279.45 4468.32C2282.1 4437.35 2282.1 4417.45 2275.46 4417C2268.81 4416.56 2267.75 4451.51 2267.04 4462.13Z" fill="#346618"/>
<path d="M2220.08 4525.39C2225.84 4531.14 2222.74 4497.08 2221.41 4487.79C2220.08 4478.5 2215.65 4459.92 2212.1 4453.72C2208.56 4447.53 2204.13 4439.57 2202.8 4446.64C2201.47 4453.72 2201.98 4457.21 2203.01 4462.32C2206.95 4482.15 2215.55 4520.87 2220.08 4525.39Z" fill="#346618"/>
<path d="M2010.17 1039.98C2011.84 1023.8 2015.57 990.104 2017.19 984.789C2019.2 978.146 2022.96 980.723 2023.52 982.035C2024.07 983.348 2026.64 1008.85 2023.37 1034.46C2020.09 1060.07 2014.75 1089.24 2010.56 1092.84C2007.21 1095.72 2008.9 1058.8 2010.17 1039.98Z" fill="#346618"/>
<path d="M1979.04 991.128C1978.01 1004.4 1976.56 1031.83 1979.04 1035.37C1982.14 1039.79 1988.8 1028.19 1991.45 997.322C1994.1 966.353 1994.1 946.447 1987.46 946.004C1980.81 945.562 1979.75 980.511 1979.04 991.128Z" fill="#346618"/>
<path d="M1932.08 1054.39C1937.84 1060.14 1934.74 1026.08 1933.41 1016.79C1932.08 1007.5 1927.65 988.916 1924.1 982.722C1920.56 976.528 1916.13 968.565 1914.8 975.644C1913.47 982.722 1913.98 986.212 1915.01 991.324C1918.95 1011.15 1927.55 1049.87 1932.08 1054.39Z" fill="#346618"/>
<path d="M2466.96 3743.34C2465.28 3727.27 2461.51 3693.8 2459.88 3688.53C2457.86 3681.93 2454.06 3684.49 2453.49 3685.79C2452.94 3687.09 2450.35 3712.43 2453.64 3737.86C2456.95 3763.3 2462.34 3792.27 2466.57 3795.84C2469.95 3798.7 2468.24 3762.03 2466.96 3743.34Z" fill="#346618"/>
<path d="M2498.37 3694.82C2499.42 3708 2500.88 3735.24 2498.37 3738.76C2495.24 3743.15 2488.53 3731.63 2485.86 3700.97C2483.17 3670.21 2483.17 3650.44 2489.88 3650C2496.58 3649.56 2497.66 3684.28 2498.37 3694.82Z" fill="#346618"/>
<path d="M2545.76 3757.65C2539.95 3763.36 2543.08 3729.53 2544.42 3720.3C2545.76 3711.08 2550.23 3692.62 2553.8 3686.47C2557.38 3680.32 2561.85 3672.41 2563.19 3679.44C2564.53 3686.47 2564.02 3689.94 2562.98 3695.02C2559 3714.71 2550.33 3753.17 2545.76 3757.65Z" fill="#346618"/>
<path d="M1121.96 2824.34C1120.28 2808.27 1116.51 2774.8 1114.88 2769.53C1112.86 2762.93 1109.06 2765.49 1108.49 2766.79C1107.94 2768.09 1105.35 2793.43 1108.64 2818.86C1111.95 2844.3 1117.34 2873.27 1121.57 2876.84C1124.95 2879.7 1123.24 2843.03 1121.96 2824.34Z" fill="#235108"/>
<path d="M1153.37 2775.82C1154.42 2789 1155.88 2816.24 1153.37 2819.76C1150.24 2824.15 1143.53 2812.63 1140.86 2781.97C1138.17 2751.21 1138.17 2731.44 1144.88 2731C1151.58 2730.56 1152.66 2765.28 1153.37 2775.82Z" fill="#235108"/>
<path d="M1200.76 2838.65C1194.95 2844.36 1198.08 2810.53 1199.42 2801.3C1200.76 2792.08 1205.23 2773.62 1208.8 2767.47C1212.38 2761.32 1216.85 2753.41 1218.19 2760.44C1219.53 2767.47 1219.02 2770.94 1217.98 2776.02C1214 2795.71 1205.33 2834.17 1200.76 2838.65Z" fill="#235108"/>
<path d="M206.83 4036.98C205.163 4020.8 201.425 3987.1 199.814 3981.79C197.803 3975.15 194.038 3977.72 193.478 3979.04C192.93 3980.35 190.36 4005.85 193.628 4031.46C196.906 4057.07 202.25 4086.24 206.443 4089.84C209.793 4092.72 208.098 4055.8 206.83 4036.98Z" fill="#346618"/>
<path d="M237.959 3988.13C238.995 4001.4 240.44 4028.83 237.959 4032.37C234.858 4036.79 228.201 4025.19 225.554 3994.32C222.896 3963.35 222.896 3943.45 229.541 3943C236.187 3942.56 237.25 3977.51 237.959 3988.13Z" fill="#346618"/>
<path d="M284.92 4051.39C279.161 4057.14 282.262 4023.08 283.591 4013.79C284.92 4004.5 289.351 3985.92 292.895 3979.72C296.439 3973.53 300.87 3965.57 302.199 3972.64C303.528 3979.72 303.024 3983.21 301.988 3988.32C298.045 4008.15 289.451 4046.87 284.92 4051.39Z" fill="#346618"/>
<path d="M1361.83 2361.98C1360.16 2345.8 1356.43 2312.1 1354.81 2306.79C1352.8 2300.15 1349.04 2302.72 1348.48 2304.04C1347.93 2305.35 1345.36 2330.85 1348.63 2356.46C1351.91 2382.07 1357.25 2411.24 1361.44 2414.84C1364.79 2417.72 1363.1 2380.8 1361.83 2361.98Z" fill="#235108"/>
<path d="M1392.96 2313.13C1393.99 2326.4 1395.44 2353.83 1392.96 2357.37C1389.86 2361.79 1383.2 2350.19 1380.55 2319.32C1377.9 2288.35 1377.9 2268.45 1384.54 2268C1391.19 2267.56 1392.25 2302.51 1392.96 2313.13Z" fill="#235108"/>
<path d="M1439.92 2376.39C1434.16 2382.14 1437.26 2348.08 1438.59 2338.79C1439.92 2329.5 1444.35 2310.92 1447.9 2304.72C1451.44 2298.53 1455.87 2290.57 1457.2 2297.64C1458.53 2304.72 1458.02 2308.21 1456.99 2313.32C1453.05 2333.15 1444.45 2371.87 1439.92 2376.39Z" fill="#235108"/>
<path d="M177.17 3243.62C178.837 3227.33 182.575 3193.4 184.186 3188.05C186.197 3181.36 189.962 3183.96 190.522 3185.28C191.07 3186.6 193.64 3212.28 190.372 3238.07C187.094 3263.85 181.75 3293.22 177.557 3296.84C174.207 3299.74 175.902 3262.57 177.17 3243.62Z" fill="#346618"/>
<path d="M146.041 3194.44C145.005 3207.8 143.56 3235.41 146.041 3238.98C149.142 3243.43 155.799 3231.75 158.446 3200.67C161.104 3169.49 161.104 3149.45 154.459 3149C147.813 3148.56 146.75 3183.75 146.041 3194.44Z" fill="#346618"/>
<path d="M99.0795 3258.13C104.839 3263.92 101.738 3229.62 100.409 3220.27C99.0796 3210.91 94.6492 3192.21 91.1049 3185.97C87.5606 3179.74 83.1304 3171.72 81.8013 3178.85C80.4722 3185.97 80.976 3189.49 82.0116 3194.63C85.9546 3214.6 94.5495 3253.58 99.0795 3258.13Z" fill="#346618"/>
<path d="M1654.3 4872.34C1655.96 4856.27 1659.66 4822.8 1661.26 4817.53C1663.25 4810.93 1666.98 4813.49 1667.54 4814.79C1668.08 4816.09 1670.62 4841.43 1667.39 4866.86C1664.14 4892.3 1658.84 4921.27 1654.69 4924.84C1651.37 4927.7 1653.05 4891.03 1654.3 4872.34Z" fill="#346618"/>
<path d="M1623.46 4823.82C1622.43 4837 1621 4864.24 1623.46 4867.76C1626.53 4872.15 1633.13 4860.63 1635.75 4829.97C1638.38 4799.21 1638.38 4779.44 1631.8 4779C1625.21 4778.56 1624.16 4813.28 1623.46 4823.82Z" fill="#346618"/>
<path d="M1576.92 4886.65C1582.62 4892.36 1579.55 4858.53 1578.23 4849.3C1576.92 4840.08 1572.53 4821.62 1569.01 4815.47C1565.5 4809.32 1561.11 4801.41 1559.79 4808.44C1558.48 4815.47 1558.98 4818.94 1560 4824.02C1563.91 4843.71 1572.43 4882.17 1576.92 4886.65Z" fill="#346618"/>
<path d="M2824.96 5196.98C2823.28 5180.8 2819.51 5147.1 2817.88 5141.79C2815.86 5135.15 2812.06 5137.72 2811.49 5139.04C2810.94 5140.35 2808.35 5165.85 2811.64 5191.46C2814.95 5217.07 2820.34 5246.24 2824.57 5249.84C2827.95 5252.72 2826.24 5215.8 2824.96 5196.98Z" fill="#346618"/>
<path d="M2856.37 5148.13C2857.42 5161.4 2858.88 5188.83 2856.37 5192.37C2853.24 5196.79 2846.53 5185.19 2843.86 5154.32C2841.17 5123.35 2841.17 5103.45 2847.88 5103C2854.58 5102.56 2855.66 5137.51 2856.37 5148.13Z" fill="#346618"/>
<path d="M2903.76 5211.39C2897.95 5217.14 2901.08 5183.08 2902.42 5173.79C2903.76 5164.5 2908.23 5145.92 2911.8 5139.72C2915.38 5133.53 2919.85 5125.57 2921.19 5132.64C2922.53 5139.72 2922.02 5143.21 2920.98 5148.32C2917 5168.15 2908.33 5206.87 2903.76 5211.39Z" fill="#346618"/>
<path d="M920.535 4423.8C920.144 4428.66 916.708 4450.64 917.02 4459.11C917.411 4469.7 920.925 4467.5 923.659 4456.46C926.392 4445.43 930.688 4416.3 929.907 4402.18C929.126 4388.05 922.487 4381.87 922.096 4388.94C921.706 4396 920.925 4418.95 920.535 4423.8Z" fill="#346618"/>
<path d="M1448.35 5167.28C1447.87 5172.19 1443.64 5194.44 1444.02 5203.03C1444.51 5213.75 1448.83 5211.52 1452.2 5200.34C1455.56 5189.17 1460.85 5159.68 1459.89 5145.38C1458.92 5131.08 1450.75 5124.82 1450.27 5131.97C1449.79 5139.12 1448.83 5162.36 1448.35 5167.28Z" fill="#346618"/>
<path d="M1618.08 3793.28C1617.63 3798.19 1613.66 3820.44 1614.02 3829.03C1614.47 3839.75 1618.53 3837.52 1621.68 3826.34C1624.84 3815.17 1629.79 3785.68 1628.89 3771.38C1627.99 3757.08 1620.33 3750.82 1619.88 3757.97C1619.43 3765.12 1618.53 3788.36 1618.08 3793.28Z" fill="#346618"/>
<path d="M465.078 2149.28C464.628 2154.19 460.663 2176.44 461.023 2185.03C461.474 2195.75 465.529 2193.52 468.683 2182.34C471.837 2171.17 476.793 2141.68 475.892 2127.38C474.991 2113.08 467.331 2106.82 466.881 2113.97C466.43 2121.12 465.529 2144.36 465.078 2149.28Z" fill="#346618"/>
<path d="M2574.19 4151.8C2574.61 4156.66 2578.31 4178.64 2577.98 4187.11C2577.56 4197.7 2573.77 4195.5 2570.83 4184.46C2567.89 4173.43 2563.26 4144.3 2564.1 4130.18C2564.94 4116.05 2572.09 4109.87 2572.51 4116.94C2572.93 4124 2573.77 4146.95 2574.19 4151.8Z" fill="#346618"/>
<path d="M2184.19 3294.8C2184.61 3299.66 2188.31 3321.64 2187.98 3330.11C2187.56 3340.7 2183.77 3338.5 2180.83 3327.46C2177.89 3316.43 2173.26 3287.3 2174.1 3273.18C2174.94 3259.05 2182.09 3252.87 2182.51 3259.94C2182.93 3267 2183.77 3289.95 2184.19 3294.8Z" fill="#346618"/>
<path d="M1970.19 2340.8C1970.61 2345.66 1974.31 2367.64 1973.98 2376.11C1973.56 2386.7 1969.77 2384.5 1966.83 2373.46C1963.89 2362.43 1959.26 2333.3 1960.1 2319.18C1960.94 2305.05 1968.09 2298.87 1968.51 2305.94C1968.93 2313 1969.77 2335.95 1970.19 2340.8Z" fill="#346618"/>
<path d="M970.194 937.804C970.614 942.656 974.315 964.637 973.978 973.115C973.558 983.704 969.773 981.499 966.829 970.462C963.885 959.43 959.259 930.299 960.101 916.177C960.942 902.051 968.091 895.872 968.512 902.935C968.932 909.998 969.773 932.946 970.194 937.804Z" fill="#346618"/>
<path d="M1910.19 1841.8C1910.61 1846.66 1914.31 1868.64 1913.98 1877.11C1913.56 1887.7 1909.77 1885.5 1906.83 1874.46C1903.89 1863.43 1899.26 1834.3 1900.1 1820.18C1900.94 1806.05 1908.09 1799.87 1908.51 1806.94C1908.93 1814 1909.77 1836.95 1910.19 1841.8Z" fill="#346618"/>
<path d="M299.194 682.804C299.614 687.656 303.315 709.637 302.978 718.115C302.558 728.704 298.773 726.499 295.829 715.462C292.885 704.43 288.259 675.299 289.101 661.177C289.942 647.051 297.091 640.872 297.512 647.935C297.932 654.998 298.773 677.946 299.194 682.804Z" fill="#346618"/>
<path d="M133.194 1574.8C133.614 1579.66 137.315 1601.64 136.978 1610.11C136.558 1620.7 132.773 1618.5 129.829 1607.46C126.885 1596.43 122.259 1567.3 123.101 1553.18C123.942 1539.05 131.091 1532.87 131.512 1539.94C131.932 1547 132.773 1569.95 133.194 1574.8Z" fill="#346618"/>
<path d="M2739.81 2914.8C2739.39 2919.66 2735.69 2941.64 2736.02 2950.11C2736.44 2960.7 2740.23 2958.5 2743.17 2947.46C2746.11 2936.43 2750.74 2907.3 2749.9 2893.18C2749.06 2879.05 2741.91 2872.87 2741.49 2879.94C2741.07 2887 2740.23 2909.95 2739.81 2914.8Z" fill="#346618"/>
<path d="M2328.92 5207.8C2329.37 5212.66 2333.34 5234.64 2332.98 5243.11C2332.53 5253.7 2328.47 5251.5 2325.32 5240.46C2322.16 5229.43 2317.21 5200.3 2318.11 5186.18C2319.01 5172.05 2326.67 5165.87 2327.12 5172.94C2327.57 5180 2328.47 5202.95 2328.92 5207.8Z" fill="#346618"/>
<path d="M2902.92 3615.28C2903.37 3620.19 2907.34 3642.44 2906.98 3651.03C2906.53 3661.75 2902.47 3659.52 2899.32 3648.34C2896.16 3637.17 2891.21 3607.68 2892.11 3593.38C2893.01 3579.08 2900.67 3572.82 2901.12 3579.97C2901.57 3587.12 2902.47 3610.36 2902.92 3615.28Z" fill="#346618"/>
<path d="M1818.81 4181.75C1818.39 4186.72 1814.69 4209.25 1815.02 4217.94C1815.44 4228.8 1819.23 4226.54 1822.17 4215.22C1825.11 4203.92 1829.74 4174.06 1828.9 4159.58C1828.06 4145.1 1820.91 4138.77 1820.49 4146.01C1820.07 4153.25 1819.23 4176.77 1818.81 4181.75Z" fill="#346618"/>
<path d="M1632.19 4475.75C1632.61 4480.72 1636.31 4503.25 1635.98 4511.94C1635.56 4522.8 1631.77 4520.54 1628.83 4509.22C1625.89 4497.92 1621.26 4468.06 1622.1 4453.58C1622.94 4439.1 1630.09 4432.77 1630.51 4440.01C1630.93 4447.25 1631.77 4470.77 1632.19 4475.75Z" fill="#346618"/>
<path d="M670.194 5214.8C670.614 5219.66 674.315 5241.64 673.978 5250.11C673.558 5260.7 669.773 5258.5 666.829 5247.46C663.885 5236.43 659.259 5207.3 660.101 5193.18C660.942 5179.05 668.091 5172.87 668.512 5179.94C668.932 5187 669.773 5209.95 670.194 5214.8Z" fill="#346618"/>
<path d="M156.076 4575.63C156.223 4584.17 156.076 4602.43 154.329 4607.11C152.146 4612.95 149.963 4614.75 148.216 4605.76C146.47 4596.76 146.033 4570.68 146.033 4562.14C146.033 4553.59 145.329 4539.11 150.4 4545.5C154.329 4550.45 156.076 4564.71 156.076 4575.63Z" fill="#346618"/>
<path d="M192.316 4561.24C191.006 4569.33 184.893 4593.17 183.147 4599.01C179.517 4611.16 174.414 4608.91 177.034 4591.37C179.801 4575.63 185.854 4542.62 187.95 4536.5C190.569 4528.86 191.879 4527.06 194.936 4528.41C197.992 4529.76 193.626 4553.14 192.316 4561.24Z" fill="#346618"/>
</g>
<defs>
<clipPath id="clip0_4437_2702">
<rect width="2979" height="5316" fill="white"/>
</clipPath>
</defs>
</svg>
