<svg width="135" height="88" viewBox="0 0 135 88" fill="none" xmlns="http://www.w3.org/2000/svg">
<path d="M131.554 23.5307C131.554 23.5307 140.581 45.759 86.4312 70.5525C86.4312 70.5525 41.8687 89.3439 33.129 82.1752C24.3893 75.0065 25.7061 69.2699 25.7061 69.2699C25.7061 69.2699 4.88289 68.0122 2.79766 59.0544C0.712425 50.0967 8.50504 34.2733 51.1318 13.5435C51.1318 13.5435 100.405 -9.2618 122.836 11.908C130.728 19.3797 131.559 23.5307 131.559 23.5307H131.554Z" fill="#1A6727"/>
<path d="M40.9148 83.6747C40.9148 83.6747 83.1013 73.7913 82.3785 53.7921C81.6557 33.7928 63.0465 38.0226 57.3973 40.6834C51.7481 43.3441 44.429 49.9815 43.727 45.4155C43.025 40.8494 51.5487 38.2343 48.9484 32.6928C46.3481 27.1513 41.7788 21.34 36.7942 22.5853C31.8096 23.8306 6.11806 38.4419 4.63513 50.2306C3.15221 62.0192 3.87498 66.1162 25.1136 69.0509C26.8291 71.9815 28.4201 83.7494 40.9148 83.6789V83.6747Z" fill="#267E36"/>
<path fill-rule="evenodd" clip-rule="evenodd" d="M25.4271 41.8696C26.1552 42.4278 26.2925 43.4701 25.7338 44.1976C24.2552 46.1233 21.8776 49.5381 20.7897 52.5571C20.235 54.0965 20.1269 55.2377 20.3424 55.9571C20.4947 56.4654 20.8847 57.0429 22.344 57.3108C25.3868 57.8693 27.528 56.5052 29.0309 54.4015C30.591 52.2176 31.2944 49.4197 31.2944 47.8068C31.2944 46.8898 32.0383 46.1464 32.956 46.1464C33.8736 46.1464 34.6175 46.8898 34.6175 47.8068C34.6175 50.0917 33.7092 53.568 31.7355 56.3309C29.7044 59.1741 26.3896 61.4297 21.7436 60.5769C19.3585 60.1391 17.7495 58.8803 17.159 56.9096C16.6318 55.1499 17.0372 53.1693 17.6632 51.4321C18.9367 47.8978 21.5895 44.1398 23.0975 42.176C23.6561 41.4485 24.6991 41.3113 25.4271 41.8696Z" fill="#175920"/>
<path fill-rule="evenodd" clip-rule="evenodd" d="M49.3011 50.2745C49.9051 50.9648 49.8347 52.0138 49.1439 52.6174C48.1745 53.4644 46.8359 55.3915 46.3355 57.5116C45.8578 59.5358 46.1694 61.5051 48.0848 63.0208C48.9939 63.7395 49.4626 63.6284 49.7511 63.4969C50.2395 63.2743 50.8605 62.6443 51.5137 61.4669C52.7893 59.1675 53.62 55.8382 54.0138 53.8581C54.1927 52.9587 55.0674 52.3745 55.9674 52.5532C56.8674 52.732 57.452 53.606 57.2731 54.5055C56.8695 56.5351 55.9618 60.2978 54.42 63.077C53.6645 64.439 52.6071 65.845 51.1301 66.5182C49.4532 67.2826 47.6696 66.9271 46.0224 65.6246L46.0219 65.6242C42.8281 63.0969 42.4148 59.6575 43.1012 56.7494C43.7649 53.9371 45.4794 51.4082 46.9566 50.1175C47.6474 49.5139 48.6971 49.5842 49.3011 50.2745Z" fill="#175920"/>
<path fill-rule="evenodd" clip-rule="evenodd" d="M133.494 22.0097C133.493 22.0067 133.492 22.0008 133.49 21.9919C133.451 21.8245 133.141 20.6158 131.791 18.4681C130.475 16.375 128.173 13.3902 124.172 9.60802C100.2 -12.9851 51.9813 11.3534 51.9813 11.3534C6.42595 33.477 -1.90204 50.3642 0.326455 59.9242C1.99537 67.0837 14.8955 69.6343 21.2688 70.4638C23.4057 70.7419 24.8088 70.8265 24.8088 70.8265C24.8088 70.8265 24.7124 71.246 24.7375 72.0025C24.8085 74.1363 25.8464 78.9514 32.7417 84.5994C42.0818 92.2501 89.7059 72.1954 89.7059 72.1954C134.198 51.8518 136.157 33.1265 134.685 25.5561C134.263 23.3819 133.557 22.1278 133.494 22.0197C133.492 22.0162 133.491 22.014 133.49 22.0129C133.49 22.0124 133.49 22.0121 133.49 22.0121H133.494C133.494 22.0121 133.494 22.0113 133.494 22.0097ZM127.477 18.4681C126.23 16.8131 124.401 14.7062 121.731 12.1823C111.119 2.18245 94.6942 2.25399 79.8406 5.47167C72.5568 7.04954 65.9706 9.31803 61.1943 11.2C58.8111 12.139 56.8907 12.9769 55.5737 13.5763C54.9154 13.8759 54.4087 14.1155 54.0711 14.278C53.9023 14.3592 53.7759 14.421 53.694 14.4614C53.653 14.4816 53.6232 14.4965 53.6048 14.5056L53.5859 14.5151L53.583 14.5166L53.5599 14.5282L53.5353 14.5402C30.9411 25.5129 17.9217 35.0308 10.8557 42.7418C3.79954 50.4421 3.0351 55.9022 3.78548 59.1212C4.03703 60.2004 4.94048 61.4094 6.95007 62.6406C8.92838 63.8526 11.5428 64.8088 14.3051 65.5325C17.034 66.2475 19.727 66.6899 21.7547 66.953C22.7633 67.0838 23.5949 67.1688 24.1685 67.2206C24.455 67.2465 24.6763 67.264 24.8223 67.2749C24.8953 67.2803 24.9494 67.2841 24.9833 67.2863L25.0188 67.2887L25.0231 67.2889L25.0243 67.289L25.0249 67.2891C25.0253 67.2891 25.0252 67.2891 25.0249 67.2891L29.2075 67.5413L28.2944 71.5139C28.2897 71.5644 28.2823 71.6718 28.2855 71.8312C28.2929 72.1954 28.3557 72.8507 28.6479 73.7415C29.2228 75.4944 30.766 78.3961 34.9949 81.8601C35.3453 82.1471 36.2575 82.5715 38.1679 82.7314C40.0003 82.8848 42.3392 82.7621 45.0921 82.3789C50.588 81.6139 57.2032 79.8898 63.6717 77.8823C70.1124 75.8834 76.2816 73.6437 80.8495 71.8994C83.1307 71.0283 85.0062 70.2833 86.3087 69.7571C86.9598 69.4941 87.4674 69.2859 87.8106 69.1441C87.9821 69.0733 88.1125 69.0191 88.1992 68.9829L88.2779 68.95C116.817 55.8917 126.785 43.8707 130.003 35.862C131.603 31.8792 131.603 28.7377 131.279 26.6837C131.114 25.6433 130.863 24.858 130.671 24.3644C130.575 24.1178 130.495 23.9454 130.449 23.8522C130.432 23.819 130.42 23.796 130.414 23.7834L127.258 18.4681H127.477Z" fill="#175920"/>
</svg>
