<svg width="2987" height="2424" viewBox="0 0 2987 2424" fill="none" xmlns="http://www.w3.org/2000/svg">
<g clip-path="url(#clip0_4441_3306)">
<path d="M454.5 574.5C310.5 240 76.1667 174.999 -5 196.499V1094.5H866C810.333 1040 596.612 904.614 454.5 574.5Z" stroke="#437724" stroke-width="6"/>
<path d="M454.5 574.5C310.5 240 76.1667 174.999 -5 196.499V1094.5H866C810.333 1040 596.612 904.614 454.5 574.5Z" fill="#89C049"/>
<path d="M454.5 574.5C310.5 240 76.1667 174.999 -5 196.499V1094.5H866C810.333 1040 596.612 904.614 454.5 574.5Z" stroke="#437724" stroke-width="6"/>
<path d="M183.5 638.5C137.9 616.5 40.8333 610 -2 609.5V907.5H662C634.833 897.333 564.4 871.7 500 850.5C419.5 824 394.5 807.5 341.5 745.5C299.1 695.9 218.5 653.5 183.5 638.5Z" fill="#76A841"/>
<path d="M2468.5 574.5C2612.5 240 2916.83 174.999 2998 196.499V1094.5H2127C2182.67 1040 2326.39 904.614 2468.5 574.5Z" fill="#89C049" stroke="#437724" stroke-width="6"/>
<path d="M2865 492.5C2912.2 449.7 2972.33 416.833 2998 407V773.5H2582C2606.67 745.5 2669.5 679.8 2723.5 641C2791 592.5 2806 546 2865 492.5Z" fill="#76A841"/>
<path d="M885.5 982.5C496.5 818 5 857.999 5 857.999V2433.5H2997V671C2997 671 2526 682.499 2288.25 920.249C2050.5 1158 1731 1169.5 1571.5 1169.5C1412 1169.5 1274.5 1147 885.5 982.5Z" fill="#A3D441" stroke="#437724" stroke-width="6"/>
<path d="M696.5 922C625.7 889.6 290.5 844 121 853.5L370 1455C497.167 1455 933.5 1687.5 1003.5 1687.5C973.9 1661.5 680 1281 630 1145C638.667 1142.17 660.8 1134.8 680 1128C704 1119.5 696.5 1100 685.5 1086C676.7 1074.8 619.5 1070.67 592 1070C596.5 960 631.5 946.5 696.5 922Z" fill="#8BB435"/>
<path d="M2996.5 1401H2227C2227 1401 2342 1181.5 2342 1044.5C2342 907.5 2278.5 930.5 2278.5 930.5C2439.5 753 2745.5 696.667 2838.5 687.5L2996.5 671.5V1401Z" fill="#8BB435"/>
<path d="M2468 1084.71C2664.5 724.214 2925.17 676.046 2998 697.213L2991 2434.5L1244.5 2433C1244.5 2304 1241.5 2028.5 1241.5 1932.5C1277.5 1860.5 1589.17 1728.65 1740.5 1671.73C2044.83 1586.07 2314.16 1366.96 2468 1084.71Z" fill="#5DA235" stroke="#437724" stroke-width="6"/>
<path d="M885.5 982.5C496.5 818 5 857.999 5 857.999V2432H2997V671C2997 671 2526 682.499 2288.25 920.249C2050.5 1158 1731 1169.5 1571.5 1169.5C1412 1169.5 1274.5 1147 885.5 982.5Z" stroke="#437724" stroke-width="6"/>
<path d="M525 1174.71C328.5 814.213 67.8333 826.046 -5 847.213V1821.73V2578H2024.5C2024.5 2330 1603.5 1846.96 1312.5 1741.73C1021.5 1636.5 678.844 1456.96 525 1174.71Z" fill="#5DA235" stroke="#437724" stroke-width="6"/>
<path d="M605.418 1557.96C606.433 1561.31 608.791 1582.53 609.843 1592.73C610.643 1604.58 611.712 1627.84 609.597 1626.03C606.952 1623.76 603.583 1605.38 601.517 1589.25C599.45 1573.12 601.073 1557.05 601.423 1556.22C601.773 1555.39 604.149 1553.77 605.418 1557.96ZM629.485 1589.82C631.051 1587.59 630.138 1570.31 629.485 1561.95C629.039 1555.26 628.367 1533.24 624.175 1533.52C619.982 1533.8 619.982 1546.34 621.659 1565.85C623.331 1585.3 627.529 1592.61 629.485 1589.82ZM658.276 1578.11C657.437 1583.97 655.481 1605.43 659.115 1601.8C661.969 1598.96 667.392 1574.56 669.881 1562.07C670.534 1558.85 670.854 1556.65 670.016 1552.19C669.177 1547.74 666.382 1552.75 664.146 1556.65C661.91 1560.56 659.115 1572.26 658.276 1578.11ZM75.3325 1299.03C76.4506 1296.13 76.5436 1284.81 76.4506 1279.52C76.4506 1272.75 75.3325 1263.91 72.8169 1260.84C69.5678 1256.88 70.0216 1265.86 70.0216 1271.16C70.0216 1276.45 70.3012 1292.62 71.4193 1298.19C72.5373 1303.76 73.9349 1302.65 75.3325 1299.03ZM93.7802 1294.01C94.8983 1290.39 98.8116 1275.62 99.6501 1270.6C100.489 1265.58 103.284 1251.09 101.327 1250.25C99.3706 1249.42 98.5321 1250.53 96.8549 1255.27C95.5132 1259.06 91.6377 1279.52 89.8669 1289.27C88.1898 1300.14 91.4588 1301.53 93.7802 1294.01ZM343.556 1425.47C342.438 1422.57 342.344 1411.25 342.438 1405.96C342.438 1399.19 343.556 1390.35 346.072 1387.29C349.321 1383.33 348.867 1392.3 348.867 1397.6C348.867 1402.89 348.588 1419.06 347.47 1424.63C346.352 1430.2 344.954 1429.09 343.556 1425.47ZM325.108 1420.45C323.99 1416.83 320.077 1402.06 319.238 1397.04C318.399 1392.02 315.604 1377.53 317.561 1376.7C319.518 1375.86 320.356 1376.97 322.033 1381.71C323.375 1385.5 327.25 1405.96 329.021 1415.71C330.698 1426.58 327.431 1427.98 325.108 1420.45Z" fill="#346618"/>
<path d="M1488.56 2045.03C1487.44 2042.13 1487.35 2030.81 1487.44 2025.52C1487.44 2018.75 1488.56 2009.91 1491.07 2006.84C1494.32 2002.88 1493.87 2011.86 1493.87 2017.16C1493.87 2022.45 1493.59 2038.62 1492.47 2044.19C1491.35 2049.76 1489.95 2048.65 1488.56 2045.03ZM1470.11 2040.01C1468.99 2036.39 1465.08 2021.62 1464.24 2016.6C1463.4 2011.58 1460.6 1997.09 1462.56 1996.25C1464.52 1995.42 1465.36 1996.53 1467.03 2001.27C1468.38 2005.06 1472.25 2025.52 1474.02 2035.27C1475.7 2046.14 1472.43 2047.53 1470.11 2040.01ZM1220.33 2171.47C1221.45 2168.57 1221.54 2157.25 1221.45 2151.96C1221.45 2145.19 1220.33 2136.35 1217.82 2133.29C1214.57 2129.33 1215.02 2138.3 1215.02 2143.6C1215.02 2148.89 1215.3 2165.06 1216.42 2170.63C1217.54 2176.2 1218.93 2175.09 1220.33 2171.47ZM1238.78 2166.45C1239.9 2162.83 1243.81 2148.06 1244.65 2143.04C1245.49 2138.02 1248.28 2123.53 1246.33 2122.7C1244.37 2121.86 1243.53 2122.97 1241.86 2127.71C1240.51 2131.5 1236.64 2151.96 1234.87 2161.71C1233.19 2172.58 1236.46 2173.98 1238.78 2166.45Z" fill="#346618"/>
<path d="M926.678 2295.2C927.73 2285.01 930.088 2263.79 931.103 2260.44C932.372 2256.25 934.749 2257.87 935.099 2258.7C935.449 2259.53 937.072 2275.6 935.005 2291.73C932.939 2307.86 929.569 2326.24 926.924 2328.51C924.809 2330.32 925.879 2307.06 926.678 2295.2Z" fill="#346618"/>
<path d="M907.036 2264.43C906.384 2272.79 905.471 2290.07 907.036 2292.3C908.993 2295.09 913.19 2287.78 914.863 2268.33C916.54 2248.82 916.54 2236.28 912.347 2236C908.154 2235.72 907.482 2257.74 907.036 2264.43Z" fill="#346618"/>
<path d="M877.407 2304.28C881.041 2307.9 879.084 2286.45 878.246 2280.59C877.407 2274.74 874.612 2263.04 872.376 2259.13C870.139 2255.23 867.344 2250.22 866.506 2254.67C865.667 2259.13 865.987 2261.33 866.64 2264.55C869.13 2277.04 874.552 2301.44 877.407 2304.28Z" fill="#346618"/>
<path d="M476.53 1732.87C476.251 1735.93 473.791 1749.81 474.014 1755.17C474.294 1761.85 476.81 1760.46 478.766 1753.49C480.723 1746.52 483.798 1728.13 483.239 1719.21C482.68 1710.3 477.928 1706.39 477.648 1710.85C477.369 1715.31 476.81 1729.8 476.53 1732.87Z" fill="#346618"/>
<path d="M402.53 1201.87C402.251 1204.93 399.791 1218.81 400.014 1224.17C400.294 1230.85 402.81 1229.46 404.766 1222.49C406.723 1215.52 409.798 1197.13 409.239 1188.21C408.68 1179.3 403.928 1175.39 403.648 1179.85C403.369 1184.31 402.81 1198.8 402.53 1201.87Z" fill="#346618"/>
<path d="M175.53 502.869C175.251 505.933 172.791 519.812 173.014 525.166C173.294 531.852 175.81 530.456 177.766 523.494C179.723 516.525 182.798 498.13 182.239 489.213C181.68 480.296 176.928 476.395 176.648 480.851C176.369 485.311 175.81 499.805 175.53 502.869Z" fill="#346618"/>
<path d="M1291.28 1580.9C1291.37 1586.2 1291.28 1597.51 1290.16 1600.41C1288.76 1604.03 1287.37 1605.15 1286.25 1599.57C1285.13 1594 1284.85 1577.84 1284.85 1572.54C1284.85 1567.25 1284.4 1558.27 1287.64 1562.23C1290.16 1565.3 1291.28 1574.14 1291.28 1580.9Z" fill="#346618"/>
<path d="M1314.48 1571.98C1313.64 1577 1309.73 1591.77 1308.61 1595.4C1306.29 1602.92 1303.02 1601.52 1304.7 1590.66C1306.47 1580.9 1310.34 1560.45 1311.68 1556.66C1313.36 1551.92 1314.2 1550.8 1316.16 1551.64C1318.11 1552.47 1315.32 1566.97 1314.48 1571.98Z" fill="#346618"/>
<path d="M1082.56 1791.52C1082.47 1796.81 1082.56 1808.13 1083.68 1811.03C1085.08 1814.65 1086.47 1815.77 1087.59 1810.19C1088.71 1804.61 1088.99 1788.45 1088.99 1783.16C1088.99 1777.86 1089.44 1768.89 1086.19 1772.84C1083.68 1775.91 1082.56 1784.75 1082.56 1791.52Z" fill="#346618"/>
<path d="M1059.36 1782.6C1060.2 1787.62 1064.11 1802.38 1065.23 1806.01C1067.55 1813.54 1070.82 1812.14 1069.14 1801.27C1067.37 1791.52 1063.5 1771.06 1062.15 1767.27C1060.48 1762.53 1059.64 1761.42 1057.68 1762.25C1055.73 1763.09 1058.52 1777.58 1059.36 1782.6Z" fill="#346618"/>
<path d="M1098.56 1221.52C1098.47 1226.81 1098.56 1238.13 1099.68 1241.03C1101.08 1244.65 1102.47 1245.77 1103.59 1240.19C1104.71 1234.61 1104.99 1218.45 1104.99 1213.16C1104.99 1207.86 1105.44 1198.89 1102.19 1202.84C1099.68 1205.91 1098.56 1214.75 1098.56 1221.52Z" fill="#346618"/>
<path d="M1075.36 1212.6C1076.2 1217.62 1080.11 1232.38 1081.23 1236.01C1083.55 1243.54 1086.82 1242.14 1085.14 1231.27C1083.37 1221.52 1079.5 1201.06 1078.15 1197.27C1076.48 1192.53 1075.64 1191.42 1073.68 1192.25C1071.73 1193.09 1074.52 1207.58 1075.36 1212.6Z" fill="#346618"/>
<path d="M603.559 1959.52C603.465 1964.81 603.559 1976.13 604.678 1979.03C606.075 1982.65 607.473 1983.77 608.591 1978.19C609.709 1972.61 609.988 1956.45 609.988 1951.16C609.988 1945.86 610.439 1936.89 607.193 1940.84C604.678 1943.91 603.559 1952.75 603.559 1959.52Z" fill="#346618"/>
<path d="M580.359 1950.6C581.198 1955.62 585.111 1970.38 586.229 1974.01C588.553 1981.54 591.82 1980.14 590.143 1969.27C588.371 1959.52 584.496 1939.06 583.154 1935.27C581.477 1930.53 580.639 1929.42 578.682 1930.25C576.725 1931.09 579.521 1945.58 580.359 1950.6Z" fill="#346618"/>
<path d="M1917.56 1264.52C1917.47 1269.81 1917.56 1281.13 1918.68 1284.03C1920.08 1287.65 1921.47 1288.77 1922.59 1283.19C1923.71 1277.61 1923.99 1261.45 1923.99 1256.16C1923.99 1250.86 1924.44 1241.89 1921.19 1245.84C1918.68 1248.91 1917.56 1257.75 1917.56 1264.52Z" fill="#346618"/>
<path d="M1894.36 1255.6C1895.2 1260.62 1899.11 1275.38 1900.23 1279.01C1902.55 1286.54 1905.82 1285.14 1904.14 1274.27C1902.37 1264.52 1898.5 1244.06 1897.15 1240.27C1895.48 1235.53 1894.64 1234.42 1892.68 1235.25C1890.73 1236.09 1893.52 1250.58 1894.36 1255.6Z" fill="#346618"/>
<path d="M2050.56 1712.52C2050.47 1717.81 2050.56 1729.13 2051.68 1732.03C2053.08 1735.65 2054.47 1736.77 2055.59 1731.19C2056.71 1725.61 2056.99 1709.45 2056.99 1704.16C2056.99 1698.86 2057.44 1689.89 2054.19 1693.84C2051.68 1696.91 2050.56 1705.75 2050.56 1712.52Z" fill="#346618"/>
<path d="M2027.36 1703.6C2028.2 1708.62 2032.11 1723.38 2033.23 1727.01C2035.55 1734.54 2038.82 1733.14 2037.14 1722.27C2035.37 1712.52 2031.5 1692.06 2030.15 1688.27C2028.48 1683.53 2027.64 1682.42 2025.68 1683.25C2023.73 1684.09 2026.52 1698.58 2027.36 1703.6Z" fill="#346618"/>
<path d="M2811.56 1887.52C2811.47 1892.81 2811.56 1904.13 2812.68 1907.03C2814.08 1910.65 2815.47 1911.77 2816.59 1906.19C2817.71 1900.61 2817.99 1884.45 2817.99 1879.16C2817.99 1873.86 2818.44 1864.89 2815.19 1868.84C2812.68 1871.91 2811.56 1880.75 2811.56 1887.52Z" fill="#346618"/>
<path d="M2788.36 1878.6C2789.2 1883.62 2793.11 1898.38 2794.23 1902.01C2796.55 1909.54 2799.82 1908.14 2798.14 1897.27C2796.37 1887.52 2792.5 1867.06 2791.15 1863.27C2789.48 1858.53 2788.64 1857.42 2786.68 1858.25C2784.73 1859.09 2787.52 1873.58 2788.36 1878.6Z" fill="#346618"/>
<path d="M2676.56 1510.52C2676.47 1515.81 2676.56 1527.13 2677.68 1530.03C2679.08 1533.65 2680.47 1534.77 2681.59 1529.19C2682.71 1523.61 2682.99 1507.45 2682.99 1502.16C2682.99 1496.86 2683.44 1487.89 2680.19 1491.84C2677.68 1494.91 2676.56 1503.75 2676.56 1510.52Z" fill="#346618"/>
<path d="M2653.36 1501.6C2654.2 1506.62 2658.11 1521.38 2659.23 1525.01C2661.55 1532.54 2664.82 1531.14 2663.14 1520.27C2661.37 1510.52 2657.5 1490.06 2656.15 1486.27C2654.48 1481.53 2653.64 1480.42 2651.68 1481.25C2649.73 1482.09 2652.52 1496.58 2653.36 1501.6Z" fill="#346618"/>
<path d="M1999.45 2202.52C1999.54 2207.81 1999.45 2219.13 1998.33 2222.03C1996.93 2225.65 1995.54 2226.77 1994.42 2221.19C1993.3 2215.61 1993.02 2199.45 1993.02 2194.16C1993.02 2188.86 1992.57 2179.89 1995.82 2183.84C1998.33 2186.91 1999.45 2195.75 1999.45 2202.52Z" fill="#346618"/>
<path d="M2022.65 2193.6C2021.81 2198.62 2017.9 2213.38 2016.78 2217.01C2014.46 2224.54 2011.19 2223.14 2012.87 2212.27C2014.64 2202.52 2018.51 2182.06 2019.86 2178.27C2021.53 2173.53 2022.37 2172.42 2024.33 2173.25C2026.28 2174.09 2023.49 2188.58 2022.65 2193.6Z" fill="#346618"/>
<path d="M2904.56 320.517C2904.47 325.812 2904.56 337.126 2905.68 340.026C2907.08 343.648 2908.47 344.765 2909.59 339.188C2910.71 333.615 2910.99 317.45 2910.99 312.156C2910.99 306.862 2911.44 297.886 2908.19 301.843C2905.68 304.911 2904.56 313.751 2904.56 320.517Z" fill="#346618"/>
<path d="M2881.36 311.597C2882.2 316.616 2886.11 331.385 2887.23 335.011C2889.55 342.535 2892.82 341.139 2891.14 330.272C2889.37 320.517 2885.5 300.06 2884.15 296.27C2882.48 291.534 2881.64 290.417 2879.68 291.255C2877.73 292.089 2880.52 306.582 2881.36 311.597Z" fill="#346618"/>
<path d="M2506.56 891.517C2506.47 896.812 2506.56 908.126 2507.68 911.026C2509.08 914.648 2510.47 915.765 2511.59 910.188C2512.71 904.615 2512.99 888.45 2512.99 883.156C2512.99 877.862 2513.44 868.886 2510.19 872.843C2507.68 875.911 2506.56 884.751 2506.56 891.517Z" fill="#346618"/>
<path d="M2483.36 882.597C2484.2 887.616 2488.11 902.385 2489.23 906.011C2491.55 913.535 2494.82 912.139 2493.14 901.272C2491.37 891.517 2487.5 871.06 2486.15 867.27C2484.48 862.534 2483.64 861.417 2481.68 862.255C2479.73 863.089 2482.52 877.582 2483.36 882.597Z" fill="#346618"/>
<path d="M2920.56 943.517C2920.47 948.812 2920.56 960.126 2921.68 963.026C2923.08 966.648 2924.47 967.765 2925.59 962.188C2926.71 956.615 2926.99 940.45 2926.99 935.156C2926.99 929.862 2927.44 920.886 2924.19 924.843C2921.68 927.911 2920.56 936.751 2920.56 943.517Z" fill="#346618"/>
<path d="M2897.36 934.597C2898.2 939.616 2902.11 954.385 2903.23 958.011C2905.55 965.535 2908.82 964.139 2907.14 953.272C2905.37 943.517 2901.5 923.06 2900.15 919.27C2898.48 914.534 2897.64 913.417 2895.68 914.255C2893.73 915.089 2896.52 929.582 2897.36 934.597Z" fill="#346618"/>
<path d="M813.45 1279.52C813.545 1284.81 813.45 1296.13 812.332 1299.03C810.935 1302.65 809.537 1303.77 808.419 1298.19C807.301 1292.61 807.021 1276.45 807.021 1271.16C807.021 1265.86 806.571 1256.89 809.816 1260.84C812.332 1263.91 813.45 1272.75 813.45 1279.52Z" fill="#346618"/>
<path d="M836.651 1270.6C835.812 1275.62 831.899 1290.38 830.781 1294.01C828.457 1301.54 825.19 1300.14 826.867 1289.27C828.639 1279.52 832.514 1259.06 833.855 1255.27C835.532 1250.53 836.371 1249.42 838.328 1250.25C840.284 1251.09 837.489 1265.58 836.651 1270.6Z" fill="#346618"/>
<path d="M716.45 2156.52C716.545 2161.81 716.45 2173.13 715.332 2176.03C713.935 2179.65 712.537 2180.77 711.419 2175.19C710.301 2169.61 710.021 2153.45 710.021 2148.16C710.021 2142.86 709.571 2133.89 712.816 2137.84C715.332 2140.91 716.45 2149.75 716.45 2156.52Z" fill="#346618"/>
<path d="M739.651 2147.6C738.812 2152.62 734.899 2167.38 733.781 2171.01C731.457 2178.54 728.19 2177.14 729.867 2166.27C731.639 2156.52 735.514 2136.06 736.855 2132.27C738.532 2127.53 739.371 2126.42 741.328 2127.25C743.284 2128.09 740.489 2142.58 739.651 2147.6Z" fill="#346618"/>
<path d="M802.45 1737.52C802.545 1742.81 802.45 1754.13 801.332 1757.03C799.935 1760.65 798.537 1761.77 797.419 1756.19C796.301 1750.61 796.021 1734.45 796.021 1729.16C796.021 1723.86 795.571 1714.89 798.816 1718.84C801.332 1721.91 802.45 1730.75 802.45 1737.52Z" fill="#346618"/>
<path d="M825.651 1728.6C824.812 1733.62 820.899 1748.38 819.781 1752.01C817.457 1759.54 814.19 1758.14 815.867 1747.27C817.639 1737.52 821.514 1717.06 822.855 1713.27C824.532 1708.53 825.371 1707.42 827.328 1708.25C829.284 1709.09 826.489 1723.58 825.651 1728.6Z" fill="#346618"/>
<path d="M488.559 762.517C488.465 767.812 488.559 779.126 489.678 782.026C491.075 785.648 492.473 786.765 493.591 781.188C494.709 775.615 494.988 759.45 494.988 754.156C494.988 748.862 495.439 739.886 492.193 743.843C489.678 746.911 488.559 755.751 488.559 762.517Z" fill="#346618"/>
<path d="M465.359 753.597C466.198 758.616 470.111 773.385 471.229 777.011C473.553 784.535 476.82 783.139 475.143 772.272C473.371 762.517 469.496 742.06 468.154 738.27C466.477 733.534 465.639 732.417 463.682 733.255C461.725 734.089 464.521 748.582 465.359 753.597Z" fill="#346618"/>
<path d="M88.4504 346.517C88.5447 351.812 88.4503 363.126 87.3322 366.026C85.9346 369.648 84.537 370.765 83.4189 365.188C82.3008 359.615 82.0213 343.45 82.0213 338.156C82.0213 332.862 81.5705 323.886 84.8165 327.843C87.3322 330.911 88.4504 339.751 88.4504 346.517Z" fill="#346618"/>
<path d="M111.651 337.597C110.812 342.616 106.899 357.385 105.781 361.011C103.457 368.535 100.19 367.139 101.867 356.272C103.639 346.517 107.514 326.06 108.855 322.27C110.532 317.534 111.371 316.417 113.328 317.255C115.284 318.089 112.489 332.582 111.651 337.597Z" fill="#346618"/>
<path d="M137.45 1805.52C137.545 1810.81 137.45 1822.13 136.332 1825.03C134.935 1828.65 133.537 1829.77 132.419 1824.19C131.301 1818.61 131.021 1802.45 131.021 1797.16C131.021 1791.86 130.571 1782.89 133.816 1786.84C136.332 1789.91 137.45 1798.75 137.45 1805.52Z" fill="#346618"/>
<path d="M160.651 1796.6C159.812 1801.62 155.899 1816.38 154.781 1820.01C152.457 1827.54 149.19 1826.14 150.867 1815.27C152.639 1805.52 156.514 1785.06 157.855 1781.27C159.532 1776.53 160.371 1775.42 162.328 1776.25C164.284 1777.09 161.489 1791.58 160.651 1796.6Z" fill="#346618"/>
<path d="M1786.56 2332.52C1786.47 2337.81 1786.56 2349.13 1787.68 2352.03C1789.08 2355.65 1790.47 2356.77 1791.59 2351.19C1792.71 2345.61 1792.99 2329.45 1792.99 2324.16C1792.99 2318.86 1793.44 2309.89 1790.19 2313.84C1787.68 2316.91 1786.56 2325.75 1786.56 2332.52Z" fill="#346618"/>
<path d="M1763.36 2323.6C1764.2 2328.62 1768.11 2343.38 1769.23 2347.01C1771.55 2354.54 1774.82 2353.14 1773.14 2342.27C1771.37 2332.52 1767.5 2312.06 1766.15 2308.27C1764.48 2303.53 1763.64 2302.42 1761.68 2303.25C1759.73 2304.09 1762.52 2318.58 1763.36 2323.6Z" fill="#346618"/>
<path d="M1384.75 1309.04C1383.7 1298.85 1381.34 1277.62 1380.32 1274.27C1379.06 1270.09 1376.68 1271.71 1376.33 1272.54C1375.98 1273.37 1374.36 1289.43 1376.42 1305.57C1378.49 1321.7 1381.86 1340.08 1384.51 1342.34C1386.62 1344.16 1385.55 1320.9 1384.75 1309.04Z" fill="#346618"/>
<path d="M1404.39 1278.27C1405.04 1286.63 1405.96 1303.91 1404.39 1306.14C1402.43 1308.92 1398.23 1301.61 1396.56 1282.17C1394.89 1262.66 1394.89 1250.12 1399.08 1249.84C1403.27 1249.56 1403.94 1271.58 1404.39 1278.27Z" fill="#346618"/>
<path d="M1434.02 1318.12C1430.39 1321.74 1432.34 1300.28 1433.18 1294.43C1434.02 1288.58 1436.82 1276.87 1439.05 1272.97C1441.29 1269.07 1444.08 1264.05 1444.92 1268.51C1445.76 1272.97 1445.44 1275.17 1444.79 1278.39C1442.3 1290.88 1436.88 1315.27 1434.02 1318.12Z" fill="#346618"/>
<path d="M191.677 2238.21C192.728 2228.01 195.087 2206.78 196.103 2203.44C197.372 2199.25 199.748 2200.87 200.101 2201.7C200.446 2202.53 202.068 2218.6 200.006 2234.73C197.938 2250.86 194.566 2269.24 191.921 2271.51C189.807 2273.32 190.876 2250.06 191.677 2238.21Z" fill="#346618"/>
<path d="M172.037 2207.43C171.383 2215.79 170.471 2233.07 172.037 2235.3C173.993 2238.09 178.193 2230.78 179.863 2211.33C181.54 2191.82 181.54 2179.28 177.348 2179C173.155 2178.72 172.484 2200.74 172.037 2207.43Z" fill="#346618"/>
<path d="M142.407 2247.28C146.041 2250.91 144.085 2229.45 143.246 2223.59C142.408 2217.74 139.612 2206.04 137.376 2202.13C135.14 2198.23 132.345 2193.22 131.506 2197.67C130.668 2202.13 130.986 2204.33 131.639 2207.55C134.127 2220.04 139.549 2244.44 142.407 2247.28Z" fill="#346618"/>
<path d="M1829.75 1454.37C1828.08 1444.26 1824.76 1423.16 1824.85 1419.66C1824.97 1415.29 1827.69 1416.23 1828.25 1416.94C1828.8 1417.64 1834.6 1432.72 1836.87 1448.82C1839.13 1464.93 1840.72 1483.55 1838.77 1486.43C1837.2 1488.74 1832.1 1466.02 1829.75 1454.37Z" fill="#346618"/>
<path d="M1802.69 1429.86C1804.27 1438.1 1807.94 1455.01 1810.04 1456.75C1812.66 1458.92 1814.79 1450.76 1811.27 1431.56C1807.74 1412.3 1804.44 1400.2 1800.32 1401.04C1796.2 1401.88 1801.36 1423.29 1802.69 1429.86Z" fill="#346618"/>
<path d="M1784.62 1476.12C1789.08 1478.65 1781.53 1458.47 1779.18 1453.04C1776.83 1447.62 1771.05 1437.07 1767.86 1433.89C1764.68 1430.72 1760.66 1426.62 1761.02 1431.14C1761.39 1435.66 1762.28 1437.7 1763.76 1440.63C1769.45 1452.03 1781.11 1474.12 1784.62 1476.12Z" fill="#346618"/>
<path d="M1862.31 1481.58C1864.89 1486.02 1868.55 1464.78 1869.26 1458.91C1869.96 1453.04 1870.29 1441.01 1869.14 1436.66C1867.99 1432.32 1866.59 1426.75 1864.62 1430.84C1862.66 1434.93 1862.4 1437.13 1862.2 1440.41C1861.37 1453.12 1860.29 1478.09 1862.31 1481.58Z" fill="#346618"/>
<path d="M347.751 2035.37C346.077 2025.26 342.756 2004.16 342.854 2000.66C342.974 1996.29 345.694 1997.23 346.252 1997.94C346.804 1998.64 352.604 2013.72 354.869 2029.82C357.128 2045.93 358.72 2064.55 356.766 2067.43C355.205 2069.74 350.104 2047.02 347.751 2035.37Z" fill="#346618"/>
<path d="M320.692 2010.86C322.266 2019.1 325.942 2036.01 328.039 2037.75C330.662 2039.92 332.786 2031.76 329.27 2012.56C325.744 1993.3 322.438 1981.2 318.32 1982.04C314.202 1982.88 319.36 2004.29 320.692 2010.86Z" fill="#346618"/>
<path d="M302.618 2057.12C307.078 2059.65 299.533 2039.47 297.181 2034.04C294.829 2028.62 289.047 2018.07 285.861 2014.89C282.675 2011.72 278.657 2007.62 279.023 2012.14C279.39 2016.66 280.276 2018.7 281.756 2021.63C287.449 2033.03 299.111 2055.12 302.618 2057.12Z" fill="#346618"/>
<path d="M380.314 2062.58C382.886 2067.02 386.551 2045.78 387.255 2039.91C387.96 2034.04 388.29 2022.01 387.139 2017.66C385.989 2013.32 384.588 2007.75 382.624 2011.84C380.66 2015.93 380.398 2018.13 380.195 2021.41C379.365 2034.12 378.29 2059.09 380.314 2062.58Z" fill="#346618"/>
<path d="M2578.14 1202.37C2579.82 1192.26 2583.14 1171.16 2583.04 1167.66C2582.92 1163.29 2580.2 1164.23 2579.64 1164.94C2579.09 1165.64 2573.29 1180.72 2571.03 1196.82C2568.77 1212.93 2567.17 1231.55 2569.13 1234.43C2570.69 1236.74 2575.79 1214.02 2578.14 1202.37Z" fill="#346618"/>
<path d="M2605.2 1177.86C2603.63 1186.1 2599.95 1203.01 2597.86 1204.75C2595.23 1206.92 2593.11 1198.76 2596.62 1179.56C2600.15 1160.3 2603.46 1148.2 2607.57 1149.04C2611.69 1149.88 2606.53 1171.29 2605.2 1177.86Z" fill="#346618"/>
<path d="M2623.28 1224.12C2618.82 1226.65 2626.36 1206.47 2628.71 1201.04C2631.07 1195.62 2636.85 1185.07 2640.03 1181.89C2643.22 1178.72 2647.24 1174.62 2646.87 1179.14C2646.5 1183.66 2645.62 1185.7 2644.14 1188.63C2638.45 1200.03 2626.78 1222.12 2623.28 1224.12Z" fill="#346618"/>
<path d="M2545.58 1229.58C2543.01 1234.02 2539.34 1212.78 2538.64 1206.91C2537.93 1201.04 2537.6 1189.01 2538.76 1184.66C2539.91 1180.32 2541.31 1174.75 2543.27 1178.84C2545.23 1182.93 2545.5 1185.13 2545.7 1188.41C2546.53 1201.12 2547.6 1226.09 2545.58 1229.58Z" fill="#346618"/>
<path d="M2308.36 1596.21C2307.3 1586.01 2304.95 1564.78 2303.93 1561.44C2302.66 1557.25 2300.29 1558.87 2299.93 1559.7C2299.59 1560.53 2297.97 1576.6 2300.03 1592.73C2302.1 1608.86 2305.47 1627.24 2308.11 1629.51C2310.23 1631.32 2309.16 1608.06 2308.36 1596.21Z" fill="#346618"/>
<path d="M2328 1565.43C2328.65 1573.79 2329.56 1591.07 2328 1593.3C2326.04 1596.09 2321.84 1588.78 2320.17 1569.33C2318.49 1549.82 2318.49 1537.28 2322.69 1537C2326.88 1536.72 2327.55 1558.74 2328 1565.43Z" fill="#346618"/>
<path d="M2357.63 1605.28C2353.99 1608.91 2355.95 1587.45 2356.79 1581.59C2357.63 1575.74 2360.42 1564.04 2362.66 1560.13C2364.89 1556.23 2367.69 1551.22 2368.53 1555.67C2369.37 1560.13 2369.05 1562.33 2368.39 1565.55C2365.91 1578.04 2360.48 1602.44 2357.63 1605.28Z" fill="#346618"/>
<path d="M492.357 2316.21C491.305 2306.01 488.947 2284.78 487.93 2281.44C486.661 2277.25 484.286 2278.87 483.933 2279.7C483.587 2280.53 481.966 2296.6 484.027 2312.73C486.095 2328.86 489.467 2347.24 492.112 2349.51C494.226 2351.32 493.157 2328.06 492.357 2316.21Z" fill="#346618"/>
<path d="M511.997 2285.43C512.65 2293.79 513.562 2311.07 511.997 2313.3C510.04 2316.09 505.84 2308.78 504.17 2289.33C502.493 2269.82 502.493 2257.28 506.686 2257C510.878 2256.72 511.549 2278.74 511.997 2285.43Z" fill="#346618"/>
<path d="M541.626 2325.28C537.992 2328.91 539.949 2307.45 540.787 2301.59C541.626 2295.74 544.421 2284.04 546.657 2280.13C548.893 2276.23 551.688 2271.22 552.527 2275.67C553.366 2280.13 553.048 2282.33 552.394 2285.55C549.907 2298.04 544.484 2322.44 541.626 2325.28Z" fill="#346618"/>
<path d="M2771.68 2233.21C2772.73 2223.01 2775.09 2201.78 2776.1 2198.44C2777.37 2194.25 2779.75 2195.87 2780.1 2196.7C2780.45 2197.53 2782.07 2213.6 2780.01 2229.73C2777.94 2245.86 2774.57 2264.24 2771.92 2266.51C2769.81 2268.32 2770.88 2245.06 2771.68 2233.21Z" fill="#346618"/>
<path d="M2752.04 2202.43C2751.38 2210.79 2750.47 2228.07 2752.04 2230.3C2753.99 2233.09 2758.19 2225.78 2759.86 2206.33C2761.54 2186.82 2761.54 2174.28 2757.35 2174C2753.15 2173.72 2752.48 2195.74 2752.04 2202.43Z" fill="#346618"/>
<path d="M2722.41 2242.28C2726.04 2245.91 2724.08 2224.45 2723.25 2218.59C2722.41 2212.74 2719.61 2201.04 2717.38 2197.13C2715.14 2193.23 2712.34 2188.22 2711.51 2192.67C2710.67 2197.13 2710.99 2199.33 2711.64 2202.55C2714.13 2215.04 2719.55 2239.44 2722.41 2242.28Z" fill="#346618"/>
<path d="M964.357 2084.21C963.305 2074.01 960.947 2052.78 959.93 2049.44C958.661 2045.25 956.286 2046.87 955.933 2047.7C955.587 2048.53 953.966 2064.6 956.027 2080.73C958.095 2096.86 961.467 2115.24 964.112 2117.51C966.226 2119.32 965.157 2096.06 964.357 2084.21Z" fill="#346618"/>
<path d="M983.997 2053.43C984.65 2061.79 985.562 2079.07 983.997 2081.3C982.04 2084.09 977.84 2076.78 976.17 2057.33C974.493 2037.82 974.493 2025.28 978.686 2025C982.878 2024.72 983.549 2046.74 983.997 2053.43Z" fill="#346618"/>
<path d="M1013.63 2093.28C1009.99 2096.91 1011.95 2075.45 1012.79 2069.59C1013.63 2063.74 1016.42 2052.04 1018.66 2048.13C1020.89 2044.23 1023.69 2039.22 1024.53 2043.67C1025.37 2048.13 1025.05 2050.33 1024.39 2053.55C1021.91 2066.04 1016.48 2090.44 1013.63 2093.28Z" fill="#346618"/>
<path d="M2829.36 1195.21C2828.3 1185.01 2825.95 1163.78 2824.93 1160.44C2823.66 1156.25 2821.29 1157.87 2820.93 1158.7C2820.59 1159.53 2818.97 1175.6 2821.03 1191.73C2823.1 1207.86 2826.47 1226.24 2829.11 1228.51C2831.23 1230.32 2830.16 1207.06 2829.36 1195.21Z" fill="#346618"/>
<path d="M2849 1164.43C2849.65 1172.79 2850.56 1190.07 2849 1192.3C2847.04 1195.09 2842.84 1187.78 2841.17 1168.33C2839.49 1148.82 2839.49 1136.28 2843.69 1136C2847.88 1135.72 2848.55 1157.74 2849 1164.43Z" fill="#346618"/>
<path d="M2878.63 1204.28C2874.99 1207.91 2876.95 1186.45 2877.79 1180.59C2878.63 1174.74 2881.42 1163.04 2883.66 1159.13C2885.89 1155.23 2888.69 1150.22 2889.53 1154.67C2890.37 1159.13 2890.05 1161.33 2889.39 1164.55C2886.91 1177.04 2881.48 1201.44 2878.63 1204.28Z" fill="#346618"/>
<path d="M339.357 638.205C338.305 628.01 335.947 606.784 334.93 603.436C333.661 599.251 331.286 600.875 330.933 601.701C330.587 602.528 328.966 618.597 331.027 634.73C333.095 650.863 336.467 669.239 339.112 671.505C341.226 673.319 340.157 650.06 339.357 638.205Z" fill="#346618"/>
<path d="M358.997 607.429C359.65 615.791 360.562 633.07 358.997 635.299C357.04 638.086 352.84 630.776 351.17 611.331C349.493 591.822 349.493 579.281 353.686 579.003C357.878 578.724 358.549 600.741 358.997 607.429Z" fill="#346618"/>
<path d="M388.626 647.283C384.992 650.905 386.949 629.446 387.787 623.593C388.626 617.741 391.421 606.036 393.657 602.134C395.893 598.232 398.688 593.216 399.527 597.675C400.366 602.134 400.048 604.332 399.394 607.553C396.907 620.044 391.484 644.437 388.626 647.283Z" fill="#346618"/>
<path d="M181.677 1049.21C182.728 1039.01 185.087 1017.78 186.103 1014.44C187.372 1010.25 189.748 1011.87 190.101 1012.7C190.446 1013.53 192.068 1029.6 190.006 1045.73C187.938 1061.86 184.566 1080.24 181.921 1082.51C179.807 1084.32 180.876 1061.06 181.677 1049.21Z" fill="#346618"/>
<path d="M162.037 1018.43C161.383 1026.79 160.471 1044.07 162.037 1046.3C163.993 1049.09 168.193 1041.78 169.863 1022.33C171.54 1002.82 171.54 990.281 167.348 990.003C163.155 989.724 162.484 1011.74 162.037 1018.43Z" fill="#346618"/>
<path d="M132.407 1058.28C136.041 1061.91 134.085 1040.45 133.246 1034.59C132.408 1028.74 129.612 1017.04 127.376 1013.13C125.14 1009.23 122.345 1004.22 121.506 1008.67C120.668 1013.13 120.986 1015.33 121.639 1018.55C124.127 1031.04 129.549 1055.44 132.407 1058.28Z" fill="#346618"/>
<path d="M1491.68 2295.21C1492.73 2285.01 1495.09 2263.78 1496.1 2260.44C1497.37 2256.25 1499.75 2257.87 1500.1 2258.7C1500.45 2259.53 1502.07 2275.6 1500.01 2291.73C1497.94 2307.86 1494.57 2326.24 1491.92 2328.51C1489.81 2330.32 1490.88 2307.06 1491.68 2295.21Z" fill="#346618"/>
<path d="M1472.04 2264.43C1471.38 2272.79 1470.47 2290.07 1472.04 2292.3C1473.99 2295.09 1478.19 2287.78 1479.86 2268.33C1481.54 2248.82 1481.54 2236.28 1477.35 2236C1473.15 2235.72 1472.48 2257.74 1472.04 2264.43Z" fill="#346618"/>
<path d="M1442.41 2304.28C1446.04 2307.91 1444.08 2286.45 1443.25 2280.59C1442.41 2274.74 1439.61 2263.04 1437.38 2259.13C1435.14 2255.23 1432.34 2250.22 1431.51 2254.67C1430.67 2259.13 1430.99 2261.33 1431.64 2264.55C1434.13 2277.04 1439.55 2301.44 1442.41 2304.28Z" fill="#346618"/>
<path d="M2152.68 1347.21C2153.73 1337.01 2156.09 1315.78 2157.1 1312.44C2158.37 1308.25 2160.75 1309.87 2161.1 1310.7C2161.45 1311.53 2163.07 1327.6 2161.01 1343.73C2158.94 1359.86 2155.57 1378.24 2152.92 1380.51C2150.81 1382.32 2151.88 1359.06 2152.68 1347.21Z" fill="#346618"/>
<path d="M2133.04 1316.43C2132.38 1324.79 2131.47 1342.07 2133.04 1344.3C2134.99 1347.09 2139.19 1339.78 2140.86 1320.33C2142.54 1300.82 2142.54 1288.28 2138.35 1288C2134.15 1287.72 2133.48 1309.74 2133.04 1316.43Z" fill="#346618"/>
<path d="M2103.41 1356.28C2107.04 1359.91 2105.08 1338.45 2104.25 1332.59C2103.41 1326.74 2100.61 1315.04 2098.38 1311.13C2096.14 1307.23 2093.34 1302.22 2092.51 1306.67C2091.67 1311.13 2091.99 1313.33 2092.64 1316.55C2095.13 1329.04 2100.55 1353.44 2103.41 1356.28Z" fill="#346618"/>
<path d="M2869.36 1596.21C2868.3 1586.01 2865.95 1564.78 2864.93 1561.44C2863.66 1557.25 2861.29 1558.87 2860.93 1559.7C2860.59 1560.53 2858.97 1576.6 2861.03 1592.73C2863.1 1608.86 2866.47 1627.24 2869.11 1629.51C2871.23 1631.32 2870.16 1608.06 2869.36 1596.21Z" fill="#346618"/>
<path d="M2889 1565.43C2889.65 1573.79 2890.56 1591.07 2889 1593.3C2887.04 1596.09 2882.84 1588.78 2881.17 1569.33C2879.49 1549.82 2879.49 1537.28 2883.69 1537C2887.88 1536.72 2888.55 1558.74 2889 1565.43Z" fill="#346618"/>
<path d="M2918.63 1605.28C2914.99 1608.91 2916.95 1587.45 2917.79 1581.59C2918.63 1575.74 2921.42 1564.04 2923.66 1560.13C2925.89 1556.23 2928.69 1551.22 2929.53 1555.67C2930.37 1560.13 2930.05 1562.33 2929.39 1565.55C2926.91 1578.04 2921.48 1602.44 2918.63 1605.28Z" fill="#346618"/>
<path d="M2122.36 1969.21C2121.3 1959.01 2118.95 1937.78 2117.93 1934.44C2116.66 1930.25 2114.29 1931.87 2113.93 1932.7C2113.59 1933.53 2111.97 1949.6 2114.03 1965.73C2116.1 1981.86 2119.47 2000.24 2122.11 2002.51C2124.23 2004.32 2123.16 1981.06 2122.36 1969.21Z" fill="#346618"/>
<path d="M2142 1938.43C2142.65 1946.79 2143.56 1964.07 2142 1966.3C2140.04 1969.09 2135.84 1961.78 2134.17 1942.33C2132.49 1922.82 2132.49 1910.28 2136.69 1910C2140.88 1909.72 2141.55 1931.74 2142 1938.43Z" fill="#346618"/>
<path d="M2171.63 1978.28C2167.99 1981.91 2169.95 1960.45 2170.79 1954.59C2171.63 1948.74 2174.42 1937.04 2176.66 1933.13C2178.89 1929.23 2181.69 1924.22 2182.53 1928.67C2183.37 1933.13 2183.05 1935.33 2182.39 1938.55C2179.91 1951.04 2174.48 1975.44 2171.63 1978.28Z" fill="#346618"/>
<path d="M1805.68 1887.21C1806.73 1877.01 1809.09 1855.78 1810.1 1852.44C1811.37 1848.25 1813.75 1849.87 1814.1 1850.7C1814.45 1851.53 1816.07 1867.6 1814.01 1883.73C1811.94 1899.86 1808.57 1918.24 1805.92 1920.51C1803.81 1922.32 1804.88 1899.06 1805.68 1887.21Z" fill="#346618"/>
<path d="M1786.04 1856.43C1785.38 1864.79 1784.47 1882.07 1786.04 1884.3C1787.99 1887.09 1792.19 1879.78 1793.86 1860.33C1795.54 1840.82 1795.54 1828.28 1791.35 1828C1787.15 1827.72 1786.48 1849.74 1786.04 1856.43Z" fill="#346618"/>
<path d="M1756.41 1896.28C1760.04 1899.91 1758.08 1878.45 1757.25 1872.59C1756.41 1866.74 1753.61 1855.04 1751.38 1851.13C1749.14 1847.23 1746.34 1842.22 1745.51 1846.67C1744.67 1851.13 1744.99 1853.33 1745.64 1856.55C1748.13 1869.04 1753.55 1893.44 1756.41 1896.28Z" fill="#346618"/>
<path d="M1096.53 1453.87C1096.25 1456.94 1093.79 1470.81 1094.01 1476.17C1094.29 1482.85 1096.81 1481.46 1098.77 1474.49C1100.72 1467.53 1103.8 1449.13 1103.24 1440.22C1102.68 1431.29 1097.93 1427.39 1097.65 1431.85C1097.37 1436.31 1096.81 1450.8 1096.53 1453.87Z" fill="#346618"/>
<path d="M1582.53 1516.87C1582.25 1519.94 1579.79 1533.81 1580.01 1539.17C1580.29 1545.85 1582.81 1544.46 1584.77 1537.49C1586.72 1530.53 1589.8 1512.13 1589.24 1503.22C1588.68 1494.29 1583.93 1490.39 1583.65 1494.85C1583.37 1499.31 1582.81 1513.8 1582.53 1516.87Z" fill="#346618"/>
<path d="M2572.53 1707.87C2572.25 1710.94 2569.79 1724.81 2570.01 1730.17C2570.29 1736.85 2572.81 1735.46 2574.77 1728.49C2576.72 1721.53 2579.8 1703.13 2579.24 1694.22C2578.68 1685.29 2573.93 1681.39 2573.65 1685.85C2573.37 1690.31 2572.81 1704.8 2572.53 1707.87Z" fill="#346618"/>
<path d="M2297.53 2243.87C2297.25 2246.94 2294.79 2260.81 2295.01 2266.17C2295.29 2272.85 2297.81 2271.46 2299.77 2264.49C2301.72 2257.53 2304.8 2239.13 2304.24 2230.22C2303.68 2221.29 2298.93 2217.39 2298.65 2221.85C2298.37 2226.31 2297.81 2240.8 2297.53 2243.87Z" fill="#346618"/>
<path d="M2513.53 1403.87C2513.25 1406.94 2510.79 1420.81 2511.01 1426.17C2511.29 1432.85 2513.81 1431.46 2515.77 1424.49C2517.72 1417.53 2520.8 1399.13 2520.24 1390.22C2519.68 1381.29 2514.93 1377.39 2514.65 1381.85C2514.37 1386.31 2513.81 1400.8 2513.53 1403.87Z" fill="#346618"/>
<path d="M2711.77 938.871C2712.05 941.935 2714.51 955.814 2714.29 961.168C2714.01 967.855 2711.5 966.462 2709.54 959.493C2707.58 952.527 2704.51 934.132 2705.07 925.215C2705.63 916.295 2710.38 912.393 2710.66 916.853C2710.94 921.313 2711.5 935.803 2711.77 938.871Z" fill="#346618"/>
<path d="M2866.77 1373.87C2867.05 1376.94 2869.51 1390.81 2869.29 1396.17C2869.01 1402.85 2866.5 1401.46 2864.54 1394.49C2862.58 1387.53 2859.51 1369.13 2860.07 1360.22C2860.63 1351.29 2865.38 1347.39 2865.66 1351.85C2865.94 1356.31 2866.5 1370.8 2866.77 1373.87Z" fill="#346618"/>
<path d="M2917.77 601.871C2918.05 604.935 2920.51 618.814 2920.29 624.168C2920.01 630.855 2917.5 629.462 2915.54 622.493C2913.58 615.527 2910.51 597.132 2911.07 588.215C2911.63 579.295 2916.38 575.393 2916.66 579.853C2916.94 584.313 2917.5 598.803 2917.77 601.871Z" fill="#346618"/>
<path d="M2208.53 1098.87C2208.25 1101.94 2205.79 1115.81 2206.01 1121.17C2206.29 1127.85 2208.81 1126.46 2210.77 1119.49C2212.72 1112.53 2215.8 1094.13 2215.24 1085.22C2214.68 1076.29 2209.93 1072.39 2209.65 1076.85C2209.37 1081.31 2208.81 1095.8 2208.53 1098.87Z" fill="#346618"/>
<path d="M1235.53 1837.87C1235.25 1840.94 1232.79 1854.81 1233.01 1860.17C1233.29 1866.85 1235.81 1865.46 1237.77 1858.49C1239.72 1851.53 1242.8 1833.13 1242.24 1824.22C1241.68 1815.29 1236.93 1811.39 1236.65 1815.85C1236.37 1820.31 1235.81 1834.8 1235.53 1837.87Z" fill="#346618"/>
<path d="M2483.53 2026.87C2483.25 2029.94 2480.79 2043.81 2481.01 2049.17C2481.29 2055.85 2483.81 2054.46 2485.77 2047.49C2487.72 2040.53 2490.8 2022.13 2490.24 2013.22C2489.68 2004.29 2484.93 2000.39 2484.65 2004.85C2484.37 2009.31 2483.81 2023.8 2483.53 2026.87Z" fill="#346618"/>
<path d="M809.53 1059.87C809.251 1062.94 806.791 1076.81 807.014 1082.17C807.294 1088.85 809.809 1087.46 811.766 1080.49C813.723 1073.53 816.798 1055.13 816.238 1046.22C815.679 1037.29 810.928 1033.39 810.648 1037.85C810.368 1042.31 809.81 1056.8 809.53 1059.87Z" fill="#346618"/>
<path d="M636.45 1024.52C636.545 1029.81 636.45 1041.13 635.332 1044.03C633.935 1047.65 632.537 1048.76 631.419 1043.19C630.301 1037.62 630.021 1021.45 630.021 1016.16C630.021 1010.86 629.571 1001.88 632.817 1005.84C635.332 1008.91 636.45 1017.75 636.45 1024.52Z" fill="#346618"/>
<path d="M659.651 1015.6C658.812 1020.62 654.899 1035.39 653.781 1039.01C651.457 1046.53 648.19 1045.14 649.867 1034.27C651.639 1024.52 655.514 1004.06 656.855 1000.27C658.532 995.533 659.371 994.418 661.328 995.254C663.284 996.09 660.489 1010.58 659.651 1015.6Z" fill="#346618"/>
<path d="M207.559 1554.52C207.465 1559.81 207.559 1571.13 208.678 1574.03C210.075 1577.65 211.473 1578.77 212.591 1573.19C213.709 1567.61 213.988 1551.45 213.988 1546.16C213.988 1540.86 214.439 1531.89 211.193 1535.84C208.678 1538.91 207.559 1547.75 207.559 1554.52Z" fill="#346618"/>
<path d="M184.359 1545.6C185.198 1550.62 189.111 1565.38 190.229 1569.01C192.553 1576.54 195.82 1575.14 194.143 1564.27C192.371 1554.52 188.496 1534.06 187.154 1530.27C185.477 1525.53 184.639 1524.42 182.682 1525.25C180.725 1526.09 183.521 1540.58 184.359 1545.6Z" fill="#346618"/>
</g>
<defs>
<clipPath id="clip0_4441_3306">
<rect width="2987" height="2424" fill="white"/>
</clipPath>
</defs>
</svg>
