<svg width="521" height="498" viewBox="0 0 521 498" fill="none" xmlns="http://www.w3.org/2000/svg">
<g clip-path="url(#clip0_4504_2015)">
<path d="M319.643 344.362C337.693 359.49 400.416 451.639 429.521 495.823C406.197 504.64 369.233 482.966 342.358 485.648C317.407 488.139 298.437 461.669 271.124 462.445C251.966 462.991 227.127 437.013 235.214 419.131C244.154 399.366 273.72 402.134 273.328 392.451C272.936 382.767 258.147 389.962 246.778 385.378C219.264 374.283 197.817 346.973 231.287 333.735C242.889 329.145 297.081 325.453 319.643 344.362Z" fill="#76A841"/>
<path d="M34.2298 195.767C48.8262 193.605 111.546 187.632 119.229 207.267C123.729 218.766 135.229 214.767 142.229 216.267C169.081 222.021 207.325 229.437 213.229 260.267C217.729 283.767 185.229 269.267 170.729 269.267C156.229 269.267 155.729 272.767 142.229 279.767C128.729 286.767 104.229 274.767 89.7292 269.267C64.6235 259.744 -7.89738 261.903 1.22984 216.267C2.72984 208.767 7.22984 199.767 34.2298 195.767Z" fill="#76A841"/>
<mask id="mask0_4504_2015" style="mask-type:luminance" maskUnits="userSpaceOnUse" x="29" y="0" width="492" height="459">
<path d="M521 0H29V459H521V0Z" fill="white"/>
</mask>
<g mask="url(#mask0_4504_2015)">
<path d="M118.126 113.784C113.664 113.892 109.186 115.115 104.757 113.123C103.179 112.412 102.551 114.412 101.667 115.33C95.4622 121.792 87.9353 125.189 78.9708 125.189C69.8245 125.189 63.2973 117.42 64.3301 108.23C65.429 98.4703 70.1302 90.4044 75.7898 82.7681C86.0763 68.8841 96.148 54.7852 108.665 42.7771C124.669 27.422 142.003 13.9595 163.51 6.96784C173.673 3.66212 184.091 2.01752 194.741 1.00101C201.607 0.339859 208.465 -0.337815 215.273 0.182837C239.506 2.05058 263.392 5.54638 283.982 19.9924C299.845 31.1245 314.552 43.587 327.226 58.3884C338.686 71.7601 345.965 87.0821 349.559 104.189C350.89 110.511 349.336 116.33 343.875 120.296C339.364 123.569 334.439 122.619 329.961 120.073C326.772 118.255 324.764 117.445 321.294 120.569C315.238 126.007 306.703 125.329 298.862 120.115C296.466 118.528 294.02 116.925 291.98 114.925C289.832 112.817 288.543 113.354 286.816 115.354C283.916 118.718 280.446 121.181 276.017 122.445C272.431 123.47 269.184 123.057 266.193 121.239C264.599 120.263 263.541 120.354 262.211 121.379C251.66 129.503 241.53 126.734 231.533 120.189C229.823 119.065 228.038 118.049 226.287 116.982C225.799 115.974 225.006 115.404 223.891 115.296C222.238 113.668 220.594 112.049 218.941 110.421C217.892 109.065 217.264 107.371 215.76 106.379C214.596 103.239 213.257 102.412 210.861 105.578C208.705 108.421 205.854 110.627 202.59 112.131C196.055 115.139 188.586 118.396 182.596 113.363C177.25 108.867 174.036 110.883 169.839 113.652C168.591 114.47 167.195 115.057 165.865 115.751C159.445 119.115 152.786 121.197 145.441 119.544C144.573 118.47 143.152 118.594 142.07 117.982C136.393 116.445 132.32 112.462 128.049 108.784C127.363 108.784 126.768 108.991 126.413 109.635V109.652C123.232 110.206 121.356 113.387 118.101 113.792L118.126 113.784Z" fill="#379E4E"/>
<path d="M326.258 351.045C330.274 344.268 333.86 337.202 339.528 331.533C352.714 318.343 367.504 307.996 386.358 304.633C407.592 300.848 426.174 307.211 443.318 319.269C462.883 333.029 475.285 351.855 481.795 374.615C485.745 388.424 481.382 400.35 471.517 410.184C464.428 417.25 452.605 415.259 443.037 408.887C437.154 404.97 432.428 399.879 429.165 393.548C428.132 391.548 427.43 391.251 425.273 392.664C417.523 397.755 408.517 396.862 401.172 390.664C399.916 389.606 398.925 389.177 397.752 390.664C392.018 397.904 384.557 399.879 375.782 397.829C374.906 396.887 373.808 396.433 372.552 396.284C370.205 393.854 367.156 392.102 365.339 389.185C364.488 387.821 362.736 387.342 361.29 388.044C355.408 390.92 349.161 391.4 342.808 389.739L340.436 389.705C339.098 388.788 337.817 387.78 336.421 386.962C328.283 382.185 322.664 375.962 323.78 365.673C323.78 365.673 324.432 355.656 326.25 351.053L326.258 351.045Z" fill="#4B8214"/>
<path d="M330.109 275.534C325.813 274.41 322.012 276.782 318.013 277.493C307.875 279.303 299.597 276.072 293.945 267.113C292.863 265.394 291.822 265.791 290.202 266.46C283.857 269.08 277.181 270.006 270.53 268.08C259.938 265.006 255.228 256.51 252.849 246.717C248.941 230.585 252.527 215.296 259.244 200.528C269.348 178.313 286.517 162.875 307.016 150.619C318.922 143.495 331.53 138.115 345.097 135.033C360.646 131.496 376.163 131.132 391.919 134.058C405.989 136.669 419.597 140.396 432.065 147.487C456.62 161.446 478.986 178.057 495.238 201.701C503.74 214.064 512.49 226.32 516.662 241.064C522.156 260.485 522.867 279.848 516.257 299.187C513.985 305.831 510.887 312.013 506.549 317.575C498.188 328.277 484.035 328.195 476.243 317.079C471.682 310.575 468.121 303.501 467.427 295.336C467.279 293.567 467.072 292.096 464.428 293.013C448.036 298.699 442.302 290.972 434.833 281.576C432.47 278.6 430.718 275.138 428.744 271.865C425.794 266.981 423.547 266.444 417.862 268.245C407.179 271.625 397.116 276.518 386.747 280.65C376.725 284.65 366.438 286.981 355.598 286.509C354.631 286.204 353.673 285.89 352.706 285.584C346.105 283.551 339.792 281.038 335.397 275.295C334.579 274.22 333.406 273.906 332.1 274.03C330.952 273.89 330.572 274.766 330.117 275.534H330.109Z" fill="#5F972B"/>
<path d="M330.109 275.534C325.813 274.41 322.012 276.782 318.013 277.493C307.875 279.303 299.597 276.072 293.945 267.113C292.863 265.394 291.822 265.791 290.202 266.46C283.857 269.08 277.181 270.006 270.53 268.08C259.938 265.006 255.228 256.51 252.849 246.717C248.941 230.585 252.527 215.296 259.244 200.528C269.348 178.313 286.517 162.875 307.016 150.619C318.922 143.495 331.53 138.115 345.097 135.033C360.646 131.496 376.163 131.132 391.919 134.058C405.989 136.669 419.597 140.396 432.065 147.487C456.62 161.446 478.986 178.057 495.238 201.701C503.74 214.064 512.49 226.32 516.662 241.064C522.157 260.485 522.867 279.848 516.257 299.187C513.985 305.831 510.887 312.013 506.549 317.575C498.188 328.277 484.035 328.195 476.243 317.079C471.683 310.575 468.122 303.501 467.427 295.336C467.279 293.567 467.072 292.096 464.428 293.013C448.036 298.699 442.302 290.972 434.833 281.576C432.47 278.6 430.718 275.138 428.744 271.865C425.794 266.981 423.547 266.444 417.862 268.245C407.179 271.625 397.116 276.518 386.747 280.65C376.725 284.65 366.438 286.981 355.598 286.509C354.631 286.204 353.673 285.89 352.706 285.584C346.105 283.551 339.792 281.038 335.397 275.295C334.579 274.22 333.406 273.906 332.1 274.03C330.952 273.89 330.572 274.766 330.117 275.534H330.109ZM495.602 320.31C498.122 320.666 499.981 319.699 501.798 317.889C510.102 309.575 513.721 298.889 516.018 287.947C518.992 273.749 518.075 259.51 514.448 245.312C512.035 235.866 508.21 227.271 502.872 219.279C497.932 211.874 493.156 204.304 487.579 197.387C482.266 190.8 476.863 184.214 470.319 178.668C460.603 170.421 450.333 162.941 439.732 155.908C433.932 152.057 427.744 148.851 421.357 146.008C416.069 143.653 410.517 142.314 405.072 140.553C396.323 137.735 387.308 136.157 378.27 135.479C370.164 134.876 361.993 135.223 353.739 136.587C341.164 138.669 329.357 142.611 317.947 147.884C314.493 149.479 310.387 150.611 308.09 154.239C302.852 154.867 299.406 158.71 295.523 161.57C287.054 167.801 279.528 175.057 272.786 183.197C269.96 186.61 267.175 190.148 265.407 194.007C260.929 203.784 257.104 213.775 254.856 224.478C252.411 236.097 254.997 246.155 260.276 256.221C264.424 264.138 275.892 268.394 285.146 264.254C292.888 260.791 293.35 261.072 297.407 267.064C301.398 272.964 309.536 275.873 316.964 274.601C321.533 273.815 325.813 272.121 330.299 271.113C333.901 270.311 336.785 270.576 338.743 274.13C340.048 276.493 342.296 277.923 344.51 279.311C352.5 284.311 361.373 283.981 370.007 282.518C376.361 281.435 382.467 278.848 388.548 276.41C398.661 272.361 408.551 267.749 418.969 264.452C424.323 262.758 427.653 263.328 429.743 267.006C433.288 273.245 437.155 279.171 441.872 284.724C447.532 291.385 453.877 292.658 461.627 290.551C469.394 288.435 469.386 288.394 470.79 296.427C470.865 296.832 470.741 297.319 470.922 297.65C472.74 300.972 471.228 305.864 475.748 307.906C475.69 309.823 476.632 311.145 478.243 312.063C479.457 318.608 488.62 323.939 494.784 321.633C495.164 321.492 495.337 320.765 495.602 320.319V320.31Z" fill="#5B8B2F"/>
<path d="M326.26 351.045C330.275 344.268 333.861 337.202 339.529 331.533C352.716 318.343 367.505 307.996 386.359 304.633C407.593 300.848 426.175 307.211 443.319 319.269C462.884 333.029 475.286 351.855 481.797 374.615C485.746 388.424 481.384 400.35 471.518 410.184C464.429 417.25 452.606 415.259 443.038 408.887C437.156 404.97 432.43 399.879 429.166 393.548C428.133 391.548 427.431 391.251 425.275 392.664C417.525 397.755 408.519 396.862 401.174 390.664C399.918 389.606 398.926 389.177 397.753 390.664C392.019 397.904 384.558 399.879 375.784 397.829C374.908 396.887 373.809 396.433 372.553 396.284C370.207 393.854 367.158 392.102 365.34 389.185C364.489 387.821 362.738 387.342 361.292 388.044C355.409 390.92 349.303 391.904 342.95 390.243L340.446 389.705C339.108 388.788 337.827 387.78 336.431 386.962C328.292 382.185 322.674 375.962 323.789 365.673C323.789 365.673 324.442 355.656 326.26 351.053V351.045ZM399.059 306.302C391.3 306.79 383.724 307.575 376.263 310.442C365.167 314.715 355.806 321.393 346.94 328.988C337.645 336.963 331.473 347.02 328.325 358.789C327.07 363.483 326.384 368.483 328.549 373.243C333.547 384.234 349.807 390.119 360.358 383.871C364.266 381.557 365.34 382.251 367.91 386.135C375.511 397.639 389.003 398.928 396.844 386.309C398.521 383.615 399.86 383.681 401.322 385.937C405.883 392.962 412.443 392.73 419.565 391.581C423.159 391.003 425.721 387.962 429.447 388.053C434.537 396.804 440.725 404.342 450.21 408.829C457.993 412.507 464.091 412.267 470.23 406.821C471.824 405.408 472.964 403.441 474.154 401.623C477.252 396.92 479.805 392.061 479.938 386.16C480.152 376.59 476.996 367.962 473.03 359.532C468.048 348.938 461.562 339.442 453.251 331.078C447.574 325.376 441.138 320.74 434.239 316.979C425.324 312.12 416.327 306.856 405.577 306.98C404.58 306.836 403.471 306.6 402.248 306.269L399.05 306.294L399.059 306.302Z" fill="#49781B"/>
<path d="M118.126 113.783C118.126 113.783 118.125 113.783 118.125 113.783L118.133 113.775C118.131 113.778 118.128 113.781 118.126 113.783C121.38 113.378 124 109 124 109L131 110.5L142 126.105L210 121.5L217 107C220 109.644 226.288 116.899 226.327 116.981C225.121 120.023 224.039 123.122 222.692 126.105C216.892 138.969 198.322 138.581 186.495 139.303C151.746 141.463 116.476 138.762 90.0829 165.328C77.6646 177.815 71.0798 194.285 71.0798 211.798C71.0798 213.98 71.9556 214.806 74.0211 214.608C75.7397 214.442 77.2517 215.104 78.7306 215.839C79.4907 216.219 80.9779 216.046 80.5731 217.459C80.2757 218.484 79.0611 218.707 78.1192 218.525C70.6749 217.062 63.115 218.351 55.6046 217.376C48.0364 216.384 40.3195 216.541 32.6686 216.137C31.4045 216.07 29.5951 216.798 29.1159 215.004C28.5953 213.013 30.2891 212.938 31.6854 212.781C32.4621 212.699 33.0074 212.194 32.8586 211.401C29.589 194.127 44.0103 175.902 54.5388 163.361C65.858 149.89 79.0611 138.915 94.4124 130.262C102.779 125.545 111.476 121.076 118.126 113.783Z" fill="#5E5222"/>
<path d="M327.961 279.856C328.642 278.384 329.832 273.76 332.108 274.037C331.943 279.252 329.762 283.765 327.192 288.145C314.477 322.326 292.863 344.433 252.799 341.788C256.839 347.003 261.888 349.648 266.011 353.342C268.415 358.49 273.372 361.333 276.933 365.441C278.453 367.193 280.023 369.375 282.031 370.127C285.039 371.251 285.658 367.482 287.575 366.185C297.167 359.689 305.421 351.672 313.56 343.491C318.178 338.846 323.747 335.251 328.077 330.193C332.943 324.508 337.619 318.714 341.949 312.599C347.741 304.417 351.5 295.533 352.739 285.583C353.706 285.888 354.664 286.203 355.631 286.508C352.464 308.17 336.635 327.336 320.773 341.64C310.354 350.953 299.754 359.976 289.343 369.3C284.601 373.556 284.766 373.722 288.484 378.862C288.963 379.523 289.36 380.259 289.665 381.019C290.095 382.06 290.417 383.449 289.467 384.077C286.538 386.008 242.483 340.257 245.091 337.169C246.016 336.078 247.462 336.772 248.305 337.788C250.818 340.838 264.516 337.739 268 337.788C302.243 338.226 315.438 306.787 327.961 279.856Z" fill="#5E5222"/>
<path d="M263.467 115.364C263.219 115.389 262.971 115.413 262.723 115.455C261.674 115.422 261.128 115.984 260.947 116.967C259.806 118.132 258.732 119.422 256.906 119.488C252.618 119.595 248.975 118.595 245.595 115.455C242.125 112.232 240.82 108.852 241.117 104.24C241.307 101.265 238.572 100.215 235.904 102.306C233.78 103.976 231.607 104.265 229.368 103.505C222.709 101.24 218.784 94.6039 219.652 87.6371C219.817 86.3313 220.115 84.8933 218.644 83.9182C217.355 83.0587 216.339 83.7694 215.182 84.1991C212.877 85.0421 211.134 86.9512 208.556 87.3396C203.838 88.0503 201.301 84.9181 199.352 81.7116C197.303 78.3397 194.774 74.563 198.178 70.3812C199.409 68.8688 199.798 66.8937 198.418 65.5053C197.286 64.3731 195.691 65.0673 194.328 66.0507C181.935 74.9844 162.287 73.9927 150.803 64.1169C140.409 55.1749 137.046 46.3155 143.697 30.8199C146.448 24.3986 151.15 19.7705 155.314 14.5888C161.676 10.7872 168.599 8.34922 175.804 6.8699C181.819 5.63026 188.123 5.56414 194.031 4.32449C201.334 2.7956 208.523 2.95262 215.711 3.22534C234.268 3.93607 252.313 7.74592 269.3 15.283C275.587 18.0681 280.966 22.9027 286.758 26.8035C299.226 35.1835 310.115 45.3899 320.443 56.2244C334.216 70.6705 343.239 87.5462 346.353 107.397C347.477 114.57 341.338 120.215 334.266 118.521C331.977 117.975 329.854 116.984 328.011 115.488C325.475 113.43 323.632 113.066 321.368 116.347C318.072 121.149 311.487 122.108 305.877 119.868C300.919 117.893 296.656 115.182 293.235 111.058C291.443 108.901 288.84 108.926 286.948 110.554C285.056 112.174 282.8 113.149 280.933 114.719C279.305 114.637 278.157 115.645 276.876 116.422C275.025 117.546 273.679 117.108 272.464 115.215C269.143 110.017 267.292 110.099 263.467 115.372V115.364Z" fill="#49C466"/>
<path d="M223.897 115.304C221.931 126.42 216.164 132.114 205.026 134.593C200.292 135.643 195.599 136.172 190.774 136.089C182.413 135.94 174.249 138.13 165.929 138.37C159.609 138.552 153.28 138.56 146.951 138.519C134.335 138.436 122.594 142.51 110.605 145.692C103.996 147.444 99.8149 151.75 95.1715 156.023C88.2974 162.353 81.9767 169.105 77.4573 177.328C75.2843 181.278 73.1527 185.328 71.6985 189.567C69.4099 196.253 66.9808 202.997 67.7492 210.303C68.0631 213.319 67.5426 214.236 63.7915 214.005C56.8265 213.584 49.8614 212.741 42.8633 212.749C43.1772 211.36 44.3257 210.641 45.3915 210.336C49.6135 209.137 52.2409 206.865 54.1991 202.741C58.0741 194.6 61.0154 186.848 65.6505 179.063C66.4272 177.758 67.1956 176.411 66.1132 174.882C71.6076 171.717 75.1026 165.725 76.9202 159.956C78.267 159.477 79.0767 159.237 80.0103 158.221C87.5703 150.039 96.006 141.948 106.78 138.684C116.273 135.8 126.188 134.378 136.202 134.403C142.374 134.585 148.48 133.949 154.536 132.816C156.213 134.271 158.295 133.775 160.055 133.511C169.763 132.04 179.513 132.891 189.229 132.841C196.054 132.8 202.531 131.221 208.918 129.288C213.966 127.759 216.684 124.907 218.874 120.04C220.138 117.238 220.526 115.23 217.197 114.527C217.626 113.106 217.775 111.561 218.923 110.453L223.872 115.329L223.897 115.304Z" fill="#746228"/>
<path d="M145.456 119.546C152.809 121.199 159.46 119.116 165.88 115.752C167.21 115.058 168.607 114.471 169.854 113.653C174.051 110.885 177.265 108.868 182.611 113.364C188.593 118.397 196.07 115.141 202.606 112.133C205.869 110.637 208.72 108.422 210.876 105.579C213.272 102.414 214.619 103.24 215.776 106.381C215.098 111.323 212.43 115.273 209.422 119.042C208.472 120.232 207.282 120.959 205.605 121.149C197.169 122.075 188.758 123.075 180.232 123.025C172.159 122.984 164.087 122.496 156.007 123.818C151.702 124.521 147.191 123.942 142.572 123.942C143.398 122.017 145.233 121.323 145.464 119.554L145.456 119.546Z" fill="#F3F3F3"/>
<path d="M145.457 119.544C145.225 121.313 143.391 122.007 142.565 123.933C147.192 123.933 151.703 124.511 155.999 123.809C164.08 122.487 172.16 122.974 180.224 123.015C188.751 123.065 197.162 122.065 205.598 121.139C207.275 120.958 208.465 120.23 209.415 119.032C212.422 115.272 215.091 111.313 215.768 106.371C217.272 107.371 217.9 109.057 218.949 110.412C217.793 111.528 217.652 113.065 217.223 114.487C216.677 115.082 215.992 115.594 215.595 116.272C212.422 121.66 208.539 125.734 201.483 124.486C200.723 124.354 199.88 124.817 199.07 124.867C192.238 125.28 185.347 126.354 178.572 125.891C169.632 125.28 160.792 126.387 151.901 126.42C148.035 126.437 143.879 126.263 140.062 127.313C132.873 129.28 125.652 130.552 118.191 130.189C118.274 128.47 119.348 127.924 120.885 127.726C124.636 127.23 128.362 126.486 132.13 126.156C137.699 125.668 141.136 122.982 142.086 117.966C143.168 118.578 144.589 118.454 145.457 119.528V119.544Z" fill="#5E5222"/>
<path d="M143.507 117.686C142.449 123.239 138.641 126.214 132.469 126.76C128.296 127.123 124.165 127.958 120.009 128.504C118.315 128.727 119.133 129.669 119.043 131.57C116.465 130.156 114.672 127.966 116.341 126.049C117.927 124.223 119.852 122.768 121.786 121.305C126.446 117.777 125.504 118.421 120.695 115.876C121.348 113.124 126.123 110.256 126.214 107.099H127.131C127.883 107.074 127.652 106.892 128.048 106.182C132.783 110.264 137.219 115.983 143.507 117.686Z" fill="#746228"/>
<path d="M263.467 115.362C267.292 110.081 269.143 110.007 272.464 115.205C273.679 117.098 275.026 117.536 276.876 116.412C278.157 115.635 279.306 114.627 280.933 114.709C278.198 119.775 271.911 121.114 267.664 117.445C266.408 116.362 265.301 115.205 263.475 115.362H263.467Z" fill="#49C466"/>
<path d="M260.945 116.967C261.119 115.975 261.664 115.422 262.722 115.455C262.614 116.529 262.044 117.058 260.945 116.967Z" fill="#49C466"/>
<path d="M478.252 312.06C476.641 311.143 475.707 309.821 475.757 307.903C475.757 303.226 475.889 298.548 475.748 293.879C475.575 288.366 472.65 285.631 467.164 285.598C461.686 285.556 456.299 285.598 450.846 284.16C436.42 280.35 432.694 271.755 434.809 258.797C435.321 255.681 435.974 252.582 433.363 250.367C430.777 248.169 427.77 249.16 424.837 250.284C418.095 252.863 412.055 249.888 409.634 242.979C407.965 238.219 404.032 237.219 400.496 240.723C398.158 243.045 395.968 245.367 392.407 245.979C387.888 246.756 383.443 246.962 378.981 245.896C368.785 243.458 362.985 236.119 363.82 226.938C364.142 223.384 363.828 220.781 360.887 219.301C358.144 217.921 355.863 220.103 354.12 221.938C351.253 224.971 347.75 225.888 343.99 225.12C338.835 224.062 334.415 221.144 331.746 216.715C328.986 212.12 327.16 206.723 329.482 201.418C330.581 198.913 332.225 196.847 330.3 194.36C328.292 191.765 325.615 192.261 322.806 193.186C317.122 195.054 309.653 192.616 306.819 187.79C303.53 182.186 302.043 176.005 303.497 169.583C304.67 164.385 306.538 159.344 308.099 154.237C310.396 150.617 314.503 149.485 317.956 147.881C329.366 142.609 341.173 138.667 353.748 136.584C362.002 135.22 370.165 134.873 378.279 135.477C387.309 136.146 396.332 137.733 405.081 140.551C410.535 142.311 416.079 143.65 421.366 146.005C427.761 148.848 433.942 152.055 439.742 155.906C450.342 162.939 460.604 170.426 470.328 178.666C476.872 184.211 482.276 190.798 487.588 197.385C493.165 204.302 497.933 211.872 502.882 219.277C508.219 227.277 512.044 235.871 514.457 245.309C518.084 259.507 519.001 273.747 516.027 287.945C513.73 298.895 510.111 309.581 501.808 317.886C499.998 319.705 498.139 320.672 495.611 320.308C489.703 317.804 482.978 317.035 478.252 312.06Z" fill="#7BC337"/>
<path d="M327.175 288.137C329.753 283.765 331.934 279.253 332.091 274.03C333.405 273.898 334.57 274.22 335.388 275.294C339.784 281.038 346.096 283.55 352.698 285.584C351.458 295.525 347.699 304.418 341.907 312.6C337.578 318.715 332.909 324.508 328.035 330.194C323.705 335.252 318.137 338.847 313.518 343.492C305.38 351.673 297.134 359.69 287.533 366.185C285.616 367.483 284.997 371.251 281.989 370.127C279.982 369.375 278.412 367.194 276.891 365.442C273.33 361.334 268.373 358.483 265.969 353.343C271.157 353.177 276.536 354.268 281.452 352.301C285.575 350.657 289.334 348.07 293.251 345.905C296.514 345.723 298.786 343.558 300.893 341.549C304.471 338.136 309.494 336.112 311.395 331.029C315.815 330.591 317.98 326.88 320.665 324.203C328.349 316.558 335.074 308.137 339.048 297.864C339.701 296.17 340.246 293.749 338.577 292.931C334.892 291.112 331.794 287.691 327.151 288.137H327.175ZM327.828 326.732C327.754 326.095 327.572 325.434 326.928 325.608C325.556 325.979 324.647 327.021 324.143 328.285C323.928 328.814 324.507 329.318 325.102 329.244C326.605 329.054 327.415 328.046 327.828 326.732Z" fill="#746228"/>
<path d="M478.252 312.063C482.978 317.038 489.703 317.807 495.611 320.311C495.347 320.765 495.173 321.484 494.793 321.625C488.638 323.931 479.467 318.6 478.252 312.055V312.063Z" fill="#7BC337"/>
<path d="M405.592 306.988C416.341 306.864 425.339 312.128 434.254 316.987C441.145 320.748 447.589 325.384 453.265 331.086C461.577 339.441 468.063 348.945 473.045 359.54C477.011 367.978 480.167 376.598 479.952 386.168C479.82 392.069 477.267 396.928 474.169 401.63C472.971 403.44 471.831 405.416 470.244 406.829C464.105 412.275 458.008 412.515 450.225 408.837C440.74 404.349 434.551 396.812 429.462 388.06C425.67 383.879 426.231 378.722 426.215 373.681C426.198 366.995 423.794 365.309 417.531 367.59C414.449 368.714 411.855 368.457 409.335 365.896C405.658 362.152 405.493 357.648 405.559 352.921C405.617 348.144 404.51 347.268 400.04 348.152C391.282 349.879 381.194 341.64 380.814 332.409C380.459 323.789 384.276 317.293 390.778 311.88C395.843 308.426 405.601 306.996 405.601 306.996L405.592 306.988Z" fill="#61A420"/>
<path d="M338.627 393.879C340.147 392.821 341.734 391.821 341.982 389.731C348.253 391.367 354.408 390.929 360.225 388.152C362.29 387.169 364.05 386.64 365.256 388.582C367.074 391.499 370.346 393.59 372.692 396.02C372.527 396.532 372.221 398.235 371.866 398.499C365.554 403.243 359.382 407.896 352.037 410.895C338.66 416.358 324.449 421.994 310.725 426.598C302.397 429.391 295.49 432.978 289.244 439.821C288.508 440.622 286.988 442.176 286.765 443.126C285.765 447.465 282.956 444.895 281.37 443.242C274.446 436.002 267.514 428.788 260.07 422.077C259.186 421.284 257.046 420.614 258.525 418.598C261.152 418.333 264.73 419.54 266.936 421.639C270.108 424.664 273.735 427.184 277.677 429.077C280.965 430.655 283.377 431.755 286.831 429.011C295.581 422.036 304.545 415.441 315.906 412.829C319.938 411.904 324.292 411.664 328.018 409.466C329.811 409.565 331.373 408.978 333.083 408.416C337.446 406.978 341.288 404.102 346.014 403.747C346.319 403.458 346.625 403.168 346.931 402.879L346.898 402.904C349.426 403.028 351.615 402.507 353.061 399.92C340.602 398.921 342.643 398.127 338.627 393.888V393.879Z" fill="#746228"/>
<path d="M122.273 115.363C126.619 117.661 126.694 118.058 122.488 121.248C120.736 122.57 119.01 123.884 117.572 125.529C116.068 127.256 115.862 128.933 118.192 130.206C125.661 130.57 132.882 129.297 140.062 127.33C143.879 126.281 148.035 126.454 151.902 126.438C160.792 126.405 169.632 125.297 178.572 125.909C185.347 126.372 192.238 125.305 199.071 124.884C199.881 124.834 200.732 124.372 201.483 124.504C208.539 125.752 212.423 121.669 215.595 116.289C215.992 115.611 216.678 115.099 217.223 114.504C220.553 115.206 220.991 117.215 219.726 120.016C217.529 124.884 213.992 128.562 208.944 130.09C202.557 132.024 196.08 133.603 189.255 133.644C179.531 133.702 169.789 132.842 160.081 134.314C158.321 134.578 156.239 135.082 154.554 133.619C155.198 133.421 156.025 133.272 155.711 132.338C155.347 131.231 154.281 130.95 153.356 131.19C149.869 132.099 146.176 131.371 142.838 132.231C140.657 132.793 137.625 132.537 136.22 135.214C126.198 135.19 116.291 136.619 106.798 139.495C96.0241 142.768 87.5884 150.024 80.0284 158.206C79.0865 159.222 78.2768 160.288 76.9301 160.768C71.7827 164.181 68.767 169.098 66.9493 174.866C68.0317 176.395 67.2633 177.751 66.4866 179.048C61.8515 186.833 58.9101 195.412 55.0351 203.552C53.077 207.676 49.6234 209.949 45.4014 211.147C44.3355 211.453 43.1871 211.345 42.8731 212.734C34.7348 212.899 35.561 212.94 35.9163 204.957C36.4203 193.693 42.0799 185.263 48.0453 176.453C54.3824 167.09 61.868 158.883 69.7585 150.933C76.3765 144.255 84.2752 139.313 92.2731 134.611C101.766 129.033 111.21 123.429 119.695 116.372C120.513 115.694 121.282 115.388 122.257 115.355L122.273 115.363ZM55.6713 183.709C56.0184 183.445 56.5802 183.213 56.8446 182.8C58.7614 179.8 60.6369 176.776 62.4794 173.734C62.8512 173.114 62.876 172.338 62.1985 171.9C61.5623 171.486 60.7278 171.635 60.356 172.238C58.4061 175.362 56.4976 178.511 54.7047 181.726C54.3576 182.346 54.3494 183.387 55.6713 183.718V183.709Z" fill="#937C37"/>
<path d="M327.176 288.135C331.82 287.689 334.918 291.111 338.603 292.929C340.272 293.747 339.727 296.177 339.074 297.863C335.1 308.135 328.374 316.556 320.691 324.201C318.005 326.879 315.841 330.581 311.42 331.027C306.711 332.515 303.48 336.184 299.688 339.011C297.143 340.903 293.541 341.862 293.276 345.895C289.36 348.06 285.601 350.647 281.478 352.291C276.554 354.258 271.175 353.167 265.995 353.333C261.872 349.63 256.832 346.994 252.783 341.779C292.847 344.424 314.461 322.317 327.176 288.135ZM324.64 313.598C323.979 311.689 323.12 312.292 322.442 313.036C320.426 315.267 318.485 317.556 316.51 319.829C315.642 320.829 314.932 322.209 316.155 323.027C317.237 323.746 318.047 322.308 318.617 321.432C319.228 320.482 320.22 319.92 320.881 319.11C322.318 317.342 323.475 315.333 324.64 313.59V313.598Z" fill="#937C37"/>
<path d="M339.454 393.879C343.469 398.127 341.429 398.912 353.888 399.912C352.442 402.499 350.253 403.019 347.725 402.895C343.825 401.375 331.184 405.499 328.887 409.06C328.821 409.16 328.854 409.325 328.845 409.465C325.119 411.672 320.757 411.903 316.733 412.829C305.372 415.441 296.416 422.035 287.658 429.011C284.204 431.763 281.056 431.275 277.768 429.696C273.827 427.804 270.126 425.374 266.953 422.349C264.747 420.242 262.21 419.184 259.352 418.598C261.954 414.672 266.292 413.184 270.258 411.664C277.644 408.837 285.336 406.92 293.086 405.135C300.398 403.449 307.768 404.003 315.056 402.937C323.847 401.647 331.878 398.4 339.454 393.879Z" fill="#937C37"/>
<path d="M285.295 54.4795C289.418 55.1737 290.765 59.0496 293.879 60.4959C295.094 61.0579 296.35 62.5207 297.515 61.3306C298.729 60.0827 297.143 58.8761 296.432 57.8265C295.226 56.0414 293.879 54.3555 292.252 52.1655C296.862 51.5291 297.969 55.1654 299.927 57.3389C301.704 59.3058 302.158 61.8678 301.092 64.2562C300.531 65.5041 299.118 66.6198 297.416 66.4297C292.822 65.9008 286.435 59.7438 285.295 54.496V54.4795Z" fill="#317F40"/>
<path d="M227.484 30.4891C231.335 31.142 233.367 34.1585 236.408 35.3981C237.424 35.8114 238.647 36.6709 239.44 35.8114C240.299 34.8775 239.192 33.8527 238.539 33.0346C236.738 30.7371 234.904 28.4727 232.797 25.8281C237.556 26.7371 242.852 31.6875 243.579 35.4395C244.141 38.3072 242.53 40.241 239.564 40.2741C234.995 40.3237 228.947 35.5634 227.484 30.4891Z" fill="#317F40"/>
<path d="M288.228 68.5457C288.203 70.8845 286.964 72.2151 285.286 72.9588C282.791 74.0663 280.321 72.8018 278.9 71.1903C276.404 68.3639 274.207 65.1243 273.496 61.2401C273.356 60.4963 273.438 59.2318 273.884 58.9591C274.917 58.3145 275.743 59.3393 276.157 60.1326C277.478 62.6863 278.767 65.24 280.742 67.3887C281.494 68.2069 282.081 69.3969 283.353 68.8432C284.716 68.2482 283.948 67.0168 283.873 65.9672C283.758 64.3474 281.287 62.2152 283.444 61.3144C285.964 60.2649 285.683 63.7607 286.897 65.0251C287.839 66.0003 288.319 67.3804 288.219 68.554L288.228 68.5457Z" fill="#317F40"/>
<path d="M258.393 88.7106C258.55 93.4047 255.162 95.636 251.196 93.8509C247.412 92.1402 243.793 85.1734 244.504 81.033C244.62 80.3388 244.644 79.4875 245.487 79.5041C246.536 79.5206 247.272 80.3718 247.544 81.2892C248.247 83.6775 249.106 85.9998 250.684 87.9337C251.568 89.0163 252.394 90.942 254.163 90.1238C255.815 89.3635 255.336 87.57 255.005 86.0577C254.799 85.1238 254.609 84.1818 254.534 83.2396C254.493 82.7273 254.592 81.9917 255.294 82.0248C255.732 82.0413 256.41 82.4379 256.542 82.8181C257.269 84.8759 257.864 86.9834 258.393 88.7106Z" fill="#317F40"/>
<path d="M145.96 84.7278C144.126 84.7609 141.184 80.3725 142.713 77.0999C144.117 74.0834 146.365 71.6785 148.81 69.4636C149.314 69.0091 149.893 68.348 150.57 68.7612C151.454 69.3066 151.107 70.2157 150.694 70.9264C149.529 72.9347 148.339 74.9264 147.117 76.8933C146.679 77.604 146.092 78.2899 146.579 79.1329C147.183 80.1494 148.257 79.9263 149.174 79.7775C151.008 79.4717 152.363 78.323 153.644 77.042C154.404 76.2817 155.321 75.2735 156.436 76.2321C157.411 77.0751 157.056 78.3478 156.387 79.2321C154.197 82.1328 151.504 84.3311 145.968 84.7361L145.96 84.7278Z" fill="#317F40"/>
<path d="M114.556 93.9174C115.952 94.1075 117.332 93.5124 118.703 92.843C119.554 92.4298 120.546 91.8596 121.182 93.0827C121.628 93.9422 121.05 94.6777 120.463 95.2727C117.679 98.1157 114.333 98.5785 110.623 97.595C107.343 96.7273 105.335 94.6364 104.988 91.3059C104.567 87.3473 106.731 84.5209 109.689 82.2482C110.863 81.3474 111.466 81.992 111.474 83.2647C111.49 84.5622 110.689 85.5704 110.094 86.6448C107.706 90.9836 109.417 93.8843 114.547 93.9091L114.556 93.9174Z" fill="#317F40"/>
<path d="M135.294 73.2812C130.452 73.3721 128.486 70.6532 129.915 65.7029C130.617 63.2731 132.543 61.5872 134.046 59.6782C134.575 59.0088 135.691 58.265 136.575 58.86C137.607 59.5542 136.88 60.6038 136.434 61.4137C135.517 63.0665 134.501 64.6615 133.6 66.3227C133.055 67.3309 132.815 68.397 133.823 69.3144C134.666 70.0829 135.567 69.8433 136.5 69.4714C138.384 68.7111 140.474 68.4879 142.135 67.1491C142.672 66.7194 143.416 66.4714 143.994 67.0582C144.647 67.7276 144.06 68.2978 143.639 68.8102C141.474 71.4466 138.913 73.3391 135.302 73.273L135.294 73.2812Z" fill="#317F40"/>
<path d="M136.219 135.213C137.623 132.528 140.656 132.792 142.837 132.23C146.175 131.371 149.868 132.098 153.355 131.189C154.272 130.949 155.346 131.23 155.709 132.337C156.015 133.28 155.197 133.428 154.553 133.618C148.496 134.751 142.391 135.395 136.219 135.205V135.213Z" fill="#5E5222"/>
<path d="M66.9492 174.874C68.7586 169.106 71.7826 164.189 76.93 160.775C75.1123 166.544 72.4436 171.709 66.9492 174.874Z" fill="#5E5222"/>
<path d="M371.932 157.975C371.717 160.066 370.304 160.875 368.958 161.809C365.446 164.264 363.191 167.644 362.125 171.776C361.323 174.892 362.802 176.354 365.851 175.28C369.073 174.14 371.023 171.412 372.998 168.826C374.056 167.437 375.328 164.809 376.625 165.586C378.583 166.76 376.6 169.016 375.857 170.52C373.675 174.908 370.718 178.677 365.471 179.569C362.91 180.007 360.679 179.379 359.06 177.007C357.506 174.735 357.407 172.71 358.564 170.14C361.307 164.057 366.215 160.586 371.924 157.975H371.932Z" fill="#5B8B2F"/>
<path d="M491.446 232.493C491.446 233.592 491.521 234.7 491.43 235.791C491.223 238.278 489.439 239.749 487.489 240.691C485.605 241.6 483.482 240.848 482.209 239.344C478.689 235.162 476.533 230.361 476.632 224.741C476.649 223.75 476.789 222.568 477.913 222.452C479.35 222.303 479.078 223.758 479.226 224.576C479.978 228.7 481.961 232.295 483.977 235.873C484.539 236.873 485.208 237.774 486.547 237.443C487.629 237.171 487.968 236.295 488.15 235.278C488.546 233.154 489.488 231.113 488.455 228.849C487.985 227.816 487.538 226.03 489.009 225.626C491.042 225.072 490.802 227.311 491.174 228.402C491.603 229.658 491.446 231.113 491.537 232.477H491.43L491.446 232.493Z" fill="#5B8B2F"/>
<path d="M441.906 174.369C441.914 178.369 439.733 181.956 436.792 182.204C432.95 182.534 430.62 180.419 429.703 176.799C429.232 174.939 427.835 173.493 427.67 171.468C427.563 170.154 426.406 168.46 428.257 167.997C430.041 167.559 430.05 169.642 430.438 170.84C431.173 173.08 432.223 175.138 433.652 176.989C434.363 177.915 434.883 179.377 436.494 178.683C437.692 178.171 438.428 177.171 438.543 175.815C438.783 173.014 438.518 170.394 436.618 168.055C435.866 167.13 434.429 165.551 436.023 164.526C437.577 163.535 438.163 165.518 439.055 166.485C441.146 168.733 442.022 171.353 441.889 174.369H441.906Z" fill="#5B8B2F"/>
<path d="M373.379 183.8C372.883 181.353 374.502 179.395 375.841 177.337C376.196 176.792 376.51 175.957 377.344 176.329C378.319 176.759 378.212 177.659 377.766 178.411C376.667 180.279 376.601 182.296 376.692 184.37C376.741 185.519 376.923 186.618 378.162 187.039C379.451 187.477 380.608 187.196 381.401 185.998C382.748 183.965 384.607 182.263 385.152 179.717C385.317 178.924 386.02 178.246 387.011 178.568C387.697 178.792 388.003 179.42 388.151 180.147C388.829 183.618 383.26 191.064 379.716 191.386C375.287 191.8 373.329 189.535 373.395 183.791L373.379 183.8Z" fill="#5B8B2F"/>
<path d="M489.876 279.84C490.438 278.03 488.645 274.716 491.025 274.51C493.47 274.295 491.71 277.659 492.512 279.254C493.611 281.435 492.851 284.072 494.536 286.253C495.941 288.055 496.899 287.848 498.031 286.402C500.064 283.807 500.535 280.725 500.576 277.526C500.592 276.543 500.221 274.997 501.947 275.154C503.22 275.27 502.873 276.584 503.03 277.493C503.773 281.791 502.253 285.576 500.262 289.187C499.237 291.047 497.287 291.402 495.271 291.419C493.239 291.435 492.454 290.105 491.727 288.534C490.455 285.782 489.265 283.039 489.876 279.865V279.84Z" fill="#5B8B2F"/>
<path d="M462.602 236.84C459.025 236.857 456.083 234.6 456.141 230.956C456.174 228.675 453.63 225.006 456.406 224.336C459.909 223.493 457.554 227.898 458.917 229.568C460.058 230.964 460.016 233.46 462.578 233.452C465.478 233.452 464.833 230.84 465.527 229.237C466.477 227.039 465.478 224.94 465.155 222.799C465.04 222.055 464.85 221.014 465.924 220.766C466.287 220.683 466.907 221.121 467.229 221.485C469.65 224.237 469.08 233.286 466.444 235.782C465.312 236.857 463.99 236.857 462.611 236.84H462.602Z" fill="#5B8B2F"/>
<path d="M297.64 209.84C298.714 211.873 297.879 213.336 296.921 214.352C293.608 217.856 293.021 222.426 291.864 226.732C291.294 228.856 291.773 231.352 293.979 232.434C296.161 233.509 297.474 231.451 298.722 230.071C300.763 227.815 302.052 225.104 303.076 222.245C303.448 221.195 304.175 220.104 305.497 220.592C306.926 221.121 305.753 222.22 305.712 223.054C305.472 227.534 303.126 231.021 300.35 234.286C298.259 236.74 295.4 237.55 292.533 236.633C289.633 235.707 288.452 232.765 288.402 230.054C288.262 221.997 291.897 215.534 297.64 209.848V209.84Z" fill="#5B8B2F"/>
<path d="M310.874 228.707C311.659 230.699 311.469 232.104 311.015 233.501C310.271 235.79 310.477 238.145 310.701 240.443C310.891 242.393 311.783 244.426 313.857 244.848C316.129 245.31 317.319 243.286 318.037 241.575C319.26 238.674 319.706 235.55 319.698 232.377C319.698 231.013 319.863 229.17 321.425 229.129C323.325 229.088 322.937 231.055 322.953 232.336C322.987 237.005 322.788 241.575 319.896 245.649C318.335 247.848 316.55 249.558 313.873 249.129C310.981 248.666 309.156 246.426 308.189 243.773C306.272 238.501 307.9 233.774 310.874 228.699V228.707Z" fill="#5B8B2F"/>
<path d="M293.275 345.903C293.54 341.87 297.142 340.911 299.687 339.018C303.479 336.192 306.718 332.523 311.419 331.035C309.511 336.118 304.496 338.134 300.918 341.556C298.811 343.564 296.539 345.729 293.275 345.911V345.903Z" fill="#5E5222"/>
<path d="M327.828 326.74C327.415 328.054 326.606 329.062 325.102 329.252C324.507 329.327 323.929 328.823 324.143 328.294C324.656 327.029 325.565 325.98 326.928 325.616C327.572 325.443 327.754 326.104 327.828 326.74Z" fill="#5E5222"/>
<path d="M463.355 357.68C465.974 359.862 466.66 362.506 465.363 365.184C464.173 367.647 462.967 370.25 459.108 369.977C455.332 369.713 453.531 367.399 451.945 364.696C450.747 362.647 450.879 360.209 451.011 357.87C451.061 357.027 451.152 356.126 452.193 356.027C453.201 355.928 453.655 356.821 453.853 357.573C454.291 359.275 454.531 361.027 454.87 362.763C455.374 365.316 457.1 366.63 459.538 366.432C462.149 366.225 462.562 364.134 462.586 361.887C462.595 360.589 462.099 359.168 463.355 357.68Z" fill="#49781B"/>
<path d="M456.125 385.448C460.586 386.291 460.074 389.134 460.124 391.671C460.165 394.06 460.223 396.721 457.612 397.679C455.241 398.547 452.944 397.969 450.886 395.919C447.532 392.572 447.532 388.299 446.912 384.151C446.813 383.498 446.954 382.713 447.813 382.523C448.936 382.275 449.127 383.167 449.44 383.928C450.49 386.448 449.994 389.506 451.878 391.688C453.084 393.093 454.084 395.96 456.629 394.06C458.463 392.688 459.182 390.498 457.447 388.242C456.976 387.622 456.753 386.812 456.125 385.457V385.448Z" fill="#49781B"/>
<path d="M421.564 341.796C417.706 341.755 412.153 336.697 411.542 332.673C411.402 331.764 411.658 330.978 412.533 330.648C413.426 330.309 413.55 331.127 413.93 331.697C415.045 333.408 416.243 335.078 417.483 336.697C418.928 338.582 421.184 339.309 422.936 338.061C424.886 336.673 423.299 334.64 422.597 332.879C422.019 331.425 418.573 330.582 420.647 328.954C422.159 327.764 423.787 330.59 424.952 331.945C426.678 333.954 427.711 336.408 426.637 339.152C425.737 341.458 423.745 341.863 421.556 341.788L421.564 341.796Z" fill="#49781B"/>
<path d="M400.603 329.986C400.273 332.44 399.95 334.325 399.802 336.217C399.711 337.415 399.504 338.862 400.81 339.556C402.396 340.407 403.272 338.762 404.354 338.126C405.858 337.234 406.23 335.523 406.519 333.878C406.618 333.283 407.015 332.87 407.618 332.862C408.204 332.862 408.65 333.201 408.75 333.82C409.328 337.382 406.924 339.358 404.652 341.357C402.735 343.052 400.785 343.614 398.587 341.605C396.505 339.696 396.695 329.754 399 328.366C399.298 328.184 400.058 328.151 400.099 328.25C400.388 328.986 400.553 329.763 400.611 329.986H400.603Z" fill="#49781B"/>
<path d="M355.085 339.385C354.399 342.162 352.111 343.162 351.268 345.162C350.747 346.401 349.599 347.376 349.054 348.608C348.327 350.261 347.864 352.475 349.244 353.616C350.714 354.823 352.251 353.153 353.491 352.112C355.217 350.674 356.424 348.897 357.027 346.674C357.308 345.641 358.084 344.401 359.299 344.724C360.728 345.104 360.274 346.633 359.968 347.542C358.564 351.765 355.746 354.897 351.863 356.988C350.169 357.897 348.492 357.608 346.93 356.252C344.939 354.517 344.716 352.161 345.509 350.211C347.294 345.798 349.318 341.352 355.093 339.385H355.085Z" fill="#49781B"/>
<path d="M373.163 354.564C373.601 360.457 373.213 365.027 369.247 368.589C365.951 371.556 361.943 370.647 360.605 366.424C359.597 363.242 359.861 359.936 361.051 356.763C361.415 355.804 362.001 354.92 363.125 355.201C364.711 355.598 363.563 356.705 363.563 357.523C363.563 359.292 362.125 360.903 362.877 362.721C363.464 364.151 363.331 366.192 365.529 366.457C367.9 366.738 368.537 364.903 369.107 363.217C369.999 360.531 370.462 357.68 373.163 354.564Z" fill="#49781B"/>
<path d="M328.845 409.464C328.853 409.332 328.82 409.167 328.886 409.059C331.183 405.506 343.824 401.374 347.724 402.894L347.757 402.869C347.451 403.159 347.146 403.448 346.84 403.737C342.114 404.101 338.264 406.969 333.91 408.407C332.199 408.977 330.63 409.555 328.845 409.456V409.464Z" fill="#5E5222"/>
<path d="M347.6 409.671C347.162 410.142 346.881 410.638 346.451 410.853C345.741 411.225 344.923 411.671 344.171 411.655C342.535 411.605 341.61 413.944 339.833 412.886C339.428 412.647 339.536 411.671 340.073 411.498C342.32 410.754 343.849 408.225 346.608 408.837C346.922 408.903 347.17 409.291 347.6 409.663V409.671Z" fill="#5E5222"/>
<path d="M55.6701 183.71C54.3481 183.379 54.3564 182.338 54.7034 181.718C56.4963 178.503 58.4049 175.355 60.3547 172.231C60.7348 171.627 61.5693 171.479 62.1972 171.892C62.8747 172.33 62.8499 173.107 62.4781 173.726C60.6357 176.768 58.7601 179.801 56.8433 182.792C56.5789 183.214 56.0171 183.445 55.6701 183.701V183.71Z" fill="#5E5222"/>
<path d="M324.639 313.599C323.474 315.343 322.318 317.343 320.88 319.119C320.219 319.929 319.236 320.483 318.616 321.442C318.054 322.318 317.236 323.756 316.154 323.037C314.923 322.219 315.634 320.838 316.509 319.838C318.476 317.566 320.426 315.276 322.442 313.045C323.119 312.293 323.978 311.698 324.639 313.607V313.599Z" fill="#5E5222"/>
<path d="M284.23 411.184C285.023 411.233 286.014 410.96 286.378 411.944C286.865 413.233 285.734 413.646 284.899 414.002C282.387 415.076 279.619 415.539 277.389 417.291C276.744 417.795 276.042 417.456 275.629 416.828C275.133 416.076 275.687 415.638 276.215 415.134C278.479 412.969 281.198 411.779 284.23 411.192V411.184Z" fill="#5E5222"/>
<path d="M289.095 418.614C288.161 418.523 286.831 418.671 287.128 417.597C287.649 415.696 289.756 415.953 291.226 415.415C291.995 415.134 293.234 415.49 292.978 416.481C292.474 418.448 290.425 418.118 289.095 418.614Z" fill="#5E5222"/>
<path d="M372.561 396.274C373.817 396.422 374.916 396.885 375.791 397.819C372.173 400.877 368.562 403.926 364.943 406.984C363.613 408.414 362.787 408.414 361.795 409.356C353.078 413.348 344.519 417.695 335.397 420.769C329.713 422.686 324.202 425.166 318.443 426.802C309.322 429.397 301.415 434.091 293.88 439.645C291.12 441.678 290.062 444.959 287.79 447.314C286.65 448.488 288.146 448.57 288.517 449.058C290.244 451.364 292.037 453.612 293.797 455.892C294.45 456.744 295.532 457.735 294.276 458.686C293.152 459.537 292.235 458.454 291.483 457.669C286.757 452.686 282.131 447.62 277.339 442.703C271.77 436.992 266.044 431.43 260.417 425.769C258.839 424.174 252.196 418.687 250.197 417.463C249.429 416.992 248.478 416.1 248.991 415.116C249.61 413.926 250.817 414.62 251.469 415.141C254.692 417.711 257.022 415.786 259.707 413.984C267.87 408.505 277.248 406.067 286.617 403.654C293.012 402.422 299.349 400.679 305.885 400.546C318.501 400.29 329.944 396.563 340.446 389.695C341.23 389.704 342.024 389.72 342.809 389.728C342.561 391.811 340.974 392.819 339.454 393.877C331.878 398.389 323.855 401.637 315.056 402.935C307.777 404.009 300.398 403.447 293.086 405.133C285.336 406.918 277.644 408.844 270.258 411.662C266.292 413.182 261.946 414.67 259.352 418.596C257.873 420.612 260.013 421.282 260.897 422.075C268.341 428.786 275.273 436 282.197 443.24C283.783 444.901 285.84 446.851 286.848 442.513C287.071 441.562 288.112 440.769 288.84 439.967C295.086 433.124 303.199 428.463 311.536 425.67C325.259 421.067 338.785 416.017 352.161 410.554C359.507 407.554 365.72 402.53 372.04 397.786C372.396 397.522 372.396 396.786 372.561 396.274Z" fill="#5E5222"/>
<path d="M118.126 113.784C113.664 113.892 109.186 115.115 104.757 113.123C103.179 112.412 102.551 114.412 101.667 115.33C95.4622 121.792 87.9353 125.189 78.9708 125.189C69.8245 125.189 63.2973 117.42 64.3301 108.23C65.429 98.4703 70.1302 90.4044 75.7898 82.7681C86.0763 68.8841 96.148 54.7852 108.665 42.7771C124.669 27.422 142.003 13.9595 163.51 6.96784C173.673 3.66212 184.091 2.01752 194.741 1.00101C201.607 0.339859 208.465 -0.337815 215.273 0.182837C239.506 2.05058 263.392 5.54638 283.982 19.9924C299.845 31.1245 314.552 43.587 327.226 58.3884C338.686 71.7601 345.965 87.0821 349.559 104.189C350.89 110.511 349.336 116.33 343.875 120.296C339.364 123.569 334.439 122.619 329.961 120.073C326.772 118.255 324.764 117.445 321.294 120.569C315.238 126.007 306.703 125.329 298.862 120.115C296.466 118.528 294.02 116.925 291.98 114.925C289.832 112.817 288.543 113.354 286.816 115.354C283.916 118.718 280.446 121.181 276.017 122.445C272.431 123.47 269.184 123.057 266.193 121.239C264.599 120.263 263.541 120.354 262.211 121.379C251.66 129.503 241.53 126.734 231.533 120.189C229.823 119.065 228.038 118.049 226.287 116.982C225.799 115.974 225.006 115.404 223.891 115.296C222.238 113.668 220.594 112.049 218.941 110.421C217.892 109.065 217.264 107.371 215.76 106.379C214.596 103.239 213.257 102.412 210.861 105.578C208.705 108.421 205.854 110.627 202.59 112.131C196.055 115.139 188.586 118.396 182.596 113.363C177.25 108.867 174.036 110.883 169.839 113.652C168.591 114.47 167.195 115.057 165.865 115.751C159.445 119.115 152.786 121.197 145.441 119.544C144.573 118.47 143.152 118.594 142.07 117.982C136.393 116.445 132.32 112.462 128.049 108.784C127.363 108.784 126.768 108.991 126.413 109.635V109.652C123.232 110.206 121.356 113.387 118.101 113.792L118.126 113.784ZM280.933 114.701C282.809 113.139 285.056 112.156 286.948 110.536C288.848 108.916 291.443 108.883 293.236 111.04C296.664 115.164 300.928 117.875 305.877 119.85C311.487 122.09 318.072 121.123 321.368 116.33C323.624 113.04 325.475 113.404 328.011 115.47C329.854 116.966 331.977 117.958 334.266 118.503C341.338 120.197 347.477 114.553 346.354 107.379C343.239 87.5284 334.208 70.6527 320.443 56.2066C310.115 45.3721 299.226 35.1657 286.758 26.7857C280.966 22.8932 275.587 18.0586 269.3 15.2652C252.321 7.72816 234.268 3.91831 215.711 3.20758C208.531 2.93486 201.335 2.76957 194.031 4.30673C188.115 5.54638 181.811 5.62076 175.804 6.85214C168.6 8.33145 161.684 10.7694 155.314 14.571C154.232 13.2818 153.24 14.3727 152.414 14.8355C147.167 17.7363 141.764 20.4139 136.823 23.7692C127.916 29.8187 119.77 36.8764 111.987 44.3226C105.088 50.9175 98.5523 57.8843 93.1158 65.7354C84.3247 78.4376 72.6419 89.2308 68.8 105.206C66.9079 113.082 71.7413 121.66 79.8796 121.032C87.7949 120.42 94.826 117.123 100.428 111.23C101.866 109.718 103.08 108.487 105.699 109.346C112.656 111.644 119.109 110.478 125.025 105.867C128.784 102.933 129.693 103.305 132.328 107.511C132.998 108.586 133.865 109.338 134.791 110.164C137.814 112.892 141.706 113.9 145.127 115.801C148.828 117.858 152.992 117.825 156.264 116.553C162.684 114.057 169.112 111.263 174.796 107.123C177.176 105.388 178.977 105.355 181.266 108.189C184.356 112.016 189.131 113.685 194.221 112.032C201.417 109.702 206.713 105.553 211.357 99.9992C212.737 98.3464 214.075 98.2637 215.661 100.206C222.61 108.743 230.236 116.503 240.473 121.214C246.215 123.858 253.04 123.263 256.898 119.462C258.724 119.396 259.798 118.106 260.938 116.941C262.037 117.024 262.607 116.495 262.715 115.429C262.963 115.387 263.211 115.363 263.458 115.338C265.284 115.173 266.392 116.33 267.647 117.42C271.902 121.09 278.19 119.751 280.917 114.685L280.933 114.701Z" fill="#317F40"/>
</g>
</g>
<defs>
<clipPath id="clip0_4504_2015">
<rect width="521" height="498" fill="white"/>
</clipPath>
</defs>
</svg>
