<svg width="514" height="517" viewBox="0 0 514 517" fill="none" xmlns="http://www.w3.org/2000/svg">
<path d="M312.643 344.362C330.693 359.49 393.416 451.639 422.521 495.823C408.133 501.262 380.447 488.583 365.496 482.64C350.545 476.697 349.574 484.229 335.358 485.648C321.142 487.067 307.331 475.291 296.93 468.894C286.528 462.497 280.16 461.989 264.124 462.445C248.089 462.902 240.534 450.501 235.251 443.594C229.968 436.686 219.275 438.897 228.214 419.131C237.154 399.366 266.72 402.134 266.328 392.451C265.936 382.767 251.147 389.962 239.778 385.378C228.408 380.793 224.492 370.317 217.502 363.58C210.512 356.842 203.858 359.222 204.091 350.048C204.324 340.874 212.684 338.324 224.287 333.735C235.889 329.145 290.081 325.453 312.643 344.362Z" fill="#76A841"/>
<path d="M34.2298 208.767C55.8298 205.567 76.8965 207.434 84.7298 208.767C94.7296 208.767 115.629 211.067 119.229 220.267C123.729 231.766 123.729 225.267 130.729 226.767C137.729 228.267 170.729 237.767 184.729 242.767C198.729 247.767 208.729 249.767 213.229 273.267C217.729 296.767 185.229 282.267 170.729 282.267C156.229 282.267 155.729 285.767 142.229 292.767C128.729 299.767 104.229 287.767 89.7292 282.267C75.2292 276.767 50.2292 276.767 34.2298 276.767C18.2305 276.767 18.7298 264.767 9.22985 253.767C-0.270154 242.767 -0.270154 236.767 1.22985 229.267C2.72985 221.767 7.22985 212.767 34.2298 208.767Z" fill="#76A841"/>
<g clip-path="url(#clip0_4459_2202)">
<path d="M111.126 113.783C106.664 113.891 102.186 115.114 97.7573 113.122C96.1792 112.411 95.5512 114.411 94.6672 115.329C88.4622 121.791 80.9353 125.188 71.9708 125.188C62.8245 125.188 56.2973 117.419 57.3301 108.229C58.429 98.4693 63.1302 90.4034 68.7898 82.7671C79.0763 68.8831 89.148 54.7842 101.665 42.7761C117.669 27.421 135.003 13.9585 156.51 6.96686C166.673 3.66114 177.091 2.01654 187.741 1.00003C194.607 0.338883 201.465 -0.338791 208.273 0.181861C232.506 2.0496 256.392 5.5454 276.982 19.9914C292.845 31.1235 307.552 43.586 320.226 58.3874C331.686 71.7591 338.965 87.0811 342.559 104.188C343.89 110.51 342.336 116.329 336.875 120.295C332.364 123.568 327.439 122.618 322.961 120.072C319.772 118.254 317.764 117.444 314.294 120.568C308.238 126.006 299.703 125.328 291.862 120.114C289.466 118.527 287.02 116.924 284.98 114.924C282.832 112.816 281.543 113.353 279.816 115.353C276.916 118.717 273.446 121.18 269.017 122.444C265.431 123.469 262.184 123.056 259.193 121.238C257.599 120.262 256.541 120.353 255.211 121.378C244.66 129.502 234.53 126.733 224.533 120.188C222.823 119.064 221.038 118.048 219.287 116.981C218.799 115.973 218.006 115.403 216.891 115.295C215.238 113.667 213.594 112.048 211.941 110.42C210.892 109.064 210.264 107.37 208.76 106.378C207.596 103.238 206.257 102.411 203.861 105.577C201.705 108.42 198.854 110.626 195.59 112.13C189.055 115.138 181.586 118.395 175.596 113.362C170.25 108.866 167.036 110.882 162.839 113.651C161.591 114.469 160.195 115.056 158.865 115.75C152.445 119.114 145.786 121.196 138.441 119.543C137.573 118.469 136.152 118.593 135.07 117.981C129.393 116.444 125.32 112.461 121.049 108.783C120.363 108.783 119.768 108.99 119.413 109.634V109.651C116.232 110.205 114.356 113.386 111.101 113.791L111.126 113.783Z" fill="#379E4E"/>
<path d="M319.258 351.043C323.274 344.266 326.86 337.2 332.528 331.531C345.714 318.341 360.504 307.994 379.358 304.631C400.592 300.846 419.174 307.209 436.318 319.267C455.883 333.027 468.285 351.853 474.795 374.613C478.745 388.422 474.382 400.348 464.517 410.182C457.428 417.248 445.605 415.257 436.037 408.885C430.154 404.968 425.428 399.877 422.165 393.546C421.132 391.546 420.43 391.249 418.273 392.662C410.523 397.753 401.517 396.86 394.172 390.662C392.916 389.604 391.925 389.175 390.752 390.662C385.018 397.902 377.557 399.877 368.782 397.827C367.906 396.885 366.808 396.431 365.552 396.282C363.205 393.852 360.156 392.1 358.339 389.183C357.488 387.819 355.736 387.34 354.29 388.042C348.408 390.918 342.161 391.398 335.808 389.737L333.436 389.703C332.098 388.786 330.817 387.778 329.421 386.96C321.283 382.183 315.664 375.96 316.78 365.671C316.78 365.671 317.432 355.654 319.25 351.051L319.258 351.043Z" fill="#4B8214"/>
<path d="M323.109 275.532C318.813 274.408 315.012 276.78 311.013 277.491C300.875 279.301 292.597 276.07 286.945 267.111C285.863 265.392 284.822 265.789 283.202 266.458C276.857 269.078 270.181 270.004 263.53 268.078C252.938 265.004 248.228 256.508 245.849 246.715C241.941 230.583 245.527 215.294 252.244 200.526C262.348 178.311 279.517 162.873 300.016 150.617C311.922 143.493 324.53 138.113 338.097 135.031C353.646 131.494 369.163 131.13 384.919 134.056C398.989 136.667 412.597 140.394 425.065 147.485C449.62 161.444 471.986 178.055 488.238 201.699C496.74 214.062 505.49 226.318 509.662 241.062C515.156 260.483 515.867 279.846 509.257 299.185C506.985 305.829 503.887 312.011 499.549 317.573C491.188 328.275 477.035 328.193 469.243 317.077C464.682 310.573 461.121 303.499 460.427 295.334C460.279 293.565 460.072 292.094 457.428 293.011C441.036 298.697 435.302 290.97 427.833 281.574C425.47 278.598 423.718 275.136 421.744 271.863C418.794 266.979 416.547 266.442 410.862 268.243C400.179 271.623 390.116 276.516 379.747 280.648C369.725 284.648 359.438 286.979 348.598 286.507C347.631 286.202 346.673 285.888 345.706 285.582C339.105 283.549 332.792 281.036 328.397 275.293C327.579 274.218 326.406 273.904 325.1 274.028C323.952 273.888 323.572 274.764 323.117 275.532H323.109Z" fill="#5F972B"/>
<path d="M323.109 275.532C318.813 274.408 315.012 276.78 311.013 277.491C300.875 279.301 292.597 276.07 286.945 267.111C285.863 265.392 284.822 265.789 283.202 266.458C276.857 269.078 270.181 270.004 263.53 268.078C252.938 265.004 248.228 256.508 245.849 246.715C241.941 230.583 245.527 215.294 252.244 200.526C262.348 178.311 279.517 162.873 300.016 150.617C311.922 143.493 324.53 138.113 338.097 135.031C353.646 131.494 369.163 131.13 384.919 134.056C398.989 136.667 412.597 140.394 425.065 147.485C449.62 161.444 471.986 178.055 488.238 201.699C496.74 214.062 505.49 226.318 509.662 241.062C515.157 260.483 515.867 279.846 509.257 299.185C506.985 305.829 503.887 312.011 499.549 317.573C491.188 328.275 477.035 328.193 469.243 317.077C464.683 310.573 461.122 303.499 460.427 295.334C460.279 293.565 460.072 292.094 457.428 293.011C441.036 298.697 435.302 290.97 427.833 281.574C425.47 278.598 423.718 275.136 421.744 271.863C418.794 266.979 416.547 266.442 410.862 268.243C400.179 271.623 390.116 276.516 379.747 280.648C369.725 284.648 359.438 286.979 348.598 286.507C347.631 286.202 346.673 285.888 345.706 285.582C339.105 283.549 332.792 281.036 328.397 275.293C327.579 274.218 326.406 273.904 325.1 274.028C323.952 273.888 323.572 274.764 323.117 275.532H323.109ZM488.602 320.308C491.122 320.664 492.981 319.697 494.798 317.887C503.102 309.573 506.721 298.887 509.018 287.945C511.992 273.747 511.075 259.508 507.448 245.31C505.035 235.864 501.21 227.269 495.872 219.277C490.932 211.872 486.156 204.302 480.579 197.385C475.266 190.798 469.863 184.212 463.319 178.666C453.603 170.419 443.333 162.939 432.732 155.906C426.932 152.055 420.744 148.849 414.357 146.006C409.069 143.651 403.517 142.312 398.072 140.551C389.323 137.733 380.308 136.155 371.27 135.477C363.164 134.874 354.993 135.221 346.739 136.585C334.164 138.667 322.357 142.609 310.947 147.882C307.493 149.477 303.387 150.609 301.09 154.237C295.852 154.865 292.406 158.708 288.523 161.568C280.054 167.799 272.528 175.055 265.786 183.195C262.96 186.608 260.175 190.146 258.407 194.005C253.929 203.782 250.104 213.773 247.856 224.476C245.411 236.095 247.997 246.153 253.276 256.219C257.424 264.136 268.892 268.392 278.146 264.252C285.888 260.789 286.35 261.07 290.407 267.062C294.398 272.962 302.536 275.871 309.964 274.599C314.533 273.813 318.813 272.119 323.299 271.111C326.901 270.309 329.785 270.574 331.743 274.128C333.048 276.491 335.296 277.921 337.51 279.309C345.5 284.309 354.373 283.979 363.007 282.516C369.361 281.433 375.467 278.846 381.548 276.408C391.661 272.359 401.551 267.747 411.969 264.45C417.323 262.756 420.653 263.326 422.743 267.004C426.288 273.243 430.155 279.169 434.872 284.722C440.532 291.383 446.877 292.656 454.627 290.549C462.394 288.433 462.386 288.392 463.79 296.425C463.865 296.83 463.741 297.317 463.922 297.648C465.74 300.97 464.228 305.862 468.748 307.904C468.69 309.821 469.632 311.143 471.243 312.061C472.457 318.606 481.62 323.937 487.784 321.631C488.164 321.49 488.337 320.763 488.602 320.317V320.308Z" fill="#5B8B2F"/>
<path d="M319.26 351.043C323.275 344.266 326.861 337.2 332.529 331.531C345.716 318.341 360.505 307.994 379.359 304.631C400.593 300.846 419.175 307.209 436.319 319.267C455.884 333.027 468.286 351.853 474.797 374.613C478.746 388.422 474.384 400.348 464.518 410.182C457.429 417.248 445.606 415.257 436.038 408.885C430.156 404.968 425.43 399.877 422.166 393.546C421.133 391.546 420.431 391.249 418.275 392.662C410.525 397.753 401.519 396.86 394.174 390.662C392.918 389.604 391.926 389.175 390.753 390.662C385.019 397.902 377.558 399.877 368.784 397.827C367.908 396.885 366.809 396.431 365.553 396.282C363.207 393.852 360.158 392.1 358.34 389.183C357.489 387.819 355.738 387.34 354.292 388.042C348.409 390.918 342.303 391.902 335.95 390.241L333.446 389.703C332.108 388.786 330.827 387.778 329.431 386.96C321.292 382.183 315.674 375.96 316.789 365.671C316.789 365.671 317.442 355.654 319.26 351.051V351.043ZM392.059 306.3C384.3 306.788 376.724 307.573 369.263 310.44C358.167 314.713 348.806 321.391 339.94 328.986C330.645 336.961 324.473 347.018 321.325 358.787C320.07 363.481 319.384 368.481 321.549 373.241C326.547 384.232 342.807 390.117 353.358 383.869C357.266 381.555 358.34 382.249 360.91 386.133C368.511 397.637 382.003 398.926 389.844 386.307C391.521 383.613 392.86 383.679 394.322 385.935C398.883 392.96 405.443 392.728 412.565 391.579C416.159 391.001 418.721 387.96 422.447 388.051C427.537 396.802 433.725 404.34 443.21 408.827C450.993 412.505 457.091 412.265 463.23 406.819C464.824 405.406 465.964 403.439 467.154 401.621C470.252 396.918 472.805 392.059 472.938 386.158C473.152 376.588 469.996 367.96 466.03 359.53C461.048 348.936 454.562 339.44 446.251 331.076C440.574 325.374 434.138 320.738 427.239 316.977C418.324 312.118 409.327 306.854 398.577 306.978C397.58 306.834 396.471 306.598 395.248 306.267L392.05 306.292L392.059 306.3Z" fill="#49781B"/>
<path d="M111.125 113.783C114.38 113.378 116.248 110.196 119.429 109.643C119.346 112.494 115.868 112.882 115.281 115.361C114.306 115.395 113.538 115.692 112.72 116.378C104.234 123.436 94.7905 129.039 85.2972 134.617C77.2994 139.32 69.4007 144.27 62.7826 150.939C54.8922 158.89 47.4066 167.096 41.0694 176.46C35.1041 185.269 29.4445 193.699 28.9405 204.963C28.5852 212.946 27.7672 212.913 35.8973 212.74C42.8954 212.732 49.8605 213.575 56.8255 213.996C60.5766 214.227 61.0971 213.31 60.7831 210.294C60.0148 202.988 62.4439 196.236 64.7325 189.558C66.1867 185.319 68.3183 181.269 70.4913 177.319C75.019 169.096 81.3313 162.344 88.2055 156.014C92.8489 151.741 97.0296 147.435 103.639 145.683C115.628 142.501 127.36 138.427 139.985 138.51C146.306 138.551 152.635 138.551 158.963 138.361C167.292 138.113 175.447 135.931 183.808 136.08C188.633 136.163 193.326 135.634 198.06 134.584C209.198 132.113 214.965 126.411 216.931 115.295C218.055 115.395 218.848 115.965 219.327 116.981C218.121 120.023 217.039 123.122 215.692 126.105C212.156 133.948 204.645 135.551 197.408 137.601C191.541 139.262 185.436 138.94 179.495 139.303C164.598 140.229 149.743 141.774 134.763 142.03C122.973 142.237 111.348 145.824 100.359 150.328C93.1133 153.295 88.4617 159.914 83.0829 165.328C78.4891 169.947 74.5894 175.22 72.3255 181.476C71.2845 182.335 70.8466 183.492 70.6896 184.79C68.0539 188.121 67.0459 192.054 66.4263 196.145C66.1701 196.484 65.9057 196.823 65.6496 197.162C65.6083 197.443 65.5587 197.732 65.5174 198.013C64.088 202.509 64.0798 207.145 64.0798 211.798C64.0798 213.98 64.9556 214.806 67.0211 214.608C68.7397 214.442 70.2517 215.104 71.7306 215.839C72.4907 216.219 73.9779 216.046 73.5731 217.459C73.2757 218.484 72.0611 218.707 71.1192 218.525C63.6749 217.062 56.115 218.351 48.6046 217.376C41.0364 216.384 33.3195 216.541 25.6686 216.137C24.4045 216.07 22.5951 216.798 22.1159 215.004C21.5953 213.013 23.2891 212.938 24.6854 212.781C25.4621 212.699 26.0074 212.194 25.8586 211.401C24.892 206.294 27.759 201.484 27.0071 196.393C29.114 190.129 31.981 184.269 36.0047 179.005C37.1944 177.997 37.6571 176.666 37.7315 175.162C41.97 172.046 44.2504 167.278 47.5388 163.361C58.858 149.89 72.0611 138.915 87.4124 130.262C95.782 125.543 104.482 121.072 111.133 113.775L111.125 113.783Z" fill="#5E5222"/>
<path d="M291.374 325.325C292.836 324.961 293.952 324.201 294.447 322.705C300.388 319.085 303.784 313.193 307.559 307.714C313.467 299.152 316.615 289.201 320.961 279.855C321.638 278.392 321.961 276.764 323.117 275.541C323.58 274.772 323.96 273.896 325.108 274.036C324.943 279.251 322.762 283.764 320.192 288.144C307.477 322.325 285.863 344.432 245.799 341.787C249.839 347.002 254.888 349.647 259.011 353.341C261.415 358.489 266.372 361.332 269.933 365.44C271.453 367.192 273.023 369.374 275.031 370.126C278.039 371.25 278.658 367.481 280.575 366.184C290.167 359.688 298.421 351.671 306.56 343.49C311.178 338.845 316.747 335.25 321.077 330.192C325.943 324.507 330.619 318.713 334.949 312.598C340.741 304.416 344.5 295.532 345.739 285.582C346.706 285.887 347.664 286.202 348.631 286.507C346.45 301.424 338.609 313.449 329.487 324.953C324.695 330.994 319.465 336.506 313.773 341.639C313.302 342.06 313.095 342.779 312.756 343.358C311.831 344.035 310.906 344.705 309.98 345.374C306.799 347.49 304.387 350.407 301.842 353.192C299.339 353.771 298.628 356.366 296.719 357.737C291.729 361.316 286.92 365.2 282.343 369.299C277.601 373.555 277.766 373.721 281.484 378.861C281.963 379.522 282.36 380.258 282.665 381.018C283.095 382.059 283.417 383.448 282.467 384.076C281.302 384.844 280.451 383.506 279.848 382.704C275.841 377.365 271.445 372.365 266.884 367.498C260.539 360.729 253.748 354.432 246.766 348.324C244.824 345.126 241.759 342.969 239.297 340.242C238.528 339.391 237.107 338.333 238.091 337.168C239.016 336.077 240.462 336.771 241.305 337.787C242.47 339.201 243.767 338.878 245.345 338.771C249.451 338.498 253.582 338.531 257.697 338.589C269.347 338.738 279.674 335.011 288.879 328.002C289.845 327.267 290.564 326.217 291.399 325.308L291.374 325.325Z" fill="#5E5222"/>
<path d="M256.467 115.362C256.219 115.387 255.971 115.411 255.723 115.453C254.674 115.42 254.128 115.982 253.947 116.965C252.806 118.13 251.732 119.42 249.906 119.486C245.618 119.593 241.975 118.593 238.595 115.453C235.125 112.23 233.82 108.85 234.117 104.238C234.307 101.263 231.572 100.213 228.904 102.304C226.78 103.974 224.607 104.263 222.368 103.503C215.709 101.238 211.784 94.6019 212.652 87.6351C212.817 86.3293 213.115 84.8913 211.644 83.9162C210.355 83.0567 209.339 83.7674 208.182 84.1971C205.877 85.0401 204.134 86.9492 201.556 87.3376C196.838 88.0483 194.301 84.9161 192.352 81.7096C190.303 78.3377 187.774 74.561 191.178 70.3792C192.409 68.8668 192.798 66.8917 191.418 65.5033C190.286 64.3711 188.691 65.0653 187.328 66.0487C174.935 74.9824 155.287 73.9907 143.803 64.1149C133.409 55.1729 130.046 46.3135 136.697 30.8179C139.448 24.3966 144.15 19.7685 148.314 14.5868C154.676 10.7852 161.599 8.34727 168.804 6.86795C174.819 5.62831 181.123 5.56219 187.031 4.32254C194.334 2.79365 201.523 2.95067 208.711 3.22339C227.268 3.93412 245.313 7.74397 262.3 15.281C268.587 18.0661 273.966 22.9007 279.758 26.8015C292.226 35.1815 303.115 45.3879 313.443 56.2224C327.216 70.6685 336.239 87.5442 339.353 107.395C340.477 114.568 334.338 120.213 327.266 118.519C324.977 117.973 322.854 116.982 321.011 115.486C318.475 113.428 316.632 113.064 314.368 116.345C311.072 121.147 304.487 122.106 298.877 119.866C293.919 117.891 289.656 115.18 286.235 111.056C284.443 108.899 281.84 108.924 279.948 110.552C278.056 112.172 275.8 113.147 273.933 114.717C272.305 114.635 271.157 115.643 269.876 116.42C268.025 117.544 266.679 117.106 265.464 115.213C262.143 110.015 260.292 110.097 256.467 115.37V115.362Z" fill="#49C466"/>
<path d="M216.897 115.303C214.931 126.419 209.164 132.113 198.026 134.592C193.292 135.642 188.599 136.171 183.774 136.088C175.413 135.939 167.249 138.129 158.929 138.369C152.609 138.551 146.28 138.559 139.951 138.518C127.335 138.435 115.594 142.509 103.605 145.691C96.9956 147.443 92.8149 151.749 88.1715 156.022C81.2974 162.352 74.9767 169.104 70.4573 177.327C68.2843 181.277 66.1527 185.327 64.6985 189.566C62.4099 196.252 59.9808 202.996 60.7492 210.302C61.0631 213.318 60.5426 214.235 56.7915 214.004C49.8265 213.583 42.8614 212.74 35.8633 212.748C36.1772 211.359 37.3257 210.64 38.3915 210.335C42.6135 209.136 45.2409 206.864 47.1991 202.74C51.0741 194.599 54.0154 186.847 58.6505 179.062C59.4272 177.757 60.1956 176.41 59.1132 174.881C64.6076 171.716 68.1026 165.724 69.9202 159.955C71.267 159.476 72.0767 159.236 73.0103 158.22C80.5703 150.038 89.006 141.947 99.78 138.683C109.273 135.799 119.188 134.377 129.202 134.402C135.374 134.584 141.48 133.948 147.536 132.815C149.213 134.27 151.295 133.774 153.055 133.51C162.763 132.039 172.513 132.89 182.229 132.84C189.054 132.799 195.531 131.22 201.918 129.287C206.966 127.758 209.684 124.906 211.874 120.039C213.138 117.237 213.526 115.229 210.197 114.526C210.626 113.105 210.775 111.56 211.923 110.452L216.872 115.328L216.897 115.303Z" fill="#746228"/>
<path d="M138.456 119.544C145.809 121.197 152.46 119.114 158.88 115.75C160.21 115.056 161.607 114.469 162.854 113.651C167.051 110.883 170.265 108.866 175.611 113.362C181.593 118.395 189.07 115.139 195.606 112.131C198.869 110.635 201.72 108.42 203.876 105.577C206.272 102.412 207.619 103.238 208.776 106.379C208.098 111.321 205.43 115.271 202.422 119.04C201.472 120.23 200.282 120.957 198.605 121.147C190.169 122.073 181.758 123.073 173.232 123.023C165.159 122.982 157.087 122.494 149.007 123.816C144.702 124.519 140.191 123.94 135.572 123.94C136.398 122.015 138.233 121.321 138.464 119.552L138.456 119.544Z" fill="#F3F3F3"/>
<path d="M138.457 119.543C138.225 121.312 136.391 122.006 135.565 123.932C140.192 123.932 144.703 124.51 148.999 123.808C157.08 122.486 165.16 122.973 173.224 123.014C181.751 123.064 190.162 122.064 198.598 121.138C200.275 120.957 201.465 120.229 202.415 119.031C205.422 115.271 208.091 111.312 208.768 106.37C210.272 107.37 210.9 109.056 211.949 110.411C210.793 111.527 210.652 113.064 210.223 114.486C209.677 115.081 208.992 115.593 208.595 116.271C205.422 121.659 201.539 125.733 194.483 124.485C193.723 124.353 192.88 124.816 192.07 124.866C185.238 125.279 178.347 126.353 171.572 125.89C162.632 125.279 153.792 126.386 144.901 126.419C141.035 126.436 136.879 126.262 133.062 127.312C125.873 129.279 118.652 130.551 111.191 130.188C111.274 128.469 112.348 127.923 113.885 127.725C117.636 127.229 121.362 126.485 125.13 126.155C130.699 125.667 134.136 122.981 135.086 117.965C136.168 118.577 137.589 118.453 138.457 119.527V119.543Z" fill="#5E5222"/>
<path d="M136.507 117.684C135.449 123.237 131.641 126.212 125.469 126.758C121.296 127.121 117.165 127.956 113.009 128.502C111.315 128.725 112.133 129.667 112.043 131.568C109.465 130.154 107.672 127.964 109.341 126.047C110.927 124.221 112.852 122.766 114.786 121.303C119.446 117.775 118.504 118.419 113.695 115.874C114.348 113.122 119.123 110.254 119.214 107.097H120.131C120.883 107.072 120.652 106.89 121.048 106.18C125.783 110.262 130.219 115.981 136.507 117.684Z" fill="#746228"/>
<path d="M256.467 115.361C260.292 110.08 262.143 110.006 265.464 115.204C266.679 117.097 268.026 117.535 269.876 116.411C271.157 115.634 272.306 114.626 273.933 114.708C271.198 119.774 264.911 121.113 260.664 117.444C259.408 116.361 258.301 115.204 256.475 115.361H256.467Z" fill="#49C466"/>
<path d="M253.945 116.965C254.119 115.973 254.664 115.42 255.722 115.453C255.614 116.527 255.044 117.056 253.945 116.965Z" fill="#49C466"/>
<path d="M471.252 312.06C469.641 311.143 468.707 309.821 468.757 307.903C468.757 303.226 468.889 298.548 468.748 293.879C468.575 288.366 465.65 285.631 460.164 285.598C454.686 285.556 449.299 285.598 443.846 284.16C429.42 280.35 425.694 271.755 427.809 258.797C428.321 255.681 428.974 252.582 426.363 250.367C423.777 248.169 420.77 249.16 417.837 250.284C411.095 252.863 405.055 249.888 402.634 242.979C400.965 238.219 397.032 237.219 393.496 240.723C391.158 243.045 388.968 245.367 385.407 245.979C380.888 246.756 376.443 246.962 371.981 245.896C361.785 243.458 355.985 236.119 356.82 226.938C357.142 223.384 356.828 220.781 353.887 219.301C351.144 217.921 348.863 220.103 347.12 221.938C344.253 224.971 340.75 225.888 336.99 225.12C331.835 224.062 327.415 221.144 324.746 216.715C321.986 212.12 320.16 206.723 322.482 201.418C323.581 198.913 325.225 196.847 323.3 194.36C321.292 191.765 318.615 192.261 315.806 193.186C310.122 195.054 302.653 192.616 299.819 187.79C296.53 182.186 295.043 176.005 296.497 169.583C297.67 164.385 299.538 159.344 301.099 154.237C303.396 150.617 307.503 149.485 310.956 147.881C322.366 142.609 334.173 138.667 346.748 136.584C355.002 135.22 363.165 134.873 371.279 135.477C380.309 136.146 389.332 137.733 398.081 140.551C403.535 142.311 409.079 143.65 414.366 146.005C420.761 148.848 426.942 152.055 432.742 155.906C443.342 162.939 453.604 170.426 463.328 178.666C469.872 184.211 475.276 190.798 480.588 197.385C486.165 204.302 490.933 211.872 495.882 219.277C501.219 227.277 505.044 235.871 507.457 245.309C511.084 259.507 512.001 273.747 509.027 287.945C506.73 298.895 503.111 309.581 494.808 317.886C492.998 319.705 491.139 320.672 488.611 320.308C482.703 317.804 475.978 317.035 471.252 312.06Z" fill="#7BC337"/>
<path d="M320.175 288.135C322.753 283.763 324.934 279.251 325.091 274.028C326.405 273.896 327.57 274.218 328.388 275.292C332.784 281.036 339.096 283.548 345.698 285.582C344.458 295.523 340.699 304.416 334.907 312.598C330.578 318.713 325.909 324.506 321.035 330.192C316.705 335.25 311.137 338.845 306.518 343.49C298.38 351.671 290.134 359.688 280.533 366.183C278.616 367.481 277.997 371.249 274.989 370.125C272.982 369.373 271.412 367.192 269.891 365.44C266.33 361.332 261.373 358.481 258.969 353.341C264.157 353.175 269.536 354.266 274.452 352.299C278.575 350.655 282.334 348.068 286.251 345.903C289.514 345.721 291.786 343.556 293.893 341.547C297.471 338.134 302.494 336.11 304.395 331.027C308.815 330.589 310.98 326.878 313.665 324.201C321.349 316.556 328.074 308.135 332.048 297.862C332.701 296.168 333.246 293.747 331.577 292.929C327.892 291.11 324.794 287.689 320.151 288.135H320.175ZM320.828 326.73C320.754 326.093 320.572 325.432 319.928 325.606C318.556 325.977 317.647 327.019 317.143 328.283C316.928 328.812 317.507 329.316 318.102 329.242C319.605 329.052 320.415 328.044 320.828 326.73Z" fill="#746228"/>
<path d="M471.252 312.061C475.978 317.036 482.703 317.805 488.611 320.309C488.347 320.763 488.173 321.482 487.793 321.623C481.638 323.929 472.467 318.598 471.252 312.053V312.061Z" fill="#7BC337"/>
<path d="M398.592 306.987C409.341 306.863 418.339 312.127 427.254 316.986C434.145 320.747 440.589 325.383 446.265 331.085C454.577 339.44 461.063 348.944 466.045 359.539C470.011 367.977 473.167 376.597 472.952 386.167C472.82 392.068 470.267 396.927 467.169 401.629C465.971 403.439 464.831 405.415 463.244 406.828C457.105 412.274 451.008 412.514 443.225 408.836C433.74 404.348 427.551 396.811 422.462 388.059C418.67 383.878 419.231 378.721 419.215 373.68C419.198 366.994 416.794 365.308 410.531 367.589C407.449 368.713 404.855 368.456 402.335 365.895C398.658 362.151 398.493 357.647 398.559 352.92C398.617 348.143 397.51 347.267 393.04 348.151C384.282 349.878 374.194 341.639 373.814 332.408C373.459 323.788 377.276 317.292 383.778 311.879C388.843 308.425 398.601 306.995 398.601 306.995L398.592 306.987Z" fill="#61A420"/>
<path d="M331.627 393.877C333.147 392.819 334.734 391.819 334.982 389.729C341.253 391.365 347.408 390.927 353.225 388.15C355.29 387.167 357.05 386.638 358.256 388.58C360.074 391.497 363.346 393.588 365.692 396.018C365.527 396.53 365.221 398.233 364.866 398.497C358.554 403.241 352.382 407.894 345.037 410.893C331.66 416.356 317.449 421.992 303.725 426.596C295.397 429.389 288.49 432.976 282.244 439.819C281.508 440.62 279.988 442.174 279.765 443.124C278.765 447.463 275.956 444.893 274.37 443.24C267.446 436 260.514 428.786 253.07 422.075C252.186 421.282 250.046 420.612 251.525 418.596C254.152 418.331 257.73 419.538 259.936 421.637C263.108 424.662 266.735 427.182 270.677 429.075C273.965 430.653 276.377 431.753 279.831 429.009C288.581 422.034 297.545 415.439 308.906 412.827C312.938 411.902 317.292 411.662 321.018 409.464C322.811 409.563 324.373 408.976 326.083 408.414C330.446 406.976 334.288 404.1 339.014 403.745C339.319 403.456 339.625 403.166 339.931 402.877L339.898 402.902C342.426 403.026 344.615 402.505 346.061 399.918C333.602 398.919 335.643 398.125 331.627 393.886V393.877Z" fill="#746228"/>
<path d="M115.273 115.361C119.619 117.659 119.694 118.056 115.488 121.246C113.736 122.568 112.01 123.882 110.572 125.527C109.068 127.254 108.862 128.931 111.192 130.204C118.661 130.568 125.882 129.295 133.062 127.328C136.879 126.279 141.035 126.452 144.902 126.436C153.792 126.403 162.632 125.295 171.572 125.907C178.347 126.37 185.238 125.303 192.071 124.882C192.881 124.832 193.732 124.37 194.483 124.502C201.539 125.75 205.423 121.667 208.595 116.287C208.992 115.609 209.678 115.097 210.223 114.502C213.553 115.204 213.991 117.213 212.726 120.014C210.529 124.882 206.992 128.56 201.944 130.088C195.557 132.022 189.08 133.601 182.255 133.642C172.531 133.7 162.789 132.84 153.081 134.312C151.321 134.576 149.239 135.08 147.554 133.617C148.198 133.419 149.025 133.27 148.711 132.336C148.347 131.229 147.281 130.948 146.356 131.188C142.869 132.097 139.176 131.369 135.838 132.229C133.657 132.791 130.625 132.535 129.22 135.212C119.198 135.188 109.291 136.617 99.7981 139.493C89.0241 142.766 80.5884 150.022 73.0284 158.204C72.0865 159.22 71.2768 160.286 69.9301 160.766C64.7827 164.179 61.767 169.096 59.9493 174.864C61.0317 176.393 60.2633 177.749 59.4866 179.046C54.8515 186.831 51.9101 195.41 48.0351 203.55C46.077 207.674 42.6234 209.947 38.4014 211.145C37.3355 211.451 36.1871 211.343 35.8731 212.732C27.7348 212.897 28.561 212.938 28.9163 204.955C29.4203 193.691 35.0799 185.261 41.0453 176.451C47.3824 167.088 54.868 158.881 62.7585 150.931C69.3765 144.253 77.2752 139.311 85.2731 134.609C94.7664 129.031 104.21 123.427 112.695 116.37C113.513 115.692 114.282 115.386 115.257 115.353L115.273 115.361ZM48.6713 183.707C49.0184 183.443 49.5802 183.211 49.8446 182.798C51.7614 179.798 53.6369 176.774 55.4794 173.732C55.8512 173.112 55.876 172.336 55.1985 171.898C54.5623 171.484 53.7278 171.633 53.356 172.236C51.4061 175.36 49.4976 178.509 47.7047 181.724C47.3576 182.344 47.3494 183.385 48.6713 183.716V183.707Z" fill="#937C37"/>
<path d="M320.176 288.135C324.82 287.689 327.918 291.111 331.603 292.929C333.272 293.747 332.727 296.177 332.074 297.863C328.1 308.135 321.374 316.556 313.691 324.201C311.005 326.879 308.841 330.581 304.42 331.027C299.711 332.515 296.48 336.184 292.688 339.011C290.143 340.903 286.541 341.862 286.276 345.895C282.36 348.06 278.601 350.647 274.478 352.291C269.554 354.258 264.175 353.167 258.995 353.333C254.872 349.63 249.832 346.994 245.783 341.779C285.847 344.424 307.461 322.317 320.176 288.135ZM317.64 313.598C316.979 311.689 316.12 312.292 315.442 313.036C313.426 315.267 311.485 317.556 309.51 319.829C308.642 320.829 307.932 322.209 309.155 323.027C310.237 323.746 311.047 322.308 311.617 321.432C312.228 320.482 313.22 319.92 313.881 319.11C315.318 317.342 316.475 315.333 317.64 313.59V313.598Z" fill="#937C37"/>
<path d="M332.454 393.877C336.469 398.125 334.429 398.91 346.888 399.91C345.442 402.497 343.253 403.017 340.725 402.893C336.825 401.373 324.184 405.497 321.887 409.058C321.821 409.158 321.854 409.323 321.845 409.463C318.119 411.67 313.757 411.901 309.733 412.827C298.372 415.439 289.416 422.033 280.658 429.009C277.204 431.761 274.056 431.273 270.768 429.694C266.827 427.802 263.126 425.372 259.953 422.347C257.747 420.24 255.21 419.182 252.352 418.596C254.954 414.67 259.292 413.182 263.258 411.662C270.644 408.835 278.336 406.918 286.086 405.133C293.398 403.447 300.768 404.001 308.056 402.935C316.847 401.645 324.878 398.398 332.454 393.877Z" fill="#937C37"/>
<path d="M278.295 54.4785C282.418 55.1727 283.765 59.0486 286.879 60.4949C288.094 61.0569 289.35 62.5197 290.515 61.3296C291.729 60.0817 290.143 58.8751 289.432 57.8255C288.226 56.0404 286.879 54.3545 285.252 52.1645C289.862 51.5281 290.969 55.1644 292.927 57.3379C294.704 59.3048 295.158 61.8668 294.092 64.2552C293.531 65.5031 292.118 66.6188 290.416 66.4287C285.822 65.8998 279.435 59.7428 278.295 54.495V54.4785Z" fill="#317F40"/>
<path d="M220.484 30.4872C224.335 31.1401 226.367 34.1566 229.408 35.3962C230.424 35.8095 231.647 36.669 232.44 35.8095C233.299 34.8756 232.192 33.8508 231.539 33.0327C229.738 30.7352 227.904 28.4708 225.797 25.8262C230.556 26.7352 235.852 31.6856 236.579 35.4376C237.141 38.3053 235.53 40.2391 232.564 40.2722C227.995 40.3218 221.947 35.5615 220.484 30.4872Z" fill="#317F40"/>
<path d="M281.228 68.5438C281.203 70.8826 279.964 72.2132 278.286 72.9569C275.791 74.0644 273.321 72.7999 271.9 71.1884C269.404 68.362 267.207 65.1224 266.496 61.2382C266.356 60.4944 266.438 59.2299 266.884 58.9572C267.917 58.3126 268.743 59.3374 269.157 60.1307C270.478 62.6844 271.767 65.2381 273.742 67.3868C274.494 68.205 275.081 69.395 276.353 68.8413C277.716 68.2463 276.948 67.0149 276.873 65.9653C276.758 64.3455 274.287 62.2133 276.444 61.3125C278.964 60.263 278.683 63.7588 279.897 65.0232C280.839 65.9984 281.319 67.3785 281.219 68.5521L281.228 68.5438Z" fill="#317F40"/>
<path d="M251.393 88.7096C251.55 93.4037 248.162 95.6351 244.196 93.85C240.412 92.1393 236.793 85.1725 237.504 81.0321C237.62 80.3379 237.644 79.4866 238.487 79.5032C239.536 79.5197 240.272 80.3709 240.544 81.2883C241.247 83.6766 242.106 85.9989 243.684 87.9328C244.568 89.0154 245.394 90.941 247.163 90.1228C248.815 89.3625 248.336 87.5691 248.005 86.0568C247.799 85.1229 247.609 84.1808 247.534 83.2386C247.493 82.7263 247.592 81.9907 248.294 82.0238C248.732 82.0403 249.41 82.437 249.542 82.8172C250.269 84.875 250.864 86.9824 251.393 88.7096Z" fill="#317F40"/>
<path d="M138.96 84.7259C137.126 84.759 134.184 80.3706 135.713 77.098C137.117 74.0815 139.365 71.6766 141.81 69.4617C142.314 69.0072 142.893 68.3461 143.57 68.7593C144.454 69.3047 144.107 70.2138 143.694 70.9245C142.529 72.9328 141.339 74.9245 140.117 76.8914C139.679 77.6021 139.092 78.288 139.579 79.131C140.183 80.1475 141.257 79.9244 142.174 79.7756C144.008 79.4698 145.363 78.3211 146.644 77.0401C147.404 76.2798 148.321 75.2716 149.436 76.2302C150.411 77.0732 150.056 78.3459 149.387 79.2302C147.197 82.1309 144.504 84.3292 138.968 84.7342L138.96 84.7259Z" fill="#317F40"/>
<path d="M107.556 93.9155C108.952 94.1056 110.332 93.5105 111.703 92.8411C112.554 92.4279 113.546 91.8577 114.182 93.0808C114.628 93.9403 114.05 94.6758 113.463 95.2708C110.679 98.1138 107.333 98.5766 103.623 97.5931C100.343 96.7254 98.3351 94.6345 97.9881 91.304C97.5667 87.3454 99.7314 84.519 102.689 82.2463C103.863 81.3455 104.466 81.9901 104.474 83.2628C104.49 84.5603 103.689 85.5685 103.094 86.6429C100.706 90.9817 102.417 93.8824 107.547 93.9072L107.556 93.9155Z" fill="#317F40"/>
<path d="M128.294 73.2793C123.452 73.3702 121.486 70.6513 122.915 65.701C123.617 63.2712 125.543 61.5853 127.046 59.6763C127.575 59.0069 128.691 58.2631 129.575 58.8581C130.607 59.5523 129.88 60.6019 129.434 61.4118C128.517 63.0646 127.501 64.6596 126.6 66.3208C126.055 67.329 125.815 68.3951 126.823 69.3125C127.666 70.081 128.567 69.8414 129.5 69.4695C131.384 68.7092 133.474 68.486 135.135 67.1472C135.672 66.7175 136.416 66.4695 136.994 67.0563C137.647 67.7257 137.06 68.2959 136.639 68.8083C134.474 71.4447 131.913 73.3372 128.302 73.2711L128.294 73.2793Z" fill="#317F40"/>
<path d="M129.219 135.212C130.623 132.527 133.656 132.791 135.837 132.229C139.175 131.37 142.868 132.097 146.355 131.188C147.272 130.948 148.346 131.229 148.709 132.336C149.015 133.279 148.197 133.427 147.553 133.617C141.496 134.75 135.391 135.394 129.219 135.204V135.212Z" fill="#5E5222"/>
<path d="M59.9492 174.873C61.7586 169.105 64.7826 164.188 69.93 160.774C68.1123 166.543 65.4436 171.708 59.9492 174.873Z" fill="#5E5222"/>
<path d="M364.932 157.973C364.717 160.064 363.304 160.873 361.958 161.807C358.446 164.262 356.191 167.642 355.125 171.774C354.323 174.89 355.802 176.352 358.851 175.278C362.073 174.138 364.023 171.41 365.998 168.824C367.056 167.435 368.328 164.807 369.625 165.584C371.583 166.758 369.6 169.014 368.857 170.518C366.675 174.906 363.718 178.675 358.471 179.567C355.91 180.005 353.679 179.377 352.06 177.005C350.506 174.733 350.407 172.708 351.564 170.138C354.307 164.055 359.215 160.584 364.924 157.973H364.932Z" fill="#5B8B2F"/>
<path d="M484.446 232.492C484.446 233.591 484.521 234.699 484.43 235.79C484.223 238.277 482.439 239.748 480.489 240.69C478.605 241.599 476.482 240.847 475.209 239.343C471.689 235.161 469.533 230.36 469.632 224.74C469.649 223.749 469.789 222.567 470.913 222.451C472.35 222.302 472.078 223.757 472.226 224.575C472.978 228.699 474.961 232.294 476.977 235.872C477.539 236.872 478.208 237.773 479.547 237.442C480.629 237.17 480.968 236.294 481.15 235.277C481.546 233.153 482.488 231.112 481.455 228.848C480.985 227.815 480.538 226.029 482.009 225.625C484.042 225.071 483.802 227.31 484.174 228.401C484.603 229.657 484.446 231.112 484.537 232.476H484.43L484.446 232.492Z" fill="#5B8B2F"/>
<path d="M434.906 174.369C434.914 178.369 432.733 181.956 429.792 182.204C425.95 182.534 423.62 180.419 422.703 176.799C422.232 174.939 420.835 173.493 420.67 171.468C420.563 170.154 419.406 168.46 421.257 167.997C423.041 167.559 423.05 169.642 423.438 170.84C424.173 173.08 425.223 175.138 426.652 176.989C427.363 177.915 427.883 179.377 429.494 178.683C430.692 178.171 431.428 177.171 431.543 175.815C431.783 173.014 431.518 170.394 429.618 168.055C428.866 167.13 427.429 165.551 429.023 164.526C430.577 163.535 431.163 165.518 432.055 166.485C434.146 168.733 435.022 171.353 434.889 174.369H434.906Z" fill="#5B8B2F"/>
<path d="M366.379 183.799C365.883 181.352 367.502 179.394 368.841 177.336C369.196 176.791 369.51 175.956 370.344 176.328C371.319 176.758 371.212 177.658 370.766 178.41C369.667 180.278 369.601 182.295 369.692 184.369C369.741 185.518 369.923 186.617 371.162 187.038C372.451 187.476 373.608 187.195 374.401 185.997C375.748 183.964 377.607 182.262 378.152 179.716C378.317 178.923 379.02 178.245 380.011 178.567C380.697 178.791 381.003 179.419 381.151 180.146C381.829 183.617 376.26 191.063 372.716 191.385C368.287 191.799 366.329 189.534 366.395 183.79L366.379 183.799Z" fill="#5B8B2F"/>
<path d="M482.876 279.838C483.438 278.028 481.645 274.714 484.025 274.508C486.47 274.293 484.71 277.657 485.512 279.252C486.611 281.433 485.851 284.07 487.536 286.251C488.941 288.053 489.899 287.846 491.031 286.4C493.064 283.805 493.535 280.723 493.576 277.524C493.592 276.541 493.221 274.995 494.947 275.152C496.22 275.268 495.873 276.582 496.03 277.491C496.773 281.789 495.253 285.574 493.262 289.185C492.237 291.045 490.287 291.4 488.271 291.417C486.239 291.433 485.454 290.103 484.727 288.532C483.455 285.78 482.265 283.037 482.876 279.863V279.838Z" fill="#5B8B2F"/>
<path d="M455.602 236.839C452.025 236.856 449.083 234.599 449.141 230.955C449.174 228.674 446.63 225.005 449.406 224.335C452.909 223.492 450.554 227.897 451.917 229.567C453.058 230.963 453.016 233.459 455.578 233.451C458.478 233.451 457.833 230.839 458.527 229.236C459.477 227.038 458.478 224.939 458.155 222.798C458.04 222.054 457.85 221.013 458.924 220.765C459.287 220.682 459.907 221.12 460.229 221.484C462.65 224.236 462.08 233.285 459.444 235.781C458.312 236.856 456.99 236.856 455.611 236.839H455.602Z" fill="#5B8B2F"/>
<path d="M290.64 209.839C291.714 211.872 290.879 213.335 289.921 214.351C286.608 217.855 286.021 222.425 284.864 226.731C284.294 228.855 284.773 231.351 286.979 232.433C289.161 233.508 290.474 231.45 291.722 230.07C293.763 227.814 295.052 225.103 296.076 222.244C296.448 221.194 297.175 220.103 298.497 220.591C299.926 221.12 298.753 222.219 298.712 223.053C298.472 227.533 296.126 231.02 293.35 234.285C291.259 236.739 288.4 237.549 285.533 236.632C282.633 235.706 281.452 232.764 281.402 230.053C281.262 221.996 284.897 215.533 290.64 209.847V209.839Z" fill="#5B8B2F"/>
<path d="M303.874 228.706C304.659 230.698 304.469 232.103 304.015 233.5C303.271 235.789 303.477 238.144 303.701 240.442C303.891 242.392 304.783 244.425 306.857 244.847C309.129 245.309 310.319 243.285 311.037 241.574C312.26 238.673 312.706 235.549 312.698 232.376C312.698 231.012 312.863 229.169 314.425 229.128C316.325 229.087 315.937 231.054 315.953 232.335C315.987 237.004 315.788 241.574 312.896 245.648C311.335 247.847 309.55 249.557 306.873 249.128C303.981 248.665 302.156 246.425 301.189 243.772C299.272 238.5 300.9 233.773 303.874 228.698V228.706Z" fill="#5B8B2F"/>
<path d="M286.275 345.903C286.54 341.87 290.142 340.911 292.687 339.018C296.479 336.192 299.718 332.523 304.419 331.035C302.511 336.118 297.496 338.134 293.918 341.556C291.811 343.564 289.539 345.729 286.275 345.911V345.903Z" fill="#5E5222"/>
<path d="M320.828 326.738C320.415 328.052 319.606 329.06 318.102 329.25C317.507 329.325 316.929 328.821 317.143 328.292C317.656 327.027 318.565 325.978 319.928 325.614C320.572 325.441 320.754 326.102 320.828 326.738Z" fill="#5E5222"/>
<path d="M456.355 357.68C458.974 359.862 459.66 362.506 458.363 365.184C457.173 367.647 455.967 370.25 452.108 369.977C448.332 369.713 446.531 367.399 444.945 364.696C443.747 362.647 443.879 360.209 444.011 357.87C444.061 357.027 444.152 356.126 445.193 356.027C446.201 355.928 446.655 356.821 446.853 357.573C447.291 359.275 447.531 361.027 447.87 362.763C448.374 365.316 450.1 366.63 452.538 366.432C455.149 366.225 455.562 364.134 455.586 361.887C455.595 360.589 455.099 359.168 456.355 357.68Z" fill="#49781B"/>
<path d="M449.125 385.447C453.586 386.29 453.074 389.133 453.124 391.67C453.165 394.059 453.223 396.72 450.612 397.678C448.241 398.546 445.944 397.968 443.886 395.918C440.532 392.571 440.532 388.298 439.912 384.15C439.813 383.497 439.954 382.712 440.813 382.522C441.936 382.274 442.127 383.166 442.44 383.927C443.49 386.447 442.994 389.505 444.878 391.687C446.084 393.092 447.084 395.959 449.629 394.059C451.463 392.687 452.182 390.497 450.447 388.241C449.976 387.621 449.753 386.811 449.125 385.456V385.447Z" fill="#49781B"/>
<path d="M414.564 341.795C410.706 341.754 405.153 336.696 404.542 332.672C404.402 331.763 404.658 330.977 405.533 330.647C406.426 330.308 406.55 331.126 406.93 331.696C408.045 333.407 409.243 335.077 410.483 336.696C411.928 338.581 414.184 339.308 415.936 338.06C417.886 336.672 416.299 334.639 415.597 332.878C415.019 331.424 411.573 330.581 413.647 328.953C415.159 327.763 416.787 330.589 417.952 331.944C419.678 333.953 420.711 336.407 419.637 339.151C418.737 341.457 416.745 341.862 414.556 341.787L414.564 341.795Z" fill="#49781B"/>
<path d="M393.603 329.986C393.273 332.44 392.95 334.325 392.802 336.217C392.711 337.415 392.504 338.862 393.81 339.556C395.396 340.407 396.272 338.762 397.354 338.126C398.858 337.234 399.23 335.523 399.519 333.878C399.618 333.283 400.015 332.87 400.618 332.862C401.204 332.862 401.65 333.201 401.75 333.82C402.328 337.382 399.924 339.358 397.652 341.357C395.735 343.052 393.785 343.614 391.587 341.605C389.505 339.696 389.695 329.754 392 328.366C392.298 328.184 393.058 328.151 393.099 328.25C393.388 328.986 393.553 329.763 393.611 329.986H393.603Z" fill="#49781B"/>
<path d="M348.085 339.383C347.399 342.16 345.111 343.16 344.268 345.16C343.747 346.399 342.599 347.374 342.054 348.606C341.327 350.259 340.864 352.473 342.244 353.614C343.714 354.821 345.251 353.151 346.491 352.11C348.217 350.672 349.424 348.895 350.027 346.672C350.308 345.639 351.084 344.399 352.299 344.722C353.728 345.102 353.274 346.631 352.968 347.54C351.564 351.763 348.746 354.895 344.863 356.986C343.169 357.895 341.492 357.606 339.93 356.25C337.939 354.515 337.716 352.159 338.509 350.209C340.294 345.796 342.318 341.35 348.093 339.383H348.085Z" fill="#49781B"/>
<path d="M366.163 354.563C366.601 360.456 366.213 365.026 362.247 368.588C358.951 371.555 354.943 370.646 353.605 366.423C352.597 363.241 352.861 359.935 354.051 356.762C354.415 355.803 355.001 354.919 356.125 355.2C357.711 355.597 356.563 356.704 356.563 357.522C356.563 359.291 355.125 360.902 355.877 362.72C356.464 364.15 356.331 366.191 358.529 366.456C360.9 366.737 361.537 364.902 362.107 363.216C362.999 360.53 363.462 357.679 366.163 354.563Z" fill="#49781B"/>
<path d="M321.845 409.463C321.853 409.331 321.82 409.166 321.886 409.058C324.183 405.505 336.824 401.373 340.724 402.893L340.757 402.868C340.451 403.158 340.146 403.447 339.84 403.736C335.114 404.1 331.264 406.968 326.91 408.406C325.199 408.976 323.63 409.554 321.845 409.455V409.463Z" fill="#5E5222"/>
<path d="M340.6 409.67C340.162 410.141 339.881 410.637 339.451 410.852C338.741 411.224 337.923 411.67 337.171 411.654C335.535 411.604 334.61 413.943 332.833 412.885C332.428 412.646 332.536 411.67 333.073 411.497C335.32 410.753 336.849 408.224 339.608 408.836C339.922 408.902 340.17 409.29 340.6 409.662V409.67Z" fill="#5E5222"/>
<path d="M48.6701 183.708C47.3481 183.377 47.3564 182.336 47.7034 181.716C49.4963 178.501 51.4049 175.353 53.3547 172.229C53.7348 171.625 54.5693 171.477 55.1972 171.89C55.8747 172.328 55.8499 173.105 55.4781 173.724C53.6357 176.766 51.7601 179.799 49.8433 182.79C49.5789 183.212 49.0171 183.443 48.6701 183.699V183.708Z" fill="#5E5222"/>
<path d="M317.639 313.598C316.474 315.342 315.318 317.342 313.88 319.118C313.219 319.928 312.236 320.482 311.616 321.441C311.054 322.317 310.236 323.755 309.154 323.036C307.923 322.218 308.634 320.837 309.509 319.837C311.476 317.565 313.426 315.275 315.442 313.044C316.119 312.292 316.978 311.697 317.639 313.606V313.598Z" fill="#5E5222"/>
<path d="M277.23 411.183C278.023 411.232 279.014 410.959 279.378 411.943C279.865 413.232 278.734 413.645 277.899 414.001C275.387 415.075 272.619 415.538 270.389 417.29C269.744 417.794 269.042 417.455 268.629 416.827C268.133 416.075 268.687 415.637 269.215 415.133C271.479 412.968 274.198 411.778 277.23 411.191V411.183Z" fill="#5E5222"/>
<path d="M282.095 418.613C281.161 418.522 279.831 418.67 280.128 417.596C280.649 415.695 282.756 415.952 284.226 415.414C284.995 415.133 286.234 415.489 285.978 416.48C285.474 418.447 283.425 418.117 282.095 418.613Z" fill="#5E5222"/>
<path d="M365.561 396.274C366.817 396.422 367.916 396.885 368.791 397.819C365.173 400.877 361.562 403.926 357.943 406.984C356.613 408.414 355.787 408.414 354.795 409.356C346.078 413.348 337.519 417.695 328.397 420.769C322.713 422.686 317.202 425.166 311.443 426.802C302.322 429.397 294.415 434.091 286.88 439.645C284.12 441.678 283.062 444.959 280.79 447.314C279.65 448.488 281.146 448.57 281.517 449.058C283.244 451.364 285.037 453.612 286.797 455.892C287.45 456.744 288.532 457.735 287.276 458.686C286.152 459.537 285.235 458.454 284.483 457.669C279.757 452.686 275.131 447.62 270.339 442.703C264.77 436.992 259.044 431.43 253.417 425.769C251.839 424.174 245.196 418.687 243.197 417.463C242.429 416.992 241.478 416.1 241.991 415.116C242.61 413.926 243.817 414.62 244.469 415.141C247.692 417.711 250.022 415.786 252.707 413.984C260.87 408.505 270.248 406.067 279.617 403.654C286.012 402.422 292.349 400.679 298.885 400.546C311.501 400.29 322.944 396.563 333.446 389.695C334.23 389.704 335.024 389.72 335.809 389.728C335.561 391.811 333.974 392.819 332.454 393.877C324.878 398.389 316.855 401.637 308.056 402.935C300.777 404.009 293.398 403.447 286.086 405.133C278.336 406.918 270.644 408.844 263.258 411.662C259.292 413.182 254.946 414.67 252.352 418.596C250.873 420.612 253.013 421.282 253.897 422.075C261.341 428.786 268.273 436 275.197 443.24C276.783 444.901 278.84 446.851 279.848 442.513C280.071 441.562 281.112 440.769 281.84 439.967C288.086 433.124 296.199 428.463 304.536 425.67C318.259 421.067 331.785 416.017 345.161 410.554C352.507 407.554 358.72 402.53 365.04 397.786C365.396 397.522 365.396 396.786 365.561 396.274Z" fill="#5E5222"/>
<path d="M111.126 113.783C106.664 113.891 102.186 115.114 97.7573 113.122C96.1792 112.411 95.5512 114.411 94.6672 115.329C88.4622 121.791 80.9353 125.188 71.9708 125.188C62.8245 125.188 56.2973 117.419 57.3301 108.229C58.429 98.4693 63.1302 90.4034 68.7898 82.7671C79.0763 68.8831 89.148 54.7842 101.665 42.7761C117.669 27.421 135.003 13.9585 156.51 6.96686C166.673 3.66114 177.091 2.01654 187.741 1.00003C194.607 0.338883 201.465 -0.338791 208.273 0.181861C232.506 2.0496 256.392 5.5454 276.982 19.9914C292.845 31.1235 307.552 43.586 320.226 58.3874C331.686 71.7591 338.965 87.0811 342.559 104.188C343.89 110.51 342.336 116.329 336.875 120.295C332.364 123.568 327.439 122.618 322.961 120.072C319.772 118.254 317.764 117.444 314.294 120.568C308.238 126.006 299.703 125.328 291.862 120.114C289.466 118.527 287.02 116.924 284.98 114.924C282.832 112.816 281.543 113.353 279.816 115.353C276.916 118.717 273.446 121.18 269.017 122.444C265.431 123.469 262.184 123.056 259.193 121.238C257.599 120.262 256.541 120.353 255.211 121.378C244.66 129.502 234.53 126.733 224.533 120.188C222.823 119.064 221.038 118.048 219.287 116.981C218.799 115.973 218.006 115.403 216.891 115.295C215.238 113.667 213.594 112.048 211.941 110.42C210.892 109.064 210.264 107.37 208.76 106.378C207.596 103.238 206.257 102.411 203.861 105.577C201.705 108.42 198.854 110.626 195.59 112.13C189.055 115.138 181.586 118.395 175.596 113.362C170.25 108.866 167.036 110.882 162.839 113.651C161.591 114.469 160.195 115.056 158.865 115.75C152.445 119.114 145.786 121.196 138.441 119.543C137.573 118.469 136.152 118.593 135.07 117.981C129.393 116.444 125.32 112.461 121.049 108.783C120.363 108.783 119.768 108.99 119.413 109.634V109.651C116.232 110.205 114.356 113.386 111.101 113.791L111.126 113.783ZM273.933 114.7C275.809 113.138 278.056 112.155 279.948 110.535C281.848 108.915 284.443 108.882 286.236 111.039C289.664 115.163 293.928 117.874 298.877 119.849C304.487 122.089 311.072 121.122 314.368 116.329C316.624 113.039 318.475 113.403 321.011 115.469C322.854 116.965 324.977 117.957 327.266 118.502C334.338 120.196 340.477 114.552 339.354 107.378C336.239 87.5274 327.208 70.6517 313.443 56.2056C303.115 45.3711 292.226 35.1647 279.758 26.7847C273.966 22.8922 268.587 18.0576 262.3 15.2642C245.321 7.72718 227.268 3.91733 208.711 3.2066C201.531 2.93388 194.335 2.76859 187.031 4.30575C181.115 5.5454 174.811 5.61978 168.804 6.85116C161.6 8.33047 154.684 10.7684 148.314 14.57C147.232 13.2808 146.24 14.3717 145.414 14.8345C140.167 17.7353 134.764 20.4129 129.823 23.7682C120.916 29.8177 112.77 36.8754 104.987 44.3216C98.0878 50.9165 91.5523 57.8833 86.1158 65.7344C77.3247 78.4366 65.6419 89.2298 61.8 105.205C59.9079 113.081 64.7413 121.659 72.8796 121.031C80.7949 120.419 87.826 117.122 93.4278 111.229C94.8655 109.717 96.08 108.486 98.6992 109.345C105.656 111.643 112.109 110.477 118.025 105.866C121.784 102.932 122.693 103.304 125.328 107.51C125.998 108.585 126.865 109.337 127.791 110.163C130.814 112.891 134.706 113.899 138.127 115.8C141.828 117.857 145.992 117.824 149.264 116.552C155.684 114.056 162.112 111.262 167.796 107.122C170.176 105.387 171.977 105.354 174.266 108.188C177.356 112.015 182.131 113.684 187.221 112.031C194.417 109.701 199.713 105.552 204.357 99.9982C205.737 98.3454 207.075 98.2627 208.661 100.205C215.61 108.742 223.236 116.502 233.473 121.213C239.215 123.857 246.04 123.262 249.898 119.461C251.724 119.395 252.798 118.105 253.938 116.94C255.037 117.023 255.607 116.494 255.715 115.428C255.963 115.386 256.211 115.362 256.458 115.337C258.284 115.172 259.392 116.329 260.647 117.419C264.902 121.089 271.19 119.75 273.917 114.684L273.933 114.7Z" fill="#317F40"/>
</g>
<defs>
<clipPath id="clip0_4459_2202">
<rect width="492" height="459" fill="white" transform="translate(22)"/>
</clipPath>
</defs>
</svg>
