<svg width="581" height="640" viewBox="0 0 581 640" fill="none" xmlns="http://www.w3.org/2000/svg">
<path d="M580 364.5C579.2 336.5 547.333 327.167 531.5 326C494.5 354 458.955 400.509 425 452C378.136 523.067 346.845 605.796 332 638.5C374.5 646.5 414.5 620 435 603.5C455.5 587 462.5 592.5 499 579C535.5 565.5 531.5 541 539.5 520C547.5 499 557 501.5 570 485C583 468.5 580 455.5 580 434.5C580 413.5 581 399.5 580 364.5Z" fill="#76A841"/>
<g clip-path="url(#clip0_4459_2204)">
<path d="M156.923 457.09C151.565 459.333 147.84 464.278 141.641 465.399C132.891 466.992 127.533 466.572 117.992 461.627C115.339 467.872 111.282 473.033 105.772 477.086C102.392 479.571 98.8709 481.483 94.6488 480.782C90.7072 480.132 89.7505 481.75 89.0872 485.382C87.0463 496.636 83.8956 507.647 79.1122 518.072C74.9283 527.197 69.4306 534.652 57.4784 532.753C53.0777 532.052 54.6466 536.232 54.3788 538.093C52.8098 549.066 48.8045 559.019 41.725 567.443C34.4542 576.097 21.1882 574.325 15.7925 564.321C14.4914 561.912 13.3944 559.312 12.7694 556.662C3.70002 518.186 -2.11662 479.482 0.753437 439.655C2.50098 415.339 6.09811 391.711 15.4226 369.077C28.9947 336.171 54.366 318.214 88.5515 311.855C98.2459 310.045 107.277 314.327 116.206 317.628C119.982 319.017 123.63 320.789 127.431 322.063C134.23 324.344 140.544 324.102 146.552 319.221C155.672 311.804 166.158 313.779 176.375 316.239C186.006 318.571 194.501 323.363 202.104 329.659C215.574 340.81 227.857 352.943 236.149 368.708C240.077 376.176 245.307 382.968 249.619 390.258C254.262 398.109 252.961 406.138 249.351 413.988C247.272 418.513 243.177 420.259 238.674 421.1C236.404 421.52 233.955 421.775 231.697 421.38C224.171 420.106 218.367 422.208 213.061 427.956C207.512 433.959 200.063 435.883 192.065 433.028C188.493 431.754 186.911 432.965 186.223 436.304C184.475 437.081 183.327 438.47 182.383 440.063C177.816 442.102 173.377 446.805 168.403 444.83C160.545 441.72 159.065 445.76 158.02 451.699C157.803 452.935 157.305 454.108 156.935 455.318C156.935 455.905 156.935 456.478 156.923 457.064V457.09Z" fill="#379E4E"/>
<path d="M567.939 166.301C560.248 124.003 543.538 86.6361 512.771 55.7309C488.19 31.0451 459.515 14.0823 426.031 5.02106C401.859 -1.52955 377.393 -0.879589 352.864 2.51042C338.182 4.53677 323.628 7.08565 309.979 13.2667C305.094 14.2735 301.088 17.1665 296.841 19.4859C267.005 35.8242 242.692 58.3053 223.036 85.9479C210.471 102.159 201.606 120.358 194.731 139.551C186.962 161.267 179.13 183.06 181.12 206.701C182.357 221.357 187.562 234.025 202.116 240.295C206.173 242.041 207.116 243.112 205.994 247.738C200.764 269.403 210.943 281.447 231.761 278.541C235.651 277.993 237.539 279.089 239.427 282.148C243.598 288.902 249.172 294.344 255.895 298.639C266.342 305.33 277.312 303.749 288.409 300.907C289.225 300.538 290.042 300.181 290.858 299.811C303.614 292.126 311 280.134 316.752 266.995C318.513 262.967 320.579 261.616 324.827 263.057C332.034 265.503 339.547 263.859 346.92 264.28C348.387 263.91 349.854 263.554 351.333 263.184C361.997 259.424 372.023 254.607 379.651 245.915C381.718 243.558 383.312 243.456 384.996 246.208C386.182 248.158 389.014 248.732 389.409 251.383C390.175 251.803 390.94 252.237 391.718 252.657C401.859 256.378 412 256.226 422.141 252.683C423.276 251.344 424.794 250.694 426.439 250.261C429.616 253.651 432.511 257.347 435.994 260.355C447.971 270.703 461.161 276.744 477.424 271.2C482.858 269.352 486.43 261.362 490.971 262.84C495.882 264.433 499.517 270.652 504.505 273.953C520.603 284.633 536.318 282.9 549.711 268.855C558.092 260.074 563.373 249.547 566.294 237.874C572.213 214.144 572.327 190.363 567.939 166.263V166.301Z" fill="#379E4E"/>
<path d="M156.923 457.09C151.565 459.333 147.84 464.278 141.641 465.399C132.891 466.992 127.533 466.572 117.992 461.627C115.339 467.872 111.282 473.033 105.772 477.086C102.392 479.571 98.8709 481.483 94.6488 480.782C90.7072 480.132 89.7505 481.75 89.0872 485.382C87.0463 496.636 83.8957 507.647 79.1122 518.072C74.9283 527.197 69.4306 534.652 57.4784 532.753C53.0777 532.052 54.6466 536.232 54.3788 538.093C52.8098 549.066 48.8045 559.019 41.725 567.443C34.4542 576.097 21.1882 574.325 15.7925 564.321C14.4914 561.912 13.3944 559.312 12.7694 556.662C3.70002 518.186 -2.11662 479.482 0.753437 439.656C2.50098 415.339 6.09811 391.711 15.4226 369.077C28.9947 336.171 54.366 318.214 88.5515 311.855C98.2459 310.045 107.277 314.327 116.206 317.628C119.982 319.017 123.63 320.789 127.431 322.063C134.23 324.344 140.544 324.102 146.552 319.221C155.672 311.804 166.158 313.779 176.375 316.239C186.006 318.571 194.501 323.363 202.104 329.659C215.574 340.81 227.857 352.943 236.149 368.708C240.078 376.176 245.307 382.968 249.619 390.258C254.262 398.109 252.961 406.138 249.351 413.988C247.272 418.513 243.177 420.259 238.674 421.1C236.404 421.52 233.955 421.775 231.697 421.38C224.171 420.106 218.367 422.208 213.061 427.956C207.512 433.959 200.063 435.883 192.065 433.028C188.493 431.754 186.911 432.965 186.223 436.304C184.475 437.081 183.327 438.47 182.383 440.063C177.817 442.102 173.378 446.805 168.403 444.83C160.545 441.72 159.065 445.76 158.02 451.699C157.803 452.935 157.305 454.108 156.935 455.318C156.935 455.905 156.935 456.478 156.923 457.064V457.09ZM187.536 325.517C180.368 320.572 172.191 318.813 163.709 317.896C157.611 317.233 152.139 319.106 147.751 322.879C141.577 328.193 135.046 329.136 127.674 326.562C124.076 325.3 120.479 324.051 116.946 322.637C108.119 319.094 99.3429 313.983 89.6357 315.512C64.3665 319.501 42.8348 330.666 28.7524 352.713C12.1571 378.686 5.76646 407.998 4.28679 438.279C2.94743 465.743 3.25357 493.284 9.13399 520.391C12.1316 534.181 13.4454 548.454 19.4534 561.428C23.6501 570.502 33.5231 571.292 39.2504 563.11C44.7481 555.26 48.5876 546.683 50.2459 537.023C50.973 532.74 49.8122 528.089 52.3761 524.125C53.1797 524.38 54.0854 524.469 54.7614 524.915C61.8281 529.58 68.5632 528.56 72.1731 521.22C78.6658 508.004 84.9161 494.584 85.6177 479.456C85.7963 475.722 87.2249 473.403 91.1537 475.518C95.4396 477.825 98.8454 476.308 102.302 473.963C107.073 470.714 111.372 467.145 113.349 461.359C114.522 457.918 116.206 455.089 120.76 457.982C135.123 467.094 154.703 461.283 157.063 441.746C157.573 437.553 159.588 436.712 163.109 439.107C167.523 442.102 172.102 441.389 176.184 438.725C179.462 436.584 183.187 434.672 184.794 430.62C185.942 427.727 187.945 426.758 190.853 428.415C199.476 433.347 206.479 429.804 212.321 423.585C217.321 418.27 222.577 416.92 229.873 417.582C239.555 418.462 248.228 415.747 247.718 402.085C247.514 396.771 246.341 392.246 243.292 387.888C231.85 371.473 223.623 352.701 207.563 339.701C201.211 334.553 195.343 328.703 187.575 325.555L187.536 325.517Z" fill="#348243"/>
<path d="M156.922 457.09C156.922 456.503 156.922 455.93 156.935 455.344C163.134 458.351 168.772 462.264 175.673 464.163C199.424 470.701 223.15 471.835 247.067 465.628C267.094 460.429 285.475 451.597 302.784 440.318C317.3 430.862 331.383 420.475 346.753 412.637C385.684 392.781 425.138 394.833 464.005 413.44C470.791 416.69 477.386 421.24 477.194 430.518C477.156 432.162 477.857 433.984 479.669 434.634C481.646 435.36 482.87 433.767 483.916 432.518C486.378 429.625 488.878 426.732 490.983 423.572C500.703 408.992 510.716 394.578 519.798 379.591C525.59 370.02 532.95 361.519 537.822 351.286C540.208 346.277 538.447 345.36 534.442 344.557C525.411 338.121 515.168 334.157 504.849 330.5C484.988 323.465 464.757 327.237 445.458 331.583C422.204 336.808 398.937 342.224 375.747 347.845C367.15 349.935 358.463 351.859 349.56 352.407C349.56 351.604 349.534 350.814 349.522 350.011C370.926 345.309 392.292 340.427 413.747 335.967C427.179 333.176 440.024 328.231 453.711 326.218C474.171 323.223 494.376 321.222 514.097 329.62C515.5 330.895 517.158 331.608 519.02 331.889C524.671 334.769 530.577 337.241 535.884 340.657C540.016 343.32 542.453 343.384 544.851 338.822C545.629 337.343 546.573 335.406 548.882 334.756C550.489 337.05 548.588 338.681 547.848 340.415C541.075 356.549 530.781 370.504 520.844 384.74C509.721 400.696 500.652 418.066 488.496 433.283C481.633 441.86 475.995 451.38 468.227 459.231C467.589 459.141 466.964 459.039 466.326 458.95C467.066 454.834 470.013 451.941 472.168 448.64C479.682 437.132 473.903 421.087 460.573 416.817C459.336 415.122 436.388 406.443 426.082 404.392C389.383 397.051 357.226 408.368 327.199 428.415C312.236 438.406 297.338 448.551 281.24 456.605C246.314 474.065 209.986 478.411 172.293 466.597C166.399 464.749 160.774 462.289 156.922 457.077V457.09Z" fill="#605325"/>
<path d="M182.396 440.076C183.34 438.483 184.488 437.094 186.235 436.317C200.216 445.645 215.28 444.575 230.982 442.026C260.92 437.158 282.975 418.322 306.089 401.244C310.821 397.752 315.273 393.903 320.299 389.863C298.626 381.72 286.33 366.121 281.699 344.353C279.136 332.322 283.46 320.954 286.024 309.459C286.661 306.579 287.605 303.762 288.409 300.908C289.225 300.538 290.042 300.181 290.858 299.812C290.858 301.57 290.858 303.329 290.858 305.075C286.521 320.164 280.424 335.164 288.269 350.942C288.435 352.828 288.052 354.969 288.843 356.537C295.858 370.428 306.599 380.305 321.23 385.862C323.513 386.728 325.783 386.932 327.977 385.798C342.404 378.33 357.801 376.342 373.784 377.616C373.465 380.318 371.424 380.05 369.498 380.203C346.142 382.127 325.414 390.309 307.084 405.131C294.621 415.199 281.189 424.069 267.426 432.34C248.037 444.001 226.709 448.207 204.31 447.927C199.386 447.634 194.922 446.168 190.929 443.173C188.429 441.3 185.801 439.477 182.357 440.051L182.396 440.076Z" fill="#635427"/>
<path d="M349.522 350.025C349.522 350.827 349.548 351.618 349.56 352.421C343.195 355.581 336.345 355.224 329.687 354.485C321.268 353.555 317.11 348.75 317.747 342.556C318.742 333.011 321.459 323.975 325.082 315.156C325.745 313.55 326.243 311.294 328.271 312.008C333.462 313.843 338.348 311.6 343.348 311.345C359.497 310.517 375.276 307.7 389.346 299.085C401.642 291.553 411.758 281.919 417.166 268.142C422.256 264.102 422.511 258.507 422.141 252.721C423.276 251.383 424.794 250.733 426.439 250.3C423.225 276.005 408.607 293.338 386.259 305.05C370.059 313.537 352.443 315.436 334.623 315.831C329.636 315.946 327.187 316.813 326.09 322.242C324.929 327.977 323.143 333.61 322.084 339.421C320.987 345.386 323.016 348.368 328.832 350.088C335.873 352.166 342.647 349.935 349.548 350.025H349.522Z" fill="#635427"/>
<path d="M567.939 166.301C560.248 124.003 543.537 86.6361 512.771 55.7309C488.19 31.0451 459.515 14.0823 426.031 5.02106C401.859 -1.52955 377.393 -0.879589 352.864 2.51042C338.182 4.53677 323.628 7.08565 309.979 13.2667C305.094 14.2735 301.088 17.1665 296.841 19.4859C267.005 35.8242 242.692 58.3053 223.036 85.9479C210.471 102.159 201.606 120.358 194.731 139.551C186.962 161.267 179.13 183.06 181.12 206.701C182.357 221.357 187.562 234.025 202.116 240.295C206.173 242.041 207.116 243.112 205.994 247.738C200.764 269.403 210.943 281.447 231.761 278.541C235.651 277.993 237.539 279.089 239.427 282.148C243.598 288.902 249.172 294.344 255.895 298.639C266.342 305.33 277.312 303.749 288.409 300.907C289.225 300.538 290.042 300.181 290.858 299.811C303.614 292.126 311 280.134 316.752 266.995C318.513 262.967 320.579 261.616 324.827 263.057C332.034 265.503 339.547 263.859 346.92 264.28C348.387 263.91 349.854 263.554 351.333 263.184C361.997 259.424 372.023 254.607 379.651 245.915C381.718 243.558 383.312 243.456 384.996 246.208C386.182 248.158 389.014 248.732 389.409 251.383C390.175 251.803 390.94 252.237 391.718 252.657C401.859 256.378 412 256.226 422.141 252.683C423.276 251.344 424.794 250.694 426.439 250.261C429.616 253.651 432.511 257.347 435.993 260.355C447.971 270.703 461.161 276.744 477.424 271.2C482.858 269.352 486.43 261.362 490.971 262.84C495.882 264.433 499.517 270.652 504.505 273.953C520.603 284.633 536.318 282.9 549.711 268.855C558.092 260.074 563.373 249.547 566.294 237.874C572.213 214.144 572.327 190.363 567.939 166.263V166.301ZM310.17 15.0764C332.914 10.9472 331.689 8.89535 355.556 6.16805C387.662 2.48493 418.697 4.33286 448.953 16.988C472.462 26.8267 492.565 41.1259 510.487 58.8788C512.885 61.2493 515.079 63.7854 516.572 66.844C530.067 78.1101 538.231 93.1739 545.846 108.531C549.686 116.279 553.206 124.27 555.936 132.452C561 147.656 564.444 163.255 566.396 179.249C568.475 196.225 568.284 213.099 564.776 229.704C561.166 246.769 554.252 262.368 539.047 272.729C530.692 278.426 514.888 276.795 505.742 269.378C505.079 268.842 504.543 268.167 503.893 267.632C499.811 264.28 496.188 259.692 491.507 257.933C485.499 255.678 483.471 263.299 479.057 265.784C469.018 271.43 456.237 270.283 444.514 261.82C438.749 257.653 433.94 252.695 430.1 246.807C428.404 244.208 427.205 244.106 424.564 245.724C416.987 250.376 408.977 252.874 399.793 250.516C393.848 248.987 389.141 245.877 385.965 241.047C383.197 236.829 381.322 237.823 378.809 240.792C370.135 251.051 359.038 257.016 345.963 259.807C338.029 261.489 330.35 260.164 322.735 258.456C318.602 257.538 316.421 258.481 314.762 262.292C311.318 270.193 307.747 277.878 302.07 284.747C283.804 306.821 258.739 303.125 245.039 282.861C240.001 275.393 234.516 273.736 226.646 274.488C214.936 275.597 210.025 270.92 209.183 259.029C208.724 252.593 210.79 246.438 210.561 240.078C205.318 236.65 198.825 235.427 194.577 230.138C189.118 223.358 185.457 216.068 184.934 207.236C183.327 180.04 192.039 155.303 202.588 130.91C209.31 115.362 216.709 100.209 226.097 86.0881C234.274 77.0013 242.029 67.5705 250.728 58.917C267.081 42.6297 285.297 29.057 305.846 18.5428C307.504 17.689 309.507 17.2174 310.158 15.0891" fill="#3B874A"/>
<path d="M226.111 86.0758C234.287 76.9891 242.043 67.5582 250.742 58.9048C267.095 42.6175 285.31 29.0447 305.86 18.5306C307.518 17.6767 309.521 17.2052 310.171 15.0769C325.338 12.3241 340.109 7.94001 355.556 6.16854C387.663 2.48541 418.697 4.33335 448.954 16.9885C472.463 26.8272 492.566 41.1264 510.488 58.8793C512.886 61.2497 515.08 63.7859 516.573 66.8445C518.231 73.3569 520.246 79.7928 521.471 86.3944C525.693 109.258 522.249 130.656 508.064 149.619C499.021 161.701 488.765 162.746 477.4 153.2C476.29 152.27 475.32 150.817 473.598 151.684C472.068 152.461 471.94 154.016 471.94 155.545C471.94 157.24 472.157 158.986 471.851 160.63C470.511 167.971 468.101 174.636 460.013 177.211C453.534 179.263 444.847 176.242 439.961 170.635C438.125 168.519 438.214 163.6 434.655 164.454C430.65 165.41 432.895 169.896 432.41 172.801C431.02 180.983 424.693 185.546 419.386 181.493C414.258 177.568 412.97 179.059 411.541 184.513C408.378 196.633 396.949 201.604 385.596 196.417C379.065 193.434 374.231 189.28 373.045 181.671C372.751 179.785 372.662 176.089 369.18 177.185C366.093 178.154 365.519 181.021 366.794 184.029C367.049 184.615 367.279 185.214 367.585 185.762C369.128 188.541 368.937 191.599 368.529 194.479C366.871 206.204 354.306 216.604 341.423 217.164C327.634 217.776 322.812 213.685 318.96 197.997C318.59 196.493 318.373 194.913 316.524 194.785C314.623 194.645 314.228 196.238 313.743 197.678C312.148 202.33 309.75 206.599 306.816 210.499C299.916 219.688 289.711 219.357 283.397 209.824C282.415 208.345 281.586 206.842 279.519 207.237C277.478 207.644 276.917 209.25 276.904 211.073C276.84 221.549 268.026 226.825 258.944 228.367C252.681 229.425 242.349 222.632 239.173 215.571C238.127 213.239 237.68 210.193 234.223 211.085C231.034 211.914 232.399 214.947 232.259 217.063C231.366 230.444 223.113 239.263 210.6 240.066C205.357 236.638 198.864 235.414 194.617 230.126C189.157 223.346 185.496 216.056 184.973 207.224C183.366 180.027 192.078 155.291 202.627 130.898C209.35 115.35 216.748 100.197 226.136 86.0758H226.111Z" fill="#4AC466"/>
<path d="M422.14 252.721C422.497 258.52 422.255 264.114 417.165 268.142C413.351 268.142 409.499 268.46 405.723 268.065C400.685 267.543 397.368 269.187 395.008 273.787C392.891 277.929 389.766 281.485 385.939 284.263C370.071 295.784 351.881 297.645 333.245 295.797C318.563 294.344 304.557 293.949 292.707 304.642C292.299 305.011 291.495 304.947 290.883 305.088C290.883 303.329 290.883 301.583 290.883 299.824C303.639 292.139 311.024 280.147 316.777 267.007C318.537 262.98 320.604 261.629 324.851 263.069C332.058 265.516 339.572 263.872 346.944 264.293C344.636 272.819 337.046 279.344 337.314 289.195C341.37 284.748 346.396 285.92 351.077 286.009C360.006 286.175 368.897 284.939 375.16 278.388C382.214 271.009 387.623 262.152 391.73 252.67C401.871 256.404 412.012 256.238 422.153 252.695L422.14 252.721Z" fill="#746228"/>
<path d="M351.346 263.21C348.578 269.327 345.81 275.457 342.812 282.084C357.966 282.989 371.245 281.523 379.217 266.702C382.113 261.336 385.978 256.493 389.409 251.396C390.175 251.816 390.94 252.249 391.718 252.67C387.611 262.152 382.202 271.009 375.148 278.388C368.885 284.939 359.994 286.175 351.065 286.009C346.371 285.92 341.358 284.748 337.302 289.195C337.034 279.344 344.636 272.819 346.932 264.293C348.399 263.923 349.866 263.566 351.346 263.197V263.21Z" fill="#635427"/>
<path d="M52.3381 524.113C49.7742 528.076 50.935 532.728 50.2079 537.01C48.5497 546.683 44.7102 555.247 39.2124 563.098C33.4851 571.28 23.6121 570.489 19.4154 561.415C13.4075 548.442 12.0809 534.168 9.09601 520.379C3.21559 493.284 2.90945 465.743 4.24881 438.267C5.72848 407.986 12.1319 378.661 28.7144 352.701C42.8096 330.64 64.3413 319.476 89.5978 315.5C99.3049 313.971 108.094 319.081 116.908 322.624C120.441 324.039 124.051 325.288 127.636 326.549C135.021 329.136 141.539 328.181 147.713 322.866C152.101 319.094 157.573 317.22 163.671 317.883C172.153 318.801 180.33 320.559 187.498 325.504C187.384 327.492 188.379 329.149 188.978 330.959C194.501 347.488 193.519 363.368 183.493 378.037C177.332 387.072 167.102 389.124 158.479 383.453C157.42 382.752 156.578 381.745 155.532 381.044C154.002 380.012 152.318 379.923 150.775 381.019C149.231 382.128 149.729 383.593 150.303 385.021C152.803 391.151 151.974 397.587 151.731 403.869C151.451 410.751 144.269 416.55 138.657 414.078C132.381 411.312 131.488 413.428 131.309 419.125C131.118 425.752 126.245 428.249 120.837 424.898C118.898 423.687 117.278 421.278 114.752 422.91C112.66 424.273 113.821 426.809 113.642 428.836C113.502 430.314 113.757 431.831 113.553 433.284C112.52 440.561 110.976 447.965 103.183 450.807C95.7461 453.509 89.0365 451.1 83.6536 445.225C82.1994 443.645 80.3881 441.771 78.2069 443.109C75.273 444.906 76.5741 448.092 76.9951 450.629C79.2146 463.819 79.6865 477.124 79.0487 490.429C78.7426 496.967 75.2475 502.524 70.9871 507.328C67.7344 510.999 63.5505 510.209 59.188 509.138C56.471 508.475 53.4351 510.54 54.3791 513.356C55.8332 517.69 53.6392 520.672 52.3126 524.113H52.3381Z" fill="#49C466"/>
<path d="M181.121 438.801C184.565 438.228 188.468 441.325 190.968 443.198C194.961 446.193 199.425 447.671 204.349 447.952C203.584 451.125 201.135 452.795 198.596 454.413C197.346 455.216 195.739 456.159 195.917 457.714C196.147 459.753 198.201 458.988 199.553 459.256C209.222 461.091 218.814 460.76 228.572 459.396C255.168 455.662 279.225 445.823 300.489 429.638C314.521 418.958 328.909 408.916 344.752 401.231C365.965 390.933 387.905 383.236 411.835 381.184C427.065 379.884 441.313 381.311 455.026 387.785C460.434 390.334 466.034 392.157 471.8 393.61C478.854 395.381 485.487 394.412 490.908 389.621C496.928 384.293 502.72 378.686 507.796 372.377C515.871 362.36 523.18 351.566 534.443 344.595C538.449 345.398 540.196 346.315 537.824 351.324C532.964 361.557 525.603 370.071 519.8 379.629C510.73 394.604 500.717 409.03 490.984 423.61C488.88 426.758 486.379 429.651 483.918 432.556C482.859 433.805 481.647 435.386 479.67 434.672C477.871 434.022 477.17 432.2 477.195 430.556C477.387 421.278 470.779 416.715 464.006 413.478C425.139 394.871 385.685 392.819 346.755 412.675C331.384 420.513 317.301 430.9 302.785 440.356C285.489 451.635 267.107 460.467 247.068 465.666C223.151 471.873 199.425 470.739 175.674 464.201C168.76 462.302 161.859 458.389 155.66 455.382C156.03 454.171 156.528 452.998 156.744 451.762C157.79 445.811 160.558 440.496 168.403 443.619C173.378 445.594 176.541 440.891 181.108 438.852L181.121 438.801Z" fill="#746228"/>
<path d="M534.442 344.57C523.178 351.554 515.869 362.336 507.795 372.353C502.718 378.661 496.927 384.281 490.906 389.596C485.485 394.388 478.839 395.369 471.798 393.585C466.033 392.132 460.433 390.309 455.024 387.761C441.312 381.286 427.051 379.859 411.833 381.159C387.916 383.198 365.976 390.896 344.751 401.206C328.908 408.891 314.519 418.933 300.488 429.613C279.237 445.798 255.167 455.637 228.571 459.371C218.813 460.735 209.22 461.066 199.551 459.231C198.199 458.976 196.146 459.741 195.916 457.689C195.737 456.134 197.345 455.191 198.595 454.388C201.133 452.77 203.569 451.1 204.348 447.927C226.747 448.207 248.062 444.002 267.463 432.34C281.214 424.069 294.646 415.212 307.121 405.131C325.464 390.309 346.179 382.128 369.535 380.203C371.448 380.05 373.502 380.305 373.821 377.616C371.691 373.347 367.201 373.576 363.553 372.697C352.085 369.944 340.363 371.754 328.755 371.308C319.29 370.938 310.527 368.517 302.452 363.33C297.069 359.876 292.822 355.301 288.293 350.942C280.449 335.165 286.546 320.164 290.883 305.075C291.495 304.935 292.299 304.999 292.707 304.629C304.544 293.936 318.563 294.332 333.245 295.784C351.881 297.632 370.071 295.784 385.939 284.251C389.766 281.472 392.891 277.917 395.008 273.775C397.368 269.161 400.685 267.53 405.723 268.053C409.499 268.448 413.351 268.129 417.165 268.129C411.757 281.906 401.641 291.541 389.345 299.072C375.275 307.688 359.496 310.517 343.347 311.333C338.36 311.587 333.462 313.83 328.27 311.995C326.255 311.282 325.744 313.55 325.081 315.143C321.458 323.975 318.741 333.011 317.747 342.544C317.109 348.737 321.267 353.542 329.686 354.472C336.344 355.211 343.194 355.568 349.559 352.408C358.463 351.86 367.137 349.935 375.747 347.845C398.937 342.212 422.204 336.809 445.457 331.583C464.757 327.238 484.988 323.465 504.848 330.5C515.168 334.158 525.411 338.121 534.442 344.557V344.57Z" fill="#917D38"/>
<path d="M288.295 350.967C292.81 355.313 297.071 359.901 302.454 363.354C310.528 368.541 319.292 370.963 328.756 371.332C340.364 371.778 352.087 369.981 363.554 372.721C367.189 373.601 371.68 373.371 373.822 377.641C357.839 376.366 342.443 378.367 328.016 385.823C325.822 386.957 323.552 386.753 321.269 385.886C306.638 380.33 295.897 370.453 288.882 356.562C288.091 354.994 288.474 352.84 288.308 350.967H288.295Z" fill="#746228"/>
<path d="M428.609 49.3457C435.982 52.8249 441.416 63.3773 439.732 69.571C438.622 73.6492 434.362 75.5609 430.038 73.9296C425.994 72.4003 419.858 63.6449 419.846 59.3755C419.846 58.5217 419.846 57.5913 420.802 57.2727C422.116 56.8267 422.69 57.9227 423.264 58.7638C425.394 61.9117 427.155 65.3399 430.114 67.8633C431.096 68.7044 432.117 69.5965 433.494 69.125C435.344 68.5005 435.025 66.8055 435.038 65.3654C435.076 62.3322 432.576 55.96 428.622 49.3457H428.609Z" fill="#2C833D"/>
<path d="M271.776 112.66C271.891 111.59 271.904 110.086 272.287 108.684C272.478 107.996 273.307 107.091 273.932 107.002C275.348 106.811 275.476 108.06 275.527 109.143C275.552 109.78 275.565 110.417 275.552 111.055C275.476 114.228 276.42 117.669 279.353 118.319C282.211 118.956 283.473 115.4 285.055 113.183C286.535 111.118 286.739 106.123 289.545 107.448C292.938 109.054 290.094 113.17 289.112 115.898C287.441 120.536 284.047 124.551 278.83 123.761C273.511 122.945 271.929 118.141 271.764 112.673L271.776 112.66Z" fill="#2C833D"/>
<path d="M252.541 99.0615C255.079 102.031 252.452 104.274 252.566 106.644C252.681 108.951 252.26 111.564 255.092 112.507C257.796 113.412 259.34 111.729 260.628 109.525C262.044 107.116 263.383 102.643 266.483 104.427C269.111 105.931 266.088 109.652 264.952 112.15C262.835 116.814 259.072 119.593 253.906 118.28C248.331 116.865 248.28 111.984 248.918 107.447C249.314 104.605 250.041 101.674 252.541 99.0615Z" fill="#2C833D"/>
<path d="M413.607 68.6279C418.492 74.4649 419.882 83.0673 417.459 87.4641C415.188 91.5806 411.923 91.7207 408.479 89.1464C405.099 86.623 403.938 82.685 402.726 78.8489C402.407 77.8421 401.922 76.7334 403.223 76.1599C404.461 75.6118 405.175 76.5422 405.711 77.4853C406.54 78.9509 407.229 80.5057 408.083 81.9458C409.027 83.5261 409.882 85.8583 412.076 85.3231C414.142 84.8133 414.232 82.2007 414.308 80.5312C414.461 77.0775 413.951 73.5982 413.607 68.6407V68.6279Z" fill="#2C833D"/>
<path d="M248.087 163.204C251.098 164.555 251.48 170.38 255.817 168.251C258.624 166.875 260.69 163.995 263.879 161.076C263.445 166.786 261.991 171.042 257.846 174.088C255.447 175.86 253.317 174.381 251.455 173.069C248.126 170.711 246.404 167.614 248.075 163.204H248.087Z" fill="#2C833D"/>
<path d="M524.583 163.931C530.821 169.819 532.772 180.511 529.188 186.832C525.961 192.516 521.266 193.918 516.126 190.095C510.679 186.029 507.72 180.473 507.796 172.036C511.725 175.26 512.299 178.982 514.213 181.786C516.024 184.436 518.014 187.317 521.777 186.488C525.514 185.66 525.922 182.066 526.662 179.058C527.887 174.037 524.736 169.398 524.596 163.931H524.583Z" fill="#287C38"/>
<path d="M274.275 245.635C277.796 247.955 276.546 250.503 276.878 252.619C277.388 255.882 278.421 259.526 281.776 260.011C285.488 260.546 286.266 256.366 287.746 253.74C288.141 253.052 288.115 252.122 288.269 251.294C288.702 248.961 287.401 244.717 290.36 244.909C293.894 245.138 291.84 249.356 292.019 251.778C292.159 253.779 291.457 255.945 290.718 257.882C288.97 262.445 286.444 266.549 280.666 265.504C275.181 264.497 274.326 260.036 274.301 255.334C274.288 252.415 274.301 249.484 274.301 245.648L274.275 245.635Z" fill="#287C38"/>
<path d="M478.941 197.78C482.067 198.902 482.87 201.693 484.656 203.668C486.212 205.389 487.705 207.287 490.46 206.88C493.483 206.434 493.713 203.783 494.274 201.654C495.626 196.518 494.81 191.306 494.21 185.89C501.239 190.822 500.282 207.504 493.151 211.034C491.276 211.965 489.593 212.143 487.768 211.073C482.628 208.039 479.898 203.451 478.941 197.78Z" fill="#287C38"/>
<path d="M326.485 232.865C325.923 239.326 321.535 244.424 317.249 243.608C312.543 242.716 306.739 234.024 307.734 229.296C307.848 228.761 308.244 228.111 308.703 227.843C309.545 227.359 310.476 227.742 310.821 228.557C311.305 229.691 311.356 231.03 311.854 232.164C312.963 234.7 314.188 237.313 317.466 237.453C320.54 237.58 320.693 234.623 321.956 232.827C322.938 231.425 322.977 228.646 325.643 229.462C326.969 229.87 326.459 231.641 326.485 232.865Z" fill="#287C38"/>
<path d="M33.3567 387.734C35.3977 391.927 34.1476 397.955 39.0203 397.586C43.5104 397.242 41.9286 391.914 42.2986 388.537C42.5154 386.638 42.6302 383.873 44.4926 383.796C47.1075 383.682 47.1713 386.587 47.2478 388.614C47.3626 391.749 47.8091 394.973 46.0615 397.904C44.2629 400.912 42.2348 403.767 38.1784 403.053C34.2752 402.365 32.6679 399.293 32.1577 395.789C31.8261 393.456 31.4179 390.895 33.3695 387.734H33.3567Z" fill="#2C833D"/>
<path d="M56.2919 376.94C57.0828 377.641 57.2869 377.756 57.3762 377.921C59.1365 381.247 58.9962 386.931 64.2898 386.358C69.5197 385.784 68.8946 380.699 69.086 376.749C69.137 375.665 69.3283 374.544 70.5656 374.264C71.8412 373.97 72.3387 374.952 72.7852 375.959C74.9409 380.84 73.5633 384.982 70.0937 388.626C66.8282 392.067 62.6826 392.539 59.3533 389.608C55.9348 386.6 53.6005 382.458 56.2664 376.94H56.2919Z" fill="#2C833D"/>
<path d="M40.2717 460.39C43.9454 463.015 44.0219 468.738 48.5247 467.68C53.6781 466.456 52.6321 461.002 53.7929 457.178C54.15 456.019 53.8566 454.63 56.293 453.189C58.2829 457.943 58.2191 462.238 55.719 466.482C53.7291 469.834 51.28 472.969 46.6496 471.452C41.8024 469.859 40.0166 466.227 40.2717 460.403V460.39Z" fill="#2C833D"/>
<path d="M125.352 363.571C125.837 365.062 126.22 365.802 126.284 366.554C126.59 370.058 128.363 373.359 131.692 373.091C134.932 372.824 135.123 368.937 135.327 365.942C135.429 364.425 134.575 361.94 136.973 361.902C139.052 361.864 138.963 364.183 139.039 365.853C139.078 366.694 139.09 367.535 139.039 368.376C138.81 372.849 137.764 377.144 132.457 377.577C127.24 378.011 125.378 373.767 124 369.701C123.439 368.032 123.146 366.031 125.314 363.571H125.352Z" fill="#2C833D"/>
<path d="M27.1443 502.014C30.8563 508.08 30.6394 517.46 27.0933 521.92C24.8866 524.686 21.889 524.597 18.9679 524.138C15.3325 523.564 14.7585 520.697 14.4141 517.09C17.5392 517.766 18.9169 522.124 22.3354 519.983C25.384 518.084 25.7795 514.694 26.4683 511.712C27.1443 508.743 26.9402 505.582 27.1443 502.014Z" fill="#2C833D"/>
<path d="M199.986 377.373C205.063 379.705 210.012 382.637 212.143 378.953C213.992 375.755 209.502 372.122 206.568 369.484C205.51 368.529 203.532 367.777 204.655 366.133C205.943 364.246 207.155 366.336 208.303 366.948C211.722 368.771 214.426 371.472 216.556 374.608C218.253 377.106 219.401 380.151 217.105 382.789C215.064 385.122 212.27 385.899 209.068 384.65C205.803 383.388 202.219 382.726 200.012 377.373H199.986Z" fill="#287C38"/>
<path d="M195.267 385.543C199.553 390.144 202.142 394.961 200.331 401.282C199.553 403.984 197.805 405.768 194.884 405.641C189.82 405.424 187.715 401.575 185.381 398.045C186.516 396.873 187.23 397.408 187.906 397.892C190.177 399.498 192.32 403.156 195.292 400.607C197.805 398.453 196.619 394.757 195.802 391.673C195.318 389.838 193.073 388.258 195.254 385.543H195.267Z" fill="#287C38"/>
<path d="M313.079 333.354C313.513 338.057 311.153 342.046 311.153 346.43C311.153 353.223 312.887 358.537 319.686 361.163C320.885 361.622 322.416 362.119 322.148 363.597C321.766 365.7 319.776 365.024 318.475 364.859C316.115 364.553 314.138 363.278 312.352 361.698C304.953 355.147 305.119 339.612 313.079 333.367V333.354Z" fill="#605325"/>
<path d="M313.054 412.994C304.202 418.461 295.413 424.044 285.17 426.567C293.206 419.468 302.518 414.957 313.054 412.994Z" fill="#605325"/>
<path d="M445.791 337.981C456.633 333.597 466.774 334.413 477.298 334.285C472.642 337.968 453.827 340.352 445.791 337.981Z" fill="#605325"/>
<path d="M375.633 295.95C381.743 292.662 387.241 288.583 393.44 284.441C391.463 291.515 382.572 297.275 375.633 295.95Z" fill="#605325"/>
<path d="M450.088 348.252C456.211 344.365 462.754 344.06 469.515 345.461C463.469 349.31 456.734 348.75 450.088 348.252Z" fill="#605325"/>
<path d="M272.35 438.228C276.687 434.494 280.628 433.181 284.544 431.868C285.692 431.486 287.108 430.76 287.695 432.493C288.116 433.716 286.942 434.481 286.011 434.787C281.967 436.087 278.434 439.26 272.35 438.228Z" fill="#635427"/>
<path d="M300.004 330.602C301.942 334.578 299.455 337.139 299.2 340.568C296.534 336.018 296.534 335.967 300.004 330.602Z" fill="#635427"/>
</g>
<defs>
<clipPath id="clip0_4459_2204">
<rect width="571" height="573" fill="white"/>
</clipPath>
</defs>
</svg>
