<svg width="580" height="681" viewBox="0 0 580 681" fill="none" xmlns="http://www.w3.org/2000/svg">
<g clip-path="url(#clip0_4504_1972)">
<path d="M580.001 364.499C579.201 336.499 561.501 317.999 531.501 325.999C501.501 333.999 458.956 400.508 425.001 451.999C378.137 523.066 337 607.499 350 664.5C363 721.501 456.5 610 456.5 610C456.5 610 530.961 545.477 554 485C571.188 439.881 581.364 412.209 580.001 364.499Z" fill="#76A841"/>
<mask id="mask0_4504_1972" style="mask-type:luminance" maskUnits="userSpaceOnUse" x="0" y="0" width="571" height="573">
<path d="M571 0H0V573H571V0Z" fill="white"/>
</mask>
<g mask="url(#mask0_4504_1972)">
<path d="M156.923 457.091C151.565 459.334 147.84 464.279 141.641 465.4C132.891 466.993 127.533 466.573 117.992 461.628C115.339 467.873 111.282 473.034 105.772 477.087C102.392 479.572 98.8709 481.484 94.6488 480.783C90.7072 480.133 89.7505 481.751 89.0872 485.383C87.0463 496.637 83.8956 507.648 79.1122 518.073C74.9283 527.198 69.4306 534.653 57.4784 532.754C53.0777 532.053 54.6466 536.233 54.3788 538.094C52.8098 549.067 48.8045 559.02 41.725 567.444C34.4542 576.098 21.1882 574.326 15.7925 564.322C14.4914 561.913 13.3944 559.313 12.7694 556.663C3.70002 518.187 -2.11662 479.483 0.753439 439.656C2.50098 415.34 6.09811 391.712 15.4226 369.078C28.9947 336.172 54.366 318.215 88.5515 311.856C98.2459 310.046 107.277 314.328 116.206 317.629C119.982 319.018 123.63 320.79 127.431 322.064C134.23 324.345 140.544 324.103 146.552 319.222C155.672 311.805 166.158 313.78 176.375 316.24C186.006 318.572 194.501 323.364 202.104 329.66C215.574 340.811 227.857 352.944 236.149 368.709C240.077 376.177 245.307 382.969 249.619 390.259C254.262 398.11 252.961 406.139 249.351 413.989C247.272 418.514 243.177 420.26 238.674 421.101C236.404 421.521 233.955 421.776 231.697 421.381C224.171 420.107 218.367 422.209 213.061 427.957C207.512 433.96 200.063 435.884 192.065 433.029C188.493 431.755 186.911 432.966 186.223 436.305C184.475 437.082 183.327 438.471 182.383 440.064C177.816 442.103 173.377 446.806 168.403 444.831C160.545 441.721 159.065 445.761 158.02 451.7C157.803 452.936 157.305 454.109 156.935 455.319C156.935 455.906 156.935 456.479 156.923 457.065V457.091Z" fill="#379E4E"/>
<path d="M567.939 166.302C560.248 124.004 543.538 86.6371 512.771 55.7319C488.19 31.0461 459.515 14.0833 426.031 5.02203C401.859 -1.52858 377.393 -0.878614 352.864 2.51139C338.182 4.53774 323.628 7.08662 309.979 13.2677C305.094 14.2745 301.088 17.1675 296.841 19.4869C267.005 35.8252 242.692 58.3063 223.036 85.9489C210.471 102.16 201.606 120.359 194.731 139.552C186.962 161.268 179.13 183.061 181.12 206.702C182.357 221.358 187.562 234.026 202.116 240.296C206.173 242.042 207.116 243.113 205.994 247.739C200.764 269.404 210.943 281.448 231.761 278.542C235.651 277.994 237.539 279.09 239.427 282.149C243.598 288.903 249.172 294.345 255.895 298.64C266.342 305.331 277.312 303.75 288.409 300.908C289.225 300.539 290.042 300.182 290.858 299.812C303.614 292.127 311 280.135 316.752 266.996C318.513 262.968 320.579 261.617 324.827 263.058C332.034 265.504 339.547 263.86 346.92 264.281C348.387 263.911 349.854 263.555 351.333 263.185C361.997 259.425 372.023 254.608 379.651 245.916C381.718 243.559 383.312 243.457 384.996 246.209C386.182 248.159 389.014 248.733 389.409 251.384C390.175 251.804 390.94 252.238 391.718 252.658C401.859 256.379 412 256.227 422.141 252.684C423.276 251.345 424.794 250.695 426.439 250.262C429.616 253.652 432.511 257.348 435.994 260.356C447.971 270.704 461.161 276.745 477.424 271.201C482.858 269.353 486.43 261.363 490.971 262.841C495.882 264.434 499.517 270.653 504.505 273.954C520.603 284.634 536.318 282.901 549.711 268.856C558.092 260.075 563.373 249.548 566.294 237.875C572.213 214.145 572.327 190.364 567.939 166.264V166.302Z" fill="#379E4E"/>
<path d="M156.923 457.091C151.565 459.334 147.84 464.279 141.641 465.4C132.891 466.993 127.533 466.573 117.992 461.628C115.339 467.873 111.282 473.034 105.772 477.087C102.392 479.572 98.8709 481.484 94.6488 480.783C90.7072 480.133 89.7505 481.751 89.0872 485.383C87.0463 496.637 83.8957 507.648 79.1122 518.073C74.9283 527.198 69.4306 534.653 57.4784 532.754C53.0777 532.053 54.6466 536.233 54.3788 538.094C52.8098 549.067 48.8045 559.02 41.725 567.444C34.4542 576.098 21.1882 574.326 15.7925 564.322C14.4914 561.913 13.3944 559.313 12.7694 556.663C3.70002 518.187 -2.11662 479.483 0.753439 439.657C2.50098 415.34 6.09811 391.712 15.4226 369.078C28.9947 336.172 54.366 318.215 88.5515 311.856C98.2459 310.046 107.277 314.328 116.206 317.629C119.982 319.018 123.63 320.79 127.431 322.064C134.23 324.345 140.544 324.103 146.552 319.222C155.672 311.805 166.158 313.78 176.375 316.24C186.006 318.572 194.501 323.364 202.104 329.66C215.574 340.811 227.857 352.944 236.149 368.709C240.078 376.177 245.307 382.969 249.619 390.259C254.262 398.11 252.961 406.139 249.351 413.989C247.272 418.514 243.177 420.26 238.674 421.101C236.404 421.521 233.955 421.776 231.697 421.381C224.171 420.107 218.367 422.209 213.061 427.957C207.512 433.96 200.063 435.884 192.065 433.029C188.493 431.755 186.911 432.966 186.223 436.305C184.475 437.082 183.327 438.471 182.383 440.064C177.817 442.103 173.378 446.806 168.403 444.831C160.545 441.721 159.065 445.761 158.02 451.7C157.803 452.936 157.305 454.109 156.935 455.319C156.935 455.906 156.935 456.479 156.923 457.065V457.091ZM187.536 325.518C180.368 320.573 172.191 318.814 163.709 317.897C157.611 317.234 152.139 319.107 147.751 322.88C141.577 328.194 135.046 329.137 127.674 326.563C124.076 325.301 120.479 324.052 116.946 322.638C108.119 319.095 99.3429 313.984 89.6357 315.513C64.3665 319.502 42.8348 330.667 28.7524 352.714C12.1571 378.687 5.76646 407.999 4.28679 438.28C2.94743 465.744 3.25357 493.285 9.13399 520.392C12.1316 534.182 13.4454 548.455 19.4534 561.429C23.6501 570.503 33.5231 571.293 39.2504 563.111C44.7481 555.261 48.5876 546.684 50.2459 537.024C50.973 532.741 49.8122 528.09 52.3761 524.126C53.1797 524.381 54.0854 524.47 54.7614 524.916C61.8281 529.581 68.5632 528.561 72.1731 521.221C78.6658 508.005 84.9161 494.585 85.6177 479.457C85.7963 475.723 87.2249 473.404 91.1537 475.519C95.4396 477.826 98.8454 476.309 102.302 473.964C107.073 470.715 111.372 467.146 113.349 461.36C114.522 457.919 116.206 455.09 120.76 457.983C135.123 467.095 154.703 461.284 157.063 441.747C157.573 437.554 159.588 436.713 163.109 439.108C167.523 442.103 172.102 441.39 176.184 438.726C179.462 436.585 183.187 434.673 184.794 430.621C185.942 427.728 187.945 426.759 190.853 428.416C199.476 433.348 206.479 429.805 212.321 423.586C217.321 418.271 222.577 416.921 229.873 417.583C239.555 418.463 248.228 415.748 247.718 402.086C247.514 396.772 246.341 392.247 243.292 387.889C231.85 371.474 223.623 352.702 207.563 339.702C201.211 334.554 195.343 328.704 187.575 325.556L187.536 325.518Z" fill="#348243"/>
<path d="M156.922 457.091C156.922 456.504 156.922 455.931 156.935 455.345C163.134 458.352 168.772 462.265 175.673 464.164C199.424 470.702 223.15 471.836 247.067 465.629C267.094 460.43 285.475 451.598 302.784 440.319C317.3 430.863 331.383 420.476 346.753 412.638C385.684 392.782 425.138 394.834 464.005 413.441C470.791 416.691 477.386 421.241 477.194 430.519C477.156 432.163 477.857 433.985 479.669 434.635C481.646 435.361 482.87 433.768 483.916 432.519C486.378 429.626 488.878 426.733 490.983 423.573C500.703 408.993 510.716 394.579 519.798 379.592C525.59 370.021 532.95 361.52 537.822 351.287C540.208 346.278 538.447 345.361 534.442 344.558C525.411 338.122 515.168 334.158 504.849 330.501C484.988 323.466 464.757 327.238 445.458 331.584C422.204 336.809 398.937 342.225 375.747 347.846C367.15 349.936 358.463 351.86 349.56 352.408C349.56 351.605 349.534 350.815 349.522 350.012C370.926 345.31 392.292 340.428 413.747 335.968C427.179 333.177 440.024 328.232 453.711 326.219C474.171 323.224 494.376 321.223 514.097 329.621C515.5 330.896 517.158 331.609 519.02 331.89C524.671 334.77 530.577 337.242 535.884 340.658C540.016 343.321 542.453 343.385 544.851 338.823C545.629 337.344 546.573 335.407 548.882 334.757C550.489 337.051 548.588 338.682 547.848 340.416C541.075 356.55 530.781 370.505 520.844 384.741C509.721 400.697 500.652 418.067 488.496 433.284C481.633 441.861 475.995 451.381 468.227 459.232C467.589 459.142 466.964 459.04 466.326 458.951C467.066 454.835 470.013 451.942 472.168 448.641C479.682 437.133 473.903 421.088 460.573 416.818C459.336 415.123 436.388 406.444 426.082 404.393C389.383 397.052 357.226 408.369 327.199 428.416C312.236 438.407 297.338 448.552 281.24 456.606C246.314 474.066 209.986 478.412 172.293 466.598C166.399 464.75 160.774 462.29 156.922 457.078V457.091Z" fill="#605325"/>
<path d="M182.396 440.076C183.34 438.483 184.488 437.094 186.235 436.317C200.216 445.645 215.28 444.575 230.982 442.026C260.92 437.158 282.975 418.322 306.089 401.244C310.821 397.752 315.273 393.903 320.299 389.863C298.626 381.72 286.33 366.121 281.699 344.353C279.136 332.322 283.46 320.955 286.024 309.46C286.661 306.58 287.605 303.762 288.409 300.908C289.225 300.538 290.042 300.181 290.858 299.812C290.858 301.571 290.858 303.33 290.858 305.076C286.521 320.165 280.424 335.164 288.269 350.942C288.435 352.828 288.052 354.969 288.843 356.537C295.858 370.428 306.599 380.305 321.23 385.862C323.513 386.728 325.783 386.932 327.977 385.798C342.404 378.33 357.801 376.342 373.784 377.616C373.465 380.318 371.424 380.05 369.498 380.203C346.142 382.127 325.414 390.31 307.084 405.132C294.621 415.2 281.189 424.069 267.426 432.34C248.037 444.001 226.709 448.207 204.31 447.927C199.386 447.634 194.922 446.168 190.929 443.173C188.429 441.3 185.801 439.477 182.357 440.051L182.396 440.076Z" fill="#635427"/>
<path d="M349.522 350.026C349.522 350.828 349.548 351.619 349.56 352.422C343.195 355.582 336.345 355.225 329.687 354.486C321.268 353.556 317.11 348.751 317.747 342.557C318.742 333.012 321.459 323.976 325.082 315.157C325.745 313.551 326.243 311.295 328.271 312.009C333.462 313.844 338.348 311.601 343.348 311.346C359.497 310.518 375.276 307.701 389.346 299.086C401.642 291.554 411.758 281.92 417.166 268.143C422.256 264.103 422.511 258.508 422.141 252.722C423.276 251.384 424.794 250.734 426.439 250.301C423.225 276.006 408.607 293.339 386.259 305.051C370.059 313.538 352.443 315.437 334.623 315.832C329.636 315.947 327.187 316.814 326.09 322.243C324.929 327.978 323.143 333.611 322.084 339.422C320.987 345.387 323.016 348.369 328.832 350.089C335.873 352.167 342.647 349.936 349.548 350.026H349.522Z" fill="#635427"/>
<path d="M567.939 166.302C560.248 124.004 543.537 86.6371 512.771 55.7319C488.19 31.0461 459.515 14.0833 426.031 5.02203C401.859 -1.52858 377.393 -0.878614 352.864 2.51139C338.182 4.53774 323.628 7.08662 309.979 13.2677C305.094 14.2745 301.088 17.1675 296.841 19.4869C267.005 35.8252 242.692 58.3063 223.036 85.9489C210.471 102.16 201.606 120.359 194.731 139.552C186.962 161.268 179.13 183.061 181.12 206.702C182.357 221.358 187.562 234.026 202.116 240.296C206.173 242.042 207.116 243.113 205.994 247.739C200.764 269.404 210.943 281.448 231.761 278.542C235.651 277.994 237.539 279.09 239.427 282.149C243.598 288.903 249.172 294.345 255.895 298.64C266.342 305.331 277.312 303.75 288.409 300.908C289.225 300.539 290.042 300.182 290.858 299.812C303.614 292.127 311 280.135 316.752 266.996C318.513 262.968 320.579 261.617 324.827 263.058C332.034 265.504 339.547 263.86 346.92 264.281C348.387 263.911 349.854 263.555 351.333 263.185C361.997 259.425 372.023 254.608 379.651 245.916C381.718 243.559 383.312 243.457 384.996 246.209C386.182 248.159 389.014 248.733 389.409 251.384C390.175 251.804 390.94 252.238 391.718 252.658C401.859 256.379 412 256.227 422.141 252.684C423.276 251.345 424.794 250.695 426.439 250.262C429.616 253.652 432.511 257.348 435.993 260.356C447.971 270.704 461.161 276.745 477.424 271.201C482.858 269.353 486.43 261.363 490.971 262.841C495.882 264.434 499.517 270.653 504.505 273.954C520.603 284.634 536.318 282.901 549.711 268.856C558.092 260.075 563.373 249.548 566.294 237.875C572.213 214.145 572.327 190.364 567.939 166.264V166.302ZM310.17 15.0774C332.914 10.9482 331.689 8.89632 355.556 6.16902C387.662 2.4859 418.697 4.33384 448.953 16.989C472.462 26.8277 492.565 41.1269 510.487 58.8798C512.885 61.2503 515.079 63.7864 516.572 66.845C530.067 78.1111 538.231 93.1749 545.846 108.532C549.686 116.28 553.206 124.271 555.936 132.453C561 147.657 564.444 163.256 566.396 179.25C568.475 196.226 568.284 213.1 564.776 229.705C561.166 246.77 554.252 262.369 539.047 272.73C530.692 278.427 514.888 276.796 505.742 269.379C505.079 268.843 504.543 268.168 503.893 267.633C499.811 264.281 496.188 259.693 491.507 257.934C485.499 255.679 483.471 263.3 479.057 265.785C469.018 271.431 456.237 270.284 444.514 261.821C438.749 257.654 433.94 252.696 430.1 246.808C428.404 244.209 427.205 244.107 424.564 245.725C416.987 250.377 408.977 252.875 399.793 250.517C393.848 248.988 389.141 245.878 385.965 241.048C383.197 236.83 381.322 237.824 378.809 240.793C370.135 251.052 359.038 257.017 345.963 259.808C338.029 261.49 330.35 260.165 322.735 258.457C318.602 257.539 316.421 258.482 314.762 262.293C311.318 270.194 307.747 277.879 302.07 284.748C283.804 306.822 258.739 303.126 245.039 282.862C240.001 275.394 234.516 273.737 226.646 274.489C214.936 275.598 210.025 270.921 209.183 259.03C208.724 252.594 210.79 246.439 210.561 240.079C205.318 236.651 198.825 235.428 194.577 230.139C189.118 223.359 185.457 216.069 184.934 207.237C183.327 180.041 192.039 155.304 202.588 130.911C209.31 115.363 216.709 100.21 226.097 86.0891C234.274 77.0023 242.029 67.5715 250.728 58.918C267.081 42.6307 285.297 29.058 305.846 18.5438C307.504 17.69 309.507 17.2184 310.158 15.0901" fill="#3B874A"/>
<path d="M226.111 86.0758C234.287 76.9891 242.043 67.5582 250.742 58.9048C267.095 42.6175 285.31 29.0447 305.86 18.5306C307.518 17.6767 309.521 17.2052 310.171 15.0769C325.338 12.3241 340.109 7.94001 355.556 6.16854C387.663 2.48541 418.697 4.33335 448.954 16.9885C472.463 26.8272 492.566 41.1264 510.488 58.8793C512.886 61.2497 515.08 63.7859 516.573 66.8445C518.231 73.3569 520.246 79.7928 521.471 86.3944C525.693 109.258 522.249 130.656 508.064 149.619C499.021 161.701 488.765 162.746 477.4 153.2C476.29 152.27 475.32 150.817 473.598 151.684C472.068 152.461 471.94 154.016 471.94 155.545C471.94 157.24 472.157 158.986 471.851 160.63C470.511 167.971 468.101 174.636 460.013 177.211C453.534 179.263 444.847 176.242 439.961 170.635C438.125 168.519 438.214 163.6 434.655 164.454C430.65 165.41 432.895 169.896 432.41 172.801C431.02 180.983 424.693 185.546 419.386 181.493C414.258 177.568 412.97 179.059 411.541 184.513C408.378 196.633 396.949 201.604 385.596 196.417C379.065 193.434 374.231 189.28 373.045 181.671C372.751 179.785 372.662 176.089 369.18 177.185C366.093 178.154 365.519 181.021 366.794 184.029C367.049 184.615 367.279 185.214 367.585 185.762C369.128 188.541 368.937 191.599 368.529 194.479C366.871 206.204 354.306 216.604 341.423 217.164C327.634 217.776 322.812 213.685 318.96 197.997C318.59 196.493 318.373 194.913 316.524 194.785C314.623 194.645 314.228 196.238 313.743 197.678C312.148 202.33 309.75 206.599 306.816 210.499C299.916 219.688 289.711 219.357 283.397 209.824C282.415 208.345 281.586 206.842 279.519 207.237C277.478 207.644 276.917 209.25 276.904 211.073C276.84 221.549 268.026 226.825 258.944 228.367C252.681 229.425 242.349 222.632 239.173 215.571C238.127 213.239 237.68 210.193 234.223 211.085C231.034 211.914 232.399 214.947 232.259 217.063C231.366 230.444 223.113 239.263 210.6 240.066C205.357 236.638 198.864 235.414 194.617 230.126C189.157 223.346 185.496 216.056 184.973 207.224C183.366 180.027 192.078 155.291 202.627 130.898C209.35 115.35 216.748 100.197 226.136 86.0758H226.111Z" fill="#4AC466"/>
<path d="M422.14 252.723C422.497 258.522 422.255 264.116 417.165 268.144C413.351 268.144 409.499 268.462 405.723 268.067C400.685 267.545 397.368 269.189 395.008 273.789C392.891 277.931 389.766 281.487 385.939 284.265C370.071 295.786 351.881 297.647 333.245 295.799C318.563 294.346 304.557 293.951 292.707 304.644C292.299 305.013 291.495 304.949 290.883 305.09C290.883 303.331 290.883 301.585 290.883 299.826C303.639 292.141 311.024 280.149 316.777 267.009C318.537 262.982 320.604 261.631 324.851 263.071C332.058 265.518 339.572 263.874 346.944 264.295C344.636 272.821 337.046 279.346 337.314 289.197C341.37 284.75 346.396 285.922 351.077 286.011C360.006 286.177 368.897 284.941 375.16 278.39C382.214 271.011 387.623 262.154 391.73 252.672C401.871 256.406 412.012 256.24 422.153 252.697L422.14 252.723Z" fill="#746228"/>
<path d="M351.346 263.21C348.578 269.327 345.81 275.458 342.812 282.085C357.966 282.99 371.245 281.523 379.217 266.702C382.113 261.336 385.978 256.493 389.409 251.396C390.175 251.816 390.94 252.249 391.718 252.67C387.611 262.152 382.202 271.009 375.148 278.388C368.885 284.939 359.994 286.175 351.065 286.009C346.371 285.92 341.358 284.748 337.302 289.195C337.034 279.344 344.636 272.819 346.932 264.293C348.399 263.923 349.866 263.566 351.346 263.197V263.21Z" fill="#635427"/>
<path d="M52.3381 524.114C49.7742 528.077 50.935 532.729 50.2079 537.011C48.5497 546.684 44.7102 555.248 39.2124 563.099C33.4851 571.281 23.6121 570.49 19.4154 561.416C13.4075 548.443 12.0809 534.169 9.09601 520.38C3.21559 493.285 2.90945 465.744 4.24881 438.268C5.72848 407.987 12.1319 378.662 28.7144 352.702C42.8096 330.641 64.3413 319.477 89.5978 315.501C99.3049 313.972 108.094 319.082 116.908 322.625C120.441 324.04 124.051 325.289 127.636 326.55C135.021 329.137 141.539 328.182 147.713 322.867C152.101 319.095 157.573 317.221 163.671 317.884C172.153 318.802 180.33 320.56 187.498 325.505C187.384 327.493 188.379 329.15 188.978 330.96C194.501 347.489 193.519 363.369 183.493 378.038C177.332 387.073 167.102 389.125 158.479 383.454C157.42 382.753 156.578 381.746 155.532 381.045C154.002 380.013 152.318 379.924 150.775 381.02C149.231 382.129 149.729 383.594 150.303 385.022C152.803 391.152 151.974 397.588 151.731 403.87C151.451 410.752 144.269 416.551 138.657 414.079C132.381 411.313 131.488 413.429 131.309 419.126C131.118 425.753 126.245 428.25 120.837 424.899C118.898 423.688 117.278 421.279 114.752 422.911C112.66 424.274 113.821 426.81 113.642 428.837C113.502 430.315 113.757 431.832 113.553 433.285C112.52 440.562 110.976 447.966 103.183 450.808C95.7461 453.51 89.0365 451.101 83.6536 445.226C82.1994 443.646 80.3881 441.772 78.2069 443.11C75.273 444.907 76.5741 448.093 76.9951 450.63C79.2146 463.82 79.6865 477.125 79.0487 490.43C78.7426 496.968 75.2475 502.525 70.9871 507.329C67.7344 511 63.5505 510.21 59.188 509.139C56.471 508.476 53.4351 510.541 54.3791 513.357C55.8332 517.691 53.6392 520.673 52.3126 524.114H52.3381Z" fill="#49C466"/>
<path d="M181.121 438.802C184.565 438.229 188.468 441.326 190.968 443.199C194.961 446.194 199.425 447.672 204.349 447.953C203.584 451.126 201.135 452.796 198.596 454.414C197.346 455.217 195.739 456.16 195.917 457.715C196.147 459.754 198.201 458.989 199.553 459.257C209.222 461.092 218.814 460.761 228.572 459.397C255.168 455.663 279.225 445.824 300.489 429.639C314.521 418.959 328.909 408.917 344.752 401.232C365.965 390.934 387.905 383.237 411.835 381.185C427.065 379.885 441.313 381.312 455.026 387.786C460.434 390.335 466.034 392.158 471.8 393.611C478.854 395.382 485.487 394.413 490.908 389.622C496.928 384.294 502.72 378.687 507.796 372.378C515.871 362.361 523.18 351.567 534.443 344.596C538.449 345.399 540.196 346.316 537.824 351.325C532.964 361.558 525.603 370.072 519.8 379.63C510.73 394.605 500.717 409.031 490.984 423.611C488.88 426.759 486.379 429.652 483.918 432.557C482.859 433.806 481.647 435.387 479.67 434.673C477.871 434.023 477.17 432.201 477.195 430.557C477.387 421.279 470.779 416.716 464.006 413.479C425.139 394.872 385.685 392.82 346.755 412.676C331.384 420.514 317.301 430.901 302.785 440.357C285.489 451.636 267.107 460.468 247.068 465.667C223.151 471.874 199.425 470.74 175.674 464.202C168.76 462.303 161.859 458.39 155.66 455.383C156.03 454.172 156.528 452.999 156.744 451.763C157.79 445.812 160.558 440.497 168.403 443.62C173.378 445.595 176.541 440.892 181.108 438.853L181.121 438.802Z" fill="#746228"/>
<path d="M534.442 344.572C523.178 351.556 515.869 362.338 507.795 372.355C502.718 378.663 496.927 384.283 490.906 389.598C485.485 394.39 478.839 395.371 471.798 393.587C466.033 392.134 460.433 390.311 455.024 387.763C441.312 381.288 427.051 379.861 411.833 381.161C387.916 383.2 365.976 390.898 344.751 401.208C328.908 408.893 314.519 418.935 300.488 429.615C279.237 445.8 255.167 455.639 228.571 459.373C218.813 460.737 209.22 461.068 199.551 459.233C198.199 458.978 196.146 459.743 195.916 457.691C195.737 456.136 197.345 455.193 198.595 454.39C201.133 452.772 203.569 451.102 204.348 447.929C226.747 448.209 248.062 444.004 267.463 432.342C281.214 424.071 294.646 415.214 307.121 405.133C325.464 390.311 346.179 382.13 369.535 380.205C371.448 380.052 373.502 380.307 373.821 377.618C371.691 373.349 367.201 373.578 363.553 372.699C352.085 369.946 340.363 371.756 328.755 371.31C319.29 370.94 310.527 368.519 302.452 363.332C297.069 359.878 292.822 355.303 288.293 350.944C280.449 335.167 286.546 320.166 290.883 305.077C291.495 304.937 292.299 305.001 292.707 304.631C304.544 293.938 318.563 294.334 333.245 295.786C351.881 297.634 370.071 295.786 385.939 284.253C389.766 281.474 392.891 277.919 395.008 273.777C397.368 269.163 400.685 267.532 405.723 268.055C409.499 268.45 413.351 268.131 417.165 268.131C411.757 281.908 401.641 291.543 389.345 299.074C375.275 307.69 359.496 310.519 343.347 311.335C338.36 311.589 333.462 313.832 328.27 311.997C326.255 311.284 325.744 313.552 325.081 315.145C321.458 323.977 318.741 333.013 317.747 342.546C317.109 348.739 321.267 353.544 329.686 354.474C336.344 355.213 343.194 355.57 349.559 352.41C358.463 351.862 367.137 349.937 375.747 347.847C398.937 342.214 422.204 336.811 445.457 331.585C464.757 327.24 484.988 323.467 504.848 330.502C515.168 334.16 525.411 338.123 534.442 344.559V344.572Z" fill="#917D38"/>
<path d="M288.295 350.969C292.81 355.315 297.071 359.903 302.454 363.356C310.528 368.543 319.292 370.965 328.756 371.334C340.364 371.78 352.087 369.983 363.554 372.723C367.189 373.603 371.68 373.373 373.822 377.643C357.839 376.368 342.443 378.369 328.016 385.825C325.822 386.959 323.552 386.755 321.269 385.888C306.638 380.332 295.897 370.455 288.882 356.564C288.091 354.996 288.474 352.842 288.308 350.969H288.295Z" fill="#746228"/>
<path d="M428.609 49.3457C435.982 52.8249 441.416 63.3773 439.732 69.571C438.622 73.6492 434.362 75.5609 430.038 73.9296C425.994 72.4003 419.858 63.6449 419.846 59.3755C419.846 58.5217 419.846 57.5913 420.802 57.2727C422.116 56.8267 422.69 57.9227 423.264 58.7638C425.394 61.9117 427.155 65.3399 430.114 67.8633C431.096 68.7044 432.117 69.5965 433.494 69.125C435.344 68.5005 435.025 66.8055 435.038 65.3654C435.076 62.3322 432.576 55.96 428.622 49.3457H428.609Z" fill="#2C833D"/>
<path d="M271.776 112.662C271.891 111.592 271.904 110.088 272.287 108.686C272.478 107.998 273.307 107.093 273.932 107.004C275.348 106.813 275.476 108.062 275.527 109.145C275.552 109.782 275.565 110.419 275.552 111.057C275.476 114.23 276.42 117.671 279.353 118.321C282.211 118.958 283.473 115.402 285.055 113.185C286.535 111.12 286.739 106.125 289.545 107.45C292.938 109.056 290.094 113.172 289.112 115.9C287.441 120.538 284.047 124.553 278.83 123.763C273.511 122.947 271.929 118.143 271.764 112.675L271.776 112.662Z" fill="#2C833D"/>
<path d="M252.541 99.0625C255.079 102.032 252.452 104.275 252.566 106.645C252.681 108.952 252.26 111.565 255.092 112.508C257.796 113.413 259.34 111.73 260.628 109.526C262.044 107.117 263.383 102.644 266.483 104.428C269.111 105.932 266.088 109.653 264.952 112.151C262.835 116.815 259.072 119.594 253.906 118.281C248.331 116.866 248.28 111.985 248.918 107.448C249.314 104.606 250.041 101.675 252.541 99.0625Z" fill="#2C833D"/>
<path d="M413.607 68.6289C418.492 74.4659 419.882 83.0683 417.459 87.4651C415.188 91.5816 411.923 91.7217 408.479 89.1474C405.099 86.624 403.938 82.686 402.726 78.8499C402.407 77.8431 401.922 76.7344 403.223 76.1609C404.461 75.6128 405.175 76.5432 405.711 77.4863C406.54 78.9519 407.229 80.5067 408.083 81.9468C409.027 83.5271 409.882 85.8593 412.076 85.3241C414.142 84.8143 414.232 82.2017 414.308 80.5322C414.461 77.0785 413.951 73.5992 413.607 68.6417V68.6289Z" fill="#2C833D"/>
<path d="M248.087 163.204C251.098 164.555 251.48 170.38 255.817 168.251C258.624 166.875 260.69 163.995 263.879 161.076C263.445 166.786 261.991 171.042 257.846 174.088C255.447 175.86 253.317 174.381 251.455 173.069C248.126 170.711 246.404 167.614 248.075 163.204H248.087Z" fill="#2C833D"/>
<path d="M524.583 163.932C530.821 169.82 532.772 180.512 529.188 186.833C525.961 192.517 521.266 193.919 516.126 190.096C510.679 186.03 507.72 180.474 507.796 172.037C511.725 175.261 512.299 178.983 514.213 181.787C516.024 184.437 518.014 187.318 521.777 186.489C525.514 185.661 525.922 182.067 526.662 179.059C527.887 174.038 524.736 169.399 524.596 163.932H524.583Z" fill="#287C38"/>
<path d="M274.275 245.637C277.796 247.957 276.546 250.505 276.878 252.621C277.388 255.884 278.421 259.528 281.776 260.013C285.488 260.548 286.266 256.368 287.746 253.742C288.141 253.054 288.115 252.124 288.269 251.296C288.702 248.963 287.401 244.719 290.36 244.911C293.894 245.14 291.84 249.358 292.019 251.78C292.159 253.781 291.457 255.947 290.718 257.884C288.97 262.447 286.444 266.551 280.666 265.506C275.181 264.499 274.326 260.038 274.301 255.336C274.288 252.417 274.301 249.486 274.301 245.65L274.275 245.637Z" fill="#287C38"/>
<path d="M478.941 197.781C482.067 198.903 482.87 201.694 484.656 203.669C486.212 205.39 487.705 207.288 490.46 206.881C493.483 206.435 493.713 203.784 494.274 201.655C495.626 196.519 494.81 191.307 494.21 185.891C501.239 190.823 500.282 207.505 493.151 211.035C491.276 211.966 489.593 212.144 487.768 211.074C482.628 208.04 479.898 203.452 478.941 197.781Z" fill="#287C38"/>
<path d="M326.485 232.866C325.923 239.327 321.535 244.425 317.249 243.609C312.543 242.717 306.739 234.025 307.734 229.297C307.848 228.762 308.244 228.112 308.703 227.844C309.545 227.36 310.476 227.743 310.821 228.558C311.305 229.692 311.356 231.031 311.854 232.165C312.963 234.701 314.188 237.314 317.466 237.454C320.54 237.581 320.693 234.624 321.956 232.828C322.938 231.426 322.977 228.647 325.643 229.463C326.969 229.871 326.459 231.642 326.485 232.866Z" fill="#287C38"/>
<path d="M33.3567 387.734C35.3977 391.927 34.1476 397.955 39.0203 397.586C43.5104 397.242 41.9286 391.914 42.2986 388.537C42.5154 386.638 42.6302 383.873 44.4926 383.796C47.1075 383.682 47.1713 386.587 47.2478 388.614C47.3626 391.749 47.8091 394.973 46.0615 397.904C44.2629 400.912 42.2348 403.767 38.1784 403.053C34.2752 402.365 32.6679 399.293 32.1577 395.789C31.8261 393.456 31.4179 390.895 33.3695 387.734H33.3567Z" fill="#2C833D"/>
<path d="M56.2919 376.942C57.0828 377.643 57.2869 377.758 57.3762 377.923C59.1365 381.249 58.9962 386.933 64.2898 386.36C69.5197 385.786 68.8946 380.701 69.086 376.751C69.137 375.667 69.3283 374.546 70.5656 374.266C71.8412 373.972 72.3387 374.954 72.7852 375.961C74.9409 380.842 73.5633 384.984 70.0937 388.628C66.8282 392.069 62.6826 392.541 59.3533 389.61C55.9348 386.602 53.6005 382.46 56.2664 376.942H56.2919Z" fill="#2C833D"/>
<path d="M40.2717 460.39C43.9454 463.015 44.0219 468.738 48.5247 467.68C53.6781 466.456 52.6321 461.002 53.7929 457.178C54.15 456.019 53.8566 454.63 56.293 453.189C58.2829 457.943 58.2191 462.238 55.719 466.482C53.7291 469.834 51.28 472.969 46.6496 471.452C41.8024 469.859 40.0166 466.227 40.2717 460.403V460.39Z" fill="#2C833D"/>
<path d="M125.352 363.572C125.837 365.063 126.22 365.803 126.284 366.555C126.59 370.059 128.363 373.36 131.692 373.092C134.932 372.825 135.123 368.938 135.327 365.943C135.429 364.426 134.575 361.941 136.973 361.903C139.052 361.865 138.963 364.184 139.039 365.854C139.078 366.695 139.09 367.536 139.039 368.377C138.81 372.85 137.764 377.145 132.457 377.578C127.24 378.012 125.378 373.768 124 369.702C123.439 368.033 123.146 366.032 125.314 363.572H125.352Z" fill="#2C833D"/>
<path d="M27.1443 502.016C30.8563 508.082 30.6394 517.462 27.0933 521.922C24.8866 524.688 21.889 524.599 18.9679 524.14C15.3325 523.566 14.7585 520.699 14.4141 517.092C17.5392 517.768 18.9169 522.126 22.3354 519.985C25.384 518.086 25.7795 514.696 26.4683 511.714C27.1443 508.745 26.9402 505.584 27.1443 502.016Z" fill="#2C833D"/>
<path d="M199.986 377.373C205.063 379.705 210.012 382.637 212.143 378.953C213.992 375.755 209.502 372.122 206.568 369.484C205.51 368.529 203.532 367.777 204.655 366.133C205.943 364.246 207.155 366.336 208.303 366.948C211.722 368.771 214.426 371.472 216.556 374.608C218.253 377.106 219.401 380.151 217.105 382.789C215.064 385.122 212.27 385.899 209.068 384.65C205.803 383.388 202.219 382.726 200.012 377.373H199.986Z" fill="#287C38"/>
<path d="M195.267 385.545C199.553 390.146 202.142 394.963 200.331 401.284C199.553 403.986 197.805 405.77 194.884 405.643C189.82 405.426 187.715 401.577 185.381 398.047C186.516 396.875 187.23 397.41 187.906 397.894C190.177 399.5 192.32 403.158 195.292 400.609C197.805 398.455 196.619 394.759 195.802 391.675C195.318 389.84 193.073 388.26 195.254 385.545H195.267Z" fill="#287C38"/>
<path d="M313.079 333.355C313.513 338.058 311.153 342.047 311.153 346.431C311.153 353.224 312.887 358.538 319.686 361.164C320.885 361.623 322.416 362.12 322.148 363.598C321.766 365.701 319.776 365.025 318.475 364.86C316.115 364.554 314.138 363.279 312.352 361.699C304.953 355.148 305.119 339.613 313.079 333.368V333.355Z" fill="#605325"/>
<path d="M313.054 412.994C304.202 418.461 295.413 424.044 285.17 426.567C293.206 419.468 302.518 414.957 313.054 412.994Z" fill="#605325"/>
<path d="M445.791 337.981C456.633 333.597 466.774 334.413 477.298 334.285C472.642 337.968 453.827 340.352 445.791 337.981Z" fill="#605325"/>
<path d="M375.633 295.95C381.743 292.662 387.241 288.583 393.44 284.441C391.463 291.515 382.572 297.275 375.633 295.95Z" fill="#605325"/>
<path d="M450.088 348.252C456.211 344.365 462.754 344.06 469.515 345.461C463.469 349.31 456.734 348.75 450.088 348.252Z" fill="#605325"/>
<path d="M272.35 438.23C276.687 434.496 280.628 433.183 284.544 431.87C285.692 431.488 287.108 430.762 287.695 432.495C288.116 433.718 286.942 434.483 286.011 434.789C281.967 436.089 278.434 439.262 272.35 438.23Z" fill="#635427"/>
<path d="M300.004 330.604C301.942 334.58 299.455 337.141 299.2 340.57C296.534 336.02 296.534 335.969 300.004 330.604Z" fill="#635427"/>
</g>
</g>
<defs>
<clipPath id="clip0_4504_1972">
<rect width="580" height="681" fill="white"/>
</clipPath>
</defs>
</svg>
