<svg width="278" height="292" viewBox="0 0 278 292" fill="none" xmlns="http://www.w3.org/2000/svg">
<g clip-path="url(#clip0_4459_2205)">
<path d="M123.942 204.471C121.701 203.352 119.779 205.22 117.611 205.154C113.39 205.024 109.155 205.321 104.949 205.045C102.295 204.871 100.758 205.946 100.025 208.199C97.8495 214.877 95.8698 221.605 94.2454 228.457C91.1923 241.311 89.3214 254.514 83.4256 266.554C81.3371 270.819 78.4436 274.445 74.3825 276.93C67.8486 280.926 61.9964 278.354 56.3472 274.707C52.714 272.36 50.5022 268.755 48.2323 265.217C47.8625 264.643 47.9277 263.669 46.9778 263.669C45.7304 263.669 46.006 264.824 45.7232 265.537C43.9827 269.889 42.148 274.205 38.1232 276.988C29.0947 283.244 19.1524 280.454 13.8803 270.158C10.5952 263.742 9.0868 256.737 7.25208 249.812C5.35209 242.619 4.38759 235.287 3.2563 227.985C2.22654 221.343 1.42158 214.615 1.21128 207.901C0.913953 198.375 -0.57993 188.885 0.254034 179.308C0.580367 175.574 0.660138 171.817 0.768915 168.075C1.07349 157.263 2.64715 146.661 4.95324 136.074C9.6887 114.334 18.8913 94.6062 31.205 76.3171C38.8339 64.9818 47.906 54.8237 58.501 46.0388C70.2562 36.2948 82.4539 27.1322 95.1519 18.7397C104.166 12.7814 114.348 8.83583 124.739 5.67503C139.446 1.19177 154.487 -0.77737 169.817 0.276231C178.766 0.893859 187.337 3.34984 195.786 6.43798C213.205 12.7959 227.781 23.3465 240.486 36.5637C252.22 48.7709 259.943 63.6085 266.847 78.9184C271.423 89.0766 275.128 99.5182 277.319 110.432C278.044 114.058 277.833 117.887 277.942 121.629C278.254 132.391 277.108 142.927 273.606 153.194C271.372 159.741 266.637 163.207 260.487 165.401C252.902 168.111 246.31 165.662 240.16 161.448C237.709 159.77 236.222 158.229 233.554 161.681C229.942 166.346 221.929 166.876 215.17 163.846C213.741 163.207 212.045 162.778 211.022 161.717C208.477 159.072 206.845 159.799 205.416 162.683C204.872 163.504 204.329 164.326 203.777 165.154C200.681 168.918 196.243 170.705 192.189 173.059C191.384 173.118 190.586 173.168 189.781 173.227C180.267 173.256 171.543 171.098 164.668 163.984C163.348 162.618 162.92 163.454 162.442 164.631C161.775 166.266 161.1 167.893 160.404 169.514C157.511 176.213 153.834 181.895 145.24 181.169C144.479 181.103 143.906 181.307 143.58 182.179C142.086 186.211 140.512 190.215 138.968 194.226C137.597 194.211 136.937 194.88 137.002 196.253C133.652 198.469 130.302 200.678 126.959 202.895C125.697 202.931 124.283 202.677 123.942 204.479V204.471Z" fill="#5F962B"/>
<path d="M240.029 271.197C241.261 272.345 239.949 273.842 240.029 275.194C240.101 276.422 240.072 277.592 241.653 277.846C238.614 281.203 234.474 282.874 230.63 284.952C226.446 287.212 222.472 289.988 217.7 291.005C218.048 287.524 215.72 284.502 214.705 281.334C217.729 281.319 220.717 279.35 223.291 278.216C228.621 275.862 234.423 272.919 240.036 271.197H240.029Z" fill="#5B4B0E"/>
<path d="M123.942 204.471C121.701 203.352 119.779 205.22 117.611 205.154C113.39 205.024 109.155 205.321 104.949 205.045C102.295 204.871 100.758 205.946 100.025 208.199C97.8495 214.877 95.8698 221.605 94.2454 228.457C91.1923 241.311 89.3214 254.514 83.4256 266.554C81.3371 270.819 78.4436 274.445 74.3825 276.93C67.8486 280.926 61.9964 278.354 56.3472 274.707C52.714 272.36 50.5022 268.755 48.2323 265.217C47.8625 264.643 47.9277 263.669 46.9778 263.669C45.7304 263.669 46.006 264.824 45.7232 265.537C43.9827 269.889 42.148 274.205 38.1232 276.988C29.0947 283.244 19.1524 280.454 13.8803 270.158C10.5952 263.742 9.0868 256.737 7.25208 249.812C5.35209 242.619 4.38759 235.287 3.2563 227.985C2.22654 221.343 1.42158 214.615 1.21128 207.901C0.913953 198.375 -0.57993 188.885 0.254034 179.308C0.580367 175.574 0.660138 171.817 0.768915 168.075C1.07349 157.263 2.64715 146.661 4.95324 136.074C9.6887 114.334 18.8913 94.6062 31.205 76.3171C38.8339 64.9818 47.906 54.8237 58.501 46.0388C70.2562 36.2948 82.4539 27.1322 95.1519 18.7397C104.166 12.7814 114.348 8.83583 124.739 5.67503C139.446 1.19177 154.487 -0.77737 169.817 0.276231C178.766 0.893859 187.337 3.34984 195.786 6.43798C213.205 12.7959 227.781 23.3465 240.486 36.5637C252.22 48.7709 259.943 63.6085 266.847 78.9184C271.423 89.0766 275.128 99.5182 277.319 110.432C278.044 114.058 277.833 117.887 277.942 121.629C278.254 132.391 277.108 142.927 273.606 153.194C271.372 159.741 266.637 163.207 260.487 165.401C252.902 168.111 246.31 165.662 240.16 161.448C237.709 159.77 236.222 158.229 233.554 161.681C229.942 166.346 221.929 166.876 215.17 163.846C213.741 163.207 212.045 162.778 211.022 161.717C208.477 159.072 206.845 159.799 205.416 162.683C204.872 163.504 204.329 164.326 203.777 165.154C200.681 168.918 196.243 170.705 192.189 173.059C191.384 173.118 190.586 173.168 189.781 173.227C180.267 173.256 171.543 171.098 164.668 163.984C163.348 162.618 162.92 163.454 162.442 164.631C161.775 166.266 161.1 167.893 160.404 169.514C157.511 176.213 153.834 181.895 145.24 181.169C144.479 181.103 143.906 181.307 143.58 182.179C142.086 186.211 140.512 190.215 138.968 194.226C137.597 194.211 136.937 194.88 137.002 196.253C133.652 198.469 130.302 200.678 126.959 202.895C125.697 202.931 124.283 202.677 123.942 204.479V204.471ZM192.798 9.09015C185.437 6.5615 177.917 4.58509 170.165 3.982C154.922 2.79761 139.845 4.54876 125.407 9.32993C111.882 13.8059 98.7488 19.3573 87.2836 28.3311C76.297 36.9343 64.4185 44.4039 54.2079 54.0099C44.0843 63.5359 35.5126 74.3335 28.5943 86.3808C23.4237 95.3837 18.8623 104.677 15.0333 114.385C11.8788 122.399 9.62344 130.632 7.52765 138.901C5.58415 146.574 5.25056 154.56 4.46011 162.444C2.6399 180.674 3.73493 198.891 5.48262 216.998C6.57765 228.384 8.20207 239.829 11.4727 250.946C13.1913 256.795 14.2646 262.855 17.6005 268.043C20.0081 271.786 22.7638 275.419 27.9126 275.571C32.4813 275.709 37.3255 272.251 39.4576 267.266C40.9587 263.756 42.9965 260.494 43.8159 256.679C44.0843 255.415 45.1213 254.201 46.4919 253.954C48.3774 253.62 47.8552 255.582 48.4136 256.476C50.872 260.457 52.5907 265.05 56.0063 268.254C62.7288 274.568 68.436 276.291 75.0279 270.754C78.4581 267.876 80.0317 263.458 81.968 259.455C85.1878 252.806 86.2538 245.525 87.7187 238.412C88.9008 232.679 91.0691 227.091 90.779 221.096C91.5839 220.966 91.9828 220.515 92.1858 219.694C93.1141 215.872 94.2236 212.086 95.0576 208.242C96.5442 201.42 101.824 198.281 108.176 200.526C108.945 200.795 109.866 200.584 110.678 200.766C113.456 201.405 115.74 199.53 118.329 199.312C123.826 198.847 128.344 196.399 132.434 192.802C136.429 189.285 138.184 184.649 139.649 179.781C140.331 177.514 140.802 175.486 144.312 177.158C146.814 178.349 149.715 177.753 152.173 175.297C156.648 170.829 157.953 164.921 160.245 159.457C160.803 158.12 160.825 156.536 162.783 156.471C164.777 156.405 165.966 157.684 166.655 159.246C167.844 161.949 169.802 163.541 172.42 164.834C174.93 166.069 177.62 166.636 180.136 167.668C187.149 170.524 192.972 168.257 198.426 163.984C200.623 162.262 201.783 159.697 203.139 157.314C205.453 153.266 206.555 153.121 210.29 155.577C212.792 157.219 215.438 158.731 218.194 159.864C224.271 162.356 228.644 160.969 232.335 155.751C234.126 153.215 236.476 152.707 239.021 154.829C241.146 156.594 243.387 158.033 245.78 159.392C251.603 162.691 257.303 161.87 262.945 159.261C268.682 156.609 269.755 150.767 271.053 145.557C272.191 140.979 273.258 136.336 273.722 131.526C274.759 120.859 274.178 110.417 270.893 100.259C268.109 91.6634 264.947 83.2128 260.792 75.1182C256.419 66.6095 252.263 58.0063 246.708 50.1878C239.464 40.0006 230.667 31.3829 220.565 24.0513C211.972 17.8169 202.711 12.854 192.798 9.11194V9.09015Z" fill="#59892C"/>
<path d="M123.941 204.472C124.282 202.67 125.696 202.924 126.958 202.888C126.922 207.785 129.634 211.745 131.418 216.025C132.586 219.68 134.855 222.63 138.01 224.614C147.169 230.369 157.735 231.495 168.083 232.483C175.343 233.173 182.71 233.943 190.078 233.457C194.458 233.166 198.505 234.939 202.66 235.869C204.277 236.232 206.083 237.162 207.592 238.521C211.624 242.147 212.32 247.27 212.994 251.862C214.423 261.599 214.698 271.503 215.445 281.334C216.453 284.495 218.063 287.517 217.715 291.005C216.869 291.979 215.762 291.642 214.394 289.995C211.718 281.079 211.065 271.931 210.514 262.667C210.21 257.566 209.492 252.291 207.874 247.168C205.88 240.854 201.319 239.088 195.851 238.245C185.981 236.719 175.944 237.17 166.046 236C157.423 234.983 148.982 233.377 140.874 229.94C133.76 226.924 130.055 221.191 127.132 214.688C125.675 211.455 124.144 208.148 123.956 204.472H123.941Z" fill="#4C3E0F"/>
<path d="M203.777 165.154C204.321 164.333 204.872 163.512 205.416 162.684C209.746 168.518 212.965 175.007 215.91 181.568C219.942 190.557 223.575 199.756 225.888 209.369C227.476 215.952 228.441 222.666 231.472 228.864C235.548 237.206 238.028 246.02 239.594 255.226C240.675 261.533 241.922 267.833 242.923 274.169C242.597 275.426 243.771 277.206 241.654 277.846C240.073 277.591 240.095 276.422 240.029 275.194C239.957 273.842 240.544 272.345 239.311 271.197C238.739 263.822 237.071 256.643 235.395 249.464C234.424 245.279 233.452 241.101 231.458 237.264C227.179 229.031 224.909 220.145 222.625 211.229C220.942 204.668 219.818 197.888 216.149 191.981C216.098 191.269 216.236 190.47 215.96 189.852C213.741 184.758 211.704 179.563 209.071 174.687C207.353 171.498 206.453 167.814 203.777 165.154Z" fill="#4E4011"/>
<path d="M90.7785 221.096C91.0686 227.098 88.9003 232.686 87.7182 238.411C86.2461 245.532 85.1801 252.813 81.9675 259.454C80.0312 263.451 78.4576 267.876 75.0275 270.753C68.4355 276.283 62.7283 274.568 56.0058 268.254C52.5902 265.042 50.8715 260.457 48.4131 256.475C47.862 255.582 48.3841 253.62 46.4914 253.954C45.1208 254.194 44.0838 255.414 43.8155 256.679C43.0033 260.493 40.9582 263.763 39.4571 267.266C37.3251 272.257 32.4881 275.709 27.9121 275.571C22.7633 275.418 20.0076 271.785 17.6 268.043C14.2641 262.855 13.1909 256.795 11.4722 250.946C8.20159 239.828 6.57718 228.384 5.48215 216.998C3.7417 198.891 2.63942 180.667 4.45963 162.443C5.25009 154.559 5.58367 146.574 7.52717 138.901C9.62296 130.632 11.8783 122.399 15.0328 114.384C18.8546 104.67 23.4232 95.3761 28.5938 86.3805C35.5121 74.3331 44.091 63.5283 54.2074 54.0095C64.418 44.4036 76.2965 36.9339 87.2831 28.3307C98.741 19.357 111.881 13.8056 125.406 9.32958C139.845 4.54841 154.921 2.79726 170.165 3.98165C177.91 4.58474 185.437 6.56842 192.798 9.08979C194.139 12.6575 197.221 14.99 199.216 18.0781C203.661 24.981 206.496 32.4289 208.092 40.6106C210.514 52.9922 209.985 64.9306 205.829 76.8109C201.855 88.1752 191.746 91.9973 180.694 86.9691C178.831 86.1189 177.148 85.2324 175.487 86.9473C173.805 88.6912 173.587 90.6966 174.813 92.9056C177.105 97.0182 179.106 101.276 179.121 106.108C179.121 109.589 177.083 111.434 173.653 111.398C171.789 111.376 170.215 110.722 168.634 109.698C167.191 108.753 165.241 108.76 163.79 109.625C162.275 110.526 162.325 112.19 162.927 113.84C163.594 115.685 162.811 117.051 161.303 118.206C158.018 120.721 153.232 120.837 149.903 118.381C148.373 117.247 146.85 115.576 144.79 117.102C142.695 118.657 143.492 120.815 144.261 122.675C145.951 126.759 145.334 130.683 142.883 133.981C140.367 137.375 136.472 137.331 132.643 136.387C131.2 136.031 129.583 135.602 128.778 137.208C127.995 138.77 128.3 140.339 129.453 141.909C134.311 148.514 136.48 155.649 133.419 163.766C131.135 169.818 126.973 171.635 121.222 168.896C120.468 168.532 119.75 168.082 118.959 167.813C116.863 167.108 114.565 166.578 112.817 168.22C110.902 170.022 111.533 172.434 112.28 174.643C112.621 175.66 113.245 176.583 113.586 177.601C114.006 178.865 114.478 180.449 113.361 181.335C112.099 182.345 110.38 182.084 108.915 181.35C108.284 181.03 107.842 180.274 107.197 180.049C105.13 179.33 102.563 179.119 101.99 181.561C101.069 185.463 99.8361 185.877 96.4712 183.828C94.593 182.687 91.743 182.229 90.0243 184.816C88.6537 186.872 89.3716 188.718 91.0541 190.302C94.4479 193.492 94.7018 197.357 91.1846 200.511C88.1461 203.236 88.0663 206.288 89.0598 209.688C90.1548 213.416 90.8945 217.172 90.793 221.067L90.7785 221.096Z" fill="#7BC337"/>
<path d="M131.419 216.025C129.642 211.745 126.93 207.785 126.959 202.887C130.31 200.671 133.66 198.462 137.01 196.246C138.801 202.415 142.224 207.451 147.351 211.331C151.021 214.099 155.009 215.727 159.607 216.657C166.083 217.965 172.457 217.384 178.875 217.071C179.804 217.027 180.652 215.807 181.841 216.119C186.867 217.456 191.994 218.503 196.874 220.254C201.189 221.801 204.315 225.144 206.715 229.068C202.705 229.322 199.006 227.709 195.199 227.149C186.657 225.892 178.128 223.865 169.339 224.672C165.641 225.013 161.884 224.715 158.157 224.715C158.055 224.664 157.954 224.613 157.852 224.563C157.946 224.621 158.041 224.679 158.142 224.73C158.099 225.652 157.627 226.147 156.685 226.154C156.112 222.76 152.754 223.843 150.883 222.528C147.801 219.549 143.791 217.928 140.426 215.327C138.047 213.489 135.48 213.089 133.131 215.69C132.819 216.039 132.007 215.93 131.419 216.032V216.025Z" fill="#5B4A0E"/>
<path d="M206.715 229.06C204.315 225.136 201.189 221.787 196.874 220.246C191.994 218.495 186.867 217.449 181.841 216.112C180.645 215.792 179.803 217.02 178.875 217.064C172.457 217.383 166.083 217.965 159.607 216.649C155.017 215.719 151.021 214.099 147.351 211.323C142.217 207.443 138.801 202.408 137.01 196.239C136.945 194.865 137.605 194.19 138.976 194.204C142.268 202.313 147.301 208.969 155.677 212.13C162.305 214.637 169.484 214.637 176.294 213.431C181.406 212.522 186.011 213.496 190.783 214.411C195.388 215.298 199.811 216.838 204.373 219.345C202.038 204.667 196.671 191.697 191.348 178.713C190.623 176.954 189.782 175.196 189.789 173.212C190.594 173.154 191.392 173.103 192.197 173.045C194.909 179.694 197.621 186.342 200.885 192.751C201.03 193.695 201.001 194.713 201.349 195.57C203.677 201.31 205.221 207.283 206.918 213.22C208.492 218.713 208.92 224.461 210.863 229.859C211.204 230.811 211.414 232.185 209.942 232.57C208.717 232.889 207.832 232.236 207.513 230.986C207.332 230.295 207.39 229.525 206.715 229.046V229.06Z" fill="#4B3D0E"/>
<path d="M200.883 192.766C197.62 186.357 194.908 179.709 192.195 173.06C196.249 170.706 200.687 168.918 203.784 165.154C206.46 167.814 207.359 171.498 209.078 174.688C211.71 179.563 213.741 184.766 215.967 189.852C216.235 190.47 216.105 191.269 216.155 191.981C215.169 191.996 214.176 192.003 213.189 192.017C211.522 190.717 212.174 188.399 210.999 186.931C210.1 185.805 209.81 183.436 208.135 183.872C206.677 184.25 207.685 186.364 207.439 187.68C206.336 186.662 206.264 184.526 204.32 184.548C202.536 187.411 205.321 189.503 205.263 192.039C203.762 192.017 202.254 191.93 200.89 192.766H200.883Z" fill="#5B4A0E"/>
<path d="M200.885 192.766C202.241 191.93 203.757 192.017 205.258 192.039C206.193 192.461 205.809 194.27 207.274 194.059C208.391 193.899 208.115 192.868 208.238 192.112C208.695 192.09 209.145 192.068 209.602 192.039C210.646 193.507 211.509 195.047 212.067 196.791C212.307 197.54 212.981 198.441 213.902 198.208C215.178 197.881 214.453 196.9 214.236 196.159C213.844 194.793 214.062 193.267 213.184 192.025C214.17 192.01 215.164 192.003 216.15 191.988C219.82 197.888 220.944 204.675 222.626 211.236C224.91 220.145 227.18 229.039 231.459 237.271C233.453 241.108 234.425 245.293 235.397 249.471C237.072 256.65 239.465 264.556 240.038 271.931C234.425 273.646 228.631 275.869 223.293 278.224C220.719 279.357 218.456 281.326 215.432 281.341C214.685 271.502 214.417 261.599 212.988 251.869C212.314 247.277 211.618 242.147 207.586 238.528C206.077 237.17 204.272 236.24 202.654 235.876C198.499 234.946 194.453 233.18 190.072 233.464C182.705 233.951 175.344 233.18 168.078 232.49C157.729 231.502 147.163 230.368 138.004 224.621C134.849 222.637 132.58 219.694 131.412 216.032C131.992 215.93 132.812 216.039 133.124 215.691C135.473 213.097 138.04 213.489 140.419 215.327C143.777 217.921 147.794 219.542 150.876 222.528C149.817 222.368 148.744 222.259 147.693 222.034C146.779 221.838 145.916 221.845 145.531 222.782C145.046 223.989 146.213 224.301 146.902 224.439C150.144 225.079 153.197 226.866 156.67 226.154C157.606 226.139 158.077 225.653 158.128 224.73L158.142 224.715C161.87 224.715 165.626 225.02 169.325 224.672C178.121 223.858 186.642 225.892 195.185 227.149C198.999 227.709 202.698 229.322 206.701 229.068C207.375 229.547 207.325 230.318 207.499 231.008C207.818 232.25 208.702 232.912 209.928 232.592C211.4 232.207 211.197 230.841 210.849 229.882C208.905 224.483 208.478 218.735 206.904 213.242C205.207 207.305 203.662 201.325 201.335 195.592C200.986 194.728 201.015 193.718 200.87 192.773L200.885 192.766Z" fill="#746017"/>
<path d="M24.2874 177.964C25.8683 180.071 26.3904 182.309 26.2236 184.823C25.9771 188.616 28.4355 191.566 29.6393 194.909C29.9076 195.65 30.669 196.311 31.6335 196.238C32.7576 196.158 32.6706 195.061 33.0404 194.364C35.8106 189.168 34.614 183.523 34.9331 178.037C35.0274 176.474 33.9831 173.779 35.8251 173.59C37.8049 173.386 37.4205 176.184 37.9499 177.789C40.1037 184.307 40.0312 190.665 37.2682 197.009C36.3908 199.021 35.361 200.591 32.9606 200.765C30.3355 200.954 27.8336 200.882 26.4194 198.128C23.5767 192.591 22.2061 186.727 22.605 180.478C22.6702 179.439 23.0981 178.64 24.2801 177.971L24.2874 177.964Z" fill="#558825"/>
<path d="M124.936 72.8874C125.146 74.1299 124.355 76.0482 122.455 76.8111C119.685 77.9229 116.56 77.8212 114.217 75.9101C111.266 73.4978 108.699 70.5913 106.081 67.7865C105.283 66.9291 104.58 65.5049 105.754 64.553C106.857 63.6593 107.712 64.9164 108.452 65.6502C110.997 68.208 113.456 70.8238 116.988 72.1317C118.017 72.5095 118.953 73.3306 119.939 72.4878C120.889 71.6812 119.997 70.6857 119.794 69.7993C118.844 65.5267 116.922 61.6393 114.783 57.8827C114.058 56.6111 113.318 55.3686 114.529 54.4021C115.682 53.4793 116.552 55.0343 117.118 55.7173C121.041 60.4622 124.638 65.4105 124.943 72.8801L124.936 72.8874Z" fill="#558825"/>
<path d="M61.0038 175.429C61.1053 178.582 60.8515 181.634 59.0675 184.424C57.3996 187.033 55.5069 188.929 52.084 188.442C49.0745 188.014 47.363 185.863 46.4058 183.458C45.057 180.057 43.7951 176.504 44.3753 172.675C44.5493 171.541 44.1215 169.906 45.8619 169.928C47.3123 169.943 47.1237 171.41 47.189 172.471C47.3921 176.01 48.3348 179.309 50.3508 182.251C51.9317 184.562 53.15 184.402 54.9267 182.281C57.6172 179.069 56.029 175.014 57.3561 171.556C57.9653 169.972 57.4649 166.934 59.0893 167.014C61.1923 167.116 60.3076 170.153 60.924 171.839C61.3156 172.907 60.9965 174.23 60.9965 175.436L61.0038 175.429Z" fill="#558825"/>
<path d="M68.9655 228.384C68.893 231.015 69.2194 234.553 67.2614 237.976C65.4701 241.1 63.7297 243.883 59.6977 243.462C56.6446 243.142 54.1282 239.524 53.7511 235.316C53.6134 233.761 53.7656 232.185 53.2653 230.644C53.0114 229.867 52.8737 228.784 54.0122 228.566C55.2088 228.334 55.7382 229.235 55.8614 230.295C56.1298 232.715 56.6736 235.004 58.0515 237.082C59.7484 239.633 61.3366 239.749 62.6564 236.98C63.8312 234.517 65.093 231.821 65.1801 229.198C65.2671 226.328 66.8698 223.945 66.848 221.162C66.848 220.559 66.9858 219.897 67.769 219.832C68.7625 219.752 68.9583 220.493 68.9728 221.249C69.0018 223.305 68.98 225.362 68.98 228.384H68.9655Z" fill="#558825"/>
<path d="M58.8701 81.977C58.3117 78.8162 60.1464 76.1568 61.6621 73.4756C62.1697 72.5746 62.6411 70.5909 63.9754 71.2376C65.3388 71.9061 64.6136 73.5264 63.9029 74.689C62.5178 76.9488 62.3147 79.4339 62.438 81.9916C62.496 83.205 62.38 84.5057 63.7796 85.0652C65.0922 85.5884 66.0349 84.8763 66.9849 84.0189C69.6174 81.6501 71.162 78.4602 73.3448 75.7499C74.0555 74.8634 74.6284 73.3303 76.0933 74.1441C77.4639 74.907 76.3108 76.0188 76.028 76.9924C75.0345 80.3785 73.1853 83.2777 71.0967 86.0679C68.8849 89.0325 65.114 90.7764 62.322 89.4467C59.4793 88.0952 58.6453 85.2614 58.8774 81.9698L58.8701 81.977Z" fill="#558825"/>
<path d="M193.037 58.4426C188.621 58.4862 185.467 55.6887 182.044 53.5089C181.536 53.1819 181.253 52.5643 181.492 51.9103C181.819 51.0238 182.624 51.002 183.298 51.22C184.422 51.5833 185.554 51.903 186.562 52.666C188.15 53.8576 190.071 54.0974 192.051 54.0611C194.386 54.0175 194.647 52.993 193.886 51.0311C192.436 47.289 190.195 44.07 187.62 41.0546C187.004 40.3352 185.989 39.5359 186.772 38.5841C187.729 37.4215 188.926 38.4169 189.622 39.0346C193.422 42.4134 196.837 46.1627 198.534 51.0747C200.05 55.4562 197.708 58.4571 193.037 58.4353V58.4426Z" fill="#558825"/>
<path d="M241.574 104.758C241.066 107.257 242.516 109.989 239.391 111.937C235.707 114.24 233.045 111.864 230.428 110.432C226.258 108.151 224.706 103.435 222.088 99.7293C221.66 99.119 221.624 97.8837 222.363 97.3751C223.277 96.7502 223.828 97.8038 224.437 98.3197C227.186 100.645 228.76 104.104 232.016 105.986C233.401 106.785 234.851 107.94 236.258 107.439C237.948 106.843 237.063 104.888 237.106 103.544C237.259 97.9418 234.409 93.2624 232.24 88.3868C231.9 87.6238 230.993 87.0062 231.965 86.2868C232.661 85.7709 233.278 86.4322 233.785 86.9917C238.419 92.0417 241.777 97.6366 241.566 104.743L241.574 104.758Z" fill="#538524"/>
<path d="M219.861 123.86C218.759 119.965 218.897 115.612 215.626 112.466C215.119 111.979 214.785 111.296 214.422 110.671C213.908 109.785 213.581 108.753 214.582 108.099C215.525 107.482 216.025 108.557 216.649 109.058C221.094 112.655 222.574 117.88 224.002 123.024C224.959 126.461 222.61 131.911 220.296 132.877C216.627 134.417 210.282 132.303 208.135 128.757C206.837 126.606 205.706 124.354 204.386 122.225C203.849 121.36 203.711 120.633 204.48 120.001C205.561 119.1 206.271 120.016 206.859 120.75C208.57 122.879 209.68 125.495 211.805 127.282C213.385 128.612 215.452 129.651 217.359 129.055C219.528 128.379 220.064 126.17 219.861 123.86Z" fill="#538524"/>
<path d="M156.676 226.154C153.202 226.866 150.149 225.078 146.908 224.439C146.219 224.301 145.051 223.988 145.537 222.782C145.914 221.845 146.784 221.838 147.698 222.034C148.742 222.259 149.816 222.368 150.882 222.528C152.753 223.836 156.103 222.76 156.683 226.154H156.676Z" fill="#4A3B07"/>
<path d="M158.126 224.722C158.032 224.664 157.937 224.606 157.836 224.555C157.937 224.606 158.039 224.656 158.141 224.707L158.126 224.722Z" fill="#746017"/>
<path d="M213.183 192.017C214.061 193.26 213.836 194.785 214.235 196.151C214.452 196.893 215.178 197.874 213.901 198.201C212.987 198.433 212.313 197.532 212.066 196.784C211.508 195.04 210.638 193.499 209.601 192.032C209.347 190.338 209.586 188.406 207.425 187.665C207.672 186.357 206.664 184.242 208.121 183.864C209.797 183.428 210.087 185.804 210.986 186.923C212.161 188.391 211.508 190.709 213.176 192.01L213.183 192.017Z" fill="#4A3B07"/>
<path d="M208.238 192.111C208.114 192.867 208.39 193.899 207.273 194.059C205.808 194.269 206.193 192.46 205.257 192.039C205.315 189.51 202.53 187.417 204.314 184.547C206.265 184.525 206.338 186.669 207.433 187.679V187.672C207.215 189.241 207.897 190.643 208.245 192.111H208.238Z" fill="#4A3B07"/>
<path d="M219.767 267.774C219.767 269.7 219.782 271.626 219.76 273.551C219.753 274.249 219.818 275.15 218.825 275.171C218.194 275.186 217.737 274.539 217.701 273.943C217.403 269.765 217.12 265.587 216.954 261.402C216.925 260.675 217.142 259.455 218.143 259.513C219.194 259.571 219.666 260.617 219.695 261.642C219.746 263.684 219.709 265.733 219.709 267.774C219.731 267.774 219.753 267.774 219.775 267.774H219.767Z" fill="#4A3B07"/>
<path d="M228.644 241.572C228.927 241.79 229.638 242.045 229.805 242.51C230.82 245.307 231.726 248.141 232.626 250.982C232.778 251.462 232.546 251.941 232.009 252.116C231.066 252.428 230.044 251.948 229.805 251.316C228.768 248.562 227.912 245.729 227.114 242.895C226.897 242.125 227.426 241.521 228.637 241.58L228.644 241.572Z" fill="#4A3B07"/>
<path d="M216.881 249.515C214.444 246.209 213.857 242.895 213.98 239.371C214.002 238.732 214.205 238.151 214.923 238.042C215.438 237.969 215.953 238.252 215.967 238.783C216.047 242.183 218.846 245.25 216.881 249.508V249.515Z" fill="#4A3B07"/>
<path d="M165.031 227.171C165.72 227.069 166.307 226.859 166.858 226.924C168.214 227.084 169.759 226.321 170.876 227.636C171.028 227.818 170.955 228.479 170.781 228.588C169.346 229.489 167.808 229.213 166.314 228.762C165.792 228.603 165.161 228.392 165.023 227.171H165.031Z" fill="#4A3B07"/>
<path d="M208.237 192.112C207.882 190.651 207.208 189.241 207.425 187.672C209.586 188.413 209.347 190.346 209.601 192.039C209.144 192.061 208.694 192.082 208.237 192.112Z" fill="#5B4A0E"/>
</g>
<defs>
<clipPath id="clip0_4459_2205">
<rect width="278" height="292" fill="white"/>
</clipPath>
</defs>
</svg>
