<svg width="209" height="212" viewBox="0 0 209 212" fill="none" xmlns="http://www.w3.org/2000/svg">
<g clip-path="url(#clip0_4459_2206)">
<path d="M62.9031 18.2774C70.4565 14.0525 77.6816 9.17711 85.869 6.20747C92.3685 3.85013 98.9444 1.6229 105.963 1.50809C109.026 1.45452 111.752 -0.0685691 114.899 0.000314284C141.859 0.58965 165.543 8.77912 183.736 29.6508C192.931 40.1899 200.714 51.5021 204.945 65.2099C208.878 77.9533 209.291 90.8115 208.856 103.884C208.497 114.576 205.755 124.587 199.927 133.489C195.734 139.895 190.35 145.497 181.643 143.775C178.351 143.125 177.022 144.028 174.838 146.247C170.905 150.243 165.887 152.477 160.021 150.112C158.234 149.393 157.455 150.487 156.707 151.743C150.505 162.121 142.295 170.448 130.525 173.801C120.039 176.786 106.994 172.178 105.054 157.766C104.283 152.064 103.955 146.416 103.863 140.698C103.848 139.742 104.008 138.67 102.251 139.091C94.1404 141.043 86.2891 140.652 78.9876 136.106C77.9184 135.065 76.8491 134.024 75.7722 132.983C74.6877 130.052 72.4347 127.71 71.6709 124.572C71.3043 123.08 69.647 122.613 68.6617 123.623C66.1185 126.248 62.5212 127.557 60.3521 130.588C58.649 131.453 56.9458 132.318 55.2427 133.19C50.263 136.588 44.955 139.076 38.7304 138.471C35.9351 138.196 34.1785 139.267 32.2844 141.364C27.2894 146.883 21.546 150.855 13.3968 148.36C11.0368 147.633 9.44061 145.666 7.06535 145.138C4.98795 140.982 2.15444 137.285 0.947717 132.593C0.191605 129.646 0.382543 126.815 0.17633 123.929C-1.20606 104.933 5.2629 88.0945 14.6036 72.1212C20.1637 62.6076 27.1061 54.0738 34.0181 45.5169C40.5939 37.381 47.8114 30.0028 56.0599 23.589C58.3358 21.821 61.2534 20.872 62.8954 18.285L62.9031 18.2774Z" fill="#248937"/>
<path d="M62.9031 18.2774C70.4565 14.0525 77.6816 9.17711 85.869 6.20747C92.3685 3.85013 98.9444 1.6229 105.963 1.50809C109.026 1.45452 111.752 -0.0685691 114.899 0.000314284C141.859 0.58965 165.543 8.77912 183.736 29.6508C192.931 40.1899 200.714 51.5021 204.945 65.2099C208.878 77.9533 209.291 90.8115 208.856 103.884C208.497 114.576 205.755 124.587 199.927 133.489C195.734 139.895 190.35 145.497 181.643 143.775C178.351 143.125 177.022 144.028 174.838 146.247C170.905 150.243 165.887 152.477 160.021 150.112C158.234 149.393 157.455 150.487 156.707 151.743C150.505 162.121 142.295 170.448 130.525 173.801C120.039 176.786 106.994 172.178 105.054 157.766C104.283 152.064 103.955 146.416 103.863 140.698C103.848 139.742 104.008 138.67 102.251 139.091C94.1404 141.043 86.2891 140.652 78.9876 136.106C77.9184 135.065 76.8491 134.024 75.7722 132.983C74.6877 130.052 72.4347 127.71 71.6709 124.572C71.3043 123.08 69.647 122.613 68.6617 123.623C66.1185 126.248 62.5212 127.557 60.3521 130.588C58.649 131.453 56.9458 132.318 55.2427 133.19C50.263 136.588 44.955 139.076 38.7304 138.471C35.9351 138.196 34.1785 139.267 32.2844 141.364C27.2894 146.883 21.546 150.855 13.3968 148.36C11.0368 147.633 9.44061 145.666 7.06535 145.138C4.98795 140.982 2.15444 137.285 0.947717 132.593C0.191605 129.646 0.382543 126.815 0.17633 123.929C-1.20606 104.933 5.2629 88.0945 14.6036 72.1212C20.1637 62.6076 27.1061 54.0738 34.0181 45.5169C40.5939 37.381 47.8114 30.0028 56.0599 23.589C58.3358 21.821 61.2534 20.872 62.8954 18.285L62.9031 18.2774ZM157.448 143.691C159.51 144.556 160.762 146.699 163.382 146.837C168.637 147.128 172.188 144.671 174.51 140.339C176.19 137.208 177.87 135.999 180.818 138.808C182.277 140.201 184.179 140.232 185.836 139.543C188.876 138.272 191.778 136.696 193.993 134.086C200.126 126.868 203.494 118.151 204.311 109.104C205.587 94.9675 205.449 80.724 201.333 66.7942C195.566 47.2773 183.339 31.9239 167.758 20.1908C145.808 3.67409 120.2 0.604957 93.812 7.43206C78.2162 11.4656 64.9957 20.4204 53.0201 31.0897C43.2136 39.8226 34.736 49.7724 26.9992 60.3574C24.4254 63.8858 20.7976 66.8861 20.6066 71.7844C18.85 72.1748 17.8419 73.3611 16.9712 74.8765C11.6097 84.1834 7.14936 93.8807 5.16361 104.489C4.23948 109.441 2.10098 114.408 3.40699 119.505C4.39986 123.386 4.52206 127.258 4.88866 131.177C5.66005 139.489 13.1601 146.431 20.0033 145.153C25.1968 144.181 28.5802 140.17 31.6352 136.351C33.6897 133.779 35.0873 132.563 37.9743 134.805C38.5547 135.257 39.7538 135.287 40.5328 135.05C44.8939 133.749 49.4305 132.991 53.3715 130.404C59.1149 126.646 64.8124 122.827 69.6775 117.944C71.6862 115.931 72.9311 116.413 73.8629 118.801C74.3211 119.972 74.5884 121.22 75.0238 122.406C76.2992 125.866 77.2768 129.907 80.3013 131.927C87.3049 136.611 94.8812 139.129 103.176 134.583C106.651 132.677 107.582 133.343 107.758 137.346C108.056 144.181 107.414 150.985 109.087 157.835C110.607 164.05 114.227 168.742 120.52 169.959C131.419 172.071 139.522 166.606 146.404 159.389C150.245 155.363 154.492 151.199 155.844 145.283C155.981 144.663 156.882 144.211 157.432 143.683L157.448 143.691Z" fill="#23722B"/>
<path d="M55.243 133.198C56.9462 132.333 58.6494 131.468 60.3525 130.604C61.2614 132.058 60.3373 133.252 59.7492 134.453C58.7563 136.474 57.794 138.502 57.4274 140.752C51.1723 151.261 49.9961 163.247 47.3611 174.834C45.9788 180.919 46.4828 187.203 44.795 193.234C43.4278 198.117 45.6733 201.523 50.6071 201.814C56.4345 202.158 62.3001 202.028 68.1504 201.867C71.2818 201.783 72.267 200.183 71.1443 196.976C69.8459 193.264 68.2497 189.376 68.2344 185.557C68.181 173.893 66.5618 162.099 69.9605 150.595C70.35 149.279 69.9376 148.077 69.6779 146.837C73.2217 142.888 74.543 137.959 75.7726 132.991C76.8419 134.032 77.9111 135.073 78.988 136.114C76.7731 143.018 72.5343 156.106 72.2059 159.144C71.8775 162.183 72.1906 168.244 72.183 172.798C71.0908 182.557 73.6112 191.535 77.7278 200.268C78.9804 202.916 80.5842 203.628 83.3185 203.582C88.3745 203.49 93.4611 203.099 98.4331 204.745C99.9682 205.258 102.252 204.944 102.145 207.072C102.023 209.536 99.6016 208.985 97.9061 209.131C80.5231 210.7 63.0867 210.08 45.6733 210.424C39.9681 210.539 34.4156 212.544 28.6493 211.848C27.5266 211.71 25.8387 212.567 25.4797 210.723C25.1437 208.955 26.992 208.756 27.9925 208.365C31.0551 207.164 34.2476 206.352 37.5775 206.291C40.686 206.237 41.7858 205.158 40.8922 201.722C39.632 196.885 40.3576 191.887 40.8005 186.919C41.2817 181.485 44.3291 169.89 44.2298 168.979C45.4136 161.241 48.0943 153.94 50.4925 146.539C51.9436 142.038 54.6702 138.005 55.243 133.198Z" fill="#483C08"/>
<path d="M20.6064 71.7844C20.7973 66.8937 24.4251 63.8857 26.999 60.3574C34.7281 49.7723 43.2134 39.8225 53.0199 31.0896C64.9955 20.4204 78.216 11.4655 93.8118 7.43201C120.192 0.604907 145.8 3.66639 167.773 20.206C183.354 31.9315 195.581 47.2849 201.348 66.8095C205.464 80.7316 205.602 94.9828 204.326 109.119C203.509 118.166 200.133 126.883 194.008 134.101C191.793 136.703 188.899 138.287 185.851 139.558C184.194 140.247 182.285 140.209 180.833 138.823C177.885 136.007 176.205 137.224 174.525 140.354C172.203 144.686 168.652 147.143 163.397 146.852C160.777 146.706 159.525 144.571 157.463 143.706C156.332 137.652 156.668 131.529 156.569 125.429C156.554 124.304 156.645 122.972 155.423 122.391C154.133 121.771 153.789 123.148 153.079 123.784C145.472 130.603 133.672 127.274 131.724 117.523C130.938 113.589 129.7 109.708 129.807 105.53C129.907 101.619 126.722 99.9806 123.193 101.733C121.719 102.468 120.398 103.501 118.947 104.282C114.899 106.448 112.333 105.53 110.332 101.404C108.56 97.7534 109.53 93.8806 109.331 90.115C109.041 84.7344 105.558 82.7215 100.77 85.2549C98.1881 86.6173 95.6219 88.0179 92.964 89.2195C84.5933 93.0004 77.6356 89.9696 74.6264 81.428C73.687 78.7569 71.938 76.4761 68.7761 76.9889C65.996 77.4328 65.1406 79.7442 65.0261 82.446C64.8199 87.5204 62.2689 91.6381 59.107 95.3425C57.3809 97.3707 55.2119 99.5137 52.2256 98.159C49.4532 96.9038 47.6049 94.6001 47.5133 91.2937C47.4446 88.9134 47.2536 86.3723 44.3208 85.9973C41.4491 85.6299 40.0362 87.773 39.1732 90.1915C37.7297 94.2174 34.7587 96.6589 30.9094 98.0519C26.2734 99.7281 22.0346 97.3095 20.5453 92.5795C18.3457 85.6146 20.3238 78.7186 20.614 71.792L20.6064 71.7844Z" fill="#2DA847"/>
<path d="M57.4277 140.752C57.7867 138.502 58.749 136.474 59.7495 134.453C60.3376 133.252 61.2618 132.065 60.3529 130.603C62.5219 127.572 66.1192 126.256 68.6625 123.638C69.6477 122.628 71.3051 123.095 71.6717 124.588C72.4354 127.726 74.6885 130.068 75.773 132.999C74.5434 137.966 73.2221 142.903 69.6783 146.845C65.8672 144.273 62.415 140.959 57.4277 140.752Z" fill="#5A4A0E"/>
<path d="M57.3883 139.986C62.6581 140.193 66.3012 143.584 70.3338 146.224C70.6088 147.495 71.0441 148.727 70.6317 150.074C67.0421 161.853 68.7528 173.931 68.8063 185.878C68.8216 189.789 70.5171 193.769 71.8842 197.565C73.068 200.849 72.0293 202.486 68.7147 202.578C62.5359 202.739 56.3419 202.877 50.1785 202.525C44.9621 202.226 42.5944 198.736 44.0379 193.738C45.8251 187.554 45.2905 181.125 46.7492 174.895C49.5293 163.032 50.7742 150.747 57.3806 139.994L57.3883 139.986Z" fill="#746017"/>
<path d="M69.1973 43.5573C69.5257 39.5468 71.794 35.8654 74.1311 32.2375C74.5588 31.5793 75.2614 30.5843 76.2849 31.2043C77.0562 31.6635 76.7126 32.6355 76.4758 33.3014C75.7961 35.1995 74.9177 37.0364 74.238 38.9345C73.3444 41.4449 72.153 44.7743 74.7955 46.1366C77.5832 47.5755 80.2334 45.5167 81.9061 42.6848C83.8994 39.3019 86.0608 36.0184 88.2146 32.735C88.7951 31.8472 89.4137 30.4312 90.8266 31.3038C91.8195 31.9161 91.6668 33.1866 91.1627 34.0821C88.6805 38.4829 87.3134 43.5038 83.8307 47.3383C81.9061 49.4583 79.6683 51.035 76.6896 51.2417C71.7329 51.5784 69.0445 48.9915 69.2125 43.5497L69.1973 43.5573Z" fill="#1E702C"/>
<path d="M180.047 59.7529C180.383 63.0823 179.917 65.8835 178.557 68.6006C175.938 73.8128 170.217 74.6241 166.543 70.1007C163.542 66.4117 162.702 61.873 162.053 57.3267C161.907 56.3241 162.007 55.0842 163.267 54.8622C164.665 54.6096 164.764 55.949 165.054 56.8751C166.078 60.1356 166.727 63.5645 169.171 66.1744C171.63 68.7996 173.326 68.4552 174.922 65.2253C175.632 63.7864 175.655 62.2863 175.701 60.7632C175.762 58.712 176.06 56.7144 176.831 54.801C177.167 53.9667 177.534 53.0483 178.641 53.1631C179.772 53.2779 179.978 54.2652 180.024 55.1531C180.1 56.7986 180.047 58.4595 180.047 59.7606V59.7529Z" fill="#1E712C"/>
<path d="M104.053 46.3668C103.22 49.7957 102.564 53.4542 100.364 56.485C98.0805 59.6307 93.5209 59.3552 91.3213 56.1176C89.7938 53.8675 89.7709 48.0277 91.2525 45.8311C91.6268 45.2723 92.0163 44.7595 92.7418 44.9432C93.4216 45.1116 93.8187 45.678 93.8569 46.3362C93.9562 47.9818 93.9257 49.635 94.0249 51.2805C94.086 52.2831 94.1013 53.4695 95.308 53.7986C96.721 54.1813 97.3931 53.0715 97.8895 52.0459C98.9206 49.8722 99.8676 47.645 100.792 45.4254C101.174 44.507 101.281 43.1905 102.625 43.4125C104.183 43.6651 103.702 45.1652 104.045 46.3821L104.053 46.3668Z" fill="#1F732D"/>
<path d="M152.109 85.8214C151.307 88.9747 151.537 92.549 149.345 95.4498C147.993 97.2407 146.358 98.6796 143.96 98.4271C141.486 98.1745 140.317 96.4294 139.706 94.1639C139.217 92.35 138.072 90.7045 138.454 88.6762C138.66 87.6124 139.049 86.6174 140.18 86.426C141.264 86.2423 141.608 87.2756 142.005 88.0563C142.234 88.5078 142.356 89.0053 142.532 89.4799C143.028 90.8116 142.31 93.0618 144.258 93.2761C146.335 93.5057 146.381 91.1637 147.168 89.809C148.023 88.3242 147.97 86.625 148.443 85.056C148.787 83.9003 148.978 82.1629 150.559 82.3007C152.575 82.4767 151.811 84.3978 152.109 85.8137V85.8214Z" fill="#1E722D"/>
<path d="M23.5709 124.664C19.7598 124.649 17.1554 122.276 17.2547 118.464C17.354 114.538 18.5072 110.696 20.5159 107.221C20.9589 106.456 21.5928 105.576 22.6315 106.088C23.7924 106.662 22.9675 107.581 22.8148 108.407C22.3413 110.91 20.852 113.13 20.8367 115.74C20.8214 117.293 20.8367 118.947 22.662 119.551C24.4187 120.133 25.1671 118.725 25.908 117.554C27.1987 115.51 28.3749 113.39 29.7114 111.385C30.3301 110.451 31.2084 109.349 32.4991 109.93C34.0572 110.635 33.0949 111.829 32.7435 112.877C31.6819 116.03 30.2308 119 28.4207 121.786C27.1605 123.715 25.5414 125.054 23.5709 124.687V124.664Z" fill="#1E6E2B"/>
<path d="M39.0428 111.515C39.0963 110.757 39.0581 109.977 39.2185 109.25C39.3101 108.821 39.6538 108.216 39.9975 108.117C40.7612 107.91 41.0285 108.591 41.2195 109.211C41.2577 109.334 41.2882 109.456 41.3035 109.579C41.6166 112.089 42.4491 114.952 44.9542 115.22C47.6655 115.518 48.9028 112.686 50.0942 110.367C50.8122 108.974 51.4232 106.249 53.5846 107.428C55.1808 108.301 54.356 110.658 53.5388 112.281C52.7979 113.742 51.9502 115.158 51.11 116.574C49.6513 119.023 47.4669 120.853 44.6564 120.37C41.5173 119.835 40.0433 117.079 39.2185 114.156C38.9817 113.321 39.0886 112.395 39.0352 111.507L39.0428 111.515Z" fill="#1D6E2B"/>
<path d="M54.281 179.418C54.281 181.554 54.3115 183.467 54.2734 185.373C54.2428 186.835 53.922 188.58 52.3563 188.687C50.7219 188.794 50.4699 186.858 50.1186 185.587C49.8283 184.523 49.7596 183.26 50.0269 182.197C50.6379 179.732 51.3558 177.321 51.4704 174.749C51.5315 173.448 52.28 171.979 53.7464 172.208C55.3121 172.453 54.6094 174.007 54.5483 175.079C54.4567 176.602 54.365 178.125 54.281 179.418Z" fill="#4B3C08"/>
<path d="M59.9169 158.225C59.2295 159.94 60.7036 162.573 58.2748 162.825C56.2967 163.032 56.7932 160.644 56.7473 159.274C56.6862 157.56 56.4647 155.019 58.4963 154.873C60.7952 154.705 58.9927 157.292 59.9169 158.233V158.225Z" fill="#4B3C08"/>
</g>
<defs>
<clipPath id="clip0_4459_2206">
<rect width="209" height="212" fill="white"/>
</clipPath>
</defs>
</svg>
