<svg width="451" height="326" viewBox="0 0 451 326" fill="none" xmlns="http://www.w3.org/2000/svg">
<g clip-path="url(#clip0_4465_2443)">
<mask id="mask0_4465_2443" style="mask-type:luminance" maskUnits="userSpaceOnUse" x="0" y="0" width="451" height="427">
<path d="M451 0H0V427H451V0Z" fill="white"/>
</mask>
<g mask="url(#mask0_4465_2443)">
<mask id="mask1_4465_2443" style="mask-type:luminance" maskUnits="userSpaceOnUse" x="0" y="0" width="451" height="326">
<path d="M451 0H0V326H451V0Z" fill="white"/>
</mask>
<g mask="url(#mask1_4465_2443)">
<path d="M272.906 211.13C273.351 215.513 275.574 219.727 277.015 224.003C247.258 237.029 215.826 233.903 186.008 225.719C165.051 219.973 146.056 222.118 127.782 232.523C110.611 242.301 95.0353 254.223 84.2425 271.295C77.9262 282.129 72.1772 292.872 76.0712 306.388C77.405 311.016 80.2412 313.621 83.0313 316.793C85.5303 319.628 87.7072 322.77 90.0222 325.774C88.811 325.528 87.2013 325.682 86.4348 324.961C66.9647 306.664 41.2397 299.63 18.5502 287.125C12.4639 283.769 6.30094 280.535 0 277.149C2.06965 274.727 3.77136 275.739 4.79853 276.428C13.1385 282.037 17.753 277.302 22.061 270.697C40.0133 243.128 64.0519 221.674 90.3901 202.411C106.027 190.963 123.597 183.5 141.396 176.512C154.273 171.455 167.829 164.938 179.22 157C184.432 162.609 189.645 168.233 194.842 173.857C186.349 180.186 176.871 187.53 166.768 195.07C191.052 198.656 212.04 209.016 235.281 208.832C244.863 208.755 254.644 209.537 263.551 204.694C263.551 204.747 270.913 190.768 272.906 211.13Z" fill="#332522"/>
<path d="M175.638 157.998C175.73 154.366 173.461 154.044 170.564 154.136C160.2 154.488 152.504 149.922 146.908 141.294C143.014 135.302 134.92 135.241 130.811 141.125C127.254 146.213 123.054 150.565 117.611 153.661C113.702 155.898 109.179 157.553 105.147 155.914C95.3049 151.929 84.9567 153.921 74.915 152.404C61.24 150.351 50.2785 138.75 50.0025 123.793C49.6346 103.442 56.4261 84.9765 67.4183 68.3953C97.2979 23.3103 139.013 -1.6381 193.851 -0.166939C238.632 1.02837 275.932 18.9275 302.515 56.0896C306.363 61.4686 309.951 62.7712 316.512 61.3766C343.632 55.6299 367.349 64.8553 387.509 81.8963C409.401 100.408 428.381 121.862 439.94 148.772C447.36 166.043 449.828 184.095 447.698 202.669C446.394 214.009 442.27 224.031 430.711 228.92C427.016 230.483 427.338 233.655 427.139 236.643C425.729 258.542 415.779 276.135 399.329 290.08C380.273 306.232 351.236 301.39 338.159 280.135C332.932 271.629 328.608 262.665 326.401 252.842C325.542 249.01 323.948 246.589 319.778 245.593C314.075 244.229 310.978 239.785 309.108 234.498C308.142 231.77 306.9 229.824 303.573 231.127C291.876 235.755 282.156 232.015 273.448 224.016C272.007 219.725 269.769 215.526 269.34 211.143C268.757 205.351 266.227 203.68 260.984 204.722C245.408 202.102 232.469 195.834 226.49 179.897C225.785 178.027 225.34 175.514 222.489 176.663C211.773 180.954 201.547 177.628 191.275 174.885C186.063 169.261 180.866 163.652 175.653 158.028L175.638 157.998Z" fill="#0E5515"/>
<path d="M282.345 80.8365C285.304 79.35 288.37 78.0321 291.191 76.331C321.408 58.0948 351.717 59.4433 379.542 79.7025C404.961 98.2146 427.267 120.558 439.624 150.579C446.952 168.371 449.374 186.913 446.185 206.054C445.235 211.785 442.736 216.735 438.98 221.026C434.013 226.711 430.716 226.098 428.202 219.233C427.344 216.873 426.455 214.528 425.581 212.184C424.937 212.275 424.308 212.367 423.664 212.444C424.247 215.877 425.029 219.294 425.397 222.758C428.095 248.15 424.462 254.035 405.85 265.375C397.265 270.616 388.986 268.639 381.321 263.781C363.936 252.778 353.158 236.779 347.532 217.149C346.29 212.827 346.735 208.582 347.976 204.337C348.498 202.56 348.513 200.613 346.382 199.817C344.742 199.204 343.27 200.154 342.457 201.502C337.674 209.456 331.649 214.942 321.776 210.421C310.661 205.349 303.165 197.288 302.076 184.369C301.724 180.124 305.112 174.73 301.494 171.987C297.508 168.953 294.089 174.822 289.98 175.818C281.41 177.872 271.614 174.194 268.027 166.133C265.819 161.183 264.087 158.379 257.954 161.474C252.711 164.126 247.008 160.294 245.092 153.169C242.332 142.87 243.283 132.863 249.768 123.991C253.968 118.228 258.23 112.482 263.949 108.022C265.497 106.812 267.766 105.417 266.448 103.088C265.129 100.774 262.799 102.046 260.928 102.674C249.185 106.597 238.867 113.217 228.642 119.991C224.61 122.673 220.563 125.339 216.469 127.929C213.28 129.952 209.984 130.902 206.458 128.557C205.14 127.684 203.683 127.668 202.074 128.036C193.442 130.059 189.748 127.699 187.801 118.979C187.356 116.987 187.234 114.949 186.896 112.926C186.682 111.624 186.16 110.398 184.704 110.152C183.186 109.907 182.435 111.087 181.806 112.206C181.178 113.309 180.733 114.52 180.135 115.639C175.582 124.174 169.343 127.592 160.911 126.182C152.479 124.772 146.484 118.627 144.645 109.953C144.001 106.904 145.764 102.061 141.87 101.233C138.052 100.421 137.746 105.647 135.63 107.992C133.239 110.627 131.552 114.796 128.655 115.899C120.575 118.964 111.622 119.209 103.252 118.228C98.1618 117.631 96.5215 111.164 95.2337 106.107C94.8504 104.62 94.4671 102.95 92.7501 102.551C90.9104 102.122 90.2205 103.685 89.27 104.911C84.1649 111.501 77.4347 113.064 70.7351 109.325C64.1276 105.632 60.6782 97.4177 62.9778 90.399C67.1784 77.5877 74.3225 66.2168 82.9231 56.1945C131.23 -0.138611 198.839 -13.1033 264.332 22.3272C280.215 30.9243 292.295 44.3486 303.011 58.861C306.261 63.2592 304.805 65.4199 300.543 67.688C293.89 71.228 286.102 73.2661 281.962 80.484L282.33 80.8518L282.345 80.8365Z" fill="#197125"/>
<path d="M148.967 195.862C164.543 198.498 179.92 200.536 194.852 205.011C206.825 208.613 218.799 212.29 231.462 212.674C233.976 212.75 237.349 213.195 237.318 216.351C237.288 220.275 233.486 219.784 230.833 219.907C215.84 220.535 201.414 217.225 187.079 213.409C185.209 212.903 183.124 211.769 181.944 210.298C177.912 205.21 172.377 205.563 167.18 206.39C133.146 211.754 103.389 225.27 80.5308 252.042C75.5943 257.835 70.0446 263.168 63.7283 267.628C54.2079 274.355 43.4917 275.52 32.3156 275.091C26.2139 274.861 25.1408 272.439 28.5442 267.444C37.3441 254.494 47.8763 243.093 59.2364 232.381C86.5558 206.62 117.708 187.219 153.413 175.312C155.59 174.592 157.752 173.734 159.99 173.335C162.366 172.906 164.666 173.55 165.923 175.849C167.073 177.933 166.199 179.94 164.804 181.488C160.143 186.683 157.169 193.809 148.952 195.862H148.967Z" fill="#4D3731"/>
<path d="M130.771 54.7078C129.544 61.8337 125.712 66.3391 120.806 70.0783C118.307 71.9786 115.425 73.4038 112.328 71.4269C109.001 69.3121 108.756 65.8947 109.645 62.554C112.435 52.1945 119.733 45.4211 128.165 39.5977C126.647 45.4824 120.959 48.3481 118.506 53.5125C116.62 57.4662 111.347 62.4314 115.425 65.5576C119.273 68.4999 121.864 61.5579 125.068 59.0753C126.631 57.8646 127.306 55.6273 130.755 54.7231L130.771 54.7078Z" fill="#0E5515"/>
<path d="M325.825 91.6713C321.41 97.0349 317.24 100.56 311.537 101.678C308.394 102.291 305.312 101.678 303.534 98.6287C301.74 95.5638 302.737 92.5755 304.975 90.2615C309.697 85.3576 314.986 81.2813 322.176 80.4844C318.895 84.3155 313.852 85.894 310.663 89.7558C309.252 91.4721 306.861 93.2038 308.655 95.6097C310.387 97.9391 312.809 96.2993 314.925 95.6097C318.175 94.537 320.49 91.1656 325.825 91.6867V91.6713Z" fill="#0E5515"/>
<path d="M236.996 42.3265C240.905 44.5639 241.013 47.4296 242.392 49.4678C243.926 51.7511 245.183 55.0919 248.479 54.2337C252.403 53.2223 251.576 49.3298 251.223 46.4948C250.778 42.8169 249.567 39.2309 248.617 35.3691C254.642 39.5681 257.539 49.2072 254.78 55.1685C252.296 60.5321 247.559 61.5895 243.082 57.5745C238.897 53.8199 237.364 48.9467 236.996 42.3265Z" fill="#0E5515"/>
<path d="M396.776 161.045C400.302 165.014 397.665 173.059 404.349 172.584C411.386 172.078 407.799 164.125 411.371 158.945C414.498 165.228 414.207 170.194 410.435 174.898C407.753 178.239 404.027 179.633 400.302 177.013C394.721 173.09 394.798 167.588 396.776 161.045Z" fill="#0E5515"/>
<path d="M157.891 62.1554C158.642 67.5344 157.17 71.3502 155.499 75.0128C154.181 77.9091 151.958 80.3764 148.432 79.794C144.768 79.1964 143.802 76.0089 143.679 72.8367C143.511 68.5151 144.078 64.2702 146.884 59.918C149.229 62.3853 147.527 64.6227 147.65 66.6302C147.803 69.0515 146.347 72.5608 149.229 73.465C152.495 74.4917 152.663 70.5686 153.844 68.5458C154.932 66.6609 154.978 64.163 157.891 62.1708V62.1554Z" fill="#0E5515"/>
<path d="M319.446 129.969C316.196 135.317 311.857 137.937 307.596 140.542C305.557 141.799 303.165 141.876 301.187 140.113C299.24 138.366 299.102 136.068 299.792 133.769C301.279 128.789 303.977 124.682 309.205 121.387C309.819 124.85 307.488 126.091 306.522 127.869C305.235 130.244 302.138 132.865 304.299 135.271C306.768 138.014 309.221 134.581 311.52 133.325C313.682 132.145 315.23 129.785 319.431 129.953L319.446 129.969Z" fill="#0E5515"/>
<path d="M372.858 164.003C374.836 168.693 370.727 174.394 375.265 174.93C382.716 175.803 382.655 167.36 386.641 163.283C387.269 169.428 385.261 174.562 380.094 178.24C377.365 180.186 374.085 180.37 371.754 177.612C368.198 173.397 369.7 169.26 372.843 164.003H372.858Z" fill="#0E5515"/>
<path d="M282.347 80.8365C282.347 80.8365 281.98 80.4841 281.98 80.4688L282.347 80.8365Z" fill="#0E5515"/>
<path d="M66.8418 235.602C63.515 240.306 60.2343 245.133 53.1055 247.999C56.5702 241.164 60.8628 237.517 66.8418 235.602Z" fill="#332522"/>
</g>
</g>
</g>
<defs>
<clipPath id="clip0_4465_2443">
<rect width="451" height="326" fill="white"/>
</clipPath>
</defs>
</svg>
