<svg width="151" height="45" viewBox="0 0 151 45" fill="none" xmlns="http://www.w3.org/2000/svg">
<path d="M149.674 39.6869C149.674 40.2532 149.564 40.8141 149.35 41.3373C149.135 41.8605 148.821 42.3358 148.425 42.736C148.03 43.1363 147.56 43.4537 147.043 43.67C146.525 43.8864 145.971 43.9974 145.412 43.9968H5.92797C4.79745 43.998 3.71274 43.5446 2.9124 42.7364C2.11207 41.9282 1.66163 40.8312 1.66016 39.6869V5.31654C1.66163 4.17166 2.11189 3.07416 2.91207 2.26503C3.71224 1.4559 4.79694 1.00127 5.92797 1.00098H145.411C145.97 1.00098 146.525 1.11261 147.042 1.3295C147.559 1.54639 148.029 1.86429 148.425 2.26504C148.821 2.6658 149.135 3.14155 149.349 3.66513C149.563 4.18871 149.673 4.74986 149.673 5.31654L149.674 39.6869Z" fill="white"/>
<path d="M145.413 45H5.9291C4.53643 44.9997 3.20075 44.4402 2.21515 43.4442C1.22954 42.4482 0.674525 41.0971 0.671875 39.6874L0.671875 5.31821C0.673935 3.90779 1.22859 2.55578 2.21416 1.55878C3.19973 0.561775 4.53574 0.00119045 5.9291 0L145.412 0C146.805 0.00178446 148.141 0.56256 149.126 1.55944C150.112 2.55631 150.666 3.90797 150.669 5.31821V39.6874C150.671 42.6177 148.309 45 145.413 45Z" fill="white"/>
<path d="M149.674 39.6869C149.674 40.2532 149.564 40.8141 149.35 41.3373C149.135 41.8605 148.821 42.3358 148.425 42.736C148.03 43.1363 147.56 43.4537 147.043 43.67C146.525 43.8864 145.971 43.9974 145.412 43.9968H5.92797C4.79745 43.998 3.71274 43.5446 2.9124 42.7364C2.11207 41.9282 1.66163 40.8312 1.66016 39.6869V5.31654C1.66163 4.17166 2.11189 3.07416 2.91207 2.26503C3.71224 1.4559 4.79694 1.00127 5.92797 1.00098H145.411C145.97 1.00098 146.525 1.11261 147.042 1.3295C147.559 1.54639 148.029 1.86429 148.425 2.26504C148.821 2.6658 149.135 3.14155 149.349 3.66513C149.563 4.18871 149.673 4.74986 149.673 5.31654L149.674 39.6869Z" fill="black"/>
<path d="M34.1632 22.2632C34.1309 18.6363 37.0969 16.8718 37.2326 16.7897C35.5528 14.3106 32.9492 13.9719 32.0342 13.9449C29.8475 13.7119 27.7264 15.2694 26.6125 15.2694C25.4763 15.2694 23.761 13.9674 21.9122 14.0056C19.5332 14.0428 17.3076 15.437 16.0869 17.6021C13.5678 22.0167 15.4466 28.5041 17.8601 32.0725C19.0674 33.8212 20.4781 35.7714 22.3247 35.7027C24.1312 35.6285 24.806 34.538 26.986 34.538C29.1461 34.538 29.7797 35.7027 31.6629 35.6589C33.6017 35.6285 34.8224 33.9034 35.9874 32.14C37.3826 30.1381 37.9429 28.1643 37.9652 28.063C37.9207 28.0473 34.2009 26.6091 34.1632 22.2632ZM30.6057 11.5975C31.5773 10.3675 32.2421 8.69419 32.0576 6.99609C30.6513 7.05911 28.8926 7.98074 27.8798 9.1837C26.9838 10.2437 26.1834 11.9812 26.3901 13.6152C27.9699 13.7344 29.5918 12.8083 30.6057 11.5975Z" fill="white"/>
<path d="M145.415 0H70.7031L99.9664 45H145.415C146.808 44.9988 148.144 44.4385 149.129 43.442C150.115 42.4455 150.669 41.0941 150.672 39.684V5.31821C150.67 3.90788 150.115 2.55605 149.129 1.55911C148.144 0.562168 146.808 0.00148757 145.415 0Z" fill="url(#paint0_linear_2591_1714)"/>
<path d="M60.3337 35.4532H57.809L56.4261 31.0543H51.6191L50.3017 35.4532H47.8438L52.6074 20.4775H55.5489L60.3337 35.4532ZM56.0092 29.2088L54.7585 25.2984C54.6262 24.8989 54.3772 23.9581 54.0126 22.4772H53.9681C53.8214 23.1141 53.5868 24.0549 53.2655 25.2984L52.036 29.2088H56.0092ZM72.5602 29.9211C72.5602 31.7576 72.0677 33.2093 71.0816 34.275C70.1989 35.2236 69.1017 35.6974 67.7932 35.6974C66.3802 35.6974 65.3641 35.1876 64.7471 34.1658V39.8317H62.377V28.2039C62.377 27.0505 62.347 25.8678 62.2892 24.6547H64.3736L64.5059 26.3663H64.5504C65.3408 25.0767 66.5403 24.4319 68.15 24.4319C69.4085 24.4319 70.459 24.9349 71.2995 25.942C72.1388 26.9515 72.5602 28.2771 72.5602 29.9211ZM70.1455 30.0089C70.1455 28.9579 69.9121 28.0914 69.443 27.4083C68.9305 26.6983 68.2423 26.3427 67.3796 26.3427C66.7949 26.3427 66.2635 26.5407 65.7888 26.9312C65.313 27.3251 65.0017 27.8393 64.8561 28.4762C64.7911 28.7144 64.7541 28.9596 64.746 29.2066V31.0082C64.746 31.7925 64.9839 32.4553 65.4597 32.9977C65.9355 33.5379 66.5536 33.8091 67.3141 33.8091C68.2067 33.8091 68.9016 33.4591 69.3985 32.7648C69.8965 32.0682 70.1455 31.15 70.1455 30.0089ZM84.83 29.9211C84.83 31.7576 84.3375 33.2093 83.3514 34.275C82.4676 35.2236 81.3715 35.6974 80.0619 35.6974C78.6489 35.6974 77.6328 35.1876 77.0158 34.1658V39.8317H74.6457V28.2039C74.6457 27.0505 74.6157 25.8678 74.5579 24.6547H76.6423L76.7746 26.3663H76.8191C77.6084 25.0767 78.8079 24.4319 80.4188 24.4319C81.6761 24.4319 82.7267 24.9349 83.5693 25.942C84.4075 26.9515 84.83 28.2771 84.83 29.9211ZM82.4143 30.0089C82.4143 28.9579 82.1797 28.0914 81.7106 27.4083C81.1981 26.6983 80.5121 26.3427 79.6495 26.3427C79.0647 26.3427 78.5333 26.5407 78.0564 26.9312C77.5806 27.3251 77.2704 27.8393 77.1248 28.4762C77.0525 28.7733 77.0136 29.0153 77.0136 29.2066V31.0082C77.0136 31.7925 77.2526 32.4553 77.7262 32.9977C78.202 33.5368 78.8201 33.8091 79.5828 33.8091C80.4766 33.8091 81.1714 33.4591 81.6672 32.7648C82.1652 32.0682 82.4143 31.15 82.4143 30.0089ZM98.5484 31.2524C98.5484 32.5274 98.1081 33.5638 97.2332 34.3639C96.2705 35.2371 94.9264 35.6749 93.2033 35.6749C91.6114 35.6749 90.3351 35.3643 89.3724 34.742L89.9205 32.7423C90.9599 33.3657 92.1016 33.6763 93.3445 33.6763C94.2383 33.6763 94.9331 33.4715 95.4289 33.0653C95.9259 32.6579 96.1771 32.1132 96.1771 31.4336C96.1771 30.8248 95.9692 30.315 95.5612 29.8998C95.151 29.4856 94.4729 29.0997 93.5201 28.7452C90.9299 27.7673 89.6336 26.337 89.6336 24.4555C89.6336 23.2267 90.0917 22.2206 91.0055 21.4341C91.9193 20.6486 93.131 20.2559 94.6385 20.2559C95.9848 20.2559 97.1065 20.4933 97.9969 20.9671L97.4022 22.9228C96.564 22.4637 95.6179 22.2342 94.5596 22.2342C93.7236 22.2342 93.0677 22.4423 92.5985 22.8564C92.2039 23.2267 92.0038 23.6779 92.0038 24.2136C92.0038 24.8044 92.2317 25.295 92.6852 25.6799C93.0788 26.0343 93.7969 26.4203 94.8353 26.8344C96.1093 27.3543 97.0453 27.9597 97.6445 28.6552C98.2482 29.3506 98.5484 30.2182 98.5484 31.2524ZM106.405 26.4552H103.792V31.698C103.792 33.0315 104.252 33.6966 105.175 33.6966C105.599 33.6966 105.95 33.6605 106.228 33.5852L106.294 35.407C105.827 35.5837 105.212 35.6726 104.45 35.6726C103.514 35.6726 102.783 35.3834 102.255 34.805C101.729 34.2266 101.464 33.2577 101.464 31.8938V26.4507H99.908V24.6502H101.464V22.673L103.792 21.9618V24.6502H106.405V26.4552ZM118.169 29.965C118.169 31.6249 117.7 32.9876 116.764 34.0533C115.784 35.1505 114.481 35.6974 112.857 35.6974C111.29 35.6974 110.043 35.1718 109.114 34.1219C108.185 33.0698 107.72 31.7441 107.72 30.1451C107.72 28.4717 108.2 27.1011 109.157 26.0354C110.117 24.9687 111.408 24.4353 113.033 24.4353C114.598 24.4353 115.855 24.9619 116.807 26.0129C117.716 27.0325 118.169 28.3491 118.169 29.965ZM115.712 30.0202C115.712 29.031 115.501 28.1825 115.077 27.4725C114.58 26.615 113.869 26.1862 112.947 26.1862C111.998 26.1862 111.27 26.615 110.774 27.4725C110.349 28.1825 110.138 29.0457 110.138 30.0652C110.138 31.0555 110.349 31.9062 110.774 32.614C111.286 33.4715 112.001 33.9002 112.927 33.9002C113.833 33.9002 114.543 33.4625 115.057 32.5926C115.493 31.8657 115.712 31.0116 115.712 30.0202ZM125.876 26.7647C125.63 26.7196 125.38 26.6974 125.129 26.6983C124.295 26.6983 123.651 27.0156 123.197 27.6548C122.803 28.2174 122.606 28.9286 122.606 29.7872V35.4532H120.235V28.0554C120.237 26.9218 120.215 25.7883 120.166 24.6558H122.231L122.318 26.7219H122.383C122.634 26.0118 123.028 25.439 123.568 25.0103C124.063 24.6357 124.664 24.4328 125.281 24.4319C125.5 24.4319 125.698 24.4476 125.874 24.4758L125.876 26.7647ZM136.476 29.543C136.482 29.9078 136.453 30.2722 136.389 30.6312H129.279C129.306 31.698 129.65 32.515 130.311 33.0776C130.91 33.5795 131.685 33.8316 132.636 33.8316C133.689 33.8316 134.65 33.6628 135.513 33.3218L135.885 34.9862C134.875 35.4318 133.684 35.6535 132.308 35.6535C130.654 35.6535 129.356 35.1606 128.411 34.1771C127.468 33.1924 126.996 31.8691 126.996 30.2115C126.996 28.5843 127.435 27.2283 128.314 26.1469C129.235 24.9923 130.479 24.415 132.044 24.415C133.581 24.415 134.745 24.9923 135.536 26.1469C136.162 27.0617 136.476 28.196 136.476 29.543ZM134.216 28.9207C134.233 28.2084 134.077 27.5951 133.756 27.0764C133.346 26.4079 132.714 26.0748 131.868 26.0748C131.093 26.0748 130.462 26.4 129.982 27.0527C129.587 27.5715 129.352 28.1949 129.28 28.9185L134.216 28.9207Z" fill="white"/>
<path d="M50.9308 15.1824C50.2716 15.1824 49.7013 15.1498 49.2266 15.0946V7.85438C49.8905 7.75057 50.5614 7.6994 51.2332 7.70134C53.9513 7.70134 55.2031 9.05509 55.2031 11.2618C55.2031 13.8073 53.7245 15.1824 50.9308 15.1824ZM51.3288 8.62972C50.9619 8.62972 50.6495 8.65223 50.3905 8.70624V14.2101C50.5306 14.2326 50.7996 14.2428 51.1776 14.2428C52.9585 14.2428 53.9724 13.2165 53.9724 11.2945C53.9724 9.58061 53.0553 8.62972 51.3288 8.62972ZM59.104 15.2375C57.5721 15.2375 56.5793 14.0796 56.5793 12.5075C56.5793 10.8691 57.5932 9.70101 59.1907 9.70101C60.7004 9.70101 61.7154 10.8038 61.7154 12.4209C61.7154 14.0796 60.6693 15.2375 59.104 15.2375ZM59.1485 10.563C58.3069 10.563 57.7677 11.3597 57.7677 12.4738C57.7677 13.5665 58.318 14.3632 59.1374 14.3632C59.9567 14.3632 60.507 13.5113 60.507 12.4513C60.507 11.371 59.9678 10.563 59.1485 10.563ZM70.4511 9.81017L68.8114 15.1171H67.743L67.0638 12.8125C66.8949 12.2488 66.7543 11.6768 66.6424 11.0987H66.6202C66.5346 11.6771 66.3723 12.2566 66.2 12.8125L65.4774 15.1171H64.3979L62.8549 9.81017H64.0522L64.6458 12.3331C64.7859 12.934 64.9037 13.5012 65.0016 14.0368H65.0238C65.1094 13.5901 65.2495 13.0319 65.4551 12.3444L66.2 9.8113H67.1494L67.862 12.2904C68.0343 12.8913 68.1744 13.4809 68.2833 14.038H68.3144C68.39 13.4922 68.509 12.9126 68.6702 12.2904L69.3072 9.8113L70.4511 9.81017ZM76.4876 15.1171H75.3226V12.0698C75.3226 11.1313 74.9668 10.6609 74.2654 10.6609C73.575 10.6609 73.1003 11.2618 73.1003 11.9606V15.1171H71.9352V11.3271C71.9352 10.8578 71.9241 10.3548 71.8919 9.80904H72.9169L72.9713 10.6283H73.0036C73.3171 10.0611 73.953 9.70101 74.6656 9.70101C75.7662 9.70101 76.4888 10.5529 76.4888 11.9393L76.4876 15.1171ZM79.7005 15.1171H78.5343V7.375H79.7005V15.1171ZM83.9483 15.2375C82.4175 15.2375 81.4236 14.0796 81.4236 12.5075C81.4236 10.8691 82.4375 9.70101 84.0339 9.70101C85.5447 9.70101 86.5585 10.8038 86.5585 12.4209C86.5597 14.0796 85.5124 15.2375 83.9483 15.2375ZM83.9916 10.563C83.1501 10.563 82.6109 11.3597 82.6109 12.4738C82.6109 13.5665 83.1623 14.3632 83.9794 14.3632C84.7998 14.3632 85.349 13.5113 85.349 12.4513C85.3501 11.371 84.8121 10.563 83.9916 10.563ZM91.1521 15.1171L91.0676 14.5061H91.0365C90.6807 14.9978 90.1616 15.2375 89.5034 15.2375C88.564 15.2375 87.897 14.5714 87.897 13.6756C87.897 12.3657 89.0187 11.6883 90.9609 11.6883V11.5904C90.9609 10.8916 90.5951 10.5416 89.8725 10.5416C89.3556 10.5416 88.902 10.6733 88.5029 10.9355L88.2661 10.1601C88.7508 9.85406 89.3556 9.70101 90.0659 9.70101C91.4356 9.70101 92.127 10.4325 92.127 11.8965V13.8512C92.127 14.3868 92.1504 14.802 92.2026 15.1183L91.1521 15.1171ZM90.992 12.4738C89.698 12.4738 89.0487 12.7911 89.0487 13.5439C89.0487 14.101 89.3834 14.3733 89.8481 14.3733C90.4406 14.3733 90.992 13.9153 90.992 13.293V12.4738ZM97.7845 15.1171L97.73 14.2653H97.6978C97.3631 14.9089 96.8006 15.2375 96.0147 15.2375C94.7506 15.2375 93.8146 14.1122 93.8146 12.5289C93.8146 10.8691 94.7851 9.69989 96.1103 9.69989C96.8117 9.69989 97.3087 9.93958 97.5888 10.4212H97.6122V7.375H98.7783V13.6869C98.7783 14.2 98.7906 14.6805 98.8217 15.1171H97.7845ZM97.6122 11.9944C97.6122 11.2517 97.1264 10.6181 96.3848 10.6181C95.5211 10.6181 94.993 11.3935 94.993 12.485C94.993 13.5552 95.5411 14.2878 96.3615 14.2878C97.0941 14.2878 97.6122 13.643 97.6122 12.8789V11.9944ZM106.172 15.2375C104.641 15.2375 103.649 14.0796 103.649 12.5075C103.649 10.8691 104.663 9.70101 106.259 9.70101C107.77 9.70101 108.784 10.8038 108.784 12.4209C108.785 14.0796 107.739 15.2375 106.172 15.2375ZM106.216 10.563C105.375 10.563 104.836 11.3597 104.836 12.4738C104.836 13.5665 105.386 14.3632 106.204 14.3632C107.025 14.3632 107.574 13.5113 107.574 12.4513C107.576 11.371 107.037 10.563 106.216 10.563ZM115.049 15.1171H113.883V12.0698C113.883 11.1313 113.527 10.6609 112.826 10.6609C112.135 10.6609 111.662 11.2618 111.662 11.9606V15.1171H110.496V11.3271C110.496 10.8578 110.485 10.3548 110.452 9.80904H111.477L111.532 10.6283H111.564C111.876 10.0611 112.513 9.69989 113.225 9.69989C114.325 9.69989 115.049 10.5517 115.049 11.9381V15.1171ZM122.888 10.6947H121.606V13.2716C121.606 13.9277 121.831 14.2551 122.284 14.2551C122.49 14.2551 122.662 14.2326 122.801 14.2L122.833 15.0957C122.608 15.1835 122.305 15.2274 121.929 15.2274C121.011 15.2274 120.462 14.7143 120.462 13.3706V10.6947H119.697V9.81017H120.462V8.8379L121.606 8.48793V9.80904H122.888V10.6947ZM129.055 15.1171H127.892V12.0923C127.892 11.1425 127.537 10.662 126.834 10.662C126.231 10.662 125.668 11.0773 125.668 11.9179V15.1171H124.504V7.375H125.668V10.563H125.691C126.058 9.98459 126.59 9.69989 127.268 9.69989C128.377 9.69989 129.055 10.5731 129.055 11.9606V15.1171ZM135.374 12.7472H131.878C131.9 13.7521 132.557 14.3193 133.53 14.3193C134.047 14.3193 134.523 14.2315 134.943 14.0683L135.124 14.8876C134.628 15.1059 134.045 15.215 133.366 15.215C131.726 15.215 130.755 14.1662 130.755 12.5402C130.755 10.913 131.749 9.68976 133.234 9.68976C134.574 9.68976 135.414 10.6947 135.414 12.2127C135.422 12.3919 135.408 12.5713 135.374 12.7472ZM134.306 11.9066C134.306 11.0874 133.898 10.509 133.153 10.509C132.484 10.509 131.955 11.0986 131.879 11.9066H134.306Z" fill="white"/>
<defs>
<linearGradient id="paint0_linear_2591_1714" x1="110.686" y1="45.1195" x2="110.686" y2="-117.172" gradientUnits="userSpaceOnUse">
<stop stop-color="#1A1A1A" stop-opacity="0.1"/>
<stop offset="0.123" stop-color="#212121" stop-opacity="0.151"/>
<stop offset="0.308" stop-color="#353535" stop-opacity="0.227"/>
<stop offset="0.532" stop-color="#575757" stop-opacity="0.318"/>
<stop offset="0.783" stop-color="#858585" stop-opacity="0.421"/>
<stop offset="1" stop-color="#B3B3B3" stop-opacity="0.51"/>
</linearGradient>
</defs>
</svg>
