<svg width="78" height="63" fill="none" xmlns="http://www.w3.org/2000/svg"><path d="M6.983 40.33c.153.06.279.116.369.158l.293.155.33.188 1.234.705c1.054.603 2.538 1.457 4.26 2.457 2.839 1.649 6.328 3.7 9.6 5.686-.879-3.668-1.4-7.738-1.557-11.186-.45-9.72 1.98-18.704 9.378-25.91C37.529 6.113 45.294 2.487 54.73 2.311l.356-.023h.024c3.15-.046 7.242.471 11.04 1.697 3.744 1.21 7.535 3.229 9.668 6.4a1.886 1.886 0 0 1-.163 2.34 1.909 1.909 0 0 1-2.33.383c-3.206-1.743-6.714-2.64-10.519-3.43-5.419-1.121-11.53.05-16.991 2.883-5.46 2.832-10.083 7.237-12.587 12.342-3.168 6.456-3.694 13.2-2.724 20.24.06-.08.122-.162.182-.237.65-.84 1.205-1.573 1.655-2.367a32.89 32.89 0 0 1 .224-.4l.002-.002c1.223-2.18 2.563-4.56 4.374-6.665l.007-.008c.477-.543 1.15-1.116 2.056-1.352.966-.254 1.906-.063 2.74.412.722.407 1.45 1.031 1.815 1.978.372.96.264 1.94-.103 2.81-.35.84-.674 1.69-.981 2.549l-.002.005c-1.983 5.445-5.818 11.809-8.706 16.54-.018.094-.019.237.004.492l.007.081v.003c.012.124.026.282.031.426.006.185 0 .434-.076.692a1.519 1.519 0 0 1-.525.778 1.923 1.923 0 0 1-.885.364c-.584.097-1.36.027-2.358-.167h-.002c-.639-.126-1.46-.447-2.364-.864a50.292 50.292 0 0 1-3.165-1.635c-2.335-1.295-5.078-2.96-7.775-4.658-5.223-3.286-10.312-6.715-12.003-7.854l-.157-.106c-1.609-1.083-2.316-2.14-2.348-3.158a2.114 2.114 0 0 1 .523-1.468 2.708 2.708 0 0 1 1.445-1.198c.58-.204 1.168-.198 1.647-.13.484.07.914.21 1.216.326Z" fill="#fff" stroke="#002E2A" stroke-width="3"/></svg>