<svg version="1.1" id="Layer_1" xmlns="http://www.w3.org/2000/svg" x="0" y="0" viewBox="0 0 1516 1693" style="enable-background:new 0 0 1516 1693" xml:space="preserve"><style>.st7{fill:#320c02}</style><defs><filter id="Adobe_OpacityMaskFilter" filterUnits="userSpaceOnUse" x="0" y="0" width="1515.6" height="1693"><feColorMatrix values="1 0 0 0 0 0 1 0 0 0 0 0 1 0 0 0 0 0 1 0"/></filter></defs><mask maskUnits="userSpaceOnUse" x="0" y="0" width="1515.6" height="1693" id="mask0_4138_1286_00000028288145604319086910000010288127747347533956_"><path d="M0 0h1516v1693H0V0z" style="fill:#fff;filter:url(#Adobe_OpacityMaskFilter)"/></mask><g style="mask:url(#mask0_4138_1286_00000028288145604319086910000010288127747347533956_)"><path d="M1502.6 846.5c-26-100.7-88.9-112.9-122.6-139-17-13.1-104-43-194.5-70.5 3.1-39.7 5.2-79.5 6.5-119.4 1.1-34.1-.3-68.3-2.3-102.4-2.3-37.3-8-74-15.9-110.5-8.5-39.7-22-77.4-43.5-112.1-19.7-31.8-44.6-59.2-71.3-85.1-26.7-25.9-57.7-45.4-91.8-59.2-48.7-19.7-99.7-29.6-152.1-31.1-39.3-1-78.4 1.7-116.5 13.2C636 49.3 583 83.1 542.1 134.4c-42.1 52.7-72.2 112.4-94 176-19.8 57.9-28.7 118.1-32.5 179v.1h-.1c9.5 4.3 20 6.3 29.2 11.4l5 .4c.5 2.4 2.7 2.5 4.4 3.4 19.7 9.6 38.9 19.7 56.5 32.8 5.6 4.2 10.4 9.8 17.6 11.6 4.2-.2 8.3-.5 12.5-.5 11.5 0 11.5 0 11.4-10.9 0-2.2-.1-4.4.1-6.6 1.9-28.5 3.5-56.8 6.8-85.1 4.4-38.6 11-76.7 24.1-113.4 12.1-34 29.8-64.8 55.9-90 31.1-29.9 67.9-50.7 108.7-64.6 37.7-12.9 76.5-18.7 116-13 41.8 6 78 25.3 107.9 54.8 41.2 40.6 65.1 91 78.9 146.7 14.3 57.5 17.9 116.2 19 175.2.3 20.5-.4 41-1.7 61.4-43-11.6-78.4-20-95.9-22.3 0 0-333.3-24.9-452.8-21.9S208.2 611 208.2 611 27.4 679.9 12.1 817.8c-15.3 137.9 269.6 294.1 790.5 383 520.9 88.9 572.9-151.7 572.9-151.7s153.2-102 127.1-202.6z" style="fill:#9b521a"/><path d="M442.6 1637.9c55.2 27.4 293.2 61.4 483.6 26.8 191.9-34.8 336-138.2 336-138.2s109.9-131.8 131-241 16-253.4 16-253.4-160.7 77.8-305.5 93c-144.8 15.1-427.1 0-427.1 0l-332-46.3L79.5 957.7s6.1 249.9 61.3 424.5 190.9 200.6 301.8 255.7z" style="fill:#4f2c0f"/><path d="M1049.6 580.7c-2.6 2.6-5 5.6-9 6.2-3.6 7.2-11.5 10.2-16 16.7-1.2 1.7-3.1-.2-3.2-2.2-.4-7.2-2.8-13.9-4.5-20.7-9.1-24.1-19.7-47.7-33.5-69.6-24.4-38.7-53.8-72.8-94-95.9-43.3-24.9-88.9-33.5-137.3-15.9-27 9.9-48.4 27.9-68.2 48-28.2 28.5-50.9 61.1-69.2 96.8-1 2-2.5 3.7-3.7 5.5-3.9 11.5-8.4 22.8-15.2 33-.5 10.1-5.4 18.9-7.6 30.1-11.4-15.5-24.2-27.6-35.9-40.5-7.9-7.8-17.7-13.6-24-23.1-7.2-1.8-11.9-7.4-17.6-11.6-17.6-13.1-36.9-23.2-56.5-32.8-1.8-.8-3.9-1-4.4-3.4l-4.9-.4c-9.3-5.1-19.7-7-29.2-11.4-3.8-1.3-8.2-.7-11.6-3.3-2.6-.3-5.4-.5-8-.9-29.5-5.2-59.1-6.6-88.4 1-48.1 12.4-86.9 37-107.3 84.8-5.2 12.2-8.4 25.1-13.2 37.4l.1.2c-1.1 8.8-4.5 17-6.8 25.4-4.7 21.6-6.7 43.7-6.9 65.8 0 1.1-.6 2.3-1 3.4 0 5.6-.1 11.3-.2 17 1.8 2.6 1.3 5.6 1.4 8.5.6 13.6 1.2 27.2 2 40.8.2 3.1.8 6.3 2.8 8.9 5.6-.5 8.2 4.2 11.6 7 34.6 28.2 75.1 44.1 117.1 56.5 53.7 15.9 108.7 26.4 163.5 38.8 145 33.3 325.1 112.5 470.5 74.5 20.2-5.1 41.2-4.3 61.6-8.5 3.9-.9 5.7-2.6 7.1-6.2 8.8-24.5 14-49.7 17.4-75.5 4-31 6.5-62.1 9-93.3 1.8-22.1 5.3-44.1 8.1-66.1 2.4-19.3 5.9-38.7 5-58.4 1-8.7.1-10 .9-13.9.9-15.7.1-31.3 1.9-46.9.3-2.2.9-5.1-2.7-5.8zm358.5 127.6c-3.2-42.1-14.3-82-33.9-119.7-19.3-37.3-47.4-64.3-87.3-78-23.8-8.2-48.6-9.3-73.6-6.8-4.6.5-5 3.6-4.6 7.4 1 9.9 1.8 19.8 2.7 29.6l-2.5 30.6c-3.9 32.6-6.6 65.3-6.2 98.2L1191.6 770c-.5 1.6-2.1 3.2-2.4 4.9-6.6 36.1-11.2 72.5-13.5 109-1.4 21-.2 42.2-.3 63.4 0 4.3 3 5.3 7.7 4.3 31.3-7 61.8-12.1 91.3-25.3 46.9-21 89-51.6 120.1-93.3 3-16 8-31.6 10.8-47.7 2.8-16 2.1-32 3.9-48-.4-9.7-.7-19.3-1.1-29z" style="fill:#1a1a1a"/><path d="M644.9 1368.9c-2.8 10.4-9.3 18.8-15.9 26.8-31.7 38.8-72.8 65.6-115.4 90.6-25.9 15.2-52.1 30.1-73.1 52.2-8 8.4-13.1 18.9-20 28.1 0 0-5.8 12.9-7.4 19.4-2.1 9.2-1.1 18.5-1.5 27.8-15.7-5-30.7-11.7-45.6-18.5-43.5-19.9-83.8-44.5-118.8-78.1-33.8-32.5-62.9-68.1-83.5-110.3-21-43-34.6-88.4-43.1-135.5-6.3-35.2-10.3-70.7-14.1-106.2-2.5-23.4-3.2-46.9-4.9-70.4-1.5-21.8-2.8-43.5-2.9-65.4 6.9 2.4 11.2 8.4 17 12.4 15.4 10.6 31.8 19.1 49.1 26.1 19.7 8 40 14.2 60.5 19.1 15.4 3.7 30.3 8.7 45.7 12.5 14.6 3.6 29.4 8.4 44 12.8 9.3 2.8 18.6 6.7 28.7 7.3 8.5.5 16.2 4.7 24.7 6.4 12.2 2.5 24.4 5 36.6 7.4 15.7 3.1 31.8 4.9 47.7 6.6 20.6 2.3 41.3 4.6 61.9 5.7 13 .7 25.4 4.6 38.3 6 15.4 1.8 29.6 7.8 43.4 14.9 20.1 2.8 45.4 2.2 51.5 14 10.6 20.7 5.1 46.6 4.6 64.3h-.2c.2 12.7 4.9 24.7 5.3 37.5.4 13.9 1.4 27.7-.2 41.5-.4 3.4-.2 6.8-.5 10.2-.2.1-7.7 24.4-11.9 34.8z" style="fill:#6d4220"/><path d="M872.6 555c-13.7 13.5-17.1 30.8-17.9 45.9 0 19.4 3.3 34.7 13.5 48 13.7 17.9 35.7 17.3 48.8-1 7.4-10.3 11.5-21.6 12.7-34 2-20.3-.3-39.7-13.5-56.4-11.5-14.6-30.4-15.6-43.6-2.5zm30.9 83.3c-7 6.7-15.5 6.9-22.1-.1-13.9-14.6-14.5-32.3-10.1-50.7 1.4-5.7 3.5-11.1 7.4-15.8 8.4-10.3 20.6-10.2 28.5.6 6.8 9.3 9.4 19.8 8.8 30 .2 14.4-2.5 26.6-12.5 36zM789.9 431c3.7-5.9 1.6-10.6-5.3-11.6-4.8-.6-9.5.2-13.7 2.1-28.3 12.5-53.7 29.3-75 52-28.5 30.2-47 66.2-61.6 104.6-4.5 11.8-7.2 23.9-8.8 35.8.5 4-1.5 8.5 3.1 10.2 4.7 1.8 7-2.4 9.3-5.5 7.3-9.9 13-20.7 18.7-31.6 16.6-31.8 35.3-62.2 58.7-89.7 18.9-22.3 41.3-40.5 65.1-57.1 3.7-2.6 7.1-5.4 9.5-9.2zm24.8 136.5c9.3-1.1 16.4 3.7 22.2 10.7 2 2.3 1 8.1 4.6 7.1 3.4-.9 1.3-6 1.5-9.3.2-3.9-.1-7.9-.2-11.8-.1-3.6-1.5-6.5-4.1-9.1-13.8-14.2-34.3-13.6-47 2-14.4 17.6-16.8 38.2-14.3 59.8 1.7 14 8.1 25.6 17.8 35.6 7.7 8 22.2 10.4 32.9 5.9 11-4.7 15.2-11.2 15.2-23.6h-.4c0-3 .1-5.9 0-8.9 0-1.8.7-4.4-2-4.8-2-.3-2.6 1.8-3.4 3.3-.6 1.1-1 2.2-1.6 3.3-4.1 8.3-10.5 13.8-20.2 13.2-9.9-.6-17-6-20.7-15.3-5-12.8-5.8-25.9-1.5-38.9 3.4-10 10-17.8 21.2-19.2zM489 664.3c-2.2-23.9-14.2-47.1-39.5-62.2-23.1-13.8-47-.9-47.8 26.1-.8 28.8 11.5 51.7 34.3 68.7 9.5 7.1 20.5 10.9 32.5 7.1 13.4-4.2 20.9-17.1 20.5-39.7zm-25.1 19.4c-7 4-14.3 1.6-20.9-2.3-17-9.9-28.6-33.4-25-50.4 2.7-12.7 12.2-17.6 24.3-12.6 16.5 6.9 30 27.6 30 47.5.3 6.3-1.4 13.7-8.4 17.8zm-54.3 8.1c-.9 1.4-.6 2.7-.4 4.2 2 12.2-.9 20.4-8.5 24.5-10.7 5.8-23.7 4.4-31.9-4.4-8.8-9.3-14.3-20.5-16.2-33.2-.9-5.7-.5-11.1 3.4-16 9.7-12.3 21.4-13.9 36-3.8-.2-1.7-.2-2.5-.4-3.1-2.1-3.9-4.3-7.8-6.5-11.6-6.8-11.7-16.3-15-29.6-10.9-12.6 3.9-19.5 12.6-22.2 25-6 27.3 11.5 63.7 37.7 78.8 6.6 3.9 13.6 5.5 21.2 4.9 12.9-.9 27.9-12.3 31.2-23.7 2.2-7.5-5.7-25.2-13.8-30.7zM269.6 545c-3.4-2.5-6.8-.9-9.7.9-3.9 2.4-7.1 5.4-9.7 9-30.6 41.9-45 89-44.3 146.4 0 11.8 1.2 29.2 3.9 46.6 2.4 16.3 5.8 32.4 13.2 47.3 1.3 2.5 2.5 5.8 6.3 5.2 3.9-.7 4.7-4.2 5.1-7.3.7-5.9 1.1-11.8 1.1-17.7-.2-23.5-1.6-47.1-.6-70.7 1.9-44.1 9.4-86.9 28.5-127.1 3.5-7.5 7.3-15 9-23.3.8-3.5.2-7-2.8-9.3zm355.7 105.1c-5-.7-7.7 2.8-9.6 6.6-4.8 9.4-6.6 19.3-4.4 29.8.7 3.8 2.4 7.1 6.5 8 4.5 1 7.7-1.4 10-4.7 4.3-6.2 6.2-13.2 6.3-20.8-.3-3.4-.2-6.9-1.1-10.1-1.1-3.9-2.7-8.2-7.7-8.8zm-87.9 2.1c-2.7 1.7-5.5 3.2-8.2 4.9-3.7 2.2-5.4 1.6-4.9-3 .7-6.5 1.4-13.1 2-19.7 1.2-15.6-4.9-28.5-16.1-38.7-8.1-7.4-19.7-4.3-24.6 5.6-3.8 7.5-1.1 22.9 4.6 28.5 2.7 2.7 4.5.3 6.5-.7 2.1-1 3.8-2.2 2.3-5.1-1.2-2.2-1.9-4.5-2.9-6.8-1.7-3.9-2.5-7.6 2.2-10.1 4.5-2.4 7.8.2 10.2 3.3 5.1 6.6 8.8 13.7 7.6 20.7-1.3 14-2.2 26.2-3.3 38.4-.2 2.5-1 5.3 1.5 6.7 2.2 1.3 4.1-1 5.9-2 7.5-4.3 14.8-8.7 22.4-12.8 4.1-2.2 6.1-3.9 3-8.8-3-4.8-5.3-2.3-8.2-.4zm441.2-61.1c-3.3-12.5-16-17.8-25.5-10.1-8.3 6.8-10.5 16.1-9.8 26.4.1 2.9 2.2 2.7 4.2 2.7 2.1.1 4-.2 3.9-3-.1-3.7.8-7.3 2.2-10.7 1.2-3.3 3.3-6.4 7.4-6.1 4.1.3 6.4 3.1 7.5 7 .9 3.2.7 6.3.1 9.5-1.6 8.4-6 15.5-10.6 22.5-4.8 7.4-10.2 14.4-15.4 21.5-1.5 2.1-2.7 4.2-1.7 6.8 1.2 3 3.8 1.6 5.8 1.6 9 .1 18.1-.1 27.2.1 3.7.1 4.5-1.3 4.6-4.7.2-3.7-1.4-4.5-4.7-4.4-5.1.1-10.5 0-17.1 0 6.7-9.5 12.6-17.6 17.3-26.4 5.4-10.4 7.6-21.1 4.6-32.7zm303.6-31.7c3.1-1.5 5.4-3.7 5.5-7.2.1-3.3-2.3-5.4-4.9-6.9-4.3-2.5-9-3.9-14-4.4-19.1-1.8-38.1-3-57.2 0l-2.5 30.6c19.3-5.1 39-7.3 58.8-9 4.8-.5 9.7-.9 14.3-3.1zm-36.3 143.4c.4 3.5.2 6.9-.1 10.3-.1 1.1-.7 2.6 1 3 1.5.4 2.1-.8 2.7-1.9 3.6-6.8 7.2-13.5 10.9-20.1 1.1-2 1.3-4.2.8-6.4-2-9.1-6.3-16.4-14.7-21-15.2-8.1-29.7-6.5-43.8 2.8-1.1 9.1-2.1 18.1-3.1 27.1l8.1-7.5c6.6-6 14.2-7.7 22.6-4.9 8.9 3 14.4 8.9 15.6 18.6zm-50.6 47.8c-1.3 6.4-4.5 12.6-2.5 19.5 21.4 5.4 36.2-4.2 37.4-25.3-11 7.5-22 13.4-34.9 5.8zm161.3 17c-7.1-3.6-14.6-2.1-20.8 2.7-5 3.9-9.6 8.6-10.5 15.3-.3 2.3 2.4 2.8 4.1 3.7 2.3 1.2 2.9-.8 3.8-2.2 1.4-2.2 2.6-4.6 4.8-6.4 3.8-3 7.7-5.7 12.4-1.8 4.5 3.7 3.5 7.9 1.2 12.5-4.1 8.2-10.7 13.4-18.6 17.2-10.1 4.9-20.3 9.6-30.6 14.3-2.4 1.1-4.7 2.5-4.9 5-.2 2.7 2.7 3.2 4.5 4.2 7.8 4.6 15.7 9 23.5 13.7 2.9 1.8 4.5 1.6 6.3-1.6 1.7-3.1 1.2-4.7-1.8-6.4-5.2-3.1-10.9-5.5-15.6-9.7l.2-.1c2.8-2.6 6.2-3.3 9.3-4.8 10.7-5.2 22.4-8.5 30.9-17.8 6.1-6.6 8.7-14.7 9.8-23.2.9-6.4-2.5-11.8-8-14.6zm-27.8-31.3c0-.7 0-3.4-.4-5.9-3-22.9-20.9-33.9-42.7-26.4-27.9 9.6-51.1 49.1-46 78.2 3.9 22.4 20.9 32.4 42.3 24.8 24.7-8.8 46.2-40.2 46.8-70.7zm-49.9 53.9c-13.7 4.7-23.1-3.4-23.4-20.1-.3-19.3 15.7-43.1 33.1-49.2 11.7-4.1 21 1.3 23.3 13.7 3.7 20.1-13.5 49.1-33 55.6z" style="fill:#fdfdfe"/><path class="st7" d="M1484.6 776.4c-19.9-28.8-47.5-49.5-76.7-68.1l1.1 29c43.8 26.8 78.8 69.5 82.4 115.9-28.9-25.2-61-32.8-97.1-20.2-31.1 41.8-73.2 68.4-120 89.3-29.4 13.1-59.9 22.3-91.3 29.3-4.6 1.1-5.6-.1-5.6-4.3.1-21.1-1-42.4.3-63.4 2.4-36.6 6.9-73 13.5-109 .3-1.6.9-3.2 1.4-4.9-1.9-6.9 1.3-13 2.6-19.5 1.1-17.1 3-34.2 3.1-51.4 0-.9.8-1.7 1.2-2.6 1.1-9.1 2.1-18.2 3.1-27.2-.4-32.9 2.4-65.6 6.2-98.2l2.7-30.4c-.9-9.9-1.7-19.8-2.7-29.6-.4-3.8-.1-6.8 4.6-7.4 0-71-5.4-141.3-22.4-210.6C1161.5 172.5 1088.1 87 976.7 36 903.1 2.3 823.7-6.3 743.5 4.3 662.9 15 594.6 51 540.6 112.4c-42 47.9-71.2 103.4-95.1 162-27.8 67.7-37.2 139.2-41.5 211.6 3.5 2.6 7.8 2.1 11.6 3.3 3.7-61 12.6-121.1 32.5-179 21.8-63.6 51.9-123.2 94-176C583 83 635.9 49.2 698.6 30.3c38-11.5 77.1-14.3 116.5-13.2 52.4 1.5 103.5 11.4 152.1 31.1 34.2 13.8 65.2 33.4 91.8 59.2 26.7 25.9 51.6 53.3 71.3 85.1 21.5 34.7 35 72.4 43.5 112.1 7.9 36.5 13.7 73.2 15.9 110.5 2.1 34.1 3.4 68.3 2.3 102.4-1.3 40.2-3.4 80.3-6.6 120.5-2.5 32.3-5.1 64.6-9.5 96.6-4.5 32.8-10.2 65.5-15.1 98.2-3.8 25.7-7.5 51.4-8.7 77.5-1.1 24.8.6 49 7.9 72.7 4.7 15.4 12.6 29.3 22.4 42 1.4 1.9 2.6 5.2 5.4 3.9 3.1-1.4 1.7-4.8 1.1-7.2-3.3-13.8-6.9-27.6-10.3-41.4-3.1-12.7-3-12.3 9.4-12.9 16.5-.7 32.5-4.3 48.4-8.7 4.4-1.2 8.5-1.2 13-.1 36.6 9.1 60.5 41.7 57.9 79.2-.5 6.9-2.5 13.4-5.8 19.6-3.5 6.6-8.5 11-15.9 13.3-48.7 15.6-98.1 28.5-148.5 36.7-30.8 5-61.8 8.2-92.8 10.8-36.4 3-73 4.7-109.5 6.3-28.6 1.3-55.8-1.8-81.2-15.5-21.5-11.6-37.3-28.3-45-52.2-8.6-27 6.1-59.4 28.5-74.8 10-6.8 20.1-8.9 32.5-7.9 39.6 3.2 79.4 4.8 118.8-3.6 4.7-1 9.2-2.7 15-4.4-8.3 17.1-18.9 31.2-29.8 45-5.4 6.8-11.2 13.1-16.7 19.7-.9 1.2-3.2 2.4-1.5 4.2 1.5 1.5 3.3.1 4.6-.9 6.9-5.6 13.8-11 20.5-16.8 26.9-23 42.4-53.1 52.1-86.5 8.7-30.3 12.7-61.4 16.5-92.6 4.8-39.7 7.8-79.5 10.3-119.4 2.2-34.7 4.7-69.5 7.3-104.2 1.8-24.3 3-48.6 2.5-72.9-1.1-59-4.7-117.6-19-175.2-13.8-55.6-37.7-106-78.9-146.7-29.9-29.6-66-48.8-107.9-54.8-39.6-5.6-78.3.1-116 13-40.7 13.9-77.6 34.6-108.7 64.6-26.1 25.2-43.8 56-55.9 90-13 36.7-19.6 74.8-24.1 113.4-3.3 28.3-4.8 56.7-6.8 85.1-.2 2.2-.1 4.4-.1 6.6.1 10.9.2 10.8-11.4 10.9-4.2.1-8.3.3-12.5.5 6.3 9.4 16.1 15.3 24 23.1 15.7-1.4 30.8-.4 43.5 10.5 6.8-10.2 11.3-21.5 15.2-33-12.7-.3-25.5-.6-38.3-.7-3.8 0-5.6-.6-5.2-5.3 2.6-33.8 3.1-67.8 7-101.5 4.6-39.7 12.7-78.5 28.5-115.4 29.7-69.6 83.8-111.6 153.7-135.3 35.5-12.1 72.1-16.6 109-9.6 44.7 8.4 80.8 31.9 109 67.6 32.9 41.7 51.5 89.8 62.9 141.3 12.8 57.9 14 116.4 12.5 175.2-.1 5-.3 9.9-.4 14.8 3.6.6 2.9 3.6 2.7 5.8-1.8 15.7-1 31.3-1.9 46.9.1 4.7-.1 8-.9 13.9.8 19.7-2.6 39-5 58.4-2.8 22.1-6.3 44-8.1 66.1-2.5 31.1-4.9 62.3-9 93.3-3.4 25.7-8.5 51-17.4 75.5-1.3 3.6-3.2 5.4-7.1 6.2-20.3 4.2-41.4 3.3-61.6 8.5-2.8.7-4.6-1-5.7-3.5-2.1-4.8-5.2-4.7-8.6-1.4-4.3 4-9.4 6.2-15.4 4.9-4.9-1-9.7-1.1-14.6-1.5-22.6-1.7-45.2-4.3-67.9-5.5-20.3-1-40.3-3.9-60.3-7-22.2-3.4-44.3-7.6-66.5-10.7-18.9-2.6-37.2-7-55.2-13.2-20-6.9-40.3-9.8-61-13.2-38.5-6.4-77.2-15.6-115.3-24.4-54.6-12.6-109.6-23.1-163.3-39-41.9-12.5-82.5-28.4-117.1-56.5-3.4-2.7-6.1-6.5-11.6-6 5.1 17.6 18.1 29.2 32.2 40.7-67.9 17.1-107.8 57.5-111.7 129.5-6.5-2.5-12.1-7.6-17.9-12.3-19.4-15.6-37.7-32.4-49.1-55.1-10.5-20.8-12.6-43-10.5-65.9 1.6-17.8 6.2-34.7 13.3-51 1.6-3.5 3.8-6.1 7.1-8.1 27.4-17.2 56.2-31.1 88.7-35.9 14-2 27.8-2.5 41.7-.2 0-5.6.1-11.3.2-17-39.3-4.9-75.4 4.8-109.8 23.1-2.1 1.1-4.1 2.8-6.8 2.2 9.9-16.7 23.7-29.8 38.4-42 25-20.7 52.4-37.8 81.9-51.3 1.3-.6 2.8-.8 4.2-1.2 2.4-8.5 5.8-16.6 6.8-25.4-31.8 12.2-61.4 28.6-89 48.5-51.2 36.9-86.3 84.5-96 148-5.9 38.8-.4 76 24.5 108.1 12.2 15.6 26.3 29.2 41.9 41.4 2.9 2.3 4.4 4.3 3.5 8.5-2.1 9.9-1.5 20-.7 30.1 1.8 22.1 3.9 44.1 5.4 66.2 5.3 79.5 10 159 26.1 237.4 19 92.7 59 173.5 128.4 239.6 43.6 41.4 93.8 71 148.7 93.9 79.3 33.1 162.8 48.8 247.6 57.3 98 9.9 196 5.8 293.6-7.6 74.5-10.3 147.1-27.3 217.2-55.5 117.9-47.5 197.5-130.8 239.4-250.8 21.3-61.1 35.6-123.6 41.6-188.1 4.3-45.6 4.3-91.4 8.6-137 .4-4.4.3-9-.7-13.2-1.3-5.1.8-7.6 4.4-10.5 24.5-19.5 46.2-41.6 60.8-69.5 32.1-61.1 32.1-121.1-7.9-178.9zM647 941.6c49.9 9.2 100 17.4 150.1 24.6l25.5 3.6c-26.3 22.1-39.4 49.4-33.7 82.7 5.6 32.4 25.6 55.6 53.7 72.4-32.6.7-64.9-.1-97.4-1.8-26.9-1.6-53.8-3.7-80.6-6.7-16-1.8-32.8-.6-47.6-7.9-47.6-23.3-71.1-74.9-38-127.6 12.1-19.2 29.3-31.3 49.2-40.5 6.4-2.9 12.7.1 18.8 1.2zm-184.4-38.9c44.9 10.3 89.9 20.3 135 29.4 1.5.3 3 .3 4.1 2.6-8.7 4.8-17.2 10.1-23.8 17.7-27.8 32.4-40.9 68.4-26.3 110.8 4.5 13.3 12.6 24.4 22 34.6 1.6 1.8 5.6 3.4 3.8 6.2-1.3 2.2-5 .9-7.6.4-28.9-5.3-57.9-10.4-86.7-16.1-29.4-5.8-58.7-11.7-87.8-18.4-21.3-4.9-35.1-20.2-45.3-38.3-16.6-29.6-11-66.2 12.9-92.9 19.7-22 45.6-32.7 73.1-40.3 9-2.5 17.8 2.3 26.6 4.3zm-300.4-42.8c19.8-15.9 43.7-21.7 67.7-27.3 2.2-.5 3.8.1 5.6 1 39.2 19.3 81 31.2 122.9 42.7 16.3 4.4 32.6 8.6 51 13.5l.2.1c-36.5 12-63.8 32.7-78.3 67-14.7 34.8-11.5 68.1 11.9 99.5-8.4-2.2-16.9-4.2-25.2-6.7-67.8-19.8-131.8-48.4-192.9-83.6-6.6-3.8-8.2-9-8.4-15.7-.9-38.3 16.5-67.3 45.5-90.5zM1393 1058.5c-2.9 17-1.9 34.2-4.1 51.2-.3 2.7-.2 5.4-.2 8.1-.3 26.9-2.9 53.6-5.7 80.4-3.5 33.6-7.9 67-16.5 99.7-11 41.3-23.5 82.1-42.6 120.5-14.8 29.7-33 57-55.2 82-37.5 42.3-84 71-134.9 93.5-40 17.8-81.2 31.7-123.9 41.3-29.8 6.7-59.8 11.9-90.1 16.1-22 3.1-44.1 5.6-66.1 8.3-13.1 1.6-26.3 2.4-39.5 3.1-43.6 2.2-87.4 2.7-131.1 1.2-37.5-1.3-75-4.8-112.2-11-40.3-6.7-80.4-14.1-119.6-25.7-13.3-4-26.5-8.8-39.7-13.3-15.6-5-30.7-11.7-45.6-18.5-43.6-19.9-83.9-44.5-118.8-78.1-33.9-32.5-63-68.1-83.5-110.3-20.9-43-34.6-88.3-43.1-135.5-6.3-35.3-10.3-70.7-14.1-106.2-2.6-23.4-3.2-47-4.9-70.4-1.5-21.8-2.7-43.6-2.9-65.4l-.2.2c-3.2-8.3-1-17.3-2.5-26-1.5-8.6-2.4-17.4-4.2-26-.4-1.7-1.3-3.6.5-4.7 1.5-1 2.6.8 3.8 1.5 26.8 17 54.7 31.9 83.4 45.4 47.6 22.3 96.8 40 147.5 54.2 65.6 18.3 132.1 31.9 198.8 44.9 26.1 5.1 52.4 9.3 78.8 12.8 26.7 3.5 53.3 7.1 80 9.7 15.7 1.6 31.7 2.3 47.5 3.6 52 4.3 104.1 2.5 156.1 2.5 27.2 0 54.4-1.6 81.6-2.9 24-1.1 47.9-2.3 71.8-4.4 42.5-3.7 85-7.5 127.1-15.6 43.3-8.4 86-19.3 127.9-32.8 31.1-10.1 61.7-21.3 90.4-37 4.2-2.4 6.9-1.6 6 3.6zm-70.8-2.5zm-.4.8c.1-.2 0-.3.1-.4 0 0 .1 0 .1-.1l-.2.5zM1489.3 902c-8.4 35.9-28.5 64.4-54.6 89.2-30.2 28.6-66.1 48.2-104.7 63-2.3.9-4.8 2.4-7.5 1.8 6.6-19.4 7.3-38.7-.5-58-9.1-22.5-23.6-39.5-46.9-48-.9-.3-1.7-.7-3.7-1.7 10.1-4.6 19.1-8.5 28.1-12.7 36-16.7 65.2-40.8 83-77.1.9-1.9 1.9-3.6 3.9-4 21.6-4.9 43.1-10.8 65.1-2.1 13.4 5.3 25.8 12 33.6 25 4.5 7.6 6.3 15.5 4.2 24.6z"/><path class="st7" d="M516.6 228.1c-13.9 24.9-27.5 49.8-37.1 76.8-16.8 47.1-27.8 95.4-31.1 145.3-1.1 16.9-2.4 33.7-3.6 50.6 1.7.2 3.3.3 4.9.5 15.3-95.3 35.1-189.4 73.7-278.7-4.8 2.1-5 2.2-6.8 5.5zm507.8 375.5c4.5-6.4 12.4-9.6 16-16.7-7.7-2.8-15.6-4.6-23.6-6.2 1.6 6.9 4.1 13.6 4.4 20.7.1 2 2 3.9 3.2 2.2zm92.6 118.6c-3.8 24.7-8.1 49.3-11.6 74-4.5 32-7.9 64.2-12.5 96.2-4 28.5-5.7 57.1-8.2 85.6-.3 3.7-1.9 10.1 1.4 10.5 4.2.4 3.6-6 4.3-9.5 8.8-40.7 16.4-81.6 22.6-122.8 5-33.2 9.3-66.5 10.1-100.1.7-11.4-1.2-22.6-1.7-33.9 0-1.4.4-3.5-1.6-3.6-2.2-.2-2.5 1.9-2.8 3.6zm-107.9-619c-2-.7-4.6-3.8-6.3-.7-1.2 2.2 2.2 3.2 3.8 4.6 22 19.2 44.2 38.1 62.8 60.8 6 7.4 11.5 15.2 17.3 22.8 1 1.3 2.1 3.1 4 2.7 2-.3 1.1-2.3 1.5-4.1-2.3-10.9-6-21.8-12.3-31.6-16.9-26.8-41.5-43.9-70.8-54.5zM1156.3 630l-2.1.1c-1.6 14.5-3.2 29-4.6 43.6-2.2 22.4-3.5 45-6.4 67.3-4.4 34.1-6 68.3-8.2 102.6-.2 3.2-1.9 8.6 2 9 3.4.4 3-5.4 3.5-8.5 4-25.3 8.5-50.7 12.7-76 7.2-42.9 8.1-85.9 5.1-129.1-.3-3-1.3-6-2-9zm-65.4-237.5c-.6 7.6-1.6 15.3-1.7 23.1-.8 31.3-.1 62.8 3.1 94 1.9 18.2 4.7 36.4 7.4 54.5.3 2.1.3 5.9 3.2 5.7 2.9-.2 2.4-3.7 2.4-6.1.1-14.5-.1-29 .2-43.5.7-35.6-1.6-71-7.8-106.1-1.3-7.3-1.2-15.1-6.8-21.6zM590 132.9c7.8-7.5 15.6-14.9 23.5-22.3 42.7-39.9 94.9-54.7 151.4-58.1 24-1.4 48-2.2 72.1-.4 10.2.8 20.4 2.8 31.8 1.6-1.5-1.2-2-1.9-2.6-2.1-23.4-6.4-47-11.6-71.3-12.5-21.3-.8-42.7-.2-63.9 2.9-31.1 4.6-60.9 13.1-88 29.6-23.6 14.4-40.7 35.2-56.8 57-1.9 2.5-4.6 5-4.4 8.9 4 .1 6-2.4 8.2-4.6zm500.9 259.6zm89.5 129.8c1.9-52.7-1.3-105-11.3-156.8-8.2-41.8-20.7-81.8-44.2-117.7-1.4-2.2-1.8-5.6-5.2-6.3-1.7 2 0 3.6.5 5 14.5 41.7 28.4 83.5 36 127.2 6.7 38 11.2 76.2 12.4 114.7.9 30.2 1 60.5 1.6 90.7 0 2.2-.6 4.5 1.8 7.8 1.1-2.9 2.2-4.8 2.5-7 3-19 5.2-38.3 5.9-57.6zm-273.5-462c-1 2.2 1.3 3 2.6 3.7 9.8 5.8 20.1 10 31.8 9.3 1.4-.1 3.2.5 3.9-1.1.9-2.3-1.3-2.7-2.7-3.6-9.6-6.1-20.1-8.6-29.3-9.2-3.6-1-5.5-.7-6.3.9zM1172 586.9zm-721.8 639.9c25.1-.2 47.8-8.7 63.5-30.1 9.1-12.3 16.5-25.1 14.5-41.3-.2-1.4.5-3.3-1-4.1-2.1-1.2-3.1.9-4.2 2-4.3 4.7-9 9-13 14-8.5 10.8-16.4 21.9-28.6 29.3-21.6 13-52.7 11.5-71.8-4.6-16.3-13.7-27.1-31.3-34.4-51.2-.5-1.3-.9-2.8-1.5-4.1-.5-1.2-1.3-2.2-2.7-2.2-1.4.1-1.8 1.2-2.3 2.4-1.6 3.5-1.3 7.2-1.3 10.9-.1 40.8 37.3 79.3 82.8 79zm65 51.7c-2.6-1.3-3.2 2.2-4.4 3.8-10.3 13.3-22.8 24.3-36.7 33.6-26.6 17.7-60.1 11.7-78.7-14.3-7.8-10.8-13.9-22.5-17.8-35.3-.6-2-1.7-4.2-3.7-4.1-2.4.2-3.5 2.6-3.6 4.9-.1 3.6 0 7.3 0 10.9l-.1.1c-2 17.7 6 31.7 17.3 43.8 22.3 23.7 55.5 30.2 85 16.4 22.7-10.6 38.5-27.5 43.4-53 .5-2.3 1.6-5.6-.7-6.8zm-9.4 138.8c-8.9 12-20.5 21.1-32.6 29.5-24.8 17.2-44.6 16.4-68.9-1.4-9-6.7-16.8-14.4-24.7-22.1-1.6-1.5-3.1-4.9-5.7-3.1-1.9 1.4-.9 4.6-.2 7 8.9 29.5 37.8 51 76.4 51 18-.3 36.7-13.4 51.7-33 5.6-7.3 8.3-16 10-25 .3-2 1.4-4.9-.9-6.1-2.5-1.2-3.9 1.6-5.1 3.2zm25 127.2c-12.2 11.1-26.8 17.9-41.8 24.1-23.1 9.5-46 10.4-68.5-1.9-15.2-6.6-28.8-15.7-42.1-25.4-2.4-1.7-5-5.6-8.1-2.7-3 2.7.6 5.9 2 8.4 9.6 17.1 22.4 31 40.7 39 15 7.6 30.7 11.3 47.7 10.4 34-2.1 59.7-16.9 74.8-48.2.8-1.6 2.7-3.7 1-5.3-2.1-1.9-4.2.3-5.7 1.6zm-365.3-422.9c16.3 35 54.7 49 89.7 32.2 17.7-8.4 31.8-20.5 34.7-41.6.2-1.3 1.2-3-.5-3.8s-2.8.8-3.5 2c-7.6 12.3-20.4 17.4-32.5 23.2-29.6 14.3-53.7 6.9-70.7-21.5-5-8.5-9.5-17.2-13.3-26.3-1-2.3-2.4-4.9-5.2-4.5-2.8.4-3.2 3.4-3.4 5.8-.2 3 0 6 0 8.9-.5 9 .8 17.6 4.7 25.6zm110.3 162.7c11.2-15.4 16.1-32.3 14.8-51.1-.2-1.8.9-4.6-1.4-5.2-2.9-.8-3.4 2.4-4.1 4.2-4.5 11.8-10.8 22.5-18.5 32.5-14.2 18.5-32.5 26.8-52.7 19.7-22.4-7.8-37.3-25.2-47.4-46.6-2.4-5.2-2.9-11.3-7.8-17-3.9 8.3-1.2 15.5-.1 22.3 3.8 23.6 17.7 41.2 36.6 53.9 26.8 18.1 63.5 10.9 80.6-12.7zm35.1 90.4c-3.3-1.1-5.1 3.7-6.6 6.7-6 12.5-13.7 23.7-24.3 32.9-12.6 10.9-26.4 15.8-42.6 8.4-13.4-6.2-24.6-15.1-33.2-27.2-4.4-6.2-8.5-12.6-12.9-18.8-.9-1.3-2.2-3.3-4-2.7-2.5.8-1.7 3.5-1.3 5.1 1.7 6.3 3.7 12.7 5.9 18.9 10 28.1 35.9 47.7 57.1 47.7 19.2.2 30.2-5.2 40.2-13.9 14.7-12.7 20.5-29.4 23.1-47.8.5-3.2 2.2-8.1-1.4-9.3zm339.9-27.9c-1.5-1.3-3-2.5-4.5-3.8-11.5-9.7-18.7-22.5-26-35.3-1.1-1.9-2.2-4.5-4.9-3.4-2.6 1-2.8 3.6-2.6 6.2 1.5 24.6 12.4 43.9 32.1 58.4 1.2.6 2.6 1 4 1.7 20.9 12.4 43 15 66.2 7.4 26.3-8.7 45.1-25.9 56.8-50.9.9-1.8 3.5-4.1 1.3-5.7-2.3-1.7-4.3 1.2-6.1 2.7-17.7 15.6-37.9 27-60.5 33.6-20.1 5.9-39.1 2.7-55.8-10.9zm407.9 98.4c-2.2-1.6-3.6.9-4.7 2.3-10.1 12.4-21.4 23.5-33.8 33.6-21.4 17.5-45 22.2-71.3 12.5-24.7-9-41.4-28.2-58.9-46.3-2.5-2.6-4.8-5.5-7.4-8.1-1.2-1.1-2.8-2.4-4.6-1.3-1.8 1.1-1.8 3.1-1.4 4.7 1.4 4.5 2.9 8.8 4.5 13.2 13.5 37.6 57.9 66.6 93.3 64.9 3.6 0 7.3.4 11-.1 35.7-4.6 67.5-35 73.4-70.6.3-1.7 1.4-3.7-.1-4.8zm-11.7 112.2c-1.9-1.4-3.2.6-4.2 1.8-9.9 10.8-21.9 18.8-34 26.8-25.4 16.8-51.7 20.3-79.4 7-12.4-6-23.7-13.8-34-23-2-1.7-4.6-4.3-7.1-2.6-3 1.9-1.3 5.3 0 7.9 3.7 7.5 7.3 15 13 21.3 16.6 18.5 37.8 26.4 62.2 26.3 4.9-.6 9.8 0 14.9-.7 23.2-3.6 41.5-15.5 56.5-33 6.6-7.8 10.5-17 12.8-26.9.4-1.6.8-3.9-.7-4.9zm218.1-93.8c-11.6 8.9-22.2 19.2-35.7 25.5-13.1 6.2-32.4 6.4-43.6-7.7-8.5-10.7-17.1-21.3-25.6-32.1-1.3-1.8-2.2-4.1-5-3.3-2.6.8-2.6 3.1-2.8 5.4-2.8 31.2 25 60.9 57.5 60.4 22-.3 40.2-10.3 53.7-27.7 5.4-7 7.1-15.7 8.1-24.5-3.7-.2-4.7 2.5-6.6 4zm34.4-314.6c-3-5.7-5.3-4.1-7.3.1-2.5 5.3-4.6 10.8-6.7 16.3-3.7 9.6-7 19.3-14.6 26.9-13 13-28.6 19.9-46.9 22-21.9 2.5-39.7-3.9-52.7-21.8-6.4-8.9-12.2-18.3-18.4-27.4-1.1-1.4-2.3-3.8-4.5-3.1-2.2.7-1.7 3.3-1.8 5.2-2.5 40.7 32.3 71.4 73.6 70.2 12.7-.5 25.1-3.7 37-8.7 25.3-10.9 46.6-34.9 45.9-63.7.7-5.2-.8-10.6-3.6-16zm-2.1 155.6c-8.8 8.3-17.4 16.6-26.3 24.7-10.8 9.7-22.2 18.3-36.6 22.4-23.4 6.8-42.9.6-57.6-17.8-6.5-8.1-14.1-15.5-21.3-23.2-1.4-1.5-3-2.7-5.2-1.6-2.1 1.1-2.3 3-2 5.1 5.6 41.9 41.6 65.2 82.5 58.4 21.4-3.6 38.6-14.5 52.9-30.7 9.7-11.2 15-24.1 17-38.6-2-.5-2.8.5-3.4 1.3zM692.9 1521c38-.7 74.8-27 76.1-73.9-8.6 11.8-18.5 20-28 28.6-20.4 18.6-43.5 27.7-71.3 20.1-18.8-5-31.8-18-43.8-32.1-5.7-6.7-10.6-14-16-21-1.6-2-3.5-3.7-6.3-2.5-2.1.9-1.8 2.9-1.5 4.5 3.2 15 7.2 30 16.9 41.9 18.9 23.1 43.6 35 73.9 34.4zm259.3-147.6c13.2 0 27.7-4.2 37.7-10.5 22.2-14.2 33.4-35.8 39.9-60.3.5-2.1 1.3-5.1-.7-6.2-2.8-1.5-4.2 1.7-5.6 3.5-11 14.8-24.3 27.5-38.3 39.4-9.9 8.3-21.9 12.1-34.1 11.5-17.9-.9-34-7.9-47-21.2-8.9-9.1-17-18.9-24.3-29.4-1.1-1.7-2.1-3.8-4.4-3.1-2.6.7-1.7 3.2-1.8 5 0 1.5 0 3 .2 4.4 7.2 42.4 43.2 65.1 78.4 66.9zm-300.1-128.3c19.9 5.7 39.8 5.6 59.7-1.7 28-10.1 45.8-33.6 45.1-60.4 0-1.8 1-4.4-1.3-5.2-2.2-.7-3.3 1.7-4.4 3.2-7.9 11.4-17.6 21-28.5 29.5-23.8 18.6-58.3 20.7-80.9 4.9-7.9-3.4-13.7-9.2-18.2-16.3-4.6-7.2-10.1-13.9-12.8-22.1-3.1-2.3-3.9-5.8-5.4-9.1-2.8-6.3-4.6-6.4-9.3-1.2-.6 13.1.4 25.9 6.4 37.8 10.5 20.7 28 33.3 49.6 40.6zM768 1577.5c-12.2 7.3-23.9 15.3-36.4 22.1-15 8.1-30.8 12.9-48.5 10.3-22-3.2-40.6-14.2-59.7-24-3.9-2-7.5-4.5-11.4-6.7-1.5-.9-3.4-1.3-4.8.1-1.6 1.6-.4 3.3.5 4.7 1.7 2.4 3.7 4.6 5.5 6.9 20.4 26.1 46.8 40.3 78.5 41.2 38.1-.5 64.7-17.2 81.9-48.9 1.4-2.5 4.1-5.6 1.5-8-2.2-2-4.9 1-7.1 2.3zm178.4-322.2c10.2 1 20.7-2.4 31.2-5.9 23.6-7.7 51.9-40.9 47.9-66.7-.3-2.2 1.5-5.7-1.7-6.3-2.3-.4-3.9 2.6-5.3 4.6-8.4 12.1-17.9 23.3-28.4 33.6-13.4 13.1-30.3 19-48.8 18.3-14.8-.5-28.1-6.7-38.7-17.3-9.2-9.1-17.9-18.8-26.9-28.2-1.3-1.3-2.6-3.4-4.9-1.9-1.9 1.2-1.7 3.3-1.3 5.3 7.2 38.4 41.5 65.3 76.9 64.5z"/></g></svg>