<svg width="2008" height="902" viewBox="0 0 2008 902" fill="none" xmlns="http://www.w3.org/2000/svg">
<g clip-path="url(#clip0_932_403)">
<g opacity="0.5">
<path d="M1147.42 323.55L1105.08 236.765L1191.79 194.466L1149.49 107.747L1322.97 23.1163L1492.25 370.125L1318.77 454.756L1361.07 541.474L1121.35 658.42L1079.04 571.702L992.266 614.034L949.929 527.248L1123.41 442.617L1165.75 529.403L1232.06 497.055L1189.72 410.269L1276.43 367.97L1234.13 281.252L1147.42 323.55Z" fill="#272727"/>
<path d="M1147.42 323.55L1189.72 410.269L1123.41 442.617L1081.11 355.899L1147.42 323.55Z" fill="#272727"/>
<path d="M818.781 698.665L861.084 785.383L1034.57 700.752L992.266 614.034L818.781 698.665Z" fill="#272727"/>
<path d="M818.781 698.665L776.477 611.947L689.769 654.246L732.072 740.964L818.781 698.665Z" fill="#272727"/>
<path d="M1149.49 107.747L996.47 182.394L954.166 95.6768L980.568 82.7975L980.534 82.7292L1107.15 20.9615L1149.49 107.747Z" fill="#272727"/>
<path d="M1833.97 203.425L2007.46 118.794L1965.12 32.0083L1791.63 116.639L1833.97 203.425Z" fill="#272727"/>
<path d="M1641.34 82.6032L1554.63 124.902L1512.33 38.1846L1599.03 -4.11426L1641.34 82.6032Z" fill="#272727"/>
<path fill-rule="evenodd" clip-rule="evenodd" d="M994.402 398.197L647.432 567.46L562.791 393.955L389.307 478.586L347.003 391.869L867.458 137.976L994.402 398.197ZM865.288 353.744L822.985 267.025L736.276 309.324L778.58 396.043L865.288 353.744Z" fill="#272727"/>
<path d="M647.432 567.46L689.736 654.178L603.027 696.477L645.364 783.263L558.587 825.595L600.891 912.313L514.183 954.612L471.879 867.894L385.102 910.226L427.406 996.944L253.921 1081.58L211.617 994.857L298.394 952.525L256.057 865.739L169.281 908.071L126.977 821.353L213.754 779.021L171.417 692.235L84.6405 734.567L0 561.063L86.7765 518.731L129.113 605.516L302.598 520.885L344.902 607.604L258.125 649.936L342.766 823.44L516.251 738.809L473.947 652.091L647.432 567.46Z" fill="#272727"/>
</g>
</g>
<defs>
<clipPath id="clip0_932_403">
<rect width="2008" height="902" fill="white"/>
</clipPath>
</defs>
</svg>
