<svg width="395" height="395" viewBox="0 0 395 395" fill="none" xmlns="http://www.w3.org/2000/svg">
<path d="M112.459 253.699V225.792H84.7808V84.6091H112.649V56.3893H140.982V28.0351H169.187V0H310.354V27.884H338.58V56.2437H366.762V84.4692H395V225.736H366.969V253.866H338.759V282.221H310.516V310.289H169.321V282.232H141.106V253.676H112.426L112.454 253.699H112.459ZM310.169 225.954H338.726V197.376H366.65V112.745H338.692V84.4804H310.348V56.2885H282.149V28.175H197.38V56.4173H169.176V84.5811H140.938V112.918H112.924V197.595H141.156V225.815H169.349V254.169H197.587V282.047H282.205V253.917H310.175V225.954H310.169Z" fill="#DDDDDD"/>
<path d="M112.431 253.677V282.216H140.904V310.38H112.845V338.706H84.6801V366.926H56.3136V395H28.1932V367.049H0V338.796H27.9861V310.548H56.2856V282.244H84.6353V253.7C94.0964 253.7 103.278 253.7 112.459 253.7L112.426 253.677H112.431Z" fill="#DDDDDD"/>
<path d="M253.788 84.686V140.795H197.716V84.686H253.788Z" fill="#DDDDDD"/>
<path d="M338.793 197.461H310.169V141.167H338.793V197.461Z" fill="#DDDDDD"/>
<path d="M282.278 225.946C282.278 235.298 282.278 244.645 282.278 253.998H225.937V225.946H282.278Z" fill="#DDDDDD"/>
<path d="M310.242 226.011C300.898 226.011 291.555 226.011 282.211 226.016V197.388H310.247C310.247 206.931 310.247 216.468 310.247 226.011H310.242Z" fill="#DDDDDD"/>
</svg>
