<?xml version="1.0" encoding="utf-8"?>
<!-- Generator: Adobe Illustrator 28.0.0, SVG Export Plug-In . SVG Version: 6.00 Build 0)  -->
<svg version="1.1" id="Слой_1" xmlns="http://www.w3.org/2000/svg" xmlns:xlink="http://www.w3.org/1999/xlink" x="0px" y="0px"
	 viewBox="0 0 880 1096.4" style="enable-background:new 0 0 880 1096.4;" xml:space="preserve">
<style type="text/css">
	.st0{fill:#FA994B;}
</style>
<path class="st0" d="M804.8,271l20.2-75.1l-75.3-20.1l20.2-75.1l-75.2-20.1l-75.3-20.1l0,0L544,40.4l0,0l-75.1-20.1l0,0l-75.3-20
	l-20.2,75.1l-75.2-20.1L278,130.4h-0.1l-75.3-20.1l-20.2,75l-20.2,75.1l-20.2,75l-20.2,75.1l-20.2,75.1l-20.2,75l-20.2,75.1l0,0
	l-20.2,75l-20.2,75.1L0.9,860.6l75.3,20.1l-20.2,75l75.2,20.1l75.3,20.1l0,0l75.1,20.1l0,0l75.3,20.1l0,0l75.3,20.1l75.2,20.1
	l75.3,20.1l20.2-75l75.2,20.1l20.2-75.1l20.2-75.1l20.1-74.9l0,0l20.2-75.1l20.2-75l20.2-75.1l20.2-75.1l20.2-75l20.2-75.1l20.2-75
	L804.8,271z M533.1,680.9l-75.3-20.1l-20.2,75l0,0l-20.2,75l-20.2,75.1l0,0L322,865.8l0,0l20.2-75.1l20.2-75l0,0l20.2-75l-75.2-20.1
	l0,0l20.2-75l75.1,20.1l0,0l75.3,20.1l0,0l75.3,20.1L533.1,680.9z M709.1,325.8L689,400.9l-20.2,75l-75.2-20.1l-75.3-20.1l0,0
	L443,415.6l0,0l-75.1-20.1l0,0l-75.3-20.1l20.2-75l20.2-75.1l20.2-75h0.1l75.3,20.1l0,0l75.2,20.1l0,0l75.2,20.1l0,0l75.3,20.1
	l75,20L709.1,325.8z"/>
</svg>
