<svg width="536" height="150" viewBox="0 0 536 150" fill="none" xmlns="http://www.w3.org/2000/svg">
<path opacity="0.1" d="M51.8161 149.022L15.8153 122.9L47.2379 85.9117L0 73.1641L13.7344 30.742L58.8914 49.3408L55.7699 0.0224609H100.303L97.1811 49.3408L142.13 30.742L155.864 73.1641L108.835 85.9117L140.049 122.9L104.048 149.022L78.0363 108.063L51.8161 149.022Z" fill="black"/>
<path opacity="0.1" d="M241.884 149.022L205.883 122.9L237.306 85.9117L190.068 73.1641L203.802 30.742L248.959 49.3408L245.838 0.0224609H290.37L287.249 49.3408L332.198 30.742L345.932 73.1641L298.902 85.9117L330.117 122.9L294.116 149.022L268.104 108.063L241.884 149.022Z" fill="black"/>
<path opacity="0.1" d="M431.952 149.022L395.951 122.9L427.373 85.9117L380.135 73.1641L393.87 30.742L439.027 49.3408L435.905 0.0224609H480.438L477.317 49.3408L522.266 30.742L536 73.1641L488.97 85.9117L520.185 122.9L484.184 149.022L458.172 108.063L431.952 149.022Z" fill="black"/>
</svg>
