<svg width="580" height="777" viewBox="0 0 580 777" fill="none" xmlns="http://www.w3.org/2000/svg">
<g clip-path="url(#clip0_909_157)">
<path d="M529.785 213.203L543.249 162.945L493.168 149.523L506.631 99.2667L456.549 85.8445L463.281 60.7157L237.787 0.282227L231.055 25.411L180.973 11.9887L167.509 62.2454L117.428 48.8234L103.964 99.0809L53.883 85.6588L-0.00537109 286.815L75.117 306.948L61.6535 357.205L161.816 384.049L175.28 333.792L125.198 320.37L172.355 144.342L197.396 151.053L204.128 125.925L404.582 179.648L397.85 204.776L422.89 211.487L375.734 387.515L350.693 380.804L337.23 431.06L287.148 417.638L273.684 467.895L198.562 447.762L164.903 573.404L265.067 600.248L291.994 499.735L367.116 519.868L380.58 469.61L430.661 483.032L444.124 432.776L494.206 446.198L507.67 395.941L532.838 402.686L579.995 226.659L529.785 213.203Z" fill="#E5E5E5"/>
<path d="M251.584 650.639L151.421 623.795L144.689 648.924L119.521 642.179L99.3256 717.564L124.494 724.309L117.762 749.438L217.925 776.282L224.657 751.153L249.698 757.865L269.893 682.479L244.852 675.768L251.584 650.639Z" fill="#E5E5E5"/>
</g>
<defs>
<clipPath id="clip0_909_157">
<rect width="580" height="777" fill="white"/>
</clipPath>
</defs>
</svg>
