<svg width="1412" height="933" viewBox="0 0 1412 933" fill="none" xmlns="http://www.w3.org/2000/svg">
<g clip-path="url(#clip0_862_5304)">
<path d="M718.542 794.903H816.797V753.522L831.843 738.469H854.19L968.679 623.969V583.607L1005.35 546.937H1044.92L1060.21 531.647V505.38L1109.46 456.12H1157.76L1167.25 446.637V425.289L1192.75 399.79H1218.34L1289.91 328.212H1335.52L1357.95 305.785H1437.73L1430.79 244.793H1345.74L1299.74 290.793H1231.52L1188.69 333.63H1154.28L1117.51 370.391V399.705L1073.3 443.925H1044.34L918.013 570.26L893.844 570.559L870.108 594.302V646.372L820.849 695.632H784.364L770.098 709.899V743.339L754.046 759.391H737.562L707.762 789.192V794.903H718.542Z" fill="#232323"/>
<path d="M936.277 930.233H839.863L1031.53 738.561H1127.94L936.277 930.233Z" fill="#363636"/>
<path d="M1099.31 667.989H1015.37L1359.87 323.471H1443.81L1099.31 667.989Z" fill="#232323"/>
<path d="M729.109 998.691H653.037L965.279 686.43H1041.36L729.109 998.691Z" fill="#232323"/>
<path d="M1225.2 439.628H1197.96L1203.2 434.387H1230.44L1225.2 439.628Z" fill="#303030"/>
<path d="M1235.46 429.366H1208.22L1213.46 424.119H1240.71L1235.46 429.366Z" fill="#303030"/>
<path d="M1245.73 419.097H1218.48L1223.73 413.856H1250.97L1245.73 419.097Z" fill="#303030"/>
<path d="M1255.99 408.833H1228.75L1233.99 403.592H1261.23L1255.99 408.833Z" fill="#303030"/>
<path d="M1266.25 398.571H1239.01L1244.25 393.33H1271.49L1266.25 398.571Z" fill="#303030"/>
<path d="M1276.51 388.308H1249.27L1254.52 383.061H1281.76L1276.51 388.308Z" fill="#303030"/>
<path d="M1060.24 436.204H1043.75L1046.92 433.029H1063.42L1060.24 436.204Z" fill="#363636"/>
<path d="M1066.46 429.988H1049.96L1053.14 426.819H1069.63L1066.46 429.988Z" fill="#363636"/>
<path d="M1072.67 423.777H1056.18L1059.35 420.602H1075.84L1072.67 423.777Z" fill="#363636"/>
<path d="M1078.88 417.561H1062.39L1065.56 414.386H1082.06L1078.88 417.561Z" fill="#363636"/>
<path d="M1085.1 411.345H1068.6L1071.78 408.169H1088.27L1085.1 411.345Z" fill="#363636"/>
<path d="M1091.32 405.129H1074.82L1077.99 401.954H1094.49L1091.32 405.129Z" fill="#363636"/>
<path d="M734.04 700.684H717.549L720.724 697.509H737.215L734.04 700.684Z" fill="#363636"/>
<path d="M740.256 694.468H723.759L726.934 691.292H743.431L740.256 694.468Z" fill="#363636"/>
<path d="M746.471 688.252H729.975L733.15 685.077H749.646L746.471 688.252Z" fill="#363636"/>
<path d="M752.687 682.036H736.191L739.366 678.861H755.862L752.687 682.036Z" fill="#363636"/>
<path d="M758.903 675.819H742.407L745.582 672.644H762.072L758.903 675.819Z" fill="#363636"/>
<path d="M765.113 669.603H748.623L751.798 666.434H768.288L765.113 669.603Z" fill="#363636"/>
<path d="M734.04 700.684H717.549L720.724 697.509H737.215L734.04 700.684Z" fill="#363636"/>
<path d="M740.256 694.468H723.759L726.934 691.292H743.431L740.256 694.468Z" fill="#363636"/>
<path d="M746.471 688.252H729.975L733.15 685.077H749.646L746.471 688.252Z" fill="#363636"/>
<path d="M752.687 682.036H736.191L739.366 678.861H755.862L752.687 682.036Z" fill="#363636"/>
<path d="M758.903 675.819H742.407L745.582 672.644H762.072L758.903 675.819Z" fill="#363636"/>
<path d="M765.113 669.603H748.623L751.798 666.434H768.288L765.113 669.603Z" fill="#363636"/>
<path d="M875.611 758.66H863.934L1151.57 471.002H1163.26L875.611 758.66Z" fill="#363636"/>
<path d="M1067.23 681.085H1060.61L1223.69 518.001H1230.32L1067.23 681.085Z" fill="#303030"/>
<path d="M1251.57 450.001H1246.79L1364.65 332.137H1369.43L1251.57 450.001Z" fill="#363636"/>
<path d="M534.52 919.86H487.419L680.729 726.542H727.83L534.52 919.86Z" fill="#303030"/>
<path d="M915.216 412.472H906.02L916.538 401.954H925.74L915.216 412.472Z" fill="#363636"/>
<path d="M929.653 412.472H920.451L930.969 401.954H940.171L929.653 412.472Z" fill="#363636"/>
<path d="M944.084 412.472H934.882L945.4 401.954H954.602L944.084 412.472Z" fill="#363636"/>
<path d="M915.216 412.472H906.02L916.538 401.954H925.74L915.216 412.472Z" fill="#363636"/>
<path d="M929.653 412.472H920.451L930.969 401.954H940.171L929.653 412.472Z" fill="#363636"/>
<path d="M944.084 412.472H934.882L945.4 401.954H954.602L944.084 412.472Z" fill="#363636"/>
<path d="M1190.37 245.489H1183.91L1191.31 238.096H1197.77L1190.37 245.489Z" fill="#363636"/>
<path d="M1200.52 245.489H1194.06L1201.45 238.096H1207.92L1200.52 245.489Z" fill="#363636"/>
<path d="M1210.67 245.489H1204.2L1211.59 238.096H1218.06L1210.67 245.489Z" fill="#363636"/>
<path d="M1190.37 245.489H1183.91L1191.31 238.096H1197.77L1190.37 245.489Z" fill="#363636"/>
<path d="M1200.52 245.489H1194.06L1201.45 238.096H1207.92L1200.52 245.489Z" fill="#363636"/>
<path d="M1210.67 245.489H1204.2L1211.59 238.096H1218.06L1210.67 245.489Z" fill="#363636"/>
<path d="M970.739 707.754H961.543L972.061 697.235H981.263L970.739 707.754Z" fill="#303030"/>
<path d="M985.175 707.754H975.973L986.492 697.235H995.694L985.175 707.754Z" fill="#303030"/>
<path d="M999.606 707.754H990.404L1000.92 697.235H1010.12L999.606 707.754Z" fill="#303030"/>
<path d="M1037.66 348.677H1029.1L1034.34 343.436H1042.91L1037.66 348.677Z" fill="#363636"/>
<path d="M1047.93 338.414H1039.36L1044.6 333.173H1053.17L1047.93 338.414Z" fill="#363636"/>
<path d="M1058.19 328.151H1049.63L1054.87 322.904H1063.44L1058.19 328.151Z" fill="#363636"/>
<path d="M1068.46 317.882H1059.89L1065.13 312.641H1073.7L1068.46 317.882Z" fill="#363636"/>
<path d="M1078.72 307.62H1070.15L1075.39 302.378H1083.97L1078.72 307.62Z" fill="#363636"/>
<path d="M1088.99 297.357H1080.41L1085.66 292.116H1094.23L1088.99 297.357Z" fill="#363636"/>
<path d="M1037.66 348.677H1029.1L1034.34 343.436H1042.91L1037.66 348.677Z" fill="#363636"/>
<path d="M1047.93 338.414H1039.36L1044.6 333.173H1053.17L1047.93 338.414Z" fill="#363636"/>
<path d="M1058.19 328.151H1049.63L1054.87 322.904H1063.44L1058.19 328.151Z" fill="#363636"/>
<path d="M1068.46 317.882H1059.89L1065.13 312.641H1073.7L1068.46 317.882Z" fill="#363636"/>
<path d="M1078.72 307.62H1070.15L1075.39 302.378H1083.97L1078.72 307.62Z" fill="#363636"/>
<path d="M1088.99 297.357H1080.41L1085.66 292.116H1094.23L1088.99 297.357Z" fill="#363636"/>
<path d="M1049.71 610.562H1041.14L1046.38 605.321H1054.95L1049.71 610.562Z" fill="#363636"/>
<path d="M1059.97 600.299H1051.4L1056.64 595.058H1065.21L1059.97 600.299Z" fill="#363636"/>
<path d="M1070.23 590.036H1061.66L1066.9 584.789H1075.47L1070.23 590.036Z" fill="#363636"/>
<path d="M1080.49 579.767H1071.92L1077.17 574.526H1085.74L1080.49 579.767Z" fill="#363636"/>
<path d="M1090.76 569.504H1082.19L1087.43 564.263H1096L1090.76 569.504Z" fill="#363636"/>
<path d="M1101.02 559.242H1092.46L1097.7 554H1106.26L1101.02 559.242Z" fill="#363636"/>
<path d="M1304.37 273.078H1298.15L1301.96 269.275H1308.18L1304.37 273.078Z" fill="#363636"/>
<path d="M1311.82 265.63H1305.6L1309.4 261.821H1315.63L1311.82 265.63Z" fill="#363636"/>
<path d="M1319.27 258.176H1313.05L1316.86 254.374H1323.08L1319.27 258.176Z" fill="#363636"/>
<path d="M1326.72 250.729H1320.5L1324.31 246.92H1330.53L1326.72 250.729Z" fill="#363636"/>
<path d="M1334.17 243.276H1327.95L1331.76 239.473H1337.98L1334.17 243.276Z" fill="#363636"/>
<path d="M1341.62 235.829H1335.4L1339.21 232.02H1345.43L1341.62 235.829Z" fill="#363636"/>
<path d="M1304.37 273.078H1298.15L1301.96 269.275H1308.18L1304.37 273.078Z" fill="#363636"/>
<path d="M1311.82 265.63H1305.6L1309.4 261.821H1315.63L1311.82 265.63Z" fill="#363636"/>
<path d="M1319.27 258.176H1313.05L1316.86 254.374H1323.08L1319.27 258.176Z" fill="#363636"/>
<path d="M1326.72 250.729H1320.5L1324.31 246.92H1330.53L1326.72 250.729Z" fill="#363636"/>
<path d="M1334.17 243.276H1327.95L1331.76 239.473H1337.98L1334.17 243.276Z" fill="#363636"/>
<path d="M1341.62 235.829H1335.4L1339.21 232.02H1345.43L1341.62 235.829Z" fill="#363636"/>
<path d="M685.196 717.401L749.86 652.735H810.282L844.665 618.344V546.748L902.546 488.865H932.889L1020.53 401.216H1067.7L1195.47 273.437H1267.17L1318.97 221.629H1441.68V117.904H1356.29L1220.29 253.898H1145.91L1034.42 365.394H1018.18L951.128 432.443H864.123L798.442 498.128L798.466 566.671L770.677 594.455H751.536L683.282 662.711H633.232L569.409 726.543V738.561L533.381 774.59V791.526H585.168V777.509L635.145 727.524H652.69L659.912 720.308H677.341L680.199 717.45L685.196 717.401Z" fill="#232323"/>
<path d="M572.492 791.527V776.053L624.932 723.612V714.519L641.355 698.095H680.454L763.261 615.291H777.618L823.494 569.413V522.17L882.661 463H909.487L928.403 444.09H965.01L1019.85 389.247H1034.42L1161.14 262.516H1235.38L1343.52 154.378H1395.32H1433.98" stroke="#363636" stroke-width="3" stroke-miterlimit="10"/>
<path d="M913.747 550.216H885.197L1002.39 433.016H1030.95L913.747 550.216Z" fill="#303030"/>
<path d="M1291.43 495.726H1232.24L1475.17 252.783H1534.37L1291.43 495.726Z" fill="#363636"/>
<path d="M758.385 797.651V780.886L814.384 724.885H841.673L948.934 617.619V559.193L1042.16 465.962H1061.51L1114.6 412.875H1147.05L1258.48 301.44H1341.38L1367.65 275.167H1437.73" stroke="#303030" stroke-width="3" stroke-miterlimit="10"/>
<path d="M679.413 650.87H670.844L676.091 645.623H684.66L679.413 650.87Z" fill="#363636"/>
<path d="M689.681 640.601H681.113L686.354 635.36H694.922L689.681 640.601Z" fill="#363636"/>
<path d="M699.943 630.338H691.375L696.616 625.097H705.184L699.943 630.338Z" fill="#363636"/>
<path d="M710.206 620.075H701.638L706.879 614.828H715.453L710.206 620.075Z" fill="#363636"/>
<path d="M720.474 609.812H711.9L717.147 604.565H725.715L720.474 609.812Z" fill="#363636"/>
<path d="M730.737 599.543H722.169L727.409 594.302H735.978L730.737 599.543Z" fill="#363636"/>
<path d="M679.413 650.87H670.844L676.091 645.623H684.66L679.413 650.87Z" fill="#363636"/>
<path d="M689.681 640.601H681.113L686.354 635.36H694.922L689.681 640.601Z" fill="#363636"/>
<path d="M699.943 630.338H691.375L696.616 625.097H705.184L699.943 630.338Z" fill="#363636"/>
<path d="M710.206 620.075H701.638L706.879 614.828H715.453L710.206 620.075Z" fill="#363636"/>
<path d="M720.474 609.812H711.9L717.147 604.565H725.715L720.474 609.812Z" fill="#363636"/>
<path d="M730.737 599.543H722.169L727.409 594.302H735.978L730.737 599.543Z" fill="#363636"/>
<path d="M1006.93 791.246L1075.81 722.362H1097.16L1172.06 647.463H1189.49L1203.53 633.422V585.514L1285.77 503.265H1305.37L1354.41 454.218H1433.98V572.74H1353.38L1311.82 614.298V647.213L1293.87 665.155H1228.11L1176.51 716.761H1159.62L1069.86 806.518H1006.93V791.246Z" fill="#232323"/>
<path d="M1063.46 791.246L1165.22 689.471H1183.51L1235.91 637.072H1257.05L1339.17 554.939H1441.68" stroke="#363636" stroke-width="3" stroke-miterlimit="10"/>
<path d="M1238.68 588.062H1222.54L1288.78 521.817H1304.92L1238.68 588.062Z" fill="#303030"/>
<path d="M1284.27 625.962H1278.05L1281.85 622.153H1288.07L1284.27 625.962Z" fill="#363636"/>
<path d="M1291.72 618.508H1285.5L1289.31 614.706H1295.52L1291.72 618.508Z" fill="#363636"/>
<path d="M1299.17 611.061H1292.95L1296.75 607.252H1302.97L1299.17 611.061Z" fill="#363636"/>
<path d="M1306.62 603.608H1300.4L1304.21 599.805H1310.42L1306.62 603.608Z" fill="#363636"/>
<path d="M1314.07 596.155H1307.85L1311.65 592.352H1317.87L1314.07 596.155Z" fill="#363636"/>
<path d="M1321.52 588.708H1315.3L1319.11 584.905H1325.32L1321.52 588.708Z" fill="#363636"/>
</g>
<path d="M1273.17 780.902V805.441M1286.24 793.166H1260.1M1308.38 747.838V772.388M1321.46 760.113H1295.31M1343.59 714.785V739.324M1356.67 727.06H1330.53" stroke="#393939" stroke-width="5" stroke-miterlimit="10"/>
<path d="M483.132 736.177V760.727M496.207 748.452H470.056" stroke="#393939" stroke-width="5" stroke-miterlimit="10"/>
<path d="M13.0752 104.204V128.754M26.1505 116.479H0" stroke="#393939" stroke-width="5" stroke-miterlimit="10"/>
<path d="M1199.73 66.1168V90.6556M1212.79 78.3809H1186.66M1234.94 33.0531V57.6025M1248.01 45.3278H1221.86M1270.15 0V24.5388M1283.22 12.2747H1257.08" stroke="#393939" stroke-width="5" stroke-miterlimit="10"/>
<defs>
<clipPath id="clip0_862_5304">
<rect width="924.029" height="826.861" fill="white" transform="translate(487.419 105.857)"/>
</clipPath>
</defs>
</svg>
