<svg width="28" height="25" viewBox="0 0 28 25" fill="none" xmlns="http://www.w3.org/2000/svg">
<path d="M3.53736 22.9428C2.82088 22.2263 2.82088 21.0646 3.53736 20.3482L22.3481 1.53736C23.0645 0.820881 24.2262 0.82088 24.9426 1.53736C25.6591 2.25384 25.6591 3.41547 24.9426 4.13195L6.13194 22.9428C5.41546 23.6592 4.25383 23.6592 3.53736 22.9428Z" fill="white"/>
<path d="M24.9428 22.9428C25.6592 22.2263 25.6592 21.0646 24.9428 20.3482L6.13207 1.53736C5.4156 0.820881 4.25396 0.82088 3.53749 1.53736C2.82102 2.25384 2.82102 3.41547 3.53749 4.13195L22.3482 22.9428C23.0647 23.6592 24.2263 23.6592 24.9428 22.9428Z" fill="white"/>
</svg>
