<svg width="34" height="34" viewBox="0 0 34 34" fill="none" xmlns="http://www.w3.org/2000/svg">
<path fill-rule="evenodd" clip-rule="evenodd" d="M1.4437 1.41421C2.22475 0.633165 3.49108 0.633165 4.27212 1.41421L32.5564 29.6985C33.3374 30.4795 33.3374 31.7459 32.5564 32.5269C31.7753 33.308 30.509 33.308 29.728 32.5269L1.4437 4.24264C0.662648 3.46159 0.662648 2.19526 1.4437 1.41421Z" fill="white"/>
<path fill-rule="evenodd" clip-rule="evenodd" d="M1.44351 32.5564C0.662462 31.7753 0.662462 30.509 1.44351 29.7279L29.7278 1.44367C30.5088 0.662619 31.7752 0.662618 32.5562 1.44367C33.3373 2.22472 33.3373 3.49105 32.5562 4.27209L4.27194 32.5564C3.49089 33.3374 2.22456 33.3374 1.44351 32.5564Z" fill="white"/>
</svg>
