<svg width="235" height="235" viewBox="0 0 235 235" fill="none" xmlns="http://www.w3.org/2000/svg">
<path d="M117.943 198.284C73.5191 198.284 37.6016 162.366 37.6016 117.942C37.6016 73.5174 73.5191 37.5999 117.943 37.5999C162.368 37.5999 198.285 73.5174 198.285 117.942C198.285 162.366 162.368 198.284 117.943 198.284ZM117.943 47.0518C78.7177 47.0518 47.0535 78.716 47.0535 117.942C47.0535 157.167 78.7177 188.832 117.943 188.832C157.169 188.832 188.833 157.167 188.833 117.942C188.833 78.716 157.169 47.0518 117.943 47.0518Z" fill="black"/>
<path d="M94 158.39V76.6099L164.5 117.5L94 158.39ZM103.4 92.5899V141.94L145.7 117.03L103.4 92.5899Z" fill="black"/>
</svg>
