<svg width="235" height="235" viewBox="0 0 235 235" fill="none" xmlns="http://www.w3.org/2000/svg">
<path d="M117.502 197.4C73.3216 197.4 37.6016 161.68 37.6016 117.5C37.6016 73.3199 73.3216 37.5999 117.502 37.5999C161.682 37.5999 197.402 73.3199 197.402 117.5C197.402 161.68 161.682 197.4 117.502 197.4ZM117.502 46.9999C78.4916 46.9999 47.0016 78.4899 47.0016 117.5C47.0016 156.51 78.4916 188 117.502 188C156.512 188 188.002 156.51 188.002 117.5C188.002 78.4899 156.512 46.9999 117.502 46.9999Z" fill="white"/>
<path d="M94 158.39V76.6102L164.5 117.5L94 158.39ZM103.4 92.5902V141.94L145.7 117.03L103.4 92.5902Z" fill="white"/>
</svg>
