<svg width="235" height="236" viewBox="0 0 235 236" fill="none" xmlns="http://www.w3.org/2000/svg">
<path d="M118 198C73.7646 198 38 162.235 38 118C38 73.7647 73.7646 38 118 38C162.235 38 198 73.7647 198 118C198 162.235 162.235 198 118 198ZM118 47.4118C78.9411 47.4118 47.4117 78.9412 47.4117 118C47.4117 157.059 78.9411 188.588 118 188.588C157.059 188.588 188.588 157.059 188.588 118C188.588 78.9412 157.059 47.4118 118 47.4118Z" fill="white"/>
<path d="M94 158.89V77.1104L164.5 118L94 158.89ZM103.4 93.0904V142.44L145.7 117.53L103.4 93.0904Z" fill="white"/>
</svg>
