<svg width="1210" height="506" fill="none" xmlns="http://www.w3.org/2000/svg"><g clip-path="url(#a)"><mask id="b" style="mask-type:luminance" maskUnits="userSpaceOnUse" x="0" y="0" width="1210" height="506"><path d="M0 0h1210v506H0V0Z" fill="#fff"/></mask><g mask="url(#b)"><path d="M946.094 405.564c-1.031 19.753-15.936 36.198-36.639 41.008-10.524 2.447-20.79 1.803-30.111-4.294-2.319-1.503-3.522-1.203-5.584.558-6.829 5.926-14.69 8.631-23.753 5.797-1.976-.644-3.35-.644-4.939 1.03-12.156 12.968-36.382 8.932-46.261.129-2.234-2.018-3.952-3.564-7.431-2.276-3.351 1.203-5.198 0-12.113-4.594-.344 2.834-.602 5.41-.988 7.987-2.921 21.383-16.967 37.829-41.665 39.075-19.415.987-37.198-3.779-54.035-12.968-2.105-1.16-2.835-1.675-3.652 1.331-4.724 16.961-23.71 26.494-40.376 20.31-2.577-.944-3.995-.773-6.271.816-9.793 6.956-20.403 10.134-30.11.301-1.461-1.503-2.749-.945-4.167-.43-23.71 8.159-43.34-.773-55.066-19.494-1.289-2.061-2.363-1.932-4.467-1.589-20.36 3.478-39.561-.386-56.012-12.624-6.744-5.024-11.726-4.938-19.114-3.135-23.668 5.711-47.421 6.484-70.659-2.533-8.59-3.35-16.064-8.459-21.734-15.845-5.283-6.87-7.173-14.728-5.627-23.23.472-2.534.816-3.994-2.749-4.208-15.077-.902-26.116-7.515-30.626-22.672-.515-1.761-1.331-1.933-2.792-2.147-5.756-.816-10.867-3.178-14.733-7.601-1.89-2.147-3.78-1.546-6.013-.901-9.364 2.876-18.771 4.938-28.736 4.637-15.378-.429-27.576-8.76-32.473-23.445-1.117-3.306-2.534-3.135-5.069-2.147-13.917 5.325-28.177 6.87-42.824 3.865-8.462-1.718-16.065-5.454-21.735-11.852-3.221-3.607-5.412-3.435-9.364-1.46-12.585 6.184-25.772 8.245-39.259 3.006-10.395-4.036-19.458-9.661-20.747-22.329-.257-2.49-2.319-2.104-3.908-2.318-7.26-.988-14.648-1.503-21.649-4.079-7.689-2.792-14.132-7.171-17.525-14.815-1.203-2.705-3.093-1.674-4.682-1.717-10.524-.344-20.746-2.061-30.368-6.441C15.72 297.743 4.725 288.039.903 272.022c-2.664-11.164.214-21.212 7.602-29.628 10.825-12.324 24.097-19.581 41.236-17.133 2.19.301 3.822-.301 5.455-1.932 6.142-6.098 13.487-9.791 22.25-10.52 2.104-.172 3.908-.988 5.455-2.577 10.395-10.778 22.636-16.918 38.057-14.943 2.362.301 2.233-.687 2.104-2.619-.902-13.011 7.99-23.359 21.262-25.034.687-.086 1.375-.086 2.062-.129 4.553-.257 6.787-1.674 7.903-7.171 3.007-14.685 12.586-24.346 26.975-28.726 3.522-1.074 5.842-2.705 7.775-5.883 7.774-12.667 21.906-18.765 36.124-15.372 3.694.901 5.713.086 7.817-2.748 3.265-4.423 6.959-8.417 11.727-11.422 11.382-7.128 22.808-7.815 34.276-.516 3.308 2.104 6.014 2.147 9.493.3 17.01-9.016 30.927-5.71 42.438 9.963 1.074 1.46 1.89 1.417 3.308.987 4.81-1.417 9.793-1.889 14.733-1.846 3.694 0 4.467-1.331 4.553-4.766.472-16.145 3.78-31.518 13.015-45.216 18.813-27.867 53.863-34.78 81.654-15.758 3.308 2.275 4.854 2.232 7.775-.687 12.456-12.367 28.392-14.3 43.125-5.325 2.62 1.589 4.038 1.117 6.228-.472 11.899-8.674 25.085-12.54 39.088-6.828 5.842 2.405 8.548 1.59 13.015-2.447C573.258 9.49 591.556.172 613.333 0c25.429-.215 45.875 18.035 49.268 43.369.816 5.968 1.375 11.937.644 17.906-.343 2.962.559 3.864 3.566 3.864 13.143.086 23.753 4.767 29.723 17.22 1.203 2.49 2.835 1.63 4.725 1.373 14.175-2.018 27.705-1.288 39.217 8.76 3.522 3.048 6.4 6.527 8.032 10.821 20.618-12.496 42.438-18.765 66.277-12.71 21.219 5.367 35.265 18.506 39.131 40.706.687 3.951 2.191 3.693 5.026 3.049 10.222-2.276 20.445-2.405 30.454.902 14.26 4.723 23.624 14.728 29.036 28.511 1.246 3.178 1.976 4.681 6.314 4.166 13.574-1.675 26.717-.387 37.671 9.275 4.123 3.649 7.259 8.029 7.302 13.611.043 3.479 1.546 3.479 4.252 3.693 12.843 1.031 23.882 6.141 31.919 16.403 8.33 10.692 7.68 26.537-1.04 38.302-1.03 1.374-2.1 2.663-3.39 4.294 5.76 2.791 11.13 5.754 14.78 10.864 1.59 2.233 3.09.601 4.42-.129 7.78-4.079 15.81-7.385 24.57-8.545 21.22-2.791 40.21 1.632 55.37 17.691 4.55 4.809 7.6 10.52 8.2 17.305.22 2.662 1.33 3.65 4.17 3.907 10.69.988 20.62 3.779 26.84 13.655 1.21 1.932 2.93 1.074 4.6.945 18.08-1.761 35.65-.558 51.42 9.79 6.83 4.466 11.89 10.434 13.7 18.55 2.49 11.207-3.61 21.513-14.74 25.592-5.36 1.975-10.99 2.405-16.66 2.791-1.5.086-2.96-.215-3.65 1.889-4.34 13.398-15.64 16.189-27.58 17.563-5.41.644-10.95.086-16.45 0-1.85 0-3.95-.516-4.98 1.631-4.68 9.877-13.92 11.036-23.15 12.324-10.57 1.417-20.41-.601-29.6-5.926-1.5-.858-2.32-.901-3.09.816-6.96 16.188-30.67 19.752-46.35 9.103-2.53-1.717-3.95-2.619-7.13-.214-5.93 4.508-12.67 1.889-18.426-1.031-4.123-2.061-5.97-1.803-8.977 1.932-8.762 10.993-23.624 12.367-38.272 4.252-1.331-.73-2.577-1.589-4.381-2.749v.043ZM12.5 287.18c3.651 5.153 8.59 8.76 14.046 11.722 11.683 6.355 24.311 8.803 37.541 8.803 1.675 0 4.768-1.031 4.64 1.546-.173 3.821 2.576 4.895 4.51 6.741 7.172 6.828 16.15 9.361 25.728 10.263 5.799.558 12.543-.172 12.586 8.717 0 .3.257.644.429.944 6.186 12.882 22.121 20.74 36.425 18.636 7.989-1.202 15.248-3.779 21.906-8.201 3.608-2.362 6.228-1.976 8.333 2.018 2.749 5.195 7.345 8.588 12.542 11.035 16.323 7.643 32.602 5.797 48.796-.515 7.946-3.092 8.59-2.92 11.296 5.196 3.823 11.422 13.531 18.764 25.601 19.795 11.211.987 21.82-1.117 32.129-5.11 3.737-1.46 6.142-.73 8.29 2.448 2.148 3.22 5.068 5.839 8.891 6.526 5.327.945 11.383.559 10.696 8.717 0 .301.3.601.515.902 5.971 9.876 14.69 15.029 26.288 15.243 7.13.129 7.731.945 6.228 7.772-2.405 11.036.73 20.139 9.407 27.439 12.972 10.907 28.435 14.471 44.8 15.158 16.065.687 31.786-1.074 46.991-6.656 2.492-.902 4.768-.988 7.131 1.073 17.439 15.373 37.842 20.611 60.521 16.446 3.866-.687 5.541.129 7.259 3.392 10.352 19.71 31.485 27.052 51.502 17.82 3.608-1.674 5.884-1.03 7.731 2.147 1.117 1.933 2.749 2.834 4.811 3.521 8.204 2.706 15.206.387 21.305-5.152 2.148-1.933 3.952-2.834 6.787-1.417 11.511 5.582 21.605 2.662 30.625-5.582 4.124-3.779 7.131-8.245 8.462-13.784.258-1.074-.215-4.509 3.265-2.491 18.384 10.392 37.928 16.36 59.319 14.342 7.43-.687 14.303-3.306 20.145-8.158 11.769-9.705 14.561-22.973 14.862-37.272 0-1.975-.817-4.551 1.546-5.539 2.663-1.159 3.393 1.718 4.639 3.135 6.142 6.87 8.848 7.299 16.236 2.018.172 2.361 1.031 4.208 2.792 5.754 9.364 8.244 35.007 11.808 43.212-.73 1.417-2.19 3.522-2.877 6.228-1.46 8.59 4.465 15.936 1.846 22.25-4.552 2.792-2.834 5.154-3.263 8.462-.859 8.29 6.012 17.696 7.601 27.361 4.724 18.899-5.668 33.16-16.274 35.823-37.487.559-4.251 2.019-4.465 5.155-2.404 3.35 2.19 7.173 3.263 10.953 4.337 12.714 3.521 21.863 1.245 27.404-7.644 2.878-4.637 5.541-5.496 9.879-2.447 1.246.859 2.706 1.46 4.121 2.061 8.72 3.865 12.59 2.877 18.6-4.766 1.51 3.435 4.34 5.067 7.43 6.698 6.66 3.564 13.66 4.037 20.96 3.478 8.29-.601 14.14-4.895 18.04-11.851 3.35-5.969 3.14-6.054 8.9-3.049.6.301 1.2.687 1.8.945 13.23 5.883 26.5 7.557 39.86.301 2.36-1.289 4.94-2.877 5.03-5.454.17-5.925 3.78-5.84 8.03-5.754 8.89.215 17.82.773 26.54-1.932 6.15-1.932 12.29-5.024 13.75-11.207 1.37-5.84 4.29-6.613 8.93-6.527 6.15.472 11.99-.902 17.27-3.822 6.53-3.607 10.09-9.017 9.45-16.789-.77-9.318-6.4-15.158-13.92-19.666-14.26-8.545-29.81-9.361-45.7-7.171-4.68.644-8.29.558-10.48-4.509-1.63-3.736-5.15-5.883-8.89-7.385-4.77-1.933-9.75-3.264-14.91-3.135-3.22.086-4.72-.601-5.28-4.38-1.76-11.637-8.07-20.568-18.13-26.665-21.86-13.312-43.85-11.852-65.76-.129-4.16 2.233-8.2 6.183-9.96-2.276-.3-1.374-2.19-2.576-3.57-3.564-2.88-2.147-5.97-4.079-9.533-4.895-4.167-.945-3.737-2.705-1.332-5.196 1.074-1.116 2.145-2.233 3.045-3.478 7.82-10.477 10.4-26.966-.55-38.13-7.607-7.729-17.443-11.379-28.138-12.109-3.737-.258-5.455-1.288-6.1-5.067-1.632-9.747-7.989-15.544-16.923-18.808-8.591-3.134-17.397-3.649-26.202-1.503-4.295 1.074-6.357.387-7.775-4.336-4.51-14.858-14.002-25.378-29.251-29.758-9.793-2.791-19.673-1.674-29.38.859-5.541 1.46-6.572.73-7.259-4.981-.344-2.705-.602-5.453-1.246-8.072-5.154-20.01-24.312-31.647-43.598-33.407-19.629-1.804-37.713 3.048-54.035 14.127-2.835 1.932-4.21 1.503-5.842-1.632-7.517-14.428-22.722-20.74-39.13-17.95-3.179.559-6.486 2.363-9.407 1.848-3.909-.644-3.007-5.711-5.155-8.288a10.177 10.177 0 0 1-.601-.816c-6.228-9.49-15.506-11.507-26.03-10.992-5.627.3-6.83-.988-5.799-6.527 1.203-6.527.816-12.968-.343-19.41-5.112-28.811-29.252-44.57-57.902-38.43C582.751 8.33 568.06 17.262 555.69 30.1c-2.577 2.662-4.553 3.177-7.947 1.503-14.99-7.43-29.509-5.368-41.664 5.968-3.136 2.92-5.241 2.963-8.076 0-2.233-2.362-5.154-3.95-8.376-4.766-12.671-3.307-23.409.172-31.957 9.876-3.436 3.907-6.099 4.25-10.352 1.116-27.49-20.267-63.442-12.238-80.022 17.69-6.701 12.11-9.536 25.12-9.708 38.862-.086 6.741-1.933 8.545-8.547 8.716-2.921.086-5.842-.343-8.72.516-6.185 1.846-10.781.558-15.42-4.681-10.008-11.336-21.09-12.924-33.976-5.54-5.499 3.136-9.923 3.05-15.12-.514-8.505-5.84-17.654-5.582-26.76-1.03-5.67 2.876-9.794 7.385-13.273 12.581-2.706 4.036-5.841 5.41-10.867 3.95-13.616-3.993-26.459 1.675-33.246 14.342-1.933 3.607-4.338 5.539-8.591 6.312-12.8 2.276-24.311 15.63-25.385 28.727-.387 4.594-2.32 7.213-7.431 7.17-15.378-.085-27.834 10.649-22.594 25.464 1.203 3.349-1.159 4.079-4.166 3.349-15.506-3.65-27.834 1.675-37.928 13.354-1.503 1.718-3.222 3.006-5.67 3.092-9.407.257-17.267 3.95-23.367 11.078-1.976 2.319-4.252 2.791-6.872 1.975-1.847-.558-3.651-.73-5.584-.73-15.592-.085-32.688 11.294-38.53 25.635-4.553 11.251-1.76 24.777 6.83 33.064h.129v.001Z" fill="#72B3AA"/><path d="M1178.82 361.035c-4.6-.086-7.56.687-8.94 6.527-1.46 6.226-7.56 9.274-13.74 11.207-8.72 2.705-17.61 2.19-26.55 1.932-4.25-.086-7.86-.172-8.03 5.754-.09 2.576-2.66 4.165-5.03 5.453-13.36 7.257-26.63 5.582-39.86-.3-.64-.258-1.2-.644-1.8-.945-5.76-3.006-5.54-2.877-8.89 3.049-3.91 6.956-9.8 11.25-18.04 11.851-7.31.515-14.31.043-20.97-3.478-3.09-1.632-5.97-3.263-7.43-6.699-6.01 7.644-9.88 8.631-18.59 4.767-1.422-.644-2.883-1.203-4.128-2.061-4.296-3.049-7.002-2.147-9.88 2.447-5.541 8.889-14.69 11.207-27.404 7.643-3.78-1.073-7.603-2.147-10.953-4.337-3.136-2.061-4.596-1.846-5.155 2.405-2.706 21.212-16.923 31.818-35.823 37.486-9.664 2.877-19.071 1.289-27.361-4.723-3.308-2.405-5.627-1.975-8.462.859-6.314 6.398-13.702 9.017-22.25 4.551-2.706-1.417-4.811-.73-6.228 1.46-8.161 12.539-33.848 8.975-43.211.73-1.762-1.546-2.664-3.349-2.792-5.754-7.388 5.282-10.095 4.853-16.237-2.018-1.246-1.374-1.976-4.251-4.639-3.134-2.362 1.03-1.503 3.564-1.546 5.539-.301 14.299-3.093 27.567-14.862 37.271-5.842 4.853-12.714 7.429-20.145 8.159-21.391 2.018-40.935-3.993-59.319-14.342-3.522-1.975-3.007 1.417-3.265 2.491-1.331 5.539-4.338 10.005-8.461 13.783-9.021 8.245-19.115 11.164-30.626 5.582-2.878-1.374-4.639-.515-6.787 1.417-6.099 5.54-13.101 7.858-21.305 5.153-2.062-.687-3.694-1.589-4.811-3.521-1.847-3.135-4.123-3.779-7.731-2.147-20.017 9.189-41.15 1.846-51.501-17.82-1.719-3.263-3.394-4.079-7.26-3.392-22.722 4.165-43.082-1.074-60.521-16.446-2.32-2.061-4.639-1.975-7.13-1.073-15.206 5.582-30.927 7.342-46.991 6.655-16.366-.73-31.829-4.251-44.801-15.157-8.719-7.343-11.855-16.446-9.407-27.439 1.504-6.827.902-7.643-6.228-7.772-11.554-.215-20.317-5.367-26.288-15.243-.171-.301-.515-.602-.515-.902.687-8.159-5.369-7.772-10.695-8.717-3.823-.687-6.744-3.349-8.892-6.527-2.147-3.177-4.553-3.907-8.29-2.447-10.309 3.993-20.961 6.097-32.129 5.11-12.07-1.074-21.82-8.374-25.6-19.796-2.706-8.115-3.308-8.33-11.297-5.195-16.194 6.312-32.473 8.158-48.795.515-5.198-2.405-9.751-5.84-12.543-11.036-2.147-3.993-4.725-4.422-8.333-2.018-6.657 4.38-13.917 6.999-21.906 8.202-14.303 2.147-30.239-5.754-36.425-18.636-.128-.301-.429-.644-.429-.945 0-8.931-6.787-8.158-12.585-8.716-9.579-.945-18.513-3.436-25.73-10.263-1.975-1.846-4.724-2.92-4.51-6.742.13-2.533-3.006-1.545-4.639-1.545-13.23 0-25.815-2.448-37.54-8.803-5.456-2.963-10.396-6.57-14.047-11.722-.945-15.072 3.91-27.611 16.494-36.456 4.296-3.049 8.677-7.386 14.605-5.754 4.681 1.288 8.376.258 11.94-2.491 1.29-.987 2.45-1.803 4.124-1.717 10.395.773 20.145-3.006 30.24-4.38 6.528-.902 11.683-4.294 15.42-10.005 3.823-5.84 14.99-8.845 21.176-6.097 5.97 2.662 10.824.687 12.972-5.582 2.405-7.128 6.314-13.183 11.769-18.422 7.775-7.471 22.379-8.029 30.712-.858 2.405 2.061 4.682 4.122 8.204 2.447 3.565-1.674 4.725-4.594 4.768-8.33.043-3.736-.645-7.514.773-11.207 5.927-15.373 15.119-27.61 32.73-29.672 14.605-1.717 20.06-1.374 27.405 11.294 1.374 2.361 2.792 4.637 5.713 4.465 3.178-.214 5.541-2.361 6.099-5.453.644-3.65 2.234-3.865 5.369-2.834 3.522 1.159 6.615.129 9.149-2.834 3.565-4.208 7.947-7.557 12.586-10.477 5.412-3.435 11.382-4.595 17.696-3.779 4.296.558 4.94 4.766 7.088 7.514 2.921 3.736 7.989 4.08 9.836.172 3.479-7.428 10.18-8.03 16.752-8.717 10.524-1.073 18.47 3.951 24.913 11.723 2.32 2.791 5.326 3.349 8.333 2.276 3.307-1.203 4.295-4.337 3.995-7.601-.387-3.735-1.246-7.385-1.633-11.121-1.159-11.121-1.675-22.071 8.935-29.714 5.498-3.95 11.726-6.27 18.169-8.202 16.795-5.023 37.842.644 43.125 19.71.86 3.134 3.179 4.551 6.658 4.465 3.694-.128 5.584-2.361 5.971-5.281.816-6.355 4.639-10.52 9.063-14.385 5.154-4.466 13.358-6.27 17.353 1.589 1.203 2.404 3.393 4.766 6.486 4.079 2.964-.644 4.768-2.877 5.756-5.968 4.038-12.754 13.616-20.182 25.214-25.378 12.284-5.496 25.299-6.698 38.658-6.269 15.42.472 22.207 8.201 19.672 23.23-.644 3.736 1.847 6.828 5.713 6.656 2.019-.086 3.952-.902 5.971-1.331 11.425-2.448 22.765-4.68 31.571 6.269 2.018 2.533 4.896 2.276 7.473.902 3.222-1.718 6.615-2.662 10.18-3.392 13.96-2.877 25.815 3.349 30.626 16.188 2.019 5.367 5.713 6.956 10.481 3.736 7.173-4.81 14.948-6.27 23.41-5.969 11.425.429 19.458 5.453 23.925 16.059 2.147 5.067 5.97 6.227 10.781 3.35 1.031-.602 2.019-1.332 3.007-1.976 11.941-7.6 37.885-5.539 40.505 14.9.73 5.626 6.357 7.472 10.824 3.564 6.4-5.582 13.788-6.612 21.606-5.839 6.013.601 11.726 2.576 16.623 6.269 4.553 3.435 7.13 7.858 7.86 13.74.43 3.607 3.522 5.196 7.431 4.294 8.462-1.975 16.58-.214 24.742 2.062 5.326 1.502 7.387 4.422 6.872 10.09-.558 5.754 1.632 7.085 7.517 5.711 7.259-1.631 14.604-1.803 21.863-.3 13.96 2.92 25.3 10.477 34.148 21.384 4.51 5.539 8.033 11.851 8.505 19.451.387 6.441 4.167 8.073 9.751 4.681 3.565-2.147 7.001-3.478 11.597-2.405 10.609 2.491 15.034 15.716 10.738 23.789-2.104 3.95-4.553 7.643-7.431 11.035-3.908 4.638-2.663 8.674 3.136 10.348 3.221.902 6.486.215 9.707.516 6.188.558 11.038 2.748 13.488 9.189 2.83 7.471 6.31 8.76 13.57 5.238 6.7-3.22 13.53-5.496 20.96-6.526 7.26-.988 9.71.3 11.22 7.342.9 4.208 3.65 5.926 7.9 4.938 2.83-.644 5.63-1.545 8.46-2.104 9.28-1.889 17.65.601 25.34 5.668 7.22 4.724 8.38 11.723 7.86 19.753-.51 7.729 4.17 11.207 11.86 9.618 6.01-1.245 11.85-.687 17.7 1.202 3.26 1.074 4.76 2.663 3.9 6.441-1.11 4.852 3.05 8.717 7.82 7.601 2.15-.516 4.25-1.289 6.27-2.147 7.69-3.178 15.42-5.368 23.89-3.35 4.85 1.16 9.06 4.123 9.06 10.521 0 5.796-3.65 8.888-6.32 12.924l-.12-.257Zm-761.054-67.501c17.353 11.293 69.928.343 77.831-16.36-24.741 13.654-50.427 18.936-77.831 16.36Zm18.727 23.702c-19.758 4.037-39.045-.386-58.417-3.263 16.28 8.974 45.66 12.366 58.417 3.263Zm201.495 74.415c0 .644-.086 1.374.129 1.932 5.584 14.084 19.673 23.831 34.62 24.089 1.074 0 2.32-.086 2.578-1.159.257-1.246-.988-1.503-1.976-1.804-7.216-2.233-14.003-5.238-20.317-9.532-5.584-3.779-9.794-8.846-14.991-13.526h-.043Zm215.841-123.065c-11.253-4.466-21.004-11.336-30.626-18.421 4.682 11.207 19.244 20.01 30.626 18.421ZM665.994 422.438c6.958 10.263 28.95 12.152 39.775 6.785-13.574-.215-26.331-1.374-39.775-6.785ZM791.89 238.399c8.29 9.232 15.421 20.182 29.595 21.427-10.48-6.312-18.942-15.286-29.595-21.427Z" fill="#C9F5EE"/><path d="M1178.82 361.035c2.66-3.993 6.31-7.128 6.31-12.924 0-6.398-4.17-9.361-9.06-10.521-8.42-2.018-16.2.172-23.89 3.35-2.01.858-4.12 1.631-6.27 2.147-4.76 1.116-8.93-2.749-7.81-7.601.85-3.778-.65-5.367-3.91-6.441-5.8-1.889-11.64-2.447-17.7-1.202-7.69 1.632-12.37-1.889-11.85-9.618.55-8.03-.65-15.072-7.87-19.753-7.68-5.024-16.06-7.557-25.34-5.668-2.83.559-5.62 1.46-8.46 2.104-4.25.988-7-.73-7.9-4.938-1.51-6.999-4-8.33-11.21-7.342-7.39.987-14.26 3.263-20.97 6.526-7.25 3.522-10.78 2.233-13.57-5.238-2.4-6.441-7.3-8.631-13.486-9.189-3.222-.301-6.529.429-9.708-.515-5.798-1.675-7.044-5.711-3.135-10.349 2.878-3.392 5.283-7.085 7.431-11.035 4.338-8.073-.086-21.298-10.739-23.789-4.596-1.073-8.032.258-11.597 2.405-5.584 3.392-9.364 1.76-9.751-4.681-.472-7.6-3.994-13.869-8.504-19.451-8.892-10.95-20.189-18.464-34.148-21.384-7.26-1.546-14.605-1.374-21.864.3-5.927 1.331-8.075 0-7.517-5.711.559-5.668-1.546-8.588-6.872-10.09-8.118-2.276-16.28-4.037-24.741-2.062-3.909.902-7.002-.73-7.431-4.294-.73-5.882-3.308-10.348-7.861-13.74-4.896-3.693-10.609-5.668-16.623-6.269-7.817-.773-15.205.257-21.605 5.839-4.468 3.908-10.094 2.062-10.825-3.564-2.577-20.396-28.564-22.457-40.505-14.9-1.031.645-1.976 1.374-3.007 1.976-4.853 2.877-8.676 1.674-10.781-3.35-4.467-10.606-12.499-15.63-23.925-16.059-8.462-.301-16.236 1.116-23.41 5.969-4.767 3.22-8.504 1.631-10.48-3.736-4.811-12.839-16.666-19.065-30.626-16.188-3.522.73-6.959 1.631-10.18 3.392-2.577 1.374-5.412 1.632-7.474-.902-8.805-10.95-20.145-8.76-31.571-6.27-1.976.43-3.952 1.246-5.97 1.332-3.909.13-6.358-2.92-5.713-6.656 2.577-15.028-4.21-22.758-19.673-23.23-13.358-.43-26.373.773-38.658 6.27-11.597 5.195-21.176 12.623-25.214 25.376-.988 3.092-2.792 5.325-5.755 5.969-3.093.687-5.284-1.717-6.486-4.079-3.995-7.858-12.199-6.055-17.354-1.589-4.424 3.865-8.247 8.073-9.063 14.385-.386 2.963-2.276 5.153-5.97 5.281-3.48.129-5.756-1.331-6.658-4.465-5.284-19.023-26.288-24.734-43.126-19.71-6.443 1.933-12.671 4.252-18.169 8.202-10.609 7.643-10.094 18.593-8.934 29.714.386 3.736 1.245 7.386 1.632 11.121.344 3.307-.687 6.441-3.995 7.601-3.006 1.073-6.013.515-8.333-2.276-6.443-7.772-14.389-12.796-24.913-11.723-6.572.687-13.272 1.289-16.751 8.717-1.847 3.951-6.916 3.607-9.837-.172-2.147-2.748-2.792-6.956-7.087-7.514-6.314-.816-12.285.344-17.697 3.779-4.639 2.963-9.02 6.269-12.585 10.477-2.535 3.006-5.627 4.036-9.149 2.834-3.136-1.031-4.682-.816-5.37 2.834-.558 3.092-2.921 5.239-6.099 5.453-2.878.215-4.338-2.104-5.713-4.465-7.388-12.668-12.843-13.011-27.404-11.294-17.611 2.062-26.803 14.299-32.731 29.672-1.417 3.693-.73 7.471-.773 11.207-.043 3.779-1.203 6.656-4.768 8.33-3.522 1.675-5.799-.386-8.204-2.447-8.333-7.171-22.937-6.613-30.712.858-5.455 5.239-9.363 11.251-11.769 18.422-2.148 6.269-7.001 8.244-12.972 5.582-6.185-2.748-17.353.257-21.176 6.097-3.737 5.711-8.848 9.103-15.42 10.005-10.094 1.374-19.845 5.196-30.24 4.38-1.675-.129-2.877.73-4.123 1.717-3.522 2.749-7.216 3.779-11.941 2.491-5.928-1.632-10.266 2.705-14.604 5.754-12.586 8.845-17.44 21.384-16.494 36.456-8.634-8.331-11.426-21.814-6.83-33.064 5.842-14.342 22.937-25.721 38.53-25.635 1.89 0 3.736.172 5.583.73 2.62.816 4.94.301 6.873-1.975 6.1-7.171 13.917-10.864 23.366-11.078 2.449-.043 4.21-1.375 5.67-3.092 10.094-11.68 22.465-17.004 37.928-13.354 3.007.687 5.369 0 4.167-3.35-5.284-14.814 7.216-25.549 22.593-25.463 5.112 0 7.045-2.576 7.431-7.171 1.074-13.139 12.586-26.451 25.386-28.726 4.252-.73 6.658-2.706 8.59-6.312 6.744-12.668 19.587-18.336 33.246-14.342 5.026 1.46 8.162.086 10.868-3.951 3.479-5.152 7.602-9.704 13.272-12.58 9.106-4.553 18.213-4.81 26.76 1.03 5.198 3.564 9.622 3.692 15.12.515 12.886-7.386 23.968-5.797 33.976 5.539 4.639 5.282 9.235 6.527 15.421 4.68 2.877-.858 5.798-.429 8.719-.515 6.615-.172 8.462-1.975 8.548-8.717.172-13.74 3.007-26.75 9.707-38.86 16.58-29.929 52.532-37.958 80.023-17.69 4.252 3.134 6.915 2.79 10.351-1.117 8.548-9.705 19.244-13.183 31.958-9.877 3.221.816 6.142 2.405 8.376 4.767 2.878 3.006 4.939 2.963 8.075 0 12.113-11.336 26.674-13.397 41.665-5.969 3.393 1.675 5.369 1.16 7.946-1.503 12.371-12.839 27.061-21.77 44.715-25.549 28.607-6.14 52.747 9.62 57.901 38.431 1.16 6.441 1.547 12.84.344 19.41-1.031 5.54.215 6.826 5.799 6.526 10.48-.558 19.801 1.503 26.029 10.992.172.3.387.558.602.816 2.147 2.576 1.245 7.643 5.154 8.287 2.964.516 6.228-1.33 9.407-1.846 16.408-2.79 31.571 3.521 39.131 17.949 1.632 3.134 3.049 3.564 5.841 1.631 16.323-11.078 34.363-15.93 54.036-14.127 19.286 1.76 38.4 13.44 43.598 33.407.687 2.62.902 5.368 1.245 8.073.73 5.711 1.718 6.441 7.259 4.981 9.751-2.576 19.587-3.693 29.381-.859 15.248 4.38 24.741 14.857 29.251 29.757 1.417 4.724 3.479 5.368 7.774 4.337 8.806-2.147 17.611-1.632 26.202 1.503 8.977 3.263 15.292 9.06 16.924 18.808.644 3.778 2.362 4.809 6.099 5.066 10.696.73 20.489 4.38 28.136 12.109 10.95 11.122 8.37 27.654.56 38.131-.9 1.245-1.979 2.361-3.053 3.478-2.405 2.49-2.834 4.251 1.332 5.196 3.561.815 6.611 2.748 9.531 4.895 1.38.987 3.27 2.19 3.57 3.564 1.72 8.459 5.8 4.508 9.97 2.275 21.9-11.722 43.89-13.182 65.76.129 10.05 6.141 16.36 15.029 18.12 26.666.56 3.736 2.06 4.465 5.29 4.38 5.19-.129 10.13 1.202 14.9 3.134 3.74 1.503 7.26 3.65 8.89 7.386 2.19 5.067 5.8 5.153 10.48 4.508 15.9-2.189 31.45-1.374 45.71 7.171 7.51 4.509 13.1 10.349 13.91 19.667.65 7.772-2.92 13.225-9.45 16.789-5.32 2.92-11.12 4.294-17.26 3.822v.257Z" fill="#FEFEFE"/><path d="M417.766 293.535c27.404 2.576 53.09-2.705 77.831-16.36-7.903 16.703-60.478 27.653-77.831 16.36Zm18.727 23.703c-12.714 9.146-42.094 5.754-58.417-3.263 19.372 2.877 38.615 7.299 58.417 3.263Zm201.495 74.457c5.198 4.681 9.407 9.748 14.991 13.526 6.314 4.251 13.101 7.3 20.317 9.533.988.3 2.234.558 1.976 1.803-.258 1.117-1.461 1.203-2.577 1.16-14.948-.215-28.994-10.005-34.621-24.089-.215-.559-.086-1.289-.129-1.933h.043ZM853.83 268.587c-11.383 1.589-25.987-7.214-30.626-18.421 9.622 7.085 19.372 13.955 30.626 18.421ZM665.994 422.439c13.445 5.411 26.202 6.57 39.775 6.785-10.824 5.367-32.816 3.478-39.775-6.785Zm125.897-183.996c10.652 6.141 19.114 15.115 29.595 21.427-14.175-1.202-21.305-12.152-29.595-21.427Z" fill="#72B3AA"/></g></g><defs><clipPath id="a"><path fill="#fff" d="M0 0h1210v506H0z"/></clipPath></defs></svg>