<svg width="422" height="139" fill="none" xmlns="http://www.w3.org/2000/svg"><g clip-path="url(#a)"><mask id="b" style="mask-type:luminance" maskUnits="userSpaceOnUse" x="0" y="0" width="422" height="139"><path d="M0 0h422v139H0V0Z" fill="#fff"/></mask><g mask="url(#b)"><path d="M129.11 51.337c-7.552-14.234-.858-24.562 8.667-32.894 16.992-14.755 36.815-21.786 59.428-16.925 10.856 2.343 19.394 8.592 24.071 19.181 1.159 2.604 2.146 2.648 4.506 1.476 11.07-5.512 22.569-8.81 35.098-6.38 6.994 1.346 12.787 4.08 14.718 11.718.643 2.517 1.802 1.171 2.917.867 23.342-6.292 46.641-5.77 69.769 1.042 5.149 1.52 9.783 4.21 13.773 7.811 7.123 6.423 8.453 12.412 4.763 21.438 7.724 1.476 15.49 2.735 22.913 5.208 9.697 3.298 19.566 6.38 27.075 14.017 7.466 7.595 6.736 16.665-1.888 23.001-8.024 5.945-17.421 7.811-27.032 8.679-6.136.521-12.315.608-18.451-.087-1.716-.217-2.746-.217-3.132 2.04-1.673 9.374-7.509 14.625-17.463 15.666-5.45.564-10.899-1.606-16.048-1.779-4.548-.174-8.753 5.728-14.589 5.858-8.624.217-16.734-.911-23.256-7.811-3.046 3.211-5.621 6.857-9.225 9.417-11.456 8.159-21.711 8.245-32.825-.26-2.059-1.563-3.003-.347-4.419.39-14.589 7.942-29.22 6.987-43.766.087-4.72-2.257-8.625-5.685-10.47-10.893-.901-2.473-2.016-2.864-4.548-1.518-10.169 5.511-20.51 7.42-30.894.347-1.459-.998-2.96-.564-4.419 0-9.354 3.471-18.837 2.43-28.32.737-2.488-.433-5.535-.998-6.908-3.037-3.261-4.948-6.908-3.646-11.413-2.3-9.31 2.777-18.665 1.649-27.59-1.997-5.578-2.256-10.255-5.771-11.2-12.411-.47-3.428-2.745-2.734-4.976-2.604-15.49.911-30.723-.477-45.483-5.468-3.046-1.04-6.007-2.56-8.71-4.34-11.028-7.247-12.7-17.706-4.634-28.338 7.294-9.59 17.806-13.106 28.877-15.058 18.88-3.342 37.802-2.344 56.767-.39 12.658 1.301 25.316 2.69 38.403 5.51h-.086Zm258.778 54.16c9.568-.521 18.708-2.387 26.088-9.027 5.449-4.904 5.449-10.502.429-15.84-6.265-6.596-14.46-9.634-22.698-12.585-9.869-3.558-20.296-5.034-31.194-8.028 5.535-5.555 6.35-11.197 1.845-17.055-4.034-5.25-9.526-8.289-15.662-10.329-17.935-5.858-36.257-6.422-54.707-3.819-6.651.955-13.774 1.216-18.837 6.336-1.33-.78-1.073-1.692-1.116-2.56-.472-8.072-2.402-10.545-10.083-12.802-4.892-1.432-9.912-1.085-14.76-.564-8.196.868-16.22 3.124-22.913 8.115-2.661 1.996-2.918 2.257-4.205-.868-6.308-15.232-18.236-22.48-34.112-22.87-16.863-.39-32.009 5.468-44.839 16.274-10.555 8.853-16.863 21.22-5.792 33.502.128.13-.086.608-.215 1.128-14.632-2.083-29.263-4.252-44.024-5.51-18.45-1.607-36.858-2.648-55.222.39-8.625 1.432-17.12 3.645-23.986 9.547-9.954 8.55-12.443 21.525 2.618 29.032 8.367 4.166 17.377 5.946 26.56 6.9 9.182.738 18.407 1.52 27.59 2.257 1.458.13 3.218-.434 3.26 2.083.172 7.334 5.107 10.459 11.07 12.585 10.6 3.819 21.069 3.863 31.324-1.128 2.488-1.215 4.033-1.606 4.333 2.083.172 2.083 1.974 3.906 3.948 4.513 10.598 3.429 21.368 5.034 31.838-.173 2.874-1.432 4.419-1.606 6.35 1.215 1.716 2.517 4.548 3.471 7.595 3.732 8.238.694 16.047-.564 22.87-5.685 2.574-1.953 4.076-2.17 4.805 1.606.687 3.688 3.047 6.466 5.75 8.983 9.955 9.2 33.511 10.589 45.997 2.56 2.103-1.345 3.905-2.907 6.093-.087 5.836 7.508 19.223 8.202 27.805 2.604 3.947-2.56 7.165-5.815 9.911-9.677 1.116-1.563 2.618-3.906 4.892-1.389 4.248 4.687 9.869 5.902 15.661 6.987 7.38 1.345 14.074-1.519 17.163-7.595 1.159-2.3 2.232-.824 3.133-.173 5.878 4.079 12.443 3.645 18.879 2.604 7.638-1.259 13.259-7.595 11.671-13.28-1.502-5.338 1.202-3.906 4.077-3.645 6.951.607 13.945 1.432 20.853-.434l-.043.087Z" fill="#72B3AA"/><path d="M387.888 105.498c-6.908 1.866-13.902 1.041-20.853.434-2.875-.261-5.578-1.693-4.077 3.645 1.588 5.642-4.033 12.021-11.671 13.279-6.393 1.042-13.001 1.519-18.879-2.603-.901-.651-1.974-2.127-3.132.173-3.09 6.076-9.783 8.94-17.164 7.595-5.749-1.042-11.413-2.3-15.661-6.987-2.274-2.474-3.776-.174-4.892 1.389-2.746 3.862-5.964 7.117-9.911 9.677-8.582 5.555-22.012 4.86-27.805-2.604-2.188-2.821-3.947-1.258-6.093.087-12.486 7.985-36.042 6.596-45.997-2.56-2.703-2.517-5.063-5.295-5.75-8.984-.729-3.775-2.231-3.558-4.805-1.605-6.78 5.164-14.589 6.379-22.87 5.685-3.047-.261-5.879-1.215-7.595-3.732-1.931-2.821-3.433-2.648-6.35-1.215-10.47 5.207-21.24 3.601-31.838.173-1.931-.607-3.733-2.43-3.948-4.513-.343-3.689-1.845-3.298-4.333-2.083-10.255 4.99-20.725 4.947-31.323 1.128-5.964-2.17-10.899-5.294-11.07-12.585-.043-2.517-1.845-1.996-3.26-2.083-9.184-.781-18.409-1.52-27.59-2.257-.516-3.385-2.66-5.424-5.32-7.247-4.85-3.341-10.214-5.641-15.449-8.202-3.56-1.736-2.789-3.211-.128-4.947 3.132-2.04 6.693-.825 10.04-1.26 7.51-.997 15.147-1.91 18.622-10.327.815-1.996 2.403-2.908 4.377-3.081 4.934-.434 9.87-.868 14.803-1.085 15.533-.651 30.207 4.6 45.268 7.204 5.106.868 9.783 1.128 14.417-1.13 1.716-.867 3.132-.867 4.849 0 3.432 1.824 7.208 2.128 10.126-.52 2.875-2.603 4.205-6.075 2.789-10.328-.901-2.734-1.116-5.034 3.518-3.95 8.282 1.91 14.546-4.512 13.087-12.888-.558-3.255.258-6.25 1.76-8.896 8.109-14.321 30.507-21.438 42.049-5.338 1.588 2.213 3.347 4.34 4.935 6.596 2.188 3.082 4.848 5.208 8.839 5.382 3.218.13 5.792 1.866 8.109 4.035 7.724 7.204 14.031 5.772 17.936-4.21 1.502-3.861 4.076-5.467 8.195-5.554-.214.912-.257 1.389-.472 1.866-1.759 4.166-2.617 8.115.944 11.978 3.733 3.992 7.724 3.602 12.143 1.649 11.8-5.208 24.115-7.247 36.987-6.77 7.251.26 12.529 2.777 14.846 10.155 1.202 3.819 3.69 6.38 7.466 8.028 5.964 2.69 12.014 1.78 18.107 1.042 1.931-.26 3.733-1.302 4.978 1.692 3.432 8.246 7.723 10.372 16.648 8.68 2.145-.391 3.604-.565 3.905 2.343.557 5.425 3.861 7.725 9.139 7.725 3.175 0 5.921 1.128 8.281 3.47 2.746 2.649 6.05 5.252 9.912 4.515 3.776-.695 3.604 1.04 3.518 3.515-.128 2.473-1.029 4.643-2.145 6.813-2.274 4.6-6.737 6.727-10.341 9.808l.129-.217Zm-88.09-35.37c-10.212 5.513-19.738 6.12-28.362-3.297 5.578 14.625 22.913 11.978 28.362 3.298ZM142.669 81.587c-8.625 3.559-17.292 2.257-27.161-.434 7.809 7.378 21.197 7.29 27.161.434ZM300.012 80.5c7.338 7.508 20.167 5.989 22.656-2.213-6.908 5.077-14.289 4.426-22.656 2.213Zm-138.035 3.255c-5.492 4.253-12.1 5.468-19.823 7.03 9.912 2.734 17.034.044 19.823-7.03Z" fill="#C9F5EE"/><path d="M387.888 105.496c3.604-3.081 8.067-5.251 10.341-9.807 1.072-2.213 2.016-4.34 2.145-6.814.129-2.473.258-4.21-3.518-3.515-3.862.738-7.209-1.866-9.912-4.513-2.36-2.3-5.106-3.472-8.281-3.472-5.235 0-8.539-2.3-9.14-7.724-.3-2.865-1.759-2.734-3.904-2.344-8.925 1.693-13.216-.434-16.649-8.68-1.244-3.037-3.046-1.952-4.977-1.692-6.093.782-12.143 1.65-18.107-1.04-3.733-1.65-6.265-4.21-7.466-8.03-2.317-7.42-7.595-9.894-14.846-10.154-12.873-.478-25.187 1.562-36.987 6.77-4.42 1.952-8.453 2.343-12.143-1.65-3.561-3.862-2.703-7.81-.944-11.977.215-.477.258-.955.472-1.866-4.119.087-6.694 1.692-8.195 5.555-3.948 10.024-10.212 11.413-17.936 4.21-2.317-2.17-4.891-3.863-8.11-4.037-3.99-.173-6.607-2.3-8.839-5.38-1.587-2.214-3.346-4.34-4.934-6.597-11.585-16.1-33.983-8.94-42.05 5.338-1.502 2.647-2.317 5.598-1.759 8.896 1.459 8.375-4.806 14.798-13.087 12.89-4.634-1.086-4.419 1.214-3.518 3.948 1.416 4.253.043 7.768-2.789 10.328-2.918 2.647-6.694 2.3-10.127.521-1.673-.868-3.132-.868-4.848 0-4.634 2.3-9.311 2.04-14.417 1.128-15.06-2.604-29.736-7.898-45.268-7.204-4.935.217-9.87.651-14.804 1.085-2.016.174-3.56 1.13-4.376 3.081-3.476 8.42-11.113 9.374-18.622 10.33-3.347.433-6.866-.782-10.04 1.257-2.66 1.736-3.433 3.212.128 4.948 5.235 2.603 10.598 4.86 15.447 8.202 2.66 1.822 4.806 3.862 5.32 7.247-9.182-.955-18.193-2.734-26.56-6.9-15.103-7.42-12.615-20.353-2.66-28.946 6.865-5.902 15.361-8.115 23.986-9.547 18.364-3.038 36.73-1.996 55.222-.39 14.761 1.301 29.392 3.471 44.024 5.51.129-.52.343-.997.214-1.128-11.07-12.238-4.805-24.606 5.793-33.502C154.039 9.07 169.143 3.167 186.006 3.557c15.876.39 27.804 7.638 34.112 22.87 1.287 3.125 1.544 2.865 4.205.868 6.65-4.99 14.717-7.247 22.913-8.115 4.891-.52 9.911-.868 14.76.564 7.68 2.3 9.654 4.73 10.083 12.802.043.868-.214 1.736 1.116 2.56 5.106-5.12 12.229-5.424 18.836-6.335 18.451-2.604 36.815-2.04 54.708 3.82 6.136 1.995 11.628 5.033 15.662 10.327 4.505 5.86 3.69 11.5-1.845 17.055 10.898 2.995 21.325 4.47 31.194 8.03 8.195 2.993 16.433 5.987 22.698 12.584 5.02 5.337 5.063 10.892-.429 15.84-7.38 6.639-16.563 8.549-26.088 9.026l-.043.043Z" fill="#FEFEFE"/><path d="M299.798 70.13c-5.45 8.678-22.784 11.325-28.362-3.3 8.624 9.417 18.15 8.811 28.362 3.3ZM142.669 81.584c-5.965 6.857-19.352 6.9-27.161-.434 9.869 2.69 18.536 3.993 27.161.434ZM300.013 80.5c8.367 2.17 15.747 2.821 22.655-2.213-2.489 8.202-15.318 9.764-22.655 2.213Zm-138.035 3.212c-2.789 7.074-9.912 9.72-19.824 7.03 7.724-1.519 14.332-2.734 19.824-7.03Z" fill="#72B3AA"/></g></g><defs><clipPath id="a"><path fill="#fff" d="M0 0h422v139H0z"/></clipPath></defs></svg>