<svg width="445" height="591" fill="none" xmlns="http://www.w3.org/2000/svg"><g clip-path="url(#a)"><path d="M435 295c0 157.953-95.363 286-213 286S9 452.953 9 295 142 9 222 9c117.637 0 213 128.047 213 286Z" fill="#1C1E1E"/><path fill-rule="evenodd" clip-rule="evenodd" d="M60.61 182.939c-4.73 12.53-8.46 25.42-9.58 38.89h.01c-.008.143-.02.286-.032.429a7.52 7.52 0 0 0-.038 1.071c.022.425.025.86.028 1.297.017 2.262.034 4.578 2.522 5.743 3.16 1.47 5.27-.61 7.25-2.79 5.18-5.7 8.95-12.39 12.51-19.09 13.59-25.58 27.34-51.04 44.2-74.68 18.64-26.14 39.98-49.6 66.19-68.43 1.682-1.21 3.381-2.398 5.08-3.588 6.187-4.33 12.386-8.67 17.79-14.012 3.08-3.04 4.9-6.84 3-10.79-1.92-3.99-6.18-3.7-10.13-3.43-6.292.423-11.655 3.199-17.019 5.974a165.82 165.82 0 0 1-4.101 2.076c-32.48 15.72-58.67 38.85-79.52 68.1-16.12 22.61-28.37 47.32-38.16 73.23Zm269.33 67.29c8.639-12.347 11.649-26.404 11.65-42.48-.033-.662-.064-1.349-.095-2.055-.193-4.331-.42-9.43-1.615-14.485-2.75-11.65-7.29-22.3-16.47-30.37-7.01-6.16-15.56-9.23-24.38-6.19-13.31 4.58-20.84 15.2-25.88 28.07-4.52 11.57-5.17 23.46-4.45 35.52.97 16.2 6.03 30.78 18.89 41.55 5.58 4.67 12.12 6.96 19.73 5.94 10.25-1.38 17.08-7.58 22.62-15.5Zm-41.16-15.36c-4.45-8.07-6.26-15.49-6.26-28.38.52-8.12 2-18.56 10.05-26.94 3.814-3.973 8.083-5.94 12.295-5.913 4.536.027 9.009 2.367 12.774 7.003 4.41 5.43 6.88 11.74 8.15 18.38 2.28 11.93 1.13 23.59-4.5 34.6-2.65 5.19-6.34 9.41-11.8 11.52-2.703 1.04-5.634 1.048-8.488.204a16.8 16.8 0 0 1-1.349-.464c-4.254-1.672-8.225-5.214-10.872-10.01Zm-31.25 8.76v-3.49c0-.939.009-1.879.018-2.819.022-2.393.044-4.787-.078-7.171-.014-.31.045-.676.107-1.053.186-1.14.39-2.384-1.407-2.527-1.507-.116-1.91 1.085-2.322 2.314-.086.255-.171.51-.268.756-1.71 4.42-3.68 8.7-7.27 12.06-10.3 9.62-28.87 1.81-33.65-7.85-6.67-13.47-4.87-27.2-.59-40.93 3.23-10.35 11.18-14.89 20.99-14.93 9.28-.04 16.49 2.96 20.47 13.92.078.218.119.468.16.717.124.747.245 1.486 1.34 1.313 1.186-.182 1.183-1.296 1.181-2.267l-.001-.133c-.002-1.788-.003-3.577-.003-5.366-.002-5.364-.004-10.732-.057-16.094-.01-.78-.31-1.68-.77-2.3-8.62-11.56-27.94-17.72-41.04-8.8-14.83 10.09-20.42 25.36-23.1 41.99-1.83 11.36-.67 22.73 2.43 33.84 6.21 22.25 21.03 36.28 46.09 30.56 11.68-2.67 17.77-9.98 17.77-21.74Zm114.208 11.438c-1.69-.009-3.42-.018-5.208-.018l-.01-.01c2.51-5.3 5.88-9.59 9.33-13.71 9.82-11.75 13.56-25.11 11.61-40.2-.98-7.57-6.23-14.17-12.62-15.64-6.89-1.6-13.46 1.5-18.1 8.44-4.2 6.27-4.52 13.33-4.29 20.52.02.84.13 1.55 1.06 1.99 4.19 1.98 8.82-.62 9.13-5.04.2-2.8.55-5.62 1.19-8.35.53-2.23 2.17-3.62 4.56-4.04 4.62-.81 8.34 2.52 9.01 8.25 1.06 8.98-1.21 16.89-6.73 24.21-6.102 8.092-11.819 16.485-17.53 24.866-.803 1.179-1.606 2.357-2.41 3.534-2.43 3.56-1.32 5.45 2.96 5.47 3.747.019 7.495.004 11.243-.011 6.246-.025 12.494-.05 18.737.081 4.555.094 4.202-2.26 3.858-4.557-.131-.875-.261-1.743-.118-2.463.704-3.518-1.715-3.451-4.25-3.382l-.07.002c-3.712.098-7.424.079-11.352.058ZM53.55 292.979c4.09-5.98 5.91-12.56 5.46-18.49-.01-.836-.012-1.643-.013-2.424-.007-4.298-.013-7.809-1.587-11.126-3.48-7.32-10.18-8.01-14.6-1.22-6.07 9.31-7.47 19.59-5.39 30.43.7 3.6 1.92 6.83 6.02 7.62 4.45.85 7.65-1.19 10.11-4.79Z" fill="#fff"/><path d="M444.24 291.26c.71 38.46-4.83 75-14.93 110.98-7.52 26.8-16.52 52.95-30.05 77.37-13.36 24.12-28.71 46.88-50.33 64.39-39.95 32.36-84.75 51.03-137.28 45.12-27.9-3.14-53.9-12.38-78.44-26.12-26-14.56-48.41-33.31-67.64-55.92-14.75-17.34-26.29-36.74-35.37-57.56-8.31-19.06-15.71-38.5-20.59-58.74C-.63 348.23-2.62 305.2 3.33 261.84c6.53-47.56 22.94-91.73 46.87-133.13C66.99 99.67 87.04 73.17 112 50.4c14.15-12.91 28.2-25.6 45-35.13 15.7-8.9 32.35-13.78 50.23-14.89 40.74-2.53 77.92 7.67 112.09 30.13 29.17 19.18 51.64 44.3 70.65 73.29 19.94 30.4 32.99 63.58 42.97 98.19 8.51 29.5 11.9 59.68 11.29 89.27h.01Zm-15.52 7.18c-.26-18.83-.1-32.88-1.85-46.99-1.93-15.48-4.65-30.79-8.9-45.69-4.08-14.28-8.5-28.53-14.19-42.32-4.82-11.65-9.71-23.34-16.2-34.09-7.09-11.74-14.35-23.4-22.52-34.51-10.82-14.72-23.28-27.7-37.34-39.16-12.62-10.29-26.42-18.79-41.19-25.82-18.55-8.83-38.11-13.11-58.42-14.19-9.77-.52-19.64-.69-29.35.97-11.49 1.97-22.58 5.35-32.78 11.18-10.83 6.19-21.16 13.02-30.26 21.67-11.34 10.78-22.5 21.71-33.09 33.22-6.86 7.45-12.36 15.95-18.05 24.25-3.86 5.63-8.94 10.17-12.6 15.92-5.5 8.65-10.55 17.51-15.41 26.55-6.38 11.84-12.32 23.9-17.17 36.35a380.769 380.769 0 0 0-16.33 52.97c-4.17 18.15-6.05 36.55-7.23 55.04-.96 15.12.45 30.24 1.03 45.35.29 7.43.69 14.97 2.2 22.22 3.45 16.62 6.93 33.24 12.73 49.33 6.19 17.17 12.77 34.11 21.22 50.3 9.03 17.3 20.54 32.88 33.95 46.93 8.91 9.33 18.58 17.91 29.11 25.58 17.38 12.65 35.68 23.24 56.1 30.31 17.51 6.07 35.23 10.32 53.82 10.62 7.82.12 15.59-.231 23.37-1.011 11.3-1.13 22.27-3.99 32.73-8.01 11.85-4.55 23.19-10.319 34.14-17.009 12.55-7.67 23.91-16.5 34.19-26.96 12.97-13.19 23.29-28.33 32.63-44.11 10.82-18.29 18.79-37.98 25.32-58.14 6.17-19.05 11.69-38.42 14.88-58.16 3.6-22.21 7.22-44.59 5.47-62.59h-.01Z" fill="#050505"/></g><defs><clipPath id="a"><path fill="#fff" d="M0 0h445v591H0z"/></clipPath></defs></svg>