<svg width="150" height="45" viewBox="0 0 150 45" fill="none" xmlns="http://www.w3.org/2000/svg">
<path d="M144.444 45H5.55556C2.44444 45 0 42.525 0 39.375V5.625C0 2.475 2.44444 0 5.55556 0H144.444C147.556 0 150 2.475 150 5.625V39.375C150 42.525 147.556 45 144.444 45Z" fill="black"/>
<path d="M51.4367 14.6895H50.0468C50.0468 14.4845 49.915 13.9043 49.6514 12.9484H47.645C47.373 13.8887 47.2367 14.4689 47.2367 14.6895H45.9297C45.9297 14.5686 46.2677 13.5754 46.9436 11.7103C47.6195 9.84521 47.9575 8.81773 47.9575 8.62883H49.5993C49.5993 8.80563 49.9053 9.81791 50.5178 11.6661C51.1303 13.5143 51.4367 14.5218 51.4367 14.6895ZM49.4303 12.0591C48.9351 10.4579 48.6877 9.59214 48.6877 9.46167H48.6181C48.6181 9.58261 48.3618 10.4484 47.8496 12.0591H49.4303ZM57.0367 14.6895H55.9642C55.9642 14.5621 55.566 13.8904 54.77 12.6741C53.9364 11.3922 53.4613 10.516 53.3457 10.0442H53.2762C53.3486 10.7236 53.385 11.3381 53.385 11.8876C53.385 12.6542 53.4052 13.5884 53.4456 14.69H52.3771C52.4204 13.728 52.4422 12.6715 52.4422 11.5201C52.4422 10.3874 52.4204 9.42361 52.3771 8.6293H53.6667C53.6667 8.79397 54.0241 9.45048 54.7393 10.5984C55.5006 11.8178 55.938 12.6451 56.0508 13.0797H56.1159C56.0464 12.3877 56.0116 11.7671 56.0116 11.2176C56.0116 10.377 55.9913 9.51374 55.9509 8.6293H57.0368C56.9959 9.39891 56.9761 10.3627 56.9761 11.5201C56.9757 12.6862 56.9959 13.7427 57.0367 14.6895ZM63.3309 11.4495C63.3309 12.3308 63.0674 13.1005 62.5405 13.7583C62.0134 14.4165 61.2751 14.745 60.3255 14.745C59.897 14.745 59.3063 14.7263 58.5536 14.6891C58.5911 13.7518 58.6102 12.6949 58.6102 11.5192C58.6102 10.39 58.5912 9.42621 58.5536 8.6284H59.3137C59.4381 8.6284 59.6233 8.62363 59.8695 8.61453C60.1153 8.60543 60.2762 8.60066 60.3514 8.60066C61.3965 8.60066 62.1541 8.88017 62.625 9.43874C63.0956 9.99732 63.3309 10.6673 63.3309 11.4495ZM62.1455 11.6496C62.1455 11.0538 61.9834 10.552 61.6592 10.1433C61.335 9.73554 60.8397 9.53148 60.1739 9.53148C60.0494 9.53148 59.8788 9.54534 59.6613 9.57351C59.69 10.1944 59.7045 10.8427 59.7045 11.5192C59.7045 12.2611 59.7191 12.9965 59.7477 13.7258C59.9335 13.7659 60.1226 13.7862 60.3121 13.7864C60.9347 13.7864 61.3956 13.5789 61.6952 13.1646C61.9948 12.7503 62.1455 12.2454 62.1455 11.6496ZM69.1351 14.6895H67.8495C67.5135 13.591 67.2561 12.9128 67.0766 12.6554C66.8971 12.3976 66.6076 12.2689 66.2082 12.2689C66.04 12.2689 65.8795 12.2706 65.7263 12.2736C65.7263 13.0715 65.7392 13.8766 65.7655 14.6895H64.5583C64.5959 13.7522 64.6149 12.6953 64.6149 11.5196C64.6149 10.3904 64.5959 9.42661 64.5583 8.62883H65.3094C65.3963 8.62883 65.5779 8.62406 65.8544 8.61496C66.131 8.60586 66.3865 8.60106 66.6209 8.60106C67.9498 8.60106 68.6144 9.08813 68.6144 10.0627C68.6144 10.8354 68.2352 11.3736 67.4768 11.6782V11.748C67.7691 11.8347 68.0254 12.0795 68.2453 12.4808C68.4648 12.8825 68.7615 13.6187 69.1351 14.6895ZM67.5067 10.4068C67.5067 9.78928 67.136 9.48034 66.3949 9.48034C66.1228 9.48034 65.8823 9.50201 65.6741 9.54534C65.706 10.0263 65.7218 10.6534 65.7218 11.426C65.8811 11.4325 66.0157 11.4351 66.1257 11.4351C67.0462 11.4356 67.5067 11.0928 67.5067 10.4068ZM75.3601 11.5473C75.3601 12.4999 75.088 13.2898 74.5435 13.9168C73.9989 14.5435 73.3258 14.8572 72.5241 14.8572C71.7597 14.8572 71.1197 14.5694 70.6046 13.9935C70.0892 13.4181 69.8317 12.6862 69.8317 11.7991C69.8317 10.8466 70.1037 10.0566 70.6483 9.4296C71.1924 8.803 71.8656 8.48926 72.6676 8.48926C73.4321 8.48926 74.0717 8.77613 74.5871 9.3503C75.1026 9.92451 75.3601 10.6564 75.3601 11.5473ZM74.1618 11.6821C74.1618 11.0334 74.007 10.5074 73.6973 10.1039C73.3873 9.70048 73.0052 9.49897 72.5508 9.49897C72.1279 9.49897 71.7689 9.70221 71.4738 10.1087C71.1787 10.5152 71.0303 11.0287 71.0303 11.6496C71.0303 12.2949 71.186 12.8201 71.4972 13.2253C71.8085 13.6305 72.1898 13.8328 72.6418 13.8328C73.0642 13.8328 73.4236 13.6287 73.7188 13.2205C74.0139 12.8127 74.1618 12.2996 74.1618 11.6821ZM77.8157 14.6895H76.5867C76.6243 13.7275 76.6433 12.671 76.6433 11.5196C76.6433 10.3869 76.6243 9.42314 76.5867 8.62883H77.8157C77.7781 9.41101 77.7591 10.3743 77.7591 11.5196C77.7591 12.6892 77.7781 13.7461 77.8157 14.6895ZM84.1103 11.4495C84.1103 12.3308 83.8467 13.1005 83.3199 13.7583C82.7928 14.4165 82.0545 14.745 81.1049 14.745C80.6763 14.745 80.0857 14.7263 79.3329 14.6891C79.3705 13.7518 79.3895 12.6949 79.3895 11.5192C79.3895 10.39 79.3706 9.42621 79.3329 8.6284H80.093C80.2175 8.6284 80.4026 8.62363 80.6489 8.61453C80.8947 8.60543 81.0555 8.60066 81.1308 8.60066C82.1758 8.60066 82.9334 8.88017 83.4044 9.43874C83.875 9.99732 84.1103 10.6673 84.1103 11.4495ZM82.9249 11.6496C82.9249 11.0538 82.7628 10.552 82.4385 10.1433C82.1143 9.73554 81.6191 9.53148 80.9532 9.53148C80.8287 9.53148 80.6581 9.54534 80.4406 9.57351C80.4693 10.1944 80.4838 10.8427 80.4838 11.5192C80.4838 12.2611 80.4984 12.9965 80.5271 13.7258C80.7129 13.7659 80.9019 13.7862 81.0915 13.7864C81.714 13.7864 82.1749 13.5789 82.4745 13.1646C82.7741 12.7503 82.9249 12.2454 82.9249 11.6496ZM92.461 14.6895H91.0711C91.0711 14.4845 90.9393 13.9043 90.6753 12.9484H88.6689C88.3968 13.8887 88.2605 14.4689 88.2605 14.6895H86.9539C86.9539 14.5686 87.2919 13.5754 87.9679 11.7103C88.6438 9.84521 88.9818 8.81773 88.9818 8.62883H90.6235C90.6235 8.80563 90.93 9.81791 91.542 11.6661C92.1541 13.5143 92.461 14.5218 92.461 14.6895ZM90.4546 12.0591C89.9593 10.4579 89.7115 9.59214 89.7115 9.46167H89.6419C89.6419 9.58261 89.386 10.4484 88.8738 12.0591H90.4546ZM97.5265 10.2157C97.5265 10.9576 97.2694 11.5053 96.7556 11.8589C96.2417 12.2125 95.6114 12.3897 94.8643 12.3897C94.7281 12.3897 94.6315 12.3867 94.5733 12.3806C94.5733 12.9644 94.589 13.7336 94.621 14.6895H93.4004C93.438 13.7929 93.457 12.736 93.457 11.5196C93.457 10.4025 93.4381 9.43874 93.4004 8.62883H94.156C94.2632 8.62883 94.4685 8.62406 94.7725 8.61496C95.0766 8.60586 95.3398 8.60106 95.5629 8.60106C96.1127 8.60106 96.5776 8.73453 96.9568 9.00146C97.3361 9.26844 97.5265 9.67274 97.5265 10.2157ZM96.4063 10.4718C96.4063 9.80791 95.9951 9.47557 95.1728 9.47557C94.9671 9.47557 94.75 9.49894 94.5216 9.54534C94.5535 10.1321 94.5693 10.796 94.5693 11.5378C94.6416 11.5443 94.7257 11.5469 94.8211 11.5469C95.8779 11.5473 96.4063 11.189 96.4063 10.4718ZM102.735 10.2157C102.735 10.9576 102.478 11.5053 101.965 11.8589C101.451 12.2125 100.82 12.3897 100.073 12.3897C99.9368 12.3897 99.8402 12.3867 99.782 12.3806C99.782 12.9644 99.7978 13.7336 99.8297 14.6895H98.6092C98.6468 13.7929 98.6658 12.736 98.6658 11.5196C98.6658 10.4025 98.6468 9.43874 98.6092 8.62883H99.3648C99.4719 8.62883 99.6773 8.62406 99.9813 8.61496C100.285 8.60586 100.548 8.60106 100.772 8.60106C101.321 8.60106 101.786 8.73453 102.166 9.00146C102.545 9.26844 102.735 9.67274 102.735 10.2157ZM101.615 10.4718C101.615 9.80791 101.204 9.47557 100.382 9.47557C100.176 9.47557 99.9587 9.49894 99.7303 9.54534C99.7622 10.1321 99.778 10.796 99.778 11.5378C99.8503 11.5443 99.9344 11.5469 100.03 11.5469C101.087 11.5473 101.615 11.189 101.615 10.4718ZM111.251 11.5473C111.251 12.4999 110.979 13.2898 110.435 13.9168C109.89 14.5439 109.217 14.8572 108.415 14.8572C107.651 14.8572 107.011 14.5694 106.496 13.9935C105.981 13.4181 105.723 12.6862 105.723 11.7991C105.723 10.8466 105.995 10.0566 106.539 9.4296C107.084 8.80256 107.757 8.48926 108.559 8.48926C109.323 8.48926 109.963 8.77613 110.478 9.3503C110.993 9.92451 111.251 10.6564 111.251 11.5473ZM110.053 11.6821C110.053 11.0334 109.898 10.5074 109.588 10.1039C109.278 9.70048 108.896 9.49897 108.442 9.49897C108.019 9.49897 107.66 9.70221 107.365 10.1087C107.069 10.5152 106.921 11.0287 106.921 11.6496C106.921 12.2949 107.077 12.8201 107.388 13.2253C107.7 13.6305 108.081 13.8328 108.533 13.8328C108.955 13.8328 109.314 13.6287 109.61 13.2205C109.905 12.8127 110.053 12.2996 110.053 11.6821ZM117.138 14.6895H116.065C116.065 14.5621 115.667 13.8904 114.871 12.6741C114.037 11.3922 113.562 10.516 113.446 10.0442H113.377C113.449 10.7236 113.486 11.3381 113.486 11.8876C113.486 12.6542 113.506 13.5884 113.546 14.69H112.478C112.521 13.728 112.543 12.6715 112.543 11.5201C112.543 10.3874 112.521 9.42361 112.478 8.6293H113.768C113.768 8.79397 114.125 9.45048 114.84 10.5984C115.602 11.8178 116.039 12.6451 116.152 13.0797H116.217C116.147 12.3877 116.112 11.7671 116.112 11.2176C116.112 10.377 116.092 9.51374 116.052 8.6293H117.138C117.097 9.39891 117.077 10.3627 117.077 11.5201C117.077 12.6862 117.097 13.7427 117.138 14.6895Z" fill="#F9F9FA"/>
<path d="M144.444 0.9C147 0.9 149.111 3.0375 149.111 5.625V39.375C149.111 41.9625 147 44.1 144.444 44.1H5.55556C3 44.1 0.888889 41.9625 0.888889 39.375V5.625C0.888889 3.0375 3 0.9 5.55556 0.9H144.444ZM144.444 0H5.55556C2.44444 0 0 2.5875 0 5.625V39.375C0 42.525 2.44444 45 5.55556 45H144.444C147.556 45 150 42.525 150 39.375V5.625C150 2.5875 147.556 0 144.444 0Z" fill="white"/>
<path d="M75.9171 24.4174C73.2516 24.4174 71.1414 26.4521 71.1414 29.2781C71.1414 31.9911 73.2516 34.1388 75.9171 34.1388C78.5827 34.1388 80.6929 32.1041 80.6929 29.2781C80.6929 26.3391 78.5827 24.4174 75.9171 24.4174ZM75.9171 32.1041C74.4733 32.1041 73.2516 30.8607 73.2516 29.1651C73.2516 27.4695 74.4733 26.226 75.9171 26.226C77.361 26.226 78.5827 27.3564 78.5827 29.1651C78.5827 30.8607 77.361 32.1041 75.9171 32.1041ZM65.5881 24.4174C62.9226 24.4174 60.8123 26.4521 60.8123 29.2781C60.8123 31.9911 62.9226 34.1388 65.5881 34.1388C68.2537 34.1388 70.3639 32.1041 70.3639 29.2781C70.3639 26.3391 68.2537 24.4174 65.5881 24.4174ZM65.5881 32.1041C64.1443 32.1041 62.9226 30.8607 62.9226 29.1651C62.9226 27.4695 64.1443 26.226 65.5881 26.226C67.032 26.226 68.2537 27.3564 68.2537 29.1651C68.2537 30.8607 67.032 32.1041 65.5881 32.1041ZM53.26 25.8869V27.9216H58.0357C57.9247 29.052 57.4804 29.9563 56.9251 30.5215C56.2587 31.1998 55.1481 31.9911 53.26 31.9911C50.2612 31.9911 48.0399 29.6172 48.0399 26.5651C48.0399 23.5131 50.3723 21.1392 53.26 21.1392C54.8149 21.1392 56.0366 21.8175 56.9251 22.6087L58.3689 21.1392C57.1472 20.0088 55.5923 19.1045 53.371 19.1045C49.3727 19.1045 45.9297 22.4957 45.9297 26.5651C45.9297 30.6346 49.3727 34.0258 53.371 34.0258C55.5923 34.0258 57.1472 33.3475 58.48 31.878C59.8128 30.5215 60.257 28.5999 60.257 27.1303C60.257 26.6782 60.257 26.226 60.146 25.8869H53.26ZM103.683 27.4695C103.239 26.3391 102.128 24.4174 99.685 24.4174C97.2415 24.4174 95.2424 26.3391 95.2424 29.2781C95.2424 31.9911 97.2415 34.1388 99.9071 34.1388C102.017 34.1388 103.35 32.7823 103.794 31.9911L102.239 30.8607C101.684 31.6519 101.018 32.2171 99.9071 32.2171C98.7964 32.2171 98.1301 31.765 97.5747 30.7476L103.905 28.0347L103.683 27.4695ZM97.2416 29.052C97.2416 27.2434 98.6854 26.226 99.685 26.226C100.462 26.226 101.24 26.6782 101.462 27.2434L97.2416 29.052ZM92.0215 33.6867H94.1317V19.5567H92.0215V33.6867ZM88.6896 25.4347C88.1342 24.8695 87.2457 24.3043 86.1351 24.3043C83.8027 24.3043 81.5814 26.4521 81.5814 29.1651C81.5814 31.878 83.6917 33.9127 86.1351 33.9127C87.2457 33.9127 88.1342 33.3475 88.5785 32.7823H88.6896V33.4606C88.6896 35.2692 87.69 36.2866 86.1351 36.2866C84.9134 36.2866 84.0249 35.3823 83.8027 34.591L82.0257 35.3823C82.581 36.6257 83.9138 38.2083 86.2462 38.2083C88.6896 38.2083 90.6887 36.7387 90.6887 33.2345V24.6435H88.6896V25.4347ZM86.2462 32.1041C84.8023 32.1041 83.5806 30.8607 83.5806 29.1651C83.5806 27.4695 84.8023 26.226 86.2462 26.226C87.69 26.226 88.8006 27.4695 88.8006 29.1651C88.8006 30.8607 87.69 32.1041 86.2462 32.1041ZM113.346 19.5567H108.348V33.6867H110.458V28.3738H113.346C115.678 28.3738 117.9 26.6782 117.9 23.9652C117.9 21.2523 115.678 19.5567 113.346 19.5567ZM113.457 26.3391H110.458V21.4783H113.457C115.012 21.4783 115.9 22.8348 115.9 23.8522C115.789 25.0956 114.901 26.3391 113.457 26.3391ZM126.229 24.3043C124.675 24.3043 123.12 24.9826 122.564 26.4521L124.452 27.2434C124.897 26.4521 125.563 26.226 126.34 26.226C127.451 26.226 128.451 26.9043 128.562 28.0347V28.1477C128.229 27.9216 127.34 27.5825 126.452 27.5825C124.452 27.5825 122.453 28.7129 122.453 30.7476C122.453 32.6693 124.119 33.9127 125.896 33.9127C127.34 33.9127 128.006 33.2345 128.562 32.5563H128.673V33.6867H130.672V28.2607C130.45 25.7739 128.562 24.3043 126.229 24.3043ZM126.007 32.1041C125.341 32.1041 124.341 31.765 124.341 30.8607C124.341 29.7303 125.563 29.3911 126.563 29.3911C127.451 29.3911 127.895 29.6172 128.451 29.8433C128.229 31.1998 127.118 32.1041 126.007 32.1041ZM137.669 24.6435L135.337 30.7476H135.226L132.782 24.6435H130.561L134.226 33.2345L132.116 37.9822H134.226L139.89 24.6435H137.669ZM119.01 33.6867H121.12V19.5567H119.01V33.6867Z" fill="white"/>
<path d="M11.4108 8.48926C11.0705 8.82548 10.957 9.38586 10.957 10.0583V34.827C10.957 35.4994 11.1839 36.0598 11.5242 36.3961L11.6377 36.5081L25.7042 22.6108V22.3866L11.4108 8.48926Z" fill="url(#paint0_linear_2591_1702)"/>
<path d="M30.1244 27.1697L25.6992 22.6647V22.3351L30.1244 17.8301L30.2323 17.94L35.521 21.0165C37.032 21.8956 37.032 23.324 35.521 24.203L30.1244 27.1697Z" fill="url(#paint1_linear_2591_1702)"/>
<path d="M29.9149 27.2046L25.3582 22.501L11.7969 36.4998C12.3393 37.0598 13.0988 37.0598 14.0752 36.6118L29.9149 27.2046Z" fill="url(#paint2_linear_2591_1702)"/>
<path d="M29.9149 17.9121L14.0752 8.84824C13.0988 8.30222 12.3393 8.41142 11.7969 8.95744L25.3582 22.4987L29.9149 17.9121Z" fill="url(#paint3_linear_2591_1702)"/>
<path opacity="0.2" d="M29.9149 27.1699L14.0889 36.3323C13.2158 36.891 12.4517 36.7793 11.906 36.3323L11.7969 36.4441L11.906 36.5558C12.4517 37.0028 13.2158 37.1145 14.0889 36.5558L29.9149 27.1699Z" fill="black"/>
<path opacity="0.12" d="M11.404 36.3974C11.0688 36.0585 10.957 35.4936 10.957 34.8157V34.9287C10.957 35.6066 11.1805 36.1715 11.5158 36.5104V36.3974H11.404ZM35.5418 23.9697L29.9543 27.1331L30.0661 27.2461L35.5418 24.0827C36.324 23.6308 36.6593 23.0659 36.6593 22.501C36.6593 23.0659 36.2123 23.5178 35.5418 23.9697Z" fill="black"/>
<path opacity="0.25" d="M13.7508 8.57394L35.5418 21.0395C36.2123 21.4887 36.6593 21.9379 36.6593 22.4994C36.6593 21.9379 36.324 21.3764 35.5418 20.9272L13.7508 8.46164C12.1863 7.56323 10.957 8.23704 10.957 10.0339V10.1462C10.957 8.46164 12.1863 7.67553 13.7508 8.57394Z" fill="white"/>
<defs>
<linearGradient id="paint0_linear_2591_1702" x1="24.3429" y1="9.84537" x2="5.53468" y2="28.8815" gradientUnits="userSpaceOnUse">
<stop stop-color="#00A0FF"/>
<stop offset="0.007" stop-color="#00A1FF"/>
<stop offset="0.26" stop-color="#00BEFF"/>
<stop offset="0.512" stop-color="#00D2FF"/>
<stop offset="0.76" stop-color="#00DFFF"/>
<stop offset="1" stop-color="#00E3FF"/>
</linearGradient>
<linearGradient id="paint1_linear_2591_1702" x1="37.5005" y1="22.446" x2="11.3843" y2="22.446" gradientUnits="userSpaceOnUse">
<stop stop-color="#FFE000"/>
<stop offset="0.409" stop-color="#FFBD00"/>
<stop offset="0.775" stop-color="#FFA500"/>
<stop offset="1" stop-color="#FF9C00"/>
</linearGradient>
<linearGradient id="paint2_linear_2591_1702" x1="27.4489" y1="25.0723" x2="1.97486" y2="49.7502" gradientUnits="userSpaceOnUse">
<stop stop-color="#FF3A44"/>
<stop offset="1" stop-color="#C31162"/>
</linearGradient>
<linearGradient id="paint3_linear_2591_1702" x1="8.4304" y1="0.850164" x2="19.5285" y2="11.8759" gradientUnits="userSpaceOnUse">
<stop stop-color="#32A071"/>
<stop offset="0.069" stop-color="#2DA771"/>
<stop offset="0.476" stop-color="#15CF74"/>
<stop offset="0.801" stop-color="#06E775"/>
<stop offset="1" stop-color="#00F076"/>
</linearGradient>
</defs>
</svg>
