<svg width="480" height="180" fill="none" xmlns="http://www.w3.org/2000/svg"><g clip-path="url(#a)"><path d="M0 0h480v180H0V0Z" fill="#4F8C2A"/><path d="M78.531 109.22c.29.96.966 7.042 1.267 9.963.229 3.397.535 10.062-.07 9.542-.758-.649-1.722-5.915-2.313-10.538-.592-4.622-.127-9.227-.027-9.464.1-.237.78-.702 1.143.497Zm6.888 9.13c.449-.638.187-5.59 0-7.985-.127-1.917-.32-8.226-1.52-8.146-1.2.08-1.2 3.673-.72 9.264.48 5.572 1.68 7.666 2.24 6.867Zm8.24-3.354c-.24 1.677-.8 7.826.24 6.788.817-.815 2.37-7.805 3.082-11.384.187-.923.279-1.553.038-2.831-.24-1.277-1.04.16-1.68 1.278-.64 1.118-1.44 4.472-1.68 6.149Zm315.752-56.565c.291.959.966 7.041 1.267 9.963.229 3.396.535 10.061-.07 9.541-.757-.649-1.722-5.915-2.314-10.537-.59-4.623-.126-9.228-.027-9.464.101-.237.781-.703 1.144.497Zm6.888 9.13c.448-.64.187-5.59 0-7.986-.128-1.917-.32-8.226-1.52-8.146-1.2.08-1.2 3.674-.72 9.264.478 5.572 1.68 7.666 2.24 6.868Zm8.24-3.355c-.24 1.677-.8 7.827.24 6.788.818-.815 2.37-7.804 3.082-11.384.187-.923.278-1.553.038-2.83-.24-1.278-1.04.16-1.68 1.277-.64 1.118-1.44 4.472-1.68 6.15Zm-40.933 87.677c.32-.831.347-4.073.32-5.59 0-1.939-.32-4.472-1.04-5.351-.929-1.134-.8 1.438-.8 2.955 0 1.517.08 6.149.4 7.746.32 1.598.72 1.278 1.12.24Zm5.28-1.437c.32-1.039 1.44-5.271 1.68-6.709.24-1.437 1.04-5.59.48-5.829-.56-.24-.8.08-1.28 1.437-.384 1.086-1.493 6.948-2 9.743-.48 3.114.455 3.514 1.12 1.358Zm-354.4-99.823c.32-.83.347-4.073.32-5.59 0-1.94-.32-4.472-1.04-5.35-.93-1.135-.8 1.437-.8 2.954 0 1.517.08 6.15.4 7.746.32 1.598.72 1.278 1.12.24Zm5.28-1.437c.32-1.039 1.44-5.27 1.68-6.709.24-1.437 1.04-5.59.48-5.83-.56-.239-.8.08-1.28 1.438-.384 1.086-1.493 6.948-2 9.743-.48 3.114.456 3.514 1.12 1.358Zm98.269-5.75c-.32-.83-.347-4.073-.32-5.59 0-1.94.32-4.472 1.04-5.35.93-1.135.8 1.437.8 2.954 0 1.517-.08 6.149-.4 7.746-.32 1.597-.72 1.278-1.12.24Zm-5.28-1.438c-.32-1.038-1.44-5.27-1.68-6.708-.24-1.437-1.04-5.59-.48-5.83.56-.239.8.08 1.28 1.438.384 1.086 1.493 6.948 2 9.743.48 3.114-.455 3.514-1.12 1.357Zm94.691 47.276c.32-.83.347-4.073.32-5.59 0-1.939-.32-4.472-1.04-5.35-.929-1.135-.8 1.437-.8 2.954 0 1.518.08 6.15.4 7.747.32 1.597.72 1.277 1.12.24Zm5.28-1.437c.32-1.038 1.44-5.27 1.68-6.708.24-1.438 1.04-5.59.48-5.83-.56-.24-.8.08-1.28 1.438-.384 1.086-1.493 6.947-2 9.742-.48 3.115.455 3.514 1.12 1.358Zm53.573-68.22c-.064-1.533.64-5.51.72-6.389.08-.878.24-5.03.32-6.308.08-1.278 1.44-.16 1.6 2.395.16 2.556-.72 7.826-1.28 9.823-.56 1.996-1.28 2.396-1.36.479Zm16.746 122.343c-.064-1.534.64-5.511.72-6.389.08-.879.24-5.031.32-6.309.08-1.278 1.44-.16 1.6 2.396.16 2.555-.72 7.826-1.28 9.822-.56 1.997-1.28 2.396-1.36.48ZM24.579 158.73c.064-1.534-.64-5.511-.72-6.389-.08-.878-.24-5.031-.32-6.309-.08-1.277-1.44-.159-1.6 2.396-.16 2.555.72 7.826 1.28 9.823.56 1.995 1.28 2.395 1.36.479ZM319.62 57.47c.064-1.534-.64-5.51-.72-6.389-.08-.878-.24-5.031-.32-6.309-.08-1.277-1.44-.16-1.6 2.396-.16 2.556.72 7.826 1.28 9.823.56 1.996 1.28 2.395 1.36.479ZM154.564 158.73c-.064-1.534.64-5.511.72-6.389.08-.878.24-5.031.32-6.309.08-1.277 1.44-.159 1.6 2.396.16 2.555-.72 7.826-1.28 9.823-.56 1.995-1.28 2.395-1.36.479Z" fill="#3A6B1E"/></g><defs><clipPath id="a"><path fill="#fff" d="M0 0h480v180H0z"/></clipPath></defs></svg>