<svg width="480" height="150" fill="none" xmlns="http://www.w3.org/2000/svg"><g clip-path="url(#a)"><path d="M364.958 1.518c-74.492 0-155.664 48.432-238.094 48.432-64.288 0-107.465-11.528-127.373-20.025l.128 120.703h481.149V58.467c-24.819-27.303-62.222-56.95-115.81-56.95Z" fill="#4F8C2A"/><path d="M327.541 118.593c-.711 0-.635-4.915-.508-7.373.168-2.458.508-6.992 1.271-6.992.763 0 .636 5.848.636 6.992 0 1.144-.509 7.373-1.399 7.373Zm-272.543 9.661c-.712 0-.635-4.915-.508-7.373.17-2.458.508-6.992 1.271-6.992.763 0 .636 5.848.636 6.992 0 1.144-.509 7.373-1.399 7.373Zm192.321-59.6c-.707-.09-.013-4.956.422-7.378.478-2.417 1.384-6.872 2.141-6.776.756.096-.105 5.88-.249 7.016-.144 1.135-1.432 7.25-2.314 7.138Zm190.053 49.939c-.712 0-.636-4.915-.509-7.373.168-2.458.509-6.992 1.272-6.992.762 0 .635 5.848.635 6.992 0 1.144-.508 7.373-1.398 7.373Zm5.647 1.441c-.705-.112.142-4.955.653-7.362.552-2.401 1.599-6.825 2.352-6.706.752.12-.29 5.875-.468 7.005-.181 1.13-1.658 7.202-2.537 7.063ZM18.897 74.101c-.712 0-.636-4.915-.509-7.373.17-2.457.509-6.991 1.271-6.991.763 0 .636 5.847.636 6.991 0 1.145-.509 7.373-1.398 7.373Zm5.647 1.441c-.703-.112.143-4.954.653-7.361.553-2.401 1.599-6.826 2.352-6.706.753.12-.289 5.875-.468 7.005-.18 1.13-1.658 7.202-2.537 7.062Z" fill="#376A18"/><path d="M480.768 58.467c-24.819-27.303-62.222-56.95-115.81-56.95-74.492 0-155.664 48.433-238.094 48.433-64.44 0-107.54-11.582-127.386-20.085" stroke="#376A18" stroke-width="2" stroke-linecap="round"/><path d="M389.474 53.509c.711 0 .635-4.915.508-7.373-.17-2.458-.508-6.992-1.271-6.992-.763 0-.636 5.848-.636 6.992 0 1.144.509 7.373 1.399 7.373Zm-8.517-7.5a161.298 161.298 0 0 1-.636-3.94c.381-.89 1.017 0 1.525 1.525.509 1.525 1.017 2.923 1.399 4.957.381 2.034-.509 2.924-1.017 2.288-.509-.635-1.017-3.432-1.271-4.83Zm-4.414 3.598c.544 1 1.449 2.78 1.836 3.545-.087.965-.966.317-1.927-.973-.959-1.29-1.879-2.46-2.876-4.273-.996-1.814-.43-2.937.252-2.492.681.445 2.039 2.944 2.715 4.193Z" fill="#376A18"/></g><defs><clipPath id="a"><path fill="#fff" d="M0 0h480v150H0z"/></clipPath></defs></svg>