<svg width="155" height="234" viewBox="0 0 155 234" fill="none" xmlns="http://www.w3.org/2000/svg">
<path d="M38.001 196.56C-5.99059 196.56 -41.5586 160.992 -41.5586 117C-41.5586 73.0079 -5.99059 37.4399 38.001 37.4399C81.993 37.4399 117.561 73.0079 117.561 117C117.561 160.992 81.993 196.56 38.001 196.56ZM38.001 46.7999C-0.842594 46.7999 -32.1986 78.1559 -32.1986 117C-32.1986 155.844 -0.842594 187.2 38.001 187.2C76.845 187.2 108.201 155.844 108.201 117C108.201 78.1559 76.845 46.7999 38.001 46.7999Z" fill="black"/>
<path d="M14.6016 157.716V76.2842L84.802 117L14.6016 157.716ZM23.962 92.1962V141.336L66.082 116.532L23.962 92.1962Z" fill="black"/>
</svg>
