<svg width="52" height="52" viewBox="0 0 52 52" fill="none" xmlns="http://www.w3.org/2000/svg">
<path fill-rule="evenodd" clip-rule="evenodd" d="M43.5851 30.5765L35.3284 17.0596C33.5183 14.2423 29.1041 14.2123 27.3575 17.1795C26.8029 18.0785 26.7785 19.2025 27.2934 20.1244L35.3307 34.5136C36.2048 36.0785 37.8704 37.0502 39.6791 37.0502C42.95 37.0502 45.3953 33.7234 43.5851 30.5765ZM32.2967 31.6263L31.8116 30.7873C31.3568 30.0081 30.3564 28.3301 30.3564 28.3301L23.6867 16.8839C21.9588 14.3369 17.866 14.1272 16.138 17.3333L8.37703 30.6074C6.77024 33.3941 8.6802 37.0198 12.1665 37.0499H28.6586H30.9659C32.7879 37.0499 33.9901 35.1758 33.2129 33.5469L32.2967 31.6263Z" fill="white"/>
</svg>
