<svg width="52" height="52" viewBox="0 0 52 52" fill="none" xmlns="http://www.w3.org/2000/svg">
<path d="M39.6822 29.8481C39.0192 30.2675 38.2391 30.3198 37.6473 29.9858C36.8941 29.5585 36.4796 28.5645 36.4796 27.178V23.0344C36.4796 21.0338 35.6884 19.6093 34.3656 19.2247C32.1251 18.571 30.4384 21.3139 29.8054 22.3459L25.8528 28.756V20.9214C25.8085 19.1171 25.2231 18.0392 24.1123 17.7132C23.375 17.4995 22.2753 17.585 21.2056 19.2215L12.3495 33.4457C11.1654 31.1938 10.5474 28.6873 10.5488 26.1429C10.5488 17.5739 17.4144 10.6035 25.8528 10.6035C34.2897 10.6035 41.1537 17.5739 41.1537 26.1429C41.16 26.1714 41.1569 26.1967 41.1585 26.2268C41.2376 27.8871 40.6996 29.2071 39.6822 29.8513V29.8481ZM44.5557 26.1445L44.5541 26.0574C44.5066 15.6224 36.1362 7.1499 25.8513 7.1499C15.5394 7.1499 7.14844 15.6698 7.14844 26.1429C7.14844 36.6144 15.5394 45.1359 25.8513 45.1359C30.5839 45.1359 35.1014 43.3363 38.5682 40.0711C39.2565 39.4222 39.2961 38.3301 38.6584 37.6321C38.508 37.4661 38.3259 37.3317 38.123 37.237C37.92 37.1422 37.7001 37.0889 37.4763 37.0802C37.2524 37.0715 37.0291 37.1076 36.8194 37.1863C36.6097 37.265 36.4178 37.3848 36.2549 37.5387C33.445 40.1999 29.7224 41.6828 25.8528 41.6823C21.3338 41.6823 17.2688 39.6833 14.465 36.5099L22.4525 23.6817V29.5965C22.4525 32.4359 23.5538 33.3539 24.4778 33.623C25.4019 33.892 26.8133 33.7084 28.2959 31.2995C29.8751 28.7449 31.5001 26.0812 33.0792 23.5757V27.178C33.0792 29.8339 34.1425 31.9579 35.9954 33.0025C37.6663 33.9474 39.7676 33.862 41.4781 32.781C43.5541 31.4704 44.6712 29.0552 44.5541 26.1445H44.5557Z" fill="white"/>
</svg>
