<svg width="52" height="52" viewBox="0 0 52 52" fill="none" xmlns="http://www.w3.org/2000/svg">
<path d="M33.1134 28.8936L37.3586 33.1398L25.874 44.6354L14.3894 33.1413L18.6331 28.8936L25.874 36.179L33.1134 28.8936ZM40.3559 21.6457L44.6339 25.8919L40.3934 30.138L36.1497 25.8919L40.3559 21.6457ZM25.874 21.6457L30.1161 25.8543L25.8724 30.1021L21.6303 25.8919L25.874 21.6457ZM11.3905 21.6457L15.5983 25.8919L11.3937 30.1005L7.14844 25.8919L11.3905 21.6457ZM25.8756 7.1499L37.3555 18.6065L33.1118 22.8511L25.8756 15.6047L18.6346 22.8902L14.3909 18.644L25.8756 7.1499Z" fill="white"/>
</svg>
