<svg width="52" height="52" viewBox="0 0 52 52" fill="none" xmlns="http://www.w3.org/2000/svg">
<path fill-rule="evenodd" clip-rule="evenodd" d="M22.4894 13.9068C20.6213 14.7529 19.0929 15.4691 19.0932 15.4982C19.094 15.5734 23.5767 17.5475 23.7359 17.5427C23.8082 17.5406 24.3333 17.3304 24.9025 17.0758L25.9378 16.6127L27.0683 17.1181L28.1988 17.6235L30.0503 16.9001C32.84 15.81 33.1298 15.6905 33.0844 15.6504C33.0241 15.5971 32.0235 15.1297 29.3087 13.8868C27.9966 13.2861 26.7232 12.6971 26.4788 12.578C26.2343 12.4588 26.001 12.3629 25.9603 12.3648C25.9195 12.3666 24.3575 13.0605 22.4894 13.9068ZM14.2959 17.5964L12.3512 18.4699V22.3036C12.3512 24.4121 12.3767 26.1372 12.408 26.1372C12.4392 26.1372 13.396 25.7765 14.5342 25.3357L16.6035 24.5342V20.4932L17.6148 20.9724C18.394 21.3412 19.1737 21.7093 19.9538 22.0767L21.2817 22.7018L21.8726 22.4695C22.2431 22.3235 22.613 22.1762 22.9821 22.0274C23.2673 21.9119 23.9674 21.6377 24.5378 21.4179C25.1082 21.198 25.6362 20.977 25.7111 20.9266C25.8106 20.8596 24.5977 20.2768 21.2252 18.7708C18.683 17.6356 16.5215 16.7104 16.4218 16.7148C16.3221 16.7192 15.3655 17.1159 14.2959 17.5964ZM33.4348 17.8417C32.1104 18.3616 31.0258 18.8078 31.0246 18.8333C31.0234 18.8586 31.7453 19.2319 32.6288 19.6626C33.5123 20.0933 34.2352 20.4688 34.2352 20.4971C34.2352 20.5252 33.4533 20.8546 32.498 21.2292C31.5424 21.6036 29.1272 22.5522 27.1306 23.337L20.441 25.9665C18.7582 26.628 17.2414 27.2243 17.0703 27.2917C13.6331 28.6448 12.6883 29.0203 12.5586 29.0847C12.4281 29.1496 12.3986 29.5266 12.3754 31.4185L12.3477 33.6751L14.0867 34.4456L15.8257 35.2162L18.237 34.2698C19.5633 33.7493 20.6484 33.2962 20.6484 33.2629C20.6484 33.2295 20.4033 33.0907 20.1039 32.9541C19.8044 32.8175 19.186 32.5152 18.7296 32.2822C18.2734 32.049 17.8183 31.8352 17.7184 31.8069C17.6186 31.7786 17.5383 31.7291 17.5399 31.6968C17.5416 31.6646 18.6035 31.226 19.8995 30.7221C22.4168 29.7434 24.3432 28.989 28.479 27.3626C30.3283 26.6355 32.178 25.9088 34.0277 25.1826C35.6535 24.5445 37.5437 23.7992 38.2282 23.5264L39.4728 23.0305L39.5006 20.7482L39.5284 18.4661L37.7645 17.6788C36.7944 17.2459 35.9652 16.8927 35.9217 16.894C35.8782 16.8952 34.7592 17.3216 33.4348 17.8417ZM39.0003 26.0752C38.7404 26.1856 38.227 26.3923 37.8594 26.5345C37.4919 26.6767 36.7944 26.9503 36.3096 27.1428L35.4279 27.4924L35.4078 29.496C35.3967 30.598 35.3501 31.4947 35.3041 31.4889C35.1997 31.4754 33.5475 30.7385 31.8866 29.9646C30.6878 29.4061 30.6125 29.3838 30.3308 29.5052C30.168 29.5754 29.1946 29.955 28.1679 30.3489C27.141 30.7428 26.2674 31.0908 26.2263 31.1223C26.1854 31.1537 28.2519 32.1278 30.8188 33.2869L35.4858 35.3943L37.4793 34.4975C38.5757 34.0043 39.508 33.5545 39.5509 33.4978C39.6476 33.3706 39.6393 25.857 39.5426 25.8671C39.5043 25.8711 39.2602 25.9648 39.0003 26.0752ZM27.9604 34.8943C27.6146 35.0236 27.2688 35.1531 26.9233 35.2827C25.8796 35.6754 26.0841 35.6884 24.8424 35.1509C24.0154 34.7929 23.6588 34.6824 23.5042 34.7361C23.3881 34.7762 22.3892 35.167 21.2842 35.6045C20.1793 36.0418 19.2369 36.3997 19.19 36.3997C18.7265 36.3997 19.4972 36.8002 22.4711 38.1047L25.9589 39.6345L27.4264 39.0045C28.2335 38.658 29.8614 37.9641 31.044 37.4625C32.2266 36.9609 33.1796 36.5374 33.1617 36.5215C33.1438 36.5055 32.1529 36.063 30.9596 35.5381L28.7901 34.584L27.9604 34.8943Z" fill="white"/>
</svg>
