<svg width="120" height="157" viewBox="0 0 120 157" fill="none" xmlns="http://www.w3.org/2000/svg">
<path d="M34.109 155.24C32.9623 155.24 31.9943 154.987 31.205 154.48C30.4157 153.968 29.8183 153.261 29.413 152.36C29.0077 151.459 28.805 150.419 28.805 149.24C28.805 148.061 29.0077 147.021 29.413 146.12C29.8183 145.219 30.4157 144.515 31.205 144.008C31.9943 143.496 32.9623 143.24 34.109 143.24C35.4477 143.24 36.541 143.584 37.389 144.272C38.237 144.955 38.8183 145.872 39.133 147.024L37.933 147.336C37.6877 146.424 37.2477 145.701 36.613 145.168C35.9783 144.635 35.1437 144.368 34.109 144.368C33.2077 144.368 32.4583 144.573 31.861 144.984C31.2637 145.395 30.813 145.968 30.509 146.704C30.2103 147.435 30.0557 148.28 30.045 149.24C30.0397 150.2 30.1863 151.045 30.485 151.776C30.789 152.507 31.2423 153.08 31.845 153.496C32.453 153.907 33.2077 154.112 34.109 154.112C35.1437 154.112 35.9783 153.845 36.613 153.312C37.2477 152.773 37.6877 152.051 37.933 151.144L39.133 151.456C38.8183 152.608 38.237 153.528 37.389 154.216C36.541 154.899 35.4477 155.24 34.109 155.24ZM44.2581 155V143.48H45.4341V153.872H50.9061V155H44.2581ZM59.8215 155.24C58.6748 155.24 57.7068 154.987 56.9175 154.48C56.1282 153.968 55.5308 153.261 55.1255 152.36C54.7202 151.459 54.5175 150.419 54.5175 149.24C54.5175 148.061 54.7202 147.021 55.1255 146.12C55.5308 145.219 56.1282 144.515 56.9175 144.008C57.7068 143.496 58.6748 143.24 59.8215 143.24C60.9735 143.24 61.9415 143.496 62.7255 144.008C63.5148 144.515 64.1122 145.219 64.5175 146.12C64.9282 147.021 65.1335 148.061 65.1335 149.24C65.1335 150.419 64.9282 151.459 64.5175 152.36C64.1122 153.261 63.5148 153.968 62.7255 154.48C61.9415 154.987 60.9735 155.24 59.8215 155.24ZM59.8215 154.112C60.7228 154.112 61.4748 153.907 62.0775 153.496C62.6802 153.085 63.1308 152.515 63.4295 151.784C63.7335 151.048 63.8855 150.2 63.8855 149.24C63.8855 148.28 63.7335 147.435 63.4295 146.704C63.1308 145.973 62.6802 145.403 62.0775 144.992C61.4748 144.581 60.7228 144.373 59.8215 144.368C58.9202 144.368 58.1708 144.573 57.5735 144.984C56.9762 145.395 56.5255 145.968 56.2215 146.704C55.9228 147.435 55.7708 148.28 55.7655 149.24C55.7602 150.2 55.9068 151.045 56.2055 151.776C56.5095 152.501 56.9628 153.072 57.5655 153.488C58.1682 153.899 58.9202 154.107 59.8215 154.112ZM73.9356 155.24C73.1303 155.24 72.405 155.107 71.7596 154.84C71.1196 154.568 70.589 154.184 70.1676 153.688C69.7516 153.192 69.4796 152.603 69.3516 151.92L70.5516 151.72C70.7436 152.467 71.149 153.053 71.7676 153.48C72.3863 153.901 73.125 154.112 73.9836 154.112C74.549 154.112 75.0556 154.024 75.5036 153.848C75.9516 153.667 76.3036 153.411 76.5596 153.08C76.8156 152.749 76.9436 152.357 76.9436 151.904C76.9436 151.605 76.8903 151.352 76.7836 151.144C76.677 150.931 76.5356 150.755 76.3596 150.616C76.1836 150.477 75.9916 150.363 75.7836 150.272C75.5756 150.176 75.373 150.099 75.1756 150.04L72.2556 149.168C71.9036 149.067 71.5783 148.939 71.2796 148.784C70.981 148.624 70.7196 148.435 70.4956 148.216C70.277 147.992 70.1063 147.731 69.9836 147.432C69.861 147.133 69.7996 146.792 69.7996 146.408C69.7996 145.757 69.9703 145.195 70.3116 144.72C70.653 144.245 71.1196 143.88 71.7116 143.624C72.3036 143.368 72.9783 143.243 73.7356 143.248C74.5036 143.248 75.189 143.384 75.7916 143.656C76.3996 143.928 76.901 144.317 77.2956 144.824C77.6903 145.325 77.9516 145.92 78.0796 146.608L76.8476 146.832C76.7676 146.331 76.5836 145.896 76.2956 145.528C76.0076 145.16 75.6396 144.877 75.1916 144.68C74.749 144.477 74.261 144.373 73.7276 144.368C73.2103 144.368 72.749 144.456 72.3436 144.632C71.9436 144.803 71.6263 145.037 71.3916 145.336C71.157 145.635 71.0396 145.976 71.0396 146.36C71.0396 146.749 71.1463 147.061 71.3596 147.296C71.5783 147.531 71.845 147.715 72.1596 147.848C72.4796 147.981 72.789 148.091 73.0876 148.176L75.3436 148.84C75.5783 148.904 75.853 148.997 76.1676 149.12C76.4876 149.237 76.797 149.408 77.0956 149.632C77.3996 149.851 77.6503 150.139 77.8476 150.496C78.045 150.853 78.1436 151.307 78.1436 151.856C78.1436 152.389 78.037 152.867 77.8236 153.288C77.6156 153.709 77.3196 154.064 76.9356 154.352C76.557 154.64 76.1116 154.859 75.5996 155.008C75.093 155.163 74.5383 155.24 73.9356 155.24ZM82.995 155V143.48H90.195V144.608H84.171V148.592H89.235V149.72H84.171V153.872H90.195V155H82.995Z" fill="white"/>
<path d="M60 119C27.4152 119 1 92.5848 1 60C1 27.4152 27.4152 1 60 1C92.5848 1 119 27.4152 119 60C119 92.5848 92.5848 119 60 119Z" stroke="white" stroke-width="2"/>
<path d="M79.2003 40.7998L40.8003 79.1998M40.8003 40.7998L79.2003 79.1998" stroke="white" stroke-width="2"/>
</svg>
