<svg width="234" height="234" viewBox="0 0 234 234" fill="none" xmlns="http://www.w3.org/2000/svg">
<path d="M117.001 196.56C73.0094 196.56 37.4414 160.992 37.4414 117C37.4414 73.0079 73.0094 37.4399 117.001 37.4399C160.993 37.4399 196.561 73.0079 196.561 117C196.561 160.992 160.993 196.56 117.001 196.56ZM117.001 46.7999C78.1574 46.7999 46.8014 78.1559 46.8014 117C46.8014 155.844 78.1574 187.2 117.001 187.2C155.845 187.2 187.201 155.844 187.201 117C187.201 78.1559 155.845 46.7999 117.001 46.7999Z" fill="white"/>
<path d="M93.6016 157.716V76.2842L163.802 117L93.6016 157.716ZM102.962 92.1962V141.336L145.082 116.532L102.962 92.1962Z" fill="white"/>
</svg>
