<svg width="52" height="52" viewBox="0 0 52 52" fill="none" xmlns="http://www.w3.org/2000/svg">
<path fill-rule="evenodd" clip-rule="evenodd" d="M28.4589 21.9873C29.3329 21.5597 30.445 20.9302 31.5584 20.0676C31.7931 20.5461 31.8189 20.9635 31.6979 21.3006C31.6122 21.5382 31.4507 21.7448 31.2383 21.9092C31.0083 22.0869 30.721 22.2162 30.4035 22.2861C29.801 22.4193 29.0976 22.3415 28.4589 21.9873ZM28.6104 26.3692L29.7673 27.0249C27.405 28.3242 26.7629 30.7367 26 33.0864C25.2372 30.7367 24.595 28.3242 22.2328 27.0249L23.3897 26.3692C23.5016 26.3276 23.5973 26.2524 23.663 26.1543C23.7287 26.0562 23.761 25.9402 23.7554 25.8229C23.6494 23.6223 24.255 22.6491 25.0717 22.0381C25.3647 21.8192 25.6845 21.7093 26 21.7093C26.3155 21.7093 26.6353 21.8192 26.9284 22.0381C27.7451 22.6491 28.3507 23.6223 28.2447 25.8229C28.2391 25.9402 28.2714 26.0562 28.3371 26.1543C28.4028 26.2524 28.4985 26.3276 28.6104 26.3692ZM26 12C27.3373 12.0352 28.678 12.29 29.8415 12.7856C30.6472 13.1292 31.399 13.5832 32.0798 14.126C32.3872 14.371 32.6404 14.6077 32.9192 14.8802C33.6713 14.9058 34.7705 14.0859 35.2808 13.3187C34.4026 16.1439 30.3951 19.4802 27.6208 20.7568C27.6196 20.7563 27.6189 20.7557 27.618 20.7551C27.1201 20.382 26.5601 20.1955 26 20.1955C25.4399 20.1955 24.88 20.382 24.3821 20.7551C24.3812 20.7556 24.3805 20.7564 24.3793 20.7568C21.6049 19.4802 17.5975 16.1439 16.7193 13.3187C17.2295 14.0859 18.3287 14.9058 19.0808 14.8802C19.3597 14.6078 19.6129 14.371 19.9202 14.126C20.601 13.5832 21.3528 13.1292 22.1585 12.7856C23.3221 12.29 24.6628 12.0352 26 12ZM23.5411 21.9873C22.6672 21.5597 21.555 20.9302 20.4417 20.0676C20.207 20.5461 20.1812 20.9635 20.3021 21.3006C20.3879 21.5382 20.5494 21.7448 20.7617 21.9092C20.9918 22.0869 21.279 22.2162 21.5966 22.2861C22.199 22.4193 22.9024 22.3415 23.5411 21.9873Z" fill="white"/>
<path fill-rule="evenodd" clip-rule="evenodd" d="M32.7778 19.0107C33.3908 18.4037 33.9309 17.7319 34.3651 17.1324L34.5857 17.5397C35.2958 18.9338 35.6648 20.3223 35.6648 21.8849L35.6632 24.3645L35.6766 25.6499C35.728 28.8056 36.4238 31.9983 38 34.9202L34.7022 32.3107L32.3688 36.0264L29.9173 33.7619L26 40L22.0827 33.762L19.6313 36.0265L17.2979 32.3108L14 34.9203C15.5762 31.9984 16.272 28.8057 16.3235 25.65L16.3369 24.3646L16.3353 21.885C16.3353 20.3223 16.7042 18.9338 17.4145 17.5398L17.635 17.1325C18.0692 17.732 18.6092 18.4037 19.2223 19.0108L19.0309 19.401C18.659 20.1589 18.5358 21.0062 18.8255 21.8121C19.0123 22.3312 19.3531 22.7763 19.7926 23.1161C20.2192 23.4461 20.7242 23.6685 21.2529 23.7854C21.5972 23.8614 21.9481 23.8927 22.2967 23.8821C22.2153 24.3345 22.1798 24.8038 22.1775 25.2819L19.0667 27.045L21.4672 28.3655C21.6591 28.471 21.8418 28.592 22.0133 28.7271C23.9925 30.4708 25.1824 35.6293 26.0001 38.149C26.8179 35.6293 28.0077 30.4708 29.987 28.7271C30.1585 28.592 30.3412 28.471 30.533 28.3655L32.9336 27.045L29.8227 25.2819C29.8204 24.8038 29.7849 24.3345 29.7035 23.8821C30.0521 23.8927 30.403 23.8614 30.7473 23.7854C31.276 23.6685 31.781 23.4461 32.2076 23.1161C32.647 22.7763 32.9879 22.3312 33.1746 21.8121C33.4644 21.0062 33.3411 20.159 32.9693 19.401L32.7779 19.0108L32.7778 19.0107Z" fill="white"/>
</svg>
