<svg width="42" height="42" viewBox="0 0 42 42" fill="none" xmlns="http://www.w3.org/2000/svg">
<g clip-path="url(#clip0_837_2498)">
<path d="M38 21.0002C38 30.1706 30.3888 37.6048 21 37.6048C11.6112 37.6048 4 30.1706 4 21.0002C4 11.8297 11.6112 4.39551 21 4.39551C30.3888 4.39551 38 11.8297 38 21.0002Z" fill="black"/>
<path fill-rule="evenodd" clip-rule="evenodd" d="M42 20.9999C42 32.3282 32.598 41.5115 21 41.5115C9.40202 41.5115 0 32.3282 0 20.9999C0 9.67165 9.40202 0.488281 21 0.488281C32.598 0.488281 42 9.67165 42 20.9999ZM21 37.6046C30.3888 37.6046 38 30.1704 38 20.9999C38 11.8295 30.3888 4.39526 21 4.39526C11.6112 4.39526 4 11.8295 4 20.9999C4 30.1704 11.6112 37.6046 21 37.6046Z" fill="#F2F2F2"/>
<path d="M19.8953 26.8477V22.0662H15V19.8952H19.8953V15.1396H22.118V19.8952H27V22.0662H22.118V26.8477H19.8953Z" fill="white"/>
</g>
<defs>
<clipPath id="clip0_837_2498">
<rect width="42" height="42" fill="white"/>
</clipPath>
</defs>
</svg>
