<svg width="52" height="52" viewBox="0 0 52 52" fill="none" xmlns="http://www.w3.org/2000/svg">
<path fill-rule="evenodd" clip-rule="evenodd" d="M25.7991 6.00023C36.7871 6.00023 45.65 14.9898 45.65 26.1873C45.65 37.2272 36.6833 46.3219 25.6436 46.2693C14.9666 46.1642 6 37.2272 6 26.1347C6 14.9898 14.8111 5.94766 25.7991 6.00023ZM10.7165 36.6489C10.6129 36.4912 10.7165 36.8592 10.7165 36.6489C11.4939 37.7529 12.5824 39.2774 13.619 40.1711C14.0855 40.5916 14.552 41.0123 15.0703 41.3803C16.5215 42.3265 18.0246 43.2202 19.6831 43.7985C21.0307 44.2716 22.4302 44.6396 23.8295 44.7973C24.9179 44.9024 26.0582 44.955 27.1467 44.7973C27.7686 44.6922 28.4424 44.6922 29.0644 44.4293C29.168 44.4819 29.2198 44.3768 29.2717 44.3768C30.5674 44.1665 31.8113 43.7459 33.0553 43.2202C37.098 41.4328 40.156 38.5415 42.1255 34.5461C43.8877 31.0238 44.4579 27.2913 43.8877 23.4011C43.3695 19.6685 41.8145 16.4092 39.3267 13.6756C36.0096 9.83792 31.7596 7.8402 26.732 7.52477C24.5033 7.36707 22.2747 7.68248 20.1496 8.41845C16.677 9.575 13.8263 11.5727 11.4939 14.4641C8.8507 17.7761 7.5549 21.5611 7.39942 25.7668C7.34758 26.8182 7.45125 27.817 7.60673 28.8684C7.91771 31.2341 8.69516 33.4946 9.88723 35.5449C10.1982 35.8604 10.4055 36.2809 10.7165 36.6489Z" fill="white"/>
<path fill-rule="evenodd" clip-rule="evenodd" d="M25.207 18.0207C26.146 17.7368 27.1296 17.6421 28.0684 18.0207C28.7838 18.3046 29.3202 18.8251 29.5438 19.6296C28.2025 18.8725 26.7271 18.3992 25.207 18.0207Z" fill="white"/>
<path fill-rule="evenodd" clip-rule="evenodd" d="M25.9348 45.5108C26.5167 45.4631 28.2263 45.192 28.0373 44.0138C27.7464 42.2007 28.2623 40.206 29.0381 38.5361C29.9594 36.5321 31.2685 34.8143 32.7232 33.1443C33.4796 32.3141 34.2883 31.5354 35.097 30.7567C35.6362 30.2376 36.1755 29.7183 36.6992 29.184C37.4265 28.4206 38.1538 27.6571 38.5417 26.655C39.1721 25.0328 38.7841 23.6968 37.378 22.6471C36.2628 21.8359 34.9536 21.4064 33.6445 21.0248C32.3837 20.643 31.123 20.1659 29.9108 19.6888C28.4077 18.973 26.8076 18.4959 25.2075 18.1141C24.1408 17.8756 23.0741 17.7325 21.9588 17.7801C20.7466 17.8279 19.6314 18.2096 18.5647 18.6391C17.2555 19.1162 16.0434 19.7842 15.0736 20.7861C14.0068 21.9314 13.425 23.2674 13.1825 24.7465C12.9886 25.7771 12.9188 26.8078 12.8489 27.8384C12.8315 28.0961 12.8141 28.3537 12.7946 28.6114C12.5521 31.3788 11.8197 34.2354 10.6559 36.812L10.3359 37.2208L10.6561 37.5396C10.6561 37.5396 11.3892 38.7632 11.6165 39.1338C12.082 39.8927 12.5663 39.8642 13.2178 40.4092C13.4855 40.6434 13.5749 40.8811 13.858 41.0469C14.0364 41.1513 14.311 41.5555 14.4984 41.6846C15.8561 42.5435 17.7499 43.489 19.3016 44.0138C20.5623 44.4433 21.1945 44.73 22.5037 44.8731C23.6025 45.92 24.9166 45.654 25.9348 45.5108ZM37.3295 28.0865C37.378 28.0388 37.4265 28.0388 37.475 28.0388L37.3295 28.1343C37.3295 28.1819 37.281 28.2297 37.2325 28.2297V28.1819C37.2325 28.1343 37.281 28.0865 37.3295 28.0865ZM22.6968 19.7369C22.6771 19.7366 22.6573 19.7364 22.6375 19.7364C20.795 19.7364 19.2919 21.1679 19.2919 22.9811C19.2919 24.7939 20.746 26.273 22.5883 26.2734C23.5172 26.2734 24.3485 25.8974 24.9498 25.2921C25.5561 24.703 25.9326 23.8933 25.9346 22.9882L25.9348 22.9811C25.9348 21.1873 24.5112 19.7672 22.6968 19.7369ZM25.3534 29.7573C26.6141 30.5207 28.0198 30.6154 29.4259 30.52C31.3655 30.4245 33.208 29.9474 34.9536 29.2317C35.6325 28.9454 36.3112 28.6591 36.9416 28.2774C36.9901 28.2297 37.0385 28.1819 37.1356 28.2297C37.1317 28.2447 37.127 28.2585 37.1215 28.2713C37.126 28.2732 37.1305 28.2753 37.1352 28.2776C37.0983 28.3864 37.0053 28.4401 36.8989 28.5015C36.8655 28.5209 36.8306 28.541 36.7957 28.5639C34.9048 29.8044 32.8197 30.5679 30.5893 30.9973C29.3286 31.2359 28.0195 31.2359 26.8073 30.8065C26.1769 30.5679 25.5959 30.1867 25.3534 29.7573ZM35.2445 26.178C35.2445 26.5517 34.9875 26.8531 34.6651 26.9251C34.6176 26.9361 34.5681 26.9419 34.5169 26.9419C34.4999 26.9419 34.4829 26.9413 34.4661 26.9401C34.0707 26.9192 33.8063 26.655 33.7906 26.263C33.7899 26.2507 33.7896 26.2386 33.7896 26.2262C33.7896 26.1009 33.8209 25.9807 33.8768 25.8758C33.991 25.6609 34.208 25.5099 34.4687 25.5099C34.9051 25.4622 35.2445 25.7962 35.2445 26.178Z" fill="white"/>
<path fill-rule="evenodd" clip-rule="evenodd" d="M24.5859 22.4335C24.5859 23.2638 23.9083 23.9663 23.0694 23.9663H23.0371C22.1982 23.9663 21.4883 23.2957 21.4883 22.4335V22.4015C21.4883 21.5393 22.1982 20.8687 23.0371 20.8687C23.8761 20.8687 24.5859 21.5712 24.5859 22.4335Z" fill="white"/>
</svg>
