<svg width="342" height="46" viewBox="0 0 342 46" fill="none" xmlns="http://www.w3.org/2000/svg">
<path d="M307.155 40.9999V33.7999L330.785 10.6639L338.004 12.7759H307.3V4.95193H341.854V12.1519L318.224 35.3359L312.016 33.1759H341.999V40.9999H307.155Z" fill="white"/>
<path d="M305.329 25.9279C304.976 29.0959 303.885 31.8799 302.057 34.2799C300.228 36.6479 297.822 38.4879 294.838 39.7999C291.886 41.1119 288.485 41.7679 284.635 41.7679C280.432 41.7679 276.758 40.9839 273.614 39.4159C270.47 37.8479 268.015 35.6559 266.251 32.8399C264.518 30.0239 263.652 26.7439 263.652 22.9999C263.652 19.2559 264.518 15.9759 266.251 13.1599C268.015 10.3439 270.47 8.15193 273.614 6.58393C276.758 5.01593 280.432 4.23193 284.635 4.23193C288.485 4.23193 291.886 4.88793 294.838 6.19993C297.822 7.51193 300.228 9.36793 302.057 11.7679C303.885 14.1359 304.976 16.9039 305.329 20.0719H295.319C294.998 18.5359 294.372 17.2399 293.442 16.1839C292.512 15.0959 291.292 14.2639 289.784 13.6879C288.309 13.1119 286.592 12.8239 284.635 12.8239C282.389 12.8239 280.448 13.2399 278.812 14.0719C277.175 14.8719 275.924 16.0399 275.058 17.5759C274.192 19.0799 273.758 20.8879 273.758 22.9999C273.758 25.1119 274.192 26.9359 275.058 28.4719C275.924 29.9759 277.175 31.1439 278.812 31.9759C280.448 32.7759 282.389 33.1759 284.635 33.1759C286.592 33.1759 288.309 32.9039 289.784 32.3599C291.292 31.8159 292.512 30.9999 293.442 29.9119C294.372 28.8239 294.998 27.4959 295.319 25.9279H305.329Z" fill="white"/>
<path d="M221.221 20.7439H234.36C235.964 20.7439 237.215 20.3759 238.113 19.6399C239.012 18.9039 239.461 17.8799 239.461 16.5679C239.461 15.2239 239.012 14.1999 238.113 13.4959C237.215 12.7599 235.964 12.3919 234.36 12.3919H219.825L224.301 7.63993V40.9999H214.339V4.99993H235.755C238.514 4.99993 240.921 5.49593 242.974 6.48793C245.028 7.44793 246.632 8.79193 247.787 10.5199C248.942 12.2159 249.519 14.2319 249.519 16.5679C249.519 18.8399 248.942 20.8399 247.787 22.5679C246.632 24.2959 245.028 25.6399 242.974 26.5999C240.921 27.5599 238.514 28.0399 235.755 28.0399H221.221V20.7439ZM226.611 24.1519H237.825L250.771 40.9999H239.22L226.611 24.1519Z" fill="white"/>
<path d="M207.941 19.3999V26.5999H181.52V19.3999H207.941ZM188.305 22.9999L185.947 37.4479L181.905 32.9359H209.529V40.9999H175.985L178.728 22.9999L175.985 4.99993H209.288V13.0639H181.905L185.947 8.55193L188.305 22.9999Z" fill="white"/>
<path d="M159.26 4.99993C162.276 4.99993 164.875 5.51193 167.056 6.53593C169.27 7.55993 170.955 9.01593 172.11 10.9039C173.265 12.7599 173.842 14.9359 173.842 17.4319C173.842 19.8959 173.265 22.0719 172.11 23.9599C170.955 25.8159 169.27 27.2559 167.056 28.2799C164.875 29.3039 162.276 29.8159 159.26 29.8159H143.619V21.8479H158.634C160.239 21.8479 161.49 21.4639 162.388 20.6959C163.287 19.8959 163.736 18.8079 163.736 17.4319C163.736 16.0239 163.287 14.9359 162.388 14.1679C161.49 13.3679 160.239 12.9679 158.634 12.9679H144.485L148.961 8.35993V40.9999H138.999V4.99993H159.26Z" fill="white"/>
<path d="M107.191 24.9199C107.191 26.5519 107.496 27.9759 108.105 29.1919C108.747 30.3759 109.677 31.2879 110.896 31.9279C112.148 32.5679 113.672 32.8879 115.468 32.8879C117.297 32.8879 118.821 32.5679 120.04 31.9279C121.26 31.2879 122.174 30.3759 122.784 29.1919C123.393 27.9759 123.698 26.5519 123.698 24.9199V4.99993H133.708V25.3999C133.708 28.6959 132.938 31.5759 131.398 34.0399C129.89 36.4719 127.773 38.3759 125.046 39.7519C122.318 41.0959 119.126 41.7679 115.468 41.7679C111.843 41.7679 108.651 41.0959 105.891 39.7519C103.164 38.3759 101.031 36.4719 99.4905 34.0399C97.9826 31.5759 97.2286 28.6959 97.2286 25.3999V4.99993H107.191V24.9199Z" fill="white"/>
<path d="M56.4766 29.1919H66.6312C66.7916 30.1839 67.2568 31.0479 68.0269 31.7839C68.7969 32.5199 69.8236 33.0959 71.1069 33.5119C72.4224 33.8959 73.9624 34.0879 75.7271 34.0879C78.1655 34.0879 80.0905 33.7839 81.5022 33.1759C82.9139 32.5359 83.6198 31.6079 83.6198 30.3919C83.6198 29.4639 83.2187 28.7439 82.4166 28.2319C81.6145 27.7199 80.0745 27.3519 77.7965 27.1279L71.0588 26.5039C66.0858 26.0559 62.4763 24.9359 60.2304 23.1439C57.9845 21.3199 56.8616 18.8719 56.8616 15.7999C56.8616 13.3039 57.5835 11.1919 59.0273 9.46393C60.5031 7.73593 62.5565 6.43993 65.1874 5.57593C67.8504 4.67993 70.9465 4.23193 74.4758 4.23193C77.9409 4.23193 81.021 4.72793 83.716 5.71993C86.4111 6.67993 88.5447 8.05593 90.1168 9.84793C91.721 11.6399 92.5873 13.7199 92.7156 16.0879H82.6091C82.4808 15.2239 82.0637 14.4879 81.3578 13.8799C80.6841 13.2399 79.7536 12.7599 78.5665 12.4399C77.3794 12.0879 75.9517 11.9119 74.2833 11.9119C72.0374 11.9119 70.2567 12.2159 68.9413 12.8239C67.6258 13.3999 66.9681 14.2639 66.9681 15.4159C66.9681 16.2479 67.3531 16.9199 68.1231 17.4319C68.9252 17.9439 70.353 18.2959 72.4064 18.4879L79.5772 19.2079C83.0102 19.5279 85.7534 20.0879 87.8068 20.8879C89.8602 21.6559 91.3521 22.7279 92.2825 24.1039C93.2129 25.4799 93.6782 27.1919 93.6782 29.2399C93.6782 31.7679 92.9242 33.9759 91.4162 35.8639C89.9083 37.7199 87.7907 39.1759 85.0636 40.2319C82.3364 41.2559 79.1601 41.7679 75.5346 41.7679C71.8128 41.7679 68.5242 41.2559 65.6687 40.2319C62.8453 39.1759 60.6315 37.7039 59.0273 35.8159C57.423 33.8959 56.5728 31.6879 56.4766 29.1919Z" fill="white"/>
<path d="M10.6579 0H51.1342L41.9132 46H0L10.6579 0Z" fill="#F68A28"/>
<path d="M5.85938 44.2042L15.4792 6.6709L49.6108 6.6709" stroke="#1C1916"/>
<path d="M0.629092 45.5L11.0553 0.5H50.524L41.5035 45.5H0.629092Z" stroke="#1C1916"/>
<path d="M5.91299 33.7153H20.4061V29.0322H7.04723H4.86544L3.87109 33.2381L5.91299 33.7153Z" fill="black" stroke="#1C1916" stroke-width="0.103303" stroke-linejoin="round"/>
<path d="M5.91299 33.7153H20.4061V29.0322H7.04723H4.70676L3.87109 33.2381L5.91299 33.7153Z" stroke="#1C1916" stroke-width="0.103303" stroke-linejoin="round"/>
<path d="M9.18654 19.5263H23.2385V14.8433H10.3838H8.11065L7.19922 19.1571L9.18654 19.5263Z" fill="black" stroke="#1C1916" stroke-width="0.103303" stroke-linejoin="round"/>
<path d="M13.1523 45.6299L17.5522 45.8108L27.9661 2.74818L27.8855 1.15203L24.1363 0.893555L23.8072 1.56177L13.1523 45.6299Z" fill="black" stroke="#1C1916" stroke-width="0.103303" stroke-linejoin="round"/>
<path d="M20.5305 33.7153H35.0236V29.0322H21.6647H21.0704C18.2507 29.0322 17.7847 33.0736 20.5305 33.7153Z" fill="black" stroke="#1C1916" stroke-width="0.103303" stroke-linejoin="round"/>
<path d="M20.5305 33.7153H35.0236V29.0322H21.6647H21.0704C18.2507 29.0322 17.7847 33.0736 20.5305 33.7153Z" stroke="#1C1916" stroke-width="0.103303" stroke-linejoin="round"/>
<path d="M23.8027 19.5263H37.8547V14.8433H25H7.84269L7.64844 16.5249L23.8027 19.5263Z" fill="black" stroke="#1C1916" stroke-width="0.103303" stroke-linejoin="round"/>
<path d="M23.7461 45.8107H28.146L38.5538 2.74814C38.4929 0.165564 36.064 1.35354 34.3949 1.56173L23.7461 45.8107Z" fill="black" stroke="#1C1916" stroke-width="0.103303" stroke-linejoin="round"/>
<path d="M31.1125 33.7144H44.2733L45.0881 28.9614H32.2467H31.6685C28.8103 28.9614 28.3315 33.0548 31.1125 33.7144Z" fill="black" stroke="#1C1916" stroke-width="0.103303" stroke-linejoin="round"/>
<path d="M34.5218 19.5962H47.0501L48.0278 14.8433H35.719H34.966C32.0545 14.8433 31.6607 19.0567 34.5218 19.5962Z" fill="black" stroke="#1C1916" stroke-width="0.103303" stroke-linejoin="round"/>
<path d="M34.5218 19.5962H47.0501L48.0278 14.8433H35.719H34.966C32.0545 14.8433 31.6607 19.0567 34.5218 19.5962Z" stroke="#1C1916" stroke-width="0.103303" stroke-linejoin="round"/>
</svg>
