<svg width="51" height="46" viewBox="0 0 51 46" fill="none" xmlns="http://www.w3.org/2000/svg">
<path d="M10.63 0H51L41.8033 46H0L10.63 0Z" fill="#F68A28"/>
<path d="M5.84375 44.2042L15.4384 6.6709L49.4804 6.6709" stroke="#1C1916"/>
<path d="M0.628721 45.5L11.0276 0.5H50.3901L41.3933 45.5H0.628721Z" stroke="#1C1916"/>
<path d="M5.89591 33.7153H20.351V29.0322H7.02718H4.85112L3.85938 33.2381L5.89591 33.7153Z" fill="black" stroke="#1C1916" stroke-width="0.103303" stroke-linejoin="round"/>
<path d="M5.89591 33.7153H20.351V29.0322H7.02718H4.69285L3.85938 33.2381L5.89591 33.7153Z" stroke="#1C1916" stroke-width="0.103303" stroke-linejoin="round"/>
<path d="M9.16179 19.5263H23.1769V14.8433H10.3559H8.08873L7.17969 19.1571L9.16179 19.5263Z" fill="black" stroke="#1C1916" stroke-width="0.103303" stroke-linejoin="round"/>
<path d="M13.1172 45.6299L17.5055 45.8108L27.8921 2.74818L27.8117 1.15203L24.0723 0.893555L23.7441 1.56177L13.1172 45.6299Z" fill="black" stroke="#1C1916" stroke-width="0.103303" stroke-linejoin="round"/>
<path d="M20.4779 33.7153H34.933V29.0322H21.6092H21.0192C18.2001 29.0322 17.7331 33.0721 20.4779 33.7153Z" fill="black" stroke="#1C1916" stroke-width="0.103303" stroke-linejoin="round"/>
<path d="M20.4779 33.7153H34.933V29.0322H21.6092H21.0192C18.2001 29.0322 17.7331 33.0721 20.4779 33.7153Z" stroke="#1C1916" stroke-width="0.103303" stroke-linejoin="round"/>
<path d="M23.7408 19.5263H37.7559V14.8433H24.9349H7.82265L7.62891 16.5249L23.7408 19.5263Z" fill="black" stroke="#1C1916" stroke-width="0.103303" stroke-linejoin="round"/>
<path d="M23.6836 45.8107H28.0719L38.4525 2.74814C38.3917 0.165564 35.9692 1.35354 34.3045 1.56173L23.6836 45.8107Z" fill="black" stroke="#1C1916" stroke-width="0.103303" stroke-linejoin="round"/>
<path d="M31.0326 33.7144H44.1588L44.9715 28.9614H32.1638H31.59C28.7324 28.9614 28.2526 33.0533 31.0326 33.7144Z" fill="black" stroke="#1C1916" stroke-width="0.103303" stroke-linejoin="round"/>
<path d="M34.4322 19.5962H46.9276L47.9028 14.8433H35.6263H34.8776C31.9666 14.8433 31.5719 19.0555 34.4322 19.5962Z" fill="black" stroke="#1C1916" stroke-width="0.103303" stroke-linejoin="round"/>
<path d="M34.4322 19.5962H46.9276L47.9028 14.8433H35.6263H34.8776C31.9666 14.8433 31.5719 19.0555 34.4322 19.5962Z" stroke="#1C1916" stroke-width="0.103303" stroke-linejoin="round"/>
</svg>
