<svg width="150" height="171" viewBox="0 0 150 171" fill="none" xmlns="http://www.w3.org/2000/svg">
<g clip-path="url(#clip0_528_859)">
<path d="M137.167 53.086L124.944 42.8663V22.1119C124.944 19.5147 121.895 18.0961 119.899 19.7682L108.604 29.2094L94.4788 17.4024L84.742 25.5405C89.8225 21.2936 89.8225 13.5067 84.742 9.25978L75.0051 17.3979C80.0857 13.151 80.0857 5.36414 75.0051 1.11719L41.4062 29.2004L30.1158 19.7594C28.1158 18.0873 25.0666 19.5059 25.0666 22.1029V42.8575L12.8432 53.0726C9.70919 55.692 7.90112 59.552 7.90112 63.6256V91.7755L15.1156 85.7453V114.256L42.1206 91.6822L50.1296 98.3751L70.0408 81.7295C72.9114 79.3326 77.0946 79.3326 79.9651 81.7295L99.8762 98.3751L107.885 91.6822L134.89 114.256V85.7453L142.105 91.7755V63.6256C142.105 59.552 140.297 55.692 137.163 53.0726" fill="#595A5A"/>
<path d="M107.888 90.5702C108.147 90.5702 108.406 90.6591 108.615 90.8371L133.759 111.849V85.7628C133.759 85.3227 134.013 84.9224 134.415 84.74C134.817 84.5577 135.286 84.6156 135.625 84.9002L140.973 89.3695V63.6432C140.973 59.8987 139.321 56.3678 136.437 53.9574L124.214 43.7382C123.955 43.5247 123.808 43.2089 123.808 42.8709V22.1209C123.808 21.3516 123.388 20.6978 122.687 20.3732C121.986 20.0441 121.214 20.1463 120.62 20.6445L109.325 30.0811C108.906 30.4324 108.289 30.4324 107.865 30.0811L94.4722 18.8879L85.4765 26.4078C85.4765 26.4078 85.4676 26.4168 85.463 26.4168C84.9853 26.8169 84.2667 26.7592 83.8647 26.2789C83.463 25.7987 83.5256 25.087 84.0077 24.6869C86.1685 22.8724 87.4095 20.2264 87.4095 17.4115C87.4095 14.9122 86.4319 12.5419 84.6997 10.7764L75.7263 18.2742C75.2486 18.6745 74.5299 18.6166 74.1281 18.1362C73.7263 17.656 73.7887 16.9445 74.2664 16.5442C76.4316 14.7343 77.6728 12.0838 77.6728 9.26882C77.6728 6.76956 76.6951 4.39927 74.9629 2.63378L42.1274 30.0767C41.7077 30.428 41.0916 30.428 40.6675 30.0767L29.3726 20.6355C28.7789 20.1419 28.011 20.0396 27.3101 20.3643C26.6091 20.6889 26.1896 21.3426 26.1896 22.1119V42.8621C26.1896 43.1955 26.0422 43.5113 25.7832 43.7292L13.5598 53.9484C10.6803 56.3588 9.02401 59.8897 9.02401 63.6342V89.3606L14.3723 84.8913C14.7116 84.6066 15.1804 84.5488 15.5821 84.7312C15.9795 84.918 16.2385 85.3181 16.2385 85.754V111.841L41.3818 90.8281C41.8015 90.4724 42.4176 90.4724 42.8417 90.8281L50.123 96.9118L69.3065 80.88C72.6011 78.1228 77.3915 78.1228 80.6907 80.88L99.874 96.9118L107.155 90.8281C107.365 90.6503 107.624 90.5613 107.883 90.5613M134.888 115.394C134.625 115.394 134.366 115.305 134.161 115.127L107.883 93.1628L100.602 99.2465C100.182 99.5977 99.5661 99.5977 99.1419 99.2465L79.2308 82.6055C76.7798 80.5554 73.2174 80.5554 70.7664 82.6055L50.8552 99.2465C50.4356 99.5977 49.8195 99.5977 49.3954 99.2465L42.1139 93.1628L15.8367 115.122C15.4973 115.407 15.0286 115.465 14.6268 115.283C14.225 115.096 13.9705 114.696 13.9705 114.26V88.1732L8.62221 92.6425C8.28292 92.9271 7.81417 92.9849 7.41237 92.8027C7.01058 92.6159 6.7561 92.2156 6.7561 91.7798V63.6298C6.7561 59.2139 8.70257 55.0514 12.1 52.2097L23.9172 42.3328V22.1075C23.9172 20.4621 24.8457 19.0035 26.3459 18.3098C27.8414 17.6116 29.5601 17.8383 30.828 18.8967L41.3907 27.7286L74.2753 0.263489C74.695 -0.0878297 75.3111 -0.0878297 75.7352 0.263489C78.4138 2.50037 79.9496 5.78675 79.9496 9.26882C79.9496 10.2294 79.8334 11.1722 79.6058 12.0838L84.0121 8.40163C84.4318 8.05032 85.0479 8.05032 85.472 8.40163C88.1506 10.6385 89.6864 13.9249 89.6864 17.4069C89.6864 18.3675 89.5703 19.3103 89.3427 20.222L93.749 16.5398C94.1685 16.1884 94.7848 16.1884 95.2087 16.5398L108.602 27.7331L119.165 18.9056C120.432 17.8473 122.147 17.6204 123.647 18.3186C125.147 19.0123 126.076 20.4711 126.076 22.1165V42.3417L137.893 52.2231C141.29 55.0648 143.237 59.2227 143.237 63.6432V91.7931C143.237 92.2334 142.982 92.6337 142.58 92.8159C142.178 92.9983 141.71 92.9405 141.37 92.6559L136.022 88.1866V114.273C136.022 114.713 135.768 115.114 135.366 115.296C135.214 115.367 135.049 115.403 134.888 115.403" fill="#010101"/>
<path d="M137.245 130.759C136.937 130.759 136.655 130.644 136.45 130.43C136.236 130.217 136.111 129.932 136.111 129.63C136.111 129.327 136.236 129.043 136.45 128.829C136.856 128.411 137.62 128.398 138.048 128.829C138.093 128.887 138.151 128.94 138.187 128.998C138.231 129.065 138.267 129.136 138.289 129.203C138.325 129.269 138.348 129.336 138.356 129.416C138.379 129.483 138.379 129.563 138.379 129.63C138.379 129.776 138.356 129.923 138.298 130.061C138.24 130.195 138.151 130.319 138.048 130.435C137.834 130.648 137.548 130.764 137.245 130.764" fill="#010101"/>
<path d="M124.94 59.7424C124.315 59.7424 123.806 59.2355 123.806 58.6129V42.8659C123.806 42.2433 124.315 41.7363 124.94 41.7363C125.565 41.7363 126.074 42.2433 126.074 42.8659V58.6129C126.074 59.2399 125.565 59.7424 124.94 59.7424Z" fill="#010101"/>
<path d="M73.5141 96.9705L64.5542 86.3331L55.2951 94.0709C52.304 96.5702 47.9466 96.5702 44.9555 94.0709L32.2722 83.4692C29.4151 81.0811 25.0579 83.1046 25.0579 86.8178V98.8961C25.0579 100.853 25.9285 102.707 27.4329 103.966L35.442 110.659L46.2815 119.722L73.5097 96.9661L73.5141 96.9705Z" fill="#F3C417"/>
<path d="M54.4087 83.0544L65.6365 73.6712C68.5429 71.243 68.5429 66.7916 65.6365 64.3678L40.6897 43.5156V76.6863C40.6897 83.7527 48.9755 87.5994 54.4087 83.059" fill="white"/>
<path d="M41.8216 45.9386V76.6857C41.8216 79.5096 43.4199 82.0045 45.9869 83.2007C48.5583 84.3924 51.5004 84.0056 53.6745 82.1911L64.9025 72.8079C66.0275 71.865 66.6748 70.4865 66.6748 69.0189C66.6748 67.5514 66.0275 66.1728 64.9025 65.23L41.8216 45.9386ZM49.0628 86.149C47.7012 86.149 46.3306 85.8556 45.0315 85.2507C41.652 83.681 39.5537 80.3991 39.5537 76.6857V43.5152C39.5537 43.0748 39.8082 42.6746 40.21 42.4923C40.6072 42.3099 41.0805 42.3678 41.4198 42.6523L66.3667 63.5045C68.0096 64.8788 68.9516 66.8888 68.9516 69.0235C68.9516 71.1579 68.0096 73.168 66.3667 74.5423L55.1389 83.9255C53.3843 85.3931 51.2415 86.1536 49.0672 86.1536" fill="#010101"/>
<path d="M95.6003 83.0544L84.3724 73.6712C81.466 71.243 81.466 66.7916 84.3724 64.3678L109.319 43.5156V76.6863C109.319 83.7527 101.033 87.5994 95.6003 83.059" fill="white"/>
<path d="M108.182 45.9394L85.1014 65.2308C83.9764 66.1737 83.329 67.5523 83.329 69.0199C83.329 70.4873 83.9764 71.866 85.1014 72.8087L96.3292 82.1921C98.499 84.0065 101.445 84.3934 104.017 83.2016C106.588 82.0053 108.182 79.5104 108.182 76.6865V45.9394ZM100.941 86.15C98.7669 86.15 96.624 85.3939 94.8695 83.922L83.6415 74.5387C81.9987 73.1644 81.0566 71.1545 81.0566 69.0199C81.0566 66.8852 81.9987 64.8752 83.6415 63.501L108.589 42.6484C108.928 42.3639 109.397 42.306 109.798 42.4884C110.2 42.6751 110.455 43.0753 110.455 43.5113V76.6821C110.455 80.3955 108.356 83.6774 104.977 85.2473C103.678 85.8476 102.303 86.1456 100.945 86.1456" fill="#010101"/>
<path d="M142.112 92.9274C141.951 92.9274 141.804 92.8919 141.67 92.8385C141.531 92.7806 141.411 92.7051 141.308 92.5894C141.094 92.3759 140.978 92.0914 140.978 91.7978C140.978 91.5044 141.094 91.2109 141.308 90.9974C141.411 90.8951 141.536 90.8062 141.67 90.7483C141.884 90.6684 142.112 90.6372 142.326 90.6906C142.393 90.7039 142.473 90.7261 142.54 90.7483C142.607 90.784 142.679 90.815 142.732 90.8506C142.799 90.8951 142.857 90.9396 142.902 90.9974C143.116 91.2109 143.241 91.4955 143.241 91.7978C143.241 92.1004 143.116 92.3759 142.902 92.5894C142.799 92.7051 142.674 92.7806 142.54 92.8385C142.402 92.8964 142.255 92.9274 142.107 92.9274" fill="#010101"/>
<path d="M56.2868 72.351C57.5547 71.2927 58.2824 69.7317 58.2824 68.0863V58.2227L47.0991 48.875V68.0819C47.0991 72.8135 52.6484 75.3883 56.2823 72.3466" fill="#010101"/>
<path d="M48.2386 51.3021V68.0852C48.2386 69.8552 49.2028 71.3584 50.81 72.1099C52.4216 72.8615 54.194 72.6258 55.5557 71.4874C56.5691 70.6424 57.1493 69.4016 57.1493 68.0852V58.7509L48.2386 51.3021ZM52.7118 74.7959C51.7475 74.7959 50.7743 74.5868 49.8501 74.1555C47.4572 73.0437 45.9661 70.718 45.9661 68.0852V48.8783C45.9661 48.4382 46.2206 48.0379 46.6224 47.8555C47.0242 47.6732 47.493 47.7311 47.8322 48.0156L59.0155 57.3634C59.2744 57.5768 59.4218 57.8926 59.4218 58.2306V68.0942C59.4218 70.0776 58.5468 71.9498 57.02 73.2261C55.7744 74.2668 54.2565 74.8049 52.7162 74.8049" fill="#010101"/>
<path d="M93.7158 72.351C92.448 71.2927 91.7202 69.7317 91.7202 68.0863V58.2227L102.903 48.875V68.0819C102.903 72.8135 97.3542 75.3883 93.7203 72.3466" fill="#010101"/>
<path d="M94.4443 71.4874C95.8059 72.6259 97.5828 72.8616 99.1944 72.1101C100.806 71.363 101.766 69.8598 101.766 68.0854V51.3021L92.8551 58.751V68.0854C92.8551 69.4018 93.4355 70.6381 94.4443 71.4874ZM97.2926 74.796C95.7524 74.796 94.2346 74.258 92.989 73.2173C91.4622 71.9411 90.5872 70.0688 90.5872 68.0854V58.2218C90.5872 57.8882 90.7344 57.5726 90.9934 57.3546L102.177 48.0068C102.516 47.7223 102.985 47.6644 103.387 47.8468C103.788 48.0336 104.043 48.4337 104.043 48.8697V68.0765C104.043 70.7092 102.556 73.0351 100.159 74.1468C99.2391 74.5738 98.2613 74.7872 97.2971 74.7872" fill="#010101"/>
<path d="M94.896 69.5894C94.2709 69.5894 93.762 69.0824 93.762 68.4598V60.1794C93.762 59.5524 94.2709 59.0498 94.896 59.0498C95.5209 59.0498 96.0299 59.5568 96.0299 60.1794V68.4598C96.0299 69.087 95.5209 69.5894 94.896 69.5894Z" fill="white"/>
<path d="M88.4043 62.1265C88.0783 62.1265 87.7569 61.9887 87.5337 61.7218C87.1319 61.246 87.1944 60.5301 87.6721 60.1298L116.664 35.8977C117.141 35.4974 117.86 35.5597 118.262 36.0355C118.664 36.5159 118.601 37.2273 118.124 37.6276L89.132 61.8597C88.9221 62.0376 88.6587 62.1265 88.4043 62.1265Z" fill="#010101"/>
<path d="M50.2781 69.5894C49.653 69.5894 49.144 69.0824 49.144 68.4598V60.1794C49.144 59.5524 49.653 59.0498 50.2781 59.0498C50.903 59.0498 51.412 59.5568 51.412 60.1794V68.4598C51.412 69.087 50.903 69.5894 50.2781 69.5894Z" fill="white"/>
<path d="M30.1129 19.7777C28.1129 18.1056 25.0637 19.5242 25.0637 22.1214V58.6096L26.2558 57.6134C28.6977 55.5723 30.1085 52.5571 30.1085 49.3818V19.7777H30.1129Z" fill="#908F8F"/>
<path d="M77.9988 5.19063L75.0032 1.12598L41.4043 29.2093L45.3285 32.4957L77.9988 5.19063Z" fill="#908F8F"/>
<path d="M94.4795 17.4072L84.7427 25.5454H88.6715C91.2072 25.5454 93.6626 24.656 95.6045 23.0329L98.4081 20.6892L94.4795 17.4072Z" fill="#908F8F"/>
<path d="M20.1618 85.7581C20.1618 83.8059 19.0234 82.0271 17.2466 81.2043C16.5635 80.8885 15.8359 80.7329 15.1126 80.7329C14.3894 80.7329 13.626 80.8975 12.9474 81.2177V63.6384C12.9474 61.0457 14.0903 58.6043 16.0858 56.9366L25.0638 49.43V42.8662L12.8403 53.081C9.70626 55.7003 7.89819 59.5604 7.89819 63.6339V91.784L15.1126 85.7537V114.264L20.1618 110.044V85.7493V85.7581Z" fill="#908F8F"/>
<path d="M124.94 22.1165C124.94 19.5193 121.891 18.1008 119.891 19.7728L85.1582 48.8033H89.0868C91.6226 48.8033 94.078 47.9138 96.02 46.2906L124.94 22.1209V22.1165Z" fill="#908F8F"/>
<path d="M86.2339 11.3009L84.7384 9.26855L65.2603 25.5492H69.1889C71.7246 25.5492 74.1801 24.6599 76.1221 23.0367L87.7295 13.3376L86.2339 11.3053V11.3009Z" fill="#908F8F"/>
<path d="M65.2657 26.6791C64.9396 26.6791 64.6182 26.5413 64.395 26.2744C63.9933 25.7942 64.0557 25.0825 64.5334 24.6824L74.2702 16.5442C74.7479 16.1439 75.4667 16.2062 75.8685 16.6821C76.2703 17.1579 76.2078 17.8738 75.7301 18.2741L65.9933 26.4123C65.7835 26.5901 65.52 26.6791 65.2657 26.6791Z" fill="#010101"/>
<path d="M42.7862 105.659C42.5273 105.659 42.2684 105.57 42.0586 105.392L31.8797 96.8848C31.3976 96.4845 31.3351 95.7686 31.7413 95.2928C32.1431 94.8124 32.8619 94.7502 33.3396 95.1549L43.5183 103.662C44.0006 104.062 44.0631 104.778 43.6569 105.254C43.4335 105.521 43.1121 105.659 42.7862 105.659Z" fill="#010101"/>
<path d="M76.4917 96.9695L85.4517 86.3322L94.7109 94.0701C97.702 96.5694 102.059 96.5694 105.05 94.0701L117.734 83.4682C120.591 81.0801 124.948 83.1036 124.948 86.8168V98.8951C124.948 100.852 124.078 102.706 122.573 103.965L114.564 110.658L103.72 119.721L76.4917 96.9651V96.9695Z" fill="#F3C417"/>
<path d="M107.22 105.659C106.894 105.659 106.573 105.521 106.35 105.254C105.948 104.778 106.01 104.062 106.488 103.662L116.667 95.155C117.144 94.7547 117.863 94.8126 118.265 95.2928C118.667 95.7732 118.604 96.4847 118.127 96.8849L107.948 105.392C107.738 105.57 107.475 105.659 107.22 105.659Z" fill="#010101"/>
<path d="M61.5991 62.1258C61.3402 62.1258 61.0812 62.0369 60.8715 61.8589L31.8797 37.6271C31.3976 37.2268 31.3351 36.5154 31.7413 36.035C32.1431 35.5548 32.8619 35.4969 33.3396 35.8972L62.3312 60.1291C62.8134 60.5293 62.876 61.2453 62.4696 61.7211C62.2464 61.988 61.925 62.1258 61.5991 62.1258Z" fill="#010101"/>
<path d="M78.0911 96.8317L103.721 118.253L121.842 103.106C123.092 102.062 123.811 100.527 123.811 98.9041V86.8258C123.811 85.5316 123.11 84.4332 121.931 83.8863C120.753 83.3393 119.458 83.5083 118.463 84.3399L105.779 94.9372C102.364 97.7967 97.3996 97.7967 93.9844 94.9372L85.5959 87.9287L78.0957 96.8317H78.0911ZM103.721 120.859C103.462 120.859 103.203 120.77 102.993 120.592L75.7652 97.8368C75.2831 97.4365 75.2206 96.725 75.6268 96.2448L84.5869 85.6073C84.7788 85.376 85.0556 85.2338 85.3592 85.207C85.6583 85.1804 85.9574 85.2737 86.1852 85.4695L95.4441 93.2073C98.0157 95.3597 101.752 95.3597 104.324 93.2073L117.007 82.6056C118.672 81.2136 120.927 80.9201 122.896 81.8317C124.864 82.7478 126.088 84.6601 126.088 86.8214V98.8997C126.088 101.194 125.074 103.36 123.311 104.836L104.458 120.592C104.248 120.77 103.989 120.859 103.73 120.859" fill="#010101"/>
<path d="M29.4742 83.5653C29.0054 83.5653 28.5321 83.672 28.0767 83.8809C26.8982 84.428 26.1973 85.5264 26.1973 86.8205V98.8988C26.1973 100.526 26.9161 102.056 28.1661 103.101L46.2869 118.248L71.917 96.8265L64.4168 87.9233L56.0282 94.9319C52.6129 97.7915 47.6485 97.7915 44.2333 94.9319L31.5502 84.3301C30.9385 83.8232 30.2153 83.5607 29.4786 83.5607M46.2915 120.85C46.0325 120.85 45.7735 120.761 45.5637 120.583L26.7107 104.827C24.9428 103.35 23.9338 101.189 23.9338 98.8898V86.8115C23.9338 84.6503 25.1571 82.7381 27.1259 81.822C29.0948 80.9059 31.3492 81.2038 33.0143 82.5957L45.6976 93.1976C48.2736 95.35 52.0059 95.35 54.5773 93.1976L63.8364 85.4597C64.0686 85.2684 64.3633 85.1707 64.6624 85.1973C64.9614 85.224 65.2382 85.3663 65.4347 85.5976L74.3946 96.235C74.7964 96.7153 74.7339 97.4268 74.2562 97.8271L47.028 120.583C46.8182 120.761 46.5593 120.85 46.3004 120.85" fill="#010101"/>
<path d="M70.0421 81.7514L1.13892 139.341L69.185 114.669C71.0644 113.988 73.0332 113.646 75.0021 113.646V79.9502C73.2387 79.9502 71.4751 80.5505 70.0421 81.7514Z" fill="#F3C417"/>
<path d="M79.9673 81.7514C78.5342 80.5505 76.7663 79.9502 75.0029 79.9502V113.646C76.9716 113.646 78.9404 113.988 80.8199 114.669L148.866 139.341L79.9673 81.7514Z" fill="#F99E1C"/>
<path d="M75.001 129.455L50.6924 138.269L75.001 152.251L99.314 138.269L75.001 129.455Z" fill="#C22026"/>
<path d="M50.6923 138.27L31.1384 145.358L66.4962 165.695C69.1302 167.207 72.0633 167.967 75.0009 167.967V152.256L50.6923 138.274V138.27Z" fill="#F27121"/>
<path d="M99.3158 138.27L75.0029 152.252V167.963C77.9405 167.963 80.878 167.208 83.5075 165.691L118.865 145.354L99.3113 138.266L99.3158 138.27Z" fill="#E45625"/>
<path d="M33.8136 145.594L67.0643 164.716C71.8857 167.492 78.1225 167.492 82.9397 164.716L116.19 145.594L99.4221 139.515L75.5689 153.234C75.2162 153.434 74.7832 153.434 74.435 153.234L50.5818 139.515L33.8136 145.594ZM75.0019 169.096C71.8233 169.096 68.6848 168.261 65.9303 166.672L30.5725 146.336C30.1929 146.118 29.9698 145.696 30.01 145.26C30.0457 144.82 30.3359 144.446 30.751 144.295L50.305 137.207C50.622 137.091 50.9702 137.122 51.2604 137.291L75.0064 150.948L98.748 137.291C99.0382 137.122 99.3864 137.091 99.7034 137.207L119.257 144.295C119.673 144.446 119.963 144.82 119.998 145.26C120.038 145.696 119.815 146.118 119.436 146.336L84.078 166.672C81.3235 168.256 78.185 169.096 75.0064 169.096" fill="#010101"/>
<path d="M69.185 114.669L1.13892 139.341L12.2909 145.754C16.6437 148.257 21.8894 148.716 26.6127 147.003L75.0021 129.46V113.65C73.0332 113.65 71.0644 113.993 69.185 114.673" fill="#F99E1C"/>
<path d="M80.8199 114.669C78.9404 113.989 76.9716 113.646 75.0029 113.646V129.456L123.392 147C128.115 148.712 133.361 148.254 137.714 145.75L148.862 139.337L80.8154 114.665L80.8199 114.669Z" fill="#F27121"/>
<path d="M3.81275 139.573L12.8576 144.776C16.9336 147.12 21.8042 147.546 26.224 145.941L74.6132 128.397C74.8633 128.308 75.14 128.308 75.3901 128.397L123.779 145.941C128.204 147.542 133.074 147.12 137.146 144.776L146.186 139.577L80.4303 115.736C76.9393 114.469 73.0641 114.469 69.5685 115.736L3.81275 139.573ZM20.7863 149.156C17.6434 149.156 14.5183 148.338 11.7191 146.733L0.567156 140.32C0.187685 140.102 -0.0355339 139.68 0.00464547 139.244C0.0448249 138.803 0.330545 138.43 0.745731 138.279L68.7917 113.611C72.7829 112.161 77.2116 112.161 81.2026 113.611L149.249 138.279C149.664 138.43 149.954 138.803 149.99 139.244C150.03 139.68 149.807 140.102 149.427 140.32L138.275 146.733C133.619 149.41 128.047 149.894 122.998 148.062L74.9972 130.661L26.9962 148.067C24.9784 148.8 22.8756 149.161 20.7863 149.161" fill="#010101"/>
<path d="M75.0056 112.521C77.1307 112.521 79.22 112.886 81.211 113.611L143.208 136.086L79.2378 82.6147C76.7823 80.5648 73.2243 80.5648 70.7733 82.6147L6.79886 136.086L68.7956 113.611C70.7868 112.886 72.8761 112.521 75.0012 112.521M148.864 140.471C148.735 140.471 148.605 140.449 148.476 140.405L80.4298 115.737C76.9431 114.469 73.0547 114.469 69.5724 115.737L1.52645 140.4C1.01304 140.591 0.432676 140.378 0.155885 139.902C-0.120907 139.426 -0.013762 138.826 0.410354 138.47L69.3091 80.8804C72.6082 78.1232 77.394 78.1232 80.6932 80.8804L149.592 138.47C150.016 138.821 150.123 139.426 149.846 139.902C149.637 140.258 149.257 140.467 148.864 140.467" fill="#010101"/>
<path d="M75.0008 141.987C74.3759 141.987 73.8669 141.48 73.8669 140.858V129.46C73.8669 128.837 74.3759 128.33 75.0008 128.33C75.6259 128.33 76.1349 128.837 76.1349 129.46V140.858C76.1349 141.48 75.6259 141.987 75.0008 141.987Z" fill="#010101"/>
<path d="M68.1497 93.2695L60.1094 99.989H68.1497V93.2695Z" fill="#010101"/>
<path d="M63.23 98.8556H67.0158V95.6893L63.23 98.8556ZM68.1499 101.115H60.1096C59.6318 101.115 59.2077 100.817 59.0426 100.372C58.8773 99.9273 59.0158 99.4249 59.3773 99.1181L67.4176 92.3984C67.757 92.1139 68.2258 92.056 68.6276 92.2384C69.0293 92.4252 69.2837 92.8253 69.2837 93.2613V99.9808C69.2837 100.608 68.7748 101.11 68.1499 101.11" fill="#010101"/>
<path d="M81.8547 93.2695L89.895 99.989H81.8547V93.2695Z" fill="#010101"/>
<path d="M82.9943 98.855H86.7801L82.9943 95.6887V98.855ZM89.8963 101.114H81.8558C81.2309 101.114 80.7219 100.607 80.7219 99.9846V93.2651C80.7219 92.8248 80.9763 92.4246 81.3781 92.2422C81.7754 92.06 82.2487 92.1177 82.588 92.4024L90.6284 99.1219C90.9945 99.4243 91.1284 99.9269 90.9631 100.376C90.8024 100.825 90.3738 101.119 89.8963 101.119" fill="#010101"/>
<path d="M41.8216 45.9386V76.6857C41.8216 79.5096 43.4199 82.0045 45.9869 83.2007C48.5583 84.3924 51.5004 84.0056 53.6745 82.1911L64.9025 72.8079C66.0275 71.865 66.6748 70.4865 66.6748 69.0189C66.6748 67.5514 66.0275 66.1728 64.9025 65.23L41.8216 45.9386ZM49.0628 86.149C47.7012 86.149 46.3306 85.8556 45.0315 85.2507C41.652 83.681 39.5537 80.3991 39.5537 76.6857V43.5152C39.5537 43.0748 39.8082 42.6746 40.21 42.4923C40.6072 42.3099 41.0805 42.3678 41.4198 42.6523L66.3667 63.5045C68.0096 64.8788 68.9516 66.8888 68.9516 69.0235C68.9516 71.1579 68.0096 73.168 66.3667 74.5423L55.1389 83.9255C53.3843 85.3931 51.2415 86.1536 49.0672 86.1536" fill="#010101"/>
<path d="M108.182 45.9394L85.1014 65.2308C83.9764 66.1737 83.329 67.5523 83.329 69.0199C83.329 70.4873 83.9764 71.866 85.1014 72.8087L96.3292 82.1921C98.499 84.0065 101.445 84.3934 104.017 83.2016C106.588 82.0053 108.182 79.5104 108.182 76.6865V45.9394ZM100.941 86.15C98.7669 86.15 96.624 85.3939 94.8695 83.922L83.6415 74.5387C81.9987 73.1644 81.0566 71.1545 81.0566 69.0199C81.0566 66.8852 81.9987 64.8752 83.6415 63.501L108.589 42.6484C108.928 42.3639 109.397 42.306 109.798 42.4884C110.2 42.6751 110.455 43.0753 110.455 43.5113V76.6821C110.455 80.3955 108.356 83.6774 104.977 85.2473C103.678 85.8476 102.303 86.1456 100.945 86.1456" fill="#010101"/>
<path d="M134.893 115.403C134.629 115.403 134.37 115.314 134.165 115.136L121.839 104.836C121.357 104.436 121.294 103.72 121.7 103.244C122.102 102.764 122.821 102.706 123.299 103.106L133.759 111.849V85.7628C133.759 85.3227 134.013 84.9224 134.415 84.74C134.817 84.5577 135.286 84.6156 135.625 84.9002L140.973 89.3695V63.6432C140.973 59.8987 139.321 56.3678 136.437 53.9574L124.214 43.7382C123.955 43.5247 123.808 43.2089 123.808 42.8709V22.1209C123.808 21.3516 123.388 20.6978 122.687 20.3732C121.986 20.0441 121.214 20.1463 120.62 20.6445L109.325 30.0811C108.906 30.4324 108.289 30.4324 107.865 30.0811L94.4722 18.8879L85.4765 26.4078C85.4765 26.4078 85.4676 26.4168 85.463 26.4168C84.9853 26.8169 84.2667 26.7592 83.8647 26.2789C83.463 25.7987 83.5256 25.087 84.0077 24.6869C86.1685 22.8724 87.4095 20.2264 87.4095 17.4115C87.4095 14.9122 86.4319 12.5419 84.6997 10.7764L75.7263 18.2742C75.2486 18.6745 74.5299 18.6166 74.1281 18.1362C73.7263 17.656 73.7887 16.9445 74.2664 16.5442C76.4316 14.7343 77.6728 12.0838 77.6728 9.26882C77.6728 6.76956 76.6951 4.39927 74.9629 2.63378L42.1274 30.0767C41.7077 30.428 41.0916 30.428 40.6675 30.0767L29.3726 20.6355C28.7789 20.1419 28.011 20.0396 27.3101 20.3643C26.6091 20.6889 26.1896 21.3426 26.1896 22.1119V42.8621C26.1896 43.1955 26.0422 43.5113 25.7832 43.7292L13.5598 53.9484C10.6803 56.3588 9.02401 59.8897 9.02401 63.6342V89.3606L14.3723 84.8913C14.7116 84.6066 15.1804 84.5488 15.5821 84.7312C15.9795 84.918 16.2385 85.3181 16.2385 85.754V111.841L26.6985 103.098C27.1762 102.697 27.895 102.755 28.2968 103.235C28.6986 103.711 28.636 104.427 28.1583 104.828L15.8367 115.127C15.4973 115.412 15.0286 115.469 14.6268 115.287C14.225 115.1 13.9705 114.7 13.9705 114.264V88.1776L8.62221 92.6469C8.28292 92.9317 7.81417 92.9894 7.41237 92.8071C7.01058 92.6203 6.7561 92.22 6.7561 91.7843V63.6342C6.7561 59.2183 8.70257 55.0558 12.1 52.2141L23.9172 42.3373V22.1119C23.9172 20.4665 24.8457 19.0079 26.3459 18.3142C27.8414 17.616 29.5601 17.8428 30.828 18.9012L41.3907 27.7331L74.2753 0.263489C74.695 -0.0878297 75.3111 -0.0878297 75.7352 0.263489C78.4138 2.50037 79.9496 5.78675 79.9496 9.26882C79.9496 10.2294 79.8334 11.1722 79.6058 12.0838L84.0121 8.40163C84.4318 8.05032 85.0479 8.05032 85.472 8.40163C88.1506 10.6385 89.6864 13.9249 89.6864 17.4069C89.6864 18.3675 89.5703 19.3103 89.3427 20.222L93.749 16.5398C94.1685 16.1884 94.7848 16.1884 95.2087 16.5398L108.602 27.7331L119.165 18.9056C120.432 17.8473 122.147 17.6204 123.647 18.3186C125.147 19.0123 126.076 20.4711 126.076 22.1165V42.3417L137.893 52.2231C141.29 55.0648 143.237 59.2227 143.237 63.6432V91.7931C143.237 92.2334 142.982 92.6337 142.58 92.8159C142.178 92.9983 141.71 92.9405 141.37 92.6559L136.022 88.1866V114.273C136.022 114.713 135.768 115.114 135.366 115.296C135.214 115.367 135.049 115.403 134.888 115.403" fill="#010101"/>
<path d="M85.1636 49.933C84.8376 49.933 84.5162 49.7951 84.293 49.5283C83.8912 49.0524 83.9537 48.3365 84.4314 47.9362L107.874 28.3424C108.351 27.9423 109.07 28 109.472 28.4804C109.874 28.9606 109.811 29.6722 109.334 30.0724L85.8913 49.6661C85.6814 49.844 85.418 49.933 85.1636 49.933Z" fill="#010101"/>
<path d="M25.0648 59.7424C24.4398 59.7424 23.9309 59.2355 23.9309 58.6129V42.8659C23.9309 42.2433 24.4398 41.7363 25.0648 41.7363C25.6899 41.7363 26.1988 42.2433 26.1988 42.8659V58.6129C26.1988 59.2399 25.6899 59.7424 25.0648 59.7424Z" fill="#010101"/>
<path d="M64.8406 49.9327C64.5817 49.9327 64.3227 49.8438 64.113 49.6659L40.6749 30.0723C40.1927 29.672 40.1303 28.956 40.5365 28.4802C40.9383 27.9999 41.6571 27.9377 42.1348 28.3424L65.5772 47.936C66.0593 48.3363 66.1219 49.0522 65.7157 49.528C65.4924 49.7949 65.1709 49.9327 64.8451 49.9327" fill="#010101"/>
</g>
<defs>
<clipPath id="clip0_528_859">
<rect width="150" height="170.526" fill="white"/>
</clipPath>
</defs>
</svg>
