<svg width="426" height="761" fill="none" xmlns="http://www.w3.org/2000/svg"><path d="M419.593 267.496c-3.476 0-6.3-2.593-6.3-5.884v-79.591c0-3.191 2.824-5.785 6.3-5.785s6.408 2.594 6.408 5.785v79.591c0 3.291-2.932 5.884-6.408 5.884ZM6.408 216.53c-3.475 0-6.408-2.593-6.408-5.784V167.06c0-3.191 2.933-5.884 6.408-5.884 3.476 0 6.3 2.693 6.3 5.884v43.686c0 3.191-2.824 5.784-6.3 5.784ZM6.408 137.139c-3.475 0-6.408-2.593-6.408-5.785v-18.85c0-3.192 2.933-5.785 6.408-5.785 3.476 0 6.3 2.593 6.3 5.785v18.85c0 3.192-2.824 5.785-6.3 5.785ZM6.408 286.048c-3.475 0-6.408-2.593-6.408-5.785v-43.685c0-3.192 2.933-5.785 6.408-5.785 3.476 0 6.3 2.593 6.3 5.785v43.685c0 3.192-2.824 5.785-6.3 5.785Z" fill="#47484A"/><path d="M348.231 761H78.315c-40.297 0-73.1-30.021-73.1-67.124V67.124C5.215 30.12 38.017 0 78.315 0H348.23c40.406 0 73.1 30.12 73.1 67.124v626.752c0 37.103-32.694 67.124-73.1 67.124Z" fill="#96979C"/><path d="M78.314 752.422c-35.084 0-63.76-26.231-63.76-58.546V67.123c0-32.215 28.676-58.546 63.76-58.546h269.915c35.193 0 63.759 26.331 63.759 58.546v626.753c0 32.315-28.566 58.546-63.759 58.546H78.314Z" fill="#6D6E71"/><path d="M78.315 745.042c-30.74 0-55.721-22.94-55.721-51.166V67.124c0-28.226 24.982-51.166 55.72-51.166h269.917c30.739 0 55.721 22.94 55.721 51.166v626.752c0 28.226-24.982 51.166-55.721 51.166H78.315Z" fill="#231F20"/><path d="M235.266 40.394h-47.358c-3.584 0-6.408-2.593-6.408-5.885 0-3.191 2.824-5.784 6.408-5.784h47.358c3.476 0 6.3 2.593 6.3 5.784 0 3.292-2.824 5.885-6.3 5.885ZM261.879 34.509c0-3.69 3.15-6.583 7.169-6.583s7.277 2.893 7.277 6.583c0 3.69-3.258 6.682-7.277 6.682s-7.169-2.992-7.169-6.682Z" fill="#47484A"/><path d="M265.461 34.51c0-1.796 1.629-3.292 3.584-3.292s3.585 1.496 3.585 3.292c0 1.895-1.63 3.291-3.585 3.291s-3.584-1.396-3.584-3.291Z" fill="#939598"/><path d="M395 75.111C395 48.556 373.933 27 347.871 27h-23.13c-5.647 0-10.208 4.667-10.208 10.444 0 13.112-10.424 23.778-23.347 23.778H134.814c-12.923 0-23.347-10.666-23.347-23.778 0-5.777-4.561-10.444-10.208-10.444h-23.13C52.067 27 31 48.556 31 75.111V78h364v-2.889Z" fill="#231F20"/><path d="M337 59h-3V44h3v15ZM333 59h-3V47h3v12ZM329 59h-3v-9h3v9ZM325 59h-3v-6h3v6ZM373 58h-17v-8h17v8Z" fill="#231F20"/><path d="M376 56h-10v-4h10v4Z" fill="#231F20"/></svg>