<svg width="292" height="292" viewBox="0 0 292 292" fill="none" xmlns="http://www.w3.org/2000/svg">
<path d="M49.3398 49.3301H73.5065V73.4967H49.3398V49.3301ZM49.3398 218.497H73.5065V242.663H49.3398V218.497ZM218.507 49.3301H242.673V73.4967H218.507V49.3301Z" fill="black"/>
<path d="M1.00781 0.998047H291.008V290.998H1.00781V0.998047Z" fill="white" stroke="black" stroke-width="2" stroke-linejoin="round"/>
<path d="M49.3398 49.3301H73.5065V73.4967H49.3398V49.3301ZM49.3398 218.497H73.5065V242.663H49.3398V218.497ZM218.507 49.3301H242.673V73.4967H218.507V49.3301Z" fill="#3F3F3F" stroke="black" stroke-width="2" stroke-linejoin="round"/>
<path d="M37.2565 176.206C40.5932 176.206 43.2982 173.501 43.2982 170.165C43.2982 166.828 40.5932 164.123 37.2565 164.123C33.9198 164.123 31.2148 166.828 31.2148 170.165C31.2148 173.501 33.9198 176.206 37.2565 176.206Z" fill="black"/>
<path d="M25.1745 164.124C28.5112 164.124 31.2161 161.419 31.2161 158.083C31.2161 154.746 28.5112 152.041 25.1745 152.041C21.8378 152.041 19.1328 154.746 19.1328 158.083C19.1328 161.419 21.8378 164.124 25.1745 164.124Z" fill="black"/>
<path d="M49.3424 164.124C52.6792 164.124 55.3841 161.419 55.3841 158.083C55.3841 154.746 52.6792 152.041 49.3424 152.041C46.0057 152.041 43.3008 154.746 43.3008 158.083C43.3008 161.419 46.0057 164.124 49.3424 164.124Z" fill="black"/>
<path d="M133.924 212.456C137.261 212.456 139.966 209.751 139.966 206.415C139.966 203.078 137.261 200.373 133.924 200.373C130.588 200.373 127.883 203.078 127.883 206.415C127.883 209.751 130.588 212.456 133.924 212.456Z" fill="black"/>
<path d="M170.174 164.124C173.511 164.124 176.216 161.419 176.216 158.083C176.216 154.746 173.511 152.041 170.174 152.041C166.838 152.041 164.133 154.746 164.133 158.083C164.133 161.419 166.838 164.124 170.174 164.124Z" fill="black"/>
<path d="M170.174 103.706C173.511 103.706 176.216 101.001 176.216 97.6647C176.216 94.328 173.511 91.623 170.174 91.623C166.838 91.623 164.133 94.328 164.133 97.6647C164.133 101.001 166.838 103.706 170.174 103.706Z" fill="black"/>
<path d="M121.842 31.2064C125.179 31.2064 127.884 28.5014 127.884 25.1647C127.884 21.828 125.179 19.123 121.842 19.123C118.506 19.123 115.801 21.828 115.801 25.1647C115.801 28.5014 118.506 31.2064 121.842 31.2064Z" fill="black"/>
<path d="M206.424 127.874C209.761 127.874 212.466 125.169 212.466 121.833C212.466 118.496 209.761 115.791 206.424 115.791C203.088 115.791 200.383 118.496 200.383 121.833C200.383 125.169 203.088 127.874 206.424 127.874Z" fill="black"/>
<path d="M242.674 127.874C246.011 127.874 248.716 125.169 248.716 121.833C248.716 118.496 246.011 115.791 242.674 115.791C239.338 115.791 236.633 118.496 236.633 121.833C236.633 125.169 239.338 127.874 242.674 127.874Z" fill="black"/>
<path d="M242.674 200.374C246.011 200.374 248.716 197.669 248.716 194.333C248.716 190.996 246.011 188.291 242.674 188.291C239.338 188.291 236.633 190.996 236.633 194.333C236.633 197.669 239.338 200.374 242.674 200.374Z" fill="black"/>
<path d="M254.757 224.538C258.093 224.538 260.798 221.833 260.798 218.497C260.798 215.16 258.093 212.455 254.757 212.455C251.42 212.455 248.715 215.16 248.715 218.497C248.715 221.833 251.42 224.538 254.757 224.538Z" fill="black"/>
<path d="M266.842 272.874C270.179 272.874 272.884 270.169 272.884 266.833C272.884 263.496 270.179 260.791 266.842 260.791C263.506 260.791 260.801 263.496 260.801 266.833C260.801 270.169 263.506 272.874 266.842 272.874Z" fill="black"/>
<path d="M121.842 272.874C125.179 272.874 127.884 270.169 127.884 266.833C127.884 263.496 125.179 260.791 121.842 260.791C118.506 260.791 115.801 263.496 115.801 266.833C115.801 270.169 118.506 272.874 121.842 272.874Z" fill="black"/>
<path d="M194.342 272.874C197.679 272.874 200.384 270.169 200.384 266.833C200.384 263.496 197.679 260.791 194.342 260.791C191.006 260.791 188.301 263.496 188.301 266.833C188.301 270.169 191.006 272.874 194.342 272.874Z" fill="black"/>
<path d="M206.424 260.788C209.761 260.788 212.466 258.083 212.466 254.747C212.466 251.41 209.761 248.705 206.424 248.705C203.088 248.705 200.383 251.41 200.383 254.747C200.383 258.083 203.088 260.788 206.424 260.788Z" fill="black"/>
<path d="M194.342 248.706C197.679 248.706 200.384 246.001 200.384 242.665C200.384 239.328 197.679 236.623 194.342 236.623C191.006 236.623 188.301 239.328 188.301 242.665C188.301 246.001 191.006 248.706 194.342 248.706Z" fill="black"/>
<path d="M25.1745 127.874C28.5112 127.874 31.2161 125.169 31.2161 121.833C31.2161 118.496 28.5112 115.791 25.1745 115.791C21.8378 115.791 19.1328 118.496 19.1328 121.833C19.1328 125.169 21.8378 127.874 25.1745 127.874Z" fill="black"/>
<path d="M170.174 260.788C173.511 260.788 176.216 258.083 176.216 254.747C176.216 251.41 173.511 248.705 170.174 248.705C166.838 248.705 164.133 251.41 164.133 254.747C164.133 258.083 166.838 260.788 170.174 260.788Z" fill="black"/>
<path d="M1.00781 0.998047H291.008V290.998H1.00781V0.998047Z" stroke="black" stroke-width="2" stroke-linejoin="round"/>
<path d="M25.1758 25.166H97.6758V97.666H25.1758V25.166Z" stroke="black" stroke-width="2" stroke-linejoin="round"/>
<path d="M49.3424 49.3301H73.5091V73.4967H49.3424V49.3301ZM25.1758 194.33H97.6758V266.83H25.1758V194.33Z" stroke="black" stroke-width="2" stroke-linejoin="round"/>
<path d="M49.3398 218.499H73.5065V242.666H49.3398V218.499ZM194.34 25.166H266.84V97.666H194.34V25.166Z" stroke="black" stroke-width="2" stroke-linejoin="round"/>
<path d="M218.508 49.3301H242.674V73.4967H218.508V49.3301Z" stroke="black" stroke-width="2" stroke-linejoin="round"/>
<path d="M37.2578 145.999V133.916H85.5911M49.3411 133.916V121.833M73.5078 133.916V170.166M73.5078 158.083H85.5911M158.091 121.833V109.749M266.841 133.916H254.758M182.258 182.249H194.341V170.166M97.6745 121.833H109.758M133.924 121.833H170.174M158.091 25.166V49.3327H146.008M146.008 49.3327V97.666M146.008 49.3327H121.841M146.008 85.5827H121.841V97.666" stroke="black" stroke-width="2" stroke-linecap="round" stroke-linejoin="round"/>
<path d="M146.009 61.4147H133.926V37.248M97.6758 145.998H146.009M109.759 145.998V170.165H97.6758M133.926 145.998V158.081M121.842 194.331V182.248H158.092V218.498H182.259V206.415H230.592V266.831" stroke="black" stroke-width="2" stroke-linecap="round" stroke-linejoin="round"/>
<path d="M146.007 170.166V194.333H182.257M206.423 170.166H182.257V218.499H194.34M218.507 133.916V158.083H230.59M230.59 158.083V182.249H218.507V206.416M230.59 158.083V145.999H242.673M242.673 230.583H218.507V242.666M121.84 242.666H133.923V254.749H146.007V230.583M266.84 121.833V158.083H254.757M194.34 145.999V133.916M266.84 182.249V194.333M254.757 242.666H266.84M170.173 61.416V73.4993" stroke="black" stroke-width="2" stroke-linecap="round" stroke-linejoin="round"/>
</svg>
