<svg width="2991" height="1659" fill="none" xmlns="http://www.w3.org/2000/svg"><g clip-path="url(#a)"><path d="M454.5 566.5C310.5 232 76.167 166.999-5 188.499V1086.5h871c-55.667-54.5-269.388-189.886-411.5-520Z" stroke="#437724" stroke-width="6"/><path d="M454.5 566.5C310.5 232 76.167 166.999-5 188.499V1086.5h871c-55.667-54.5-269.388-189.886-411.5-520Z" fill="#89C049"/><path d="M454.5 566.5C310.5 232 76.167 166.999-5 188.499V1086.5h871c-55.667-54.5-269.388-189.886-411.5-520Z" stroke="#437724" stroke-width="6"/><path d="M183.5 630.5c-45.6-22-142.667-28.5-185.5-29v298h664c-27.167-10.167-97.6-35.8-162-57-80.5-26.5-105.5-43-158.5-105-42.4-49.6-123-92-158-107Z" fill="#76A841"/><path d="M2468.5 566.5c144-334.5 448.33-399.501 529.5-378.001V1086.5h-871c55.67-54.5 199.39-189.886 341.5-520Z" fill="#89C049" stroke="#437724" stroke-width="6"/><path d="M2865 484.5c47.2-42.8 107.33-75.667 133-85.5v366.5h-416c24.67-28 87.5-93.7 141.5-132.5 67.5-48.5 82.5-95 141.5-148.5Z" fill="#76A841"/><path d="M885.5 974.5C496.5 810 5 849.999 5 849.999V1664.5h2992V663s-471 11.499-708.75 249.249C2050.5 1150 1731 1161.5 1571.5 1161.5s-297-22.5-686-187Z" fill="#A3D441" stroke="#437724" stroke-width="6"/><path d="M696.5 914c-70.8-32.4-247.167-48.167-326.5-52v585h469c-29.6-26-151.667-217.5-209-310 8.667-2.83 30.8-10.2 50-17 24-8.5 16.5-28 5.5-42-8.8-11.2-66-15.33-93.5-16 4.5-110 39.5-123.5 104.5-148ZM2996.5 1393H2227s115-219.5 115-356.5-63.5-114-63.5-114c161-177.5 467-233.833 560-243l158-16V1393Z" fill="#8BB435"/><path d="M2468 1076.71c196.5-360.496 457.17-408.664 530-387.497v974.517H1740.5c304.33-85.66 573.66-304.77 727.5-587.02Z" fill="#5DA235" stroke="#437724" stroke-width="6"/><path d="M885.5 974.5C496.5 810 5 849.999 5 849.999V1664.5h2992V663s-471 11.499-708.75 249.249C2050.5 1150 1731 1161.5 1571.5 1161.5s-297-22.5-686-187Z" stroke="#437724" stroke-width="6"/><path d="M525 1076.71C328.5 716.214 67.833 668.046-5 689.213v974.517h1257.5c-304.33-85.66-573.656-304.77-727.5-587.02Z" fill="#5DA235" stroke="#437724" stroke-width="6"/><path d="M612.897 1391.93c1.015 3.35 3.373 24.58 4.425 34.77.799 11.85 1.869 35.11-.246 33.3-2.645-2.26-6.015-20.64-8.081-36.78-2.067-16.13-.444-32.2-.094-33.02.35-.83 2.727-2.45 3.996 1.73Zm24.067 31.86c1.565-2.22.652-19.51 0-27.86-.446-6.69-1.118-28.71-5.311-28.43-4.193.28-4.193 12.82-2.516 32.33 1.673 19.44 5.87 26.75 7.827 23.96Zm28.791-11.7c-.839 5.85-2.796 27.31.838 23.69 2.855-2.85 8.277-27.24 10.767-39.73.653-3.22.973-5.42.134-9.88-.838-4.46-3.633.56-5.869 4.46-2.237 3.9-5.032 15.6-5.87 21.46ZM82.811 1133c1.118-2.9 1.211-14.21 1.118-19.51 0-6.77-1.118-15.61-3.634-18.67-3.249-3.96-2.795 5.01-2.795 10.31 0 5.3.28 21.46 1.398 27.03 1.118 5.58 2.516 4.46 3.913.84Zm18.448-5.02c1.118-3.62 5.031-18.39 5.87-23.41.838-5.01 3.633-19.51 1.677-20.34-1.957-.84-2.795.28-4.473 5.01-1.341 3.79-5.217 24.25-6.988 34.01-1.677 10.86 1.592 12.26 3.914 4.73Zm249.776 131.46c-1.118-2.9-1.213-14.21-1.118-19.51 0-6.77 1.118-15.6 3.634-18.67 3.249-3.96 2.795 5.02 2.795 10.31 0 5.3-.28 21.46-1.398 27.03-1.118 5.58-2.516 4.46-3.913.84Zm-18.449-5.02c-1.118-3.62-5.031-18.39-5.87-23.41-.838-5.01-3.633-19.5-1.677-20.34 1.957-.84 2.796.28 4.473 5.02 1.341 3.79 5.216 24.24 6.988 34 1.677 10.87-1.59 12.26-3.914 4.73ZM544.53 1607.87c-.279 3.06-2.739 16.94-2.516 22.3.28 6.68 2.796 5.29 4.752-1.68 1.957-6.97 5.032-25.36 4.473-34.28-.559-8.91-5.311-12.82-5.591-8.36-.279 4.46-.838 18.95-1.118 22.02ZM262.401 1114.01c-.279 3.06-2.739 16.94-2.516 22.3.28 6.68 2.796 5.29 4.752-1.68 1.957-6.96 5.032-25.36 4.473-34.28-.559-8.91-5.311-12.81-5.591-8.36-.279 4.46-.838 18.96-1.118 22.02ZM175.53 494.869c-.279 3.064-2.739 16.943-2.516 22.297.28 6.686 2.796 5.29 4.752-1.672 1.957-6.969 5.032-25.364 4.473-34.281-.559-8.917-5.311-12.818-5.591-8.362-.279 4.46-.838 18.954-1.118 22.018ZM1291.28 1572.9c.09 5.3 0 16.61-1.12 19.51-1.4 3.62-2.79 4.74-3.91-.84-1.12-5.57-1.4-21.73-1.4-27.03 0-5.29-.45-14.27 2.79-10.31 2.52 3.07 3.64 11.91 3.64 18.67ZM1314.48 1563.98c-.84 5.02-4.75 19.79-5.87 23.42-2.32 7.52-5.59 6.12-3.91-4.74 1.77-9.76 5.64-30.21 6.98-34 1.68-4.74 2.52-5.86 4.48-5.02 1.95.83-.84 15.33-1.68 20.34ZM1098.56 1213.52c-.09 5.29 0 16.61 1.12 19.51 1.4 3.62 2.79 4.74 3.91-.84s1.4-21.74 1.4-27.03c0-5.3.45-14.27-2.8-10.32-2.51 3.07-3.63 11.91-3.63 18.68ZM1075.36 1204.6c.84 5.02 4.75 19.78 5.87 23.41 2.32 7.53 5.59 6.13 3.91-4.74-1.77-9.75-5.64-30.21-6.99-34-1.67-4.74-2.51-5.85-4.47-5.02-1.95.84.84 15.33 1.68 20.35ZM1917.56 1256.52c-.09 5.29 0 16.61 1.12 19.51 1.4 3.62 2.79 4.74 3.91-.84s1.4-21.74 1.4-27.03c0-5.3.45-14.27-2.8-10.32-2.51 3.07-3.63 11.91-3.63 18.68ZM1894.36 1247.6c.84 5.02 4.75 19.78 5.87 23.41 2.32 7.53 5.59 6.13 3.91-4.74-1.77-9.75-5.64-30.21-6.99-34-1.67-4.74-2.51-5.85-4.47-5.02-1.95.84.84 15.33 1.68 20.35ZM2676.56 1502.52c-.09 5.29 0 16.61 1.12 19.51 1.4 3.62 2.79 4.74 3.91-.84s1.4-21.74 1.4-27.03c0-5.3.45-14.27-2.8-10.32-2.51 3.07-3.63 11.91-3.63 18.68ZM2653.36 1493.6c.84 5.02 4.75 19.78 5.87 23.41 2.32 7.53 5.59 6.13 3.91-4.74-1.77-9.75-5.64-30.21-6.99-34-1.67-4.74-2.51-5.85-4.47-5.02-1.95.84.84 15.33 1.68 20.35ZM2904.56 312.517c-.09 5.295 0 16.609 1.12 19.509 1.4 3.622 2.79 4.739 3.91-.838 1.12-5.573 1.4-21.738 1.4-27.032 0-5.294.45-14.27-2.8-10.313-2.51 3.068-3.63 11.908-3.63 18.674ZM2881.36 303.597c.84 5.019 4.75 19.788 5.87 23.414 2.32 7.524 5.59 6.128 3.91-4.739-1.77-9.755-5.64-30.212-6.99-34.002-1.67-4.736-2.51-5.853-4.47-5.015-1.95.834.84 15.327 1.68 20.342ZM2506.56 883.517c-.09 5.295 0 16.609 1.12 19.509 1.4 3.622 2.79 4.739 3.91-.838 1.12-5.573 1.4-21.738 1.4-27.032 0-5.294.45-14.27-2.8-10.313-2.51 3.068-3.63 11.908-3.63 18.674ZM2483.36 874.597c.84 5.019 4.75 19.788 5.87 23.414 2.32 7.524 5.59 6.128 3.91-4.739-1.77-9.755-5.64-30.212-6.99-34.002-1.67-4.736-2.51-5.853-4.47-5.015-1.95.834.84 15.327 1.68 20.342ZM2920.56 935.517c-.09 5.295 0 16.609 1.12 19.509 1.4 3.622 2.79 4.739 3.91-.838 1.12-5.573 1.4-21.738 1.4-27.032 0-5.294.45-14.27-2.8-10.313-2.51 3.068-3.63 11.908-3.63 18.674ZM2897.36 926.597c.84 5.019 4.75 19.788 5.87 23.414 2.32 7.524 5.59 6.128 3.91-4.739-1.77-9.755-5.64-30.212-6.99-34.002-1.67-4.736-2.51-5.853-4.47-5.015-1.95.834.84 15.327 1.68 20.342ZM813.45 1271.52c.095 5.29 0 16.61-1.118 19.51-1.397 3.62-2.795 4.74-3.913-.84-1.118-5.58-1.398-21.74-1.398-27.03 0-5.3-.45-14.27 2.795-10.32 2.516 3.07 3.634 11.91 3.634 18.68ZM836.651 1262.6c-.839 5.02-4.752 19.78-5.87 23.41-2.324 7.53-5.591 6.13-3.914-4.74 1.772-9.75 5.647-30.21 6.988-34 1.677-4.74 2.516-5.85 4.473-5.02 1.956.84-.839 15.33-1.677 20.35ZM725.45 1598.52c.095 5.29 0 16.61-1.118 19.51-1.397 3.62-2.795 4.74-3.913-.84-1.118-5.58-1.398-21.74-1.398-27.03 0-5.3-.45-14.27 2.795-10.32 2.516 3.07 3.634 11.91 3.634 18.68ZM748.651 1589.6c-.839 5.02-4.752 19.78-5.87 23.41-2.324 7.53-5.591 6.13-3.914-4.74 1.772-9.75 5.647-30.21 6.988-34 1.677-4.74 2.516-5.85 4.473-5.02 1.956.84-.839 15.33-1.677 20.35ZM488.559 754.517c-.094 5.295 0 16.609 1.119 19.509 1.397 3.622 2.795 4.739 3.913-.838 1.118-5.573 1.397-21.738 1.397-27.032 0-5.294.451-14.27-2.795-10.313-2.515 3.068-3.634 11.908-3.634 18.674ZM465.359 745.597c.839 5.019 4.752 19.788 5.87 23.414 2.324 7.524 5.591 6.128 3.914-4.739-1.772-9.755-5.647-30.212-6.989-34.002-1.677-4.736-2.515-5.853-4.472-5.015-1.957.834.839 15.327 1.677 20.342ZM88.45 338.517c.095 5.295 0 16.609-1.118 19.509-1.397 3.622-2.795 4.739-3.913-.838-1.118-5.573-1.398-21.738-1.398-27.032 0-5.294-.45-14.27 2.796-10.313 2.515 3.068 3.633 11.908 3.633 18.674ZM111.651 329.597c-.839 5.019-4.752 19.788-5.87 23.414-2.324 7.524-5.591 6.128-3.914-4.739 1.772-9.755 5.647-30.212 6.988-34.002 1.677-4.736 2.516-5.853 4.473-5.015 1.956.834-.839 15.327-1.677 20.342ZM90.56 1599.52c-.095 5.29 0 16.61 1.118 19.51 1.397 3.62 2.795 4.74 3.913-.84 1.118-5.58 1.398-21.74 1.398-27.03 0-5.3.45-14.27-2.796-10.32-2.515 3.07-3.634 11.91-3.634 18.68ZM67.36 1590.6c.838 5.02 4.751 19.78 5.87 23.41 2.323 7.53 5.59 6.13 3.912-4.74-1.77-9.75-5.646-30.21-6.987-34-1.678-4.74-2.516-5.85-4.473-5.02-1.957.84.839 15.33 1.677 20.35ZM1384.75 1301.04c-1.05-10.19-3.41-31.42-4.43-34.77-1.26-4.18-3.64-2.56-3.99-1.73-.35.83-1.97 16.89.09 33.03 2.07 16.13 5.44 34.51 8.09 36.77 2.11 1.82 1.04-21.44.24-33.3ZM1404.39 1270.27c.65 8.36 1.57 25.64 0 27.87-1.96 2.78-6.16-4.53-7.83-23.97-1.67-19.51-1.67-32.05 2.52-32.33 4.19-.28 4.86 21.74 5.31 28.43ZM1434.02 1310.12c-3.63 3.62-1.68-17.84-.84-23.69.84-5.85 3.64-17.56 5.87-21.46 2.24-3.9 5.03-8.92 5.87-4.46.84 4.46.52 6.66-.13 9.88-2.49 12.49-7.91 36.88-10.77 39.73ZM1829.75 1446.37c-1.67-10.11-4.99-31.21-4.9-34.71.12-4.37 2.84-3.43 3.4-2.72.55.7 6.35 15.78 8.62 31.88 2.26 16.11 3.85 34.73 1.9 37.61-1.57 2.31-6.67-20.41-9.02-32.06ZM1802.69 1421.86c1.58 8.24 5.25 25.15 7.35 26.89 2.62 2.17 4.75-5.99 1.23-25.19-3.53-19.26-6.83-31.36-10.95-30.52-4.12.84 1.04 22.25 2.37 28.82ZM1784.62 1468.12c4.46 2.53-3.09-17.65-5.44-23.08-2.35-5.42-8.13-15.97-11.32-19.15-3.18-3.17-7.2-7.27-6.84-2.75.37 4.52 1.26 6.56 2.74 9.49 5.69 11.4 17.35 33.49 20.86 35.49ZM1862.31 1473.58c2.58 4.44 6.24-16.8 6.95-22.67.7-5.87 1.03-17.9-.12-22.25-1.15-4.34-2.55-9.91-4.52-5.82-1.96 4.09-2.22 6.29-2.42 9.57-.83 12.71-1.91 37.68.11 41.17ZM2578.14 1194.37c1.68-10.11 5-31.21 4.9-34.71-.12-4.37-2.84-3.43-3.4-2.72-.55.7-6.35 15.78-8.61 31.88-2.26 16.11-3.86 34.73-1.9 37.61 1.56 2.31 6.66-20.41 9.01-32.06ZM2605.2 1169.86c-1.57 8.24-5.25 25.15-7.34 26.89-2.63 2.17-4.75-5.99-1.24-25.19 3.53-19.26 6.84-31.36 10.95-30.52 4.12.84-1.04 22.25-2.37 28.82ZM2623.28 1216.12c-4.46 2.53 3.08-17.65 5.43-23.08 2.36-5.42 8.14-15.97 11.32-19.15 3.19-3.17 7.21-7.27 6.84-2.75-.37 4.52-1.25 6.56-2.73 9.49-5.69 11.4-17.36 33.49-20.86 35.49ZM2545.58 1221.58c-2.57 4.44-6.24-16.8-6.94-22.67-.71-5.87-1.04-17.9.12-22.25 1.15-4.34 2.55-9.91 4.51-5.82s2.23 6.29 2.43 9.57c.83 12.71 1.9 37.68-.12 41.17ZM2308.36 1588.21c-1.06-10.2-3.41-31.43-4.43-34.77-1.27-4.19-3.64-2.57-4-1.74-.34.83-1.96 16.9.1 33.03 2.07 16.13 5.44 34.51 8.08 36.78 2.12 1.81 1.05-21.45.25-33.3ZM2328 1557.43c.65 8.36 1.56 25.64 0 27.87-1.96 2.79-6.16-4.52-7.83-23.97-1.68-19.51-1.68-32.05 2.52-32.33 4.19-.28 4.86 21.74 5.31 28.43ZM2357.63 1597.28c-3.64 3.63-1.68-17.83-.84-23.69.84-5.85 3.63-17.55 5.87-21.46 2.23-3.9 5.03-8.91 5.87-4.46.84 4.46.52 6.66-.14 9.88-2.48 12.49-7.91 36.89-10.76 39.73ZM2829.36 1187.21c-1.06-10.2-3.41-31.43-4.43-34.77-1.27-4.19-3.64-2.57-4-1.74-.34.83-1.96 16.9.1 33.03 2.07 16.13 5.44 34.51 8.08 36.78 2.12 1.81 1.05-21.45.25-33.3ZM2849 1156.43c.65 8.36 1.56 25.64 0 27.87-1.96 2.79-6.16-4.52-7.83-23.97-1.68-19.51-1.68-32.05 2.52-32.33 4.19-.28 4.86 21.74 5.31 28.43ZM2878.63 1196.28c-3.64 3.63-1.68-17.83-.84-23.69.84-5.85 3.63-17.55 5.87-21.46 2.23-3.9 5.03-8.91 5.87-4.46.84 4.46.52 6.66-.14 9.88-2.48 12.49-7.91 36.89-10.76 39.73ZM2621.36 499.205c-1.06-10.195-3.41-31.421-4.43-34.769-1.27-4.185-3.64-2.561-4-1.735-.34.827-1.96 16.896.1 33.029 2.07 16.133 5.44 34.509 8.08 36.775 2.12 1.814 1.05-21.445.25-33.3ZM2641 468.429c.65 8.362 1.56 25.641 0 27.87-1.96 2.787-6.16-4.523-7.83-23.968-1.68-19.509-1.68-32.05 2.52-32.328 4.19-.279 4.86 21.738 5.31 28.426ZM2670.63 508.283c-3.64 3.622-1.68-17.837-.84-23.69.84-5.852 3.63-17.557 5.87-21.459 2.23-3.902 5.03-8.918 5.87-4.459.84 4.459.52 6.657-.14 9.878-2.48 12.491-7.91 36.884-10.76 39.73ZM339.357 630.205c-1.052-10.195-3.41-31.421-4.427-34.769-1.269-4.185-3.644-2.561-3.997-1.735-.346.827-1.967 16.896.094 33.029 2.068 16.133 5.44 34.509 8.085 36.775 2.114 1.814 1.045-21.445.245-33.3ZM358.997 599.429c.653 8.362 1.565 25.641 0 27.87-1.957 2.787-6.157-4.523-7.827-23.968-1.677-19.509-1.677-32.05 2.516-32.328 4.192-.279 4.863 21.738 5.311 28.426ZM388.626 639.283c-3.634 3.622-1.677-17.837-.839-23.69.839-5.852 3.634-17.557 5.87-21.459 2.236-3.902 5.031-8.918 5.87-4.459.839 4.459.521 6.657-.133 9.878-2.487 12.491-7.91 36.884-10.768 39.73ZM198.677 913.205c1.051-10.195 3.41-31.421 4.426-34.769 1.269-4.185 3.645-2.561 3.998-1.735.345.827 1.967 16.896-.095 33.029-2.068 16.133-5.44 34.509-8.085 36.775-2.114 1.814-1.045-21.445-.244-33.3ZM179.037 882.429c-.654 8.362-1.566 25.641 0 27.87 1.956 2.787 6.156-4.523 7.826-23.968 1.677-19.509 1.677-32.05-2.515-32.328-4.193-.279-4.864 21.738-5.311 28.426ZM149.407 922.283c3.634 3.622 1.678-17.837.839-23.69-.838-5.852-3.634-17.557-5.87-21.459-2.236-3.902-5.031-8.918-5.87-4.459-.838 4.459-.52 6.657.133 9.878 2.488 12.491 7.91 36.884 10.768 39.73ZM2152.68 1339.21c1.05-10.2 3.41-31.43 4.42-34.77 1.27-4.19 3.65-2.57 4-1.74.35.83 1.97 16.9-.09 33.03-2.07 16.13-5.44 34.51-8.09 36.78-2.11 1.81-1.04-21.45-.24-33.3ZM2133.04 1308.43c-.66 8.36-1.57 25.64 0 27.87 1.95 2.79 6.15-4.52 7.82-23.97 1.68-19.51 1.68-32.05-2.51-32.33-4.2-.28-4.87 21.74-5.31 28.43ZM2103.41 1348.28c3.63 3.63 1.67-17.83.84-23.69-.84-5.85-3.64-17.55-5.87-21.46-2.24-3.9-5.04-8.91-5.87-4.46-.84 4.46-.52 6.66.13 9.88 2.49 12.49 7.91 36.89 10.77 39.73ZM2869.36 1588.21c-1.06-10.2-3.41-31.43-4.43-34.77-1.27-4.19-3.64-2.57-4-1.74-.34.83-1.96 16.9.1 33.03 2.07 16.13 5.44 34.51 8.08 36.78 2.12 1.81 1.05-21.45.25-33.3ZM2889 1557.43c.65 8.36 1.56 25.64 0 27.87-1.96 2.79-6.16-4.52-7.83-23.97-1.68-19.51-1.68-32.05 2.52-32.33 4.19-.28 4.86 21.74 5.31 28.43ZM2918.63 1597.28c-3.64 3.63-1.68-17.83-.84-23.69.84-5.85 3.63-17.55 5.87-21.46 2.23-3.9 5.03-8.91 5.87-4.46.84 4.46.52 6.66-.14 9.88-2.48 12.49-7.91 36.89-10.76 39.73ZM1096.53 1445.87c-.28 3.07-2.74 16.94-2.52 22.3.28 6.68 2.8 5.29 4.76-1.68 1.95-6.96 5.03-25.36 4.47-34.27-.56-8.93-5.31-12.83-5.59-8.37-.28 4.46-.84 18.95-1.12 22.02ZM1582.53 1508.87c-.28 3.07-2.74 16.94-2.52 22.3.28 6.68 2.8 5.29 4.76-1.68 1.95-6.96 5.03-25.36 4.47-34.27-.56-8.93-5.31-12.83-5.59-8.37-.28 4.46-.84 18.95-1.12 22.02ZM2513.53 1395.87c-.28 3.07-2.74 16.94-2.52 22.3.28 6.68 2.8 5.29 4.76-1.68 1.95-6.96 5.03-25.36 4.47-34.27-.56-8.93-5.31-12.83-5.59-8.37-.28 4.46-.84 18.95-1.12 22.02ZM2711.77 930.871c.28 3.064 2.74 16.943 2.52 22.297-.28 6.687-2.79 5.294-4.75-1.675-1.96-6.966-5.03-25.361-4.47-34.278.56-8.92 5.31-12.822 5.59-8.362.28 4.46.84 18.95 1.11 22.018ZM2866.77 1365.87c.28 3.07 2.74 16.94 2.52 22.3-.28 6.68-2.79 5.29-4.75-1.68-1.96-6.96-5.03-25.36-4.47-34.27.56-8.93 5.31-12.83 5.59-8.37.28 4.46.84 18.95 1.11 22.02ZM2917.77 593.871c.28 3.064 2.74 16.943 2.52 22.297-.28 6.687-2.79 5.294-4.75-1.675-1.96-6.966-5.03-25.361-4.47-34.278.56-8.92 5.31-12.822 5.59-8.362.28 4.46.84 18.95 1.11 22.018ZM2208.53 1090.87c-.28 3.07-2.74 16.94-2.52 22.3.28 6.68 2.8 5.29 4.76-1.68 1.95-6.96 5.03-25.36 4.47-34.27-.56-8.93-5.31-12.83-5.59-8.37-.28 4.46-.84 18.95-1.12 22.02ZM809.53 1051.87c-.279 3.07-2.739 16.94-2.516 22.3.28 6.68 2.795 5.29 4.752-1.68 1.957-6.96 5.032-25.36 4.472-34.27-.559-8.93-5.31-12.83-5.59-8.37-.28 4.46-.838 18.95-1.118 22.02ZM636.45 1016.52c.095 5.29 0 16.61-1.118 19.51-1.397 3.62-2.795 4.73-3.913-.84-1.118-5.57-1.398-21.74-1.398-27.03 0-5.3-.45-14.275 2.796-10.316 2.515 3.066 3.633 11.906 3.633 18.676ZM659.651 1007.6c-.839 5.02-4.752 19.79-5.87 23.41-2.324 7.52-5.591 6.13-3.914-4.74 1.772-9.75 5.647-30.209 6.988-33.999 1.677-4.738 2.516-5.853 4.473-5.017 1.956.836-.839 15.326-1.677 20.346ZM287.559 1503.52c-.094 5.29 0 16.61 1.119 19.51 1.397 3.62 2.795 4.74 3.913-.84 1.118-5.58 1.397-21.74 1.397-27.03 0-5.3.451-14.27-2.795-10.32-2.515 3.07-3.634 11.91-3.634 18.68ZM264.359 1494.6c.839 5.02 4.752 19.78 5.87 23.41 2.324 7.53 5.591 6.13 3.914-4.74-1.772-9.75-5.647-30.21-6.989-34-1.677-4.74-2.515-5.85-4.472-5.02-1.957.84.839 15.33 1.677 20.35Z" fill="#346618"/></g><defs><clipPath id="a"><path fill="#fff" d="M0 0h2991v1659H0z"/></clipPath></defs></svg>