<svg width="1801" height="2827" fill="none" xmlns="http://www.w3.org/2000/svg"><g clip-path="url(#a)"><path d="M1332.48 1287.13c-18.81 2.74-37.38 1.37-55.95-2.89-20.9-4.83-39.23-15.04-57-26.62-11.41-12.14-20.9-25.17-23.23-42.45-.8-6.28-4.66-3.3-7.16-.49-5.62 6.44-11.97 11.98-20.33 14.56-13.99 4.18-31.28-3.14-40.84-17.93-2.82-4.43-4.42-6.68-8.93-1.93-17.2 18.01-38.18 18.97-60.45 12.46-32.08-9.41-49.6-32.81-56.35-63.93-9.25-42.69 1.04-83.7 15.91-123.27 14.55-38.834 35.29-74.778 62.23-106.379 31.67-37.23 68.33-68.269 112.22-91.508 43.98-23.319 89.64-42.055 137.31-54.599 71.87-18.977 141.41-8.362 206.85 26.858 66.72 35.943 113.35 90.783 147.83 157.444 30.79 59.424 51.45 121.744 59.09 188.084 6.75 58.86 9.25 117.8-7.15 175.85-3.3 11.74-7.48 23.16-13.35 33.86-23.79 43.66-72.35 52.43-109.09 18.73-21.95-20.1-34.81-45.59-37.94-75.58-.24-2.33 1.12-5.47-2.17-6.68-2.66-.96-4.1 1.29-5.55 2.9-24.36 26.05-52.42 20.26-77.5 2.81-18.33-12.78-27.89-30.71-28.94-54.44-6.19 7.64-13.5 13.27-22.67 13.03-9.16-.24-18.01-3.46-25.56-9.09-4.75-3.53-7.64-8.6-10.29-13.67-1.61-3.05-3.38-4.34-5.31-1.04-14.95 25.41-38.43 38.44-65.76 46.07l.08-.16ZM1.608 740.904c-2.653-30.234-1.688-60.469.161-90.783 0 0 1.527-36.105 1.93-39.562 2.411-25.008 4.582-50.016 7.878-74.943 6.592-50.016 18.73-98.745 36.015-146.187 2.331-6.433 5.386-12.705 8.12-18.977 1.768-1.286 1.848-2.975 1.286-4.824.643-1.528 1.206-3.056 1.849-4.664 3.939-3.458 6.511-7.559 5.547-13.107a217.784 217.784 0 0 1 1.929-4.262c6.35-6.755 9.968-14.956 12.059-23.882.803-3.377 2.652-6.272 4.823-8.926 7.637-1.769 8.28-7.88 8.682-14.071 2.01-4.906 5.065-9.006 8.522-12.947 2.572-.321 3.376-1.849 3.135-4.261 2.01-4.262 4.823-7.961 8.2-11.177 2.653-.161 3.617-1.689 3.376-4.182 1.447-1.849 2.894-3.618 4.261-5.468 3.778-.402 5.547-2.412 5.306-6.272 1.447-2.975 3.537-5.307 6.19-7.237 3.618-.321 5.547-2.332 5.467-6.031 53.218-57.654 110.618-108.956 189.24-129.622 57.078-15.036 107.965-3.377 153.306 33.853 3.457 2.815 6.833 5.87 11.254 9.65 5.949-17.048 15.114-31.682 25.967-45.272C565.23 46.316 629.623 11.016 707.12 2.171c79.908-9.167 153.949 12.383 224.13 49.614 51.611 27.42 89.8 68.268 118.9 118.364 1.85 3.216 2.41 6.433 7.88 3.377 62.7-35.139 128.54-38.918 197.04-20.183 60.05 16.404 109.41 50.498 155.63 90.382 62.95 54.438 96.63 124.476 110.14 205.61 5.79 34.657 9.32 69.475 7.23 104.454-2.97 50.578-16.4 97.859-50.16 137.1-21.63 25.168-48.24 42.698-82.96 41.974-25.01-.482-45.26-10.292-54.67-35.622-1.77-4.744-3.3-5.226-6.83-1.206-6.68 7.559-12.95 15.198-21.15 21.47-35.53 27.179-82.32 6.191-89.79-33.933-.24-1.287-.41-2.493-.65-3.78l-.24-.482c-10.93 6.352-21.86 12.705-32.8 19.057-10.29.643-20.34 0-29.98-3.86-14.15-5.548-22.83-15.921-25.65-30.717-1.44-7.317-4.02-8.201-8.36-2.251-3.54 4.825-9.56 6.192-13.34 10.534-7.24 0-14.07 3.618-21.47 2.492-21.94-3.296-41.24-15.599-42.61-47.844-10.77 6.594-21.86 11.016-34.08 6.111-11.9-4.824-17.687-15.358-23.153-27.902-20.822 37.23-47.994 62.72-92.852 54.036-39.07-7.559-55.952-35.542-60.052-74.219-5.547 6.433-10.612 11.257-14.39 16.966-4.1 6.272-9.647 10.936-14.872 16.002-14.31 13.75-36.337 15.117-50.888 3.136-6.512-5.387-6.512.402-7.235 3.94-2.894 13.268-8.763 24.847-16.48 36.024-13.908 20.103-32.317 33.853-54.907 42.377-16.32 6.191-32.237 7.719-46.386-5.388-4.422-5.709-10.129-4.181-10.21 1.448-.16 6.03-4.582 10.694-3.215 16.645-1.849 7.317-5.386 13.83-8.763 20.424-6.27 12.222-14.711 22.756-22.992 33.531-19.052 20.987-42.446 27.581-69.779 21.148-9.727-6.352-19.053-13.026-26.047-24.766-2.572 6.674-1.688 11.418-1.608 16.001.322 34.014-5.949 66.983-13.988 99.951-7.958 32.566-17.847 64.57-30.789 95.367-12.381 29.507-28.861 56.927-56.194 75.267-11.737 7.88-25.323 15.52-39.954 11.9-21.545-5.39-41.884-12.14-56.837-32.41-12.943-17.53-20.821-36.021-27.493-58.215-6.351 13.67-13.988 24.686-24.6 33.215-26.69 21.14-56.193 34.09-91.003 26.85-30.307-6.35-54.424-22.59-74.361-46.797-11.657-14.152-21.143-29.35-29.021-45.432-18.892-38.677-29.424-80.009-36.016-122.385-2.01-12.544-4.02-25.169-5.386-37.793" fill="#0E5415"/><path d="M462.571 1159.28c-2.09-.64-4.1-1.28-6.19-1.93 1.286-12.94 7.315-24.36 12.058-36.18 25.404-63.12 41.241-128.659 50.084-196.043 5.145-39 4.984-77.838-.402-116.757-.804-5.709-.563-11.499-.884-17.288 27.333 6.352 50.726-.161 69.779-21.148 3.296 30.878 6.271 61.755 12.461 92.231 2.974 14.393 6.753 16.967 21.705 17.771 31.916 1.769 63.348-2.413 94.46-8.685 70.181-14.072 140.282-28.706 210.303-43.743 33.925-7.317 66.885-17.932 94.705-39.884 39.55-31.199 68.01-71.324 91.08-115.55 3.78-4.342 9.81-5.709 13.34-10.534 4.34-5.87 6.92-5.066 8.36 2.252 2.9 14.876 11.5 25.168 25.65 30.717 9.65 3.779 19.77 4.503 29.98 3.859-17.68 60.147-47.91 112.817-93.81 155.836-25.73 24.123-56.11 41.171-89.32 51.865-63.184 20.424-108.926 60.389-141.324 117.641-25.725 45.43-52.495 90.3-65.599 141.52-9.727 37.88-11.254 75.19 5.788 111.93 7.638 16.41 19.294 27.59 35.533 34.58 42.608 18.25 87.385 21.55 132.887 18.5 24.599-1.69 49.115-4.67 73.715-6.68 53.78-4.42 102.34-23.72 148.08-51.38 8.2-4.99 16.48-9.73 24.68-14.64 17.69 11.58 36.1 21.8 57 26.62 18.49 4.26 37.06 5.63 55.95 2.9-29.1 30.47-64.07 52.91-100.73 72.93-59.41 32.32-123.56 50.42-189.32 64.33-59.326 12.54-119.539 18.89-179.27 28.62-27.092 4.43-53.46 11.98-72.513 33.69-15.997 18.26-23.152 41.09-29.262 64.01-12.782 48.01-13.586 96.98-10.451 146.27 2.894 44.95 9.326 89.17 20.58 132.76 13.265 51.38 40.759 94.16 78.703 130.74 24.037 23.16 48.717 45.76 67.609 73.58 4.502 6.59 8.682 13.43 12.38 20.42 3.055 5.71 6.11 7.24 12.622 4.67 14.952-5.79 30.468-9.81 46.466-11.74 1.929-.24 3.858-.4 5.707-.56 2.01-.08 4.181.24 4.989 2.17 1.12 3.05-1.853 3.53-3.622 4.58-17.284 9.81-34.89 18.9-52.736 27.66-67.85 33.37-139.8 51.38-214.645 60.31-74.361 8.84-144.141 32.57-209.257 70.04-41.804 23.96-81.276 51.86-123.722 74.54-43.17 23-83.768 49.93-125.49 75.18-4.342 2.66-9.085 4.59-13.828 6.68-2.009.88-4.502 1.85-6.19-.25-1.447-1.92-.643-4.42.241-6.43 3.377-7.07 9.004-12.46 14.149-18.09 16.159-17.53 33.121-34.09 51.45-49.29 2.573-2.09 5.708-3.3 3.859-8.36-11.898-33.21-12.943-67.79-11.978-102.69 2.492-92.23 3.457-184.46 2.331-276.69-.804-68.83 1.447-137.51 4.261-206.26 1.367-32.4 2.251-64.81 4.421-97.21.965-14.72 3.297-29.27 5.467-43.83" fill="#332522"/><path d="M1.608 740.905c-2.653-30.235-1.688-60.469.161-90.784 2.492-2.412 2.572-4.905.322-7.559.16-6.272-.885-12.785 3.296-18.333 0-1.367.08-2.654.16-4.021-3.858-2.573-2.17-6.513-1.849-9.73 2.412-25.007 4.583-50.015 7.879-74.942 6.592-50.016 18.73-98.745 36.015-146.187 2.331-6.433 5.386-12.705 8.12-18.977 1.768-1.287 1.848-2.975 1.286-4.825.643-1.527 1.206-3.055 1.849-4.663 3.939-3.458 6.511-7.559 5.547-13.107a217.784 217.784 0 0 1 1.929-4.262c6.35-6.755 9.968-14.957 12.059-23.882.803-3.377 2.652-6.272 4.823-8.926 7.637-1.769 8.28-7.88 8.682-14.072 2.01-4.905 5.065-9.006 8.522-12.946 2.572-.321 3.376-1.849 3.135-4.261 2.01-4.262 4.823-7.961 8.2-11.178 2.653-.16 3.617-1.688 3.376-4.181 1.447-1.849 2.894-3.618 4.261-5.468 3.778-.402 5.547-2.412 5.306-6.272 1.447-2.975 3.537-5.307 6.19-7.237 3.618-.321 5.547-2.332 5.467-6.031 53.218-57.654 110.618-108.956 189.24-129.622 57.078-15.036 107.965-3.377 153.306 33.853 3.457 2.815 6.833 5.87 11.254 9.649 5.949-17.047 15.114-31.681 25.967-45.271C565.23 46.236 629.623 10.936 707.12 2.091c79.908-9.167 153.949 12.383 224.13 49.613 51.611 27.42 89.8 68.269 118.9 118.365 1.85 3.216 2.41 6.433 7.88 3.377 62.7-35.139 128.54-38.919 197.04-20.183 60.05 16.404 109.41 50.498 155.63 90.382 62.95 54.438 96.63 124.476 110.14 205.61 5.79 34.657 9.32 69.475 7.23 104.454-2.97 50.578-16.4 97.859-50.16 137.1-21.63 25.168-48.24 42.698-82.96 41.974-25.01-.482-45.26-10.292-54.67-35.622-1.77-4.744-3.3-5.226-6.83-1.206-6.68 7.559-12.95 15.198-21.15 21.47-35.53 27.179-82.32 6.191-89.79-33.934-.24-1.286-.41-2.492-.65-3.779l-.24-.482c-10.93 6.352-21.86 12.705-32.8 19.057-10.29.643-20.34 0-29.98-3.86-14.15-5.548-22.83-15.921-25.65-30.717-1.44-7.317-4.02-8.201-8.36-2.251-3.54 4.825-9.56 6.192-13.34 10.534-7.24 0-14.07 3.618-21.47 2.492-21.94-3.296-41.24-15.599-42.61-47.844-10.77 6.594-21.86 11.016-34.08 6.111-11.9-4.824-17.687-15.358-23.153-27.902-20.822 37.23-47.994 62.72-92.852 54.036-39.07-7.559-55.952-35.542-60.052-74.219-5.547 6.433-10.612 11.257-14.39 16.966-4.1 6.272-9.647 10.936-14.872 16.002-14.31 13.75-36.337 15.117-50.888 3.136-6.512-5.387-6.512.402-7.235 3.94-2.894 13.268-8.763 24.847-16.48 36.024-13.908 20.103-32.317 33.853-54.907 42.377-16.32 6.191-32.237 7.719-46.386-5.388-4.422-5.709-10.129-4.181-10.21 1.447-.16 6.031-4.582 10.695-3.215 16.646-1.849 7.317-5.386 13.83-8.763 20.424-6.27 12.222-14.711 22.756-22.992 33.531-19.052 20.987-42.446 27.581-69.779 21.148-9.727-6.352-19.053-13.026-26.047-24.766-2.572 6.674-1.688 11.418-1.608 16.001.322 34.014-5.949 66.982-13.988 99.951-7.958 32.566-17.847 64.57-30.789 95.367-12.381 29.507-28.861 56.927-56.194 75.267-11.737 7.88-25.323 15.52-39.954 11.9-21.545-5.39-41.884-12.14-56.837-32.41-12.943-17.53-20.821-36.021-27.493-58.215-6.351 13.67-13.988 24.686-24.6 33.205-26.69 21.15-56.193 34.1-91.003 26.86-30.307-6.35-54.424-22.59-74.361-46.797-11.657-14.152-21.143-29.35-29.021-45.432-18.892-38.678-29.424-80.009-36.016-122.385-2.01-12.544-4.02-25.169-5.386-37.793m215.609-602.116c-3.537-.402-5.949 1.367-8.522 3.619-27.333 23.399-52.736 48.89-74.683 77.355-26.047 33.853-48.878 69.877-65.519 109.761-6.511 15.68-13.505 30.958-18.73 47.201-7.156 22.193-14.953 44.145-19.697 67.062-10.692 52.267-16.238 105.258-18.65 158.329-2.412 54.76-3.377 109.921 7.315 164.199 6.673 33.853 13.989 67.706 27.816 99.548 14.39 33.129 29.584 65.776 59.409 88.613 20.097 15.436 42.366 23.556 67.769 19.536 27.253-4.34 50.004-17.124 66.966-39.317 10.933-14.313 19.535-30.074 27.815-45.915 1.126-2.251 2.09-5.387 5.387-4.342 3.376 1.126 3.296 4.423 2.572 7.398-1.769 6.835-3.698 13.589-5.467 20.344-1.045 4.181-4.019 7.96-2.411 12.865 8.682 26.938 20.821 51.707 44.536 68.667 11.496 8.21 24.68 14.8 39.312 13.11 25.725-3.05 42.928-19.54 56.434-40.2 21.545-33.053 35.774-69.318 45.984-107.272a1114.072 1114.072 0 0 0 15.435-65.213c4.743-22.998 6.753-46.558 14.47-68.993 1.126-3.216.643-6.754-1.286-10.212-8.763-15.439-9.486-32.888-11.657-49.935-.241-1.769-1.447-4.503 2.412-5.789 1.206 3.377 2.492 6.513 3.376 9.89 5.547 19.54 12.943 38.195 27.333 53.071 6.11 6.272 12.059 13.268 21.626 14.876 29.664 4.905 50.003-10.292 63.428-33.531 15.114-26.053 25.645-54.438 24.359-85.637-.081-2.654-1.447-6.675 2.251-7.479 3.858-.884 4.662 3.619 6.431 6.031.804 1.126.562 3.056.884 4.664 2.733 13.589 21.464 28.224 35.131 29.269 28.941 2.252 57.078-23.721 67.448-45.834 10.129-21.63 21.464-43.18 19.133-68.59-.402-4.583 1.849-9.328 2.894-14.072 4.984 12.625 6.19 25.49 11.737 37.552 7.959 17.208 25.565 17.047 36.015 8.845 18.812-14.715 37.543-29.993 46.627-53.393.563-1.367 1.286-3.055 4.582-1.769 0 4.584.322 9.65 0 14.716-.884 12.061 1.93 23.238 5.547 34.737 5.065 16.002 15.194 28.626 28.459 36.265 26.047 15.037 51.852 10.454 74.844-10.614 15.274-13.991 24.519-32.727 35.694-49.855 1.447-2.251 1.768-6.513 5.627-5.146 3.536 1.206 2.246 5.066 2.006 7.719-1.44 12.705 3.22 23.32 11.34 32.567 7.96 9.086 16.32 9.649 26.53 3.297 8.04-4.986 13.66-12.544 20.58-18.736 1.69-1.528 3.62-3.377 5.79-1.447 1.93 1.688.16 3.779-.89 5.146-3.94 4.985-5.14 10.614-5.95 16.886-1.77 13.75 5.23 30.234 18.09 37.552 12.22 6.915 24.92 7.559 37.22-.643 10.45-6.996 18.81-16.083 26.45-27.501 2.89 7.961 1.37 15.037 1.53 21.791.32 12.866 9.73 28.064 20.34 32.647 15.03 6.433 29.02 4.744 40.92-6.513 9.4-8.926 19.53-17.208 26.61-28.868 1.12 13.59.72 26.697 5.62 39.643 13.19 34.818 50.17 43.502 76.21 17.771 11.18-11.017 22.83-21.711 28.86-36.989 3.7 3.055 3.3 6.674 3.94 10.132 8.2 41.492 47.27 52.749 81.12 37.069.88-.402 1.12-2.171 1.69-3.297 12.86-.161 20.74-9.408 29.1-16.967 29.34-26.535 45.1-61.273 55.47-98.262 7.71-27.5 6.91-56.126 4.5-84.752-2.57-30.959-6.75-61.515-13.91-91.749-12.38-51.945-33.68-99.388-70.66-138.789-40.6-43.261-88.03-77.114-141.33-103.006-43.41-21.148-88.67-30.074-136.83-24.043-44.21 5.548-83.76 22.435-120.58 46.799-4.58 3.056-7.16 8.845-14.31 11.097 4.34-14.152 12.62-23.319 23.79-30.154 4.1-2.493 6.68-4.664 2.9-9.73-24.92-33.612-52.899-64.328-86.02-90.06-22.429-17.449-47.913-29.591-73.799-40.848-44.778-19.46-91.485-30.074-140.282-31.763-19.294-.643-38.266 1.608-57.078 5.79-54.987 12.061-104.026 35.863-144.543 75.425-18.651 18.173-32.719 40.045-45.421 62.801-3.859 6.996-2.492 11.579 1.849 17.047 6.19 7.8 12.059 15.76 17.766 23.801 1.448 2.011 4.181 4.182 1.93 7.479-3.859-.563-5.708-3.458-7.637-5.87-11.577-14.233-24.921-26.616-38.588-38.758-39.552-34.979-85.616-46.88-136.504-35.944-43.813 9.408-85.214 25.732-118.336 57.896l.081-.081Z" fill="#0C4911"/><path d="M1449.29 2343.97c-121.39 116.84-68.09 174.49-133.69 311.84-20.66 41.49-29.58 90.46-58.61 127.04-9.56 11.42 49.04 28.39 51.37 44.23-42.12-12.3-90.52-25.73-127.74-52.02-32.31-31.77-80.31-41.34-109.89-74.3 25.56.72 48.39 33.85 57.96-5.23 103.46-129.86 143.34-294.79 154.43-457.54 29.75-.24 55.07-11.66 77.02-31.12 22.75 107.27-25.25 134.61 50.48 73.42 41.4-1.05 9.25 21.79 38.59 63.76l.08-.08Z" fill="#332522"/><path d="M1332.48 1287.14c-18.81 2.73-37.38 1.36-55.95-2.9-20.9-4.82-39.23-15.04-57-26.62-11.41-12.14-20.9-25.16-23.23-42.45-.8-6.27-4.66-3.3-7.16-.48-5.62 6.43-11.97 11.98-20.33 14.55-13.99 4.18-31.28-3.14-40.84-17.93-2.82-4.42-4.42-6.68-8.93-1.93-17.2 18.01-38.18 18.98-60.45 12.46-32.08-9.41-49.6-32.81-56.35-63.92-9.25-42.7 1.04-83.71 15.91-123.27 14.55-38.842 35.29-74.786 62.23-106.387 31.67-37.231 68.33-68.269 112.22-91.508 43.98-23.319 89.64-42.055 137.31-54.599 71.87-18.977 141.41-8.362 206.85 26.858 66.72 35.943 113.35 90.783 147.83 157.444 30.79 59.422 51.45 121.742 59.09 188.082 6.75 58.86 9.25 117.8-7.15 175.86-3.3 11.74-7.48 23.16-13.35 33.85-23.79 43.66-72.35 52.43-109.09 18.74-21.95-20.11-34.81-45.6-37.94-75.59-.24-2.33 1.12-5.47-2.17-6.67-2.66-.97-4.1 1.28-5.55 2.89-24.36 26.05-52.42 20.26-77.5 2.81-18.33-12.78-27.89-30.71-28.94-54.43-6.19 7.64-13.5 13.26-22.67 13.02-9.16-.24-18.01-3.45-25.56-9.08-4.75-3.54-7.64-8.61-10.29-13.67-1.61-3.06-3.38-4.35-5.31-1.05-14.95 25.41-38.43 38.44-65.76 46.08l.08-.16ZM618.288 1371.41c-6.672 15.51-11.818 31.76-22.268 45.51-20.5 26.77-45.421 46.72-79.507 52.59-9.165 1.6-18.972 1.93-27.413-2.26-6.673-3.29-7.638-.96-9.647 4.51-8.522 22.91-30.549 37.47-54.264 36.99-6.592-.16-11.657-3.3-16.963-6.11-4.582-2.42-6.592-1.53-8.28 3.45-11.898 36.03-40.035 49.38-74.924 52.91-11.255-.32-22.108-2.17-31.112-9.4-4.18-3.3-7.717-1.45-9.888 1.28-25.564 32.01-59.168 33.94-95.183 25.41-31.835-7.48-59.811-21.71-77.095-51.06-13.505-22.92-19.133-47.84-16.32-74.78 15.757-149.32 146.956-276.61 295.84-294.79 21.786-2.65 43.411-1.77 65.036 1.69 2.09.64 4.1 1.29 6.19 1.93 1.608.24 3.216.4 4.663.81 30.629 9.32 55.148 27.5 75.567 51.62 8.441 10.05 17.847 19.14 27.816 27.58 24.841 20.91 40.678 47.04 47.832 78.72 4.02 17.85 1.126 35.62-.241 53.4h.161Z" fill="#0E5415"/><path d="M1447.28 2345.74c-9.41-17.29-17.85-34.9-15.52-55.48.41-3.54-.48-6.19-4.98-6.43-42.61.72-65.2-44.07-62.62-82.34-4.02 1.85-5.63 4.02-5.95 7.07-48 47.69-136.75 38.92-165.13-26.05-2.65-5.71-4.9-5.63-9.08-2.65-61.18 42.05-135.06-20.35-137.95-85-10.13-114.26 61.74-214.78 136.34-293.82 172.84-163.07 448.42-42.46 542.56 149.56 93.9 157.45 110.14 388.55-3.54 539.56-83.52 90.46-168.74-39.56-144.22-125.2-43.41 29.75-99.12 25.65-129.75-19.22h-.16Zm-131.04-599.94c-127.58 23-213.19 150.04-250.66 266-28.86 105.74 28.7 206.33 141.81 146.18 1.77 11.02-17.2 5.07-1.44 22.84 40.91 66.5 125.81 48.65 169.86-4.82 4.58 8.12-7.39 18.09-4.26 25.97 10.61 50.34 32.88 73.82 84.73 64.65 1.13 2.57-.72 4.18-2.81 5.39-22.19 5.3-12.86 28.14-5.87 42.61 16.24 60.71 110.22 76.72 144.14 25.09 4.02-1.28 5.47-6.91 11.58-6.99-60.94 246.7 192.78 244.77 183.37-117.73 2.65-241.63-205.88-528.94-470.53-469.27l.08.08ZM1332.48 1287.14c-18.81 2.73-37.38 1.36-55.95-2.9-20.9-4.82-39.23-15.04-57-26.62-11.41-12.14-20.9-25.16-23.23-42.45-.8-6.27-4.66-3.3-7.16-.48-5.62 6.43-11.97 11.98-20.33 14.55-13.99 4.18-31.28-3.14-40.84-17.93-2.82-4.42-4.42-6.68-8.93-1.93-17.2 18.01-38.18 18.98-60.45 12.46-32.08-9.41-49.6-32.81-56.35-63.92-9.25-42.7 1.04-83.71 15.91-123.27 14.55-38.842 35.29-74.786 62.23-106.387 31.67-37.231 68.33-68.269 112.22-91.508 43.98-23.319 89.64-42.055 137.31-54.599 71.87-18.977 141.41-8.362 206.85 26.858 66.72 35.943 113.35 90.783 147.83 157.444 30.79 59.422 51.45 121.742 59.09 188.082 6.75 58.86 9.25 117.8-7.15 175.86-3.3 11.74-7.48 23.16-13.35 33.85-23.79 43.66-72.35 52.43-109.09 18.74-21.95-20.11-34.81-45.6-37.94-75.59-.24-2.33 1.12-5.47-2.17-6.67-2.66-.97-4.1 1.28-5.55 2.89-24.36 26.05-52.42 20.26-77.5 2.81-18.33-12.78-27.89-30.71-28.94-54.43-6.19 7.64-13.5 13.26-22.67 13.02-9.16-.24-18.01-3.45-25.56-9.08-4.75-3.54-7.64-8.61-10.29-13.67-1.61-3.06-3.38-4.35-5.31-1.05-14.95 25.41-38.43 38.44-65.76 46.08l.08-.16Zm-72.03-469.04c-3.38 1.045-6.91 1.608-10.05 3.136-54.5 25.571-105.07 56.85-147.19 100.755-12.14 12.624-24.92 25.088-33.04 40.446-10.86 20.505-25.57 38.593-34.33 60.633-8.28 20.74-14.23 41.97-20.5 63.28-3.14 10.78-.32 21.79-2.17 32.49-5.71 33.04 5.95 59.42 30.15 81.21 7.47 6.76 15.83 10.45 26.2 9.65 5.79-.4 11.58-.24 17.37 0 14.95.4 27.49-4.9 37.62-15.92 4.1-4.42 6.11-5.39 9 1.77 6.76 16.88 22.03 26.13 40.04 16.16 7.39-4.1 13.99-8.93 19.86-14.96 2.49-2.57 4.58-7.55 9.08-5.46 3.86 1.77 2.01 6.43 1.85 9.65-.97 21.3 9.73 36.98 25.4 49.13 28.06 21.71 60.46 28.78 95.43 25.08 19.69-2.09 36.73-9.73 50.96-23.96 10.29-10.21 19.54-21.15 28.14-32.73 1.29-1.68 1.85-4.9 4.66-3.85 3.06 1.2.89 3.77.41 5.78-1.77 6.92.48 12.39 5.3 17.45 15.28 15.84 27.58 16.25 43.17.89.72-.64 1.37-1.37 2.09-2.01 1.85-1.69 3.46-4.34 6.43-3.3 3.22 1.13 1.93 4.34 2.25 6.68 2.17 19.78 9.73 37.06 24.36 50.81 27.9 26.22 69.3 16.81 85.54-9.97 4.82 9.89 4.5 20.99 7.64 31.36 8.03 27.1 20.41 51.47 44.37 67.63 16.64 11.26 35.13 16.16 54.51 6.67 15.99-7.8 25.56-21.71 32.39-37.79 15.28-35.94 19.14-74.06 20.91-112.49 1.12-24.93-1.53-49.86-3.46-74.79-2.9-37.55-9.89-74.21-22.51-109.43-18.97-52.996-44.46-102.85-78.86-147.88-29.19-38.195-65.44-67.786-108.37-88.532-48.64-23.4-99.85-34.657-154.35-28.787-38.59 4.181-75.09 15.036-110.22 31.119l-.08.08ZM618.288 1371.41c-6.672 15.51-11.818 31.76-22.268 45.51-20.5 26.77-45.421 46.72-79.507 52.59-9.165 1.6-18.972 1.93-27.413-2.26-6.673-3.29-7.638-.96-9.647 4.51-8.522 22.91-30.549 37.47-54.264 36.99-6.592-.16-11.657-3.3-16.963-6.11-4.582-2.42-6.592-1.53-8.28 3.45-11.898 36.03-40.035 49.38-74.924 52.91-11.255-.32-22.108-2.17-31.112-9.4-4.18-3.3-7.717-1.45-9.888 1.28-25.564 32.01-59.168 33.94-95.183 25.41-31.835-7.48-59.811-21.71-77.095-51.06-13.505-22.92-19.133-47.84-16.32-74.78 15.757-149.32 146.956-276.61 295.84-294.79 21.786-2.65 43.411-1.77 65.036 1.69 2.09.64 4.1 1.29 6.19 1.93 1.608.24 3.216.4 4.663.81 30.629 9.32 55.148 27.5 75.567 51.62 8.441 10.05 17.847 19.14 27.816 27.58 24.841 20.91 40.678 47.04 47.832 78.72 4.02 17.85 1.126 35.62-.241 53.4h.161Zm-400.749-123.27c-2.01 0-3.698.88-5.145 2.25-27.976 26.29-52.013 55.56-70.584 89.33-17.686 32.41-29.905 66.66-33.683 103.33-2.814 27.58.402 54.68 16.641 78.24 13.023 18.82 31.593 30.64 53.54 36.91 20.982 6.03 41.964 11.18 64.072 6.03 18.248-4.26 30.307-17.13 42.687-29.75 6.673-6.92 6.673-6.76 10.933 1.12 1.045 1.93 2.814 3.62 4.583 4.83 7.396 4.9 15.837 7.16 24.519 6.51 29.182-2.17 51.772-14.47 64.152-42.54 3.778-8.68 5.869-17.53 7.396-26.61.402-2.25.723-4.91 3.537-4.83 2.653 0 2.01 2.74 2.251 4.51 1.608 13.67 7.878 19.38 21.786 19.54 18.892.24 38.347-13.43 45.662-31.2 3.779-9.17 5.386-19.38 11.898-29.03 2.492 5.71 1.688 10.21 1.527 14.47-.241 5.63 2.171 8.93 7.557 8.93 9.567 0 19.053 1.04 28.7-1.21 52.254-11.9 98.157-68.83 88.751-135.01-.643-4.74-.803-10.45-5.305-13.99-1.206-15.36-8.361-28.71-18.008-39.56-22.911-25.73-43.893-53.31-70.744-75.43-22.429-18.49-47.833-29.51-76.693-31.44-25.002-1.69-49.682 1.05-73.96 7.48-54.666 14.56-105.955 35.22-146.151 77.2l.081-.08Z" fill="#0C4911"/><path d="M78.463 319.713c-2.09 8.925-5.708 17.127-12.059 23.882 2.814-8.604 6.753-16.645 12.059-23.882ZM92.047 296.717c-.482 6.191-1.045 12.303-8.682 14.072 2.01-5.227 4.663-10.052 8.683-14.072ZM64.475 347.857c.964 5.549-1.608 9.569-5.547 13.107.643-4.824 2.733-9.166 5.547-13.107ZM2.09 642.562c2.332 2.574 2.252 5.147-.32 7.559-.805-2.573-.724-5.066.32-7.559ZM136.504 239.143c0 3.698-1.849 5.709-5.467 6.03 1.045-2.734 2.814-4.744 5.467-6.03ZM124.847 252.41c.241 3.779-1.528 5.87-5.306 6.272.965-2.734 2.653-4.905 5.306-6.272ZM5.547 620.289c0 1.367-.08 2.654-.161 4.021-2.653-1.448-1.206-2.734.16-4.021ZM57.077 365.627c.563 1.849.402 3.618-1.286 4.825-1.367-2.091-.241-3.538 1.286-4.825ZM115.281 264.068c.241 2.493-.724 4.021-3.377 4.182.402-2.011 1.447-3.458 3.377-4.182ZM103.706 279.508c.321 2.412-.563 3.94-3.136 4.262.322-1.93 1.206-3.458 3.136-4.262Z" fill="#1A7125"/><path d="M618.288 1371.41c20.741-87.17-79.989-186.08-155.798-212.13 38.749-69.23 53.782-149.56 65.358-227.319.965-12.303.804-12.223 11.657-5.227 13.425 8.684 28.378 12.785 44.134 14.715 43.17 5.388 83.527-7.398 124.044-18.736 64.152-20.826 135.137-30.234 188.678-74.54 41.079-15.359 89.234-17.61 125.569-46.88 26.53-16.725 45.18-45.191 66.48-65.213 38.99 3.136 8.85 24.767-3.53 42.618-80.07 86.441-220.917 96.653-272.93 213.731-53.46 96.251-91.083 234.321-17.927 315.611 67.126 74.7 232.567 35.38 326.707 18.9 16.48-2.9 38.51-30 43.17-13.51-5.22 78.64-339.65 50.01-383.865 137.18-38.749 38.76-31.353 93.12-40.919 142.65-9.728 136.46 6.351 294.22 115.361 389.67 3.376 8.12 29.423 20.26 16.882 25.09-23.072-.41-46.144 1.93-69.136-1.77-21.465-19.46-28.7-54.6-58.364-68.03 99.122 134.61 9.004 16.32-156.522 91.27-100.89 48.48-91.484 15.6-90.761-76.55-1.045-116.6-17.686-234 1.769-349.95 36.336-91.35 114.718-33.77 120.023-231.5l-.08-.08Zm59.65-364.59c-.804-.16-1.608-.24-2.412-.4-54.987 212.37-16.962 238.1 2.412.4Zm128.224 962.36c-29.182-46.64-69.538-84.11-87.305-135.9-10.049 34.1 59.409 114.35 87.305 135.9ZM705.191 1769.2c-3.296-48.09-4.261-103.17-6.512-147.8-12.461 44.95-9.325 102.28 6.512 147.8Zm36.578-729.09c10.611-31.68 17.123-64.165 18.248-97.616-9.325 11.74-21.384 75.186-18.248 97.616Zm-103.946 222.26c2.412-10.46 12.943-39.56 4.984-45.76-4.1-.32-2.733 5.47-3.296 8.77-1.688 11.98-5.627 24.69-1.688 36.99Zm88.752-151.01c.804.16 1.688.24 2.492.4 12.139-51.46-.563-51.14-2.492-.4Z" fill="#4E3832"/><path d="M219.467 179.558c33.121-32.245 74.523-48.488 118.336-57.896 50.887-10.936 96.871.965 136.504 35.944 13.747 12.142 27.091 24.444 38.587 38.758 1.93 2.331 3.779 5.226 7.638 5.87 2.331-3.297-.483-5.468-1.93-7.479-5.708-8.041-11.657-16.082-17.766-23.801-4.341-5.468-5.708-10.052-1.849-17.047 12.621-22.837 26.69-44.628 45.421-62.801 40.517-39.482 89.555-63.364 144.543-75.425 18.811-4.101 37.784-6.433 57.077-5.79 48.798 1.689 95.585 12.303 140.283 31.762 25.886 11.258 51.45 23.4 73.799 40.849 33.04 25.731 61.02 56.448 86.02 90.06 3.78 5.066 1.2 7.237-2.9 9.73-11.17 6.835-19.37 16.001-23.79 30.154 7.15-2.252 9.73-8.041 14.31-11.097 36.82-24.364 76.37-41.331 120.58-46.799 48.16-6.031 93.42 2.895 136.83 24.043 53.3 25.892 100.73 59.825 141.33 103.006 36.98 39.401 58.28 86.763 70.66 138.789 7.24 30.234 11.34 60.71 13.91 91.748 2.41 28.707 3.21 57.253-4.5 84.753-10.37 36.989-26.13 71.807-55.47 98.262-8.36 7.559-16.24 16.806-29.1 16.967-9.73-2.412-18.74-6.433-27.66-10.936-21.22-10.775-30.07-29.591-25.32-53.232 1.53-7.8 2.01-15.841 2.73-23.721.24-2.654-.56-5.146-3.54-6.192-2.57-.884-4.26.644-5.95 2.252-2.09 2.01-4.09 4.101-6.1 6.111-11.9 11.499-35.06 15.68-50.33 9.167-15.03-6.352-19.94-20.264-24.28-34.014-4.74-15.117-4.58-30.958-4.26-46.638 0-2.895.56-6.433-2.57-7.719-3.86-1.609-5.95 2.09-7.48 4.583-3.21 5.146-5.71 10.775-8.6 16.163-13.18 24.203-34 34.496-57.88 28.063-22.51-6.031-33.2-22.113-37.06-46.478-1.69-10.694-2.33-21.55-3.7-32.325-.4-3.055.97-7.88-4.82-7.639-4.75.161-5.15 4.342-6.03 7.559-2.49 9.328-5.07 18.494-9.73 27.018-8.68 15.921-25.72 23.802-42.85 19.62-31.03-7.558-42.44-22.515-43.09-54.518-.24-14.153 2.58-28.064 2.09-42.216-.08-3.377-.24-6.594-4.26-7.559-3.78-.884-5.87 1.126-7.72 4.182-6.83 11.257-14.87 21.63-23.55 31.44-18.57 20.907-39.15 30.315-63.509 4.986-14.309-14.796-18.007-33.049-18.248-52.026-.402-31.601 6.672-62.238 15.837-92.231 11.335-36.909 27.333-71.887 45.18-106.062 1.61-3.136 3.13-6.352 4.66-9.488 1.53-3.297 3.06-7.157 0-9.73-2.81-2.332-6.11 0-8.92 1.528-1.127.643-2.011 1.608-3.056 2.332-22.912 16.404-40.919 37.552-58.927 58.86-33.362 39.563-56.515 84.593-70.101 134.367-7.235 26.696-16.319 52.588-28.86 77.194-6.833 13.348-13.988 16.645-26.208 13.509-13.023-3.297-20.258-12.222-20.178-25.571 0-7.397-.482-14.715-1.929-21.952-.804-3.859-2.492-6.995-6.431-7.317-4.583-.483-6.03 3.779-6.512 6.996-1.045 6.915-1.286 14.072.241 21.067 5.547 26.214-10.29 58.62-34.809 69.475-27.253 12.062-44.617-1.447-52.656-29.43-1.126-4.101.321-10.614-5.949-9.81-6.03.804-3.216 7.237-3.779 11.418-.08.643 0 1.287.081 1.93 5.466 24.686-2.251 46.96-13.506 68.188-8.682 16.404-31.915 26.134-46.627 20.666-16.4-6.031-37.623-36.346-38.427-54.197-.241-4.825 3.216-13.268-4.743-13.187-7.798 0-4.582 8.523-4.582 13.348.161 33.129-8.923 62.961-29.584 89.256-16.239 20.665-43.411 22.273-60.374 2.332-7.717-9.087-13.586-19.379-16.239-31.2-4.743-20.665-4.743-41.813-5.788-62.881-.241-4.342 2.573-12.062-3.457-12.222-6.511-.161-5.948 7.558-6.109 12.946v.965c-1.045 31.038-8.361 60.388-27.494 85.396-10.21 13.428-21.545 27.42-41.16 26.535-44.456-1.929-88.993-35.38-77.095-94.321 2.653-13.107 2.813-26.697 8.119-39.241 1.769-4.181-1.608-6.433-4.1-7.639-4.18-2.01-4.18 2.252-5.145 4.744-3.215 8.363-6.672 16.645-9.566 25.089-11.577 33.772-31.272 58.699-68.011 67.866-26.207 6.514-57.48-3.859-71.789-25.812-25.323-38.918-37.945-81.536-39.07-127.692-.643-27.902 1.366-55.564 5.466-83.225 6.914-45.834 19.857-89.819 38.588-132.195 14.551-32.808 36.015-61.112 58.042-89.095h.161Z" fill="#1A7125"/><path d="M1447.28 2345.74c-9.41-17.29-17.85-34.9-15.52-55.48.41-3.54-.48-6.19-4.98-6.43-42.61.72-65.2-44.07-62.62-82.34-4.02 1.85-5.63 4.02-5.95 7.07-48 47.69-136.75 38.92-165.13-26.05-2.65-5.71-4.9-5.63-9.08-2.65-61.18 42.05-135.06-20.35-137.95-85-10.13-114.26 61.74-214.78 136.34-293.82 172.84-163.07 448.42-42.46 542.56 149.56 93.9 157.45 110.14 388.55-3.54 539.56-83.52 90.46-168.74-39.56-144.22-125.2-43.41 29.75-99.12 25.65-129.75-19.22h-.16Z" fill="#0E5415"/><path d="M632.034 697.885c-4.984-1.367-4.502 3.136-5.788 5.468-2.332 4.342-3.296 9.489-7.637 12.544-1.448-5.87 3.054-10.614 3.215-16.645.161-5.548 5.788-7.076 10.21-1.447v.08Z" fill="#1A7125"/><path d="M1210.61 2614.39c-4.82 3.78-7.4 9.25-10.53 14.24-7.16 11.01-14.23 22.11-21.55 32.97-1.44 2.17-3.37 5.62-6.83 2.81-3.06-2.41-.16-4.34 1.21-6.43 27.09-38.84 48.47-80.74 66.4-124.48 20.9-51.22 34.08-104.61 43.65-158.89 3.7-20.99 7.4-42.3 6.19-63.85-.56-9.16 2.49-13.1 11.34-15.03 16.15-3.46 15.83-3.94 12.62 12.3-2.41 12.22-3.94 24.52-5.95 36.83-.4 2.41-.4 4.98 2.41 5.3 2.09.25 2.57-2.33 2.97-4.26 3.14-16.32 6.76-32.48 9.09-48.89.88-5.87 3.54-7.39 8.28-8.28 19.37-3.46 26.61 1.69 24.92 18.9-.8 7.8.97 14.79 7.8 19.54 2.17 1.52 3.05 2.41 1.04 5.06-33.12 43.1-46.54 94.16-59.08 145.63-10.45 42.86-20.5 85.96-34.73 127.77-6.92 20.34-14.15 40.61-25.97 58.78-10.13 15.52-24.44 19.7-41.64 12.78-15.6-6.27-15.52-6.27-8.04-21.47 5.63-11.49 11.01-23.15 16.48-34.81.96-2.01 2.41-3.94 0-6.68l-.08.16Zm50.48-100.27c16.4-14.15 40.6-101.8 33.61-117.08-12.14 38.28-24.04 75.99-33.61 117.08Z" fill="#4E3832"/><path d="M1318.25 1743.95c264.73-59.59 473.1 227.56 470.53 469.28 11.09 355.41-247.84 379.21-185.86 119.81-1.45 5.95-7.16 5.87-11.18 7.15 1.37-36.58 20.66-74.05-30.55-43.82-26.85 4.1-35.61-3.06-36.9-27.26-2.49-13.19 10.05-28.55 2.42-39.56-4.18-2.98-7.64-.4-10.37 2.09-26.29 27.18-95.75 20.99-81.6-27.02-.24-23.72 32.48-50.17 20.66-70.52-72.11 40.61-133.05-38.68-100.57-106.86 3.38-7.24-1.29-8.05-6.35-6.92-170.67 70.52-100.89-214.86-30.23-276.37ZM1260.45 818.099c35.13-16.002 71.63-26.938 110.22-31.119 54.5-5.951 105.71 5.387 154.35 28.787 43.01 20.746 79.18 50.337 108.36 88.532 34.41 45.03 59.9 94.885 78.87 147.871 12.62 35.22 19.69 71.89 22.51 109.44 1.93 24.93 4.58 49.78 3.45 74.79-1.76 38.35-5.54 76.55-20.9 112.49-6.83 16.08-16.4 29.91-32.39 37.79-19.38 9.49-37.87 4.51-54.51-6.67-23.96-16.16-36.34-40.53-44.38-67.63-3.05-10.37-2.81-21.47-7.63-31.36-2.25-3.45-1.85-7.31-2.01-11.17-1.05-27.58 3.53-54.92 4.5-82.42.4-11.99-.16-24.29 2.33-36.27 1.21-5.95 4.34-15.2-2.49-17.29-7.72-2.33-9.41 7.48-11.98 13.19-7.88 17.61-16.08 34.9-31.83 47.2-14.72 11.58-32.56 12.95-49.12 9.73-15.2-2.9-25.41-15.84-29.02-31.76-3.78-16.81-2.82-33.69 1.2-50.42.89-3.46 2.65-8.2-2.01-10.13-5.3-2.17-8.28 1.45-10.21 6.03-3.54 8.68-9.24 16.08-14.71 23.56-17.04 23.08-37.86 29.11-60.86 14.96-36.98-22.6-48.39-52.43-43.73-91.91 1.37-11.26 1.77-23.08 7.72-33.37 2.65-4.59 10.69-9.17 4.82-14.4-7.07-6.19-10.69 3.46-15.19 7-12.3 9.57-24.6 18.49-41.64 14.79-29.75-6.35-44.62-27.66-52.5-54.354-11.49-38.677-6.59-77.114 4.1-115.309 5.15-18.494 15.36-34.335 24.6-50.739l.08.161ZM217.62 1248.22c74.04-68.83 210.946-125.6 299.617-56.69 57.56 54.19 132.163 121.9 38.025 185.5-13.023 5.71-24.278.17-35.613-5.54-20.018-8.04-23.876 55.56-51.129 12.46-14.792-21.55-18.329 16.97-28.137 24.12-13.103 18.26-37.623.41-41.16-16.56-.804-8.85-14.229-8.04-15.596 0-4.26 17.29-16.239 28.46-31.111 35.78-26.77 13.27-58.444-1.69-57.962-33.85-5.306-23.08 28.298-41.49 15.998-60.31-4.984-4.18-10.773-2.81-15.355 2.25-78.863 62.16-139.237-5.79-77.658-87.16h.081Z" fill="#1A7125"/><path d="M677.939 1006.82c1.688 13.75-2.412 27.1-4.02 40.45-3.618 29.67-8.361 59.26-13.023 88.77-2.01 12.87-5.065 25.65-7.557 38.44-.483 2.25-.884 5.23-3.377 5.07-3.778-.25-2.572-3.94-2.492-6.12 1.206-17.85 2.01-35.7 4.02-53.39 3.778-33.29 10.37-66.1 19.133-98.42 1.367-5.15 3.296-10.13 4.904-15.2.804.16 1.608.24 2.412.4ZM806.161 1969.26c-6.592-.72-9.003-4.42-11.254-7.48-16.481-22.43-36.418-41.97-52.817-64.41-13.184-18.01-21.224-38.6-26.69-60.15-.322-1.36.241-2.49 3.376-3.85 17.767 51.78 58.123 89.25 87.305 135.89h.08ZM705.191 1769.28c-6.19-11.34-7.958-23.56-9.325-35.54-2.653-22.52-5.306-45.11-4.02-67.87.724-13.35 2.573-26.62 3.859-39.96.241-2.02.965-4.27 2.975-4.43 3.456-.16 2.813 2.98 2.653 4.99-.402 5.39-1.689 10.77-1.689 16.16-.241 35.86 1.769 71.57 5.467 107.19.643 6.43.08 13.02.08 19.54v-.08ZM741.769 1040.19c-3.136-22.43 8.923-85.876 18.248-97.616-1.205 33.451-7.637 65.936-18.248 97.616ZM637.823 1262.45c-4.261-10.94.482-21.63.562-32.41 0-1.53.885-3.05 1.206-4.58.563-3.3-.804-9.09 3.296-8.77 4.985.41 2.975 6.44 2.412 9.49-2.171 12.06-2.492 24.53-7.396 36.27h-.08ZM726.574 1111.44c-.321-12.47 3.055-24.61 4.181-36.91.08-.97 1.447-2.25 2.411-2.49 1.287-.33 2.573 1.12 2.332 2.33-2.01 12.46-4.261 24.92-6.432 37.47-.804-.16-1.688-.24-2.492-.4Z" fill="#332522"/><path d="M413.05 300.093c3.215 27.098 5.707 52.025-2.01 76.712-3.618 11.659-10.21 17.368-19.214 16.805-8.36-.563-15.997-8.282-18.007-18.735-5.949-29.913 2.17-58.137 10.531-88.693 4.341 7.719 2.653 13.348 1.849 19.057-2.733 19.942-5.306 40.045-.724 60.067 1.046 4.583.724 11.901 6.914 12.222 5.547.322 6.431-6.674 7.959-10.855 5.788-15.68 6.753-32.406 7.878-48.89.322-5.468-.08-10.855 4.743-17.69h.081ZM734.454 97.618c-2.01 23.962-6.994 46.799-21.465 66.58-4.421 6.031-9.968 10.132-17.123 11.338-14.149 2.412-22.108-5.227-23.233-22.113-.724-10.373 1.768-20.424 5.547-29.993 7.637-19.138 19.776-35.461 34.327-53.393-.161 10.132-4.904 15.52-7.798 21.47-3.698 7.8-8.12 15.278-12.22 22.917-6.672 12.383-7.235 25.731-6.431 39.321.161 3.297.804 6.674 4.261 7.96 3.617 1.367 6.672-.08 9.566-2.734 13.184-12.142 20.339-27.661 26.208-44.145 2.09-6.031 2.412-13.027 8.441-17.208h-.08ZM664.513 345.928c3.779 6.754 2.573 13.187 1.608 19.298-2.733 16.485-.161 32.326 4.261 48.086.804 2.975 2.17 6.031 5.145 6.352 3.618.483 4.1-3.618 5.065-6.03 5.707-13.349 7.556-27.581 9.244-41.894 1.046-9.006 2.251-18.012 3.297-26.777 3.054 0 4.019 1.045 4.019 2.251-.161 23.963 3.055 48.006-3.457 71.646-.16.644-.161 1.287-.402 1.85-3.055 9.81-10.692 17.529-17.525 16.966-10.049-.884-14.631-7.88-17.606-16.564-5.948-17.369-2.652-34.818-.16-52.187 1.045-7.558.723-15.76 6.431-23.078l.08.081ZM1115.75 245.815c-1.37 8.282-5.39 12.142-8.52 16.404-10.45 14.313-20.1 28.948-23.32 46.799-.48 2.814-.64 5.709-.88 8.524-.56 7.156 2.81 6.432 7.4 3.698 12.13-6.995 18.73-19.057 27.01-29.591 4.74-6.031 8.92-12.544 13.34-18.816 1.21-1.769 2.09-4.985 4.74-3.618 2.82 1.447 1.53 4.583.33 6.754-5.31 9.891-10.37 19.862-16.16 29.511-5.39 9.086-11.1 17.851-18.97 25.249-7.16 6.835-14.88 8.684-23.72 5.468-8.52-3.136-7.64-10.936-7.48-18.012.24-15.761 7.56-29.109 16.24-41.412 7.88-11.096 16.88-21.469 29.99-31.119v.161ZM1170.98 363.457c1.93 7.157-1.45 12.303-3.14 17.61-5.47 17.449-11.42 34.657-20.9 50.417-4.58 7.639-10.37 14.314-20.82 11.66-10.53-2.654-11.9-10.936-12.3-20.103-1.37-31.199 16.08-55.242 30.22-80.491.33-.563 1.69-.402 3.46-.804-1.37 9.408-6.27 16.967-9.48 25.088-6.19 15.439-12.47 30.878-12.47 47.925 0 1.608-.24 3.297.17 4.825.8 2.975.56 7.156 3.77 8.282 4.18 1.447 5.71-2.814 7.88-5.548 11.9-14.635 18.81-32.004 26.61-48.81 1.61-3.457 2.57-7.156 7-9.89v-.161ZM344.958 203.439c-4.583 11.66-11.577 20.827-17.365 30.637-6.913 11.74-11.174 24.364-13.425 37.632-.483 2.895-1.93 7.157 1.366 8.765 3.055 1.528 4.663-2.493 6.753-4.262 15.355-13.348 23.716-31.521 34.006-48.488 1.768-2.975 2.653-6.513 7.315-9.006.965 7.639-2.813 13.188-5.225 18.977-7.959 18.495-14.953 37.472-30.066 51.865-5.949 5.629-13.024 8.202-20.018 4.101-6.753-4.02-7.958-10.855-6.672-19.218 4.1-26.616 19.776-46.719 35.452-66.902 1.447-1.849 3.055-4.262 7.798-4.101h.081ZM1395.02 383.721c5.39 16.403 7.72 33.45 13.67 49.613 2.25 6.111 5.47 11.579 8.44 17.208 1.05 1.93 2.49 4.181 4.99 4.02 2.73-.16 3.21-2.975 3.77-4.985 3.86-13.187 2.74-26.696 1.29-40.045-1.2-10.775-3.38-21.389-5.47-32.003-.56-2.734-1.28-5.388 2.01-6.192 2.74-.643 3.78 1.85 4.35 4.101 3.85 13.831 7.71 27.581 9.96 41.814 2.01 12.705 1.69 24.766-2.17 36.828-1.93 5.95-4.5 11.499-11.49 12.785-7.72 1.448-11.82-3.859-15.44-9.247-8.92-13.429-11.01-29.109-13.58-44.467-1.61-9.649-3.46-19.379-.41-29.35l.08-.08ZM760.982 134.447c5.387 6.996 4.422 15.519 5.869 23.4 2.09 11.418 4.1 22.675 12.702 31.44 5.145 5.307 9.164 4.584 11.335-2.171 3.537-11.257 6.11-22.676 4.1-34.818-1.93-11.579-2.01-23.48-4.824-35.059-.321-1.447-.321-3.457 1.367-4.181 1.849-.804 3.216.643 3.618 2.171 5.949 25.008 15.515 49.694 7.315 76.149-2.412 7.719-7.235 13.509-14.953 14.635-8.36 1.206-14.39-4.182-18.731-11.177-11.737-18.897-10.209-39.563-7.878-60.469l.08.08ZM1356.6 455.608c.8 19.54-2.01 38.276-13.02 54.921-8.04 12.142-18.17 11.418-24.68-1.609-3.3-6.674-4.43-13.991-4.51-21.308-.24-14.072-.16-28.225 0-42.296 0-2.895-1.36-7.64 3.14-7.559 3.46.08 2.57 4.583 2.49 7.317-.56 16.726 1.37 33.13 5.71 49.212.88 3.377 1.53 7.719 5.39 8.443 4.42.804 5.14-4.262 6.91-6.916 6.75-10.373 9.32-22.354 10.85-34.415 1.05-7.881 1.37-15.841 2.01-23.802.16-1.849-.32-4.342 2.41-4.342 2.17 0 3.14 2.091 3.14 4.101.08 6.111 0 12.142 0 18.253h.16Z" fill="#0C4911"/><path d="M1261.01 2514.04c9.65-41.09 21.47-78.8 33.61-117.08 6.91 15.28-17.21 102.93-33.61 117.08Z" fill="#332522"/><path d="M1530.16 1987.35c.32 15.68.65 29.75-6.83 42.62-4.18 7.24-9.81 12.3-18.57 10.77-8.04-1.36-9.73-8.44-11.09-15.11-5.63-27.67 1.68-53.88 9.56-79.93.64-2.09 1.29-4.99 4.26-3.94 2.58.96 1.77 4.02 1.29 5.95-3.22 12.38-4.82 25.01-6.67 37.63-1.85 12.87-.33 25.49 2.73 37.95.48 1.85.56 4.27 2.73 4.75 2.66.56 3.86-1.93 4.99-3.78 5.22-8.77 6.59-18.58 8.12-28.39 2.09-13.34 1.85-26.77 1.93-40.2 0-2.25-1.29-6.11 2.41-6.19 3.13-.08 3.13 3.37 3.29 5.95.65 11.17 3.22 22.19 1.85 31.92ZM1570.36 2016.54c5.38-26.94-5.71-49.53-10.77-73.17 4.98.24 6.27 3.29 7.71 6.11 8.77 17.21 15.68 35.06 18.65 54.28 1.05 6.83-.64 13.5-3.61 19.54-4.91 10.05-15.44 10.45-22.51 1.52-8.2-10.29-10.61-22.59-11.9-34.98-.8-7.55-1.21-15.27-2.17-22.83-.24-2.17-.16-5.23 2.49-5.55 2.98-.4 2.89 2.65 3.3 4.82 1.85 9.09 3.78 18.1 5.78 27.1 1.85 8.28 5.71 15.36 13.03 23.16ZM1581.61 2204.54c15.36-19.86 15.52-43.82 20.9-66.1h2.82c0 9.49.8 19.14-.16 28.55-1.29 11.98-2.82 24.12-7.64 35.46-1.13 2.65-2.25 5.39-4.1 7.48-4.02 4.58-8.2 9.57-15.27 8.12-7.16-1.45-9.49-7.56-10.46-13.59-3.05-20.02.33-39.4 6.52-58.46.64-2.01 1.85-4.82 4.66-3.54 2.33 1.13 1.61 4.02 1.12 6.12-2.89 12.86-4.01 25.81-3.61 38.99.16 5.87 1.44 11.18 5.14 16.97h.08ZM1697.86 2227.3v22.27c.08 11.18-1.21 22.52 2.57 33.37 1.05 2.98 2.17 6.84 5.55 7.4 3.86.64 4.66-3.62 6.27-6.19 10.61-17.61 12.3-37.39 14.47-57.09.24-2.42-.64-5.23 3.29-7.72 4.59 9.16 2.74 18.81 2.26 27.82-.73 13.02-3.06 26.05-8.2 38.27-1.21 2.98-2.66 5.87-4.51 8.53-3.69 5.22-8.36 8.92-15.35 7.64-6.75-1.21-10.21-5.87-12.46-11.9-5.47-14.4-3.46-29.03-.64-43.51 1.2-6.27.4-13.26 6.83-18.81l-.08-.08ZM1461.51 1842.61c-23.07 3.86-46.39 6.68-69.38.4-8.6-2.33-8.68-11.58-1.12-18.57 7.79-7.16 17.76-10.53 27.73-12.55 11.58-2.33 23.47-3.29 35.37-2.41 2.01.16 5.31-.96 5.55 2.09.24 3.38-3.06 3.3-5.63 3.62-12.94 1.77-26.21 1.53-38.59 6.35-6.75 2.66-16.23 4.91-16.07 12.47.08 4.02 11.01 3.21 17.2 4.5 14.87 2.98 29.91.72 44.94 3.94v.16ZM1382.56 867.311c-8.36 21.871-18.97 42.055-39.15 55.322-4.82 3.136-10.12 5.87-16.15 4.825-11.26-1.93-15.68-10.453-12.3-23.56 4.9-19.058 15.99-34.095 30.87-46.478 7.07-5.95 14.55-11.418 21.94-16.966 1.53-1.126 3.38-4.343 5.47-1.528 2.01 2.653-.56 4.824-2.49 6.433-9.25 7.88-18.17 16.001-25.73 25.651-8.04 10.373-13.58 21.55-16.4 34.255-.48 2.171-1.61 4.824.73 6.03 1.2.644 3.61-.482 5.3-1.206 16-7.317 27.01-20.183 37.3-33.772 2.9-3.86 5.71-7.478 10.7-9.006h-.09ZM1402.82 888.7c-3.21 8.684-5.95 17.369-9.56 25.732-4.91 11.498-6.68 23.399-5.55 35.702.4 4.583.4 10.453 5.95 12.062 5.63 1.608 9.89-2.332 13.1-6.353 10.37-13.107 15.36-28.707 19.3-44.628 1.6-6.513 2.81-13.107 4.02-19.7.4-2.332.8-5.066 3.45-4.986 3.3.161 2.58 3.377 2.25 5.307-3.45 23.239-3.69 47.282-15.99 68.51-3.7 6.353-8.53 11.177-15.2 14.072-14.07 6.111-27.41-1.608-28.38-16.886-.64-10.212-.4-20.344 3.46-30.315 4.74-12.303 10.21-24.204 17.28-35.3 1.13-1.85 1.85-4.262 5.95-3.217h-.08ZM1600.35 1000.47c5.14 6.11 3.21 13.91 4.74 20.75 3.05 13.42 5.87 26.77 13.1 38.75 2.01 3.3 3.7 7.4 8.44 6.44 4.18-.89 5.87-4.83 7.08-8.53 4.5-13.59 4.98-27.42 1.44-41.33-1.52-6.19-2.89-12.38-4.26-18.653-.4-1.85-1.04-4.182 1.05-5.147 2.25-1.045 3.7.965 4.26 2.734 7.15 22.596 14.63 45.276 4.98 68.996-5.62 13.99-18.33 15.92-28.7 4.66-5.86-6.43-8.12-14.55-10.12-22.51-2.98-12.07-3.94-24.53-4.59-36.91-.16-2.98-1.2-6.52 2.58-9.17v-.08ZM369.557 1302.98c1.125-16.73 7.074-31.85 13.666-46.72.804-1.77 1.849-4.1 4.02-3.3 3.296 1.13 1.125 3.62.643 5.63-2.412 9.89-4.582 19.86-7.315 29.67-1.367 5.15-.965 10.21-.885 15.28.081 3.46.483 7.72 3.618 9.41 4.019 2.09 6.029-2.5 8.441-4.67 9.406-8.68 10.612-20.66 12.702-32.24.884-4.99 1.366-10.05 2.009-15.12.242-1.85 0-4.34 2.734-3.94 2.09.32 3.215 2.49 2.813 4.42-3.135 16.73-.402 34.66-10.048 50.18-2.091 3.3-4.181 6.43-7.075 9.01-9.647 8.6-20.902 5.38-24.198-7.16-.884-3.38-.803-6.92-1.205-10.29l.08-.16ZM442.552 1245.56c4.261 4.67 8.522 9.41 12.863 13.99 3.135 3.22 6.19 6.68 9.807 9.17 4.261 2.9 9.647 8.85 14.23 4.66 5.466-4.9.321-11.57-2.573-16.48-5.225-9.09-13.506-15.84-20.58-23.8 1.367-.97 2.09-1.69 2.331-1.53 14.31 9.01 27.574 19.14 30.388 37.15 2.01 12.63-5.708 17.77-17.686 12.95-7.717-3.06-12.943-8.93-17.766-15.6-4.422-6.11-10.13-11.34-13.345-18.26.804-.72 1.527-1.44 2.331-2.25Z" fill="#0C4911"/></g><defs><clipPath id="a"><path fill="#fff" d="M0 0h1801v2827H0z"/></clipPath></defs></svg>