<svg width="1656" height="2655" fill="none" xmlns="http://www.w3.org/2000/svg"><g clip-path="url(#a)"><path d="M1163.15 2036.43c30.08-16.07 57.87-35.05 81.63-59.93 12.44-13.06 20.74-29.03 32.77-42.2 1.35 15.97-3.73 31.42-4.46 47.07-1.04 25.2-.62 50.5-.62 75.69 0 26.03-1.87 52.36.93 78.18 3.22 30.58 6.53 61.69 15.56 91.24 10.58 34.73 23.75 68.74 52.68 93.42 17.01 14.41 36.72 23.43 58.91 18.66 23.55-5.08 42.11-19.6 56.11-39.5 14.32-20.22 17.84-43.55 19.81-67.4.42-4.77-1.35-11.09 6.02-11.4 29.14-1.45 45.11-20.63 55.69-43.96 27.59-60.55 40.04-125.04 42.63-191.19 2.28-56.82-7.26-112.5-19.08-168.07-19.71-92.49-54.04-176.99-116.68-249.88-64.51-74.96-147.07-109.59-242.8-117.57-31.63-2.6-63.57-1.25-95.1 4.56-44.91 8.29-89.3 19.18-129.645 40.54-37.96 20.11-72.393 45.51-101.121 78.59-22.61 26.13-40.241 53.81-49.265 87.61-8.193 30.79-3.941 58.48 13.587 83.98 8.608 12.45 18.565 25.72 37.337 22.5 5.704-.93 6.223 2.08 7.052 6.95 6.949 40.12 28.418 67.7 69.178 77.97-3.008 15.14-6.845 30.07-12.031 44.79-18.876 53.19-40.967 103.79-87.12 140.39-24.891 19.8-49.783 39.71-73.74 60.86-28.211 24.88-54.658 51.42-79.86 79.11-24.165 26.54-46.568 54.64-68.866 82.84-15.35 19.28-32.774 37.12-46.983 57.13-15.453 21.67-34.847 39.61-51.234 60.34-3.319 4.15-5.186 4.98-8.816-.41-7.052-10.68-15.764-20.12-25.514-28.52-4.874-4.14-10.578-13.79-15.66-9.33-5.705 5.08 4.459 10.58 7.882 15.04 22.195 29.34 35.781 63.35 51.961 95.8 11.097 22.29 23.646 43.44 38.581 63.25 23.025 30.48 52.687 54.84 77.889 83.15 14.728 16.48 27.277 34.94 41.071 52.36 1.971 2.49 3.734 7.98 8.09 4.98 3.215-2.29-.104-6.02-1.556-8.82-11.616-22.5-23.128-45.1-37.544-65.84-4.668-6.74-4.979-11.92-1.038-18.76 5.808-10.27 10.061-21.26 14.002-32.35 16.075-44.79 26.758-91.55 47.19-134.58 31.321-65.84 67.31-128.88 121.345-179.48 21.158-19.8 45.012-34.63 73.637-42.3 28.21-7.67 57.561-9.64 85.361-18.76 3.73 13.47 9.33 25.71 20.12 35.45 28.62 25.93 61.81 36.92 99.46 28.52 17.32-3.84 31.84-16.59 49.99-20.01 3.42-.63 6.95-4.77 8.81-8.19 2.7-5.08 6.23-6.64 11.72-7.26 12.03-1.45 19.81-8.5 24.17-20.01 5.91-15.45 6.84-31.11 2.28-46.87-8.61-29.96-23.44-54.64-55.8-64.18-6.74-1.97-9.23-7.36-9.02-14.2h.1Zm-.1-851.55c-2.39 5.29-5.19 10.37-6.95 15.76-13.48 40.85-43.66 62.01-83.8 72.27-46.57 11.92-93.862 13.89-141.363 11.3-25.41-1.35-50.923-4.77-75.296-13.17-16.387-5.7-21.988-15.34-19.291-32.14.83-5.29 1.659-10.57 3.111-15.76 10.061-35.77 21.262-71.33 30.181-107.41 13.69-55.06 39.204-101.61 85.875-136.138 27.381-20.218 50.713-45.516 66.373-76.103 31.64-62.002 49.16-128.048 52.28-197.826.2-3.525-1.66-7.569 2.07-10.369 19.6 8.399 42.21 2.696 52.79-11.716 4.88-6.635 5.91-6.013 10.37.519 14.94 21.877 41.49 24.987 61.3 7.672 5.39-4.769 7.67-4.354 12.24 1.348 17.94 22.396 40.86 33.904 70.42 29.446 28.73-4.251 51.34-16.9 61.4-45.62 2.48-7.154 5.39-6.74 10.37-3.837 8.4 4.874 17.01 9.125 27.07 9.436 35.26 1.036 60.05-18.145 79.03-44.48 45.63-63.35 56.73-134.995 42.21-210.269-16.29-84.294-57.56-156.457-113.57-220.947-25.82-29.757-54.55-56.196-85.56-80.25-43.36-33.697-88.89-64.387-140.02-84.71-79.65-31.622-161.89-47.59-248.288-40.435-52.064 4.354-101.639 16.692-148.414 39.503-73.845 36.185-138.562 85.642-198.612 141.423-44.39 41.162-84.32 86.471-118.234 136.757-60.569 89.997-97.077 188.391-99.981 297.673-1.14 43.235-3.422 86.575 7.572 129.292 10.786 41.991 24.787 82.739 52.686 116.228 19.084 22.914 37.752 47.798 70.837 54.537 28.729 5.91 53.62-4.562 67.621-30.171 8.505-15.553 6.845-32.038 7.364-48.628 2.593.623 4.356.623 5.704 1.348 23.336 11.613 42.419 8.399 59.739-10.057 21.884-23.328 33.707-51.53 39.204-82.635 1.971-11.094 2.282-22.395 3.63-35.77 13.483 15.137 28.936 18.973 46.36 16.589-3.63 26.646-6.222 53.396-5.6 80.25 1.244 52.671 3.111 105.238 7.052 157.805 2.801 36.915-2.489 73.405-12.342 109.075-12.341 44.58-25.617 88.75-55.486 125.77-55.28 68.43-121.968 123.17-197.99 167.34-104.44 60.86-179.529 148.68-231.179 257.24-30.595 64.07-53.723 131.26-82.141 196.27-20.535 47.17-43.456 93.73-50.405 145.78-.726 5.49-2.904 7.56-9.127 4.97-20.846-8.91-41.9-17.31-62.85-25.82-3.63-1.45-8.401-5.39-10.994-1.03-2.386 4.15 3.734 5.29 6.43 7.46 31.633 25.92 69.385 41.06 105.996 57.75 43.871 20.02 90.542 33.29 134.102 54.23 44.389 21.36 82.66 53.19 128.086 72.68 23.647 10.16 44.39 26.34 67.933 37.02 5.497 2.48 10.683 4.97 18.772 1.03-15.142-17.21-31.632-31-47.604-45.41-6.949-6.32-18.358-9.54-13.794-24.05 4.148-13.07 5.808-27.17 6.741-40.96 2.697-38.46 6.949-76.83 15.972-114.05 25.825-105.76 57.458-209.44 111.804-304.93 34.433-60.55 74.362-116.75 126.634-162.78 23.751-20.95 49.679-40.13 78.719-53.92 35.055-16.59 72.081-26.85 109.937-35.56 55.798-12.75 112.633-20.11 168.636-31.83 42.42-8.81 85.26-15.86 126.02-31.93 58.59-23.23 93.86-64.18 103.29-126.81 8.4-1.86 17.32 1.66 25.73-2.49 3.94-1.97 6.43 1.14 9.12 4.15 11.72 13.06 23.03 27.68 43.87 15.66 3.11-1.77 5.4-.52 5.91 3.52 2.29 18.04 14.63 29.66 26.66 41.48 26.96 26.64 82.04 26.33 97.91-13.9 1.76-4.56 3.21-10.16 8.08-13.37 1.15 1.86 2.81 3.42 3.12 5.08 3.83 24.88 19.49 42.4 36.71 58.79 11.31 10.78 25.31 17.83 40.35 19.49 44.28 4.97 76.95-17.42 93.13-59.83 11.72-30.69 14.94-62.62 16.7-94.76 1.87-32.56-1.56-64.8-6.95-97.05-12.03-72.267-42.11-136.343-89.92-191.295-54.03-62.002-124.25-94.973-205.15-106.171-40.76-5.598-81.41-3.006-121.24 5.807-63.06 13.997-117.71 44.894-163.14 90.411-33.5 33.489-59.53 72.785-80.171 115.606-12.549 26.022-20.95 52.772-19.394 81.912 1.452 26.75 10.06 50.7 33.705 65.63 21.78 13.68 44.7 20.11 67.42 1.24 4.66-3.94 5.7.11 7.15 2.59 18.88 32.98 48.85 46.35 85.15 48.84l.21.41Z" fill="#FEFEFE"/><path d="M1076.24 695.4c-3.73 2.799-1.87 6.843-2.07 10.368-3.12 69.675-20.54 135.721-52.28 197.827-15.66 30.69-38.993 55.884-66.373 76.102-46.671 34.523-72.185 81.083-85.875 136.133-8.92 36.08-20.121 71.54-30.181 107.42-1.452 5.18-2.282 10.47-3.111 15.76-2.697 16.9 2.8 26.54 19.29 32.14 24.373 8.4 49.887 11.82 75.297 13.17 47.501 2.49 94.793.52 141.363-11.3 40.14-10.27 70.21-31.42 83.8-72.27 1.76-5.39 4.67-10.47 6.95-15.76 9.13-2.39 20.43-1.04 26.76-8.09 10.78-12.03 16.8-8.4 24.06 3.11 7.88 12.55 23.64 14.52 34.43 23.43-9.44 62.63-44.7 103.58-103.3 126.81-40.76 16.17-83.59 23.12-126.01 31.93-56.006 11.62-112.841 18.98-168.639 31.83-37.856 8.71-74.882 18.98-109.937 35.57-29.04 13.79-54.968 32.97-78.719 53.91-52.271 46.04-92.201 102.23-126.634 162.78-54.346 95.49-85.979 199.18-111.804 304.93-9.127 37.23-13.379 75.69-15.972 114.05-.933 13.79-2.696 27.89-6.741 40.96-4.564 14.51 6.845 17.83 13.794 24.05 15.972 14.42 32.462 28.2 47.604 45.42-8.089 3.94-13.379 1.34-18.772-1.04-23.543-10.68-44.286-26.85-67.932-37.02-45.531-19.59-83.801-51.42-128.087-72.68-43.56-20.94-90.231-34.32-134.102-54.22-36.611-16.7-74.26-31.83-105.996-57.75-2.696-2.18-8.816-3.32-6.43-7.47 2.593-4.35 7.364-.41 10.994 1.04 21.053 8.5 42.107 16.9 62.85 25.81 6.223 2.7 8.401.63 9.127-4.97 6.949-51.95 29.87-98.5 50.405-145.78 28.314-65.01 51.546-132.2 82.141-196.27 51.754-108.45 126.739-196.38 231.179-257.24 75.918-44.27 142.606-98.91 197.99-167.34 29.869-37.02 43.248-81.18 55.486-125.77 9.853-35.67 15.143-72.16 12.342-109.072-3.941-52.567-5.911-105.134-7.052-157.805-.622-26.854 1.97-53.604 5.6-80.251 21.78-8.916 35.263-26.127 46.36-46.035 10.476-18.662 18.98-38.258 27.277-61.276 2.697 13.168 7.571 22.395 7.986 32.867-2.8 32.038-5.393 64.18-8.504 96.218-3.941 40.021-5.393 80.147-3.319 120.272.726 13.893 3.422 27.683 9.127 40.851 4.563 10.471 12.134 16.485 22.92 18.559 34.952 6.739 67.518 1.037 96.143-20.529 38.686-29.239 61.71-69.157 74.674-115.088 11.201-39.918 21.051-80.147 31.531-120.272 8.4-5.184 16.7-10.575 23.85-19.492 6.23 20.736 17.53 34.734 36.61 41.577l-.1-.104ZM992.128 2031.04c-3.63 13.37-6.534 26.85-4.771 40.95-16.905 13.79-34.226 27.17-45.53 48.63h12.342c19.498 0 38.063-6.53 57.351-7.78-3.94 13.38-1.86 26.86 0 40.23-27.793 9.23-57.144 11.2-85.354 18.77-28.521 7.78-52.479 22.6-73.637 42.3-54.035 50.5-90.024 113.53-121.345 179.48-20.432 43.02-31.114 89.89-47.19 134.58-4.045 11.19-8.297 22.08-14.001 32.35-3.838 6.94-3.63 12.02 1.037 18.76 14.416 20.84 25.928 43.34 37.544 65.84 1.452 2.8 4.771 6.53 1.556 8.81-4.356 3.01-6.119-2.49-8.09-4.97-13.794-17.42-26.343-35.88-41.071-52.36-25.306-28.31-54.864-52.67-77.889-83.16-15.038-19.8-27.484-40.95-38.581-63.24-16.18-32.56-29.766-66.46-51.961-95.81-3.319-4.45-13.587-9.85-7.882-15.03 5.082-4.46 10.786 5.18 15.661 9.33 9.749 8.4 18.461 17.84 25.513 28.51 3.63 5.4 5.497 4.57 8.816.42 16.387-20.74 35.781-38.67 51.235-60.34 14.208-20.01 31.632-37.85 46.982-57.13 22.298-28.1 44.701-56.3 68.866-82.85 25.306-27.68 51.65-54.22 79.86-79.11 23.958-21.15 48.849-41.05 73.74-60.86 46.153-36.6 68.244-87.19 87.12-140.38 5.186-14.73 9.023-29.55 12.031-44.79 22.609 3.94 45.115 3.31 67.41-2.6-2.07 14.62-3.94 29.24-6.22 43.76-3.42 21.87-9.85 43.13-11.82 65.32-1.04 11.82 3.63 18.56 14.93 21.67 18.88 5.18 38.17 6.74 57.46 6.32 30.6-.62 61.09-2.59 86.91-21.87 25.52-19.08 41.59-45.31 54.97-73.52 3.63-7.67 5.19-16.48 11.93-22.6 1.55 1.25 3.52 2.28 4.77 3.73 14.1 17.11 30.7 25.92 53.1 16.7-2.39 15.13-3.63 30.69-10.27 44.89-12.13 13.17-20.33 29.14-32.77 42.2-23.75 24.88-51.55 43.86-81.62 59.93-12.66-7.05-20.85-19.18-32.16-27.89" fill="#756228"/><path d="M1076.24 695.4c-19.08-6.843-30.49-20.841-36.61-41.577-7.26 8.917-15.46 14.412-23.86 19.492-26.443 2.592-49.468-2.592-63.469-28.098-1.452-2.592-2.904-3.732-5.497-.933-9.231 9.954-19.809 8.295-30.803 2.281-.934 7.051-1.763 13.479-4.252 19.596-13.276 32.868-68.451 54.33-102.262 11.613-6.016-7.569-10.787-16.175-16.18-24.366-.415-10.472-5.185-19.7-7.986-32.867-8.297 23.121-16.801 42.613-27.276 61.276-11.098 19.907-24.581 37.015-46.36 46.035-17.424 2.385-32.878-1.451-46.361-16.589-1.244 13.375-1.659 24.677-3.63 35.771-5.496 31.104-17.216 59.306-39.203 82.635-17.321 18.455-36.404 21.669-59.74 10.057-1.452-.726-3.111-.726-5.704-1.348-.622 16.589 1.141 33.075-7.364 48.627-14.105 25.713-38.996 36.082-67.621 30.172-33.085-6.74-51.753-31.727-70.837-54.537-27.899-33.49-41.796-74.237-52.686-116.229-10.994-42.717-8.712-86.056-7.571-129.292 3.007-109.281 39.515-207.572 99.98-297.672 33.811-50.39 73.844-95.596 118.234-136.758 60.05-55.677 124.664-105.238 198.612-141.423C814.465 18.352 864.04 6.118 916.208 1.763 1002.6-5.39 1084.85 10.576 1164.5 42.2c51.23 20.322 96.66 51.012 140.01 84.709 31.01 24.054 59.74 50.493 85.57 80.25 55.9 64.491 97.28 136.654 113.56 220.948 14.52 75.273 3.43 146.814-42.21 210.268-18.98 26.336-43.66 45.517-79.03 44.48-10.16-.311-18.67-4.562-27.07-9.435-5.08-2.903-7.88-3.318-10.37 3.836-10.16 28.72-32.67 41.37-61.4 45.621-29.56 4.354-52.48-7.051-70.42-29.446-4.56-5.703-6.84-6.118-12.24-1.348-19.81 17.315-46.36 14.204-61.29-7.673-4.46-6.532-5.5-7.154-10.37-.518-10.48 14.308-33.19 20.114-52.79 11.716l-.21-.207Zm194.26 7.776c8.6.104 17.21 1.037 25.82-1.452 23.13-6.739 35.06-24.469 42.73-45.102 4.56-11.923 7.57-11.094 14.83-2.695 7.36 8.398 17.11 11.923 28.63 12.545 26.75 1.555 46.87-11.923 62.33-30.586 31.01-37.43 45.11-82.428 48.95-130.225 3.73-46.347-4.35-91.552-20.02-135.099-29.55-81.909-79.54-150.029-144.88-206.95-62.85-54.745-131.51-99.432-212.2-124.42-47.3-14.619-95.63-21.462-144.684-24.468-23.128-1.452-46.152 1.658-69.073 4.561-47.501 5.91-93.446 18.041-136.384 38.674-50.82 24.47-97.18 56.196-139.806 93.418-48.953 42.717-96.454 86.886-135.658 139.038-22.61 30.068-45.012 60.136-60.776 94.663-14.935 21.566-23.44 46.242-32.981 70.4-18.876 47.901-28.936 98.188-31.529 149.303-3.008 61.173-2.386 122.138 21.157 180.719 17.943 44.687 43.042 82.635 85.149 107.622 29.663 17.626 60.673-.103 67.311-32.971 3.941-19.388 3.007-38.984 1.97-59.513 8.816 12.027 21.573 17.522 33.811 23.846 6.845 3.526 12.964 3.526 20.017.312 22.195-10.161 32.047-30.172 41.174-50.701 13.172-29.653 13.69-61.588 17.424-93.004.311-3.006-1.763-7.776 2.386-8.605 4.667-.933 5.082 4.355 6.845 7.465.829 1.452.726 3.214 1.452 4.769 11.408 24.781 36.403 38.156 59.635 11.924 12.861-14.412 22.091-31.001 28.936-48.835 9.023-23.536 16.906-47.486 25.514-71.126 1.348-3.629 2.074-9.228 7.156-8.917 5.186.311 6.431 5.081 7.675 9.85 3.215 12.753 6.741 25.506 10.786 38.052 4.771 14.93 7.675 30.482 15.765 44.272 16.801 29.135 56.524 32.764 75.815 6.429 9.023-12.339 9.956-26.854 9.438-41.474 0-2.695-1.245-6.532 2.696-7.361 2.697-.518 3.734 2.592 5.186 4.562 4.46 6.221 9.749 12.131 18.046 11.301 8.92-.933 8.816-9.746 11.305-16.07.415-1.141.622-2.489 1.245-3.526 1.452-2.177.414-6.739 4.459-6.428 3.423.311 3.838 3.836 4.564 6.636 3.526 12.753 10.89 23.017 20.535 31.83 14.831 13.686 35.569 13.79 50.199-.207 6.84-6.532 13.69-13.168 18.98-21.151 1.35-2.074 3.21-5.599 6.74-3.733 2.8 1.452 1.66 4.147.83 6.532-7.05 20.944 17.53 50.183 37.75 53.397 24.27 3.836 45.84-12.753 51.03-39.503 3.21-.208 4.98 1.347 5.29 4.562.21 25.92 20.53 43.546 40.65 35.044 9.65-4.043 14.73-12.753 20.23-20.944 1.97-3.11-.62-9.849 5.29-9.227 4.46.518 3.73 6.739 5.18 10.368 9.65 24.676 32.57 42.406 55.18 42.199h-.1ZM1277.55 1934.3c6.63-14.31 7.88-29.75 10.26-45 .21-.31.42-.62.63-1.03-.21.31-.31.72-.52 1.03-22.4 9.23-39 .42-53.1-16.69-1.25-1.55-3.11-2.49-4.77-3.73-4.05-13.17-11.93-25.4-9.34-40.13.31-1.55.21-3.63-2.07-3.73-14.11-.93-20.85-10.57-25.31-23.43-31.32 54.64-79.34 59.82-118.34 2.69-10.68 23.75-30.38 36.5-53.1 45.52-22.296 5.91-44.698 6.53-67.412 2.59-40.759-10.26-62.228-37.84-69.177-77.97-.83-4.87-1.348-7.88-7.052-6.94-18.773 3.11-28.729-10.16-37.337-22.5-17.528-25.4-21.78-53.19-13.587-83.99 9.023-33.8 26.654-61.58 49.264-87.61 28.625-33.07 63.162-58.47 101.121-78.59 40.34-21.36 84.73-32.24 129.64-40.54 31.53-5.8 63.48-7.26 95.11-4.56 95.73 7.98 178.39 42.61 242.79 117.58 62.65 72.78 96.97 157.28 116.68 249.87 11.82 55.57 21.37 111.25 19.08 168.07-2.59 66.15-14.93 130.64-42.62 191.19-10.69 23.33-26.55 42.61-55.7 43.96-7.36.31-5.6 6.74-6.01 11.41-1.97 23.84-5.6 47.17-19.81 67.39-14 19.91-32.57 34.32-56.11 39.5-22.2 4.77-41.9-4.14-58.91-18.66-28.94-24.67-42.11-58.68-52.69-93.42-9.02-29.55-12.34-60.65-15.55-91.24-2.7-25.81-.83-52.05-.94-78.17 0-25.2-.52-50.5.62-75.69.63-15.76 5.81-31.11 4.46-47.07l-.2-.11Zm-91.27-474.66c-20.74-1.55-41.07 1.04-61.5 4.36-68.87 10.99-134.002 31.21-190.111 74.75-33.811 26.23-65.132 54.75-83.282 94.67-13.068 28.61-19.084 57.95-6.016 88.44 8.401 19.7 23.958 36.39 41.382 32.03 9.231-2.28 10.786.83 10.786 8.82 0 14.72 4.253 28.41 12.342 40.85 14.935 23.33 37.545 33.28 63.784 37.95 33.085 6.01 70.215-8.82 88.775-36.91 5.19-7.88 9.34-16.59 14.11-24.68.93-1.66 2.8-3.63 4.36-3.84 2.48-.31 2.8 2.39 2.9 4.46.93 19.39 14 31.42 27.59 42.2 9.23 7.36 20.33 11.4 33.6 7.36 17.01-5.29 27.8-17.42 38.06-30.17 8.09-10.06 14.83-21.15 22.09-31.73-.31 12.96-.93 24.99 5.19 36.19 6.33 11.51 10.89 12.13 19.39 2.38 2.49-2.8 4.57-5.91 6.95-8.71 1.04-1.24 2.29-2.8 4.15-1.97 2.49 1.14 1.97 3.32 1.25 5.29-1.04 2.7-2.7 5.19-3.53 7.88-6.74 22.19-4.36 42.51 12.65 59.62 16.6 16.69 40.45 10.68 46.47-11.51 1.03-3.73 1.03-8.09 6.84-9.23.31 3.01 1.04 5.5.62 7.78-5.18 24.99-7.57 50.39-10.57 75.69-4.26 35.66-8.2 71.23-6.33 107.2-1.35 51.33-.52 102.44 9.64 152.94 4.36 21.77 7.06 44.06 19.61 63.35 8.92 27.16 25.41 47.9 51.85 59.41 8.51 3.73 17.74 6.94 27.59 3.94 27.07-8.19 45.22-25.51 55.59-51.84 9.96-25.41 10.06-52.36 14.21-78.6.62-3.83-1.55-10.47 3.42-10.47 6.23 0 3.84 7.05 3.94 11.1 0 5.49 1.98 10.57 2.18 15.86.52 9.85 5.08 8.6 11.2 5.39 11.41-6.01 21.68-13.58 28.84-24.57 6.12-4.05 9.02-10.58 12.34-16.69 10.47-19.39 17.21-40.13 23.23-61.28 17.94-62.63 23.65-126.49 16.18-190.98-5.7-49.46-16.8-98.09-28.94-146.51-19.7-78.28-60.05-144.43-113.67-203.22-33.7-36.91-74.77-64.28-121.76-81.08-37.96-13.58-76.33-27.06-117.71-25.71l.31-.21ZM1248.3 1203.34c-10.79-8.92-26.55-10.99-34.43-23.43-7.26-11.51-13.28-15.14-24.06-3.11-6.33 7.05-17.64 5.7-26.76 8.08-36.3-2.48-66.38-15.86-85.15-48.83-1.45-2.49-2.39-6.53-7.16-2.59-22.71 18.87-45.74 12.44-67.41-1.25-23.649-14.93-32.257-38.88-33.709-65.63-1.66-29.13 6.845-55.99 19.394-81.907 20.635-42.821 46.675-82.116 80.175-115.606 45.42-45.516 100.08-76.414 163.14-90.411 39.82-8.813 80.38-11.509 121.24-5.806 80.9 11.197 151.11 44.065 205.15 106.171 47.81 54.848 77.88 119.027 89.92 191.299 5.39 32.24 8.81 64.49 6.94 97.04-1.86 32.14-5.08 64.08-16.69 94.77-16.18 42.4-48.85 64.8-93.14 59.82-15.04-1.66-29.04-8.81-40.34-19.49-17.22-16.38-32.88-33.9-36.72-58.79-.31-1.76-1.97-3.21-3.11-5.08-4.87 3.22-6.33 8.81-8.09 13.38-15.87 40.23-70.94 40.54-97.91 13.89-12.03-11.92-24.37-23.43-26.65-41.47-.52-4.05-2.8-5.29-5.91-3.53-20.85 11.93-32.26-2.59-43.87-15.65-2.7-3.01-5.19-6.12-9.13-4.15-8.4 4.25-17.22.62-25.72 2.49v-.21Zm27.38-420.122c-4.15 0-8.4-.622-12.34 0-47.92 7.88-91.58 26.335-132.44 52.671-42.42 27.268-76.23 62.728-104.34 104.097-19.29 28.409-36.611 57.855-43.871 92.274-5.497 26.13-3.527 51.02 11.616 73.51 21.155 31.42 58.805 32.98 82.975 3.84 1.34-1.66 2.8-3.11 5.18-2.28-2.18 27.89 17.01 41.37 37.34 52.36 35.47 19.08 68.03 18.87 91.27-22.08.72 8.29-3.11 15.65.52 20.94 10.99 16.38 26.13 26.96 46.04 30.79 12.76 2.49 20.02-5.08 27.8-12.54.93-.83 1.66-1.87 2.7-2.59 1.76-1.46 3.52-4.26 6.12-1.66 1.65 1.66.31 3.83-.32 5.8-1.34 4.67-7.57 7.57-5.29 13.27 3.74 9.34 10.58 15.45 20.13 18.87 8.6 3.22 14.93 0 21.15-5.8 3.32-3.11 5.4-8.61 13.28-7.67-4.25 9.02-3.84 17.83-.11 26.43 9.65 21.98 25 38.26 48.34 44.8 17.94 5.08 35.05 3.52 48.64-12.14 14.93-17.1 19.6-37.74 21.78-59.3.62-6.33-1.25-13.69 7.46-16.18-1.76 9.65 5.5 17.32 5.4 27.17-.42 33.9 11.51 62.93 38.27 84.91 24.68 20.22 61.6 24.78 87.22 5.4 13.69-10.37 22.71-24.16 28.21-39.92 17.01-48.32 19.4-97.98 15.25-148.79-4.88-59.1-21.99-113.736-51.24-165.059-36.71-64.387-86.7-113.636-156.29-142.253-51.96-21.358-104.86-30.897-160.55-18.87h.1Z" fill="#2B7B3A"/><path d="M987.356 2071.99c-1.763-13.99 1.141-27.47 4.771-40.95 20.013-34.63 45.423-38.78 75.813-27.58 8.71 3.21 16.08 9.43 24.17-.73 1.35-1.66 5.39-1.14 8.19-1.55 11.31-1.87 20.54 4.77 30.8 7.36 11.31 8.61 19.5 20.84 32.15 27.89-.2 6.74 2.39 12.23 9.03 14.2 32.36 9.54 47.19 34.22 55.8 64.18 4.46 15.76 3.63 31.32-2.29 46.87-4.46 11.51-12.13 18.45-24.16 20.01-5.39.62-8.92 2.18-11.72 7.26-1.87 3.42-5.39 7.57-8.82 8.19-18.15 3.32-32.67 16.07-49.99 20.01-37.75 8.4-70.83-2.59-99.46-28.51-10.89-9.85-16.38-21.98-20.12-35.46-1.87-13.38-3.94-26.86 0-40.23.62-2.18.42-4.05-1.55-5.5-12.45-8.71-18.154-21.67-22.614-35.35v-.11Zm141.364-50.91c-9.96-9.53-25.83-13.78-35.99-7.67-7.05 4.25-12.45 4.36-18.98.21-3.11-1.97-6.85-3.01-10.37-3.94-34.64-9.54-57.04 2.59-65.134 36.91-5.082 21.46 3.524 39.5 18.254 55.06 2.8 2.9 8.4 4.66 6.12 10.78-6.64 17.52-4.46 34.84 3.42 51.01 12.65 25.92 36.09 37.95 62.64 43.76 22.82 5.08 45.95 6.84 64.51-12.55 2.6-2.7 6.23-2.39 9.44-1.87 10.89 1.45 18.15-3.42 23.13-12.65 2.18-3.94 3.94-7.67 9.96-7.46 11.61.41 17.73-6.64 21.36-17.01 12.03-34.63-7.98-80.14-42.94-96.83-6.43-3.01-10.99-6.85-15.34-12.86-7.68-10.47-17.32-19.91-30.08-24.89Z" fill="#2B7B3A"/><path d="M951.783 1295.1c50.197.83 95.627-3.11 139.707-17.11 2.38-.72 5.08-1.24 6.94-2.69 17.01-13.38 33.09-10.99 50.1.72 9.02 6.22 19.91 10.06 30.18 14.31 9.23 3.84 6.84 7.46.52 11.61-13.9 9.13-28.73 16.59-44.08 22.6-45.22 17.63-93.14 24.68-140.74 31.73-14.105 2.08-29.559-.83-44.39-1.86-42.834-3.12-85.771-5.81-128.709-4.36-58.909 1.97-116.678 10.68-169.572 39.3-36.507 19.8-69.281 44.37-99.773 72.78-49.471 46.24-92.201 97.88-128.501 154.8-48.02 75.27-79.86 157.39-100.603 244.07-5.289 21.98-10.268 44.37-22.195 64.07-9.126 15.04-14.831 17.22-32.047 12.76-36.404-9.44-71.355-23.54-108.07-31.73-10.06-2.28-20.121-3.84-30.492-4.77-7.467-.62-11.616-2.8-7.26-12.54 40.241-90.62 70.94-185.29 113.774-274.76 18.772-39.2 43.041-75.17 71.252-108.46 9.023-10.67 18.046-21.46 27.276-32.03 25.514-29.24 57.873-50.29 88.883-72.89 38.063-27.79 81.208-47.7 117.612-77.87 36.092-29.86 68.14-63.87 100.291-97.87 51.339-54.54 67.103-123.59 79.341-193.99 6.534-37.641 3.112-75.382.519-113.226-1.452-21.773-4.667-43.547-3.215-65.527.311-4.666 0-10.576 5.808-10.472 7.26 0 3.837 6.947 3.941 10.575.207 24.262 4.148 46.969 23.232 64.387 7.467 6.843 15.972 11.716 26.136 13.064 9.956 1.348 18.564 7.362 28.002 9.228 52.376 10.783 97.284-2.074 134.828-46.968 15.246-18.248 29.04-37.015 38.997-58.581 2.385-5.08 6.223-6.635 11.097-4.977 3.63 1.245 7.157 2.074 10.888 1.348 4.67-.933 10.58-4.873 13.69 0 2.39 3.94-1.97 9.124-3.63 13.79-13.688 40.022-37.335 73.822-67.619 102.438-21.78 20.633-46.36 38.363-69.696 57.341-30.077 24.46-49.99 55.57-61.191 92.48-10.164 33.59-15.661 68.22-21.884 102.65-6.326 34.94 6.016 58.27 35.782 72.16 12.238 5.7 23.439 14.1 36.922 16.8 30.388 6.01 61.087 9.74 88.053 7.77l-.104-.1Z" fill="#927D39"/><path d="M793.204 653.408c5.393 8.088 10.164 16.693 16.179 24.366 33.811 42.717 88.987 21.255 102.262-11.613 2.489-6.117 3.319-12.545 4.252-19.596 10.994 6.014 21.469 7.776 30.803-2.281 2.593-2.799 4.149-1.659 5.497.933 14.002 25.506 37.026 30.69 63.473 28.098-10.47 40.125-20.328 80.354-31.529 120.272-12.964 45.931-35.989 85.849-74.674 115.088-28.625 21.669-61.191 27.268-96.143 20.529-10.786-2.074-18.461-8.087-22.92-18.559-5.705-13.064-8.401-26.958-9.127-40.851-2.075-40.125-.519-80.251 3.319-120.272 3.111-32.038 5.704-64.18 8.504-96.217l.104.103Z" fill="#FEFEFE"/><path d="M1131.1 2008.54c-10.26-2.59-19.5-9.13-30.8-7.36-2.8.41-6.85 0-8.19 1.55-8.09 10.16-15.46 3.94-24.17.73-30.39-11.1-55.8-7.05-75.814 27.58-31.217 4.56-55.59 21.87-78.304 42.09-26.032 23.33-44.493 53.09-66.895 79.53-22.61 26.75-44.286 54.43-68.244 79.94-35.366 37.43-64.614 79.21-92.824 122.03-9.956 15.14-20.743 29.86-33.914 42.41-12.446 11.92-20.536 12.02-33.085.41-14.624-13.58-24.891-30.69-36.818-46.55-5.705-7.47 2.178-11.41 5.393-15.55 19.913-25.82 40.448-51.02 60.569-76.73 32.877-41.89 67.206-82.63 104.44-120.69 30.595-31.31 65.339-58.06 100.291-84.39 35.263-26.65 60.05-60.87 77.889-100.68 4.356-9.85 9.023-19.49 13.275-29.34 2.075-4.77 5.082-7.05 10.475-6.95 12.446.21 24.892.21 37.234 0 7.156-.1 8.193 3.22 6.845 9.44-2.489 11.61-5.497 23.33-6.327 35.15-1.348 19.28 6.949 29.96 25.824 32.14 39 4.46 78.2 5.8 116.99-2.8 28.63-6.33 48.85-24.89 66.27-47.07 4.57-5.81 8.72-11.93 13.38-18.36 2.28 1.87 4.05 3.84 6.12 4.88 9.02 4.56 7.78 8.4.42 14.1-11.41 8.81-21.58 19.28-32.88 28.2-14 10.99-28.83 20.74-45.12 28.2-4.35 1.97-9.54 3.22-12.03 8.19v-.1Z" fill="#927D39"/><path d="M1021.89 1849.7c22.72-9.13 42.53-21.78 53.11-45.52 38.99 57.13 87.01 51.95 118.33-2.7 4.46 12.86 11.2 22.5 25.31 23.44 2.28.1 2.28 2.28 2.07 3.73-2.59 14.72 5.4 26.96 9.34 40.12-6.74 6.12-8.3 14.93-11.93 22.61-13.38 28.2-29.45 54.43-54.97 73.51-25.93 19.28-56.42 21.15-86.91 21.88-19.39.41-38.58-1.25-57.46-6.33-11.3-3.11-15.97-9.85-14.93-21.67 1.97-22.19 8.4-43.44 11.82-65.32 2.28-14.51 4.15-29.13 6.22-43.75ZM987.357 2071.99c4.459 13.79 10.164 26.75 22.613 35.36 1.97 1.35 2.07 3.32 1.55 5.49-19.289 1.14-37.957 7.68-57.352 7.78h-12.342c11.305-21.36 28.625-34.84 45.531-48.63Z" fill="#FEFEFE"/><path d="M430.31 384.973c15.764-34.423 38.27-64.595 60.776-94.662 39.204-52.153 86.705-96.218 135.658-139.039 42.626-37.222 88.987-68.949 139.806-93.418 42.938-20.736 88.883-32.764 136.384-38.674 22.921-2.903 45.945-6.013 69.074-4.562 49.052 3.007 97.382 9.85 144.682 24.47 80.69 24.883 149.35 69.674 212.2 124.419 65.34 56.921 115.33 125.041 144.89 206.95 15.66 43.443 23.64 88.752 20.01 135.099-3.84 47.797-18.04 92.796-48.95 130.225-15.45 18.663-35.47 32.038-62.33 30.586-11.51-.622-21.26-4.147-28.63-12.545-7.26-8.295-10.27-9.228-14.83 2.695-7.78 20.53-19.7 38.363-42.73 45.102-8.61 2.489-17.22 1.659-25.82 1.452-27.28-29.031-45.43-62.935-52.59-104.512-4.66 6.739-7.67 11.612-11.3 15.967-16.08 19.907-31.32 41.784-62.64 31.105-.32-3.111-1.98-4.77-5.29-4.562-10.58-6.843-18.05-16.071-18.98-28.928-.52-6.843 1.34-13.789 1.45-20.736.21-8.813 2.49-18.559-8.92-23.329-11.1-4.666-17.01 3.007-23.23 9.435-6.54 6.636-13.59 11.82-23.03 13.686-41.38 8.502-71.145-21.151-76.642-53.811-3.319-19.596-5.704-39.192-4.771-58.995.415-7.673-2.904-13.479-9.645-15.553-6.12-1.866-10.683 2.592-13.794 8.088-2.904 4.976-5.912 10.057-9.646 14.411-12.757 14.931-26.136 29.239-48.123 28.824-10.371-.207-18.046-7.361-18.254-17.729-.207-7.777-.726-15.553 1.452-23.433 1.867-6.739-2.074-12.545-8.089-15.034-6.431-2.695-13.276-1.866-17.321 5.081-2.281 3.94-4.356 8.087-5.704 12.338-5.289 16.071-15.972 27.787-30.181 36.289-19.705 11.82-46.049 4.458-56.316-16.175-14.935-30.068-18.254-61.38-7.675-93.625 1.867-5.91 4.563-11.509 4.667-17.937 0-5.288-.726-9.954-5.704-12.753-5.186-2.903-9.853-.518-13.794 2.488-8.608 6.532-12.031 16.382-15.453 26.232-4.564 13.064-2.075 27.476-6.846 39.918-8.608 22.706-23.543 41.784-42.315 57.233-16.905 13.893-34.433 8.398-42.108-12.028-2.385-6.324-3.422-12.753-3.111-19.388.311-5.184-2.282-9.124-7.053-10.368-5.497-1.452-8.193 2.903-10.267 7.05-1.245 2.488-1.764 5.391-2.49 8.191-5.185 20.633-17.112 36.6-35.159 47.383-13.067 7.776-21.676 4.769-28.21-8.71-5.911-12.13-8.089-24.883-4.667-38.466 2.074-8.191-1.141-15.76-9.23-17.833-7.468-1.866-11.72 4.147-13.483 11.405-.934 4.044-1.763 8.087-3.319 11.923-6.741 16.901-18.046 28.824-37.026 30.379-21.78 1.763-41.382-2.281-52.687-24.054-10.993-21.048-7.674-43.236-6.534-65.527.519-10.887 7.572-20.841 4.149-32.142l-.311.104Z" fill="#4AC666"/><path d="M430.308 384.974c3.319 11.302-3.63 21.255-4.149 32.142-1.14 22.292-4.355 44.48 6.534 65.527 11.305 21.774 30.907 25.817 52.687 24.055 18.98-1.556 30.285-13.479 37.026-30.379 1.556-3.837 2.385-7.88 3.319-11.924 1.659-7.258 6.015-13.271 13.483-11.405 8.089 1.97 11.304 9.539 9.23 17.833-3.526 13.583-1.348 26.232 4.667 38.467 6.534 13.478 15.246 16.589 28.21 8.709 18.047-10.783 29.974-26.75 35.16-47.383.726-2.799 1.244-5.703 2.489-8.191 2.074-4.147 4.77-8.502 10.267-7.05 4.875 1.244 7.364 5.287 7.053 10.368-.415 6.739.726 13.168 3.111 19.389 7.675 20.529 25.203 25.92 42.108 12.027 18.772-15.449 33.707-34.527 42.315-57.233 4.668-12.442 2.282-26.854 6.846-39.918 3.422-9.85 6.845-19.596 15.453-26.232 3.941-3.006 8.608-5.391 13.794-2.488 5.082 2.8 5.808 7.465 5.704 12.753 0 6.428-2.696 12.027-4.667 17.937-10.579 32.349-7.26 63.558 7.675 93.626 10.268 20.632 36.611 27.994 56.316 16.174 14.209-8.606 24.892-20.218 30.181-36.289 1.452-4.251 3.423-8.398 5.704-12.338 4.045-6.947 10.89-7.776 17.321-5.081 6.015 2.489 9.956 8.295 8.089 15.034-2.178 7.88-1.659 15.656-1.452 23.433.208 10.264 7.883 17.522 18.254 17.729 21.987.415 35.366-13.893 48.123-28.823 3.734-4.355 6.742-9.435 9.646-14.412 3.215-5.392 7.675-9.954 13.794-8.087 6.741 2.073 9.956 7.879 9.645 15.552-.933 19.907 1.452 39.503 4.771 58.995 5.497 32.557 35.365 62.314 76.645 53.812 9.33-1.97 16.49-7.051 23.02-13.687 6.23-6.428 12.14-14.1 23.24-9.435 11.4 4.77 9.12 14.516 8.92 23.329-.11 6.947-1.98 13.893-1.46 20.736.94 12.857 8.4 22.085 18.98 28.928-5.18 26.75-26.76 43.339-51.02 39.503-20.23-3.214-44.81-32.453-37.76-53.397.83-2.488 1.97-5.08-.83-6.532-3.63-1.866-5.39 1.763-6.74 3.733-5.29 7.984-12.13 14.619-18.98 21.151-14.62 13.997-35.467 13.894-50.194.208-9.646-8.917-17.01-19.078-20.536-31.831-.726-2.799-1.244-6.325-4.563-6.636-4.149-.311-3.008 4.148-4.46 6.429-.622 1.037-.83 2.384-1.244 3.525-2.49 6.325-2.386 15.034-11.305 16.071-8.297.933-13.587-5.081-18.047-11.302-1.452-1.97-2.489-5.184-5.185-4.562-3.838.83-2.697 4.666-2.697 7.362.519 14.723-.415 29.238-9.438 41.473-19.291 26.335-58.909 22.706-75.815-6.429-7.986-13.789-10.993-29.342-15.764-44.272a690.84 690.84 0 0 1-10.786-38.052c-1.245-4.769-2.386-9.538-7.675-9.849-5.082-.311-5.808 5.287-7.157 8.916-8.608 23.744-16.386 47.694-25.513 71.127-6.845 17.833-16.076 34.422-28.936 48.834-23.232 26.128-48.124 12.857-59.636-11.923-.726-1.452-.622-3.318-1.452-4.77-1.659-3.007-2.178-8.398-6.845-7.465-4.148.829-2.074 5.599-2.385 8.606-3.734 31.416-4.253 63.453-17.424 93.003-9.127 20.529-18.98 40.54-41.175 50.701-7.052 3.214-13.275 3.214-20.016-.311-12.239-6.325-24.892-11.924-33.811-23.847 1.037 20.529 1.97 40.125-1.971 59.513-6.534 32.764-37.648 50.598-67.31 32.972-42.004-25.092-67.207-62.936-85.149-107.623-23.543-58.684-24.166-119.546-21.158-180.719 2.489-51.115 12.55-101.401 31.529-149.303 9.542-24.054 18.046-48.73 32.981-70.4l.415-.104ZM1144.07 645.736c31.32 10.679 46.46-11.198 62.64-31.105 3.53-4.458 6.54-9.331 11.31-15.967 7.15 41.577 25.3 75.481 52.58 104.512-22.61.207-45.63-17.522-55.18-42.199-1.45-3.629-.72-9.85-5.18-10.368-5.81-.622-3.22 6.221-5.29 9.228-5.39 8.191-10.48 16.9-20.23 20.944-20.12 8.398-40.44-9.124-40.65-35.045Z" fill="#379E4E"/><path d="M1317.48 2255.1c-12.55-19.29-15.25-41.58-19.6-63.35-10.17-50.5-11.1-101.72-9.65-152.94 6.43-1.76 4.15-7.15 4.56-11.4 1.87-18.87 3.11-37.74 5.71-56.51 4.77-34.21 10.68-68.22 19.5-101.71 5.7-21.77 8.4-44.69 23.54-63.14 4.87-6.02 6.64-14.21.1-20.43-6.84-6.53-14.72-4.04-21.47.93-4.97 3.63-8.81 8.82-13.79 12.34-7.57 5.29-12.45 2.91-13.28-6.43-.83-9.95 3.22-18.45 8.92-26.43 5.19-7.26 3.63-14.21-2.17-20.22-5.81-5.91-12.14-3.74-18.15-.21-11.83 7.15-17.53 4.04-18.67-10.16-.73-9.95 1.14-18.35 8.71-25.92 8.61-8.61 8.71-18.77 1.56-25.2-8.72-7.77-16.5-4.87-23.65 2.8-9.96 10.58-23.96 13.07-36.51 12.13-17.94-1.45-24.27-3.11-28.31-21.98-3.53-16.69-4.36-33.9 11.61-46.45 3.11-2.49 5.5-6.11 7.57-9.64 3.01-4.87 1.87-9.33-2.07-13.48-4.25-4.46-8.61-5.8-14.42-3-6.63 3.11-10.99 8.7-15.76 13.79-6.12 6.63-13.38 9.12-21.99 9.43-20.12.52-34.22-12.23-41.07-34.32-10.27-32.76 15.97-91.03 42.32-110.42 11.51-8.5 25.61-12.96 35.26-23.95 41.38-1.35 79.86 12.03 117.71 25.71 46.99 16.8 87.95 44.17 121.76 81.08 53.62 58.79 93.97 124.94 113.68 203.22 12.13 48.42 23.23 96.94 28.93 146.5 7.47 64.6 1.76 128.36-16.18 190.99-6.01 21.15-12.75 41.88-23.23 61.27-3.32 6.12-6.22 12.65-12.34 16.8-30.91 3.11-35.37-6.64-41.9-33.08-5.08-20.73-6.02-42.3-7.57-63.55-.42-5.91-1.87-11.3-8.2-12.03-5.91-.73-8.09 4.35-9.75 9.33-1.45 4.36-2.07 8.81-2.07 13.38 0 10.78.31 21.56 0 32.24-.83 25.2-10.99 47.07-25 67.4-3.21 4.66-7.77 7.56-13.89 6.01-6.23-1.56-7.16-6.43-8.82-12.03-3.94-13.27.21-27.27-4.46-40.43-1.66-4.67-3.63-9.02-8.81-8.92-5.71.1-8.51 4.56-8.72 10.16-.2 5.39-.62 10.78 0 16.17 2.8 23.64-6.43 43.45-18.77 62.63-9.75 15.24-23.02 23.12-41.17 22.71v.31Z" fill="#4AC666"/><path d="M1186.28 1459.64c-9.65 10.99-23.75 15.45-35.26 23.95-26.35 19.39-52.69 77.66-42.32 110.43 6.95 22.08 20.95 34.83 41.07 34.32 8.61-.21 15.97-2.8 21.99-9.44 4.67-5.08 9.13-10.68 15.76-13.79 5.81-2.8 10.17-1.35 14.42 3.01 4.05 4.14 5.08 8.6 2.07 13.48-2.17 3.42-4.45 7.15-7.57 9.64-15.97 12.54-15.14 29.76-11.61 46.45 4.04 18.76 10.27 20.53 28.31 21.98 12.55 1.04 26.55-1.45 36.51-12.13 7.16-7.67 14.93-10.58 23.65-2.8 7.26 6.43 7.05 16.59-1.56 25.19-7.57 7.57-9.54 15.97-8.71 25.92 1.14 14.21 6.84 17.32 18.67 10.16 6.01-3.62 12.34-5.7 18.15.21 5.8 6.02 7.36 12.96 2.17 20.22-5.7 7.98-9.74 16.49-8.91 26.44.72 9.23 5.7 11.72 13.27 6.43 4.98-3.53 8.82-8.71 13.79-12.34 6.75-4.87 14.63-7.47 21.47-.93 6.43 6.22 4.77 14.41-.1 20.42-15.04 18.46-17.74 41.47-23.54 63.14-8.82 33.39-14.73 67.5-19.5 101.72-2.59 18.76-3.84 37.63-5.71 56.5-.41 4.15 1.87 9.54-4.56 11.41-1.87-35.98 2.18-71.54 6.33-107.21 3-25.3 5.39-50.7 10.58-75.69.51-2.28-.32-4.77-.63-7.77-5.8 1.14-5.8 5.49-6.84 9.22-5.91 22.19-29.87 28.21-46.47 11.51-16.9-17.1-19.29-37.43-12.65-59.61.83-2.7 2.49-5.19 3.53-7.88.72-1.97 1.24-4.15-1.25-5.29-1.86-.83-3.11.62-4.15 1.97-2.38 2.9-4.46 5.91-6.94 8.71-8.51 9.74-13.07 9.12-19.4-2.39-6.12-11.3-5.6-23.33-5.18-36.18-7.37 10.68-14.11 21.77-22.1 31.72-10.26 12.86-21.15 24.99-38.06 30.18-13.27 4.04-24.27 0-33.6-7.37-13.48-10.78-26.55-22.81-27.59-42.19-.1-2.08-.41-4.77-2.9-4.46-1.56.2-3.43 2.17-4.36 3.83-4.77 8.19-8.92 16.8-14.1 24.68-18.57 28.1-55.7 42.92-88.784 36.91-26.239-4.77-48.849-14.72-63.784-37.95-7.986-12.44-12.342-26.12-12.342-40.85 0-8.08-1.659-11.2-10.786-8.81-17.424 4.35-32.981-12.34-41.382-32.04-13.068-30.48-6.949-59.82 6.015-88.44 18.15-39.92 49.368-68.43 83.283-94.66 56.109-43.55 121.24-63.77 190.11-74.76 20.33-3.21 40.76-5.91 61.5-4.35v-.42ZM1317.48 2255.1c18.15.51 31.42-7.47 41.17-22.71 12.24-19.18 21.58-38.99 18.78-62.63-.63-5.28-.21-10.78 0-16.17.2-5.6 3-10.06 8.71-10.16 5.08-.1 7.15 4.25 8.81 8.92 4.67 13.16.52 27.16 4.46 40.43 1.66 5.5 2.6 10.47 8.82 12.03 6.01 1.45 10.68-1.45 13.9-6.01 14-20.33 24.16-42.2 24.99-67.4.31-10.78.21-21.56 0-32.24 0-4.57.52-9.02 2.08-13.38 1.65-4.97 3.83-10.06 9.74-9.33 6.33.83 7.78 6.12 8.2 12.03 1.55 21.25 2.49 42.82 7.57 63.55 6.53 26.44 11.1 36.29 41.9 33.08-7.26 10.99-17.42 18.56-28.83 24.57-6.23 3.32-10.69 4.46-11.2-5.39-.32-5.18-2.18-10.37-2.18-15.86 0-4.05 2.38-10.99-3.94-11.1-4.98 0-2.8 6.64-3.43 10.48-4.14 26.33-4.25 53.29-14.2 78.59-10.38 26.33-28.53 43.65-55.6 51.84-9.85 3-19.08-.21-27.58-3.94-26.45-11.51-42.94-32.25-51.86-59.41l-.31.21Z" fill="#379E4E"/><path d="M1287.92 1889.41s.31-.73.52-1.04c-.21.31-.42.62-.62 1.04h.1Z" fill="#756228"/><path d="M1275.79 783.219c55.69-11.923 108.48-2.488 160.54 18.87 69.6 28.617 119.59 77.866 156.3 142.253 29.25 51.323 46.36 105.968 51.24 165.058 4.14 50.81 1.76 100.47-15.25 148.79-5.5 15.66-14.52 29.44-28.21 39.92-25.62 19.39-62.64 14.93-87.22-5.39-26.76-21.99-38.69-51.02-38.27-84.92.1-9.85-7.16-17.52-5.4-27.17-5.6-12.64-15.45-16.79-25.2-10.36-3.01 2.07-5.6 4.97-8.09 7.77-5.19 5.91-8.71 5.29-11.1-2.17-1.55-5.09-2.9-10.17-3-15.76 0-15.76.1-31.32 4.56-46.66 2.38-8.5 1.04-17.01-8.09-21.26-9.34-4.25-14.52 2.8-19.6 8.82-1.87 2.17-2.7 5.18-4.26 7.57-6.22 9.22-16.38 9.43-21.98-.21-5.4-9.23-9.96-18.98-6.23-30.59 2.29-7.05.32-13.68-7.26-16.07-7.46-2.38-13.89.31-17.11 8.19-1.14 2.7-1.86 5.5-3.01 8.09-4.77 11.3-13.27 14.83-25.09 11.2-11.62-3.53-19.92-10.89-22.72-22.5-5.08-21.05-5.39-41.48 11.1-58.89 4.15-4.36 6.33-10.58 9.02-16.179 3.32-7.05 1.35-13.064-4.77-17.419-6.01-4.251-12.55-4.251-18.15.83-5.49 4.977-11.51 9.746-14.31 16.9-2.7 6.843-8.19 9.018-14 6.221-19.6-9.331-38.06-20.011-45.95-42.406-5.81-16.589-3.21-33.697-3.11-50.493.42-46.45 20.43-83.465 56.32-112.185 3.63-2.903 7.67-4.977 8.5-10.057l-.2.207Z" fill="#4AC666"/><path d="M1275.79 783.218c-.83 5.08-4.88 7.154-8.51 10.057-35.88 28.72-55.9 65.735-56.32 112.184-.1 16.797-2.69 33.905 3.12 50.494 7.77 22.395 26.34 33.075 45.94 42.406 5.81 2.801 11.31.622 14-6.221 2.8-7.258 8.82-11.924 14.31-16.9 5.61-5.081 12.14-5.081 18.15-.83 6.12 4.355 8.2 10.369 4.78 17.419-2.7 5.599-4.88 11.823-9.03 16.173-16.49 17.42-16.28 37.85-11.09 58.89 2.8 11.62 11.2 18.87 22.71 22.5 11.82 3.63 20.33 0 25.1-11.2 1.14-2.69 1.86-5.49 3.01-8.08 3.21-7.88 9.64-10.58 17.11-8.19 7.57 2.38 9.54 9.02 7.26 16.07-3.74 11.51.83 21.25 6.22 30.58 5.6 9.65 15.77 9.33 21.99.21 1.66-2.38 2.38-5.39 4.25-7.57 5.08-6.01 10.27-13.17 19.6-8.81 9.13 4.25 10.48 12.75 8.09 21.25-4.35 15.35-4.67 30.9-4.56 46.66 0 5.5 1.35 10.58 3.01 15.76 2.28 7.47 5.91 8.19 11.09 2.18 2.39-2.8 4.98-5.7 8.09-7.78 9.75-6.43 19.61-2.28 25.21 10.37-8.72 2.49-6.85 9.85-7.47 16.17-2.18 21.57-6.85 42.2-21.78 59.31-13.59 15.66-30.7 17.11-48.64 12.13-23.34-6.53-38.79-22.81-48.33-44.79-3.74-8.6-4.15-17.42.1-26.44-7.99-.93-9.96 4.56-13.28 7.67-6.22 5.81-12.44 8.92-21.15 5.81-9.55-3.52-16.39-9.54-20.12-18.87-2.29-5.7 3.94-8.61 5.29-13.27.62-1.97 1.97-4.15.31-5.81-2.6-2.59-4.36.21-6.12 1.66-.94.73-1.77 1.76-2.7 2.59-7.67 7.57-14.93 15.04-27.79 12.55-19.92-3.84-35.06-14.41-46.05-30.79-3.53-5.29.2-12.55-.52-20.95-23.23 40.85-55.8 41.16-91.27 22.09-20.33-10.89-39.52-24.47-37.34-52.36-2.38-.83-3.73.62-5.18 2.28-24.17 29.13-61.82 27.58-82.974-3.84-15.142-22.5-17.113-47.38-11.616-73.51 7.156-34.318 24.58-63.868 43.87-92.277 28-41.369 61.92-76.829 104.34-104.097 40.86-26.336 84.42-44.791 132.44-52.671 4.04-.622 8.19 0 12.34 0l.11-.207ZM1185.76 2180.13c-4.98 9.23-12.24 14.1-23.13 12.65-3.21-.41-6.84-.72-9.43 1.87-18.57 19.39-41.7 17.62-64.51 12.54-26.56-5.91-49.99-17.83-62.65-43.75-7.98-16.28-10.16-33.49-3.42-51.01 2.28-6.02-3.32-7.78-6.12-10.78-14.73-15.56-23.335-33.6-18.253-55.06 8.093-34.32 30.493-46.45 65.133-36.91 3.53.93 7.26 1.97 10.37 3.94 6.53 4.15 11.93 3.94 18.98-.21 10.16-6.12 26.03-1.86 35.99 7.67-23.23 27.69-24.69 40.23 4.35 63.35 5.81 4.67 1.98 8.61-1.65 12.34-6.12 6.12-12.76 11.72-15.87 20.32-2.8 7.78-3.63 13.38 7.98 13.59 12.35.2 16.49 9.12 9.34 19.07-2.8 3.94-5.81 7.47-3.01 12.24 4.67 7.77 9.96 14.93 19.39 18.25 12.35 4.25 24.38 2.28 36.51-.21v.1Z" fill="#379E4E"/><path d="M1185.76 2180.13c-12.13 2.49-24.16 4.46-36.51.21-9.43-3.32-14.62-10.47-19.39-18.25-2.8-4.66.21-8.29 3.01-12.23 7.15-9.96 3-18.87-9.34-19.08-11.61-.21-10.68-5.81-7.98-13.58 3-8.61 9.75-14.21 15.86-20.32 3.74-3.74 7.47-7.68 1.66-12.34-29.04-23.12-27.58-35.67-4.35-63.35 12.76 4.97 22.3 14.31 30.08 24.88 4.35 6.01 9.02 9.75 15.35 12.86 34.95 16.69 54.96 62.21 42.93 96.84-3.63 10.37-9.85 17.42-21.36 17-6.02-.21-7.78 3.42-9.96 7.47v-.11Z" fill="#4AC666"/><path d="M783.145 279.943c2.489-18.248 9.956-38.155 20.12-57.233.933-1.762 2.385-3.836 4.667-3.214 3.319.83 2.697 4.044 2.282 6.117-1.037 4.77-2.593 9.539-4.149 14.205-4.148 12.649-6.741 25.506-5.808 38.881.311 4.354-1.037 9.85 4.875 11.405 5.393 1.348 8.297-3.318 10.786-6.947 10.371-15.034 17.528-31.727 24.269-48.627 3.215-7.984 6.223-16.174 9.646-24.054.933-2.178 2.904-4.562 5.808-3.214 2.178 1.036 1.555 3.421 1.037 5.495-5.393 24.054-8.712 48.731-19.187 71.437-6.12 13.271-13.898 25.817-31.115 26.543-16.283.726-23.75-8.088-23.439-30.69l.208-.104ZM1227.77 325.563c17.11 31.519 26.86 61.173 16.28 94.144-2.7 8.294-9.13 14.515-18.36 14.411-11.3 0-20.12-6.946-24.06-16.796-5.5-13.479-6.33-27.994-5.5-42.614.21-2.903.94-6.221 4.57-6.428 3.63-.207 4.35 3.111 5.08 5.91 2.49 9.124 4.98 18.248 7.78 27.269 1.34 4.562 4.46 9.227 8.92 9.331 5.08.104 4.77-6.117 5.6-9.643 4.77-19.181 3.94-38.466-.73-57.543-1.24-4.873-2.49-9.539.52-18.249l-.1.208ZM1292.79 275.898c15.87 28.928 34.44 53.812 26.97 86.783-4.15 18.455-19.4 22.292-33.5 9.435-13.79-12.649-16.49-30.068-20.64-46.761-1.45-5.91-1.97-12.131-2.59-18.248-.21-2.281-.52-5.599 3.01-5.599 1.34 0 3.42 2.385 4.04 4.044 3.63 10.057 6.95 20.321 10.27 30.482 2.8 8.399 7.36 15.449 13.79 21.774 6.64 6.532 8.82 2.799 10.27-3.629 2.38-10.887-1.35-21.255-3.01-31.727-1.76-10.99-4.67-21.773-9.44-31.934-1.66-3.526-2.07-7.051.94-14.62h-.11ZM597.911 273.93c2.8 12.96-3.734 20.011-5.705 28.202-1.555 6.843-3.941 13.478-5.185 20.321-.934 5.392.207 11.509 4.874 14.412 5.29 3.214 9.957-.829 14.209-4.562 11.097-9.85 18.565-21.981 24.788-35.252 2.178-4.562 3.422-9.953 8.297-13.686 4.978 7.465 1.244 14.308-.623 20.425-5.289 17.315-10.164 35.045-27.173 45.621-9.334 5.806-18.564 7.05-27.899 1.348-8.297-5.081-10.164-13.79-9.23-22.811 1.97-19.388 11.719-35.355 23.647-54.122v.104ZM471.38 590.783c4.979 7.569 4.253 15.552 2.697 22.914-3.112 15.034.83 29.342 3.319 43.65 1.037 6.014 4.252 13.997 9.956 13.997 4.979 0 5.912-8.709 7.986-13.893 6.742-16.901 7.26-34.527 6.742-52.256-.208-6.947-.208-13.894 4.459-20.218 7.364 3.525 5.29 10.783 6.431 16.174 4.252 21.048 6.43 42.303 1.348 63.557-1.763 7.155-4.46 13.79-9.231 19.908-11.097 14.308-30.906 11.508-37.752-7.155-4.459-12.234-6.326-24.883-4.874-37.636 1.867-16.486 2.385-33.282 8.919-48.938v-.104ZM1404.7 1929.64c-1.24 24.78-1.66 49.66-17.01 71.12-4.56 6.33-10.06 11.2-17.53 12.86-14.72 3.11-24.27-5.91-24.78-24.47-.42-15.86 4.04-31 9.85-45.62 3.21-8.09 6.43-16.07 9.85-24.05.94-2.18 2.28-5.19 5.29-3.94 3.01 1.34 1.25 4.04.62 6.42-4.56 17.53-11.61 34.43-10.99 53.09.21 7.36-.41 18.35 5.6 19.91 8.51 2.28 11.51-8.51 15.14-15.14 10.58-19.18 13.38-40.54 16.49-61.8.31-2.07 0-4.14.52-6.11.42-2.08 1.77-4.05 4.05-4.05 2.69 0 2.9 2.49 2.9 4.57v17.41-.2ZM1290.31 1634.97c-1.56-23.33 7.88-40.23 14.62-57.85.93-2.6 2.28-6.33 5.91-4.67 3.01 1.35 2.08 5.18 1.45 7.88-2.59 10.37-5.7 20.63-8.4 31-2.59 10.37-1.45 20.53 2.91 30.28 3 6.74 6.12 8.39 11.2 1.24 11.82-16.59 17.11-35.56 21.98-54.85 1.25-5.08.21-14.1 7.06-12.96 5.6.94 2.07 9.02 1.55 14.1-1.45 14.31-2.49 28.72-6.32 42.72-2.6 9.64-5.92 18.87-13.18 26.34-6.32 6.42-12.86 12.23-22.71 8.81-10.27-3.53-14.21-12.13-15.87-21.88-.83-4.46-.1-9.12-.1-10.16h-.1ZM1474.29 1908.38c1.14 6.74-.62 13.69-3 20.22-2.91 7.98-8.41 14.41-17.74 15.35-9.85 1.03-15.35-5.4-19.19-12.97-8.71-17-4.04-34.73-1.55-52.25.2-1.25 1.97-3.01 3.32-3.22 2.69-.41 2.9 1.97 3.42 3.94 2.9 10.79 1.14 22.3 5.5 32.87 1.34 3.32 2.07 8.3 6.32 8.3 4.46 0 4.46-5.08 5.6-8.51 5.81-18.97 0-37.74-.93-56.5-.21-3.74-2.49-8.3 2.18-9.33 3.63-.83 4.77 4.35 5.39 7.36 3.84 18.04 11.82 35.35 10.89 54.85l-.21-.11ZM1009.24 1663.9c-.52-24.37 12.76-40.13 25-56.09 2.9-3.84 5.7-13.07 10.37-9.96 5.91 3.84-2.6 8.82-4.46 13.27-4.67 10.99-11 21.26-14 33.08-.83 3.21-2.7 6.53-1.15 9.54 1.77 3.63 0 9.22 4.36 10.99 4.77 1.86 8.4-2.08 11.93-4.88 11.41-9.22 18.56-21.98 27.48-33.38 1.25-1.66 2.28-3.42 3.63-4.98 1.35-1.55 3.22-3.21 5.19-1.45.93.83 1.14 3.21.62 4.46-7.78 20.11-16.49 39.71-32.36 54.95-7.16 6.84-16.7 8.71-25.3 4.77-8.82-4.04-13.7-12.03-11.31-20.32ZM1353.26 853.826c.41 15.553-6.85 26.336-8.71 38.363-.73 4.977-1.77 9.331-.31 14.412 1.97 6.532.2 15.448 8.71 17.522 9.54 2.385 12.13-7.154 15.87-12.96 6.63-10.058 10.26-21.566 13.27-33.075.93-3.629 1.97-6.947 5.29-10.576 6.02 10.68.52 20.633-.41 30.172-1.35 13.893-4.57 27.787-14.84 38.466-14.1 14.619-34.53 10.265-41.69-8.606-7.36-19.077.73-35.666 8.71-51.841 3.32-6.739 6.02-14.308 14.11-21.773v-.104ZM1477.09 945.688c4.77 13.997 8.4 25.817 12.86 37.222 2.18 5.703 5.92 10.887 9.13 16.071 4.88 7.879 8.82 5.809 12.03-1.348 4.88-10.679 3.42-21.773 1.77-32.867-.94-6.117-2.7-12.027-3.74-18.041-.31-2.177-1.04-5.495 2.28-6.117 2.91-.519 4.26 2.177 5.09 4.458 7.15 19.492 14 38.881 5.08 59.824-5.6 13.17-16.39 17.21-26.04 9.33-11.4-9.23-23.64-50.906-18.56-68.532h.1ZM1083.91 1013.29c-.51-10.26 2.8-19.7 7.89-28.202 7.46-12.338 15.66-24.262 23.75-36.185 1.24-1.867 3.42-4.666 6.01-3.318 3.63 1.866 1.35 4.977.21 7.465-5.08 10.368-10.48 20.633-15.35 31.209-4.15 9.02-10.06 21.361-2.49 27.271 4.98 3.83 12.34-9.13 17.22-15.97 7.26-10.057 14-20.425 21.16-30.483 1.55-2.281 3.42-5.702 6.63-4.458 3.94 1.555 1.45 4.873.42 7.361-8.51 20.944-14.11 43.34-30.81 60.14-7.05 7.05-14.72 10.68-24.58 6.94-10.16-3.94-10.37-12.85-10.06-21.77ZM1168.75 1041.7c10.68-16.59 15.14-34.22 21.37-51.117 1.14-3.214 1.03-8.709 6.12-7.258 3.73 1.037 2.38 5.91 1.97 8.813-2.8 17.002-3.43 34.322-8.2 50.912-1.86 6.42-4.66 12.54-9.64 16.9-5.71 4.97-13.38 5.7-19.91 2.8-7.78-3.43-10.69-11.41-11.62-19.29-2.08-18.35 1.14-36.08 8.09-53.188 1.14-2.799 2.28-7.154 6.74-5.184 3.63 1.555 1.04 4.873.83 7.569-1.14 15.863-8.82 32.353 4.25 48.933v.11ZM1069.71 2110.15c13.06-9.96 19.91-23.02 28.93-34.11 1.56-1.87 2.59-5.19 5.39-4.05 4.05 1.56 1.56 4.88.63 7.36-6.54 16.59-13.59 32.77-26.35 45.83-5.29 5.5-11.61 7.47-17.84 4.05-6.43-3.53-6.53-10.37-5.8-17.53 1.76-16.27 12.03-27.68 21.67-39.29 2.08-2.49 4.57-7.67 8.61-4.77 3.42 2.49.73 6.63-1.35 9.95-4.56 7.36-8.71 15.04-12.96 22.5-1.56 2.7-1.76 5.39-.93 10.06ZM1168.54 2123c.32-12.64-6.84-22.6-11.82-33.38-1.04-2.28-4.36-5.39-1.14-7.67 3.63-2.49 5.81 1.03 7.78 3.62 8.19 10.79 18.04 20.43 22.5 33.7 3.12 9.13 2.7 18.15-6.53 22.4-9.33 4.35-18.05.31-23.02-8.82-3.32-6.11-5.5-12.85-7.99-19.38-1.04-2.8-4.05-6.64.41-8.51 3.74-1.66 5.4 2.8 7.58 4.98 4.25 4.15 4.97 11.51 12.03 13.17.41.31.72.62 1.14 1.03-.31-.41-.62-.72-.94-1.14Z" fill="#2B7B3A"/><path d="M1168.55 2123s.62.73.93 1.14c-.42-.31-.73-.62-1.14-1.03l.21-.11Z" fill="#4AC666"/></g><defs><clipPath id="a"><path fill="#fff" d="M0 0h1656v2655H0z"/></clipPath></defs></svg>