<svg width="1934" height="2520" fill="none" xmlns="http://www.w3.org/2000/svg"><g clip-path="url(#a)"><path d="M1346.72 759.489c-.79-3.558 1.88-8.796-2.47-10.575-3.65-1.482-5.53 3.36-8.1 5.534-19.18 16.307-41.61 23.719-66.52 23.917-26.88-1.582-49.41-12.057-67.3-32.218-4.95-5.534-7.52-6.127-13.45-.297-31.72 31.922-83.21 39.136-123.44 19.074-12.75-6.325-22.44-16.208-33.21-26.683-.2 3.755-.3 5.732-.49 7.609-4.06 31.823-24.71 57.815-51.101 60.681-12.057 1.284-15.615 6.423-18.284 16.8-8.697 34.886-33.999 52.082-67.01 58.901-31.825 6.523-58.51-2.075-76.795-30.735-.296-.395-1.383-.395-2.569-.692-3.262 23.126-18.482 38.543-34.691 53.268-20.261 9.586-40.325 18.679-63.65 19.37-18.68.593-35.679-3.162-51.691-12.452-1.976-2.965-3.854-5.93-8.401-8.301-5.633 25.793-20.162 44.274-44.08 54.651-24.214 10.575-47.539 8.895-70.568-7.412-3.558 26.585-17.988 45.658-37.458 61.471-29.255 23.82-62.167 31.72-98.736 22.33-8.599-2.27-10.773-.09-11.465 8.01-2.273 26.68-1.582 53.56-7.808 79.85-14.825 63.65-43.191 119.39-94.289 161.59-44.871 37.06-95.968 40.12-142.124 9.09-22.93-15.42-41.708-34.89-57.127-57.72-37.557-55.34-60.19-116.81-74.422-181.64C-2.273 954.179-4.744 854.462 6.72 754.053 18.384 651.372 40.127 551.358 80.748 455.99 154.48 282.844 278.616 159.606 452.071 87.858c87.567-36.27 180.275-47.438 274.761-39.136 46.65 4.052 91.125 17.394 133.526 37.357 38.347 17.986 67.603 45.757 89.84 82.817 5.634-7.807 10.279-15.022 15.715-21.643C1022.15 79.853 1090.64 28.759 1176.73 9.29c109.8-24.806 211.41.395 302.53 66.412 49.91 36.171 83.12 84.003 97.45 144.288 1.39 6.028 3.96 8.894 11.66 8.697 48.63-.89 92.81 15.614 134.52 38.641 100.22 55.344 159.22 142.41 190.06 250.626 14.33 50.304 23.03 101.892 20.56 153.776-4.15 87.462-24.51 170.576-84.01 239.063-23.82 27.573-52.48 48.129-89.65 52.675-42.99 5.238-77.38-9.882-101.6-46.152-14.53-21.94-25.4-45.362-25.99-72.44-.2-10.279-2.87-15.516-14.93-10.377-9.58 4.15-20.26 2.273-30.24-.297-34.1-8.795-61.87-26.683-80.25-57.715-29.06 44.769-115.84 49.414-153.49-11.168-1.49-2.47-1.19-7.906-6.82-5.83h.19Z" fill="#248937"/><path d="M1126.42 1543.29c-.2-33.9-.3-67.89-.59-101.79-.2-23.62-2.97-47.14-7.41-70.37-5.54-28.66-22.93-47.73-49.62-59.89-39.53-17.98-81.736-26.48-123.444-37.26-65.528-16.89-127.299-41.9-180.868-84.59-40.325-32.12-64.144-74.62-78.672-123.14-14.233-47.34-19.471-95.962-21.645-145.079-.198-3.558 0-9.487 2.471-12.551 16.011 9.191 32.912 12.946 51.69 12.452 23.226-.692 43.389-9.784 63.65-19.37.494 2.273.692 6.918.692 9.29.296 33.996 6.72 67.202 11.86 100.608 6.226 39.92 27.97 63.84 66.812 74.61 33.999 9.49 68.394 14.33 103.381 16.21 62.463 3.26 124.333-2.37 186.103-11.17 38.75-5.43 63.75-25.4 75.61-62.75 4.35-13.74 8.6-27.48 12.16-41.51 8.99-34.688 17.99-69.574 22.34-105.152 4.15-34.293 5.93-71.551 8.79-106.042 25.01-.198 47.34-6.918 66.52-23.225 2.57-2.174 4.45-7.016 8.1-5.534 4.35 1.779 2.57 7.017 2.47 10.575 1.49 35.973-5.63 73.132-10.08 108.512-4.54 36.171-10.97 72.144-15.81 108.315-5.73 42.591-10.18 85.191-10.28 128.281-.2 49.71 1.38 99.42 4.84 149.03 2.77 39.33 4.45 78.67 7.71 118 7.32 87.26 3.16 175.71 21.84 261.59 21.95 100.81 62.07 193.31 142.52 263.18 36.77 31.92 78.28 55.15 124.63 69.97 20.86 6.72 43.39 10.28 57.63 29.95 3.26 4.44 5.33-.4 7.31-2.18 12.35-11.07 24.41-22.43 36.96-33.3 2.47-2.18 5.54-7.61 9.59-3.46 3.56 3.56-.79 7.11-2.67 10.08-29.35 47.14-67.01 86.67-110.5 120.86-26.68 20.96-53.27 42.2-81.14 61.48-90.53 62.65-169.8 137.37-240.76 221.47-41.51 49.11-86.88 94.87-131.85 141.02-4.25 4.35-10.18 12.16-14.62 8.6-4.65-3.75 2.07-11.07 5.04-16.3 13.93-24.81 30.14-48.13 47.54-70.67 4.74-6.12 4.34-9.98.39-16.2-16.01-25.4-24.41-54.26-36.47-81.54-25.2-56.82-52.38-112.96-66.91-173.93-1.68-7.22-4.55-14.33-5.34-21.65-2.47-25.1-16.9-40.81-37.65-53.46-27.87-16.9-57.228-31.63-82.332-52.87-45.563-38.74-68.987-90.33-84.208-146.56-2.174-7.91-3.261-16.11-4.843-24.12 11.663-16.4 21.349-33.5 21.744-54.45 0-5.14 4.349-5.73 7.61-4.65 8.797 2.87 16.802 0 24.907-2.47.197 2.77.494 5.54.494 8.3.791 72.54 54.853 121.56 102.588 139.05 9.1 3.36 12.36.79 13.25-7.8 4.35-42.1 8.79-84.11 19.37-125.22" fill="#5B4A0E"/><path d="M1346.72 759.489c-.79-3.558 1.88-8.796-2.47-10.575-3.65-1.482-5.53 3.36-8.1 5.534-19.18 16.307-41.61 23.719-66.52 23.917-26.88-1.582-49.41-12.057-67.3-32.218-4.95-5.534-7.52-6.127-13.45-.297-31.72 31.922-83.21 39.136-123.44 19.074-12.75-6.325-22.44-16.208-33.21-26.683-.2 3.755-.3 5.732-.49 7.609-4.06 31.823-24.71 57.815-51.101 60.681-12.057 1.284-15.615 6.423-18.284 16.8-8.697 34.886-33.999 52.082-67.01 58.901-31.825 6.523-58.51-2.075-76.795-30.735-.296-.395-1.383-.395-2.569-.692-3.262 23.126-18.482 38.543-34.691 53.268-20.261 9.586-40.325 18.679-63.65 19.37-18.68.593-35.679-3.162-51.691-12.452-1.976-2.965-3.854-5.93-8.401-8.301-5.633 25.793-20.162 44.274-44.08 54.651-24.214 10.575-47.539 8.895-70.568-7.412-3.558 26.585-17.988 45.658-37.458 61.471-29.255 23.82-62.167 31.72-98.736 22.33-8.599-2.27-10.773-.09-11.465 8.01-2.273 26.68-1.582 53.56-7.808 79.85-14.825 63.65-43.191 119.39-94.289 161.59-44.871 37.06-95.968 40.12-142.124 9.09-22.93-15.42-41.708-34.89-57.127-57.72-37.557-55.34-60.19-116.81-74.422-181.64C-2.273 954.179-4.744 854.462 6.72 754.053 18.384 651.372 40.127 551.358 80.748 455.99 154.48 282.844 278.616 159.606 452.071 87.858c87.567-36.27 180.275-47.438 274.761-39.136 46.65 4.052 91.125 17.394 133.526 37.357 38.347 17.986 67.603 45.757 89.84 82.817 5.634-7.807 10.279-15.022 15.715-21.643C1022.15 79.853 1090.64 28.759 1176.73 9.29c109.8-24.806 211.41.395 302.53 66.412 49.91 36.171 83.12 84.003 97.45 144.288 1.39 6.028 3.96 8.894 11.66 8.697 48.63-.89 92.81 15.614 134.52 38.641 100.22 55.344 159.22 142.41 190.06 250.626 14.33 50.304 23.03 101.892 20.56 153.776-4.15 87.462-24.51 170.576-84.01 239.063-23.82 27.573-52.48 48.129-89.65 52.675-42.99 5.238-77.38-9.882-101.6-46.152-14.53-21.94-25.4-45.362-25.99-72.44-.2-10.279-2.87-15.516-14.93-10.377-9.58 4.15-20.26 2.273-30.24-.297-34.1-8.795-61.87-26.683-80.25-57.715-29.06 44.769-115.84 49.414-153.49-11.168-1.49-2.47-1.19-7.906-6.82-5.83h.19Zm232.17-521.513c-2.18-3.656-5.24-7.115-6.43-11.167-19.07-63.052-56.23-112.96-110.3-150.119-45.36-31.23-95.08-51.489-149.93-59.593-51.69-7.61-102.89-7.906-152.6 8.895-71.06 24.015-130.26 66.016-178.101 123.633-33.011 39.63-48.627 87.561-63.65 135.789-4.645 10.772-9.29 21.544-14.133 32.613-3.262-2.669-3.064-5.337-2.471-7.412 11.267-41.211 19.075-83.608 38.743-122.151 7.413-14.627 5.832-18.58-10.377-26.387-4.349-4.546-8.302-9.586-12.948-13.737-61.376-53.466-134.02-79.754-214.175-85.387-40.028-2.866-80.451-1.186-120.183 4.843-75.016 11.365-145.584 34.985-211.111 74.516-65.923 39.728-122.555 89.735-172.269 147.845-36.273 42.496-64.935 89.933-88.556 140.533-17.89 38.246-33.308 77.579-44.97 118-11.366 39.135-20.459 78.765-28.267 118.889-8.796 45.658-14.528 91.613-16.802 137.766-2.57 50.303-2.174 100.804 3.558 151.107 6.82 60.088 19.57 118.588 41.214 175.018 6.326 16.41 11.465 33.61 23.128 47.44.296 1.98 0 4.15.988 5.73 16.506 29.16 34.494 57.32 61.08 78.67 13.936 11.17 29.058 21.05 46.749 24.21 33.406 6.13 62.167-5.33 86.283-27.87 60.388-56.33 91.125-125.8 92.015-208.72.198-19.17-4.843-38.05-1.68-59.592 7.215 7.609 11.366 15.812 20.459 18.972 28.563 9.98 56.533 10.68 82.823-5.93 22.831-14.327 41.708-31.918 45.958-60.974 2.372-16.207.495-32.316 1.582-48.326.197-3.163-2.076-8.302 2.866-8.895 3.953-.494 5.139 4.546 6.029 7.808 2.767 9.784 5.831 19.666 7.412 29.747 1.483 9.388 6.029 15.417 14.925 17.789 34.592 9.191 68.986-1.582 82.527-39.136 6.72-18.678 9.685-38.048 9.488-57.814 0-2.174-.692-5.337 2.471-5.732 2.767-.395 3.953 2.075 4.348 4.546.89 5.04 1.977 9.982 2.57 15.022 3.855 31.921 8.698 34.688 32.714 42.199 8.303 2.57 18.186 1.878 27.081.791 32.813-4.052 60.586-16.603 75.905-48.426 8.994-18.678 12.256-38.839 15.913-59 .692-3.854.593-9.388 5.04-9.092 4.25.198 4.448 5.732 4.448 9.685.099 7.907 0 15.813 0 23.719 0 4.348.889 8.203 3.064 12.255 26.092 47.832 91.817 38.74 115.538 4.546 14.528-20.952 16.604-45.362 18.778-69.674.593-6.72-.692-13.836 5.337-19.765 6.919 11.859 3.855 23.916 4.053 35.479.197 9.981 4.447 10.97 11.761 6.819 12.453-7.116 23.525-15.417 29.355-29.451 8.4-20.358 12.45-41.309 11.27-63.249-.2-3.756-1.19-9.389 3.55-10.081 5.04-.79 5.64 4.744 5.74 8.5.29 25.695 17.89 40.618 35.87 53.762 27.97 20.358 59.7 19.568 89.94 6.72 18.68-7.906 45.47-11.168 41.02-43.286 1.88 1.186 3.16 1.581 3.76 2.47 1.77 2.57 3.36 5.337 4.84 8.104 16.4 30.142 40.13 48.228 76.1 45.164 14.63-1.186 28.27-5.435 41.12-13.144 12.75-7.61 24.41-15.318 23.32-33.996 8.7 7.51 11.07 16.603 15.12 24.41 23.53 44.571 70.57 64.732 121.37 41.903 19.37-8.697 25.01-19.865 22.04-41.211-.49-3.262-2.27-8.203 1.78-9.488 4.94-1.482 4.84 4.052 5.73 7.116 8.31 28.561 25.01 50.995 51.1 65.226 19.87 10.772 40.03 22.928 64.34 10.574 7.81-3.953 9.79-12.847 17-17.393 4.05 6.522-1.68 11.859-.59 17.591 5.04 26.585 8.7 53.466 21.94 77.876 17.79 32.811 43.78 54.751 82.03 54.948 34.6.198 63.75-16.603 87.57-40.914 18.19-18.58 33.61-39.63 46.16-62.459 24.9-45.362 41.8-93.392 44.18-145.474 1.78-40.519.59-80.94-6.63-121.163-9.29-51.39-23.42-101.298-46.45-148.043-24.01-48.623-57.12-90.625-100.02-124.127-55.74-43.583-118.9-68.29-190.16-70.761l-.29-.099Z" fill="#216F2D"/><path d="M1178.31 1605.65c7.61-44.18 2.77-88.85 5.14-133.22 1.38-26.39 1.48-52.58-.5-78.86-3.65-47.44-12.05-93.69-39.43-134.21-20.95-30.94-51.1-49.32-85.69-61.67-41.61-14.92-85.295-21.15-128.189-30.64-48.132-10.57-93.201-28.46-132.636-59-22.436-17.39-36.767-40.71-48.528-65.92-2.273-4.94-.989-7.11 4.645-7.7 8.895-.99 17.79-2.67 26.686-4.15 4.151-.79 6.523.29 7.906 4.64 12.849 40.62 46.057 55.84 83.022 65.52 31.231 8.3 63.155 12.26 95.474 12.26 37.46 0 74.92 1.58 112.28-2.28 35.18-3.55 70.07-8.69 104.17-17.98 23.92-6.52 39.53-23.82 47.64-47.04 5.43-15.52 9.98-31.53 14.03-47.441 1.38-5.435 3.56-7.708 9-8.894 16.5-3.459 33.01-7.314 49.21-11.761 7.71-2.174 9.2.396 8.01 7.215-8.89 52.081-12.35 104.661-11.17 157.331 1.09 49.12 3.76 98.24 7.12 147.25 2.37 34.89 4.54 69.78 7.11 104.56 3.36 46.26 5.74 92.61 7.02 138.96 2.57 94.57 29.65 182.63 72.84 266.14 32.82 63.44 82.93 110.09 143.61 146.46 31.73 19.07 67.31 28.56 101.4 41.8 7.52 2.87 14.14 6.82 20.66 11.27 2.08 1.38 6.03 2.27 5.44 5.34-.69 3.75-4.65 5.53-8.01 6.32-9.19 2.18-18.48 3.66-27.67 5.54-48.23 9.88-95.28 23.62-142.32 38.04-47.74 14.63-95.58 29.26-143.41 43.59-17.79 5.33-33.51.49-46.95-11.86-31.23-28.76-54.66-62.86-70.17-102.39-11.17-28.26-18.29-57.71-25.6-87.06-1.19-4.85 2.67-266.84-22.04-289.86l-.1-.3Z" fill="#756118"/><path d="M88.061 1179.11c-11.663-13.94-16.802-31.13-23.127-47.44-21.645-56.43-34.395-114.93-41.215-175.021-5.732-50.402-6.127-100.903-3.558-151.107 2.274-46.152 8.006-92.107 16.802-137.765 7.71-40.124 16.901-79.853 28.267-118.89 11.761-40.42 27.18-79.754 44.97-118 23.622-50.599 52.284-98.037 88.556-140.532 49.714-58.21 106.346-108.118 172.269-147.846 65.528-39.531 136.195-63.052 211.111-74.516 39.732-6.028 80.155-7.709 120.183-4.843 80.156 5.732 152.799 31.922 214.176 85.387 4.744 4.151 8.697 9.092 12.947 13.737-9.291 13.243-17 27.376-24.709 41.607-33.406 61.767-63.353 124.819-80.155 193.701-17.79 72.935-36.173 145.771-60.783 216.828-10.773 31.032-23.523 61.075-47.639 84.596-11.761 11.563-26.883 11.365-38.644-.494-10.477-10.575-15.023-23.719-16.011-38.246-.989-13.935-6.622-21.051-16.901-21.545-13.442-.692-20.459 6.523-20.953 22.236-.593 19.568 1.68 39.334-4.645 58.605-8.204 25.102-15.418 50.699-34.296 70.464-9.488 9.883-15.715 8.598-21.151-3.854-.889-2.174-1.186-4.546-1.779-6.819-3.36-12.749-10.871-18.975-21.249-17.394-8.796 1.384-15.814 12.848-13.837 24.312 4.052 22.829-1.581 43.78-12.354 63.348-12.849 23.323-33.505 26.387-53.865 8.697-17.395-15.022-30.639-11.563-38.052 10.179-6.029 17.69-13.738 34.392-27.673 47.437-17.395 16.307-36.866 16.109-52.976-1.087-6.721-7.116-14.232-8.4-22.238-3.854-8.5 4.842-11.465 15.812-5.436 24.707 5.832 8.696 5.832 17.492 6.128 26.98.593 18.579-1.285 36.961-4.942 55.042-5.633 27.97-12.651 55.35-35.778 75.11-7.61 6.53-15.418 13.54-26.29 8.6-11.069-5.04-15.814-14.82-16.11-26.78-.099-7.12.494-14.23-.198-21.35-1.186-12.65-7.808-19.17-18.185-18.97-10.279.29-17.395 7.51-16.703 24.11 1.284 28.07-9.983 51.69-22.93 74.62-21.447 38.04-47.836 60.68-91.422 45.85l.395.2Z" fill="#2EA947"/><path d="M1126.42 1543.29c10.67 16.31 21.84 32.32 31.43 49.41 4.15 7.41 13.74 8.4 20.46 12.95 24.71 23.12 38.44 52.18 45.26 84.79 6.23 29.65 6.82 59.69 4.85 90.03-2.28 35.58-5.64 70.57-28.96 99.82-14.43 8.89-29.06 13.14-44.87 2.77-17.5-11.47-27.87-27.38-30.54-47.93-1.19-8.9 1.78-18.68-11.17-21.94-3.56-.89-5.83-6.92-9.19-11.17-9.19 11.96-22.73 12.65-36.47 12.35-20.86-4.05-39.63-11.76-51.2-31.23-20.26 25.6-44.277 25.99-70.962 1.39-2.866 6.72-8.302 11.06-13.54 15.61-8.105 2.47-16.11 5.34-24.907 2.47-3.261-1.09-7.511-.49-7.61 4.65-.395 20.95-10.081 38.05-21.744 54.45-11.86 8.99-22.929 19.07-38.545 21.45-9.686 1.48-18.878 1.38-27.279-4.35-3.854-2.57-6.424-4.45-7.709 2.47-8.005 44.37-86.184 80.84-136.985 47.93-35.877-23.22-53.371-55.84-55.051-97.84-2.075-51.19 12.849-98.33 36.668-142.51 56.434-104.26 138.467-178.78 254.203-212.08 82.725-23.82 153.191 0 214.271 57.61 3.17 2.97 6.33 5.83 9.49 8.8l.1.1Z" fill="#248937"/><path d="M1578.89 238.075c-1.09 30.439-3.07 61.076-21.35 86.771-15.62 22.038-32.52 43.583-60.78 51.588-16.31 4.645-32.72 3.755-49.22 3.854-12.56 0-16.81 4.25-18.09 16.405-2.47 23.62-10.77 44.967-25.01 63.942-9.48 12.65-20.26 13.737-32.02 3.459-6.23-5.436-13.05-7.314-20.75-4.448-7.32 2.669-10.48 8.5-12.26 16.01-6.52 27.474-19.57 50.007-49.42 57.221-16.4 3.954-30.04-3.063-42.1-13.341-16.31-13.836-26.79-31.823-33.7-51.885-3.17-8.993-7.02-17.69-18.49-16.108-10.77 1.482-12.75 10.08-15.32 19.469-14.72 54.948-53.37 105.448-118.4 113.256-46.25 5.534-88.951-2.273-123.345-35.578-22.436-21.643-31.232-50.6-34.889-80.841-5.535-45.164-3.064-89.933 6.029-134.702 3.163-15.713 9.587-31.13 8.203-47.733 15.023-48.228 30.639-96.159 63.65-135.789 47.932-57.518 107.042-99.618 178.102-123.633 49.81-16.8 101.01-16.504 152.6-8.895 54.85 8.104 104.57 28.364 149.93 59.593 54.06 37.258 91.23 87.067 110.3 150.119 1.19 3.953 4.25 7.412 6.43 11.168l-.1.098ZM1074.04 1517.99c.89 50.1-20.56 89.04-59.01 120.07-13.24 10.68-26.385 20.95-41.012 29.65-8.303 4.94-13.936 4.45-20.262-3.06-4.546-5.44-8.895-11.66-17.988-11.76-18.482-.2-26.388 4.44-32.22 22.73-3.854 11.96-6.226 24.51-14.43 34.59-2.47 3.06-4.744 6.52-7.906 8.69-15.419 11.07-18.977 15.32-29.651-2.27-4.348-7.21-11.959-10.57-20.557-8.7-9.291 1.98-15.023 8.21-17.494 17.3-2.471 8.99-3.361 18.48-9.093 26.49-8.796 12.35-15.122 13.63-26.883 4.24-9.093-7.31-22.139-4.34-27.476 7.12-7.017 15.12-17.79 25.79-33.308 31.63-24.609 9.19-47.836-3.86-63.55-27.87-5.337-8.21-5.14-18.98-12.651-26.09 9.784-37.16 30.144-69.18 51.69-100.12 36.965-53.17 83.714-95.46 141.235-125.9 27.575-14.63 55.842-27.38 86.58-33.41 56.731-11.07 108.226.89 153.986 36.67Z" fill="#2EA947"/><path d="M1309.46 1682.14c23.92 80.54 56.34 156.94 110.7 222.36-35.39-12.45-120.58-184.01-110.7-222.36ZM1346.82 1852.82c22.83 34.29 46.85 67.69 69.68 101.99-18.88-9.59-67.21-79.66-69.68-101.99ZM1274.97 1189.29c-.99-39.83-4.84-79.66 4.25-119.19 1.78 39.83 0 79.46-4.25 119.19ZM1274.08 1280.9c.3-14.43-3.95-29.25 3.95-43.09.69 14.53.69 28.96-3.95 43.09ZM1471.95 1962.02c-10.38-5.93-16.21-13.64-22.54-20.75-.69-.79-.59-3.07 0-4.25.89-1.78 2.97-1.29 3.96-.1 6.52 7.11 16.2 12.06 18.58 25.1Z" fill="#5B4A0E"/><path d="M169.898 834.103c5.139 14.033 4.25 25.893 5.732 37.258 1.977 14.824 6.029 28.363 17.099 39.037 8.005 7.708 12.749 6.819 15.615-3.756 4.053-14.725 6.82-29.944 7.512-45.164.791-16.504 3.855-32.811 2.668-49.414-.098-1.383 0-3.261 2.373-3.953 5.139 2.175 4.447 7.412 5.238 11.761 5.238 31.032 7.116 62.162 1.878 93.491-1.186 7.412-5.535 13.144-10.18 18.283-8.797 9.586-20.657 9.487-31.529.79-12.156-9.784-17.988-23.521-19.47-37.949-1.779-17.592-.395-35.48-.297-53.17 0-1.383 1.186-2.668 3.361-7.115v-.099ZM502.773 545.922c-.495-9.783 1.284-19.666-1.977-29.252-.89-2.669-.297-6.227 2.965-6.721 2.668-.494 3.36 2.57 3.953 4.942 6.128 26.288 13.145 52.576 6.721 79.951-1.384 5.732-4.052 11.069-8.104 15.516-8.599 9.586-16.012 9.883-25.104.988-9.489-9.487-14.529-21.347-17.494-34.194-6.227-27.276-3.459-54.553.889-81.73.593-3.459.495-8.005 5.436-7.412 4.547.593 4.151 5.04 4.25 8.499.692 21.544-1.581 43.286 2.273 64.732 1.779 9.784 4.547 19.073 9.686 27.573 1.582 2.668 3.163 6.226 6.622 6.028 3.756-.198 4.151-4.25 5.139-7.116 4.646-13.638 5.535-27.671 4.745-41.902v.098ZM210.42 346.687c1.581 10.871-3.064 18.48-6.128 26.189-5.831 14.725-9.686 29.846-11.663 45.559-.296 2.372-.593 4.942.198 7.017 1.581 4.645-.198 11.563 5.436 13.243 5.041 1.482 8.006-4.348 10.971-7.708 16.307-18.481 21.348-41.607 25.894-64.93.791-4.25 1.681-8.499 2.471-12.65.494-2.372 1.087-5.04 4.053-4.546 2.075.296 2.767 2.668 2.866 4.645.988 31.822.197 63.249-20.163 90.229-3.063 4.052-6.72 7.709-11.267 10.278-18.581 10.871-34.295 2.273-34.987-19.073-.791-27.474 13.935-68.982 32.319-88.352v.099ZM303.818 378.015v-26.881c0-2.274-.297-5.238 2.965-5.337 1.977 0 3.36 1.976 3.756 4.052 4.447 26.288 9.488 52.675 6.918 79.556-.593 5.633-3.459 11.365-6.325 16.405-4.547 8.104-10.872 15.417-21.151 14.725-10.872-.691-17.593-8.4-21.744-17.69-8.401-18.678-4.645-37.851-1.482-56.825 1.383-8.104 3.755-16.01 5.732-24.015.593-2.175.89-5.139 4.25-4.151 2.076.593 3.064 2.569 3.064 4.645 0 3.557-.395 7.016-.89 10.475-2.47 18.086-2.47 36.171 2.175 53.861 1.186 4.546 2.471 11.662 8.302 11.662 6.325 0 8.006-6.819 9.29-12.156 3.954-16.899 5.93-34.095 4.942-48.326h.198ZM585.694 192.121c14.628 21.742 26.192 42.891 30.738 67.203 1.482 8.104-2.174 15.021-8.895 19.37-6.029 3.854-12.453 2.668-18.878-.692-26.685-14.033-35.877-39.531-44.08-65.72-.593-1.977-1.087-4.052 1.68-4.546 3.064-.593 4.052 1.976 5.041 3.953 5.732 11.266 12.354 21.841 20.557 31.625 6.425 7.609 14.826 17.986 23.424 14.33 7.709-3.36.89-15.813-.593-23.818-1.581-9.191-5.732-17.986-8.994-26.782-1.581-4.151-3.261-8.005.099-14.725l-.099-.198ZM592.021 174.826c8.104-1.877 14.232 3.558 20.755 6.029 12.552 4.744 25.203 9.092 38.249 11.958 3.954.89 9.093 1.878 11.761-2.866 2.57-4.645-.494-8.697-3.36-11.662-9.488-9.981-19.47-19.567-29.255-29.351-2.174-2.174-5.535-4.744-3.36-8.005 2.569-3.657 5.831-.198 8.203 1.186 13.54 8.005 26.784 16.8 37.557 28.264 13.837 14.627 9.389 34.689-7.412 38.642-6.227 1.482-11.762-.989-17.198-2.669-17.79-5.435-33.604-15.417-50.01-23.916-2.57-1.383-5.337-3.459-6.029-7.511l.099-.099ZM860.851 671.928c1.087 12.156-.099 27.573-9.093 41.705-4.744 7.412-10.477 12.848-19.866 12.65-9.389-.198-15.023-5.732-19.372-13.342-10.081-17.69-6.226-36.961-5.534-55.639.395-9.685 3.261-19.272 5.633-28.759 1.186-4.546 1.483-12.551 7.314-11.267 5.436 1.186 3.558 9.29 2.57 13.737-2.866 12.552-1.779 25.103-1.977 37.654-.099 9.487 2.471 18.678 5.337 27.671.791 2.57 1.779 5.634 5.14 5.831 3.459.198 4.348-3.063 5.435-5.435 7.907-17.888 10.378-36.863 12.454-56.035.296-2.768 0-5.535 0-8.302 0-4.348-.198-10.574 4.447-10.871 5.14-.296 4.151 6.127 5.14 10.179 2.866 12.057 2.075 24.213 2.273 40.322l.099-.099ZM1392.48 569.542c.6 14.726-1.58 29.352-1.08 44.176.29 8.598 3.06 16.208 6.03 23.916 1.28 3.459 4.15 7.314 8.6 7.215 3.85-.099 5.73-3.756 7.21-7.017 10.18-21.94 15.52-45.263 18.58-69.179.79-5.831 1.68-11.662 2.77-17.394.39-1.976 1.68-3.854 3.85-3.755 2.57.099 2.77 2.372 2.77 4.447-.4 31.032 3.06 62.36-9.19 92.206-5.63 13.638-18.98 24.509-28.66 22.73-12.65-2.372-22.74-16.405-23.82-31.723-1.58-22.83 3.26-44.374 12.85-65.325l.09-.297ZM1659.54 480.4c8.1 9.587 10.27 21.248 12.65 32.416 4.94 22.631.19 43.978-11.57 63.447-8.99 14.824-27.47 16.504-41.01 4.843-11.37-9.784-17-23.225-18.58-37.16-1.88-15.812-.4-32.02-.4-50.995 9.39 9.29 7.02 19.272 8.9 27.672 3.45 15.911 7.01 31.526 19.17 43.484 8.8 8.598 15.22 8.005 21.05-3.656 10.97-21.644 14.63-44.572 8.5-68.488-.99-3.755-2.57-7.412 1.29-11.563ZM1730.1 445.316c14.04 19.667 29.36 38.642 33.31 63.448 2.37 15.12-5.44 33.304-14.73 37.356-10.77 4.645-26.58-.494-34.49-10.969-9.29-12.354-13.24-26.684-14.43-41.805-.79-10.179.4-20.457-2.27-30.537-.99-3.558-1.29-9.389 3.46-9.982 5.04-.593 4.84 5.633 5.33 8.895 2.87 17.888 6.23 35.578 14.83 51.785 4.25 8.005 9.69 18.876 18.58 17.097 9.69-1.877 8.7-14.626 9.39-23.224.89-11.563-3.26-22.434-8.3-32.811-4.55-9.388-9.59-18.48-10.68-29.253ZM1099.04 213.567c.89 1.482 2.57 2.965 2.67 4.546.89 32.514 4.75 65.522-13.24 95.467-3.36 5.534-7.71 10.08-12.95 13.638-15.42 10.377-32.71 1.977-36.96-17.393-3.66-16.9-2.77-33.404 1.68-50.007 5.63-21.05 15.51-39.926 26.09-60.285 4.35 5.732 2.47 9.982.99 14.33-5.54 16.801-11.67 33.404-13.64 51.094-1.58 13.836.99 27.276 4.45 40.618 1.48 5.534 4.34 6.523 9.29 2.273 10.87-9.389 14.43-22.236 18.18-35.084 5.14-17.294 6.62-35.38 9.69-53.169.39-2.372.29-4.842 3.75-5.929v-.099ZM1180.88 266.537c-2.18-17.887-8.5-36.171-18.39-53.465-2.86-5.139-9.78-13.342-5.53-16.01 6.72-4.25 9.19 6.028 12.85 10.377 13.74 16.405 24.21 34.787 30.44 55.442 4.15 13.737.49 25.892-7.12 36.862-6.91 9.982-23.32 9.784-33.9 1.285-14.43-11.563-21.35-27.079-23.32-44.868-.99-8.894-4.05-17.69-2.67-26.881.39-2.47-1.09-6.423 2.87-6.621 3.16-.099 3.55 3.36 4.34 6.127 5.24 16.801 8.5 34.689 22.44 47.24 3.85 3.459 6.82 10.772 12.95 8.301 6.52-2.569 4.45-10.08 4.94-17.789h.1ZM1069.39 1729.08c11.86-15.91 10.68-35.08 18.68-51.19 4.85 15.42 1.78 30.54-.69 45.66-.49 2.67-.89 5.53-1.88 8-3.06 7.52-6.91 14.33-16.7 13.94-9.29-.4-13.05-6.72-14.73-14.43-4.34-20.16 3.17-38.74 8.9-57.42.59-1.88 2.07-3.75 4.45-2.77 2.76 1.19 2.17 3.96 1.48 6.13-3.36 11.37-4.65 23.03-4.25 34.89.2 5.53.89 10.77 4.94 17l-.2.19ZM1112.49 1695.19c1.97 7.71 3.85 15.32 5.83 23.02.69 2.67.79 5.54 1.87 8.01 2.97 6.32 5.74 16.21 12.66 15.12 5.93-.89 1.77-10.87 2.76-16.7 2.28-13.05-4.64-25.99-.19-39.34 8.4 18.78 15.91 37.66 14.13 58.71-.59 7.21-5.24 12.15-12.06 14.72-7.02 2.67-12.16-1.08-16.8-5.63-5.73-5.73-8.11-13.14-9.79-20.95-2.66-12.26-.89-24.41-1.38-36.57.99-.1 1.88-.29 2.87-.39h.1ZM723.867 1666.13c-.791 11.07-4.546 21.55-3.064 32.61.593 4.25-.692 9.39 4.942 10.78 5.139 1.28 8.005-3.17 10.18-6.62 6.918-10.68 9.784-23.13 13.244-35.19 1.186-3.95 1.779-8 5.831-10.87 1.186 20.66.988 40.92-12.157 58.61-5.436 7.31-12.749 11.07-21.645 8.3-8.895-2.77-11.267-11.76-11.464-19.17-.297-14.14 4.546-27.28 14.133-38.45ZM848.3 1562.66c0 5.04 1.087 10.47-.198 15.12-2.866 9.98-1.482 19.47.988 29.05.791 2.97 1.088 6.92 4.942 7.22 3.459.2 5.14-3.26 6.622-6.03 6.227-11.86 4.843-25.3 7.116-37.95.593-3.26.494-6.62.791-11.36 9.883 17.49 8.104 50.5-2.57 63.94-8.598 10.87-20.656 9.29-25.697-3.76-7.61-19.76-1.68-38.25 8.104-56.23h-.098ZM938.635 1536.77c10.872 3.55 12.749 13.04 19.174 17.88 2.471 1.88 4.744 5.04 8.104 2.38 2.669-2.18.396-5.04-.395-7.61-2.273-7.61-6.029-14.43-10.18-21.15-2.174-3.46-5.831-6.72-2.57-12.95 13.639 10.77 25.796 22.24 30.738 38.94 2.075 7.11 1.976 16.21-6.326 19.57-8.005 3.36-16.703 1.18-22.336-6.23-6.622-8.7-11.762-18.38-16.209-31.03v.2Z" fill="#216F2D"/><path d="M1126.42 1543.29c10.67 16.31 21.84 32.32 31.43 49.41 4.15 7.41 13.74 8.4 20.46 12.95 24.71 23.12 38.44 52.18 45.26 84.79 6.23 29.65 6.82 59.69 4.85 90.03-2.28 35.58-5.64 70.57-28.96 99.82-14.43 8.89-29.06 13.14-44.87 2.77-17.5-11.47-27.87-27.38-30.54-47.93-1.19-8.9 1.78-18.68-11.17-21.94-3.56-.89-5.83-6.92-9.19-11.17-9.19 11.96-22.73 12.65-36.47 12.35-20.86-4.05-39.63-11.76-51.2-31.23-20.26 25.6-44.277 25.99-70.962 1.39-2.866 6.72-8.302 11.06-13.54 15.61-8.105 2.47-16.11 5.34-24.907 2.47-3.261-1.09-7.511-.49-7.61 4.65-.395 20.95-10.081 38.05-21.744 54.45-11.86 8.99-22.929 19.07-38.545 21.45-9.686 1.48-18.878 1.38-27.279-4.35-3.854-2.57-6.424-4.45-7.709 2.47-8.005 44.37-86.184 80.84-136.985 47.93-35.877-23.22-53.371-55.84-55.051-97.84-2.075-51.19 12.849-98.33 36.668-142.51 56.434-104.26 138.467-178.78 254.203-212.08 82.725-23.82 153.191 0 214.271 57.61 3.17 2.97 6.33 5.83 9.49 8.8l.1.1Zm-485.872 197.46c-16.802 36.27-18.383 74.31-11.07 112.86 7.512 39.23 49.121 84.99 96.76 72.54 29.057-7.61 64.143-27.77 72.544-64.83.593-2.67 1.186-5.34 2.175-7.91.79-2.08 1.581-4.84 4.645-4.25 2.174.49 2.767 2.77 2.767 4.74.396 12.26 8.698 14.53 18.581 14.83 21.25.59 33.802-13.54 45.168-28.17 12.848-16.7 16.604-37.06 19.273-57.42.395-2.96-.495-7.31 3.755-7.31 3.361 0 3.262 3.85 3.361 6.52.099 3.96 1.383 6.72 5.535 8.01 11.86 3.55 23.325-.99 29.057-12.06a297.06 297.06 0 0 0 8.006-17.1c.988-2.27 1.68-5.04 4.249-4.94 3.262 0 2.57 3.16 2.965 5.44 2.373 14.03 12.948 25.49 24.413 26.58 15.517 1.48 27.08-5.63 33.308-20.46 1.48-3.65 2.87-7.31 4.45-10.87.79-1.78 2.17-3.75 4.44-2.67.99.5 2.08 2.57 1.88 3.76-2.77 14.53 8.3 21.45 16.9 28.96 15.12 13.14 50.8 21.94 67.8 1.18 4.45-5.53 6.53-4.54 8.6 2.67 3.76 13.24 11.66 16.6 24.41 12.35 2.38-.79 5.24-4.05 7.32-.79 2.07 3.27-.99 5.83-3.46 7.81-3.26 2.67-8.01 4.05-7.31 9.69 2.37 21.74 10.57 40.32 29.15 52.87 14.04 9.49 26.88 4.64 35.38-6.23 7.52-9.68 13.35-20.55 15.72-32.81 6.13-31.33 8-62.56 5.53-94.77-2.76-34.59-11.56-66.42-28.56-96.26-16.7-29.35-44.57-45.46-81.74-27.18-3.16 1.58-6.12 4.94-11.76 2.18 13.35-15.13 28.27-24.51 48.33-23.82 2.57 0 6.03 1.28 7.61-1.68 1.68-3.26-1.87-4.75-3.46-6.72-12.45-15.91-26.88-29.95-41.51-43.68-9.58-9-19.27-18.39-31.72-23.72-45.76-35.78-97.256-47.74-153.987-36.67-30.738 6.03-58.906 18.78-86.58 33.41-57.521 30.44-104.27 72.73-141.235 125.9-21.546 31.03-41.807 62.96-51.69 100.11v-.09Z" fill="#216F2D"/></g><defs><clipPath id="a"><path fill="#fff" d="M0 0h1934v2520H0z"/></clipPath></defs></svg>