<svg width="1872" height="2331" fill="none" xmlns="http://www.w3.org/2000/svg"><g clip-path="url(#a)"><path d="M1468.6 2113.88c15.12 0 30.45 7.03 45.35 1.71 47.38-17.25 85.71-44.51 99.34-96.69 1.81-6.81 4.68-10.01 12.24-9.58 13.74.85 25.66-4.79 36.84-12.03 60.58-39.3 116.26-142.9 91.99-233.73-10.01-37.27-29.18-69.11-52.49-99.03 16.82-28.86 28.74-60.06 42.9-90.08 42.91-90.73 76.98-185.39 124.04-274.2 1.7-3.19 4.47-6.81 2.45-11.92-5.01 2.45-7.88 5.85-10.44 9.69-20.12 30.88-39.6 62.18-56.64 94.87-2.02 3.94-3.09 7.78-9.26 8.63-102.63 14.59-200.26 45.68-294.27 88.8-50.47 23.11-102.85 34.82-157.57 20.45-74.85-19.7-125.74-66.55-150.44-140.56-3.73-11.07-4.26-23.21-7.13-34.6-5.86-23.22 0-42.81 17.56-58.68 7.56-6.81 15.97-12.56 24.28-18.42 30.98-21.61 61.43-43.87 85.17-73.9 30.66-38.65 55.47-80.5 71.01-127.56 7.35-4.15 15.23-7.67 22.04-12.57 5.01-3.62 6.82-2.34 9.26 2.35 12.35 23.74 32.48 35.24 58.77 36.09 25.02.75 48.13-3.3 61.54-29.92 17.25 28.65 41.2 38.23 71.65 30.35 31.41-8.2 48.66-29.28 52.49-62.4 24.17 15.33 43.44 4.37 61.43-11.07 15.23-13.1 24.6-30.244 31.73-48.665 8.94-23.107 13.84-47.278 18.95-71.343 16.61-77.945 9.48-155.784-2.02-233.409-7.67-51.537-26.62-99.987-42.06-149.394-42.9-137.575-127.76-239.479-257.65-302.197-102.31-49.407-207.39-53.134-313.65-12.245-39.5 15.227-74.74 38.333-109.87 61.334-7.45 4.898-11.39 5.004-14.69-3.94-5.11-13.737-14.06-25.13-23-36.417-68.776-86.89-159.272-143.219-260.416-183.788C664.032-3.833 576.943-7.985 488.895 10.968 376.786 35.14 285.651 95.09 210.059 179.53 110.513 291.016 48.443 421.67 14.374 565.953-1.702 634.102-6.6 702.996 11.82 771.783c15.118 56.436 46.42 98.389 105.082 116.065 55.15 16.612 128.612-14.162 143.411-66.551 2.022-7.134 5.749-7.241 10.54-2.342 9.369 9.583 19.803 16.93 33.75 18.953 42.586 6.07 87.834-19.166 104.443-59.097 2.768-6.602 2.555-16.611 7.24-19.699 5.323-3.514 11.498 6.814 18.951 6.814-.106 5.963.426 12.033-.639 17.783-10.114 53.667-14.053 107.334-4.684 161.746 13.202 76.135 49.4 138.425 110.405 185.495 72.078 55.58 156.4 83.05 243.809 102.01 38.328 8.3 77.401 12.99 115.729 20.87 45.78 9.37 66.861 30.45 73.461 73.68 6.282 41.85 10.541 84.12 15.97 126.08 5.217 40.25 11.183 80.5 27.253 118.09 31.2 72.83 82.19 130.76 140.86 182.51-.32.74-.53 1.59-.96 2.23-65.16 76.67-110.19 163.24-127.55 263.01-6.28 36.31-7.34 72.73 6.07 107.98 12.25 32.37 35.14 54.94 67.08 67.4 26.4 10.33 50.78 4.47 72.29-14.06 5.32-4.57 5.96.86 7.56 3.94 6.49 12.14 16.6 20.34 28.74 26.09 47.06 22.04 107.11-1.81 126.48-50.15 1.39-3.51 2.98-7.03 4.69-10.44 2.45-4.89 5.21-7.24 10.86-3.19 11.82 8.62 25.34 11.5 39.71 10.75.85 2.77 1.92 5.54 2.66 8.42 9.05 35.45 18.53 70.81 36.63 102.96 3.08 5.54-.64 7.78-2.67 10.97-8.09 12.89-16.6 25.45-24.7 38.34-2.13 3.4-5.85 7.02-2.44 12.67 2.98-3.2 5.85-5.75 7.98-8.84 16.08-24.17 35.03-45.79 56.21-65.59 14.7-13.63 28.11-28.33 39.61-44.83 16.82-24.17 25.02-51.54 30.45-82.31-8.41 4.58-9.37 11.18-11.29 16.82-2.23 6.5-4.57 7.35-10.64 3.73-16.82-10.12-31.73-22.47-45.78-36.1l.21-.11Z" fill="#FEFEFE"/><path d="M1162.3 1755.78c-58.77-51.75-114.35-112.97-145.54-185.81-16.08-37.59-22.043-77.84-27.26-118.09-5.43-42.06-9.582-84.22-15.97-126.07-6.494-43.23-27.575-64.32-73.462-73.69-38.434-7.88-77.507-12.56-115.729-20.87-87.409-18.95-171.73-46.32-243.808-102.01-61.005-47.06-97.204-109.35-110.406-185.489-9.369-54.413-5.43-108.08 4.685-161.747 1.064-5.75.426-11.819.639-17.782 18.099 1.49 26.51-11.394 36.411-25.556 5.43 14.588 13.734 25.875 26.723 33.222 9.263 5.324 20.016 6.176 29.704 10.223.852 14.481-1.064 28.856-2.342 43.125-6.388 71.236 35.666 167.177 131.699 196.774 55.895 17.26 113.174 29.71 168.643 48.24 20.442 6.82 41.415 11.39 62.709 14.8 14.905 2.34 22.251-.85 23.848-11.39 1.917-12.99 2.981-26.09 1.917-39.4-3.94-50.366-9.263-100.838-6.388-151.417 1.064-19.167-.639-40.676 7.985-58.991 38.008 17.569 75.91 20.338 111.892-6.176 3.62-2.662 5.75-1.065 5.65 2.981-.43 15.121 6.38 27.899 12.03 40.996-2.13 3.301-2.77 8.838-2.66 12.778.95 41.954-1.39 84.014 2.55 125.969 3.83 40.78 11.93 80.18 33.43 115.64 14.37 23.74 30.77 47.17 58.24 56.22 35.98 11.93 69.1 2.77 98.37-20.87 36.52-29.39 61.22-69.32 82.62-110 20.34 12.89 41.74 18.32 65.69 13-15.65 46.95-40.88 90.08-71.54 128.73-23.85 30.03-54.2 52.29-85.18 73.9-8.3 5.86-16.71 11.61-24.27 18.42-17.57 15.87-23.42 35.46-17.57 58.67 2.88 11.4 3.51 23.54 7.13 34.61 24.7 73.9 75.6 120.86 150.44 140.56 54.83 14.37 107.11 2.66 157.57-20.45 94.01-43.02 191.75-74.11 294.28-88.8 6.17-.86 7.24-4.69 9.26-8.63 17.03-32.8 36.52-63.99 56.64-94.87 2.55-3.84 5.43-7.35 10.43-9.69 2.02 5.11-.74 8.73-2.45 11.92-47.06 88.81-81.12 183.47-124.03 274.19-14.27 30.03-28.85 64.32-45.67 93.18" fill="#604E0E"/><path d="M1045.82 865.273c-5.75-13.098-13.42-25.45-12.99-40.57.11-3.94-2.02-5.644-5.64-2.981-35.988 26.514-73.251 23-111.366 5.324-30.876-23.32-54.192-51.751-59.515-92.853-25.446 28.005-44.503 30.561-71.439 11.607-21.08 36.63-49.72 64.528-94.01 63.889-47.378-.639-76.23-28.537-86.983-74.431-4.152 1.065-5.962 3.727-7.133 6.283-13.096 30.027-38.009 40.463-68.458 42.273-9.689-4.046-20.442-4.898-29.704-10.222-12.883-7.348-21.294-18.635-26.724-33.223-9.901 14.162-18.312 27.047-36.411 25.556-7.453 0-13.734-10.329-18.951-6.815-4.685 3.088-4.578 13.097-7.24 19.699-16.715 39.931-61.963 65.167-104.443 59.098-13.948-2.023-24.381-9.371-33.75-18.954-4.898-5.005-8.518-4.792-10.54 2.343-14.799 52.389-88.261 83.056-143.411 66.551-58.663-17.676-89.964-59.63-105.082-116.066C-6.39 703.101-1.491 634.1 14.585 565.952c34.07-144.284 96.139-274.937 195.579-386.105C285.755 95.407 376.89 35.457 489 11.287 577.047-7.775 664.137-3.516 748.139 30.132c101.143 40.464 191.64 96.899 260.421 183.789 8.94 11.393 17.99 22.787 22.99 36.417 3.3 8.944 7.35 8.731 14.7 3.939 35.13-23.106 70.48-46.213 109.87-61.333 106.25-40.889 211.33-37.163 313.65 12.245 129.89 62.718 214.74 164.621 257.65 302.196 15.44 49.408 34.49 97.857 42.05 149.395 11.5 77.732 18.53 155.464 2.02 233.409-5.11 24.065-10 48.342-18.95 71.343-7.13 18.421-16.5 35.671-31.72 48.657-18 15.44-37.27 26.41-61.43 11.08-3.84 33.22-21.08 54.2-52.49 62.4-30.45 7.98-54.41-1.71-71.65-30.35-13.42 26.62-36.52 30.67-61.54 29.92-26.3-.85-46.42-12.35-58.77-36.1-2.45-4.68-4.26-6.07-9.26-2.34-6.82 4.9-14.59 8.41-22.04 12.57-23.96 5.21-45.68-.32-66.01-13.1-21.3-16.29-35.35-36.84-35.67-66.126-14.58 11.713-29.49 18.741-46.2 20.444-45.68 4.902-83.15-35.671-76.87-83.588.95-7.454.53-9.264-7.24-6.815-27.58 8.412-51.64-1.065-74.64-15.333-12.03-7.454-20.65-18.528-31.19-27.473v-.106Z" fill="#5F962B"/><path d="M1045.82 865.273c-5.75-13.098-13.42-25.45-12.99-40.57.11-3.94-2.02-5.644-5.64-2.981-35.988 26.514-73.251 23-111.366 5.324-30.876-23.32-54.192-51.751-59.515-92.853-25.446 28.005-44.503 30.561-71.439 11.607-21.08 36.63-49.72 64.528-94.01 63.889-47.378-.639-76.23-28.537-86.983-74.431-4.152 1.065-5.962 3.727-7.133 6.283-13.096 30.027-38.009 40.463-68.458 42.273-9.689-4.046-20.442-4.898-29.704-10.222-12.883-7.348-21.294-18.635-26.724-33.223-9.901 14.162-18.312 27.047-36.411 25.556-7.453 0-13.734-10.329-18.951-6.815-4.685 3.088-4.578 13.097-7.24 19.699-16.715 39.931-61.963 65.167-104.443 59.098-13.948-2.023-24.381-9.371-33.75-18.954-4.898-5.005-8.518-4.792-10.54 2.343-14.799 52.389-88.261 83.056-143.411 66.551-58.663-17.676-89.964-59.63-105.082-116.066C-6.39 703.101-1.491 634.1 14.585 565.952c34.07-144.284 96.139-274.937 195.579-386.105C285.755 95.407 376.89 35.457 489 11.287 577.047-7.775 664.137-3.516 748.139 30.132c101.143 40.464 191.64 96.899 260.421 183.789 8.94 11.393 17.99 22.787 22.99 36.417 3.3 8.944 7.35 8.731 14.7 3.939 35.13-23.106 70.48-46.213 109.87-61.333 106.25-40.889 211.33-37.163 313.65 12.245 129.89 62.718 214.74 164.621 257.65 302.196 15.44 49.408 34.49 97.857 42.05 149.395 11.5 77.732 18.53 155.464 2.02 233.409-5.11 24.065-10 48.342-18.95 71.343-7.13 18.421-16.5 35.671-31.72 48.657-18 15.44-37.27 26.41-61.43 11.08-3.84 33.22-21.08 54.2-52.49 62.4-30.45 7.98-54.41-1.71-71.65-30.35-13.42 26.62-36.52 30.67-61.54 29.92-26.3-.85-46.42-12.35-58.77-36.1-2.45-4.68-4.26-6.07-9.26-2.34-6.82 4.9-14.59 8.41-22.04 12.57-23.96 5.21-45.68-.32-66.01-13.1-21.3-16.29-35.35-36.84-35.67-66.126-14.58 11.713-29.49 18.741-46.2 20.444-45.68 4.902-83.15-35.671-76.87-83.588.95-7.454.53-9.264-7.24-6.815-27.58 8.412-51.64-1.065-74.64-15.333-12.03-7.454-20.65-18.528-31.19-27.473v-.106Zm686.6-265.46c-.53-3.727-.74-7.56-1.6-11.287-8.09-33.01-19.59-64.954-31.51-96.793-17.14-45.893-36.3-91.042-66.22-130.227-39.29-51.325-85.71-95.408-142.99-126.714-30.55-16.718-61.53-33.968-96.03-40.144-41.1-7.453-82.51-13.203-124.99-9.37-45.04 4.046-87.73 15.227-128.4 33.968-68.35 31.412-127.12 76.134-176.521 132.996-11.498-5.644.107-10.542 1.81-12.778 15.757-20.019 32.579-39.398 49.081-58.885 6.6-3.194 12.24-7.453 16.29-13.416-4.47-4.686-9.26-8.945-13.1-13.843-40.559-52.815-85.701-100.413-142.448-136.936-55.469-35.671-113.599-65.167-177.054-82.31-50.465-13.63-102.42-17.357-155.121-12.033-53.872 5.43-105.083 19.06-153.525 42.593-72.61 35.352-132.87 86.676-184.08 148.542C140.109 292.825 91.88 382.589 58.13 480.127c-17.035 49.301-30.45 99.667-35.56 151.737-2.981 29.921-4.152 60.162 0 90.084 1.597 11.18 1.384 23 7.133 33.329.745 12.991 5.643 24.81 10.753 36.31 19.484 43.977 56.002 76.028 107.319 76.241 42.586.213 72.823-21.616 98.268-52.815 8.517-10.435 16.077-21.509 18.099-35.671.746-5.431.959-12.885 7.985-15.76 2.023 1.811 1.278 3.301 1.065 5.005-2.236 17.889 15.331 45.681 30.982 47.491 20.228 2.343 40.031-.106 57.492-11.713 26.084-17.25 38.966-42.699 43.119-73.047.425-2.875-.213-6.921 3.3-7.453 4.046-.639 3.513 3.513 4.578 6.175 3.833 10.116 11.073 17.996 21.613 19.38 10.54 1.384 16.396-7.028 20.974-15.653 4.791-9.051 8.091-18.74 10.646-28.537 1.171-4.472 1.81-9.051 6.069-12.245 4.046 2.981 4.684 6.602 3.194 11.074-12.244 36.63 37.05 65.699 65.264 60.162 17.886-3.514 30.982-12.778 40.457-28.005 10.86-17.356 21.826-34.5 33.218-52.495 4.152 6.069 2.661 11.287 2.448 16.185-.638 21.722 5.963 41.315 18.526 58.352 13.734 18.635 31.94 31.519 56.32 32.69 41.629 2.13 82.938-39.931 88.793-80.074 1.491-9.903 3.62-20.125 11.179-31.2 1.597 12.033 2.556 21.084 4.046 30.028 1.491 9.584 2.449 20.551 12.989 24.491 19.164 7.241 44.397-14.162 40.351-34.074-2.023-10.116-2.023-20.125-2.449-30.347-.852-22.575 1.704-44.829 5.43-66.978 4.471-26.088 7.878-52.495 17.673-77.412 4.578 4.259 2.449 9.37 1.704 14.162-4.791 32.477-7.666 65.061-9.05 97.857 0 13.63-.106 27.259-.319 40.783-.426 30.667 5.11 60.269 21.506 86.463 34.495 55.051 75.059 69.32 135.315 47.172 5.54-2.023 11.29-4.366 13.74-10.542 1.06-2.875-.32-7.986 5-7.028 4.37.746 5.01 5.324 5.54 9.158 6.39 46.213 35.03 72.514 77.19 86.996 11.6 3.939 23.31 3.726 35.13 1.384 10.01-2.023 9.69-11.713 12.88-18.741.85-1.917 1.92-4.259 4.37-3.62 2.45.532 2.87 2.768 2.34 5.111-3.19 13.416-1.28 27.046-1.38 40.569 0 13.737 3.51 27.047 10.75 38.653 13.84 22.468 36.3 34.82 75.48 22.681 14.27-4.366 26.62-9.264 25.98-27.366 0-2.662.85-5.856 3.83-5.643 3.73.319 3.94 4.046 3.73 7.027-.74 9.477 1.17 18.528 2.77 27.686 5.22 30.236 22.25 51.006 51.32 60.696 16.39 5.43 32.47 3.09 47.91-5.22 12.13-6.49 13.73-17.25 13.62-29.07 0-.74.43-1.7.86-2.34 1.8-2.983-.43-9.265 5-8.733 5.22.426 3.62 5.963 3.51 9.473-.32 11.61.75 22.58 6.71 33.12 17.78 31.52 53.66 33.65 80.38 23.53 13.52-5.11 25.66-13.73 23-32.16-.64-4.36-3.2-12.35 3.09-13.2 6.81-1.06 5 7.67 6.28 11.82 6.07 20.13 29.49 39.51 48.87 37.91 35.56-2.77 54.19-31.73 58.55-63.57.43-3.302-4.58-7.455 1.28-9.691 5.54-2.13 7.13 3.088 9.8 6.069 14.9 16.402 29.27 18.632 44.18 5.962 10.96-9.369 20.76-19.911 27.15-33.328 21.82-45.681 27.25-94.982 30.13-144.389 3.3-56.01-3.3-111.7-10.44-167.071-2.55-19.806-5.43-40.144-14.69-58.565v.426Z" fill="#497522"/><path d="M1157.61 1754.19c14.27-16.19 30.66-30.14 46.1-45.04 11.61-11.19 26.19-18.75 36.09-31.63 1.92-.75 4.16-1.17 5.75-2.34 38.33-29.71 79.75-53.88 124.78-72.3 62.18-25.35 125.95-31.1 191.43-19.17 34.17 6.18 65.16 20.87 94.01 40.14 15.33 13.63 30.77 27.37 46.1 41 23.21 29.92 42.48 61.65 52.49 99.03 24.27 90.83-31.41 194.43-91.99 233.73-11.18 7.24-23.21 12.77-36.84 12.03-7.56-.43-10.43 2.77-12.24 9.58-13.74 52.07-51.96 79.44-99.34 96.69-14.79 5.43-30.13-1.6-45.35-1.71-3.62 0-6.18 1.28-7.88 4.9-13.73 28.54-38.97 37.16-68.14 38.87-14.48.74-28-2.13-39.71-10.76-5.54-4.04-8.41-1.7-10.86 3.2-1.7 3.4-3.19 6.92-4.68 10.43-19.38 48.35-79.43 72.3-126.49 50.16-12.24-5.75-22.35-13.95-28.74-26.09-1.6-3.09-2.24-8.52-7.56-3.94-21.4 18.53-45.78 24.38-72.29 14.05-31.94-12.46-54.83-35.03-67.08-67.4-13.41-35.25-12.35-71.66-6.06-107.97 17.35-99.78 62.39-186.24 127.54-263.01.54-.64.64-1.49.96-2.24v-.21Z" fill="#5F962B"/><path d="M1157.61 1754.19c14.27-16.19 30.66-30.14 46.1-45.04 11.61-11.19 26.19-18.75 36.09-31.63 1.92-.75 4.16-1.17 5.75-2.34 38.33-29.71 79.75-53.88 124.78-72.3 62.18-25.35 125.95-31.1 191.43-19.17 34.17 6.18 65.16 20.87 94.01 40.14 15.33 13.63 30.77 27.37 46.1 41 23.21 29.92 42.48 61.65 52.49 99.03 24.27 90.83-31.41 194.43-91.99 233.73-11.18 7.24-23.21 12.77-36.84 12.03-7.56-.43-10.43 2.77-12.24 9.58-13.74 52.07-51.96 79.44-99.34 96.69-14.79 5.43-30.13-1.6-45.35-1.71-3.62 0-6.18 1.28-7.88 4.9-13.73 28.54-38.97 37.16-68.14 38.87-14.48.74-28-2.13-39.71-10.76-5.54-4.04-8.41-1.7-10.86 3.2-1.7 3.4-3.19 6.92-4.68 10.43-19.38 48.35-79.43 72.3-126.49 50.16-12.24-5.75-22.35-13.95-28.74-26.09-1.6-3.09-2.24-8.52-7.56-3.94-21.4 18.53-45.78 24.38-72.29 14.05-31.94-12.46-54.83-35.03-67.08-67.4-13.41-35.25-12.35-71.66-6.06-107.97 17.35-99.78 62.39-186.24 127.54-263.01.54-.64.64-1.49.96-2.24v-.21Zm127.87-89.77c-4.9-.1-9.05 1.92-12.99 4.58-21.83 15.33-42.8 31.84-62.6 49.73-50.04 44.93-89.86 97.96-120.42 157.7-9.9 19.48-21.18 38.76-23.74 61.23-5.85.63-5.54 6.07-6.71 9.69-14.16 41.52-23.31 83.9-21.18 128.31 2.23 46 21.29 81.14 63.66 102.22 15.02 7.45 30.45 7.24 45.68 3.62 15.12-3.51 30.34-8.31 36.09-28.11 5.22 10.01 6.17 19.06 12.67 25.77 21.93 22.78 55.15 28.22 86.88 14.05 30.76-13.73 44.71-40.03 53.44-70.38 1.17-3.94.85-8.41 5.64-10.33 6.07 18.85 19.28 28.32 40.67 29.5 38.76 2.02 59.09-12.89 71.44-52.5.64-2.13 1.28-4.47 3.73-4.37 1.17 0 2.77 1.81 3.41 3.2 5.64 12.14 16.82 13.95 28.21 15.54 41.84 5.54 94.54-44.08 107.74-75.6 5.54-13.2 3.52-27.15 5.75-41.85 12.46 14.7 16.51 15.66 33.75 7.99 7.35-3.3 14.7-6.92 21.19-11.61 30.88-21.93 51.74-51.75 67.82-85.61 35.67-75.28 22.14-157.91-31.19-219.88-63.46-73.69-147.78-92.11-239.87-83.38-51.21 4.9-98.38 25.13-142.99 50.26-9.47 5.33-21.72 8.2-26.4 20.13l.32.1Z" fill="#497522"/><path d="M1390.77 2155.84c29.07-1.71 54.41-10.33 68.14-38.87 1.71-3.62 4.26-4.9 7.88-4.9 14.05 13.63 28.96 25.88 45.78 36.1 6.07 3.62 8.41 2.77 10.65-3.73 1.91-5.64 2.87-12.24 11.28-16.82-5.43 30.77-13.62 58.14-30.45 82.31-11.49 16.5-24.91 31.2-39.6 44.83-21.3 19.7-40.14 41.42-56.22 65.59-2.02 3.09-5 5.64-7.98 8.84-3.41-5.64.21-9.26 2.45-12.67 8.09-12.89 16.5-25.45 24.7-38.34 2.02-3.19 5.85-5.43 2.66-10.96-18.1-32.16-27.47-67.51-36.62-102.97-.75-2.88-1.71-5.65-2.67-8.41Z" fill="#604E0E"/><path d="M1655.77 1623.75c-28.86-19.28-59.73-33.87-94.01-40.15-65.48-11.92-129.25-6.17-191.43 19.17-45.04 18.42-86.45 42.59-124.78 72.3-1.6 1.28-3.83 1.6-5.75 2.34-38.96-18.95-76.12-40.35-108.06-70.6-36.31-34.39-61.01-75.7-78.36-122.02-17.57-46.86-33.43-94.35-56.109-139.18-6.281-12.45-12.776-24.59-16.821-38.22-10.754-35.99-38.541-52.71-72.717-61.98-32.366-8.73-65.69-11.18-98.588-16.82-58.344-10.01-114.558-26.73-168.856-49.83-44.822-19.06-86.344-43.66-121.159-78.27-42.48-42.27-67.712-93.38-78.678-152.268-3.833-20.444-4.898-41.102-6.921-61.653-1.49-15.014 1.065-30.454 2.343-45.574.638-7.028 4.365-10.861 12.243-7.986 8.731 3.194 17.78 5.537 27.043 6.815 11.072 1.597 10.753 11.5 11.072 18.74 1.597 43.871 14.693 84.121 37.476 121.284 21.933 35.782 52.382 61.862 92.307 76.132 61.112 21.72 123.288 38.87 186.955 52.07 54.937 11.4 106.147 34.61 156.719 58.57 1.49.64 3.087 1.06 4.258 1.49 2.449-1.71 1.81-3.52.639-4.69-21.187-19.91-27.894-48.23-41.841-72.3-5.004-8.73.106-17.67 1.277-25.98 2.875-20.87-1.171-41.32-2.235-61.87-1.597-30.024-4.578-60.052-3.62-90.187.106-3.514.319-7.347 5.43-6.495 30.023 4.685 60.047 0 90.073-.532 25.23-.426 21.93-3.408 21.72 21.296-.32 48.769-.22 97.538 12.99 145.028 10.96 39.29 29.49 74.33 61.53 100.41 23.21 18.96 50.26 19.28 78.47 12.99 39.18-8.62 66.65-33.75 91.88-62.39 2.55-2.88 4.79-5.97 7.45-8.63 2.98-2.87 5.43-.74 7.67 1.38 3.83 3.73 3.4 7.35-.22 11.08-28.63 30.03-56.96 60.91-95.18 79.12-24.8 11.81-44.07 28.64-48.65 56.43-4.37 26.2-2.88 53.67 9.79 77.09 18.85 34.72 32.05 72.73 58.45 103.29 37.05 42.81 81.24 71.98 138.3 81.03 55.9 8.84 106.47-6.07 156.08-28.96 76.55-35.35 156.93-58.67 239.34-75.81 6.71-1.39 16.18-7.24 20.02-.86 3.3 5.33-5.43 12.25-9.37 17.89-35.03 50.79-64.2 104.89-93.16 159.09a2365.71 2365.71 0 0 1-15.23 27.68l.22.54Z" fill="#756118"/><path d="M29.917 755.491c-5.75-10.435-5.43-22.148-7.133-33.329-4.259-29.921-3.088-60.162 0-90.084 5.11-52.069 18.525-102.435 35.56-151.737 33.75-97.537 81.979-187.408 147.882-266.95 51.21-61.866 111.47-113.191 184.08-148.543 48.442-23.532 99.653-37.056 153.525-42.593 52.701-5.324 104.656-1.597 155.121 12.033 63.348 17.144 121.585 46.639 177.054 82.311 56.747 36.523 101.889 84.12 142.454 136.936 3.83 4.898 8.52 9.157 13.09 13.842-4.04 5.963-9.68 10.222-16.29 13.417-.95-16.611-7.45-22.894-23.631-23.107-17.993-.213-34.07 6.815-49.72 14.056-43.332 20.019-78.466 50.685-111.577 84.76-34.602 35.458-56.108 77.199-69.203 124.158-7.027 25.343-14.16 50.685-26.83 74.005-4.045 7.454-8.836 14.056-16.396 18.315-2.981-5.324-2.768-11.5-6.92-15.547-4.791-4.791-10.647-7.134-17.46-5.537-10.647 2.556-13.202 11.713-14.586 20.445-2.875 17.782-12.244 30.134-29.279 34.713-17.992 4.792-29.171-5.005-38.115-20.125-9.049-15.333-23.848-14.269-33.004 1.065-1.065 1.81-1.704 3.94-3.088 5.537-5.323 6.708-10.859 14.801-20.228 13.417-8.944-1.278-13.522-8.625-15.438-17.889-1.597-7.348-6.282-12.672-15.331-12.352-8.73.426-11.392 6.176-13.202 13.097-.745 2.875-1.278 5.857-1.171 8.732.426 11.819-5.004 21.402-12.35 29.921-11.179 12.884-21.081 12.778-33.644.958-5.962-5.643-10.966-11.819-14.16-19.379-2.874-6.922-7.559-11.287-15.65-10.223-8.411 1.065-12.244 6.176-13.947 14.056-4.578 22.361-15.651 40.676-32.579 56.116-20.229 18.421-47.165 14.801-59.941-9.051-2.874-5.218-3.513-11.181-4.684-17.037-1.917-9.477-7.666-15.546-18.1-13.31-9.582 2.129-13.308 10.009-11.604 18.528 4.897 23.745-4.153 43.444-16.822 61.759-16.183 23.533-43.119 28.537-64.093 13.204-12.35-9.051-15.118-21.403-14.16-35.885.639-9.476-2.236-17.995-13.628-19.592-12.03-1.704-18.205 4.898-20.761 15.759-.851 3.621-2.023 7.986-.958 11.287 4.152 11.82-1.277 20.764-8.091 28.963-7.027 8.519-14.16 17.251-22.784 23.959-20.229 15.972-42.267 26.194-69.416 19.912-11.818-2.662-21.826-8.838-32.686-13.204l-.106.213ZM964.268 352.348c49.402-56.861 108.172-101.583 176.522-132.996 40.67-18.741 83.26-29.921 128.4-33.967 42.48-3.834 83.89 1.916 124.99 9.37 34.39 6.176 65.37 23.426 96.03 40.144 57.28 31.305 103.7 75.283 142.99 126.713 29.91 39.079 48.97 84.334 66.22 130.228 11.92 31.732 23.42 63.783 31.51 96.792.86 3.621 1.07 7.454 1.6 11.287-4.68 11.926-2.87 24.917-6.07 37.056-10.86 40.783-26.4 79.755-50.14 115.001-18.64 27.685-24.81 28.857-52.7 11.074-17.68-11.287-33.12-7.773-44.08 10.435-3.09 5.111-5.33 10.648-8.09 15.866-7.03 13.204-15.44 25.343-26.62 35.459-12.46 11.18-22.57 10.115-31.3-4.366-7.56-12.459-12.35-26.088-13.31-40.783-.74-10.754-4.36-20.231-15.97-21.083-12.78-.959-15.86 10.116-16.82 19.912-.96 9.477-4.79 16.718-10.12 24.171-14.05 19.7-33.64 30.88-56.32 36.63-33.75 8.519-54.72-3.194-61.21-33.116-1.18-5.324-1.92-10.861-2.99-16.185-1.7-8.519-4.04-16.718-13.09-20.338-9.8-4.046-17.25 1.171-24.17 7.028-4.15 3.62-7.77 7.986-11.92 11.5-15.87 13.523-29.49 10.861-39.18-7.347-1.81-3.408-3.41-6.815-5.11-10.329-11.29-22.894-27.05-24.278-42.27-4.047-5.64 7.454-12.03 14.482-19.91 19.593-9.05 5.75-14.69 3.514-18.21-6.708-8.19-23.959-5.74-48.769-3.72-73.153.85-10.968 1.38-20.019-9.9-24.172-10.97-4.046-20.98 2.875-24.17 16.292-2.24 9.583-7.35 16.824-13.73 23.852-24.28 26.514-54.2 41.634-89.65 46-20.02 2.449-49.4-7.028-59.302-30.454-16.821-39.931-20.228-81.033-12.776-123.2 2.662-15.333-3.087-28.75-15.544-31.731-11.392-2.769-22.145 5.75-25.977 20.551-7.027 27.472-17.887 35.671-45.888 34.607 1.385-32.797 4.259-65.38 9.05-97.858.745-4.791 2.768-9.902-1.703-14.162-.639-6.069.958-11.713 2.661-17.356 12.563-42.061 38.222-76.774 62.07-112.658 9.689-14.695 23.742-26.408 29.917-43.445v-.107ZM1285.58 1664.42c19.91 3.52 40.03 6.07 59.62 10.76 31.52 7.56 59.84 20.87 79.96 48.13 26.51 36.09 22.57 81.35 1.28 115.96-11.39 18.52-25.34 37.9-46.42 40.99-26.62 3.94-35.35 19.38-43.01 40.78-5.65 15.66-16.61 28.65-29.5 39.4-6.28 5.22-13.52 8.31-22.14 8.2-16.61-.21-18.31-1.92-15.33-18.21 2.02-11.18-3.41-22.04-12.56-25.02-10.76-3.41-24.92 4.05-28.01 17.78-5.42 24.6-19.37 43.13-37.58 58.99-25.76 22.47-55.57 31.73-89.54 24.6-19.8-4.26-35.34-28.32-36.19-54.62-.32-11.5-.22-23-.32-34.4 2.55-22.47 13.73-41.74 23.74-61.23 30.55-59.84 70.37-112.76 120.41-157.7 19.8-17.78 40.78-34.28 62.6-49.72 3.84-2.77 7.99-4.79 12.99-4.58v-.11Z" fill="#7BC437"/><path d="M861.844 1210.92c-57.066-5.33-112.428-17.57-165.555-38.87.426-1.6.745-3.19 1.171-4.79 55.043 13.1 110.087 26.19 165.023 39.29-.213 1.49-.532 2.87-.745 4.37h.106ZM1151.33 1437.29c13.52 15.44 22.14 29.93 32.47 43.02 17.04 21.51 38.01 37.06 61.96 49.41 2.67 1.39 5.33 2.66 7.88 4.05 2.56 1.38 6.5 2.34 5.22 5.96-1.49 4.15-4.9 1.28-7.56.64-16.82-3.94-31.83-12.25-44.82-23.11-23.64-19.8-42.37-43.76-54.83-72.19-.43-.96-.21-2.34-.43-7.67l.11-.11ZM1674.4 1479.36c-38.22 4.58-75.8 12.56-113.49 20.55 35.66-18.1 71.75-33.86 113.49-20.55ZM1184.02 1521.2c30.23 28.75 65.47 49.62 103.06 67.09-33.44-2.88-90.5-35.46-103.06-67.09ZM993.863 1050.87c11.077 33.76 23.847 66.77 33.427 100.84-20.86-30.45-32.149-64.1-33.427-100.84ZM564.591 1103.26c-34.709-23.32-61.857-53.56-82.193-89.98 26.936 30.35 54.937 59.85 82.193 89.98ZM1674.72 1503.63c-13.84 8.1-29.18 10.12-44.93 10.23-1.81 0-3.62-.96-3.52-2.77.22-3.52 3.3-4.69 5.97-5.75 13.73-5.11 27.78-5.01 42.37-1.71h.11ZM1005.9 1147.45c-12.673-15.65-19.594-33.75-22.255-53.56 11.072 16.29 17.355 34.61 22.255 53.56ZM743.029 1146.71c-20.122-2.56-39.393-7.99-57.705-16.51 20.868-.21 39.18 8.73 57.705 16.51ZM603.027 1129.78c16.822 4.04 31.514 12.77 45.781 22.04-17.354-2.98-32.153-11.18-45.781-22.04Z" fill="#604E0E"/><path d="M687.985 132.996c10.966 20.125 17.035 38.547 20.867 57.926 3.194 16.186 2.449 31.732-3.939 47.172-3.726 9.051-9.262 15.44-18.951 16.718-10.54 1.384-19.057-3.408-25.232-11.713-9.369-12.565-13.096-27.366-15.651-42.487-1.491-8.731-1.81-17.676-2.449-26.514-.319-3.833-.532-9.051 3.833-9.69 5.323-.745 4.898 5.537 5.323 8.519 2.875 19.167 9.476 36.843 20.442 52.815 2.768 4.153 5.004 10.009 11.179 8.412 5.536-1.491 6.388-7.241 7.453-12.245 5.323-23.746 2.874-47.065-3.407-70.172-1.384-5.005-2.449-9.796.426-18.634l.106-.107ZM280.221 354.052c3.194 5.005 3.088 10.329 1.704 14.908-2.662 8.838-1.81 17.676-1.916 26.62-.107 7.88.745 17.57 8.623 19.274 7.666 1.597 10.966-7.774 14.267-14.162 8.411-16.079 10.966-33.649 12.776-51.431.426-4.26.532-10.542 4.684-10.649 5.75-.213 5.111 6.389 5.643 10.862 2.129 15.972 3.939 31.944.107 48.023-2.769 11.82-6.921 22.787-16.29 30.986-8.304 7.348-17.354 12.565-28.746 7.88-11.605-4.898-16.076-14.588-16.289-26.514-.426-20.019 8.73-37.482 15.544-55.69l-.107-.107ZM191.32 374.391c3.088 11.713-2.874 22.042-4.365 32.903-1.278 9.477-1.916 18.422.852 27.579 3.3 11.181 8.091 12.672 16.822 4.26 15.011-14.375 20.76-33.649 26.616-52.709 1.597-5.218 2.023-10.861 3.514-16.079.532-1.704 2.448-4.046 4.045-4.366 2.555-.426 2.981 2.343 3.088 4.473 1.703 30.773 0 60.588-24.275 83.801-9.156 8.838-19.802 14.056-32.259 8.519-11.285-5.112-12.244-15.973-12.776-27.047-1.065-22.894 7.453-42.486 18.845-61.44l-.107.106ZM515.299 427.314c.852 13.523-4.472 26.301-3.3 39.93.745 8.519 2.235 16.718 5.11 24.704 3.3 8.945 7.24 9.477 12.563 1.491 10.221-15.121 13.841-32.584 18.206-49.834 1.49-5.963 1.064-16.398 7.133-15.653 6.707.852 2.875 10.862 2.981 16.718.532 20.445-.532 40.676-10.54 59.311-5.536 10.328-13.841 16.717-25.233 16.185-12.35-.532-18.099-9.477-20.867-20.658-6.495-26.194 1.277-49.62 13.841-72.301l.106.107ZM1061.05 527.406c1.38-23.533 12.13-45.149 23.63-66.445 3.41-6.389 7.56-12.246 11.39-18.422 1.49-2.449 2.99-6.601 6.18-4.898 4.26 2.236.74 5.857-.32 8.838-5 13.098-10.54 25.982-15.12 39.079-4.26 12.033-6.17 24.704-5.32 37.482.21 3.514-1.81 8.518 3.41 9.69 4.25.958 6.6-3.195 8.83-6.176 10.76-14.801 20.23-30.348 25.98-47.917.75-2.449 1.7-4.792 2.87-7.028.96-1.917 2.35-3.833 4.8-3.407 2.66.532 2.66 3.194 2.44 5.111-2.55 26.407-6.6 52.282-24.59 73.366-7.98 9.37-18.63 12.991-29.81 8.412-10.97-4.472-14.27-14.907-14.37-27.792v.107ZM1159.85 488.752c1.27 7.241 1.17 14.482-.43 21.935-2.66 11.82-1.7 23.533 1.6 35.139.85 2.875 2.34 5.964 5.43 6.602 3.4.746 5.21-2.555 6.7-4.898 8.31-12.778 10.65-27.472 12.99-42.06 1.17-7.028 1.81-14.269 2.88-21.297.32-2.662 1.38-5.537 4.15-5.643 3.51-.107 2.98 3.301 3.41 5.643 3.72 22.788 4.79 45.468-2.35 67.829-2.66 8.306-7.24 15.334-14.79 20.019-10.76 6.708-23.96 2.982-30.35-8.093-7.02-12.245-5.32-25.342-3.4-38.227.85-6.282 2.87-12.352 4.68-18.421 1.92-6.389 4.26-12.671 6.39-18.954l3.19.426h-.1ZM1550.05 428.91c6.39 28.431 16.29 53.135 8.73 79.755-2.98 10.542-8.84 19.167-21.83 19.912-13.73.639-19.91-8.092-23.85-18.953-7.98-21.51-8.41-43.765-5.32-66.232.32-2.556.96-5.857 3.94-5.324 3.41.532 3.51 4.259 3.62 7.347.64 16.185 3.3 32.051 9.26 47.171 2.24 5.644 3.83 14.482 10.97 13.95 6.28-.533 5.85-9.371 7.56-14.801 4.57-14.482 2.13-29.496 2.76-44.297.22-4.898-1.49-10.009 4.05-18.421l.11-.107ZM1609.88 820.871c7.67 12.991 8.73 25.769 11.6 37.801 5.01 21.19 6.82 42.487-5 62.825-9.47 16.292-25.55 17.356-36.3 1.81-5.75-8.306-7.78-18.209-8.2-27.685-.75-15.121-2.45-30.561 2.02-45.468.75-2.556-.74-7.028 3.73-6.496 3.3.32 3.94 3.94 4.04 7.135.75 16.504 2.88 32.796 8.41 48.449 1.39 4.046 2.03 10.755 7.46 10.329 4.26-.32 4.26-6.602 5.64-10.542 6.81-18.954 3.09-38.653 4.15-58.033.32-5.75-1.38-11.713 2.56-20.125h-.11ZM1470.83 879.542c1.28 10.542 3.2 21.19 3.62 31.732.43 13.203 6.39 23.532 14.27 33.222 6.07 7.56 11.71 5.75 15.97-1.81 7.03-12.778 11.18-26.621 13.2-40.996 1.39-10.009 1.92-20.231 2.66-30.347.22-3.088.54-6.709 3.84-7.241 4.68-.745 3.51 3.62 3.83 6.282 3.3 25.237 5.86 50.579-2.02 75.496-.85 2.769-2.13 5.537-3.62 7.986-15.12 24.811-35.46 25.13-49.83 0-13.63-23.852-9.37-49.194-5.11-74.218 1.07 0 2.13-.213 3.19-.319v.213ZM1233.63 2008.57c1.38 12.14-2.88 23.53-1.6 35.35.21 2.13-.21 4.26 0 6.39 1.17 7.88 1.17 17.68 10.65 19.7 10.75 2.34 12.66-8.52 15.86-15.12 6.17-12.78 7.45-26.83 6.71-40.99-.22-4.05-1.28-10.01 4.15-10.65 5.43-.64 4.15 5.85 4.58 8.84 3.51 24.27 8.19 48.98-12.57 68.78-14.37 13.74-32.26 8.63-38.43-10.43-7.35-22.68 1.49-42.28 10.75-61.76l-.1-.11ZM1449.97 1946.81c12.88 11.5 16.29 26.84 19.37 42.17.96 4.9.64 10.22 0 15.23-1.27 9.69-7.02 17.25-16.39 19.06-8.52 1.7-15.01-4.16-19.38-11.61-4.36-7.45-6.71-15.65-7.34-24.06-.75-10.87-.22-21.83-.22-34.29 7.88 3.83 7.35 9.26 7.67 14.48.64 10.12 1.7 20.23 6.6 29.39 2.02 3.73 3.83 8.62 8.52 8.52 6.28-.22 5.64-6.82 6.81-10.76 2.98-10.54-1.7-20.76-2.87-31.2-.64-5.64-1.92-11.18-2.88-16.82l.11-.11ZM1520.34 1833.94c8.52.75 8.84 6.82 10.97 10.97 4.79 9.48 9.26 19.06 17.88 25.88 3.2 2.55 5.43 6.6 10.76 3.93 4.89-2.44 6.28-5.96 6.6-11.18.85-15.54-.96-30.24-10.22-43.44-3.2-4.69-5.22-10.22-8.52-16.82 14.8 5.96 30.45 32.37 31.41 50.25.21 3.41 0 6.82 0 10.23-.32 11.82-5.22 20.97-17.15 23.64-10.43 2.34-19.37-2.56-24.8-11.29-7.99-12.67-13.52-26.51-16.93-42.06v-.11ZM1599.87 1745.99c24.91 5.75 36.09 34.18 35.35 48.66-.54 10.11-5.75 17.14-15.65 21.08-9.37 3.62-16.83-.53-23.43-5.53-12.99-10.01-17.99-25.35-23.84-39.83-.54-1.28 0-4.05.85-4.47 2.98-1.71 4.47.96 5.75 3.09 4.36 7.24 8.3 14.8 13.09 21.83 3.3 4.89 8.41 8.19 13.42 11.5 3.51 2.23 6.7 3.94 10.22.63 3.3-3.08 7.66-5.85 6.17-11.6-3.09-11.72-3.72-24.39-14.05-33.22-2.98-2.56-4.58-6.71-7.99-12.04l.11-.1ZM1160.48 1864.18c1.07-22.36 12.99-39.08 24.39-55.9 1.17-1.7 2.98-3.51 5.21-1.49 1.92 1.81.75 3.94-.21 5.85-5 8.84-9.69 17.79-13.63 27.26-3.41 8.31-3.19 16.72-2.23 25.03 1.17 10.01 7.24 11.82 14.79 5 12.46-11.28 17.36-26.83 23.43-41.74 2.66-6.71 3.83-20.44 9.26-18.42 8.41 3.19 1.06 14.27-.43 21.19-3.72 17.57-6.6 35.88-21.29 49.3-8.3 7.56-17.14 12.03-27.57 7.99-10.97-4.26-10.44-15.34-11.61-24.07h-.11Z" fill="#497522"/></g><defs><clipPath id="a"><path fill="#fff" d="M0 0h1872v2331H0z"/></clipPath></defs></svg>