<svg width="2979" height="5316" fill="none" xmlns="http://www.w3.org/2000/svg"><g clip-path="url(#a)"><path d="M728 198.501c-347.6-20.4-633.833 294.166-733.5 454V2244h2991V1093c-715 0-1239.5-460-1354.5-541s-468.5-327.999-903-353.499Z" fill="#468221" stroke="#437724" stroke-width="6"/><path d="M2318.5 960.5c73.5 29.5 181.33 67.5 227 72.5v1328.5H-5.5v-1123c747.5-38.5 1013.5 458 1107 620.5l8 86.5 402.5 300 103-54.5c22-24 72.6-80.3 99-113.5 33-41.5 105-278 251.5-633 117.2-284 284.17-444.33 353-484Z" fill="#376A18"/><path d="M-5.5 652.501c99.667-159.834 385.9-474.4 733.5-454C1162.5 224.001 1516 471 1631 552s639.5 541 1354.5 541" stroke="#295610" stroke-width="6"/><path d="M2310 1417.5c161.6-474.8 524-650.5 685-679v2558H3.5V1466l167-22.5c257.746-22.55 546 80.5 808.5 301 185.5 155.82 423.5 447.5 675.5 447.5 127.5 0 453.5-181 655.5-774.5Z" fill="#4E9125" stroke="#295610" stroke-width="6"/><path d="M2871 2471c60 0 108 9 124.5 13.5v1074h-2750c0-657.5-8-2009.6-8-2116 94-11.5 213 25 260 36.5 48.5 26 432.5 285 609.5 964.5s417 769.5 493 807 133 13.5 197.5-6.5c51.6-16 248.5-258 340.5-377 287.5-360.5 658-396 733-396Z" fill="#3D761A"/><path d="M2995 738.5c-161 28.5-523.4 204.2-685 679-202 593.5-528 774.5-655.5 774.5-252 0-490-291.68-675.5-447.5-262.5-220.5-550.754-323.55-808.5-301" stroke="#295610" stroke-width="6"/><path d="M1604.5 3269.5c269.2 0 497.83-116.33 583.5-174.5v797.5H-5V1366c443.5 31 794 670.5 905 1144 108.1 461.14 435.3 759.5 704.5 759.5Z" fill="#89C049"/><path d="M1290 3471c220-36.4 222.67-157.83 196.5-214 0 0 113 22 217.5 7s219.5-44.5 219.5-44.5L1436 3761l-313 75H-7v-820.34c56.964-24.81 129.62-40.66 221.5-40.66 480 0 732.5 552.75 1075.5 496Z" fill="#76A841"/><path d="M1604.5 3269.5c269.2 0 497.83-116.33 583.5-174.5v797.5H-5V1366c443.5 31 794 670.5 905 1144 108.1 461.14 435.3 759.5 704.5 759.5Z" stroke="#53792C" stroke-width="8"/><path d="M148.146 1978.8c2.674-16.06 7.98-49.59 7.824-55.14-.192-6.95-4.538-5.46-5.43-4.34-.882 1.13-10.15 25.08-13.769 50.67-3.608 25.59-6.152 55.17-3.03 59.75 2.494 3.67 10.644-32.43 14.405-50.94ZM191.382 1939.86c-2.515 13.09-8.388 39.95-11.74 42.72-4.19 3.45-7.584-9.51-1.967-40.02 5.634-30.6 10.917-49.82 17.497-48.5 6.58 1.33-1.661 35.36-3.79 45.8ZM220.262 2013.36c-7.127 4.03 4.929-28.05 8.687-36.66 3.758-8.62 12.997-25.39 18.088-30.44 5.09-5.04 11.512-11.56 10.926-4.37-.586 7.18-2.002 10.42-4.366 15.08-9.097 18.11-27.731 53.22-33.335 56.39ZM96.114 2022.03c-4.11 7.05-9.965-26.69-11.092-36.01-1.126-9.33-1.652-28.45.186-35.35 1.837-6.91 4.077-15.76 7.215-9.26 3.139 6.5 3.557 10 3.88 15.21 1.327 20.2 3.045 59.87-.19 65.41Z" fill="#346618"/><path d="M2092 3042.5c315.2-315.2 733-361 902.5-344.5v2253.5h-2506V3488c62.167-10.33 229 2.7 399 137.5s309.5 167.5 358 167c243.5 0 452.5-356 846.5-750Z" fill="#A3D441"/><path d="M891.5 3630c75.5 52.33 245.6 159 322 159 40 0 67.33 1 78.5 1 203.25 505.15 804.72 1133.97 1345.55 1151.68l13.95.32c-4.64-.06-9.29-.17-13.95-.32L891.5 4901.5V3630Z" fill="#76A841"/><path d="M2092 3042.5c315.2-315.2 733-361 902.5-344.5v2253.5h-2506V3528c62.167-10.33 229-37.3 399 97.5s309.5 167.5 358 167c243.5 0 452.5-356 846.5-750Z" stroke="#678821" stroke-width="10"/><path d="M-5 3545.5c50.333-46.17 197.1-138.5 381.5-138.5 149.83 0 305.153 19.44 514.856 230.1 114.114 113.59 243.134 282.54 393.644 533.4 455.77 752.63 1112 941 1704.5 612v540H-5v-1777Z" fill="#5DA235"/><path d="M2446 4937.5c203.5 0 427.5-86 548.5-159v547H-6V5043c61.333-13.5 216.6-32.4 347 0 163 40.5 502.5 61 667.5 70s457-58 550-89.5 357.5-112 487-112 237.91 26 400.5 26Z" fill="#4F8C2A"/><path d="M376.5 3407c-184.4 0-331.167 92.33-381.5 138.5v1777h2994.5v-540c-592.5 329-1248.73 140.63-1704.5-612M376.5 3407c230.5 0 474 46 908.5 763.5M376.5 3407c230.5 0 484 56 908.5 763.5" stroke="#295610" stroke-width="8"/><path d="M390.932 2708.71c1.618 5.32 5.379 39.04 7.056 55.23 1.275 18.84 2.981 55.78-.392 52.9-4.218-3.6-9.591-32.79-12.887-58.42-3.296-25.62-.707-51.15-.149-52.46.558-1.32 4.348-3.89 6.372 2.75Zm38.381 50.62c2.497-3.54 1.041-30.99 0-44.27-.711-10.63-1.783-45.6-8.469-45.16-6.687.45-6.687 20.36-4.012 51.36 2.666 30.89 9.361 42.5 12.481 38.07Zm45.915-18.6c-1.337 9.3-4.458 43.39 1.337 37.63 4.553-4.52 13.201-43.27 17.171-63.11 1.041-5.11 1.552-8.6.214-15.69-1.337-7.08-5.795.89-9.361 7.09-3.566 6.19-8.024 24.79-9.361 34.08Zm247.268-237.85c-1.783-4.6-1.934-22.58-1.784-30.99 0-10.75 1.784-24.79 5.796-29.66 5.182-6.29 4.457 7.97 4.457 16.38s-.445 34.09-2.229 42.94c-1.783 8.86-4.012 7.09-6.24 1.33Zm-29.421-7.97c-1.783-5.75-8.024-29.22-9.362-37.19-1.337-7.96-5.795-30.98-2.674-32.31 3.12-1.33 4.457.44 7.132 7.97 2.14 6.02 8.319 38.51 11.144 54.01 2.675 17.26-2.535 19.47-6.24 7.52ZM1464.07 3509.71c-1.62 5.32-5.38 39.04-7.06 55.23-1.27 18.83-2.98 55.78.39 52.9 4.22-3.6 9.6-32.79 12.89-58.42 3.3-25.62.71-51.15.15-52.47-.56-1.31-4.35-3.89-6.37 2.76Zm-38.38 50.61c-2.5-3.53-1.04-30.99 0-44.26.71-10.63 1.78-45.6 8.47-45.16 6.68.44 6.68 20.36 4.01 51.35-2.67 30.89-9.36 42.5-12.48 38.07Zm-45.92-18.59c1.34 9.3 4.46 43.38-1.34 37.63-4.55-4.52-13.2-43.27-17.17-63.11-1.04-5.12-1.55-8.61-.21-15.69s5.79.88 9.36 7.08c3.57 6.2 8.02 24.79 9.36 34.09Zm-247.27-237.85c1.79-4.61 1.94-22.58 1.79-30.99 0-10.75-1.79-24.79-5.8-29.66-5.18-6.29-4.46 7.97-4.46 16.38s.45 34.08 2.23 42.94c1.79 8.85 4.02 7.08 6.24 1.33Zm29.43-7.97c1.78-5.76 8.02-29.22 9.36-37.19 1.33-7.97 5.79-30.99 2.67-32.32-3.12-1.32-4.46.45-7.13 7.97-2.14 6.02-8.32 38.52-11.15 54.01-2.67 17.27 2.54 19.48 6.25 7.53ZM197.287 2388.89c.149 8.41 0 26.38-1.783 30.99-2.229 5.75-4.458 7.52-6.241-1.33-1.783-8.86-2.228-34.53-2.228-42.94 0-8.41-.724-22.67 4.457-16.38 4.012 4.87 5.795 18.91 5.795 29.66ZM234.285 2374.72c-1.337 7.97-7.578 31.43-9.361 37.19-3.702 11.95-8.915 9.74-6.241-7.53 2.824-15.49 9.005-47.99 11.145-54.01 2.674-7.52 4.012-9.29 7.132-7.97 3.12 1.33-1.337 24.35-2.675 32.32ZM566.078 4324.28c-.45 4.91-4.415 27.17-4.055 35.75.451 10.72 4.506 8.48 7.66-2.68 3.154-11.18 8.11-40.67 7.209-54.97-.901-14.3-8.561-20.56-9.011-13.41-.451 7.15-1.352 30.39-1.803 35.31ZM1049.35 3506.28c-.48 4.91-4.71 27.17-4.33 35.75.49 10.72 4.81 8.48 8.18-2.68 3.36-11.18 8.65-40.67 7.69-54.97-.97-14.3-9.14-20.56-9.62-13.41-.48 7.15-1.44 30.39-1.92 35.31ZM315.076 5173.06c.147 8.44 0 26.48-1.747 31.11-2.183 5.77-4.366 7.55-6.113-1.34-1.746-8.89-2.183-34.66-2.183-43.1 0-8.44-.704-22.75 4.366-16.44 3.93 4.89 5.677 18.98 5.677 29.77ZM351.316 5158.84c-1.31 8-7.423 31.55-9.169 37.33-3.63 12-8.733 9.77-6.113-7.56 2.767-15.55 8.82-48.17 10.916-54.21 2.619-7.55 3.929-9.33 6.986-7.99 3.056 1.33-1.31 24.43-2.62 32.43ZM1017.92 5213.63c-.14 8.54 0 26.8 1.75 31.48 2.18 5.84 4.37 7.65 6.11-1.35 1.75-9 2.19-35.08 2.19-43.62 0-8.55.7-23.03-4.37-16.64-3.93 4.95-5.68 19.21-5.68 30.13ZM981.684 5199.24c1.31 8.09 7.423 31.92 9.169 37.78 3.63 12.14 8.733 9.88 6.113-7.65-2.767-15.74-8.82-48.75-10.916-54.87-2.619-7.64-3.929-9.44-6.986-8.09-3.056 1.35 1.31 24.73 2.62 32.83ZM1310.72 4669.06c-.15 8.44 0 26.48 1.78 31.11 2.23 5.77 4.46 7.55 6.24-1.34 1.78-8.89 2.23-34.66 2.23-43.1 0-8.44.71-22.75-4.46-16.44-4.01 4.89-5.79 18.98-5.79 29.77ZM1273.76 4654.84c1.33 8 7.57 31.55 9.35 37.33 3.7 12 8.91 9.77 6.24-7.56-2.83-15.55-9-48.17-11.14-54.21-2.67-7.55-4.01-9.33-7.12-7.99-3.12 1.33 1.33 24.43 2.67 32.43ZM2518.72 5060.06c-.15 8.44 0 26.48 1.78 31.11 2.23 5.77 4.46 7.55 6.24-1.34 1.78-8.89 2.23-34.66 2.23-43.1 0-8.44.71-22.75-4.46-16.44-4.01 4.89-5.79 18.98-5.79 29.77ZM2481.76 5045.84c1.33 8 7.57 31.55 9.35 37.33 3.7 12 8.91 9.77 6.24-7.56-2.83-15.55-9-48.17-11.14-54.21-2.67-7.55-4.01-9.33-7.12-7.99-3.12 1.33 1.33 24.43 2.67 32.43ZM2881.52 3167.5c-.15 8.33 0 26.16 1.82 30.72 2.27 5.71 4.54 7.47 6.35-1.31 1.82-8.78 2.28-34.25 2.28-42.59 0-8.34.73-22.47-4.55-16.24-4.08 4.83-5.9 18.76-5.9 29.42ZM2843.83 3153.44c1.36 7.91 7.72 31.17 9.54 36.88 3.77 11.86 9.08 9.66 6.35-7.46-2.87-15.36-9.17-47.59-11.35-53.56-2.72-7.46-4.08-9.22-7.26-7.9-3.18 1.32 1.36 24.14 2.72 32.04ZM2127.72 4002.63c-.15 8.54 0 26.8 1.78 31.48 2.23 5.84 4.46 7.65 6.24-1.35 1.78-9 2.23-35.08 2.23-43.62 0-8.55.71-23.03-4.46-16.64-4.01 4.95-5.79 19.21-5.79 30.13ZM2090.76 3988.24c1.33 8.09 7.57 31.92 9.35 37.78 3.7 12.14 8.91 9.88 6.24-7.65-2.83-15.74-9-48.75-11.14-54.87-2.67-7.64-4.01-9.44-7.12-8.09-3.12 1.35 1.33 24.73 2.67 32.83ZM2906.72 4159.2c-.15 8.64 0 27.11 1.78 31.85 2.23 5.91 4.46 7.74 6.24-1.37 1.78-9.1 2.23-35.49 2.23-44.14 0-8.64.71-23.3-4.46-16.84-4.01 5.01-5.79 19.45-5.79 30.5ZM2869.76 4144.63c1.33 8.2 7.57 32.31 9.35 38.23 3.7 12.29 8.91 10.01 6.24-7.74-2.83-15.92-9-49.33-11.14-55.52-2.67-7.73-4.01-9.55-7.12-8.18-3.12 1.36 1.33 25.02 2.67 33.21ZM1877.28 4539.2c.15 8.64 0 27.11-1.78 31.85-2.23 5.91-4.46 7.74-6.24-1.37-1.78-9.1-2.23-35.49-2.23-44.14 0-8.64-.71-23.3 4.46-16.84 4.01 5.01 5.79 19.45 5.79 30.5ZM1914.24 4524.63c-1.33 8.2-7.57 32.31-9.35 38.23-3.7 12.29-8.91 10.01-6.24-7.74 2.83-15.92 9-49.33 11.14-55.52 2.67-7.73 4.01-9.55 7.12-8.18 3.12 1.36-1.33 25.02-2.67 33.21ZM2562.28 4815.2c.15 8.64 0 27.11-1.78 31.85-2.23 5.91-4.46 7.74-6.24-1.37-1.78-9.1-2.23-35.49-2.23-44.14 0-8.64-.71-23.3 4.46-16.84 4.01 5.01 5.79 19.45 5.79 30.5ZM2599.24 4800.63c-1.33 8.2-7.57 32.31-9.35 38.23-3.7 12.29-8.91 10.01-6.24-7.74 2.83-15.92 9-49.33 11.14-55.52 2.67-7.73 4.01-9.55 7.12-8.18 3.12 1.36-1.33 25.02-2.67 33.21ZM1331.28 4122.2c.15 8.64 0 27.11-1.78 31.85-2.23 5.91-4.46 7.74-6.24-1.37-1.78-9.1-2.23-35.49-2.23-44.14 0-8.64-.71-23.3 4.46-16.84 4.01 5.01 5.79 19.45 5.79 30.5ZM1368.24 4107.63c-1.33 8.2-7.57 32.31-9.35 38.23-3.7 12.29-8.91 10.01-6.24-7.74 2.83-15.92 9-49.33 11.14-55.52 2.67-7.73 4.01-9.55 7.12-8.18 3.12 1.36-1.33 25.02-2.67 33.21Z" fill="#346618"/><path d="M2787.28 2193.2c.15 8.64 0 27.11-1.78 31.85-2.23 5.91-4.46 7.74-6.24-1.37-1.78-9.1-2.23-35.49-2.23-44.14 0-8.64-.71-23.3 4.46-16.84 4.01 5.01 5.79 19.45 5.79 30.5ZM2824.24 2178.63c-1.33 8.2-7.57 32.31-9.35 38.23-3.7 12.29-8.91 10.01-6.24-7.74 2.83-15.92 9-49.33 11.14-55.52 2.67-7.73 4.01-9.55 7.12-8.18 3.12 1.36-1.33 25.02-2.67 33.21Z" fill="#235108"/><path d="M1883.28 1414.2c.15 8.64 0 27.11-1.78 31.85-2.23 5.91-4.46 7.74-6.24-1.37-1.78-9.1-2.23-35.49-2.23-44.14 0-8.64-.71-23.3 4.46-16.84 4.01 5.01 5.79 19.45 5.79 30.5ZM1920.24 1399.63c-1.33 8.2-7.57 32.31-9.35 38.23-3.7 12.29-8.91 10.01-6.24-7.74 2.83-15.92 9-49.33 11.14-55.52 2.67-7.73 4.01-9.55 7.12-8.18 3.12 1.36-1.33 25.02-2.67 33.21Z" fill="#346618"/><path d="M2184.28 1314.2c.15 8.64 0 27.11-1.78 31.85-2.23 5.91-4.46 7.74-6.24-1.37-1.78-9.1-2.23-35.49-2.23-44.14 0-8.64-.71-23.3 4.46-16.84 4.01 5.01 5.79 19.45 5.79 30.5ZM2221.24 1299.63c-1.33 8.2-7.57 32.31-9.35 38.23-3.7 12.29-8.91 10.01-6.24-7.74 2.83-15.92 9-49.33 11.14-55.52 2.67-7.73 4.01-9.55 7.12-8.18 3.12 1.36-1.33 25.02-2.67 33.21Z" fill="#295711"/><path d="M1106.72 1470.2c-.15 8.64 0 27.11 1.78 31.85 2.23 5.91 4.46 7.74 6.24-1.37 1.78-9.1 2.23-35.49 2.23-44.14 0-8.64.71-23.3-4.46-16.84-4.01 5.01-5.79 19.45-5.79 30.5ZM1069.76 1455.63c1.33 8.2 7.57 32.31 9.35 38.23 3.7 12.29 8.91 10.01 6.24-7.74-2.83-15.92-9-49.33-11.14-55.52-2.67-7.73-4.01-9.55-7.12-8.18-3.12 1.36 1.33 25.02 2.67 33.21ZM951.076 4107.06c.147 8.44 0 26.48-1.747 31.11-2.183 5.77-4.366 7.55-6.113-1.34-1.746-8.89-2.183-34.66-2.183-43.1 0-8.44-.704-22.75 4.366-16.44 3.93 4.89 5.677 18.98 5.677 29.77ZM987.316 4092.84c-1.31 8-7.423 31.55-9.169 37.33-3.63 12-8.733 9.77-6.113-7.56 2.767-15.55 8.82-48.17 10.916-54.21 2.619-7.55 3.929-9.33 6.986-7.99 3.056 1.33-1.31 24.43-2.62 32.43Z" fill="#346618"/><path d="M1646.08 3031.06c.14 8.44 0 26.48-1.75 31.11-2.18 5.77-4.37 7.55-6.11-1.34-1.75-8.89-2.19-34.66-2.19-43.1 0-8.44-.7-22.75 4.37-16.44 3.93 4.89 5.68 18.98 5.68 29.77ZM1682.32 3016.84c-1.31 8-7.43 31.55-9.17 37.33-3.63 12-8.74 9.77-6.12-7.56 2.77-15.55 8.82-48.17 10.92-54.21 2.62-7.55 3.93-9.33 6.99-7.99 3.05 1.33-1.31 24.43-2.62 32.43Z" fill="#235108"/><path d="M150.479 3705.06c.153 8.44 0 26.48-1.817 31.11-2.27 5.77-4.541 7.55-6.357-1.34-1.816-8.89-2.27-34.66-2.27-43.1 0-8.44-.733-22.75 4.54-16.44 4.087 4.89 5.904 18.98 5.904 29.77ZM188.169 3690.84c-1.363 8-7.72 31.55-9.536 37.33-3.775 12-9.082 9.77-6.358-7.56 2.878-15.55 9.173-48.17 11.353-54.21 2.724-7.55 4.086-9.33 7.265-7.99 3.179 1.33-1.362 24.43-2.724 32.43ZM1356.48 703.062c.15 8.441 0 26.48-1.82 31.104-2.27 5.776-4.54 7.556-6.35-1.335-1.82-8.886-2.28-34.66-2.28-43.101 0-8.441-.73-22.752 4.55-16.442 4.08 4.891 5.9 18.985 5.9 29.774ZM1394.17 688.84c-1.36 8.001-7.72 31.549-9.54 37.33-3.77 11.997-9.08 9.771-6.35-7.556 2.87-15.552 9.17-48.169 11.35-54.212 2.72-7.551 4.08-9.331 7.26-7.996 3.18 1.33-1.36 24.438-2.72 32.434ZM2014.72 3605.06c-.15 8.44 0 26.48 1.78 31.11 2.23 5.77 4.46 7.55 6.24-1.34 1.78-8.89 2.23-34.66 2.23-43.1 0-8.44.71-22.75-4.46-16.44-4.01 4.89-5.79 18.98-5.79 29.77ZM1977.76 3590.84c1.33 8 7.57 31.55 9.35 37.33 3.7 12 8.91 9.77 6.24-7.56-2.83-15.55-9-48.17-11.14-54.21-2.67-7.55-4.01-9.33-7.12-7.99-3.12 1.33 1.33 24.43 2.67 32.43ZM190.723 1042.06c-.151 8.44 0 26.48 1.781 31.11 2.227 5.77 4.454 7.55 6.235-1.34 1.782-8.89 2.227-34.66 2.227-43.1 0-8.44.718-22.75-4.453-16.44-4.009 4.89-5.79 18.98-5.79 29.77ZM153.758 1027.84c1.336 8 7.571 31.55 9.352 37.33 3.702 12 8.908 9.77 6.236-7.56-2.823-15.55-8.997-48.17-11.135-54.21-2.672-7.549-4.008-9.329-7.125-7.994-3.118 1.33 1.336 24.434 2.672 32.434Z" fill="#346618"/><path d="M1015.08 2409.06c.14 8.44 0 26.48-1.75 31.11-2.18 5.77-4.37 7.55-6.11-1.34-1.75-8.89-2.19-34.66-2.19-43.1 0-8.44-.7-22.75 4.37-16.44 3.93 4.89 5.68 18.98 5.68 29.77ZM1051.32 2394.84c-1.31 8-7.43 31.55-9.17 37.33-3.63 12-8.74 9.77-6.12-7.56 2.77-15.55 8.82-48.17 10.92-54.21 2.62-7.55 3.93-9.33 6.99-7.99 3.05 1.33-1.31 24.43-2.62 32.43ZM2159.08 2158.06c.14 8.44 0 26.48-1.75 31.11-2.18 5.77-4.37 7.55-6.11-1.34-1.75-8.89-2.19-34.66-2.19-43.1 0-8.44-.7-22.75 4.37-16.44 3.93 4.89 5.68 18.98 5.68 29.77ZM2195.32 2143.84c-1.31 8-7.43 31.55-9.17 37.33-3.63 12-8.74 9.77-6.12-7.56 2.77-15.55 8.82-48.17 10.92-54.21 2.62-7.55 3.93-9.33 6.99-7.99 3.05 1.33-1.31 24.43-2.62 32.43Z" fill="#235108"/><path d="M955.521 3167.06c-.153 8.44 0 26.48 1.817 31.11 2.27 5.77 4.541 7.55 6.357-1.34 1.816-8.89 2.27-34.66 2.27-43.1 0-8.44.733-22.75-4.54-16.44-4.087 4.89-5.904 18.98-5.904 29.77ZM917.831 3152.84c1.363 8 7.72 31.55 9.536 37.33 3.775 12 9.082 9.77 6.358-7.56-2.878-15.55-9.173-48.17-11.353-54.21-2.724-7.55-4.086-9.33-7.265-7.99-3.179 1.33 1.362 24.43 2.724 32.43Z" fill="#346618"/><path d="M982.521 2116.06c-.153 8.44 0 26.48 1.817 31.11 2.27 5.77 4.541 7.55 6.357-1.34 1.816-8.89 2.27-34.66 2.27-43.1 0-8.44.733-22.75-4.54-16.44-4.087 4.89-5.904 18.98-5.904 29.77ZM944.831 2101.84c1.363 8 7.72 31.55 9.536 37.33 3.775 12 9.082 9.77 6.358-7.56-2.878-15.55-9.173-48.17-11.353-54.21-2.724-7.55-4.086-9.33-7.265-7.99-3.179 1.33 1.362 24.43 2.724 32.43Z" fill="#235108"/><path d="M462.964 4740.62c-1.682-16.29-5.454-50.22-7.08-55.57-2.028-6.69-5.828-4.09-6.392-2.77-.554 1.32-3.146 27 .15 52.79 3.308 25.78 8.701 55.15 12.931 58.77 3.38 2.9 1.67-34.27.391-53.22ZM494.373 4691.44c1.045 13.36 2.503 40.97 0 44.54-3.129 4.45-9.846-7.23-12.517-38.31-2.682-31.18-2.682-51.22 4.023-51.67 6.706-.44 7.779 34.75 8.494 45.44ZM541.758 4755.13c-5.812 5.79-2.683-28.51-1.342-37.86 1.342-9.36 5.812-28.06 9.388-34.3 3.576-6.23 8.046-14.25 9.387-7.12 1.342 7.12.833 10.64-.212 15.78-3.978 19.97-12.651 58.95-17.221 63.5ZM1287.96 1131.62c-1.68-16.29-5.45-50.22-7.08-55.57-2.02-6.69-5.82-4.09-6.39-2.77-.55 1.32-3.14 27 .15 52.79 3.31 25.78 8.7 55.15 12.93 58.77 3.38 2.9 1.67-34.27.39-53.22ZM1319.37 1082.44c1.05 13.36 2.51 40.97 0 44.54-3.13 4.45-9.84-7.23-12.51-38.31-2.69-31.18-2.69-51.22 4.02-51.67 6.7-.44 7.78 34.75 8.49 45.44ZM1366.76 1146.13c-5.81 5.79-2.68-28.51-1.34-37.86 1.34-9.36 5.81-28.06 9.38-34.3 3.58-6.23 8.05-14.25 9.39-7.12 1.34 7.12.83 10.64-.21 15.78-3.98 19.97-12.65 58.95-17.22 63.5Z" fill="#346618"/><path d="M1940.96 1796.62c-1.68-16.29-5.45-50.22-7.08-55.57-2.02-6.69-5.82-4.09-6.39-2.77-.55 1.32-3.14 27 .15 52.79 3.31 25.78 8.7 55.15 12.93 58.77 3.38 2.9 1.67-34.27.39-53.22ZM1972.37 1747.44c1.05 13.36 2.51 40.97 0 44.54-3.13 4.45-9.84-7.23-12.51-38.31-2.69-31.18-2.69-51.22 4.02-51.67 6.7-.44 7.78 34.75 8.49 45.44ZM2019.76 1811.13c-5.81 5.79-2.68-28.51-1.34-37.86 1.34-9.36 5.81-28.06 9.38-34.3 3.58-6.23 8.05-14.25 9.39-7.12 1.34 7.12.83 10.64-.21 15.78-3.98 19.97-12.65 58.95-17.22 63.5Z" fill="#295711"/><path d="M1050.85 4949.43c-2.67-16.19-7.98-49.96-7.82-55.55.19-7 4.54-5.5 5.43-4.37.88 1.13 10.15 25.26 13.77 51.04 3.61 25.78 6.15 55.57 3.03 60.19-2.49 3.69-10.64-32.67-14.41-51.31ZM1007.62 4910.2c2.51 13.18 8.39 40.25 11.74 43.03 4.19 3.47 7.58-9.58 1.96-40.31-5.63-30.83-10.91-50.19-17.49-48.85-6.582 1.33 1.66 35.61 3.79 46.13ZM978.738 4984.23c7.127 4.06-4.929-28.24-8.687-36.93-3.758-8.68-12.997-25.57-18.088-30.65-5.09-5.08-11.512-11.65-10.926-4.41.586 7.24 2.002 10.5 4.366 15.2 9.097 18.23 27.731 53.61 33.335 56.79ZM1102.89 4992.97c4.11 7.11 9.96-26.88 11.09-36.28 1.12-9.39 1.65-28.65-.19-35.61-1.84-6.96-4.07-15.87-7.21-9.32-3.14 6.54-3.56 10.07-3.88 15.32-1.33 20.35-3.05 60.31.19 65.89ZM1449.15 1662.43c2.67-16.19 7.98-49.96 7.82-55.55-.19-7-4.54-5.5-5.43-4.37-.88 1.13-10.15 25.26-13.77 51.04-3.61 25.78-6.15 55.57-3.03 60.19 2.49 3.69 10.64-32.67 14.41-51.31ZM1492.38 1623.2c-2.51 13.18-8.39 40.25-11.74 43.03-4.19 3.47-7.58-9.58-1.96-40.31 5.63-30.83 10.91-50.19 17.49-48.85 6.58 1.33-1.66 35.61-3.79 46.13ZM1521.26 1697.23c-7.13 4.06 4.93-28.24 8.69-36.93 3.76-8.68 13-25.57 18.09-30.65 5.09-5.08 11.51-11.65 10.92-4.41-.58 7.24-2 10.5-4.36 15.2-9.1 18.23-27.73 53.61-33.34 56.79ZM1397.11 1705.97c-4.11 7.11-9.96-26.88-11.09-36.28-1.12-9.39-1.65-28.65.19-35.61 1.84-6.96 4.07-15.87 7.21-9.32 3.14 6.54 3.56 10.07 3.88 15.32 1.33 20.35 3.05 60.31-.19 65.89Z" fill="#346618"/><path d="M1623.15 2713.8c2.67-16.06 7.98-49.59 7.82-55.14-.19-6.95-4.54-5.46-5.43-4.34-.88 1.13-10.15 25.08-13.77 50.67-3.61 25.59-6.15 55.17-3.03 59.75 2.49 3.67 10.64-32.43 14.41-50.94ZM1666.38 2674.86c-2.51 13.09-8.39 39.95-11.74 42.72-4.19 3.45-7.58-9.51-1.96-40.02 5.63-30.6 10.91-49.82 17.49-48.5 6.58 1.33-1.66 35.36-3.79 45.8ZM1695.26 2748.36c-7.13 4.03 4.93-28.05 8.69-36.66 3.76-8.62 13-25.39 18.09-30.44 5.09-5.04 11.51-11.56 10.92-4.37-.58 7.18-2 10.42-4.36 15.08-9.1 18.11-27.73 53.22-33.34 56.39ZM1571.11 2757.03c-4.11 7.05-9.96-26.69-11.09-36.01-1.12-9.33-1.65-28.45.19-35.35 1.84-6.91 4.07-15.76 7.21-9.26 3.14 6.5 3.56 10 3.88 15.21 1.33 20.2 3.05 59.87-.19 65.41ZM2640.15 1860.8c2.67-16.06 7.98-49.59 7.82-55.14-.19-6.95-4.54-5.46-5.43-4.34-.88 1.13-10.15 25.08-13.77 50.67-3.61 25.59-6.15 55.17-3.03 59.75 2.49 3.67 10.64-32.43 14.41-50.94ZM2683.38 1821.86c-2.51 13.09-8.39 39.95-11.74 42.72-4.19 3.45-7.58-9.51-1.96-40.02 5.63-30.6 10.91-49.82 17.49-48.5 6.58 1.33-1.66 35.36-3.79 45.8ZM2712.26 1895.36c-7.13 4.03 4.93-28.05 8.69-36.66 3.76-8.62 13-25.39 18.09-30.44 5.09-5.04 11.51-11.56 10.92-4.37-.58 7.18-2 10.42-4.36 15.08-9.1 18.11-27.73 53.22-33.34 56.39ZM2588.11 1904.03c-4.11 7.05-9.96-26.69-11.09-36.01-1.12-9.33-1.65-28.45.19-35.35 1.84-6.91 4.07-15.76 7.21-9.26 3.14 6.5 3.56 10 3.88 15.21 1.33 20.2 3.05 59.87-.19 65.41Z" fill="#235108"/><path d="M1932.83 5196.98c-1.67-16.18-5.4-49.88-7.02-55.19-2.01-6.64-5.77-4.07-6.33-2.75-.55 1.31-3.12 26.81.15 52.42 3.28 25.61 8.62 54.78 12.81 58.38 3.35 2.88 1.66-34.04.39-52.86ZM1963.96 5148.13c1.03 13.27 2.48 40.7 0 44.24-3.1 4.42-9.76-7.18-12.41-38.05-2.65-30.97-2.65-50.87 3.99-51.32 6.65-.44 7.71 34.51 8.42 45.13ZM2010.92 5211.39c-5.76 5.75-2.66-28.31-1.33-37.6 1.33-9.29 5.76-27.87 9.31-34.07 3.54-6.19 7.97-14.15 9.3-7.08 1.33 7.08.82 10.57-.21 15.68-3.94 19.83-12.54 58.55-17.07 63.07ZM674.83 591.981c-1.667-16.184-5.405-49.877-7.016-55.192-2.011-6.643-5.776-4.066-6.336-2.754-.548 1.313-3.118 26.82.15 52.43 3.278 25.609 8.622 54.778 12.815 58.376 3.35 2.878 1.655-34.041.387-52.86ZM705.959 543.128c1.036 13.272 2.481 40.701 0 44.24-3.101 4.424-9.758-7.179-12.405-38.046-2.658-30.969-2.658-50.875 3.987-51.318 6.646-.442 7.709 34.507 8.418 45.124ZM752.92 606.39c-5.759 5.751-2.658-28.314-1.329-37.604s5.76-27.87 9.304-34.064c3.544-6.194 7.975-14.157 9.304-7.078 1.329 7.078.825 10.568-.211 15.68-3.943 19.829-12.537 58.548-17.068 63.066ZM2761.83 4558.98c-1.67-16.18-5.4-49.88-7.02-55.19-2.01-6.64-5.77-4.07-6.33-2.75-.55 1.31-3.12 26.81.15 52.42 3.28 25.61 8.62 54.78 12.81 58.38 3.35 2.88 1.66-34.04.39-52.86ZM2792.96 4510.13c1.03 13.27 2.48 40.7 0 44.24-3.1 4.42-9.76-7.18-12.41-38.05-2.65-30.97-2.65-50.87 3.99-51.32 6.65-.44 7.71 34.51 8.42 45.13ZM2839.92 4573.39c-5.76 5.75-2.66-28.31-1.33-37.6 1.33-9.29 5.76-27.87 9.31-34.07 3.54-6.19 7.97-14.15 9.3-7.08 1.33 7.08.82 10.57-.21 15.68-3.94 19.83-12.54 58.55-17.07 63.07ZM2298.17 4510.98c1.67-16.18 5.4-49.88 7.02-55.19 2.01-6.64 5.77-4.07 6.33-2.75.55 1.31 3.12 26.81-.15 52.42-3.28 25.61-8.62 54.78-12.81 58.38-3.35 2.88-1.66-34.04-.39-52.86ZM2267.04 4462.13c-1.03 13.27-2.48 40.7 0 44.24 3.1 4.42 9.76-7.18 12.41-38.05 2.65-30.97 2.65-50.87-3.99-51.32-6.65-.44-7.71 34.51-8.42 45.13ZM2220.08 4525.39c5.76 5.75 2.66-28.31 1.33-37.6-1.33-9.29-5.76-27.87-9.31-34.07-3.54-6.19-7.97-14.15-9.3-7.08-1.33 7.08-.82 10.57.21 15.68 3.94 19.83 12.54 58.55 17.07 63.07ZM2010.17 1039.98c1.67-16.18 5.4-49.876 7.02-55.191 2.01-6.643 5.77-4.066 6.33-2.754.55 1.313 3.12 26.815-.15 52.425-3.28 25.61-8.62 54.78-12.81 58.38-3.35 2.88-1.66-34.04-.39-52.86ZM1979.04 991.128c-1.03 13.272-2.48 40.702 0 44.242 3.1 4.42 9.76-7.18 12.41-38.048 2.65-30.969 2.65-50.875-3.99-51.318-6.65-.442-7.71 34.507-8.42 45.124ZM1932.08 1054.39c5.76 5.75 2.66-28.31 1.33-37.6-1.33-9.29-5.76-27.874-9.31-34.068-3.54-6.194-7.97-14.157-9.3-7.078-1.33 7.078-.82 10.568.21 15.68 3.94 19.826 12.54 58.546 17.07 63.066ZM2466.96 3743.34c-1.68-16.07-5.45-49.54-7.08-54.81-2.02-6.6-5.82-4.04-6.39-2.74-.55 1.3-3.14 26.64.15 52.07 3.31 25.44 8.7 54.41 12.93 57.98 3.38 2.86 1.67-33.81.39-52.5ZM2498.37 3694.82c1.05 13.18 2.51 40.42 0 43.94-3.13 4.39-9.84-7.13-12.51-37.79-2.69-30.76-2.69-50.53 4.02-50.97 6.7-.44 7.78 34.28 8.49 44.82ZM2545.76 3757.65c-5.81 5.71-2.68-28.12-1.34-37.35 1.34-9.22 5.81-27.68 9.38-33.83 3.58-6.15 8.05-14.06 9.39-7.03 1.34 7.03.83 10.5-.21 15.58-3.98 19.69-12.65 58.15-17.22 62.63Z" fill="#346618"/><path d="M1121.96 2824.34c-1.68-16.07-5.45-49.54-7.08-54.81-2.02-6.6-5.82-4.04-6.39-2.74-.55 1.3-3.14 26.64.15 52.07 3.31 25.44 8.7 54.41 12.93 57.98 3.38 2.86 1.67-33.81.39-52.5ZM1153.37 2775.82c1.05 13.18 2.51 40.42 0 43.94-3.13 4.39-9.84-7.13-12.51-37.79-2.69-30.76-2.69-50.53 4.02-50.97 6.7-.44 7.78 34.28 8.49 44.82ZM1200.76 2838.65c-5.81 5.71-2.68-28.12-1.34-37.35 1.34-9.22 5.81-27.68 9.38-33.83 3.58-6.15 8.05-14.06 9.39-7.03 1.34 7.03.83 10.5-.21 15.58-3.98 19.69-12.65 58.15-17.22 62.63Z" fill="#235108"/><path d="M206.83 4036.98c-1.667-16.18-5.405-49.88-7.016-55.19-2.011-6.64-5.776-4.07-6.336-2.75-.548 1.31-3.118 26.81.15 52.42 3.278 25.61 8.622 54.78 12.815 58.38 3.35 2.88 1.655-34.04.387-52.86ZM237.959 3988.13c1.036 13.27 2.481 40.7 0 44.24-3.101 4.42-9.758-7.18-12.405-38.05-2.658-30.97-2.658-50.87 3.987-51.32 6.646-.44 7.709 34.51 8.418 45.13ZM284.92 4051.39c-5.759 5.75-2.658-28.31-1.329-37.6 1.329-9.29 5.76-27.87 9.304-34.07 3.544-6.19 7.975-14.15 9.304-7.08 1.329 7.08.825 10.57-.211 15.68-3.943 19.83-12.537 58.55-17.068 63.07Z" fill="#346618"/><path d="M1361.83 2361.98c-1.67-16.18-5.4-49.88-7.02-55.19-2.01-6.64-5.77-4.07-6.33-2.75-.55 1.31-3.12 26.81.15 52.42 3.28 25.61 8.62 54.78 12.81 58.38 3.35 2.88 1.66-34.04.39-52.86ZM1392.96 2313.13c1.03 13.27 2.48 40.7 0 44.24-3.1 4.42-9.76-7.18-12.41-38.05-2.65-30.97-2.65-50.87 3.99-51.32 6.65-.44 7.71 34.51 8.42 45.13ZM1439.92 2376.39c-5.76 5.75-2.66-28.31-1.33-37.6 1.33-9.29 5.76-27.87 9.31-34.07 3.54-6.19 7.97-14.15 9.3-7.08 1.33 7.08.82 10.57-.21 15.68-3.94 19.83-12.54 58.55-17.07 63.07Z" fill="#235108"/><path d="M177.17 3243.62c1.667-16.29 5.405-50.22 7.016-55.57 2.011-6.69 5.776-4.09 6.336-2.77.548 1.32 3.118 27-.15 52.79-3.278 25.78-8.622 55.15-12.815 58.77-3.35 2.9-1.655-34.27-.387-53.22ZM146.041 3194.44c-1.036 13.36-2.481 40.97 0 44.54 3.101 4.45 9.758-7.23 12.405-38.31 2.658-31.18 2.658-51.22-3.987-51.67-6.646-.44-7.709 34.75-8.418 45.44ZM99.08 3258.13c5.759 5.79 2.658-28.51 1.329-37.86-1.33-9.36-5.76-28.06-9.304-34.3-3.544-6.23-7.975-14.25-9.304-7.12-1.329 7.12-.825 10.64.21 15.78 3.944 19.97 12.538 58.95 17.069 63.5ZM1654.3 4872.34c1.66-16.07 5.36-49.54 6.96-54.81 1.99-6.6 5.72-4.04 6.28-2.74.54 1.3 3.08 26.64-.15 52.07-3.25 25.44-8.55 54.41-12.7 57.98-3.32 2.86-1.64-33.81-.39-52.5ZM1623.46 4823.82c-1.03 13.18-2.46 40.42 0 43.94 3.07 4.39 9.67-7.13 12.29-37.79 2.63-30.76 2.63-50.53-3.95-50.97-6.59-.44-7.64 34.28-8.34 44.82ZM1576.92 4886.65c5.7 5.71 2.63-28.12 1.31-37.35-1.31-9.22-5.7-27.68-9.22-33.83-3.51-6.15-7.9-14.06-9.22-7.03-1.31 7.03-.81 10.5.21 15.58 3.91 19.69 12.43 58.15 16.92 62.63ZM2824.96 5196.98c-1.68-16.18-5.45-49.88-7.08-55.19-2.02-6.64-5.82-4.07-6.39-2.75-.55 1.31-3.14 26.81.15 52.42 3.31 25.61 8.7 54.78 12.93 58.38 3.38 2.88 1.67-34.04.39-52.86ZM2856.37 5148.13c1.05 13.27 2.51 40.7 0 44.24-3.13 4.42-9.84-7.18-12.51-38.05-2.69-30.97-2.69-50.87 4.02-51.32 6.7-.44 7.78 34.51 8.49 45.13ZM2903.76 5211.39c-5.81 5.75-2.68-28.31-1.34-37.6 1.34-9.29 5.81-27.87 9.38-34.07 3.58-6.19 8.05-14.15 9.39-7.08 1.34 7.08.83 10.57-.21 15.68-3.98 19.83-12.65 58.55-17.22 63.07ZM920.535 4423.8c-.391 4.86-3.827 26.84-3.515 35.31.391 10.59 3.905 8.39 6.639-2.65 2.733-11.03 7.029-40.16 6.248-54.28-.781-14.13-7.42-20.31-7.811-13.24-.39 7.06-1.171 30.01-1.561 34.86ZM1448.35 5167.28c-.48 4.91-4.71 27.16-4.33 35.75.49 10.72 4.81 8.49 8.18-2.69 3.36-11.17 8.65-40.66 7.69-54.96-.97-14.3-9.14-20.56-9.62-13.41-.48 7.15-1.44 30.39-1.92 35.31ZM1618.08 3793.28c-.45 4.91-4.42 27.16-4.06 35.75.45 10.72 4.51 8.49 7.66-2.69 3.16-11.17 8.11-40.66 7.21-54.96-.9-14.3-8.56-20.56-9.01-13.41-.45 7.15-1.35 30.39-1.8 35.31ZM465.078 2149.28c-.45 4.91-4.415 27.16-4.055 35.75.451 10.72 4.506 8.49 7.66-2.69 3.154-11.17 8.11-40.66 7.209-54.96-.901-14.3-8.561-20.56-9.011-13.41-.451 7.15-1.352 30.39-1.803 35.31ZM2574.19 4151.8c.42 4.86 4.12 26.84 3.79 35.31-.42 10.59-4.21 8.39-7.15-2.65-2.94-11.03-7.57-40.16-6.73-54.28.84-14.13 7.99-20.31 8.41-13.24.42 7.06 1.26 30.01 1.68 34.86ZM2184.19 3294.8c.42 4.86 4.12 26.84 3.79 35.31-.42 10.59-4.21 8.39-7.15-2.65-2.94-11.03-7.57-40.16-6.73-54.28.84-14.13 7.99-20.31 8.41-13.24.42 7.06 1.26 30.01 1.68 34.86ZM1970.19 2340.8c.42 4.86 4.12 26.84 3.79 35.31-.42 10.59-4.21 8.39-7.15-2.65-2.94-11.03-7.57-40.16-6.73-54.28.84-14.13 7.99-20.31 8.41-13.24.42 7.06 1.26 30.01 1.68 34.86ZM970.194 937.804c.42 4.852 4.121 26.833 3.784 35.311-.42 10.589-4.205 8.384-7.149-2.653-2.944-11.032-7.57-40.163-6.728-54.285.841-14.126 7.99-20.305 8.411-13.242.42 7.063 1.261 30.011 1.682 34.869ZM1910.19 1841.8c.42 4.86 4.12 26.84 3.79 35.31-.42 10.59-4.21 8.39-7.15-2.65-2.94-11.03-7.57-40.16-6.73-54.28.84-14.13 7.99-20.31 8.41-13.24.42 7.06 1.26 30.01 1.68 34.86ZM299.194 682.804c.42 4.852 4.121 26.833 3.784 35.311-.42 10.589-4.205 8.384-7.149-2.653-2.944-11.032-7.57-40.163-6.728-54.285.841-14.126 7.99-20.305 8.411-13.242.42 7.063 1.261 30.011 1.682 34.869ZM133.194 1574.8c.42 4.86 4.121 26.84 3.784 35.31-.42 10.59-4.205 8.39-7.149-2.65-2.944-11.03-7.57-40.16-6.728-54.28.841-14.13 7.99-20.31 8.411-13.24.42 7.06 1.261 30.01 1.682 34.86ZM2739.81 2914.8c-.42 4.86-4.12 26.84-3.79 35.31.42 10.59 4.21 8.39 7.15-2.65 2.94-11.03 7.57-40.16 6.73-54.28-.84-14.13-7.99-20.31-8.41-13.24-.42 7.06-1.26 30.01-1.68 34.86ZM2328.92 5207.8c.45 4.86 4.42 26.84 4.06 35.31-.45 10.59-4.51 8.39-7.66-2.65-3.16-11.03-8.11-40.16-7.21-54.28.9-14.13 8.56-20.31 9.01-13.24.45 7.06 1.35 30.01 1.8 34.86ZM2902.92 3615.28c.45 4.91 4.42 27.16 4.06 35.75-.45 10.72-4.51 8.49-7.66-2.69-3.16-11.17-8.11-40.66-7.21-54.96.9-14.3 8.56-20.56 9.01-13.41.45 7.15 1.35 30.39 1.8 35.31ZM1818.81 4181.75c-.42 4.97-4.12 27.5-3.79 36.19.42 10.86 4.21 8.6 7.15-2.72 2.94-11.3 7.57-41.16 6.73-55.64-.84-14.48-7.99-20.81-8.41-13.57-.42 7.24-1.26 30.76-1.68 35.74ZM1632.19 4475.75c.42 4.97 4.12 27.5 3.79 36.19-.42 10.86-4.21 8.6-7.15-2.72-2.94-11.3-7.57-41.16-6.73-55.64.84-14.48 7.99-20.81 8.41-13.57.42 7.24 1.26 30.76 1.68 35.74ZM670.194 5214.8c.42 4.86 4.121 26.84 3.784 35.31-.42 10.59-4.205 8.39-7.149-2.65-2.944-11.03-7.57-40.16-6.728-54.28.841-14.13 7.99-20.31 8.411-13.24.42 7.06 1.261 30.01 1.682 34.86ZM156.076 4575.63c.147 8.54 0 26.8-1.747 31.48-2.183 5.84-4.366 7.64-6.113-1.35-1.746-9-2.183-35.08-2.183-43.62 0-8.55-.704-23.03 4.367-16.64 3.929 4.95 5.676 19.21 5.676 30.13ZM192.316 4561.24c-1.31 8.09-7.423 31.93-9.169 37.77-3.63 12.15-8.733 9.9-6.113-7.64 2.767-15.74 8.82-48.75 10.916-54.87 2.619-7.64 3.929-9.44 6.986-8.09 3.056 1.35-1.31 24.73-2.62 32.83Z" fill="#346618"/></g><defs><clipPath id="a"><path fill="#fff" d="M0 0h2979v5316H0z"/></clipPath></defs></svg>