<svg width="256" height="245" fill="none" xmlns="http://www.w3.org/2000/svg"><path d="M234.549 92.182c1.135.092 2.267.239 3.399.365 1.969.051 3.904.428 5.881.62a124.12 124.12 0 0 1-3.834-3.497c-1.735-1.666-3.308-3.468-4.362-5.648-.861-1.785-.685-3.488.589-5.063.475-.586 1.091-1.007 1.752-1.588-.318 0-.481-.012-.642.001-1.726.14-3.449.33-5.176.413-3.607.175-7.216.36-10.826.42-9.699.16-19.397.093-29.094-.148-2.315-.06-4.636-.071-6.946-.307-.752.013-1.504.018-2.256.043l-.075-2.182c-.125-.788-.229-1.581-.38-2.365-.343-1.77-2.397-8.713-2.967-10.411-.436-.19-7-6.685-9.232-6.278-3.441-2.113-7.068-3.858-10.779-5.436-5.752-2.447-11.753-3.914-17.985-4.33-5.34-.358-10.558.45-15.672 1.987-5.737 1.725-10.796 4.715-15.573 8.261-4.301 3.193-7.517 7.205-9.539 12.174a48.506 48.506 0 0 0-3.514 15.47c-.087 1.424-.075 2.879-.707 4.228-.296.63-.705.998-1.422 1.09-3.399.431-6.602 1.527-9.667 3.018-4.969 2.416-9.115 5.924-12.832 9.951-4.542 4.919-8.008 10.569-10.992 16.527-3.15 6.291-5.302 12.943-7.017 19.745-1.481 5.874-2.326 11.85-2.81 17.884a225.396 225.396 0 0 0-.698 14.759c-.055 3.883.172 7.757.311 11.633.062 1.729.178 3.458.3 5.184.225 3.136.444 6.273.718 9.404.231 2.644-2.113 4.048-2.648 3.92-.835-.201-1.609-.577-2.348-1.011-5.542-3.244-9.485-7.889-12.06-13.74-2.427-5.518-3.276-11.356-3.452-17.314-.1-3.378.299-6.735.734-10.086a83.977 83.977 0 0 1 2.477-12.111c1.714-6.038 3.877-11.93 5.77-17.912 1.856-5.857 3.78-11.695 4.521-17.831.252-2.084.375-4.179.324-6.276-.051-2.097-.306-4.176-.646-6.248-.141-.86-.442-1.583-1.008-2.217-1.202-1.348-2.395-2.702-3.615-4.034-.603-.658-1.106-1.413-1.955-2.063 0 .917-.023 1.708.005 2.498.124 3.514.133 7.029.066 10.544-.01.512-.143 1.016-.65 1.319-.757.453-1.493.267-2.042-.609-2.066-3.286-4.113-6.581-6.167-9.874-.647-1.037-1.292-2.075-2.013-3.235-.203 2.715-.354 5.241-.587 7.759-.283 3.055-.633 6.106-.96 9.156-.307 2.859-.603 5.718-.939 8.572-.406 3.46-.837 6.915-1.278 10.371-.145 1.134-.182 2.287-.49 3.396-.296 1.065-1.447 1.501-2.229.863-.287-.234-.469-.561-.636-.886-1.875-3.648-3.501-7.409-5.155-11.159-.475-1.077-.934-2.161-1.459-3.377-.13.311-.2.46-.256.614-3.417 9.318-6.783 18.655-9.892 28.081a4.398 4.398 0 0 0-.239 1.581c.17 3.775.458 7.538.99 11.282.789 5.537 1.968 10.985 3.726 16.295 2.37 7.161 5.442 14.003 9.55 20.353 4.442 6.868 9.58 13.118 16.098 18.153 5.991 4.627 12.681 7.518 20.241 8.317.17.017.371.091.49-.043.132-.151 4.234 2.216 6.895 4.594 4.427 3.954 9.491 6.673 15.12 8.367 5.607 1.687 11.423 1.964 17.224 2.182 3.807.143 7.608-.186 11.396-.573 2.126-.217 4.15-.783 6.021-1.899 2.715-1.619 4.91-3.773 6.743-6.308 4.098-5.668 12.2-15.424 12.219-15.075.087 1.679 1.104 24.117 1.113 28.292.003 1.453.191 1.619 1.632 1.739.122.01.245.005.366.012 3.817.208 7.61-.226 11.405-.484a417.46 417.46 0 0 1 12.348-.653c4.614-.178 9.23.261 13.841-.05 1.897-.127 3.795-.302 5.598-.982.716-.269 1.391-.605 1.906-1.188.384-.435 2.309-4.203 2.752-4.752.875-1.092.639-1.256.648-2.644.015-2.258-3.859-5.181-4.307-5.427-1.71-.938-3.591-1.254-5.497-1.358a54.01 54.01 0 0 0-7.173.099c-3.406.268-4.311-2.129-4.365-2.519-.465-3.329-2.359-24.192-2.516-26.478-.233-3.379-.476-6.758-.705-10.138-.166-2.446-.289-4.896-.477-7.34a454.96 454.96 0 0 1-.72-11.616 516.26 516.26 0 0 0-.291-5.276c-.232-3.82-.478-7.64-.711-11.459-.159-2.579-.272-5.162-.467-7.738-.315-4.184 2.175-5.699 2.789-5.823a27.237 27.237 0 0 0 6.224-2.094c4.627-2.191 8.083-5.652 10.828-9.893 2.11-3.26 3.58-6.818 4.822-10.477.653-1.919 1.175-3.867 1.188-5.924.004-.604-.207-.856-.765-1.023-1.332-.4-2.641-.876-3.965-1.305-2.553-.827-5.116-1.624-7.661-2.472-.906-.302-1.233-.926-.978-1.599.271-.715.855-.933 1.762-.648 1.676.528 3.351 1.055 5.024 1.589 5.948 1.894 11.826 4.007 17.839 5.706 8.088 2.284 16.329 3.588 24.714 3.974 3.192.146 6.39.243 9.591.06 2.438-.14 4.866-.33 7.267-.777 1.438-.268 2.866-.611 4.165-1.326.677-.372.669-.573.015-1.007-.678-.45-1.452-.688-2.184-1.023-4.565-1.472-9.278-2.269-14.014-2.869-7.886-.997-15.645-2.722-23.493-3.943-4.477-.696-8.888-1.724-13.278-2.84-4.158-1.056-8.275-2.258-12.395-3.453-1.638-.475-3.23-1.098-4.906-1.457-.586-.126-.992-.561-.937-1.225.05-.586.62-1 1.292-.888 1.34.226 2.67.075 4.009.024 4.608-.172 9.216-.326 13.824-.455 4.197-.117 8.393-.187 12.589-.285 3.466-.082 6.933-.05 10.399-.12 3.219-.066 6.442.061 9.665.112" fill="#283996"/><path d="M144.921 57.716c-7.191-.359-13.497 5.78-13.566 12.876-.069 7.064 5.524 12.837 12.498 12.906 7.501.074 13.669-5.767 13.778-12.996.11-7.306-6.021-13.03-12.71-12.787v.001Zm-.466 24.02c-6.253-.033-11.391-5.037-11.359-11.067.033-6.227 5.163-11.199 11.504-11.149 6.359.051 11.425 5.079 11.372 11.287-.051 6.02-5.256 10.96-11.515 10.927l-.002.002ZM138.043 54.49c1.252-.514 2.509-.937 3.871-.987.279-.01.519-.121.761-.24.353-.174.601-.404.569-.844-.034-.467-.336-.693-.729-.813-.614-.188-1.249-.242-1.879-.107-3.685.79-6.915 2.476-9.698 5.002-2.493 2.264-4.11 5.119-5.397 8.183-.132.312-.245.64-.211.94 0 .56.158.988.68 1.143.504.151.862-.142 1.084-.546.352-.64.681-1.296.969-1.965 1.988-4.625 5.322-7.857 9.979-9.767l.001.002Z" fill="#060319"/><path d="M150.843 84.5c-3.347 3.334-8.989 3.945-12.968 1.41-1.304-.83-2.512-1.758-3.416-3.039-.345-.488-.811-.708-1.392-.352-.479.295-.626.899-.343 1.485.106.217.238.43.399.61 2.74 3.06 6.054 4.937 10.26 4.943a9.684 9.684 0 0 0 3.049-.335c2.244-.61 4.284-1.624 5.932-3.299.573-.583.578-1.29.141-1.688-.477-.433-1.053-.341-1.662.265Z" fill="#060319"/><path d="M202.197 89.947c.206-.075.401-.182.594-.286 1.441-.77 2.887-1.534 4.32-2.321 2.18-1.197 4.401-2.323 6.534-3.606.411-.248.669-.554.697-1.055-.047-.373-.201-.66-.61-.805-.479-.17-.864.044-1.246.246-3.235 1.71-6.466 3.428-9.695 5.15-.538.287-1.088.562-1.579.917-.449.324-.661.801-.345 1.345.307.526.786.612 1.33.416v-.001Z" fill="#020203"/><path d="M251.112 74.264a13.9 13.9 0 0 0-2.837-.274c-2.641.035-5.257.389-7.878.65-1.264.126-2.527.256-3.959.401.321-.368.499-.596.702-.8 2.714-2.704 5.378-5.457 8.267-7.98.296-.26.554-.551.752-.891.365-.629.299-1.181-.175-1.553-.495-.389-1.164-.343-1.662.129-1.664 1.576-3.364 3.12-4.976 4.749-2.058 2.078-4.314 3.974-5.996 6.402-.129.186-.306.21-.506.224-1.365.083-2.73.163-4.093.264-.442.032-.568-.082-.404-.523.402-1.072.756-2.162 1.16-3.233.568-1.505 1.216-2.975 2.013-4.377.45-.791.329-1.45-.255-1.81-.548-.337-1.267-.106-1.75.595-.248.36-.468.745-.66 1.138-1.21 2.479-2.232 5.033-2.963 7.694-.128.464-.279.678-.817.67-1.318-.02-2.638.029-3.954.087-.474.02-.688-.096-.779-.599-.456-2.517-.955-5.029-1.435-7.542-.08-.412-.179-.813-.459-1.138-.308-.358-.67-.524-1.165-.368-.475.148-.724.432-.796.92-.06.4.027.778.099 1.159.45 2.37.9 4.742 1.368 7.11.073.373.027.535-.401.519-.535-.022-1.964.162-2.155.162-2.856.002-28.678-.37-28.908-.568-.519-.118-.78.055-1.29-.145-.315-.261-.312-.49-.371-.881.054-.312-.443-2.99-.691-3.876-.81-2.887-1.881-5.654-3.809-8.012-1.762-2.559-2.585-3.181-4.532-4.862-.383-.314-.52-.742-.564-1.213-.049-.535-.116-1.069-.147-1.605-.336-5.728-.974-11.426-1.683-17.116-.788-6.319-1.832-12.599-3.044-18.85-.771-3.972-1.472-7.964-2.787-11.807-.691-2.017-1.528-3.954-3.043-5.53-1.676-1.741-3.668-2.065-5.774-.881-.95.535-1.737 1.26-2.412 2.108-1.19 1.498-2.143 3.15-2.958 4.87-5.509 11.614-9.726 23.704-13.22 36.056-.11.39-.17.642-.684.63-3.063-.076-6.095.234-9.092.868-.341.072-.533-.017-.726-.303-.562-.828-1.114-1.659-1.548-2.565-3.276-6.835-6.534-13.678-9.837-20.5-2.053-4.24-4.255-8.401-7.038-12.22-1.157-1.588-2.526-2.979-4.267-3.952-1.572-.878-3.071-.79-4.507.317-1.343 1.034-2.161 2.432-2.772 3.97-1.27 3.194-1.65 6.565-1.893 9.95-.635 8.79-.18 17.57.34 26.346.26 4.41.614 8.813.951 13.218.14 1.824.3 3.65.547 5.46.08.59.034 1.056-.21 1.59-2.156 4.684-3.62 9.568-4.162 14.708-.204 1.94-.383 3.884-.57 5.826-.035.359-.087.62-.565.684-3.297.44-6.404 1.539-9.373 2.978-6.403 3.103-11.614 7.704-16.04 13.204-6.091 7.568-10.478 16.071-13.582 25.253-2.545 7.532-4.355 15.229-5.2 23.146a211.61 211.61 0 0 0-.908 11.676 171.421 171.421 0 0 0-.01 17.425 540.43 540.43 0 0 0 1.09 16.804c.035.425.305 1.082.01 1.233-.394.202-.888-.253-1.304-.493-4.383-2.532-7.746-6.043-10.114-10.516-3.334-6.3-4.378-13.108-4.277-20.11.092-6.342 1.142-12.577 2.767-18.708 1.61-6.082 3.813-11.979 5.72-17.969 2.026-6.364 4.18-12.697 4.968-19.376.431-3.648.475-7.301.01-10.956-.6-4.718-2.15-9.142-4.1-13.446C38.71 76.7 30.94 67.6 21.627 59.714c-4.113-3.482-8.7-6.285-13.225-9.172-2.081-1.327-4.217-2.545-6.512-3.465-.548-.22-1.123-.407-1.611.157-.513.592-.214 1.125.113 1.66.394.643.824 1.267 1.176 1.933C5.54 58.33 8.545 66.22 10.932 74.354c.091.309.279.615.141 1.14-.233-.28-.39-.493-.572-.682-2.033-2.107-3.99-4.291-6.117-6.308-.547-.519-1.08-1.07-1.815-1.335-.877-.315-1.405.008-1.582.91-.112.569-.022 1.127.059 1.672.667 4.496.969 9.024 1.25 13.551.543 8.712.362 17.429-.019 26.139-.343 7.852-.928 15.695-1.051 23.557-.123 7.913-.136 15.824.84 23.694 1.059 8.534 3.135 16.811 6.399 24.783 4.819 11.771 11.594 22.203 21.078 30.769 4.966 4.485 10.555 7.939 17.034 9.829 3.147.919 6.32 1.659 9.63 1.546.213-.007.305.116.408.251 1.363 1.773 3.02 3.247 4.717 4.687 5.448 4.628 11.753 7.491 18.73 8.791 6.648 1.236 13.378 1.614 20.139 1.189 2.777-.174 5.577-.233 8.285-.933 4.205-1.086 7.466-3.638 10.201-6.9 3.494-4.169 6.183-8.884 9.018-13.499.122-.199.171-.457.475-.599.021.293.047.555.058.818.294 7.83.591 15.663.881 23.493.098 2.633 1.083 3.681 3.718 3.924.219.021.439.024.658.034 4.678.22 9.318-.391 13.972-.662 5.758-.337 11.514-.626 17.284-.447 3.129.096 6.255.058 9.36-.38 2.095-.294 4.143-.757 5.8-2.201 1.006-.876 1.679-1.918 1.313-3.338-.1-.388.171-.458.392-.584 1.056-.6 1.819-1.467 2.327-2.557.758-1.625.467-3.083-.832-4.33-.193-.185-.468-.312-.588-.698.856 0 1.636.006 2.416 0 3.517-.032 7.038.008 10.543-.351 1.824-.188 3.642-.423 5.333-1.193 2.689-1.227 3.081-3.624.938-5.667-.158-.151-.316-.318-.507-.417-.507-.267-.519-.497-.147-.96 2.075-2.58 1.606-5.513-1.139-7.378-.856-.582-1.8-.965-2.786-1.266-3.982-1.215-8.009-.974-12.047-.374-1.194.178-2.383.392-3.635.598.054-.219.08-.337.113-.451.978-3.496 2.136-6.941 2.92-10.495 1.32-5.981 2.031-11.971.81-18.067-.701-3.5-1.771-6.846-3.826-9.806-1.955-2.818-4.721-4.06-8.099-3.996-.5.009-.629-.129-.655-.578-.257-4.459-.654-8.908-1.063-13.355-.349-3.791-.73-7.577-1.119-11.364a1256.77 1256.77 0 0 0-1.085-10.042c-.048-.436.069-.709.437-.974.95-.689 1.799-1.497 2.605-2.352 3.921-4.152 6.594-9.042 8.528-14.372.916-2.524 1.819-5.058 1.916-7.777.025-.708.211-.704.788-.51a143.059 143.059 0 0 0 13.087 3.714c6.032 1.4 12.146 2.2 18.328 2.54 5.911.325 11.816.43 17.691-.482 2.127-.332 4.236-.773 6.12-1.882 2.212-1.303 2.293-3.411.18-4.835-1.324-.891-2.802-1.466-4.356-1.835-.969-.407-1.996-.618-3.015-.843-6.606-1.449-13.339-2.151-19.985-3.371-4.443-.816-8.937-1.287-13.396-2.002-7.722-1.237-15.261-3.245-22.754-5.444-.215-.063-.468-.058-.638-.313 6.063-.24 12.094-.4 18.126-.53.36-.006.513.149.649.446.506 1.111 1.041 2.207 1.782 3.186 1.186 1.568 2.59 1.893 4.382 1.05 1.107-.523 1.974-1.339 2.77-2.241.693-.787 1.347-1.61 2.07-2.368.503-.528 1.113-.371 1.415.28a27.886 27.886 0 0 0 1.994 3.573c1.126 1.715 2.887 2.112 4.641 1.067.334-.199.648-.435.953-.678 1.291-1.033 2.265-2.356 3.228-3.674.443-.605.918-.828 1.657-.756.513.05.594.188.472.652-.435 1.675-.85 3.356-1.251 5.04-.14.59-.368 1.167-.368 1.786 0 .496.25.836.731.973.516.146.931-.04 1.173-.5.155-.296.234-.639.316-.969.509-2.042 1.009-4.088 1.518-6.155.242.102.24.3.311.442a17.686 17.686 0 0 0 2.373 3.68c.772.914 1.744 1.19 2.898.852.649-.19 1.187-.554 1.683-.998 1.171-1.052 2.132-2.278 2.987-3.593.09-.14.167-.344.363-.316.227.032.167.265.188.42.141 1.09.278 2.178.409 3.268.147 1.236.265 2.474.432 3.705.085.624.493.946 1.131.889.629-.057.846-.506.899-1.064.013-.143-.011-.291-.027-.438-.215-1.988-.418-3.98-.661-5.965-.063-.519.053-.623.565-.53 1.007.187 2.027.3 3.042.45 2.026.297 4.052.598 6.079.899.362.047.724.102 1.088.14 2.356.251 4.256-.52 5.665-2.467a32.231 32.231 0 0 0 3.664-6.56c.829-1.992 1.4-4.047 1.551-6.213.244-3.498-1.375-5.633-4.812-6.298l.002.001Zm-72.036-8.835c.253 2.255-.48 4.23-1.93 5.943-2.61 3.081-7.206 4.183-10.934 2.637-5.014-2.077-6.307-8.156-2.576-12.16 1.892-2.031 4.248-3.051 7.015-3.139 3.838-.12 7.929 2.325 8.425 6.718Zm58.874 27.118c-1.134-.126-2.264-.272-3.399-.365-.462-.037-.686-.157-.749-.666-.14-1.135-.352-2.26-.55-3.387-.133-.753-.55-1.133-1.144-1.084-.645.052-.994.495-.91 1.323.092.919.274 1.829.425 2.742.079.482.062.713-.601.662-2.673-.211-5.343-.478-8.028-.512-.956-.011-1.014-.121-.799-1.035.376-1.589.719-3.185 1.125-4.764.164-.642.02-1.06-.604-1.266-.647-.214-1.05.138-1.255.689-.546 1.463-.892 2.989-1.238 4.508-.378 1.657-.355 1.653-2.014 1.627-3.222-.053-6.446-.179-9.666-.113-3.466.07-6.933.038-10.398.12-4.196.1-8.393.17-12.589.286-4.61.129-9.218.281-13.825.454-1.338.05-2.668.2-4.008-.023-.672-.113-1.242.3-1.292.888-.056.662.35 1.099.937 1.225 1.676.359 3.268.98 4.906 1.456 4.12 1.196 8.237 2.397 12.395 3.454 4.39 1.115 8.8 2.144 13.278 2.84 7.847 1.22 15.606 2.945 23.493 3.943 4.736.599 9.448 1.396 14.014 2.869.002-.037-.001-.076-.003-.114 0 .038.005.077.003.114.732.332 1.506.573 2.183 1.023.654.433.663.634-.014 1.006-1.299.714-2.727 1.058-4.166 1.326-2.4.447-4.828.638-7.266.777-3.203.182-6.399.086-9.591-.06-8.384-.385-16.627-1.69-24.714-3.974-6.013-1.698-11.891-3.811-17.84-5.706-1.672-.533-3.348-1.061-5.023-1.588-.907-.286-1.489-.068-1.762.647-.255.673.072 1.297.978 1.599 2.545.85 5.108 1.646 7.661 2.472 1.324.429 2.632.904 3.964 1.306.559.168.77.42.766 1.022-.013 2.058-.537 4.005-1.188 5.925-1.242 3.659-2.712 7.216-4.822 10.477-2.745 4.24-6.199 7.701-10.828 9.892a27.109 27.109 0 0 1-6.224 2.094c-.615.124-.81-.037-.833-.679-.128-3.461-.279-6.92-.466-10.378-.059-1.092-.148-2.19-.414-3.259-.208-.838-.759-1.275-1.434-1.142-.68.134-1.063.746-.912 1.584.428 2.361.449 4.752.568 7.136.208 4.188.388 8.379.703 12.561.195 2.576.308 5.159.467 7.738.234 3.82.479 7.639.711 11.459.113 1.849.212 3.7.306 5.551.194 3.821.427 7.641.716 11.457.182 2.406.305 4.816.467 7.224.229 3.38.473 6.759.706 10.138.158 2.286.303 4.572.462 6.857.222 3.209.503 6.412.843 9.611.354 3.342.746 6.68 1.211 10.009.054.388-.056.569-.484.618-3.243.384-6.466.906-9.684 1.445-.92.154-.936.137-.936-.81 0-5.25-.079-10.502.028-15.749.098-4.809.091-9.619.126-14.426.028-3.804.032-7.61-.331-11.402-.317-3.291-.962-6.503-2.292-9.558-.965-2.216-2.362-4.034-4.519-5.199-.343-.185-.478-.432-.497-.815-.195-3.798-.385-7.597-.611-11.394-.263-4.405-.563-8.806-.837-13.21-.165-2.652-.297-5.306-.465-7.958-.172-2.7-.377-5.398-.552-8.097-.039-.608-.01-1.221-.023-1.83-.016-.789-.49-1.319-1.17-1.326-.587-.008-1.173.559-1.196 1.261-.03.853-.009 1.71.042 2.562.109 1.824.26 3.645.38 5.468.245 3.745.481 7.492.718 11.238.106 1.679.208 3.357.305 5.036.245 4.26.486 8.519.727 12.777.09 1.583.168 3.165.27 4.747.022.334-.089.43-.406.42-3.772-.119-6.648 1.824-9.334 4.134-4.088 3.514-7.238 7.842-10.445 12.121-6.261 8.352-11.784 17.185-17.093 26.157a16.07 16.07 0 0 0-1.11 2.224c-.38.951.384 1.921 1.344 1.791.367-.05.671-.223.795-.569.802-2.225 2.169-4.145 3.377-6.142 4.308-7.123 8.771-14.148 13.729-20.843 2.804-3.785 5.565-7.608 8.884-10.973 1.821-1.847 3.789-3.483 6.122-4.706 3.843-2.011 7.394.302 8.822 2.984 1.322 2.484 2.028 5.169 2.39 7.942.992 7.584.617 15.21.532 22.815-.087 7.618-.041 15.233-.088 22.851-.006 1.071.155 1.218 1.252 1.134 2.166-.167 4.295-.606 6.44-.929 3.375-.508 6.749-1.003 10.155-1.272a53.658 53.658 0 0 1 7.172-.099c1.906.104 3.786.42 5.497 1.358.449.246.884.5 1.062 1.049.221.685.095.887-.585.759-1.785-.334-3.59-.423-5.395-.37-3.581.105-7.163.278-10.726.691a3.037 3.037 0 0 0-.836.236c-.474.207-.875.563-.787 1.105.096.601.527.973 1.176 1.018 1.005.069 1.998-.107 2.992-.193 3.699-.325 7.403-.551 11.115-.377 1.862.088 3.689.436 5.279 1.524 1.145.786 1.24 1.539.365 2.631-.442.551-1.009.914-1.658 1.164-.283.109-.566.124-.855-.004-1.915-.847-3.963-1.005-6.012-1.086-2.563-.101-5.129-.022-7.689.138-.549.034-1.118.085-1.608.415-.759.511-.724 1.377.087 1.795.283.145.587.233.914.217 2.512-.128 5.024-.28 7.538-.197 1.607.053 3.219.128 4.786.56.545.149 1.054.379 1.554.639.572.296.572.68.189 1.115-.514.583-1.19.919-1.906 1.188-1.805.68-3.702.855-5.598.982-4.611.311-9.228-.127-13.841.05-4.12.158-8.234.375-12.348.653-3.795.258-7.588.691-11.404.484-.122-.007-.245 0-.367-.012-1.443-.12-1.629-.285-1.632-1.739-.009-4.175-.346-8.335-.476-12.505-.112-3.584-.264-7.165-.405-10.748a422.59 422.59 0 0 0-.23-5.039c-.018-.349.171-.605.315-.879 2.809-5.34 5.315-10.813 7.308-16.512.161-.46.324-.92.456-1.389.233-.832-.052-1.5-.698-1.701-.697-.215-1.311.16-1.594 1.014-1.908 5.759-4.416 11.255-7.155 16.659-3.164 6.239-6.752 12.215-10.85 17.883-1.833 2.535-4.028 4.687-6.743 6.308-1.871 1.117-3.894 1.682-6.02 1.899-3.788.388-7.59.717-11.397.573-5.8-.218-11.617-.495-17.224-2.182-5.629-1.694-10.693-4.413-15.12-8.367-2.66-2.378-4.53-5.206-5.948-8.408-.188-.423-.372-.854-.742-1.163-.31-.261-.654-.465-1.067-.298-.416.169-.645.518-.704.957-.051.393.006.777.182 1.14.437.9.865 1.804 1.295 2.708.07.15.22.32.088.47-.118.135-.32.061-.49.043-7.56-.799-14.252-3.69-20.241-8.317-6.519-5.036-11.656-11.286-16.1-18.152-4.106-6.35-7.178-13.193-9.549-20.354-1.758-5.31-2.936-10.758-3.725-16.295-.534-3.746-.823-7.507-.99-11.282a4.353 4.353 0 0 1 .24-1.581c3.108-9.426 6.472-18.763 9.89-28.081.057-.154.126-.303.257-.614.525 1.215.984 2.299 1.459 3.378 1.654 3.749 3.28 7.511 5.155 11.158.167.327.349.652.636.886.782.639 1.933.203 2.229-.863.308-1.107.344-2.262.49-3.396.44-3.455.873-6.911 1.278-10.37.334-2.855.632-5.715.938-8.572.327-3.053.678-6.102.96-9.157.234-2.519.385-5.044.587-7.759l2.013 3.236c2.054 3.292 4.101 6.588 6.167 9.873.551.875 1.286 1.062 2.043.609.507-.303.64-.809.65-1.318.067-3.516.058-7.031-.067-10.545-.028-.79-.004-1.58-.004-2.498.847.65 1.352 1.405 1.954 2.063 1.22 1.332 2.414 2.686 3.616 4.034.566.635.867 1.358 1.007 2.217.34 2.073.596 4.153.647 6.248a43.394 43.394 0 0 1-.324 6.276c-.742 6.137-2.666 11.975-4.52 17.831-1.833 5.788-3.918 11.494-5.604 17.329-1.261 4.364-2.147 8.801-2.723 13.307-.403 3.147-.75 6.302-.655 9.473.175 5.958 1.023 11.796 3.452 17.314 2.575 5.851 6.518 10.496 12.06 13.74.739.432 1.513.811 2.347 1.011.536.129.659.434.716.934.171 1.499.14 3.017.435 4.503.085.432.217.845.497 1.2.323.41.722.715 1.254.543.516-.167.765-.634.757-1.146-.014-.678-.13-1.354-.201-2.03-.273-2.641-.578-5.279-.808-7.922-.274-3.131-.493-6.269-.717-9.404a145.811 145.811 0 0 1-.3-5.185c-.14-3.877-.367-7.75-.312-11.633.072-4.928.304-9.845.698-14.758.484-6.034 1.327-12.01 2.81-17.884 1.715-6.802 3.866-13.453 7.017-19.745 2.984-5.96 6.45-11.609 10.992-16.528 3.718-4.026 7.863-7.534 12.832-9.95 3.065-1.49 6.268-2.587 9.667-3.02.717-.09 1.126-.458 1.422-1.088.632-1.348.622-2.803.707-4.229a48.509 48.509 0 0 1 3.514-15.47c2.022-4.968 5.238-8.978 9.54-12.173 4.776-3.546 9.833-6.537 15.572-8.261 5.114-1.537 10.333-2.345 15.673-1.987 6.231.416 12.232 1.884 17.984 4.33 3.711 1.578 7.338 3.323 10.78 5.436a3.8 3.8 0 0 0 .412.114c-1.283-.013-2.329.197-2.823.331-4.092 1.127-6.978 3.592-8.134 7.72-1.45 5.177 1.741 10.282 7.092 11.606 5.914 1.464 11.958-2.008 13.652-7.833.039-.138.162-1.155.177-1.57-.015.415.034.817.145 1.214.569 1.698 1.333 3.333 1.676 5.103.152.784.255 1.576.38 2.365-1.357.2-2.727.083-4.085.198-.824.07-1.33.544-1.299 1.112.034.64.572 1.038 1.443 1.016 1.338-.034 2.675-.101 4.014-.144.752-.025 1.504-.029 2.257-.042 2.309.236 4.63.249 6.945.306 9.696.243 19.395.31 29.094.15 3.61-.06 7.22-.247 10.826-.421 1.728-.084 3.45-.274 5.176-.413.161-.013.324-.002.642-.002-.661.582-1.277 1.003-1.752 1.589-1.275 1.575-1.451 3.28-.589 5.062 1.053 2.182 2.627 3.985 4.362 5.65a123.38 123.38 0 0 0 3.834 3.495c-1.977-.192-3.912-.568-5.881-.62l-.01.002Z" fill="#020203"/><path d="M172.407 206.135c-.185-2.967-.317-5.939-.466-8.909-.246-4.894-.484-9.788-.73-14.681-.096-1.899-.189-3.798-.314-5.695-.224-3.429-.463-6.855-.708-10.283a381.374 381.374 0 0 0-.475-6.045c-.267-3.034-.55-6.064-.842-9.094a582.583 582.583 0 0 0-.663-6.467c-.31-2.905-.642-5.808-.942-8.715-.084-.802-.081-.82-.785-.419-2.802 1.591-5.755 2.775-8.963 3.231-.538.076-.538.363-.513.759.15 2.31.293 4.621.437 6.932.243 3.94.493 7.881.726 11.821.303 5.109.589 10.22.893 15.33.198 3.332.397 6.666.621 9.996.317 4.692.654 9.381.989 14.072.25 3.524.454 7.052.781 10.569.421 4.509.946 9.007 1.544 13.497.084.623.265.737.847.697 2.821-.192 5.644-.483 8.308-.173.267 0 .368-.017.462.003.704.156.883-.146.817-.814-.1-1.019-.11-2.044-.179-3.066-.28-4.182-.585-8.361-.845-12.544v-.002ZM199.442 223.705c-1.212-.757-2.59-.981-3.979-1.124-2.674-.274-5.36-.278-8.047-.3a151.103 151.103 0 0 1-5.124-.152c-1.034-.044-1.564-1.066-.993-1.874.385-.544.999-.611 1.58-.569 2.045.154 4.092.229 6.143.229 2.88 0 5.759.02 8.604.577.214.041.432.059.648-.037 1.973-.885 2.272-3.311.56-4.608-.771-.583-1.661-.914-2.582-1.181-3.235-.936-6.512-.834-9.794-.368-1.833.261-3.656.601-5.487.873-1.45.216-2.365-.791-2.05-2.217.074-.332.167-.662.257-.99.865-3.174 1.963-6.279 2.708-9.488.928-3.996 1.695-8.011 1.691-12.496.065-1.797-.234-3.918-.632-6.031-.581-3.072-1.571-5.983-3.301-8.618-1.344-2.045-3.305-2.958-5.67-3.136-.876-.066-1.008.082-.954.989.086 1.436.202 2.869.281 4.305.115 2.094.206 4.19.311 6.284.239 4.772.48 9.546.723 14.319.098 1.924.185 3.848.308 5.77.223 3.479.476 6.955.702 10.432.167 2.579.31 5.158.466 7.738.042.668.22 1.108 1.021 1.326 1.616.443 3.287 1.114 4.055 2.66.629 1.267 1.363 1.349 2.577 1.298 3.414-.141 6.838.01 10.251-.236 1.848-.133 3.7-.293 5.472-.884.582-.193 1.398-.328 1.456-1.044.057-.704-.644-1.102-1.201-1.451v.004Z" fill="#283996"/><path d="M128.928 110.94c-.267 1.361-.575 2.72-.644 4.109-.035.705.121 1.376.804 1.764.714.406 1.361.169 1.975-.258.768-.535 1.405-1.213 2.006-1.918 2.108-2.466 4.202-4.944 6.296-7.422.549-.652 1.101-1.305 1.608-1.99.35-.471.389-1.012-.025-1.477-.39-.435-1.07-.429-1.598-.01-.265.211-.496.47-.73.718-1.896 2.006-3.506 4.254-5.347 6.305-.739.824-1.41 1.71-2.352 2.592l.375-2.038c.368-2.012.902-3.991 1.167-6.024.091-.7-.066-1.326-.674-1.74-.621-.422-1.208-.201-1.76.189-.139.098-.271.208-.402.316-2.117 1.77-4.089 3.698-6.114 5.57-.715.661-1.41 1.342-2.115 2.015.418-2.322.969-4.54 1.536-6.754.796-3.117 1.598-6.23 2.414-9.341.179-.685.184-1.322-.351-1.832-.535-.51-1.149-.352-1.784-.142-1.321.436-2.635.883-3.913 1.436-1.115.48-2.245.922-3.464 1.417.066-.36.261-.487.398-.652 2.397-2.928 4.963-5.706 7.567-8.45.715-.752.9-1.535.541-2.092-.387-.6-.867-.674-2.05-.32-2.529.754-4.944 1.815-7.387 2.798-.891.36-1.781.724-2.673 1.084.415-.806.917-1.487 1.424-2.164 1.726-2.303 3.479-4.586 5.082-6.98.456-.68.419-1.312-.132-1.76-.515-.42-1.223-.305-1.748.296a6.233 6.233 0 0 0-.485.641c-2.012 3.032-4.289 5.87-6.463 8.783-.861 1.152-1.825 2.226-2.68 3.384-.581.787-.228 1.725.679 2.066.513.193.966-.002 1.395-.224 2.063-1.064 4.195-1.973 6.34-2.85 1.141-.466 2.288-.918 3.541-1.419-.091.205-.104.282-.149.33-2.123 2.293-4.115 4.698-6.104 7.105-.667.808-1.412 1.562-1.903 2.5-.496.948.076 1.962 1.108 2.027.436.027.818-.138 1.186-.323 2.751-1.385 5.641-2.442 8.476-3.625.213-.088.459-.299.673-.1.187.175-.008.415-.058.617-1.291 5.202-2.588 10.403-3.88 15.603-.135.542-.27 1.086-.255 1.656.031 1.163.95 1.76 2.02 1.276.285-.129.55-.316.794-.517 2.014-1.666 3.807-3.573 5.744-5.322.879-.794 1.742-1.605 2.72-2.506 0 .305.022.446-.003.576-.205 1.026-.428 2.048-.63 3.076l.004.001ZM150.213 112.035c.561.921 1.66.886 2.338.034.165-.206.311-.445.399-.693a823.558 823.558 0 0 0 2.887-8.121c.249-.718-.05-1.339-.66-1.566-.602-.224-1.234.057-1.533.747-.282.646-.508 1.318-.744 1.983-.536 1.511-1.064 3.026-1.652 4.698-.348-.595-.594-1.013-.837-1.432-.758-1.307-1.502-2.623-2.279-3.918-.431-.718-1.077-.935-1.662-.627-.585.307-.849.999-.49 1.63 1.381 2.437 2.772 4.871 4.231 7.263l.002.002ZM66.205 146.286c-.26-.709-.946-.844-1.517-.346-.45.392-.637.912-.775 1.461-.702 2.793-1.001 5.655-1.461 8.489-.343 2.113-.657 4.233-.745 6.378 0 .195-.002.392 0 .586.01 1.091.385 1.674 1.092 1.702.721.027 1.19-.597 1.255-1.678.007-.122.004-.245.013-.366.059-.777.072-1.561.187-2.33.623-4.238 1.165-8.49 2.061-12.684.092-.432.03-.831-.11-1.213v.001ZM18.946 173.331c.735 3.962 1.912 7.806 3.19 11.618.2.597.417 1.2.797 1.719.355.485.86.556 1.38.394.511-.159.64-.625.7-1.209-.064-.209-.145-.515-.25-.811-.24-.666-.52-1.316-.73-1.99-1.15-3.674-2.329-7.34-2.865-11.173-.115-.816-.672-1.26-1.316-1.165-.662.098-1.129.766-1.052 1.531.036.364.082.727.15 1.086h-.004ZM66.216 196.631c.708-.045 1.155-.581 1.077-1.455-.177-1.99-.26-3.982-.352-5.977-.076-1.679-.114-3.354.018-5.033.058-.747.144-1.5-.046-2.251-.115-.458-.409-.74-.846-.792-.445-.055-.784.197-1.005.59a3.71 3.71 0 0 0-.42 1.232c-.215 1.283-.108 2.575-.161 3.91.037 2.802.142 5.647.447 8.481.094.868.58 1.342 1.286 1.295h.002ZM85.062 220.727c.075.644.113 1.313.408 1.919.258.532.661.887 1.267.771.582-.111.93-.522.947-1.14.011-.413.051-.843-.033-1.241-.634-3.016-.756-6.078-.88-9.142-.037-.923-.1-1.848-.21-2.764-.066-.546-.361-.957-1.002-.958-.654-.002-.877.435-.991.973-.21.987-.107 1.993-.15 2.879-.014 2.992.316 5.848.646 8.703h-.002ZM107.491 159.045c.483.17.931.075 1.265-.312.188-.217.324-.488.444-.752 1.443-3.172 2.887-6.343 4.309-9.526.236-.526.575-1.028.578-1.641.01-.797-.45-1.235-1.226-1.194-.611.032-.887.442-1.107.927-1.552 3.417-3.105 6.833-4.656 10.252-.184.403-.294.823-.254 1.276.04.445.198.812.648.97h-.001ZM33.805 126.749c.74.102 1.212-.245 1.407-1.043.052-.213.105-.428.12-.645.163-2.601.312-5.204.306-7.812 0-1.049.035-2.098-.01-3.144-.037-.855-.609-1.35-1.366-1.299-.717.05-1.025.494-1.008 1.406a105.75 105.75 0 0 1-.371 11.095c-.068.774.313 1.357.923 1.442h-.001ZM15.484 147.92c-.37-3.211-.859-6.413-.868-9.657 0-.338-.045-.678-.09-1.015-.081-.595-.48-.912-1.033-.964-.566-.055-.973.246-1.186.782-.186.469-.12.96-.13 1.646.158 3.3.569 6.774 1.023 10.245.073.563.449.912 1.038.95.575.038.981-.204 1.188-.762.15-.406.108-.809.06-1.224l-.002-.001ZM97.235 127.169c.526-.633.498-1.322-.006-1.768-.49-.436-1.207-.367-1.758.187a8.102 8.102 0 0 0-.726.824c-1.86 2.45-3.551 5.02-5.314 7.539a3.93 3.93 0 0 0-.529 1.036c-.224.697.333 1.433 1.096 1.436.516-.074.907-.39 1.231-.861 1.37-1.991 2.767-3.963 4.138-5.953a33.753 33.753 0 0 1 1.87-2.44h-.002ZM11.74 164.707c-.623.095-1.034.448-1.148 1.061-.06.327-.039.684.023 1.015.35 1.916.792 3.81 1.325 5.683.288 1.007.52 2.034 1.008 2.967.383.731 1.032.986 1.624.712.587-.271.808-.876.546-1.622a50.962 50.962 0 0 1-2.222-8.761c-.105-.642-.55-.939-1.156-1.055ZM19.987 154.422c.524-.305.764-.792.575-1.365-.735-2.237-.685-4.56-.75-6.866v-2.049c0-.293-.017-.575-.22-.826-.351-.429-.79-.58-1.303-.409-.619.207-.781.734-.865 1.32-.224 1.561-.028 3.117.057 4.669.065 1.185.107 2.387.414 3.547.155.586.283 1.195.729 1.653.382.394.82.642 1.364.324l-.001.002ZM70.736 193.077c.132.912.26 1.839.61 2.701.24.592.689.982 1.372.828.63-.141.912-.602.878-1.364 0-.005.006-.131-.023-.248-.508-2.012-.74-4.071-1.037-6.119-.129-.89-.242-1.783-.422-2.664-.106-.516-.245-1.073-.924-1.168-.758-.105-1.283.399-1.283 1.3 0 2.277.505 4.495.83 6.733l-.001.001ZM97.674 179.076c.562.144 1.025-.046 1.297-.548.145-.269.217-.599.243-.908.226-2.641.434-5.281.648-7.923v-.293c.016-1.027-.347-1.562-1.086-1.594-.7-.03-1.214.564-1.29 1.493-.01.121-.004.243-.014.365l-.382 4.429c-.105 1.211-.24 2.421-.3 3.634-.03.614.192 1.167.884 1.344v.001ZM87.871 102.891c.715-.733 1.46-1.435 2.168-2.175.33-.345.514-.767.316-1.268-.179-.45-.511-.724-.982-.765-.494-.044-.884.216-1.223.553-.657.652-1.323 1.297-1.968 1.96-1.222 1.257-2.435 2.523-3.648 3.789-.36.376-.548.803-.324 1.329.204.478.588.69 1.118.76.473-.064.859-.35 1.203-.707 1.115-1.159 2.222-2.324 3.343-3.476h-.003ZM71.304 155.289c.663.043 1.195-.543 1.266-1.421.187-2.303.59-4.578.934-6.861.13-.87-.147-1.509-.778-1.66-.765-.182-1.413.226-1.56 1.134-.38 2.349-.696 4.71-1.036 7.065l.067.01v.22c-.003.958.368 1.466 1.107 1.513ZM114.056 158.505c.553.26 1.069.091 1.425-.382.216-.286.365-.636.477-.979.497-1.524.986-3.052 1.438-4.591.114-.388.241-.795.195-1.175.015-.897-.261-1.404-.792-1.5-.636-.116-1.171.186-1.397.895a350.974 350.974 0 0 0-1.978 6.408c-.176.59.09 1.068.632 1.323v.001ZM104.158 114.782c.705.118 1.095-.409 1.365-.985.133-.284.236-.591.305-.897.38-1.685.746-3.374 1.117-5.061.182-.825-.122-1.443-.806-1.635-.675-.191-1.283.2-1.489 1.025-.388 1.56-.752 3.124-1.101 4.694-.104.472-.271.941-.215 1.412-.037.683.069 1.322.821 1.448l.003-.001ZM89.406 218.01c.031.951-.032 1.977.175 2.985.123.604.484 1.037 1.124 1.065.525.024.921-.247 1.087-.791.108-.355.174-.715.124-1.079-.158-1.137-.092-2.281-.156-3.42-.025-.433-.058-.88-.18-1.293-.142-.484-.325-.991-.998-.981-.696.011-.956.488-1.136 1.042-.052.157-.037.337-.037.507-.004.633-.001 1.265-.001 1.967l-.002-.002ZM89.556 125.927c-.485-.205-1.02-.151-1.368.216-.99 1.037-1.877 2.165-2.509 3.462-.21.431-.055.875.269 1.21.314.324.7.384 1.138.213.8-.314 2.94-3.341 2.94-4.244.029-.348-.09-.696-.47-.857Z" fill="#020203"/><path d="M100.556 48.745c.268 3.67.492 7.343.791 11.009.066.807.024 1.644.302 2.463.088-.056.165-.079.201-.13 1.774-2.551 3.987-4.672 6.434-6.56.387-.3.393-.635.33-1.03-.831-5.195-1.628-10.391-2.085-15.638-.311-3.573-.664-7.138-.55-10.73.028-.857.147-1.705.594-2.461.545-.926 1.51-1.196 2.465-.7.555.288.983.73 1.329 1.233 2.38 3.467 4.433 7.126 6.311 10.882 1.648 3.294 3.213 6.63 4.953 9.879.161.302.251.65.737.451 1.402-.574 2.857-.99 4.318-1.38.452-.12.474-.293.253-.658-.417-.689-.839-1.377-1.187-2.101-1.862-3.869-3.68-7.76-5.555-11.622-2.95-6.078-5.679-12.27-9.281-18.014-1.236-1.971-2.531-3.89-4.422-5.316-1.616-1.218-2.459-1.095-3.666.543a7.372 7.372 0 0 0-.573.935c-.676 1.284-1.082 2.664-1.389 4.072-.932 4.29-1.014 8.659-1.134 13.017-.099 3.535.093 7.073.217 10.608.13 3.753.331 7.501.605 11.247l.002.001ZM142.938 44.533c1.733.077 3.439.368 5.139.694.464.089.714.029.844-.475.326-1.25.701-2.485 1.054-3.728 1.739-6.123 3.562-12.22 6.018-18.102.563-1.349 1.091-2.726 2.054-3.863 1.168-1.38 2.853-1.201 3.709.384.423.782.647 1.634.836 2.49 1.433 6.514 1.912 13.154 2.493 19.775.259 2.962.409 5.932.607 8.9.036.552.262.914.808 1.172 1.212.574 2.391 1.22 3.564 1.874.802.446 1.569.953 2.509 1.53-.126-1.768-.212-3.347-.357-4.923-.316-3.443-.709-6.88-1.115-10.313a266.858 266.858 0 0 0-1.427-10.271 329.253 329.253 0 0 0-2.114-11.868c-.725-3.709-1.442-7.419-2.783-10.97-.521-1.377-1.161-2.69-2.255-3.724-.899-.85-1.541-.947-2.645-.37-1.027.537-1.748 1.399-2.387 2.33-1.695 2.468-2.902 5.195-4.091 7.923-3.295 7.563-6.133 15.298-8.627 23.16-.811 2.557-1.613 5.115-2.323 7.701-.137.505-.013.655.489.677v-.003Z" fill="#283996"/><path d="M41.107 87.818C36.22 77.47 28.92 69.036 20.27 61.69c-4.8-4.075-10.194-7.293-15.534-10.584-.094-.057-.186-.164-.323-.07 0 .047-.014.1.003.135.214.438.434.873.653 1.31 3.768 7.529 6.586 15.41 8.78 23.525.21.777.39 1.57.265 2.383-.178 1.147-1.147 1.609-2.175 1.062-.373-.199-.677-.479-.966-.778-2.155-2.228-4.306-4.462-6.461-6.69-.242-.25-.456-.537-.829-.71.01.21.008.356.027.502.618 4.944.934 9.912 1.133 14.887.416 10.38-.018 20.748-.613 31.109-.383 6.655-.67 13.312-.674 19.979 0 .195.025.39.051.784.123-.287.166-.372.195-.46 2.714-8.112 5.762-16.105 8.6-24.173.274-.777.513-1.596 1.523-1.633 1.016-.036 1.31.767 1.623 1.527a306.032 306.032 0 0 0 5.74 13.05c.082.176.072.452.366.494.776-5.933 1.455-11.869 2.11-17.808.659-5.966 1.31-11.93 1.626-17.928.06-1.12.027-2.25.248-3.357.101-.508.34-.92.871-1.075.541-.157 1.026-.015 1.41.382.216.224.385.503.55.77 2.47 3.982 4.933 7.965 7.403 11.945.105.167.156.4.452.479 0-.286.003-.523 0-.76-.051-3.832-.097-7.666-.16-11.499-.012-.708.082-1.342.85-1.6.753-.254 1.288.076 1.776.66 1.333 1.586 2.707 3.14 4.172 4.827-.027-.262-.017-.341-.043-.403-.598-1.386-1.164-2.788-1.81-4.154l-.002-.001ZM160.003 20.677c-.586.688-.825 1.275-1.081 1.85-3.262 7.379-5.335 15.152-7.577 22.87-.138.478.136.517.468.6 3.774.93 7.404 2.265 10.938 3.877.201.092.391.296.706.148-.809-9.748-1.189-19.552-3.455-29.346l.001.001ZM117.168 43.175c-2.421-4.979-4.891-9.93-7.897-14.593-.188-.291-.389-.574-.584-.861l-.217.08c-.003 8.64 1.205 17.164 2.543 25.7.132-.03.211-.027.264-.064 2.615-1.804 5.335-3.429 8.228-4.752.457-.21.237-.44.113-.687-.815-1.61-1.663-3.202-2.45-4.824v.001Z" fill="#BAC2E5"/><path d="M210.226 96.34c.355.447.848.457 1.326.212 1.5-.766 2.381-2.129 3.487-3.497h-6.76c.601 1.172 1.163 2.294 1.949 3.285h-.002ZM223.419 93.338c.624 1.301 1.31 2.384 2.134 3.38.24.29.557.318.859.142 1.259-.737 2.11-1.855 2.991-3.137l-5.982-.385h-.002ZM196.306 93.201c-.341 0-.369.14-.237.399.38.737.765 1.47 1.261 2.14.399.538.891.64 1.481.39 1.425-.599 2.328-1.76 3.25-2.926-1.969 0-3.862.005-5.756-.003h.001Z" fill="#F1F9EC"/><path d="M170.65 58.71c-2.766.087-5.122 1.108-7.014 3.138-3.73 4.005-2.438 10.083 2.576 12.16 3.727 1.545 8.324.443 10.934-2.637 1.45-1.713 2.183-3.688 1.929-5.943-.494-4.395-4.586-6.839-8.425-6.719ZM144.574 59.522c-6.356-.051-11.497 4.92-11.529 11.15-.032 6.03 5.116 11.033 11.384 11.066 6.274.032 11.49-4.908 11.542-10.927.052-6.21-5.024-11.238-11.397-11.288v-.001Z" fill="#FF1400"/><path d="M172.063 62.831c-1.884-.03-3.462 1.498-3.5 3.391-.038 1.85 1.381 3.344 3.208 3.38 1.937.04 3.539-1.476 3.582-3.389.041-1.878-1.39-3.35-3.289-3.383l-.001.002ZM152.465 71.179c.044-2.566-2.007-4.346-4.237-4.436-2.399-.095-4.466 1.89-4.494 4.262-.03 2.437 1.876 4.422 4.285 4.462a4.348 4.348 0 0 0 4.446-4.288Z" fill="#020203"/></svg>