<svg width="256" height="245" fill="none" xmlns="http://www.w3.org/2000/svg"><path d="M234.547 92.182c1.134.092 2.266.239 3.398.365 1.969.051 3.905.428 5.881.62a125.288 125.288 0 0 1-3.834-3.497c-1.734-1.666-3.308-3.468-4.362-5.648-.86-1.785-.685-3.488.59-5.063.475-.586 1.09-1.007 1.752-1.588-.318 0-.481-.012-.642.001-1.726.14-3.449.33-5.176.413-3.607.175-7.217.36-10.827.42-9.699.16-19.396.093-29.094-.148-2.315-.06-4.636-.071-6.945-.307-.752.013-1.504.018-2.257.043l-.074-2.182c-.125-.788-.229-1.581-.38-2.365-.343-1.77-2.397-8.713-2.968-10.411-.435-.19-6.999-6.685-9.231-6.278-3.441-2.113-7.069-3.858-10.78-5.436-5.751-2.447-11.753-3.914-17.984-4.33-5.34-.358-10.558.45-15.672 1.987-5.738 1.725-10.796 4.715-15.573 8.261-4.302 3.193-7.517 7.205-9.539 12.174a48.494 48.494 0 0 0-3.515 15.47c-.086 1.424-.074 2.879-.706 4.228-.296.63-.706.998-1.423 1.09-3.398.431-6.602 1.527-9.666 3.018-4.97 2.416-9.116 5.924-12.832 9.951-4.543 4.919-8.009 10.569-10.993 16.527-3.15 6.291-5.301 12.943-7.017 19.745-1.48 5.874-2.325 11.85-2.81 17.884a225.396 225.396 0 0 0-.697 14.759c-.056 3.883.171 7.757.31 11.633.062 1.729.178 3.458.301 5.184.225 3.136.443 6.273.717 9.404.232 2.644-2.113 4.048-2.648 3.92-.834-.201-1.608-.577-2.347-1.011-5.542-3.244-9.485-7.889-12.06-13.74-2.428-5.518-3.277-11.356-3.453-17.314-.1-3.378.3-6.735.735-10.086a83.95 83.95 0 0 1 2.476-12.111c1.714-6.038 3.877-11.93 5.771-17.912 1.855-5.857 3.779-11.695 4.52-17.831a43.38 43.38 0 0 0 .325-6.276c-.052-2.097-.307-4.176-.647-6.248-.14-.86-.441-1.583-1.007-2.217-1.202-1.348-2.396-2.702-3.616-4.034-.602-.658-1.105-1.413-1.954-2.063 0 .917-.024 1.708.004 2.498.125 3.514.133 7.029.066 10.544-.01.512-.142 1.016-.65 1.319-.756.453-1.492.267-2.042-.609-2.066-3.286-4.113-6.581-6.167-9.874l-2.013-3.235c-.202 2.715-.353 5.241-.586 7.759-.283 3.055-.634 6.106-.96 9.156-.307 2.859-.603 5.718-.94 8.572-.405 3.46-.836 6.915-1.278 10.371-.145 1.134-.181 2.287-.49 3.396-.296 1.065-1.447 1.501-2.228.863-.287-.234-.47-.561-.636-.886-1.876-3.648-3.502-7.409-5.155-11.159-.476-1.077-.934-2.161-1.46-3.377-.13.311-.2.46-.256.614-3.416 9.318-6.783 18.655-9.891 28.081a4.398 4.398 0 0 0-.239 1.581c.169 3.775.457 7.538.99 11.282.789 5.537 1.967 10.985 3.725 16.295 2.371 7.161 5.443 14.003 9.55 20.353 4.442 6.868 9.58 13.118 16.099 18.153 5.99 4.627 12.681 7.518 20.24 8.317.17.017.372.091.49-.043.132-.151 4.235 2.216 6.896 4.594 4.427 3.954 9.49 6.673 15.12 8.367 5.606 1.687 11.423 1.964 17.223 2.182 3.808.143 7.608-.186 11.397-.573 2.126-.217 4.149-.783 6.02-1.899 2.716-1.619 4.911-3.773 6.743-6.308 4.098-5.668 12.201-15.424 12.22-15.075.086 1.679 1.104 24.117 1.113 28.292.003 1.453.19 1.619 1.631 1.739.122.01.245.005.367.012 3.817.208 7.61-.226 11.404-.484 4.114-.28 8.23-.495 12.349-.653 4.614-.178 9.229.261 13.841-.05 1.897-.127 3.794-.302 5.598-.982.715-.269 1.391-.605 1.906-1.188.384-.435 2.309-4.203 2.752-4.752.875-1.092.639-1.256.648-2.644.014-2.258-3.859-5.181-4.308-5.427-1.71-.938-3.591-1.254-5.497-1.358a53.995 53.995 0 0 0-7.172.099c-3.406.268-4.311-2.129-4.365-2.519-.465-3.329-2.359-24.192-2.516-26.478-.233-3.379-.477-6.758-.706-10.138-.165-2.446-.288-4.896-.476-7.34a450.43 450.43 0 0 1-.72-11.616 516.271 516.271 0 0 0-.292-5.276c-.231-3.82-.478-7.64-.711-11.459-.158-2.579-.271-5.162-.466-7.738-.315-4.184 2.174-5.699 2.789-5.823a27.253 27.253 0 0 0 6.224-2.094c4.627-2.191 8.083-5.652 10.828-9.893 2.109-3.26 3.58-6.818 4.822-10.477.652-1.919 1.174-3.867 1.188-5.924.004-.604-.207-.856-.766-1.023-1.331-.4-2.64-.876-3.964-1.305-2.553-.827-5.116-1.624-7.661-2.472-.906-.302-1.233-.926-.978-1.599.271-.715.854-.933 1.762-.648 1.676.528 3.35 1.055 5.023 1.589 5.949 1.894 11.827 4.007 17.84 5.706 8.087 2.284 16.329 3.588 24.714 3.974 3.192.146 6.39.243 9.591.06 2.438-.14 4.866-.33 7.266-.777 1.438-.268 2.866-.611 4.166-1.326.677-.372.668-.573.014-1.007-.677-.45-1.451-.688-2.183-1.023-4.566-1.472-9.278-2.269-14.014-2.869-7.887-.997-15.646-2.722-23.493-3.943-4.478-.696-8.888-1.724-13.278-2.84-4.158-1.056-8.275-2.258-12.395-3.453-1.638-.475-3.23-1.098-4.906-1.457-.587-.126-.993-.561-.937-1.225.05-.586.62-1 1.292-.888 1.34.226 2.669.075 4.008.024a1501.5 1501.5 0 0 1 13.825-.455c4.196-.117 8.393-.187 12.589-.285 3.466-.082 6.932-.05 10.398-.12 3.22-.066 6.443.061 9.665.112" fill="#283996"/><path d="M144.919 57.716c-7.192-.359-13.498 5.78-13.567 12.876-.069 7.064 5.525 12.837 12.498 12.906 7.501.074 13.67-5.767 13.778-12.996.11-7.306-6.02-13.03-12.709-12.787v.001Zm-.466 24.02c-6.254-.033-11.391-5.037-11.359-11.067.032-6.227 5.163-11.199 11.504-11.149 6.359.051 11.425 5.079 11.372 11.287-.051 6.02-5.257 10.96-11.516 10.927l-.001.002ZM138.041 54.49c1.252-.514 2.509-.937 3.871-.987.278-.01.519-.121.761-.24.353-.174.601-.404.568-.844-.033-.467-.335-.693-.728-.813-.615-.188-1.249-.242-1.88-.107-3.685.79-6.915 2.476-9.697 5.002-2.493 2.264-4.11 5.119-5.398 8.183-.132.312-.244.64-.211.94 0 .56.159.988.681 1.143.504.151.862-.142 1.083-.546.352-.64.682-1.296.969-1.965 1.989-4.625 5.323-7.857 9.979-9.767l.002.002Z" fill="#060319"/><path d="M150.841 84.5c-3.347 3.334-8.989 3.945-12.969 1.41-1.303-.83-2.511-1.758-3.416-3.039-.344-.488-.811-.708-1.391-.352-.48.295-.626.899-.343 1.485.105.217.237.43.398.61 2.741 3.06 6.054 4.937 10.261 4.943a9.68 9.68 0 0 0 3.048-.335c2.245-.61 4.284-1.624 5.932-3.299.574-.583.578-1.29.141-1.688-.476-.433-1.053-.341-1.661.265Z" fill="#060319"/><path d="M202.195 89.947c.205-.075.4-.182.594-.286 1.441-.77 2.887-1.534 4.319-2.321 2.18-1.197 4.402-2.323 6.535-3.606.411-.248.669-.554.696-1.055-.046-.373-.2-.66-.609-.805-.48-.17-.864.044-1.247.246a3034.39 3034.39 0 0 0-9.694 5.15c-.538.287-1.088.562-1.579.917-.449.324-.662.801-.345 1.345.306.526.786.612 1.33.416v-.001Z" fill="#020203"/><path d="M251.109 74.264a13.886 13.886 0 0 0-2.837-.274c-2.64.035-5.256.389-7.878.65-1.264.126-2.526.256-3.958.401.321-.368.498-.596.702-.8 2.714-2.704 5.378-5.457 8.266-7.98.297-.26.555-.551.753-.891.365-.629.299-1.181-.175-1.553-.496-.389-1.164-.343-1.663.129-1.664 1.576-3.363 3.12-4.976 4.749-2.057 2.078-4.314 3.974-5.995 6.402-.129.186-.307.21-.506.224-1.365.083-2.73.163-4.094.264-.441.032-.567-.082-.403-.523.402-1.072.755-2.162 1.16-3.233.567-1.505 1.215-2.975 2.013-4.377.45-.791.328-1.45-.255-1.81-.549-.337-1.267-.106-1.751.595-.248.36-.468.745-.66 1.138-1.209 2.479-2.231 5.033-2.963 7.694-.127.464-.278.678-.817.67-1.318-.02-2.637.029-3.954.087-.473.02-.688-.096-.778-.599-.456-2.517-.955-5.029-1.436-7.542-.079-.412-.179-.813-.459-1.138-.308-.358-.67-.524-1.164-.368-.475.148-.724.432-.796.92-.06.4.026.778.098 1.159.45 2.37.9 4.742 1.368 7.11.073.373.028.535-.4.519-.535-.022-1.965.162-2.156.162-2.856.002-28.677-.37-28.907-.568-.519-.118-.78.055-1.291-.145-.315-.261-.312-.49-.371-.881.055-.312-.442-2.99-.69-3.876-.811-2.887-1.881-5.654-3.809-8.012-1.763-2.559-2.585-3.181-4.532-4.862-.383-.314-.521-.742-.565-1.213-.048-.535-.116-1.069-.146-1.605-.336-5.728-.974-11.426-1.684-17.116-.787-6.319-1.831-12.599-3.044-18.85-.771-3.972-1.472-7.964-2.787-11.807-.69-2.017-1.528-3.954-3.042-5.53-1.676-1.741-3.669-2.065-5.774-.881-.95.535-1.738 1.26-2.412 2.108-1.191 1.498-2.144 3.15-2.959 4.87-5.508 11.614-9.725 23.704-13.219 36.056-.11.39-.17.642-.685.63-3.063-.076-6.095.234-9.092.868-.34.072-.532-.017-.726-.303-.561-.828-1.114-1.659-1.548-2.565-3.275-6.835-6.533-13.678-9.837-20.5-2.052-4.24-4.255-8.401-7.038-12.22-1.156-1.588-2.526-2.979-4.266-3.952-1.572-.878-3.072-.79-4.507.317-1.343 1.034-2.161 2.432-2.773 3.97-1.27 3.194-1.65 6.565-1.893 9.95-.635 8.79-.18 17.57.34 26.346.261 4.41.615 8.813.952 13.218.14 1.824.3 3.65.547 5.46.08.59.034 1.056-.211 1.59-2.156 4.684-3.62 9.568-4.161 14.708-.204 1.94-.383 3.884-.57 5.826-.036.359-.087.62-.565.684-3.298.44-6.405 1.539-9.374 2.978-6.403 3.103-11.614 7.704-16.04 13.204-6.09 7.568-10.478 16.071-13.581 25.253-2.546 7.532-4.355 15.229-5.2 23.146a211.61 211.61 0 0 0-.909 11.676 171.392 171.392 0 0 0-.01 17.425 540.43 540.43 0 0 0 1.09 16.804c.036.425.306 1.082.011 1.233-.394.202-.888-.253-1.305-.493-4.382-2.532-7.746-6.043-10.114-10.516-3.334-6.3-4.378-13.108-4.277-20.11.093-6.342 1.142-12.577 2.767-18.708 1.611-6.082 3.814-11.979 5.72-17.969 2.026-6.364 4.181-12.697 4.969-19.376.43-3.648.475-7.301.01-10.956-.6-4.718-2.15-9.142-4.101-13.446C38.708 76.7 30.939 67.6 21.624 59.714c-4.112-3.482-8.699-6.285-13.225-9.172-2.08-1.327-4.217-2.545-6.511-3.465-.549-.22-1.123-.407-1.612.157-.513.592-.214 1.125.113 1.66.395.643.824 1.267 1.176 1.933C5.537 58.33 8.543 66.22 10.93 74.354c.09.309.278.615.14 1.14-.233-.28-.39-.493-.571-.682-2.034-2.107-3.99-4.291-6.117-6.308-.547-.519-1.08-1.07-1.815-1.335-.877-.315-1.405.008-1.583.91-.111.569-.022 1.127.06 1.672.666 4.496.968 9.024 1.25 13.551.542 8.712.362 17.429-.02 26.139-.342 7.852-.927 15.695-1.05 23.557-.124 7.913-.137 15.824.84 23.694 1.058 8.534 3.134 16.811 6.398 24.783 4.82 11.771 11.595 22.203 21.078 30.769 4.966 4.485 10.556 7.939 17.035 9.829 3.146.919 6.32 1.659 9.63 1.546.212-.007.305.116.407.251 1.364 1.773 3.02 3.247 4.717 4.687 5.449 4.628 11.753 7.491 18.731 8.791 6.648 1.236 13.378 1.614 20.138 1.189 2.777-.174 5.578-.233 8.286-.933 4.205-1.086 7.466-3.638 10.2-6.9 3.494-4.169 6.183-8.884 9.019-13.499.122-.199.17-.457.475-.599.021.293.047.555.057.818.295 7.83.591 15.663.881 23.493.099 2.633 1.084 3.681 3.719 3.924.218.021.438.024.658.034 4.677.22 9.318-.391 13.972-.662 5.757-.337 11.514-.626 17.283-.447 3.129.096 6.255.058 9.361-.38 2.095-.294 4.143-.757 5.8-2.201 1.006-.876 1.679-1.918 1.312-3.338-.1-.388.172-.458.393-.584 1.056-.6 1.818-1.467 2.327-2.557.758-1.625.466-3.083-.833-4.33-.192-.185-.468-.312-.588-.698.856 0 1.636.006 2.416 0 3.518-.032 7.038.008 10.544-.351 1.824-.188 3.642-.423 5.333-1.193 2.689-1.227 3.08-3.624.938-5.667-.158-.151-.317-.318-.507-.417-.508-.267-.519-.497-.147-.96 2.075-2.58 1.606-5.513-1.139-7.378-.856-.582-1.801-.965-2.786-1.266-3.982-1.215-8.01-.974-12.048-.374-1.193.178-2.382.392-3.635.598.055-.219.081-.337.113-.451.978-3.496 2.137-6.941 2.921-10.495 1.32-5.981 2.031-11.971.809-18.067-.701-3.5-1.771-6.846-3.825-9.806-1.956-2.818-4.721-4.06-8.099-3.996-.5.009-.629-.129-.656-.578-.256-4.459-.654-8.908-1.063-13.355a1108.65 1108.65 0 0 0-2.203-21.406c-.049-.436.068-.709.436-.974.951-.689 1.8-1.497 2.606-2.352 3.921-4.152 6.593-9.042 8.527-14.372.917-2.524 1.82-5.058 1.917-7.777.025-.708.211-.704.787-.51a143.15 143.15 0 0 0 13.087 3.714c6.032 1.4 12.147 2.2 18.328 2.54 5.912.325 11.816.43 17.691-.482 2.128-.332 4.236-.773 6.12-1.882 2.213-1.303 2.293-3.411.181-4.835-1.324-.891-2.802-1.466-4.356-1.835-.97-.407-1.996-.618-3.015-.843-6.607-1.449-13.34-2.151-19.986-3.371-4.442-.816-8.936-1.287-13.395-2.002-7.723-1.237-15.262-3.245-22.754-5.444-.216-.063-.468-.058-.638-.313 6.063-.24 12.093-.4 18.125-.53.361-.006.513.149.65.446.506 1.111 1.041 2.207 1.781 3.186 1.186 1.568 2.591 1.893 4.383 1.05 1.107-.523 1.973-1.339 2.769-2.241.694-.787 1.348-1.61 2.071-2.368.503-.528 1.112-.371 1.415.28a27.646 27.646 0 0 0 1.994 3.573c1.126 1.715 2.887 2.112 4.64 1.067.334-.199.648-.435.953-.678 1.292-1.033 2.265-2.356 3.229-3.674.443-.605.918-.828 1.657-.756.513.05.593.188.472.652a242.643 242.643 0 0 0-1.251 5.04c-.141.59-.368 1.167-.368 1.786 0 .496.249.836.73.973.516.146.931-.04 1.173-.5.156-.296.235-.639.317-.969.509-2.042 1.009-4.088 1.517-6.155.242.102.241.3.311.442a17.731 17.731 0 0 0 2.374 3.68c.771.914 1.743 1.19 2.897.852.65-.19 1.188-.554 1.683-.998 1.172-1.052 2.132-2.278 2.987-3.593.091-.14.167-.344.364-.316.227.032.167.265.187.42.141 1.09.279 2.178.409 3.268.147 1.236.266 2.474.433 3.705.085.624.493.946 1.13.889.629-.057.846-.506.899-1.064.013-.143-.01-.291-.026-.438-.216-1.988-.418-3.98-.661-5.965-.063-.519.052-.623.564-.53 1.007.187 2.028.3 3.042.45 2.027.297 4.053.598 6.079.899.363.047.725.102 1.088.14 2.356.251 4.257-.52 5.666-2.467a32.279 32.279 0 0 0 3.664-6.56c.828-1.992 1.4-4.047 1.551-6.213.243-3.498-1.375-5.633-4.812-6.298l.001.001Zm-72.036-8.835c.254 2.255-.479 4.23-1.929 5.943-2.61 3.081-7.207 4.183-10.934 2.637-5.014-2.077-6.308-8.156-2.576-12.16 1.891-2.031 4.248-3.051 7.014-3.139 3.839-.12 7.93 2.325 8.425 6.718Zm58.874 27.118c-1.133-.126-2.264-.272-3.398-.365-.462-.037-.687-.157-.75-.666-.139-1.135-.352-2.26-.55-3.387-.133-.753-.549-1.133-1.143-1.084-.645.052-.994.495-.911 1.323.093.919.275 1.829.426 2.742.079.482.061.713-.602.662-2.673-.211-5.342-.478-8.027-.512-.956-.011-1.015-.121-.799-1.035.375-1.589.718-3.185 1.124-4.764.165-.642.021-1.06-.604-1.266-.646-.214-1.049.138-1.255.689-.545 1.463-.891 2.989-1.237 4.508-.379 1.657-.355 1.653-2.015 1.627-3.221-.053-6.445-.179-9.665-.113-3.466.07-6.934.038-10.398.12-4.197.1-8.393.17-12.589.286-4.61.129-9.218.281-13.825.454-1.339.05-2.669.2-4.009-.023-.671-.113-1.242.3-1.291.888-.056.662.35 1.099.936 1.225 1.676.359 3.269.98 4.906 1.456 4.12 1.196 8.238 2.397 12.396 3.454 4.39 1.115 8.8 2.144 13.278 2.84 7.847 1.22 15.606 2.945 23.493 3.943 4.736.599 9.448 1.396 14.014 2.869.001-.037-.002-.076-.003-.114 0 .038.004.077.003.114.731.332 1.506.573 2.183 1.023.654.433.663.634-.015 1.006-1.299.714-2.727 1.058-4.165 1.326-2.4.447-4.828.638-7.267.777-3.202.182-6.398.086-9.59-.06-8.384-.385-16.627-1.69-24.715-3.974-6.013-1.698-11.891-3.811-17.839-5.706-1.673-.533-3.349-1.061-5.023-1.588-.908-.286-1.49-.068-1.763.647-.255.673.072 1.297.978 1.599 2.546.85 5.109 1.646 7.661 2.472 1.324.429 2.632.904 3.965 1.306.559.168.77.42.765 1.022-.013 2.058-.536 4.005-1.187 5.925-1.242 3.659-2.713 7.216-4.823 10.477-2.744 4.24-6.199 7.701-10.828 9.892a27.093 27.093 0 0 1-6.224 2.094c-.614.124-.809-.037-.833-.679-.127-3.461-.278-6.92-.466-10.378-.058-1.092-.148-2.19-.413-3.259-.208-.838-.76-1.275-1.434-1.142-.681.134-1.063.746-.912 1.584.428 2.361.448 4.752.567 7.136.208 4.188.389 8.379.704 12.561.195 2.576.308 5.159.466 7.738.235 3.82.48 7.639.711 11.459.113 1.849.213 3.7.307 5.551.193 3.821.426 7.641.715 11.457.182 2.406.305 4.816.468 7.224.229 3.38.472 6.759.705 10.138.159 2.286.304 4.572.462 6.857.223 3.209.503 6.412.843 9.611.355 3.342.747 6.68 1.211 10.009.055.388-.055.569-.484.618-3.243.384-6.466.906-9.684 1.445-.919.154-.935.137-.935-.81 0-5.25-.079-10.502.028-15.749.098-4.809.09-9.619.126-14.426.028-3.804.032-7.61-.332-11.402-.316-3.291-.962-6.503-2.291-9.558-.965-2.216-2.362-4.034-4.519-5.199-.343-.185-.478-.432-.497-.815-.195-3.798-.386-7.597-.612-11.394-.262-4.405-.563-8.806-.837-13.21-.164-2.652-.296-5.306-.465-7.958-.171-2.7-.377-5.398-.551-8.097-.04-.608-.01-1.221-.023-1.83-.017-.789-.49-1.319-1.17-1.326-.587-.008-1.173.559-1.197 1.261-.029.853-.009 1.71.043 2.562.108 1.824.259 3.645.379 5.468.245 3.745.481 7.492.719 11.238.105 1.679.208 3.357.305 5.036.245 4.26.485 8.519.727 12.777.089 1.583.167 3.165.27 4.747.022.334-.09.43-.406.42-3.773-.119-6.648 1.824-9.334 4.134-4.088 3.514-7.239 7.842-10.445 12.121-6.261 8.352-11.784 17.185-17.094 26.157-.42.712-.804 1.457-1.109 2.224-.38.951.384 1.921 1.344 1.791.367-.05.67-.223.795-.569.802-2.225 2.168-4.145 3.376-6.142 4.308-7.123 8.771-14.148 13.73-20.843 2.803-3.785 5.564-7.608 8.884-10.973 1.821-1.847 3.788-3.483 6.121-4.706 3.843-2.011 7.394.302 8.822 2.984 1.323 2.484 2.028 5.169 2.39 7.942.993 7.584.618 15.21.532 22.815-.086 7.618-.041 15.233-.087 22.851-.006 1.071.155 1.218 1.252 1.134 2.165-.167 4.294-.606 6.439-.929 3.375-.508 6.749-1.003 10.155-1.272a53.676 53.676 0 0 1 7.173-.099c1.906.104 3.786.42 5.497 1.358.448.246.884.5 1.061 1.049.222.685.096.887-.585.759-1.784-.334-3.589-.423-5.394-.37-3.582.105-7.164.278-10.727.691a3.04 3.04 0 0 0-.835.236c-.474.207-.876.563-.788 1.105.097.601.528.973 1.176 1.018 1.006.069 1.999-.107 2.993-.193 3.699-.325 7.402-.551 11.115-.377 1.862.088 3.689.436 5.278 1.524 1.145.786 1.241 1.539.365 2.631-.441.551-1.008.914-1.658 1.164-.283.109-.566.124-.855-.004-1.915-.847-3.963-1.005-6.011-1.086-2.563-.101-5.129-.022-7.689.138-.55.034-1.119.085-1.608.415-.76.511-.725 1.377.086 1.795.283.145.588.233.915.217 2.512-.128 5.023-.28 7.538-.197 1.607.053 3.218.128 4.786.56.545.149 1.054.379 1.554.639.572.296.572.68.189 1.115-.515.583-1.191.919-1.906 1.188-1.805.68-3.702.855-5.598.982-4.611.311-9.229-.127-13.841.05-4.12.158-8.234.375-12.349.653-3.794.258-7.587.691-11.404.484-.122-.007-.245 0-.366-.012-1.443-.12-1.629-.285-1.632-1.739-.009-4.175-.346-8.335-.477-12.505-.111-3.584-.264-7.165-.404-10.748-.066-1.681-.144-3.36-.231-5.039-.017-.349.172-.605.316-.879 2.809-5.34 5.315-10.813 7.307-16.512.161-.46.324-.92.456-1.389.233-.832-.051-1.5-.698-1.701-.696-.215-1.311.16-1.594 1.014-1.907 5.759-4.416 11.255-7.155 16.659-3.164 6.239-6.751 12.215-10.85 17.883-1.832 2.535-4.027 4.687-6.743 6.308-1.871 1.117-3.894 1.682-6.02 1.899-3.787.388-7.589.717-11.397.573-5.8-.218-11.617-.495-17.223-2.182-5.63-1.694-10.693-4.413-15.12-8.367-2.661-2.378-4.53-5.206-5.948-8.408-.188-.423-.373-.854-.742-1.163-.311-.261-.654-.465-1.068-.298-.416.169-.645.518-.703.957-.052.393.005.777.181 1.14.437.9.866 1.804 1.295 2.708.07.15.22.32.088.47-.117.135-.32.061-.49.043-7.56-.799-14.251-3.69-20.24-8.317-6.52-5.036-11.657-11.286-16.1-18.152-4.106-6.35-7.178-13.193-9.549-20.354-1.758-5.31-2.937-10.758-3.726-16.295-.533-3.746-.822-7.507-.99-11.282a4.353 4.353 0 0 1 .24-1.581c3.108-9.426 6.473-18.763 9.89-28.081.058-.154.127-.303.257-.614.525 1.215.984 2.299 1.46 3.378 1.653 3.749 3.28 7.511 5.154 11.158.168.327.35.652.637.886.781.639 1.932.203 2.228-.863.308-1.107.345-2.262.49-3.396.441-3.455.874-6.911 1.279-10.37.334-2.855.631-5.715.938-8.572.327-3.053.677-6.102.96-9.157.233-2.519.384-5.044.587-7.759.721 1.16 1.366 2.198 2.013 3.236 2.054 3.292 4.1 6.588 6.167 9.873.551.875 1.286 1.062 2.042.609.508-.303.641-.809.65-1.318.067-3.516.058-7.031-.066-10.545-.028-.79-.005-1.58-.005-2.498.848.65 1.352 1.405 1.955 2.063 1.22 1.332 2.413 2.686 3.616 4.034.566.635.866 1.358 1.007 2.217.34 2.073.595 4.153.646 6.248a43.408 43.408 0 0 1-.324 6.276c-.741 6.137-2.665 11.975-4.52 17.831-1.833 5.788-3.918 11.494-5.604 17.329-1.26 4.364-2.146 8.801-2.723 13.307-.403 3.147-.749 6.302-.655 9.473.176 5.958 1.023 11.796 3.453 17.314 2.575 5.851 6.517 10.496 12.06 13.74.739.432 1.513.811 2.347 1.011.535.129.658.434.715.934.172 1.499.141 3.017.436 4.503.085.432.217.845.497 1.2.323.41.721.715 1.254.543.516-.167.765-.634.756-1.146-.013-.678-.13-1.354-.2-2.03-.273-2.641-.578-5.279-.809-7.922-.274-3.131-.492-6.269-.717-9.404a145.811 145.811 0 0 1-.3-5.185c-.14-3.877-.367-7.75-.311-11.633.072-4.928.303-9.845.698-14.758.484-6.034 1.327-12.01 2.81-17.884 1.715-6.802 3.865-13.453 7.016-19.745 2.984-5.96 6.45-11.609 10.993-16.528 3.718-4.026 7.863-7.534 12.832-9.95 3.064-1.49 6.268-2.587 9.667-3.02.716-.09 1.126-.458 1.422-1.088.632-1.348.622-2.803.707-4.229a48.496 48.496 0 0 1 3.514-15.47c2.022-4.968 5.237-8.978 9.539-12.173 4.777-3.546 9.834-6.537 15.573-8.261 5.114-1.537 10.332-2.345 15.672-1.987 6.231.416 12.233 1.884 17.985 4.33 3.711 1.578 7.338 3.323 10.779 5.436a3.8 3.8 0 0 0 .412.114c-1.283-.013-2.328.197-2.822.331-4.093 1.127-6.978 3.592-8.135 7.72-1.45 5.177 1.742 10.282 7.092 11.606 5.915 1.464 11.959-2.008 13.652-7.833.04-.138.163-1.155.178-1.57-.015.415.033.817.145 1.214.569 1.698 1.332 3.333 1.676 5.103.152.784.255 1.576.379 2.365-1.356.2-2.727.083-4.085.198-.824.07-1.329.544-1.299 1.112.034.64.572 1.038 1.443 1.016 1.339-.034 2.676-.101 4.015-.144.752-.025 1.504-.029 2.256-.042 2.309.236 4.63.249 6.945.306 9.697.243 19.396.31 29.094.15 3.61-.06 7.22-.247 10.827-.421 1.727-.084 3.45-.274 5.176-.413.161-.013.324-.002.642-.002-.661.582-1.277 1.003-1.752 1.589-1.276 1.575-1.452 3.28-.59 5.062 1.053 2.182 2.628 3.985 4.362 5.65a124.533 124.533 0 0 0 3.834 3.495c-1.976-.192-3.911-.568-5.881-.62l-.01.002Z" fill="#020203"/><path d="M172.405 206.135c-.185-2.967-.317-5.939-.467-8.909-.246-4.894-.483-9.788-.73-14.681-.095-1.899-.189-3.798-.313-5.695-.225-3.429-.464-6.855-.709-10.283a369.9 369.9 0 0 0-.475-6.045c-.267-3.034-.55-6.064-.841-9.094a607.578 607.578 0 0 0-.663-6.467c-.311-2.905-.642-5.808-.943-8.715-.083-.802-.08-.82-.784-.419-2.802 1.591-5.755 2.775-8.963 3.231-.538.076-.538.363-.513.759.149 2.31.293 4.621.437 6.932.243 3.94.492 7.881.725 11.821.304 5.109.59 10.22.893 15.33.198 3.332.398 6.666.622 9.996.317 4.692.654 9.381.988 14.072.251 3.524.455 7.052.782 10.569a341.8 341.8 0 0 0 1.544 13.497c.083.623.265.737.847.697 2.821-.192 5.643-.483 8.308-.173.266 0 .368-.017.461.003.704.156.883-.146.817-.814-.1-1.019-.11-2.044-.179-3.066-.28-4.182-.585-8.361-.844-12.544v-.002ZM199.44 223.705c-1.213-.757-2.591-.981-3.979-1.124-2.675-.274-5.361-.278-8.047-.3a151.103 151.103 0 0 1-5.124-.152c-1.034-.044-1.565-1.066-.993-1.874.384-.544.999-.611 1.579-.569 2.046.154 4.092.229 6.144.229 2.879 0 5.759.02 8.603.577.214.041.433.059.648-.037 1.974-.885 2.273-3.311.56-4.608-.771-.583-1.661-.914-2.582-1.181-3.234-.936-6.511-.834-9.794-.368-1.833.261-3.655.601-5.486.873-1.45.216-2.365-.791-2.05-2.217.073-.332.167-.662.256-.99.866-3.174 1.964-6.279 2.709-9.488.928-3.996 1.694-8.011 1.69-12.496.066-1.797-.233-3.918-.632-6.031-.58-3.072-1.57-5.983-3.3-8.618-1.345-2.045-3.305-2.958-5.67-3.136-.877-.066-1.009.082-.955.989.087 1.436.203 2.869.282 4.305.114 2.094.205 4.19.311 6.284.239 4.772.479 9.546.723 14.319.098 1.924.184 3.848.307 5.77.223 3.479.477 6.955.703 10.432.167 2.579.309 5.158.466 7.738.041.668.22 1.108 1.021 1.326 1.615.443 3.287 1.114 4.055 2.66.629 1.267 1.362 1.349 2.576 1.298 3.415-.141 6.839.01 10.252-.236 1.847-.133 3.699-.293 5.472-.884.582-.193 1.397-.328 1.456-1.044.057-.704-.644-1.102-1.201-1.451v.004Z" fill="#283996"/><path d="M128.926 110.94c-.267 1.361-.575 2.72-.644 4.109-.035.705.12 1.376.803 1.764.715.406 1.361.169 1.975-.258.769-.535 1.405-1.213 2.006-1.918 2.109-2.466 4.202-4.944 6.296-7.422.55-.652 1.101-1.305 1.609-1.99.35-.471.388-1.012-.025-1.477-.39-.435-1.071-.429-1.599-.01-.265.211-.495.47-.73.718-1.895 2.006-3.505 4.254-5.347 6.305-.739.824-1.409 1.71-2.352 2.592.148-.801.263-1.419.376-2.038.368-2.012.901-3.991 1.167-6.024.091-.7-.066-1.326-.675-1.74-.62-.422-1.208-.201-1.759.189-.139.098-.271.208-.402.316-2.117 1.77-4.089 3.698-6.114 5.57-.716.661-1.411 1.342-2.116 2.015.418-2.322.969-4.54 1.537-6.754.796-3.117 1.598-6.23 2.413-9.341.179-.685.185-1.322-.35-1.832-.535-.51-1.15-.352-1.785-.142-1.321.436-2.634.883-3.913 1.436-1.114.48-2.245.922-3.463 1.417.066-.36.261-.487.397-.652 2.397-2.928 4.963-5.706 7.567-8.45.716-.752.901-1.535.541-2.092-.387-.6-.866-.674-2.049-.32-2.53.754-4.944 1.815-7.387 2.798-.892.36-1.782.724-2.673 1.084.415-.806.916-1.487 1.424-2.164 1.725-2.303 3.479-4.586 5.082-6.98.456-.68.419-1.312-.132-1.76-.515-.42-1.223-.305-1.748.296a6.233 6.233 0 0 0-.485.641c-2.012 3.032-4.289 5.87-6.464 8.783-.86 1.152-1.825 2.226-2.68 3.384-.58.787-.227 1.725.679 2.066.513.193.966-.002 1.396-.224 2.063-1.064 4.195-1.973 6.34-2.85 1.141-.466 2.287-.918 3.541-1.419-.091.205-.104.282-.15.33-2.123 2.293-4.114 4.698-6.104 7.105-.667.808-1.412 1.562-1.903 2.5-.495.948.076 1.962 1.109 2.027.435.027.818-.138 1.186-.323 2.75-1.385 5.64-2.442 8.476-3.625.213-.088.459-.299.673-.1.186.175-.009.415-.059.617-1.29 5.202-2.588 10.403-3.879 15.603-.135.542-.27 1.086-.255 1.656.03 1.163.95 1.76 2.02 1.276.284-.129.55-.316.793-.517 2.015-1.666 3.808-3.573 5.745-5.322.878-.794 1.742-1.605 2.72-2.506 0 .305.022.446-.003.576-.206 1.026-.428 2.048-.631 3.076l.005.001ZM150.21 112.035c.562.921 1.66.886 2.339.034.164-.206.311-.445.399-.693a850.2 850.2 0 0 0 2.887-8.121c.249-.718-.05-1.339-.66-1.566-.603-.224-1.235.057-1.534.747-.281.646-.507 1.318-.743 1.983-.537 1.511-1.065 3.026-1.653 4.698l-.837-1.432c-.758-1.307-1.501-2.623-2.278-3.918-.431-.718-1.078-.935-1.663-.627-.585.307-.849.999-.49 1.63 1.382 2.437 2.773 4.871 4.232 7.263l.001.002ZM66.203 146.286c-.26-.709-.946-.844-1.518-.346-.449.392-.636.912-.774 1.461-.702 2.793-1.002 5.655-1.462 8.489-.343 2.113-.657 4.233-.745 6.378v.586c.01 1.091.386 1.674 1.093 1.702.721.027 1.189-.597 1.255-1.678.007-.122.004-.245.013-.366.059-.777.072-1.561.186-2.33.623-4.238 1.166-8.49 2.062-12.684.092-.432.029-.831-.11-1.213v.001ZM18.944 173.331c.734 3.962 1.912 7.806 3.19 11.618.2.597.417 1.2.796 1.719.355.485.861.556 1.38.394.512-.159.64-.625.701-1.209-.064-.209-.145-.515-.25-.811-.24-.666-.52-1.316-.73-1.99-1.15-3.674-2.33-7.34-2.866-11.173-.114-.816-.671-1.26-1.315-1.165-.663.098-1.129.766-1.053 1.531.037.364.082.727.15 1.086h-.003ZM66.213 196.631c.708-.045 1.155-.581 1.078-1.455-.178-1.99-.261-3.982-.352-5.977-.076-1.679-.115-3.354.017-5.033.06-.747.144-1.5-.045-2.251-.116-.458-.41-.74-.846-.792-.446-.055-.784.197-1.006.59a3.708 3.708 0 0 0-.42 1.232c-.215 1.283-.108 2.575-.16 3.91.036 2.802.142 5.647.447 8.481.093.868.58 1.342 1.286 1.295h.001ZM85.06 220.727c.074.644.113 1.313.407 1.919.258.532.662.887 1.267.771.582-.111.93-.522.947-1.14.012-.413.052-.843-.032-1.241-.635-3.016-.757-6.078-.881-9.142-.037-.923-.1-1.848-.21-2.764-.066-.546-.36-.957-1.001-.958-.654-.002-.877.435-.991.973-.21.987-.108 1.993-.15 2.879-.015 2.992.315 5.848.645 8.703h-.001ZM107.488 159.045c.484.17.931.075 1.265-.312.188-.217.325-.488.445-.752 1.442-3.172 2.887-6.343 4.309-9.526.236-.526.575-1.028.578-1.641.01-.797-.451-1.235-1.226-1.194-.612.032-.887.442-1.107.927-1.553 3.417-3.106 6.833-4.657 10.252-.183.403-.293.823-.253 1.276.039.445.197.812.648.97h-.002ZM33.803 126.749c.74.102 1.212-.245 1.407-1.043.051-.213.104-.428.119-.645.164-2.601.312-5.204.306-7.812 0-1.049.035-2.098-.01-3.144-.037-.855-.608-1.35-1.365-1.299-.717.05-1.025.494-1.009 1.406a105.75 105.75 0 0 1-.37 11.095c-.068.774.313 1.357.923 1.442h-.002ZM15.482 147.92c-.371-3.211-.86-6.413-.868-9.657 0-.338-.046-.678-.09-1.015-.082-.595-.48-.912-1.033-.964-.566-.055-.974.246-1.186.782-.187.469-.12.96-.13 1.646.158 3.3.568 6.774 1.023 10.245.073.563.448.912 1.038.95.574.038.98-.204 1.187-.762.15-.406.109-.809.06-1.224l-.001-.001ZM97.232 127.169c.527-.633.499-1.322-.006-1.768-.49-.436-1.206-.367-1.758.187a8.077 8.077 0 0 0-.725.824c-1.861 2.45-3.552 5.02-5.314 7.539a3.93 3.93 0 0 0-.53 1.036c-.224.697.334 1.433 1.096 1.436.516-.074.908-.39 1.232-.861 1.37-1.991 2.766-3.963 4.137-5.953a33.725 33.725 0 0 1 1.87-2.44h-.002ZM11.737 164.707c-.623.095-1.034.448-1.148 1.061-.06.327-.038.684.024 1.015.35 1.916.791 3.81 1.325 5.683.287 1.007.52 2.034 1.007 2.967.383.731 1.033.986 1.625.712.586-.271.808-.876.545-1.622a50.962 50.962 0 0 1-2.22-8.761c-.106-.642-.55-.939-1.158-1.055ZM19.985 154.422c.523-.305.764-.792.574-1.365-.734-2.237-.684-4.56-.75-6.866v-2.049c0-.293-.017-.575-.22-.826-.35-.429-.79-.58-1.302-.409-.619.207-.782.734-.865 1.32-.225 1.561-.028 3.117.057 4.669.064 1.185.107 2.387.413 3.547.156.586.283 1.195.729 1.653.383.394.82.642 1.365.324l-.001.002ZM70.733 193.077c.132.912.26 1.839.61 2.701.24.592.69.982 1.373.828.63-.141.912-.602.878-1.364 0-.005.006-.131-.024-.248-.507-2.012-.74-4.071-1.036-6.119-.13-.89-.242-1.783-.423-2.664-.105-.516-.244-1.073-.923-1.168-.758-.105-1.283.399-1.283 1.3 0 2.277.504 4.495.83 6.733l-.002.001ZM97.672 179.076c.562.144 1.025-.046 1.296-.548.145-.269.217-.599.244-.908.225-2.641.434-5.281.648-7.923 0-.098-.002-.195 0-.293.016-1.027-.348-1.562-1.087-1.594-.7-.03-1.214.564-1.289 1.493-.01.121-.004.243-.014.365l-.383 4.429c-.104 1.211-.239 2.421-.3 3.634-.03.614.193 1.167.885 1.344v.001ZM87.869 102.891c.714-.733 1.46-1.435 2.167-2.175.33-.345.515-.767.317-1.268-.18-.45-.512-.724-.983-.765-.494-.044-.884.216-1.222.553-.657.652-1.323 1.297-1.968 1.96a674.95 674.95 0 0 0-3.648 3.789c-.36.376-.548.803-.324 1.329.204.478.588.69 1.117.76.474-.064.86-.35 1.204-.707 1.114-1.159 2.221-2.324 3.343-3.476h-.003ZM71.302 155.289c.663.043 1.195-.543 1.265-1.421.188-2.303.591-4.578.934-6.861.13-.87-.146-1.509-.777-1.66-.765-.182-1.413.226-1.56 1.134-.38 2.349-.696 4.71-1.037 7.065l.068.01v.22c-.003.958.368 1.466 1.107 1.513ZM114.054 158.505c.552.26 1.068.091 1.425-.382.215-.286.365-.636.476-.979.497-1.524.987-3.052 1.439-4.591.114-.388.24-.795.195-1.175.014-.897-.261-1.404-.792-1.5-.636-.116-1.172.186-1.397.895a343.295 343.295 0 0 0-1.978 6.408c-.176.59.089 1.068.632 1.323v.001ZM104.155 114.782c.706.118 1.096-.409 1.365-.985.134-.284.237-.591.305-.897.38-1.685.747-3.374 1.118-5.061.181-.825-.122-1.443-.807-1.635-.674-.191-1.283.2-1.488 1.025-.388 1.56-.752 3.124-1.101 4.694-.104.472-.271.941-.216 1.412-.036.683.069 1.322.821 1.448l.003-.001ZM89.404 218.01c.03.951-.032 1.977.174 2.985.123.604.484 1.037 1.125 1.065.525.024.92-.247 1.086-.791.109-.355.175-.715.125-1.079-.158-1.137-.092-2.281-.157-3.42-.025-.433-.057-.88-.179-1.293-.142-.484-.325-.991-.998-.981-.697.011-.956.488-1.137 1.042-.05.157-.036.337-.036.507-.005.633-.002 1.265-.002 1.967l-.001-.002ZM89.554 125.927c-.486-.205-1.02-.151-1.368.216-.99 1.037-1.877 2.165-2.509 3.462-.21.431-.056.875.268 1.21.314.324.7.384 1.138.213.8-.314 2.94-3.341 2.941-4.244.028-.348-.09-.696-.47-.857Z" fill="#020203"/><path d="M100.553 48.745c.268 3.67.493 7.343.792 11.009.066.807.023 1.644.302 2.463.088-.056.164-.079.201-.13 1.774-2.551 3.986-4.672 6.434-6.56.387-.3.393-.635.329-1.03-.831-5.195-1.627-10.391-2.084-15.638-.311-3.573-.665-7.138-.55-10.73.028-.857.146-1.705.593-2.461.546-.926 1.511-1.196 2.465-.7.556.288.984.73 1.33 1.233 2.38 3.467 4.432 7.126 6.311 10.882 1.648 3.294 3.212 6.63 4.952 9.879.162.302.251.65.738.451 1.402-.574 2.856-.99 4.318-1.38.452-.12.474-.293.252-.658-.416-.689-.839-1.377-1.186-2.101-1.862-3.869-3.68-7.76-5.555-11.622-2.951-6.078-5.679-12.27-9.282-18.014-1.236-1.971-2.53-3.89-4.422-5.316-1.615-1.218-2.459-1.095-3.665.543a7.258 7.258 0 0 0-.573.935c-.676 1.284-1.083 2.664-1.389 4.072-.933 4.29-1.015 8.659-1.135 13.017-.098 3.535.094 7.073.217 10.608a294.9 294.9 0 0 0 .606 11.247l.001.001ZM142.935 44.533c1.733.077 3.44.368 5.139.694.465.089.714.029.845-.475.325-1.25.701-2.485 1.054-3.728 1.739-6.123 3.561-12.22 6.017-18.102.563-1.349 1.091-2.726 2.054-3.863 1.169-1.38 2.854-1.201 3.71.384.422.782.647 1.634.836 2.49 1.432 6.514 1.912 13.154 2.492 19.775.26 2.962.409 5.932.607 8.9.037.552.263.914.808 1.172 1.213.574 2.392 1.22 3.564 1.874.802.446 1.569.953 2.509 1.53-.126-1.768-.211-3.347-.356-4.923-.317-3.443-.71-6.88-1.116-10.313a264.905 264.905 0 0 0-1.427-10.271 329.253 329.253 0 0 0-2.114-11.868c-.724-3.709-1.441-7.419-2.783-10.97-.52-1.377-1.161-2.69-2.255-3.724-.898-.85-1.541-.947-2.645-.37-1.026.537-1.747 1.399-2.387 2.33-1.695 2.468-2.901 5.195-4.09 7.923-3.295 7.563-6.134 15.298-8.628 23.16-.81 2.557-1.612 5.115-2.322 7.701-.138.505-.013.655.488.677v-.003Z" fill="#283996"/><path d="M41.104 87.818C36.22 77.47 28.92 69.036 20.268 61.69c-4.8-4.075-10.195-7.293-15.534-10.584-.094-.057-.187-.164-.323-.07 0 .047-.015.1.003.135.214.438.434.873.652 1.31 3.769 7.529 6.587 15.41 8.78 23.525.21.777.392 1.57.265 2.383-.177 1.147-1.146 1.609-2.174 1.062-.374-.199-.677-.479-.966-.778-2.156-2.228-4.306-4.462-6.462-6.69-.242-.25-.456-.537-.828-.71.01.21.007.356.026.502.619 4.944.934 9.912 1.134 14.887.416 10.38-.018 20.748-.613 31.109-.383 6.655-.67 13.312-.675 19.979 0 .195.025.39.052.784.123-.287.165-.372.195-.46 2.713-8.112 5.762-16.105 8.6-24.173.273-.777.512-1.596 1.522-1.633 1.016-.036 1.311.767 1.623 1.527a306.032 306.032 0 0 0 5.74 13.05c.083.176.072.452.367.494.776-5.933 1.455-11.869 2.11-17.808.658-5.966 1.31-11.93 1.626-17.928.059-1.12.026-2.25.248-3.357.101-.508.34-.92.87-1.075.542-.157 1.027-.015 1.41.382.217.224.385.503.551.77 2.47 3.982 4.932 7.965 7.403 11.945.104.167.155.4.452.479 0-.286.002-.523 0-.76-.052-3.832-.097-7.666-.16-11.499-.012-.708.082-1.342.85-1.6.752-.254 1.287.076 1.776.66 1.333 1.586 2.706 3.14 4.171 4.827-.026-.262-.016-.341-.043-.403-.598-1.386-1.164-2.788-1.809-4.154l-.003-.001ZM160.001 20.677c-.587.688-.826 1.275-1.081 1.85-3.262 7.379-5.336 15.152-7.577 22.87-.138.478.136.517.467.6 3.774.93 7.405 2.265 10.938 3.877.201.092.392.296.707.148-.809-9.748-1.189-19.552-3.456-29.346l.002.001ZM117.165 43.175c-2.42-4.979-4.891-9.93-7.897-14.593-.187-.291-.388-.574-.583-.861l-.217.08c-.003 8.64 1.205 17.164 2.542 25.7.132-.03.211-.027.264-.064 2.616-1.804 5.336-3.429 8.228-4.752.458-.21.238-.44.113-.687-.815-1.61-1.662-3.202-2.45-4.824v.001Z" fill="#BAC2E5"/><path d="M210.224 96.34c.355.447.847.457 1.325.212 1.5-.766 2.382-2.129 3.487-3.497h-6.759c.601 1.172 1.163 2.294 1.948 3.285h-.001ZM223.417 93.338c.623 1.301 1.309 2.384 2.133 3.38.241.29.557.318.86.142 1.259-.737 2.109-1.855 2.991-3.137l-5.983-.385h-.001ZM196.304 93.201c-.342 0-.37.14-.238.399.38.737.766 1.47 1.261 2.14.399.538.892.64 1.481.39 1.425-.599 2.329-1.76 3.251-2.926-1.969 0-3.862.005-5.757-.003h.002ZM170.648 58.71c-2.767.087-5.123 1.108-7.014 3.138-3.73 4.005-2.439 10.083 2.576 12.16 3.727 1.545 8.323.443 10.933-2.637 1.45-1.713 2.183-3.688 1.93-5.943-.494-4.395-4.586-6.839-8.425-6.719ZM144.571 59.522c-6.356-.051-11.496 4.92-11.528 11.15-.033 6.03 5.115 11.033 11.383 11.066 6.274.032 11.491-4.908 11.542-10.927.053-6.21-5.023-11.238-11.397-11.288v-.001Z" fill="#F1F9EC"/><path d="M172.06 62.831c-1.884-.03-3.462 1.498-3.5 3.391-.038 1.85 1.381 3.344 3.208 3.38 1.937.04 3.54-1.476 3.582-3.389.041-1.878-1.39-3.35-3.288-3.383l-.002.002ZM152.463 71.179c.044-2.566-2.008-4.346-4.238-4.436-2.398-.095-4.466 1.89-4.494 4.262-.029 2.437 1.877 4.422 4.286 4.462a4.349 4.349 0 0 0 4.446-4.288Z" fill="#020203"/></svg>