<svg width="260" height="249" fill="none" xmlns="http://www.w3.org/2000/svg"><path d="M128.914 216.765c-2.086 3.943-4.536 7.664-6.964 11.395-1.449 2.225-3.055 4.338-4.987 6.181-2.813 2.684-6.056 4.432-10.003 4.774-3.566.308-7.132.629-10.71.557-5.284-.105-10.572-.407-15.73-1.612-6.121-1.43-11.719-4.029-16.533-8.171-1.46-1.256-2.895-2.527-4.107-4.035l-4.506-1.497a39.792 39.792 0 0 1-5.8-1.057c-6.34-1.667-11.843-4.844-16.801-9.087-4.302-3.68-7.99-7.899-11.315-12.451-4.492-6.148-7.987-12.831-10.767-19.915-2.403-6.12-4.07-12.426-5.168-18.891a86.17 86.17 0 0 1-1.086-9.256c-.067-1.115-.137-2.232-.263-3.341-.186-1.647.242-3.178.771-4.705 2.287-6.597 4.49-13.224 6.944-19.763.924-2.459 1.807-4.931 2.763-7.541 1.09 2.492 2.088 4.838 3.138 7.162 1.093 2.416 2.23 4.813 3.36 7.213.153.328.35.644.573.93.729.935 1.991.767 2.464-.33.303-.702.325-1.472.414-2.213.573-4.726 1.134-9.454 1.665-14.184.587-5.218 1.16-10.437 1.696-15.661.25-2.443.396-4.897.592-7.347.008-.09.031-.18.047-.275.303.033.344.29.45.46 2.563 4.11 5.118 8.224 7.67 12.339.54.869 1.094 1.143 1.85.907.574-.178.915-.556.966-1.151.174-2.04.145-4.08.079-6.127-.075-2.287-.059-4.577-.08-6.866 0-.114-.032-.262.105-.322.178-.08.248.083.342.187 1.688 1.882 3.365 3.776 5.074 5.641.729.796.975 1.726 1.156 2.763.4 2.285.62 4.582.616 6.892-.01 5.167-.957 10.199-2.372 15.155-1.972 6.904-4.342 13.68-6.585 20.497-1.904 5.786-3.421 11.666-4.273 17.706-.595 4.224-1.01 8.468-.731 12.73.493 7.527 2.114 14.722 6.51 21.067 2.652 3.826 6.067 6.745 10.16 8.911.214.115.435.274.664.294l3.221-5.995c-.311-3.827-.523-7.66-.755-11.494-.32-5.299-.51-10.601-.367-15.905.101-3.741.297-7.484.585-11.217.505-6.524 1.405-12.993 3.042-19.342 1.92-7.444 4.413-14.677 8.033-21.486 2.925-5.503 6.293-10.698 10.605-15.232 3.732-3.924 7.848-7.36 12.79-9.68 2.895-1.359 5.895-2.466 9.093-2.817 1.39-.154 1.846-.993 2.152-2.092.354-1.273.332-2.6.433-3.903.543-6.95 2.205-13.571 5.79-19.615 1.916-3.229 4.579-5.778 7.571-8.006 4.558-3.394 9.405-6.26 14.848-8.003 5.355-1.714 10.846-2.594 16.474-2.238a54.315 54.315 0 0 1 17.42 4.02c4.19 1.731 8.302 3.634 12.128 6.084 3.099 1.984 6.616 4.49 8.84 7.43l3.257 13.724s6.512.362 9.774.41c3.507.053 7.016.077 10.52.189 4.994.157 9.987.084 14.981.06a265 265 0 0 0 11.098-.294c2.938-.138 5.88-.272 8.804-.648.222-.03.469-.107.695.03-.008.221-.188.281-.315.38-2.622 1.997-3.119 4.442-1.421 7.226 1.485 2.433 3.437 4.466 5.579 6.327.765.664 1.526 1.334 2.239 2.122-1.383-.221-2.763-.457-4.148-.658a168.35 168.35 0 0 0-5.061-.683s-11.281-.923-14.911-1.317c-3.63-.393-14.248-1.84-14.248-1.84a776.737 776.737 0 0 0-7.37-.941c-3.182-.39-6.366-.765-9.55-1.132-3.067-.354-6.129-.733-9.159-1.34-2.676-.537-5.284-1.331-7.913-2.039-.352-.095-.701-.213-1.059-.273-.768-.13-1.485.011-1.967.665-.515.7-.362 1.455.088 2.115 1.146 1.673 2.452 3.21 4.075 4.45 4.564 3.493 9.614 6.096 14.996 8.049 7.732 2.804 15.734 4.538 23.831 5.895 6.046 1.014 12.146 1.678 18.155 2.905 2.479.506 4.96 1.046 7.259 2.165.465.226 1.199.374 1.197.917-.003.503-.726.646-1.186.829-2.145.85-4.401 1.226-6.679 1.474-4.397.479-8.808.43-13.213.268a109.462 109.462 0 0 1-27.009-4.433c-5.042-1.488-10.009-3.2-15-4.846-2.38-.783-4.775-1.528-7.166-2.281-.574-.18-1.207.145-1.443.7-.253.602-.048 1.21.588 1.536.913.47 1.913.72 2.89 1.014 3.171.953 6.311 1.993 9.445 3.059.43.147.532.382.55.802.07 1.68-.291 3.296-.78 4.875-1.308 4.219-2.903 8.327-5.379 12.019-2.166 3.231-4.632 6.191-8.009 8.277-2.822 1.743-5.804 3.058-9.068 3.703-.747.147-.866.048-.899-.683-.153-3.45-.284-6.902-.483-10.351-.065-1.135-.136-2.28-.409-3.396-.215-.882-.822-1.34-1.556-1.17-.709.164-1.046.799-.857 1.676.369 1.72.378 3.477.49 5.219.17 2.62.202 5.249.348 7.871.202 3.616.461 7.228.688 10.842.167 2.669.321 5.34.479 8.009.278 4.685.551 9.371.832 14.055.195 3.254.385 6.509.604 9.761.267 3.932.572 7.86.84 11.792.174 2.547.288 5.098.47 7.644.262 3.661.508 7.323.832 10.98.274 3.074.6 6.141.935 9.208.191 1.736.444 3.466.687 5.197.079.563.101.887-.682.991m5.021 1.953c2.477-.207 4.954-.316 7.433-.12 1.971.156 3.918.447 5.677 1.455.435.249.8.547.951 1.053l4.291 5.148-3.549 7.357c-.935.797-3.329.812-4.504 1.022-3.876.695-35.297 1.592-38.021 1.695-1.535.059-3.059.091-4.591-.027-1.223-.095-1.52-.325-1.515-1.549.021-4.604-.743-21.039-.932-24.66-.07-1.339-.027-2.678-.137-4.012-.029-.363.085-.663.246-.971" fill="#293996"/><path d="M4.92 51.919c1.525.813 2.892 1.744 4.283 2.632 3.181 2.029 6.378 4.032 9.373 6.34 3.248 2.504 6.252 5.28 9.13 8.186 3.122 3.152 6.015 6.517 8.529 10.178 2.913 4.246 5.42 8.726 7.35 13.511.097.239.258.471.186.88-.532-.589-1.018-1.108-1.485-1.645-.91-1.047-1.813-2.1-2.708-3.16-.455-.537-1.008-.781-1.684-.543-.664.236-.875.775-.863 1.451.06 3.921.11 7.842.153 11.763.003.252.088.523-.131.853-.695-1.111-1.363-2.17-2.022-3.236-2-3.23-3.995-6.46-5.99-9.693-.393-.638-.925-1.014-1.7-.857-.76.155-.962.764-1.01 1.426-.142 1.942-.265 3.886-.388 5.828-.313 4.958-.83 9.897-1.402 14.832-.673 5.805-1.362 11.609-2.048 17.413-.042.36-.113.717-.313 1.124-.346-.72-.701-1.435-1.035-2.162a334.56 334.56 0 0 1-4.961-11.376 10.522 10.522 0 0 1-.19-.474c-.256-.697-.69-1.198-1.491-1.167-.806.031-1.162.588-1.405 1.281-.773 2.206-1.532 4.416-2.357 6.602-2.256 5.988-4.324 12.042-6.432 18.082-.04.113-.095.219-.154.353-.209-.123-.134-.308-.134-.451-.012-5.847.197-11.686.53-17.523.655-11.453 1.22-22.91.762-34.388-.2-4.96-.5-9.919-1.13-14.849-.022-.167-.003-.338-.003-.62.638.431 1.057.989 1.532 1.476 1.937 1.989 3.854 3.995 5.781 5.993.322.334.67.642 1.091.847 1.042.508 2.049-.075 2.137-1.258.093-1.263-.284-2.463-.63-3.65C11.99 68.685 9.49 61.6 6.212 54.805c-.423-.876-.863-1.744-1.292-2.619-.019-.038-.003-.092-.003-.272l.005.005Z" fill="#BAC2E4"/><path d="M175.988 223.867c.017 1.227-.397 1.835-1.239 1.822-2.921-.044-5.843-.11-8.75.26-.274.035-.391-.063-.426-.346-.282-2.263-.607-4.521-.863-6.788a431.095 431.095 0 0 1-.846-8.262 282.754 282.754 0 0 1-.481-6.033c-.331-4.609-.653-9.217-.97-13.826-.209-3.033-.407-6.068-.601-9.103-.295-4.586-.593-9.174-.868-13.763-.173-2.888-.288-5.781-.462-8.67-.22-3.663-.482-7.326-.707-10.989-.132-2.136-.23-4.274-.345-6.411-.017-.291.003-.507.384-.561 3.325-.471 6.384-1.692 9.284-3.341.519-.295.663-.177.721.382.42 3.962.877 7.92 1.288 11.883.238 2.295.415 4.597.623 6.895.281 3.119.575 6.239.846 9.359.127 1.475.218 2.956.317 4.434.243 3.611.485 7.224.717 10.835.066 1.019.087 2.04.144 3.06.205 3.69.316 7.384.493 11.075.175 3.666.371 7.329.587 10.993.225 3.832.472 7.662.728 11.493.138 2.061.312 4.118.426 5.599v.003ZM115.163 53.3c-6.127 3.996-9.72 7.388-11.709 10.244-.153-1.758-.301-3.3-.421-4.847-.25-3.223-.494-6.445-.721-9.67a170.19 170.19 0 0 1-.302-5.242c-.143-3.67-.257-7.345-.377-11.017-.151-4.606.016-9.195.391-13.78.201-2.47.589-4.926 1.445-7.275.487-1.337 1.092-2.604 2.306-3.473.537-.384 1.058-.424 1.637-.124 1.74.903 2.988 2.327 4.081 3.893 2.783 3.987 4.97 8.312 7.087 12.672a2907.255 2907.255 0 0 1 7.95 16.515c.828 1.732 1.53 3.527 2.629 5.12.212.308.203.502-.231.61M168.83 52.508c2.034 1.049 4.063 2.106 5.971 3.376.29.193.454.124.455-.24v-.512h-.014c0-.122.01-.244 0-.366-.356-3.817-.65-7.64-1.118-11.449-.408-3.323-.757-6.654-1.263-9.964-.727-4.752-1.52-9.495-2.448-14.213-.75-3.818-1.438-7.65-2.747-11.328-.583-1.635-1.288-3.212-2.587-4.434-.73-.688-1.503-.805-2.416-.388-1.255.572-2.061 1.612-2.773 2.723-2.45 3.837-4.12 8.052-5.851 12.23-2.711 6.544-5.039 13.228-7.166 19.982-.694 2.202-1.31 4.431-1.984 6.64-.174.569-.044.772.569.823 0 0 16.497 3.687 23.372 7.117v.003ZM186.36 192.85c-.094 3.984-.671 7.719-1.491 11.433-.834 3.781-2.135 7.427-3.113 11.165-.075.282-.167.562-.21.85-.156 1.088.545 1.903 1.641 1.949 1.354.057 2.651-.317 3.966-.535 2.621-.433 5.25-.778 7.905-.636 1.872.099 3.714.455 5.47 1.161.477.192.911.455 1.315.777 2.041 1.629.821 3.719-.613 4.553-.445.259-.904-.008-1.351-.078-1.95-.308-3.921-.377-5.887-.417-2.847-.057-5.696-.016-8.541-.229-.599-.046-1.167.121-1.511.692-.269.449-.208.89.097 1.292.32.425.784.536 1.293.543 3.068.047 6.134.167 9.202.177 2.137.007 4.276.133 6.359.711.861.238 1.628.645 2.276 1.258.688.65.619 1.149-.208 1.57-1.485.757-3.113.932-4.733 1.097-3.908.4-7.832.262-11.75.37-1.322.037-2.221.016-2.959-1.433-.803-1.58-2.619-2.167-4.288-2.676-.448-.136-.653-.321-.679-.781-.056-.995-.157-1.985-.22-2.98-.262-4.221-.487-8.443-.782-12.663-.235-3.346-.39-6.695-.574-10.044a802.884 802.884 0 0 1-.595-12.311c-.109-2.72-.274-5.438-.429-8.155a103.05 103.05 0 0 0-.285-3.851c-.062-.651.118-.901.822-.885 2.592.062 4.577 1.156 5.975 3.332 1.794 2.792 2.751 5.887 3.325 9.123.339 1.919.525 3.851.573 5.62v.001Z" fill="#293996"/><path d="M162.369 21.434c.621 1.708.896 3.41 1.169 5.111.918 5.719 1.409 11.486 1.898 17.253.187 2.205.3 4.417.47 6.624.043.571-.085.675-.622.427-3.604-1.67-7.32-3.032-11.187-3.962-.319-.078-.533-.163-.412-.581 2.366-8.097 4.511-16.267 8.054-23.968.139-.303.263-.63.632-.904h-.002Z" fill="#BAC2E4"/><path d="M251.406 77.47c1.257 0 2.294.127 3.317.32 1.554.293 2.325 1.344 2.414 3.076.108 2.14-.448 4.15-1.217 6.094a31.822 31.822 0 0 1-3.255 6.181c-.642.947-1.48 1.097-2.437.487-1.254-.8-2.362-1.788-3.456-2.78-1.563-1.417-3.103-2.867-4.335-4.598-.337-.474-.662-.96-.953-1.463-.856-1.483-.581-2.643.998-3.829 2.01-1.51 4.125-2.836 6.681-3.244.815-.13 1.622-.297 2.244-.245h-.001Z" fill="#331449"/><path d="M110.394 28.498c1.021 1.136 1.712 2.447 2.478 3.71 2.761 4.537 4.934 9.383 7.34 14.107.452.888.913 1.771 1.369 2.657.123.24.274.45-.126.63-2.979 1.348-5.747 3.068-8.461 4.877-.015.01-.045-.003-.152-.012-1.343-8.586-2.568-17.2-2.448-25.969Z" fill="#BAC2E4"/><path d="M175.305 87.545c2.191.42 4.29 1.132 6.462 1.547 1.363.26 2.723.527 4.091.748.467.076.713.235.839.725.506 1.986 1.336 3.851 2.363 5.886-5.096-2.41-9.992-4.758-13.755-8.905v-.001ZM210.995 93.01c-2.069 1.852-3.978 3.606-6.157 5.035-.319.21-.505.186-.639-.206a598.369 598.369 0 0 0-1.917-5.507c-.184-.523.154-.446.446-.408 2.695.351 5.39.707 8.266 1.084l.001.001ZM218.061 93.947l8.519.932c-.237.425-.599.673-.896.975-1.246 1.264-2.483 2.534-3.751 3.774-.591.579-.684.55-1.022-.171-.852-1.82-1.785-3.598-2.849-5.51h-.001Z" fill="#FEFEFE"/><path d="M174.257 75.204c1.036-1.132 2.08-2.072 3.131-3.007.298-.264.38-.105.503.167.467 1.038.963 2.064 1.431 3.102.139.307.242.458.643.307 1.195-.449 2.417-.826 3.622-1.247.852-.297.904-.411.653-1.283-.424-1.474-1.068-2.864-1.655-4.275-.073-.175-.149-.368-.143-.551.006-.182.202-.283.364-.31.265-.044.29.21.363.374.585 1.338 1.118 2.698 1.454 4.122.268 1.134.46 2.288.711 3.43.087.39.021.52-.409.49-3.373-.245-6.734-.593-10.071-1.15-.164-.028-.322-.09-.596-.167l-.001-.002Z" fill="#E90A00"/><path d="m189.152 90.298 6.306.789c-.932 1.097-1.905 2.006-2.893 2.887-1.716 1.53-1.385 1.35-2.234-.461-.472-1.006-.895-2.037-1.179-3.216v.001Z" fill="#FEFEFE"/><path d="M256.685 76.145c-.89-.42-1.838-.629-2.81-.752-2.886-.364-5.737.119-8.596.372-1.739.153-3.475.352-5.216.532-.026-.292.152-.415.281-.544 2.521-2.502 4.97-5.08 7.626-7.446.613-.547 1.293-1.035 1.73-1.768.34-.572.383-1.096-.144-1.565-.478-.427-1.2-.373-1.721.121-1.818 1.726-3.672 3.415-5.438 5.192-1.953 1.965-4.082 3.77-5.651 6.093-.145.214-.365.211-.583.226-1.313.083-2.628.145-3.938.262-.617.055-.709-.135-.515-.68.89-2.502 1.755-5.011 3.068-7.334.157-.276.294-.556.356-.874.095-.485-.063-.866-.445-1.152-.404-.3-.824-.23-1.233 0-.492.278-.76.748-1.008 1.225a43.276 43.276 0 0 0-3.282 8.34c-.123.44-.284.625-.776.622-1.34-.01-2.68.022-4.019.092-.534.028-.731-.16-.819-.66a275.78 275.78 0 0 0-.962-5.096c-.212-1.074-.409-2.155-.699-3.208-.189-.687-.745-.962-1.337-.835-.698.15-.944.62-.921 1.278.009.243.047.486.093.724.446 2.368.866 4.74 1.363 7.097.141.665-.026.757-.638.76-10.673.047-21.345-.033-32.013-.449-.543-.02-.746-.16-.795-.737-.248-3.013-1.068-5.88-2.336-8.625-1.554-3.362-3.981-6.041-6.688-8.491-.496-.45-.703-.94-.755-1.577-.357-4.292-.66-8.59-1.137-12.875-.875-7.87-2.016-15.696-3.507-23.472-.834-4.35-1.56-8.726-2.934-12.951-.726-2.232-1.592-4.392-3.271-6.126-1.717-1.77-3.849-2.06-5.964-.78-1.324.804-2.305 1.936-3.137 3.213-2.328 3.568-3.964 7.48-5.575 11.396-3.902 9.482-7.314 19.135-9.993 29.038-.119.438-.337.506-.724.5a42.331 42.331 0 0 0-9.149.879c-.392.08-.564-.059-.77-.345a18.862 18.862 0 0 1-1.802-3.086c-3.53-7.566-7.165-15.08-10.869-22.562-1.729-3.492-3.644-6.889-5.956-10.039-1.248-1.7-2.707-3.196-4.625-4.167-1.482-.751-2.869-.566-4.183.408-1.618 1.2-2.493 2.902-3.139 4.736-1.151 3.273-1.485 6.691-1.717 10.124-.428 6.305-.246 12.612.01 18.917.288 7.106.819 14.198 1.407 21.286.138 1.65.214 3.307.524 4.936.078.405.062.722-.115 1.101-2.268 4.87-3.822 9.946-4.366 15.308a1276.95 1276.95 0 0 0-.577 5.812c-.032.335-.082.582-.522.637-2.754.35-5.36 1.238-7.9 2.31-6.702 2.825-12.104 7.383-16.811 12.819-4.92 5.681-8.662 12.113-11.727 18.936-3.427 7.627-5.734 15.62-7.249 23.831-1.657 8.987-2.17 18.084-2.253 27.201-.082 9.091.634 18.151 1.36 27.208.026.307.238.734-.01.896-.282.187-.634-.133-.924-.292-5.095-2.776-8.79-6.874-11.272-12.077-2.896-6.066-3.804-12.55-3.724-19.184.066-5.371.901-10.665 2.059-15.905 1.163-5.264 2.958-10.341 4.644-15.45 2.118-6.42 4.335-12.814 5.873-19.411 1.723-7.391 2.047-14.807.053-22.2-1.787-6.62-4.865-12.667-8.59-18.378-4.639-7.111-10.481-13.163-16.93-18.645-3.348-2.845-7.005-5.264-10.717-7.601C9 51.56 6.42 49.759 3.523 48.497c-.556-.243-1.115-.492-1.694-.667-.433-.13-.87-.063-1.187.342-.307.392-.319.804-.089 1.221.187.34.417.655.615.989 1.76 2.984 3.202 6.124 4.611 9.28 1.917 4.293 3.407 8.746 4.865 13.208.39 1.194.722 2.405 1.087 3.635-.403.025-.5-.24-.66-.404-2.089-2.144-4.074-4.39-6.25-6.45-.527-.498-1.039-1.03-1.75-1.291-.986-.363-1.587-.024-1.674 1.01a6.924 6.924 0 0 0 .049 1.527c.987 7.004 1.42 14.051 1.558 21.114.18 9.283-.177 18.557-.746 27.822-.477 7.782-.728 15.571-.665 23.367.057 7.195.471 14.354 1.765 21.45 2.116 11.618 6.084 22.531 12.22 32.636 3.592 5.915 7.784 11.361 12.763 16.186 6.237 6.045 13.361 10.542 21.927 12.511 2.306.529 4.629.921 7.007.845.234-.007.357.087.481.25 1.337 1.755 2.985 3.196 4.645 4.631 5.323 4.597 11.51 7.478 18.34 8.857 6.95 1.404 14.008 1.786 21.096 1.36 2.773-.166 5.559-.261 8.27-.911 4.087-.98 7.297-3.386 10.026-6.469 3.277-3.703 5.739-7.977 8.354-12.14.55-.877 1.074-1.769 1.61-2.654.161.353.191.679.204 1.007.292 7.836.577 15.674.87 23.51.105 2.817 1.148 3.881 3.968 4.063.146.009.292.012.438.019 4.738.217 9.441-.376 14.155-.661 5.67-.343 11.338-.634 17.018-.475 2.951.083 5.896.072 8.836-.217 2.092-.204 4.164-.549 6.012-1.642 1.18-.698 2.412-1.604 2.344-3.039-.063-1.318.655-1.764 1.429-2.46 1.705-1.534 2.827-4.275.23-6.438-.103-.085-.246-.164-.171-.467.519 0 1.071.003 1.621 0 3.801-.023 7.604.016 11.393-.363 2.066-.206 4.123-.485 5.973-1.525 1.576-.888 2.136-2.481 1.404-3.964-.336-.681-.768-1.326-1.423-1.728-.643-.394-.679-.685-.192-1.302 1.766-2.235 1.576-4.616-.453-6.611-.813-.798-1.796-1.335-2.868-1.702-2.684-.92-5.443-1.277-8.274-1.124a53.372 53.372 0 0 0-7.388.937c-1.036.203-1.031.193-.752-.793.9-3.184 1.961-6.321 2.692-9.557 1.273-5.636 2.091-11.295 1.247-17.084-.575-3.938-1.621-7.712-3.751-11.124-1.989-3.185-4.871-4.73-8.614-4.658-.462.008-.645-.063-.674-.56a326.251 326.251 0 0 0-.915-11.726c-.386-4.073-.71-8.152-1.175-12.218-.429-3.75-.812-7.504-1.232-11.256-.051-.462.063-.753.457-1.037.949-.683 1.799-1.487 2.606-2.338 4.098-4.321 6.821-9.444 8.811-15.003.838-2.343 1.613-4.701 1.815-7.202.081-.996.062-.998 1.035-.685l.348.112c5.398 1.759 10.858 3.286 16.438 4.355 5.415 1.039 10.886 1.629 16.392 1.862 5.457.231 10.916.284 16.334-.585 2.191-.351 4.371-.793 6.298-1.979 2.096-1.291 2.14-3.371.13-4.771-.784-.545-1.642-.952-2.533-1.29-3.685-1.402-7.557-2.046-11.417-2.7-3.597-.608-7.223-1.06-10.833-1.606-7.886-1.192-15.67-2.85-23.281-5.262-.948-.3-1.883-.64-2.925-.997.682-.327 1.228-.635 1.709-1.05 1.623-1.405 3.166-2.889 4.566-4.515.333-.387.668-.483 1.145-.429.485.054.458.43.561.736.671 1.982 1.323 3.97 2.018 5.942.209.593.487 1.173.817 1.708.531.86 1.302 1.113 2.272.838.401-.114.768-.302 1.125-.516 1.661-.993 3.109-2.261 4.565-3.517.866-.748 1.719-1.51 2.578-2.264-.02.376-.129.668-.25.958-.675 1.616-1.356 3.229-2.027 4.848-.109.268-.216.551-.24.837-.049.58.156 1.056.739 1.288.581.231 1.005-.054 1.324-.485.555-.752.836-1.647 1.196-2.498.628-1.488 1.222-2.989 1.884-4.618.441.777.83 1.417 1.175 2.079.789 1.509 1.51 3.055 2.347 4.535.751 1.326 1.993 1.606 3.307.838a5.843 5.843 0 0 0 1.097-.841c.755-.725 1.469-1.492 2.215-2.225.489-.478.906-1.04 1.594-1.487 0 .575-.024 1.033.004 1.489.098 1.677.035 3.364.262 5.031.12.879.759 1.318 1.459 1.087.632-.209.91-.743.869-1.668-.116-2.603-.22-5.206-.222-7.814 0-.472.108-.643.611-.597 1.454.136 2.913.253 4.372.325.657.032.954.304 1.157.934a222.44 222.44 0 0 0 2.229 6.486c.295.824.993 1.158 1.662.887.652-.264.876-.921.592-1.724-.308-.872-.619-1.743-.918-2.618-.397-1.16-.785-2.323-1.205-3.572.387.046.651.07.912.109 3.036.44 6.069.896 9.106 1.322 2.54.355 4.587-.454 6.094-2.59a34.184 34.184 0 0 0 3.429-6.1c.986-2.27 1.703-4.623 1.747-7.12.041-2.316-.64-4.283-2.918-5.356l.002.004Zm-73.88-8.037c.265-.044.289.21.363.375.585 1.338 1.117 2.698 1.454 4.121.268 1.135.459 2.289.711 3.43.086.39.021.52-.41.49-3.372-.245-6.733-.593-10.07-1.15-.164-.028-.322-.089-.596-.166 1.036-1.133 2.081-2.073 3.131-3.008.299-.264.381-.105.503.167.467 1.039.963 2.064 1.431 3.102.139.307.242.458.643.307 1.195-.449 2.417-.826 3.623-1.247.851-.297.904-.411.652-1.283-.424-1.474-1.068-2.864-1.655-4.275-.073-.175-.149-.368-.143-.551.006-.182.202-.283.364-.31l-.001-.002ZM144.889 44.57c.674-2.21 1.289-4.438 1.984-6.64 2.127-6.754 4.455-13.438 7.166-19.982 1.731-4.178 3.401-8.395 5.852-12.23.711-1.111 1.515-2.151 2.772-2.723.915-.417 1.686-.301 2.416.388 1.298 1.222 2.004 2.799 2.587 4.434 1.311 3.678 1.997 7.51 2.747 11.328.929 4.718 1.721 9.46 2.448 14.213.506 3.308.855 6.641 1.263 9.964.468 3.809.761 7.63 1.118 11.45.011.12 0 .242 0 .365h.014v.512c0 .365-.165.432-.455.24-1.909-1.27-3.937-2.328-5.971-3.376-.411-.212-.423-.627-.449-1.014-.208-3.127-.353-6.26-.623-9.38-.403-4.643-.812-9.286-1.477-13.9-.359-2.494-.677-5.01-1.543-7.406-.378-1.044-.852-2.037-2.117-2.145-1.163-.1-1.889.66-2.45 1.556-1.258 2.015-2.048 4.249-2.888 6.451-2.35 6.166-4.104 12.52-5.88 18.866-.145.52-.309.693-.891.567-1.665-.358-3.358-.57-5.055-.712-.613-.051-.744-.254-.57-.823l.002-.003Zm20.395 6.28c-3.604-1.669-7.32-3.032-11.188-3.962-.319-.078-.532-.163-.411-.58 2.366-8.097 4.511-16.267 8.053-23.97.139-.302.264-.628.633-.903.62 1.708.895 3.41 1.167 5.112.917 5.718 1.409 11.485 1.898 17.252.187 2.206.3 4.417.469 6.624.044.572-.084.676-.621.427Zm-63.259-31.86c.202-2.472.589-4.928 1.445-7.277.488-1.336 1.092-2.603 2.306-3.472.537-.383 1.058-.424 1.638-.124 1.739.902 2.987 2.327 4.08 3.893 2.783 3.987 4.97 8.312 7.088 12.672a2976.748 2976.748 0 0 1 7.949 16.515c.828 1.732 1.53 3.526 2.629 5.119.212.309.204.503-.231.61-1.491.361-2.96.806-4.384 1.38-.5.202-.633-.073-.81-.428-1.648-3.313-3.317-6.615-4.957-9.93-1.784-3.606-3.799-7.077-5.968-10.461a7.941 7.941 0 0 0-1.215-1.454c-1.265-1.21-2.919-.788-3.419.898a8.144 8.144 0 0 0-.329 2.156c-.075 3.434.256 6.845.554 10.261.479 5.476 1.291 10.904 2.18 16.323.056.337.024.598-.281.829-2.568 1.957-4.857 4.189-6.844 7.047-.154-1.758-.302-3.301-.422-4.847-.25-3.224-.494-6.446-.721-9.67a167.114 167.114 0 0 1-.301-5.243c-.144-3.67-.258-7.345-.378-11.017-.151-4.606.016-9.195.391-13.779v-.002Zm19.432 30.614c-2.979 1.348-5.747 3.068-8.462 4.877-.014.01-.045-.002-.152-.011-1.343-8.587-2.568-17.2-2.448-25.97 1.022 1.137 1.712 2.447 2.479 3.71 2.761 4.538 4.934 9.383 7.339 14.108.452.887.913 1.77 1.37 2.657.122.24.273.449-.126.629ZM4.024 139.894c-.012-5.848.197-11.686.53-17.523.655-11.454 1.22-22.911.762-34.388-.2-4.961-.5-9.92-1.13-14.85-.022-.166-.003-.337-.003-.62.638.432 1.056.99 1.532 1.476 1.937 1.99 3.854 3.996 5.78 5.994.323.333.671.642 1.092.846 1.042.508 2.049-.074 2.137-1.257.093-1.264-.284-2.463-.63-3.65-2.102-7.233-4.603-14.318-7.88-21.113-.423-.876-.863-1.745-1.292-2.62-.019-.037-.003-.092-.003-.271 1.525.813 2.891 1.745 4.283 2.632 3.18 2.029 6.377 4.033 9.373 6.34 3.248 2.504 6.252 5.28 9.13 8.186 3.122 3.152 6.014 6.518 8.528 10.178 2.913 4.246 5.42 8.726 7.351 13.511.097.239.258.472.186.881-.533-.59-1.019-1.109-1.485-1.645-.91-1.048-1.813-2.1-2.708-3.161-.456-.537-1.009-.781-1.685-.543-.664.236-.875.776-.863 1.451.06 3.921.11 7.843.154 11.764.003.251.088.522-.132.852-.695-1.111-1.362-2.17-2.022-3.236-1.999-3.23-3.994-6.46-5.989-9.693-.393-.637-.926-1.013-1.7-.855-.76.153-.962.763-1.012 1.426-.142 1.942-.265 3.886-.388 5.828-.313 4.958-.83 9.897-1.402 14.832-.673 5.805-1.362 11.608-2.048 17.413-.042.36-.113.717-.313 1.123-.346-.719-.701-1.436-1.035-2.161a335.232 335.232 0 0 1-4.961-11.376 11.566 11.566 0 0 1-.19-.474c-.256-.698-.69-1.198-1.491-1.167-.806.031-1.162.588-1.405 1.281-.772 2.206-1.532 4.416-2.357 6.602-2.256 5.988-4.324 12.041-6.432 18.082-.04.112-.095.219-.154.352-.209-.123-.134-.307-.134-.45l.006.003Zm172.464 34.88c2.593.062 4.577 1.156 5.976 3.332 1.794 2.792 2.751 5.887 3.324 9.123.34 1.919.525 3.851.574 5.62-.094 3.984-.672 7.719-1.491 11.432-.834 3.781-2.135 7.427-3.114 11.166-.074.282-.167.561-.209.849-.157 1.089.544 1.903 1.64 1.95 1.355.057 2.651-.317 3.967-.535 2.62-.433 5.249-.778 7.905-.637 1.871.1 3.713.455 5.469 1.162.477.191.912.455 1.316.776 2.039 1.63.82 3.72-.613 4.553-.445.259-.905-.007-1.351-.077-1.95-.309-3.921-.378-5.888-.417-2.847-.057-5.696-.016-8.54-.23-.6-.045-1.168.122-1.511.692-.27.449-.208.891.096 1.293.321.424.784.535 1.294.543 3.068.046 6.133.166 9.201.177 2.138.007 4.277.133 6.359.71.862.239 1.629.645 2.277 1.258.687.651.619 1.15-.208 1.571-1.485.756-3.114.932-4.733 1.097-3.908.399-7.832.262-11.751.37-1.321.037-2.221.016-2.958-1.433-.804-1.58-2.619-2.168-4.289-2.677-.447-.136-.652-.32-.679-.781-.057-.994-.156-1.985-.219-2.979-.262-4.221-.487-8.443-.783-12.663-.234-3.346-.389-6.696-.573-10.045a790.246 790.246 0 0 1-.596-12.31c-.108-2.721-.274-5.438-.429-8.155-.073-1.286-.163-2.57-.285-3.851-.061-.651.119-.901.822-.885v.001Zm-3.911-8.396c.128 1.475.218 2.956.318 4.434.243 3.611.484 7.224.717 10.835.066 1.019.086 2.04.143 3.06.205 3.69.316 7.384.493 11.076.176 3.665.372 7.328.587 10.992.225 3.832.473 7.662.729 11.493.137 2.061.311 4.118.425 5.599.017 1.227-.396 1.835-1.239 1.822-2.92-.044-5.842-.11-8.749.26-.274.035-.391-.063-.426-.346-.283-2.263-.607-4.521-.863-6.788a431.095 431.095 0 0 1-.846-8.262 276.38 276.38 0 0 1-.482-6.033c-.33-4.609-.652-9.217-.97-13.826-.209-3.033-.406-6.068-.601-9.103-.294-4.586-.593-9.174-.868-13.762-.172-2.889-.288-5.782-.462-8.671-.219-3.663-.481-7.325-.707-10.989-.131-2.136-.229-4.274-.345-6.411-.016-.291.003-.507.385-.561 3.324-.471 6.384-1.692 9.284-3.341.519-.295.662-.177.721.382.42 3.962.876 7.92 1.287 11.883.239 2.295.416 4.597.624 6.895.281 3.119.575 6.239.845 9.359v.003Zm19.988-72.404c-1.716 1.53-1.385 1.35-2.234-.461-.472-1.006-.895-2.038-1.179-3.216l6.306.788c-.932 1.097-1.905 2.007-2.893 2.887v.002Zm12.273 4.07c-.319.209-.505.186-.639-.206a598.369 598.369 0 0 0-1.917-5.507c-.184-.523.154-.446.446-.408 2.695.351 5.391.706 8.266 1.084-2.069 1.853-3.979 3.606-6.157 5.035l.001.002Zm20.846-2.191c-1.246 1.264-2.483 2.533-3.751 3.773-.591.58-.684.55-1.022-.17-.852-1.82-1.785-3.599-2.849-5.51l8.52.931c-.237.426-.6.673-.897.976h-.001Zm17.486-1.755a169.554 169.554 0 0 0-5.061-.683c-.513-.059-.792-.26-.944-.737-.303-.95-.629-1.891-.953-2.833-.126-.369-.262-.733-.553-1.015-.383-.373-.85-.52-1.341-.35-.516.179-.618.663-.589 1.147.052.86.349 1.66.654 2.456.349.905.33.95-.635.89-1.139-.07-2.276-.196-3.416-.272-.361-.025-.451-.199-.443-.516.029-1.119-.055-2.242.114-3.355a2.321 2.321 0 0 0-.092-1.008c-.169-.575-.574-.927-1.168-.924-.569.001-.944.338-1.062.914-.262 1.27-.275 2.562-.243 3.848.016.629-.196.813-.793.744-2.461-.28-4.925-.54-7.388-.811-.554-.062-1.106-.19-1.66-.202-.591-.014-.572-.258-.384-.682.239-.532.457-1.075.659-1.623.328-.888.093-1.56-.612-1.83-.69-.263-1.274.043-1.649.902-.31.714-.625 1.43-.862 2.17-.168.526-.457.677-.968.602-1.61-.234-3.22-.46-4.831-.673a787.546 787.546 0 0 0-7.37-.942c-3.183-.389-6.366-.765-9.55-1.132-3.067-.354-6.129-.732-9.159-1.34-2.677-.536-5.284-1.33-7.913-2.038-.353-.095-.701-.214-1.059-.274-.769-.13-1.485.012-1.967.666-.515.699-.363 1.455.088 2.115 1.146 1.673 2.452 3.21 4.075 4.45 4.563 3.493 9.614 6.096 14.995 8.049 7.733 2.803 15.735 4.538 23.832 5.895 6.044 1.014 12.146 1.678 18.155 2.905 2.478.506 4.96 1.046 7.258 2.164.466.227 1.2.375 1.197.918-.003.503-.725.646-1.185.829-2.145.85-4.401 1.225-6.679 1.474-4.397.478-8.808.43-13.214.268a109.461 109.461 0 0 1-27.008-4.433c-5.042-1.488-10.009-3.2-15-4.846-2.38-.784-4.776-1.528-7.166-2.281-.574-.18-1.208.144-1.443.7-.253.601-.048 1.21.588 1.536.913.469 1.912.719 2.89 1.013 3.17.954 6.31 1.994 9.444 3.06.431.146.533.382.551.802.07 1.68-.292 3.296-.78 4.874-1.308 4.22-2.903 8.328-5.379 12.02-2.167 3.23-4.632 6.191-8.009 8.276-2.822 1.744-5.804 3.059-9.069 3.703-.746.148-.866.049-.898-.683-.154-3.45-.284-6.901-.483-10.35-.066-1.135-.136-2.28-.409-3.396-.216-.882-.823-1.34-1.556-1.17-.709.164-1.046.798-.857 1.676.369 1.72.377 3.476.49 5.218.17 2.621.202 5.249.348 7.872.202 3.615.461 7.228.688 10.842.167 2.669.32 5.34.478 8.009.278 4.684.552 9.37.833 14.055.194 3.254.385 6.508.604 9.761.266 3.931.572 7.86.84 11.791.174 2.548.288 5.099.47 7.645.262 3.661.507 7.323.832 10.98.274 3.074.6 6.141.935 9.208.19 1.736.443 3.466.686 5.196.079.563.101.888-.682.992-3.275.439-6.54.978-9.804 1.503-.534.087-.716-.1-.711-.601.041-4.504-.051-9.009.057-13.514.085-3.53.06-7.062.086-10.595.025-3.384.117-6.768.065-10.151-.068-4.304-.18-8.613-1.111-12.844-.451-2.048-1.086-4.036-2.042-5.916-.911-1.791-2.21-3.195-3.938-4.195-.424-.246-.622-.494-.657-1.006-.231-3.421-.386-6.848-.575-10.27-.275-4.979-.627-9.953-.94-14.929-.159-2.501-.333-5.002-.448-7.504-.161-3.475-.569-6.934-.604-10.417-.008-.668-.447-1.148-1.074-1.171-.619-.023-1.07.278-1.26.898-.176.57-.157 1.157-.117 1.74.224 3.373.468 6.744.682 10.118.307 4.833.601 9.665.888 14.499.205 3.472.386 6.944.582 10.416.111 1.967.221 3.934.36 5.899.028.396-.064.551-.462.503-1.579-.186-3.031.279-4.444.902-2.98 1.315-5.332 3.464-7.567 5.755-2.486 2.55-4.643 5.372-6.778 8.214-2.85 3.795-5.655 7.623-8.24 11.607-3.604 5.553-7.199 11.113-10.469 16.872-.311.55-.604 1.115-.854 1.695-.337.778.036 1.7.75 1.954.682.243 1.291-.197 1.583-1.097.366-1.122 1.048-2.087 1.644-3.086 3.63-6.083 7.381-12.089 11.374-17.941 2.893-4.241 5.927-8.385 9.146-12.383 2.335-2.901 4.792-5.706 7.848-7.903a14.632 14.632 0 0 1 3.412-1.8c2.046-.769 3.857-.25 5.581.914 1.62 1.094 2.437 2.745 3.125 4.48 1.198 3.02 1.64 6.197 1.892 9.408.456 5.836.331 11.685.227 17.523-.151 8.476-.075 16.952-.109 25.426-.004 1.094.138 1.24 1.232 1.146 2.521-.215 5.006-.699 7.503-1.081 3.053-.466 6.112-.858 9.189-1.114 2.477-.206 4.954-.316 7.433-.12 1.971.156 3.918.448 5.677 1.455.434.249.8.547.951 1.053.175.59.029.787-.571.683-1.081-.187-2.168-.261-3.264-.311-4.072-.186-8.115.243-12.166.499a7.721 7.721 0 0 0-1.501.261c-.736.199-1.185.742-1.108 1.251.095.626.664 1.075 1.454 1.062a26.634 26.634 0 0 0 2.327-.158 88.514 88.514 0 0 1 10.125-.512c2.159.019 4.326.174 6.315 1.225 1.943 1.029 2.064 2.434.266 3.715-.704.5-1.397.721-2.304.325-1.39-.605-2.909-.782-4.418-.882-2.968-.196-5.936-.101-8.9.1-.48.032-.973.115-1.422.277-.495.179-.906.511-.837 1.137.063.579.493.793.979.945.408.127.815.035 1.226.026 3.115-.067 6.23-.323 9.343-.004 1.284.131 2.565.33 3.745.899.976.47 1.037.902.209 1.607-.935.797-2.085 1.17-3.26 1.381-3.876.695-7.787.717-11.708.535-1.871-.086-3.749-.108-5.623.037-.436.034-.876.039-1.314.042-3.748.013-7.481.341-11.221.56-2.718.16-5.431.419-8.155.523-1.535.058-3.06.09-4.591-.028-1.224-.095-1.521-.325-1.515-1.549.021-4.604-.377-9.192-.503-13.791a442.916 442.916 0 0 0-.429-10.869c-.07-1.338-.028-2.678-.137-4.012-.03-.363.084-.663.245-.971 2.801-5.382 5.386-10.86 7.373-16.602.176-.504.344-1.013.487-1.528.255-.92-.023-1.641-.681-1.834-.723-.211-1.354.208-1.661 1.155-.827 2.548-1.8 5.042-2.836 7.509-1.924 4.582-4.206 8.993-6.53 13.382-2.086 3.944-4.535 7.664-6.964 11.395-1.449 2.225-3.055 4.338-4.987 6.181-2.813 2.684-6.056 4.432-10.003 4.774-3.566.308-7.131.629-10.71.557-5.284-.105-10.571-.406-15.729-1.612-6.122-1.43-11.72-4.029-16.534-8.171-1.46-1.256-2.895-2.527-4.107-4.035-1.391-1.729-2.207-3.774-3.195-5.725-.177-.351-.34-.696-.683-.921-.839-.55-1.633-.162-1.706.834-.043.585.174 1.097.418 1.604.35.724.678 1.458 1.048 2.17.253.488.087.597-.388.545a39.795 39.795 0 0 1-5.8-1.058c-6.34-1.667-11.843-4.844-16.801-9.087-4.302-3.68-7.989-7.899-11.315-12.451-4.491-6.148-7.987-12.831-10.767-19.915-2.402-6.12-4.07-12.426-5.168-18.891a86.17 86.17 0 0 1-1.085-9.256c-.068-1.115-.138-2.232-.264-3.341-.185-1.647.242-3.178.771-4.705 2.287-6.597 4.49-13.224 6.944-19.763.924-2.459 1.807-4.931 2.763-7.541 1.09 2.492 2.088 4.838 3.138 7.162 1.093 2.416 2.23 4.813 3.36 7.213.153.328.35.644.573.93.729.935 1.992.767 2.464-.33.303-.702.325-1.472.414-2.213.574-4.726 1.134-9.454 1.665-14.184.587-5.218 1.16-10.437 1.696-15.661.25-2.443.397-4.897.593-7.347.007-.09.03-.18.047-.275.302.033.343.29.449.46 2.563 4.11 5.118 8.224 7.67 12.339.54.869 1.094 1.143 1.85.907.574-.178.915-.556.966-1.151.174-2.04.145-4.08.079-6.127-.075-2.287-.059-4.577-.079-6.866 0-.114-.032-.262.104-.322.178-.079.249.083.342.187 1.689 1.883 3.365 3.776 5.074 5.641.729.796.975 1.726 1.156 2.763.4 2.285.62 4.582.616 6.892-.01 5.167-.957 10.2-2.371 15.155-1.973 6.904-4.343 13.681-6.586 20.498-1.904 5.785-3.42 11.665-4.273 17.705-.595 4.224-1.01 8.469-.731 12.73.493 7.527 2.114 14.723 6.51 21.067 2.652 3.826 6.067 6.746 10.16 8.91.215.114.436.274.664.294 1.284.108 1.457.981 1.504 2.021.05 1.116.183 2.228.272 3.342.044.549.252 1.033.54 1.492.3.477.712.771 1.277.638.578-.136.758-.631.83-1.164.08-.593-.116-1.16-.186-1.735-.424-3.522-.729-7.055-1.017-10.59-.311-3.828-.524-7.661-.755-11.495-.32-5.299-.51-10.6-.367-15.905.1-3.741.297-7.484.585-11.216.505-6.525 1.405-12.994 3.042-19.343 1.92-7.444 4.413-14.677 8.033-21.486 2.925-5.502 6.293-10.697 10.604-15.231 3.733-3.924 7.849-7.36 12.791-9.681 2.894-1.359 5.895-2.466 9.092-2.817 1.392-.154 1.847-.993 2.153-2.091.354-1.274.332-2.6.433-3.904.543-6.95 2.205-13.571 5.789-19.615 1.917-3.229 4.58-5.778 7.572-8.005 4.558-3.395 9.405-6.262 14.848-8.004 5.355-1.714 10.846-2.594 16.473-2.237a54.33 54.33 0 0 1 17.421 4.019c4.19 1.731 8.301 3.634 12.128 6.084 3.099 1.985 5.738 4.49 7.962 7.43.367.484.399.754-.195 1.124-2.133 1.329-4.058 2.936-5.927 4.612a48.111 48.111 0 0 0-3.684 3.642c-.475.528-.758 1.107-.525 1.791.221.653.825.815 1.445.942 4.299.884 8.646 1.35 13.022 1.614 3.256.195 6.513.36 9.774.409 3.507.053 7.016.078 10.52.189 4.994.158 9.987.085 14.981.06 3.7-.018 7.402-.122 11.098-.294 2.938-.138 5.88-.272 8.804-.648.222-.03.469-.107.695.03-.008.221-.188.281-.315.38-2.622 1.997-3.119 4.442-1.421 7.226 1.486 2.433 3.437 4.466 5.579 6.327.766.664 1.527 1.334 2.239 2.122-1.383-.22-2.762-.456-4.148-.658l.002-.003Zm-54.11 2.347c-5.096-2.408-9.992-4.757-13.755-8.904 2.191.42 4.29 1.132 6.462 1.548 1.363.26 2.723.526 4.091.747.467.076.713.236.839.725.506 1.987 1.336 3.851 2.363 5.886v-.002Zm66.858-9.486a31.87 31.87 0 0 1-3.254 6.18c-.643.947-1.481 1.098-2.439.488-1.254-.8-2.362-1.789-3.455-2.78-1.562-1.418-3.103-2.867-4.335-4.599-.337-.474-.661-.96-.953-1.462-.855-1.483-.58-2.643.998-3.83 2.011-1.51 4.125-2.835 6.681-3.243.815-.13 1.623-.297 2.245-.246 1.256 0 2.294.127 3.316.32 1.554.293 2.325 1.344 2.415 3.076.108 2.14-.448 4.15-1.218 6.095l-.001.001Z" fill="#030405"/><path d="M141.487 105.429c-.206.17-.386.37-.572.563-1.993 2.073-3.661 4.423-5.579 6.558-.733.816-1.393 1.698-2.363 2.571l.944-4.69c.246-1.215.551-2.421.658-3.659.062-.708-.189-1.302-.835-1.66-.605-.335-1.128-.065-1.627.272a5.052 5.052 0 0 0-.403.313c-2.446 2.047-4.739 4.262-7.048 6.458-.399.381-.759.808-1.265 1.083-.126-.255-.041-.463.011-.667 1.066-4.196 2.132-8.391 3.2-12.586.258-1.013.543-2.02.779-3.037.345-1.495-.571-2.373-1.999-1.915-1.065.342-2.113.734-3.169 1.106-1.444.507-2.796 1.252-4.278 1.664l-.098.054.058-.095c.047-.11.072-.237.145-.323 1.763-2.109 3.538-4.208 5.44-6.195a98.185 98.185 0 0 0 2.61-2.85c.523-.59.602-1.294.224-1.812-.405-.552-.971-.579-1.579-.397-.326.098-.657.18-.981.283-3.064.977-5.998 2.294-8.983 3.477-.231.092-.441.338-.772.146.041-.083.067-.174.121-.244 2.252-2.902 4.508-5.8 6.536-8.865.461-.696.433-1.35-.076-1.77-.533-.44-1.248-.334-1.811.275a3.377 3.377 0 0 0-.31.404c-2.169 3.175-4.527 6.213-6.838 9.283-.847 1.126-1.796 2.178-2.626 3.316-.626.858-.082 2.003.954 2.161.41.062.781-.096 1.116-.273 2.177-1.151 4.444-2.103 6.729-3.009 1.055-.418 2.047-1.022 3.199-1.183l.067-.067c-.001.016 0 .04-.007.047-.015.013-.038.014-.059.022.018.165-.088.27-.19.376-1.302 1.347-2.523 2.768-3.721 4.206a368.78 368.78 0 0 0-3.925 4.801c-.357.444-.615.953-.436 1.554.276.933 1.192 1.279 2.187.797 2.916-1.416 5.933-2.59 8.932-3.807.188-.076.4-.285.597-.087.153.154.019.366-.027.552-.438 1.745-.862 3.492-1.313 5.233-1.024 3.953-2.045 7.908-2.894 11.904-.146.686.018 1.275.609 1.667.603.401 1.236.265 1.775-.127a20.119 20.119 0 0 0 1.847-1.54c2.186-2.045 4.352-4.112 6.53-6.165.189-.177.376-.376.729-.43-.235 1.173-.477 2.309-.691 3.45-.282 1.504-.68 2.997-.651 4.54.03 1.515 1.341 2.195 2.614 1.373a6.722 6.722 0 0 0 1.112-.939c2.541-2.59 4.822-5.404 7.106-8.218.658-.812 1.35-1.597 1.997-2.419.388-.493.427-1.041-.039-1.52-.433-.446-1.099-.421-1.654.037l-.007.003ZM167.743 74.482a179.214 179.214 0 0 0-5.231-1.847 129.333 129.333 0 0 0-19.383-4.776c-1.459-.242-2.903-.642-4.397-.624-1.283.016-1.757.679-1.566 1.948.314 2.065 1.196 3.926 2.243 5.663 3.453 5.73 8.825 8.236 15.27 8.808 1.106.025 2.152-.205 3.198-.429 3.301-.703 6.047-2.49 8.688-4.47.698-.523 1.43-1.016 1.94-1.756.709-1.025.41-2.09-.763-2.52l.001.003ZM156.61 80.99c-6.293.998-13.057-2.789-15.887-8.888-.276-.595-.512-1.21-.769-1.812-.154-.36-.152-.542.347-.458 3.312.57 6.625 1.135 9.901 1.895.506.117.548.336.453.753-.38 1.674-.739 3.355-1.124 5.028-.124.541-.01.844.592.98 1.675.379 3.35.77 5.001 1.24.655.187.854-.045 1.047-.588.561-1.576 1.175-3.134 1.734-4.71.173-.485.351-.602.885-.437 2.068.645 4.117 1.34 6.157 2.067.221.079.435.18.752.313-2.806 2.138-5.598 4.063-9.089 4.616v.001ZM153.365 64.065c2.353 1.777 4.885 3.279 7.376 4.847 1.397.879 2.695 1.93 4.273 2.495 1.667.595 2.785-.359 2.431-2.096-.185-.903-.417-1.8-.703-2.677-.763-2.357-1.439-4.752-2.545-6.982-.41-.828-1.158-1.122-1.796-.79-.622.324-.802 1.017-.406 1.853 1.043 2.207 1.691 4.553 2.462 6.857.083.25.205.497.083.757-.146.077-.244-.004-.343-.068-2.05-1.31-4.102-2.617-6.147-3.934-1.228-.79-2.439-1.603-3.668-2.39-.404-.258-.859-.398-1.292-.065-.367.284-.574.688-.474 1.153.093.437.38.762.749 1.04ZM157.645 103.333c-.419-.21-.804-.118-1.165.139-.357.255-.515.642-.659 1.03-.4 1.095-.788 2.195-1.179 3.294-.332.933-.661 1.866-1.062 2.998-.363-.616-.622-1.05-.876-1.486-.785-1.343-1.549-2.7-2.362-4.025-.405-.66-1.137-.819-1.705-.465-.535.335-.696 1.005-.343 1.664.422.793.885 1.565 1.334 2.345.92 1.601 1.825 3.213 2.771 4.8.653 1.094 1.795 1.141 2.562.118.243-.323.423-.711.561-1.094.882-2.445 1.744-4.899 2.616-7.348.115-.326.168-.653.161-1-.011-.471-.255-.768-.654-.968v-.002ZM67.437 148.42c-.364-.726-1.01-.831-1.577-.256-.543.55-.704 1.272-.86 1.98-.489 2.206-.803 4.445-1.128 6.678-.367 2.523-.844 5.033-.951 7.59 0 .315-.003.633 0 .949.01 1.047.407 1.632 1.132 1.673.67.038 1.181-.606 1.216-1.628a32.25 32.25 0 0 1 .318-3.481c.576-4.039 1.113-8.086 1.959-12.084.104-.488.126-.96-.107-1.421h-.002ZM172.934 69.306c.995-.964 1.957-1.963 3.02-2.857.447-.374.899-.746 1.308-1.158.431-.433.612-.936.18-1.49-.421-.54-.936-.679-1.537-.32-.354.21-.713.426-1.023.694-.882.762-1.747 1.543-2.603 2.336-.322.298-.464.374-.565-.165-.377-2.025-.963-4.014-1.005-6.095-.012-.576-.35-.943-.895-1.107-.521-.157-.891.105-1.208.475-.285.332-.355.736-.373 1.162.36 2.622.818 5.23 1.545 7.774.492 1.722 1.854 2.014 3.158.752l-.002-.001ZM25.045 186.596c-1.3-4.043-2.612-8.084-3.199-12.312-.086-.623-.608-1.091-1.2-1.062-.629.032-1.009.369-1.16 1.009-.134.573.008 1.118.106 1.654.714 3.951 1.88 7.783 3.169 11.577.231.681.43 1.395.913 1.97.377.45.848.554 1.377.355.506-.19.643-.622.64-1.177-.004-.065.015-.196-.023-.306-.2-.572-.436-1.132-.622-1.708h-.001ZM68.452 196.124c-.248-3.32-.398-6.642-.147-9.97.04-.528.095-1.064-.09-1.59-.163-.459-.472-.764-.938-.808-.444-.042-.776.218-.99.615-.21.387-.342.795-.416 1.233-.221 1.303-.101 2.618-.145 3.925-.085 1.899.127 3.788.175 5.682.025 1.017.154 2.032.265 3.044.085.779.692 1.312 1.355 1.24.637-.069 1.17-.695 1.083-1.414-.08-.653-.103-1.306-.15-1.959l-.002.002ZM88.35 215.935c-.077-1.256-.026-2.524-.253-3.773-.108-.6-.4-1.029-1.031-1.021-.675.007-.935.482-1.033 1.104-.157.992-.125 1.988-.144 3.181-.008 2.674.327 5.52.638 8.366.078.712.106 1.457.457 2.122.263.496.676.821 1.227.734.608-.095.987-.534 1.032-1.161.032-.433.044-.886-.045-1.308-.575-2.718-.675-5.48-.846-8.241l-.002-.003ZM115.372 147.895c-.592-.31-1.227-.117-1.62.529-.202.331-.347.695-.509 1.049-1.169 2.565-2.35 5.126-3.496 7.702-.442.994-1.001 1.948-1.176 2.934-.005.645.175 1.072.685 1.297.523.231.939.023 1.312-.35.212-.212.341-.469.461-.737.821-1.816 1.649-3.63 2.467-5.448a725.814 725.814 0 0 0 2.37-5.332c.282-.642.053-1.359-.494-1.646v.002ZM34.86 128.748c.66-.011 1.08-.377 1.2-1.045.045-.239.118-.474.132-.716.166-2.593.306-5.189.318-7.788 0-.997-.003-1.993 0-2.991 0-.345-.045-.672-.212-.984-.315-.585-.821-.763-1.417-.608-.627.163-.897.653-.845 1.279.224 2.722-.053 5.435-.132 8.15-.034 1.141-.15 2.278-.18 3.418-.017.69.527 1.296 1.135 1.285h.002ZM15.148 139.554c-.025-.761-.489-1.24-1.151-1.255-.584-.013-1.187.55-1.199 1.243-.022 1.191-.042 2.389.066 3.572.233 2.559.553 5.111.824 7.668.092.876.557 1.407 1.279 1.389.737-.017 1.186-.568 1.186-1.512-.001-.042 0-.14-.013-.237-.483-3.609-.868-7.226-.989-10.868h-.003ZM98.876 127.337c-.489-.456-1.144-.436-1.703.064-.18.163-.353.338-.5.53-2.064 2.676-3.906 5.508-5.834 8.279-.233.335-.455.698-.436 1.061.019.667.32 1.059.88 1.189.664.155 1.105-.24 1.454-.734.838-1.192 1.652-2.402 2.49-3.595 1.214-1.729 2.361-3.505 3.747-5.111.51-.59.429-1.19-.098-1.682v-.001ZM13.499 168.284c-.076-.471-.296-.858-.779-1.065-.443-.19-.828-.07-1.151.205-.465.395-.58.957-.478 1.529.509 2.868 1.186 5.693 2.155 8.444.145.414.329.808.667 1.113.36.325.75.438 1.203.229.463-.214.693-.585.74-1.157-.04-.147-.082-.362-.154-.566a50.596 50.596 0 0 1-2.204-8.732ZM20.624 156.77c.581-.271.788-.914.56-1.705-.128-.443-.302-.885-.349-1.339-.253-2.414-.585-4.825-.322-7.266.088-.814-.404-1.405-1.096-1.464-.683-.057-1.267.464-1.353 1.242-.063.579-.088 1.163-.126 1.685.121 2.074.157 4.094.44 6.093.101.717.229 1.448.649 2.074.452.674 1.06.929 1.596.679l.001.001ZM74.892 197.717c-.458-1.913-.688-3.864-.979-5.806-.165-1.1-.34-2.198-.551-3.291-.123-.635-.575-.991-1.213-.904-.59.082-.889.549-.987 1.118-.032.188-.005.387-.005.582l-.065.009c.236 1.655.467 3.312.708 4.966.2 1.369.391 2.741.786 4.071.22.741.863 1.154 1.466 1.018.637-.144.978-.743.878-1.549a1.804 1.804 0 0 0-.04-.215l.002.001ZM100.518 170.298c-.739-.06-1.217.47-1.399 1.55-.007.048-.019.095-.022.143l-.633 7.882c0 .137-.003.332 0 .525.011.819.431 1.348 1.096 1.387.624.035 1.194-.486 1.264-1.244.26-2.822.516-5.645.728-8.471.087-1.158-.291-1.712-1.036-1.774l.002.002ZM86.544 107.485c1.607-1.631 3.222-3.252 4.827-4.885.394-.401.792-.825.586-1.467-.32-.999-1.34-1.185-2.213-.359a114.128 114.128 0 0 0-3.106 3.094c-.903.921-1.78 1.866-2.669 2.802-.39.411-.498.877-.264 1.408.2.455.572.637.955.669.395.006.645-.136.891-.303.388-.263.67-.63.993-.959ZM72.8 157.573c.654-.06 1.033-.522 1.109-1.404.206-2.371.607-4.715.955-7.067.12-.816-.216-1.471-.869-1.607-.7-.145-1.314.244-1.475 1.064-.48 2.457-.768 4.944-1.062 7.326-.028 1.166.48 1.766 1.342 1.687v.001ZM118.656 152.103c-.61-.125-1.166.269-1.429 1.072-.683 2.079-1.204 4.208-1.933 6.274-.206.585.01 1.115.597 1.403.538.264 1.22.064 1.548-.448.17-.265.318-.556.411-.854.524-1.67 1.029-3.346 1.541-5.019.093-.305.165-.612.145-.893.011-.87-.31-1.421-.878-1.537l-.002.002ZM107.917 107.877c-.747-.164-1.332.219-1.538 1.062-.318 1.294-.603 2.594-.904 3.893-.176.753-.401 1.498-.425 2.001-.014 1.152.283 1.666.858 1.764.516.089 1.137-.364 1.415-1.05.118-.291.234-.59.301-.895.382-1.726.752-3.455 1.119-5.184.18-.852-.131-1.437-.826-1.591ZM93.203 218.67c-.11-.569-.385-1.109-1.05-1.127-.646-.016-.969.464-1.144 1.033-.167.544-.099 1.107.032 1.664 0 1.138-.03 2.278.008 3.415.033.938.472 1.51 1.102 1.579.852.093 1.35-.442 1.348-1.564-.003-1.113-.078-2.227-.138-3.34-.029-.556-.054-1.118-.16-1.662l.002.002ZM90.314 127.77c-.307.078-.625.209-.817.461-.768 1.003-1.6 1.964-2.213 3.076-.343.62-.195 1.309.28 1.641.51.355 1.21.232 1.679-.364a72.235 72.235 0 0 0 1.955-2.635c.24-.336.436-.707.405-1.149.006-.788-.525-1.223-1.29-1.03Z" fill="#030405"/><path d="m117.939 97.807-.098.054.059-.095.041.04h-.002ZM120.996 90.19l.067-.067c-.002.016 0 .04-.007.047-.015.013-.038.014-.059.022l-.001-.002Z" fill="#293996"/><path d="M165.699 76.375c-2.806 2.138-5.598 4.063-9.089 4.616-6.293.997-13.057-2.79-15.886-8.888-.277-.595-.513-1.21-.77-1.812-.154-.36-.152-.543.347-.458 3.312.569 6.625 1.135 9.901 1.894.506.117.548.336.453.753-.38 1.675-.739 3.355-1.123 5.029-.125.54-.011.844.591.98 1.675.378 3.35.769 5.001 1.24.655.187 2.222-3.722 2.781-5.3.173-.483.351-.6.885-.435 2.068.645 4.118 1.34 6.157 2.067.221.079.435.18.752.313v.001Z" fill="#E90A00"/></svg>